<?xml version="1.0" encoding="utf-8"?>
<!-- Generator: Adobe Illustrator 17.0.0, SVG Export Plug-In . SVG Version: 6.00 Build 0)  -->
<!DOCTYPE svg PUBLIC "-//W3C//DTD SVG 1.1//EN" "http://www.w3.org/Graphics/SVG/1.1/DTD/svg11.dtd">
<svg version="1.1" id="Layer_1" xmlns="http://www.w3.org/2000/svg" xmlns:xlink="http://www.w3.org/1999/xlink" x="0px" y="0px"
	 width="613px" height="613px" viewBox="0 0 613 613" enable-background="new 0 0 613 613" xml:space="preserve">
<g transform="matrix(18.68858,0,0,18.68858,-3631.28359,-17252.34126)">
	<path d="M225.871,935.503l-21.923-11.41l-1.03,1.03c1.018,1.503,0.67,3.82-0.977,5.467s-4.017,2.051-5.52,1.03l-0.977,0.977
		l11.384,21.949l9.746-5.732l-6.947-0.555l3.486-3.487l-5.837-0.449l3.038-3.038l-5.256-0.396l2.536-2.536l-4.517-0.343l2.271-2.271
		l-3.936-0.291c2.717-0.493,5.076-2.837,5.573-5.573l0.317,3.909l2.245-2.245l0.37,4.49l2.509-2.509l0.423,5.23l3.011-3.011
		l0.449,5.837l3.486-3.487l0.528,6.815L225.871,935.503L225.871,935.503z"/>
</g>
</svg>
