<?xml version="1.0" encoding="utf-8"?>
<!-- Generator: Adobe Illustrator 17.0.0, SVG Export Plug-In . SVG Version: 6.00 Build 0)  -->
<!DOCTYPE svg PUBLIC "-//W3C//DTD SVG 1.1//EN" "http://www.w3.org/Graphics/SVG/1.1/DTD/svg11.dtd">
<svg version="1.1" id="Layer_1" xmlns="http://www.w3.org/2000/svg" xmlns:xlink="http://www.w3.org/1999/xlink" x="0px" y="0px"
	 width="613px" height="613px" viewBox="0 0 613 613" enable-background="new 0 0 613 613" xml:space="preserve">
<g>
	<path d="M263.25,418.188l158.458-158.457l-8.443-8.443l35.927-35.926l-52.219-52.219l-0.001-0.002l-35.927,35.927l-8.444-8.444
		l-6.537,6.537c-22.681-45.012-18.441-99.956,22.169-169.344l-0.001-0.002C170.876-51.42-41.994,188.944,26.284,377.396
		c63.956-37.181,129.911-53.047,179.141-39.597l-11.282,11.282l8.444,8.444L12.839,547.272v54.366h50.075l191.893-191.893
		L263.25,418.188z"/>
	<path d="M585.759,245.343c-70.356,41.175-125.765,45.096-171.059,21.396L275.275,406.164
		c14.457,49.414-1.378,116.245-39.097,181.127C424.629,655.568,664.994,442.698,585.759,245.343z"/>
</g>
</svg>
