<?xml version="1.0" encoding="utf-8"?>
<!-- Generator: Adobe Illustrator 17.0.0, SVG Export Plug-In . SVG Version: 6.00 Build 0)  -->
<!DOCTYPE svg PUBLIC "-//W3C//DTD SVG 1.1//EN" "http://www.w3.org/Graphics/SVG/1.1/DTD/svg11.dtd">
<svg version="1.1" id="Layer_1" xmlns="http://www.w3.org/2000/svg" xmlns:xlink="http://www.w3.org/1999/xlink" x="0px" y="0px"
	 width="612px" height="612px" viewBox="0 0 612 612" enable-background="new 0 0 612 612" xml:space="preserve">
<path d="M575.533,242.742c-33.93-130.613-150.128-215.613-275.72-211.665C194.14,24.763,87.202,69.535,22.295,154.327
	c31.178-26.55,68.22-45.781,107.688-56.771C55.571,161.743,16.879,263.8,34.76,366.836c1.306-33.779,9.34-66.539,23.067-96.414
	c0-0.012,0-0.024,0-0.036c1.372,61.557,22.074,122.101,62.396,171.373c-45.926-91.853-26.774-233.794,50.148-289.077
	c-0.854,0.619-1.702,1.248-2.544,1.885c13.948-7.128,28.772-12.954,44.382-17.263c127.979-35.36,259.286,43.359,293.598,175.278
	c21.95,84.444-1.32,170.205-54.451,230.331c3.223-3.648,6.336-7.39,9.336-11.221c-64.132-12.079-63.631-75.326,16.744-137.366
	l-58.794-43.637c-2.346,6.912-4.843,13.372-7.467,19.4l12.787,9.015L180.475,207.44c-22.333-12.899-36.48,13.437-18.819,24.798
	L396.35,397.709c-39.118,58.781-93.814,46.35-118.003-17.623c-64.457,54.533-34.555,152.123,27.379,195.276
	c56.453,39.349,140.64,31.074,177.665-37.769C565.047,468.711,604.641,354.727,575.533,242.742z M307.683,31.646
	c0.293,0.025,0.587,0.052,0.88,0.077C308.27,31.698,307.977,31.671,307.683,31.646z M315.685,32.419
	c0.346,0.038,0.692,0.075,1.038,0.113C316.377,32.494,316.031,32.457,315.685,32.419z M324.032,33.434
	c0.205,0.028,0.411,0.053,0.617,0.081C324.443,33.486,324.237,33.461,324.032,33.434z M334.847,117.343
	c-1.721-0.895-3.449-1.766-5.184-2.62C331.398,115.577,333.127,116.448,334.847,117.343z M327.805,113.824
	c-1.253-0.605-2.509-1.202-3.769-1.786C325.295,112.622,326.551,113.219,327.805,113.824z M322,111.104
	c-1.287-0.584-2.578-1.154-3.872-1.716C319.422,109.95,320.713,110.52,322,111.104z M316.338,108.61
	c-1.86-0.792-3.726-1.566-5.599-2.314C312.612,107.043,314.477,107.818,316.338,108.61z M310.016,106.015
	c-1.657-0.656-3.32-1.295-4.986-1.916C306.696,104.72,308.358,105.359,310.016,106.015z M303.146,103.411
	c-1.317-0.48-2.637-0.951-3.96-1.409C300.509,102.46,301.829,102.931,303.146,103.411z M277.89,95.587
	c-1.412-0.363-2.826-0.715-4.242-1.055C275.064,94.872,276.478,95.224,277.89,95.587z M297.198,101.319
	c-1.404-0.474-2.811-0.935-4.221-1.385C294.387,100.385,295.794,100.845,297.198,101.319z M291.382,99.422
	c-1.937-0.606-3.878-1.193-5.825-1.754C287.504,98.229,289.446,98.815,291.382,99.422z M284.73,97.436
	c-1.679-0.478-3.361-0.941-5.047-1.386C281.368,96.496,283.051,96.958,284.73,97.436z M142.611,94.34
	c-4.219,0.975-8.414,2.043-12.583,3.203C134.197,96.383,138.393,95.315,142.611,94.34z M207.156,86.841
	c-1.944,0.007-3.887,0.036-5.83,0.082C203.268,86.877,205.212,86.848,207.156,86.841z M200.29,86.95
	c-1.822,0.05-3.643,0.116-5.464,0.201C196.646,87.067,198.467,87,200.29,86.95z M194.054,87.186
	c-4.252,0.208-8.498,0.508-12.733,0.903C185.556,87.694,189.801,87.394,194.054,87.186z M181.151,88.105
	c-2.007,0.188-4.011,0.4-6.013,0.63C177.139,88.505,179.143,88.294,181.151,88.105z M174.37,88.825
	c-1.947,0.229-3.891,0.475-5.832,0.743C170.479,89.3,172.424,89.053,174.37,88.825z M168.176,89.617
	c-4.266,0.594-8.518,1.281-12.751,2.062C159.658,90.898,163.909,90.21,168.176,89.617z M155.342,91.694
	c-2.023,0.374-4.041,0.771-6.054,1.188C151.301,92.466,153.319,92.068,155.342,91.694z M148.703,93.003
	c-2.023,0.422-4.042,0.863-6.055,1.328C144.662,93.866,146.681,93.425,148.703,93.003z M59.747,229.436
	c0.257-2.206,0.534-4.412,0.841-6.615C60.28,225.024,60.005,227.229,59.747,229.436z M58.181,247.971
	c0.033-0.617,0.061-1.235,0.098-1.852C58.242,246.736,58.214,247.353,58.181,247.971z M58.541,242.25
	c0.074-1.026,0.154-2.052,0.239-3.077C58.694,240.198,58.616,241.224,58.541,242.25z M59.065,235.943
	c0.126-1.343,0.267-2.686,0.412-4.028C59.332,233.257,59.192,234.6,59.065,235.943z M172.944,150.872
	c0.107-0.073,0.21-0.15,0.317-0.223l0.001,0C173.155,150.722,173.051,150.799,172.944,150.872z M207.493,86.838
	c4.191-0.01,8.384,0.076,12.577,0.25C215.877,86.914,211.684,86.828,207.493,86.838z M271.818,94.098
	c-1.574-0.366-3.15-0.717-4.728-1.055C268.668,93.38,270.245,93.731,271.818,94.098z M265.887,92.78
	c-2.018-0.423-4.04-0.825-6.065-1.202C261.846,91.956,263.868,92.357,265.887,92.78z M259.084,91.447
	c-1.755-0.322-3.513-0.627-5.272-0.915C255.571,90.82,257.329,91.125,259.084,91.447z M252.219,90.28
	c-1.536-0.242-3.073-0.472-4.612-0.688C249.146,89.808,250.683,90.037,252.219,90.28z M246.047,89.374
	c-1.809-0.244-3.619-0.471-5.43-0.68C242.428,88.903,244.238,89.13,246.047,89.374z M240.037,88.624
	c-2.1-0.237-4.202-0.45-6.306-0.64C235.835,88.174,237.937,88.387,240.037,88.624z M233.18,87.939
	c-1.851-0.163-3.702-0.307-5.555-0.433C229.478,87.632,231.329,87.775,233.18,87.939z M226.293,87.419
	c-1.678-0.107-3.356-0.199-5.034-0.276C222.937,87.221,224.615,87.312,226.293,87.419z M348.6,37.717
	c0.398,0.085,0.794,0.177,1.191,0.264C349.394,37.894,348.997,37.802,348.6,37.717z M356.249,39.462
	c0.606,0.146,1.211,0.296,1.816,0.445C357.46,39.758,356.855,39.608,356.249,39.462z M363.973,41.426
	c0.647,0.173,1.293,0.344,1.939,0.521C365.266,41.77,364.619,41.599,363.973,41.426z M371.947,43.67
	c0.539,0.159,1.079,0.312,1.617,0.474C373.026,43.981,372.486,43.829,371.947,43.67z M388.769,49.148
	c0.504,0.18,1.004,0.373,1.507,0.555C389.773,49.521,389.272,49.329,388.769,49.148z M396.112,51.887
	c0.809,0.313,1.614,0.637,2.421,0.956C397.726,52.524,396.92,52.2,396.112,51.887z M403.443,54.834
	c0.89,0.37,1.779,0.746,2.667,1.125C405.222,55.58,404.334,55.204,403.443,54.834z M410.808,58.013
	c0.882,0.394,1.765,0.786,2.644,1.188C412.573,58.799,411.691,58.407,410.808,58.013z M418.384,61.521
	c0.758,0.363,1.519,0.717,2.275,1.087C419.903,62.238,419.142,61.884,418.384,61.521z M442.365,566.26
	c-0.699,0.4-1.396,0.803-2.1,1.197C440.969,567.064,441.665,566.66,442.365,566.26z M438.11,556.769
	c1.057-1.023,2.106-2.053,3.144-3.094C440.217,554.716,439.168,555.747,438.11,556.769z M426.851,566.998
	c-0.959,0.817-1.928,1.622-2.9,2.425C424.924,568.62,425.893,567.815,426.851,566.998z M451.33,542.943
	c-1.054,1.193-2.12,2.375-3.197,3.547C449.21,545.318,450.276,544.136,451.33,542.943z M448.045,546.586
	c-1.054,1.146-2.12,2.281-3.196,3.406C445.925,548.867,446.991,547.732,448.045,546.586z M444.685,550.165
	c-1.049,1.095-2.11,2.18-3.18,3.256C442.576,552.345,443.636,551.26,444.685,550.165z M437.752,557.118
	c-1.022,0.984-2.054,1.958-3.094,2.924C435.698,559.075,436.731,558.102,437.752,557.118z M434.182,560.487
	c-1.004,0.928-2.018,1.846-3.038,2.757C432.164,562.333,433.179,561.415,434.182,560.487z M430.549,563.78
	c-0.983,0.873-1.977,1.734-2.974,2.592C428.573,565.515,429.566,564.653,430.549,563.78z M415.394,576.176
	c-0.91,0.684-1.831,1.356-2.752,2.028C413.562,577.531,414.484,576.86,415.394,576.176z M423.091,570.137
	c-0.938,0.767-1.887,1.523-2.838,2.276C421.204,571.66,422.153,570.905,423.091,570.137z M419.274,573.195
	c-0.916,0.718-1.843,1.424-2.77,2.13C417.431,574.62,418.358,573.914,419.274,573.195z M416.998,412.267L416.998,412.267
	l-13.611-9.596L416.998,412.267z M407.47,581.884c-1.337,0.922-2.683,1.831-4.04,2.727c1.975-0.747,3.936-1.518,5.887-2.307
	c-1.95,0.789-3.911,1.56-5.887,2.307C404.787,583.715,406.134,582.806,407.47,581.884z M411.461,579.07
	c-0.943,0.679-1.896,1.345-2.85,2.01C409.565,580.415,410.519,579.75,411.461,579.07z M437.266,569.101
	c-0.837,0.455-1.673,0.909-2.516,1.355C435.593,570.01,436.429,569.555,437.266,569.101z M431.92,571.93
	c-0.926,0.477-1.855,0.95-2.788,1.417C430.065,572.88,430.994,572.407,431.92,571.93z M426.428,574.681
	c-1.008,0.491-2.021,0.973-3.036,1.452C424.408,575.655,425.42,575.172,426.428,574.681z M420.824,577.333
	c-1.106,0.508-2.219,1.003-3.334,1.497C418.604,578.337,419.718,577.841,420.824,577.333z M415.118,579.876
	c-1.271,0.548-2.551,1.08-3.833,1.61C412.567,580.956,413.848,580.424,415.118,579.876z M445.68,564.35
	c0.308-0.182,0.611-0.37,0.918-0.552C446.29,563.98,445.988,564.169,445.68,564.35z M460.082,555.235
	c0.145-0.098,0.292-0.193,0.436-0.292C460.374,555.041,460.227,555.137,460.082,555.235z M478.77,541.404
	c0.179-0.145,0.357-0.291,0.536-0.436C479.127,541.113,478.949,541.259,478.77,541.404z M464.581,552.121
	c0.281-0.199,0.564-0.395,0.845-0.594C465.145,551.726,464.862,551.922,464.581,552.121z M469.328,548.693
	c0.295-0.217,0.59-0.434,0.883-0.653C469.918,548.258,469.622,548.475,469.328,548.693z M474.072,545.111
	c0.263-0.203,0.526-0.408,0.789-0.612C474.598,544.704,474.335,544.908,474.072,545.111z"/>
</svg>
