<?xml version="1.0" encoding="utf-8"?>
<!-- Generator: Adobe Illustrator 17.0.0, SVG Export Plug-In . SVG Version: 6.00 Build 0)  -->
<!DOCTYPE svg PUBLIC "-//W3C//DTD SVG 1.1//EN" "http://www.w3.org/Graphics/SVG/1.1/DTD/svg11.dtd">
<svg version="1.1" id="Layer_1" xmlns="http://www.w3.org/2000/svg" xmlns:xlink="http://www.w3.org/1999/xlink" x="0px" y="0px"
	 width="613px" height="613px" viewBox="0 0 613 613" enable-background="new 0 0 613 613" xml:space="preserve">
<g>
	<path d="M221.394,514.658l-88.007,88.007h51.9c20.731-20.66,41.744-41.111,62.889-61.225L221.394,514.658z"/>
	<path d="M591.33,227.095l-138.22,55.847L304.467,431.585l30.214,30.214c45.48-40.449,90.714-78.403,134.324-112.406
		c-34.211,43.877-72.029,89.058-112.296,134.434l30.829,30.829l148.644-148.643l55.15-138.919L591.33,227.095z"/>
	<path d="M299.168,165.885h0.002c9.645,77.916,15.979,163.772,19.145,251.852l38.426-38.426L356.739,165l-58.78-136.83L239.17,165
		l-0.001,201.287l-81.345-81.345l-138.22-55.846h-0.003l55.15,138.919l202.392,202.391c-10.248,10.787-20.587,21.546-31.018,32.259
		h53.406l4.935-4.935l-23.977-23.978l30.914,30.914h51.362C280.121,519.913,202.6,432.323,137.939,349.394
		c92.32,71.982,191.918,161.644,285.728,255.272h53.88L280.205,407.323C283.549,323.091,289.839,241.252,299.168,165.885z"/>
	<polygon points="189.436,163.804 118.021,253.641 195.776,213.717 193.657,284.077 234.171,207.791 234.171,191.947 
		234.171,155.682 255.547,105.93 266.019,81.557 207.538,18.78 226.869,83.118 114.043,24.651 189.436,117.42 54.008,140.334 	"/>
	<polygon points="362.076,155.682 362.076,187.977 362.076,210.429 399.518,280.93 396.442,178.77 397.559,215.865 475.905,256.573 
		400.512,163.804 535.94,140.334 400.512,117.42 475.905,24.651 365.381,81.925 354.942,116.667 384.353,18.78 328.857,78.353 
		342.141,109.277 	"/>
</g>
</svg>
