<?xml version="1.0" encoding="utf-8"?>
<!-- Generator: Adobe Illustrator 17.0.0, SVG Export Plug-In . SVG Version: 6.00 Build 0)  -->
<!DOCTYPE svg PUBLIC "-//W3C//DTD SVG 1.1//EN" "http://www.w3.org/Graphics/SVG/1.1/DTD/svg11.dtd">
<svg version="1.1" id="Layer_1" xmlns="http://www.w3.org/2000/svg" xmlns:xlink="http://www.w3.org/1999/xlink" x="0px" y="0px"
	 width="613px" height="613px" viewBox="0 0 613 613" enable-background="new 0 0 613 613" xml:space="preserve">
<path d="M172.933,206.344L43.099,297.989V195.522L211.91,83.901l42.035,81.444L360.169,82.35l43.166,81.388L509.803,84.2
	l57.251,85.001l-1.518,134.761l-81.233-93.884l-111.588,81.394l-41.431-82.84L220.1,286.419L172.933,206.344z"/>
<path d="M172.933,438.385L43.099,530.041V427.574L211.91,315.959l42.035,81.433l106.224-82.99l43.166,81.388l106.468-79.543
	l57.251,85.007l-1.518,134.761l-81.233-93.884l-111.588,81.388l-41.431-82.84L220.1,518.471L172.933,438.385z"/>
</svg>
