<?xml version="1.0" encoding="utf-8"?>
<!-- Generator: Adobe Illustrator 17.0.0, SVG Export Plug-In . SVG Version: 6.00 Build 0)  -->
<!DOCTYPE svg PUBLIC "-//W3C//DTD SVG 1.1//EN" "http://www.w3.org/Graphics/SVG/1.1/DTD/svg11.dtd">
<svg version="1.1" id="Layer_1" xmlns="http://www.w3.org/2000/svg" xmlns:xlink="http://www.w3.org/1999/xlink" x="0px" y="0px"
	 width="613px" height="613px" viewBox="0 0 613 613" enable-background="new 0 0 613 613" xml:space="preserve">
<path d="M413.02,62.835c-51.416,24.761-85.761,78.852-108.478,144.334C281.82,141.687,247.469,87.596,196.059,62.835
	C31.417-16.475-31.644,210.996,90.28,307.62h101.17c0,0-29.973-52.493-33.482-59.928c-5.38-11.356-37.032-93.526,7.748-64.596
	c60.588,39.14,74.422,178.853,81.035,240.333c6.648,61.874,10.51,143.581,10.51,143.581h5.82h82.923h5.82
	c0,0,3.862-81.707,10.516-143.581c6.613-61.475,20.447-201.193,81.03-240.333c44.786-28.93,13.122,53.246,7.754,64.596
	c-3.515,7.435-33.488,59.928-33.488,59.928H518.8C640.724,210.996,577.663-16.469,413.02,62.835z"/>
</svg>
