<?xml version="1.0" encoding="utf-8"?>
<!-- Generator: Adobe Illustrator 17.0.0, SVG Export Plug-In . SVG Version: 6.00 Build 0)  -->
<!DOCTYPE svg PUBLIC "-//W3C//DTD SVG 1.1//EN" "http://www.w3.org/Graphics/SVG/1.1/DTD/svg11.dtd">
<svg version="1.1" id="Layer_1" xmlns="http://www.w3.org/2000/svg" xmlns:xlink="http://www.w3.org/1999/xlink" x="0px" y="0px"
	 width="613px" height="613px" viewBox="0 0 613 613" enable-background="new 0 0 613 613" xml:space="preserve">
<g>
	<path d="M553.056,207.955l31.118-2.353L478.488,91.571l24.451,120.174l25.487-1.927c13.487,86.046-2.559,168.577-50.96,230.563
		L170.381,133.295l15.698,15.698c14.554-31.646,8.802-70.337-17.27-96.409C135.344,19.119,81.09,19.118,47.627,52.581
		c-33.464,33.464-33.462,87.722,0.001,121.184c26.03,26.029,64.638,31.8,96.257,17.334l64.192,64.192
		c-25.606,23.542-52.596,45.7-80.613,66.832l36.003,36.003c22.391-26.945,45.371-53.133,69.144-78.3l-18.125-18.125l243.922,243.922
		l-23.102-23.102c-61.97,48.338-144.451,64.365-230.445,50.892l1.93-25.52L86.617,483.442l114.031,105.686l2.35-31.078
		c103.51,44.2,212.301,41.376,288.497-14.033l-53.227-17.981l0,0l128.628,43.451l-25.692-76.056
		C594.511,417.392,596.682,310.102,553.056,207.955z M70.467,150.941c-20.853-20.853-20.855-54.667,0-75.521
		c20.854-20.854,54.664-20.853,75.52,0.002c20.853,20.855,20.852,54.665-0.001,75.518C125.133,171.793,91.32,171.795,70.467,150.941
		z"/>
	<path d="M353.143,168.45l-36.003-36.003c-20.335,28.867-42.657,55.748-66.577,81.03l23.948,23.948
		C299.698,213.118,325.832,190.027,353.143,168.45z"/>
</g>
</svg>
