<?xml version="1.0" encoding="utf-8"?>
<!-- Generator: Adobe Illustrator 17.0.0, SVG Export Plug-In . SVG Version: 6.00 Build 0)  -->
<!DOCTYPE svg PUBLIC "-//W3C//DTD SVG 1.1//EN" "http://www.w3.org/Graphics/SVG/1.1/DTD/svg11.dtd">
<svg version="1.1" id="Layer_1" xmlns="http://www.w3.org/2000/svg" xmlns:xlink="http://www.w3.org/1999/xlink" x="0px" y="0px"
	 width="612px" height="612px" viewBox="0 0 612 612" enable-background="new 0 0 612 612" xml:space="preserve">
<g transform="matrix(15 0 0 15 -4843.9997 -4363.9997)">
</g>
<g transform="matrix(10.43478 0 0 10.43478 5.56523 37.51346)">
	<path d="M18.482-1.763c-0.899,0-1.718,0.842-1.718,1.718v3.437h1.718v3.437h-6.873c-7.817,0-8.592,6.087-8.591,8.591v30.929
		c0,1.345-1.718,3.437-1.718,3.437v3.437h54.984v-3.437c0,0-1.718-2.092-1.718-3.437v-30.93c0-2.505-0.774-8.591-8.591-8.591h-6.873
		V3.391h1.718v-3.436c0-0.876-0.82-1.718-1.718-1.718L18.482-1.763z M27.073,3.392h3.437c1.718,0,5.155,0,5.155,3.437H21.919
		C21.919,3.392,25.355,3.392,27.073,3.392z M13.327,13.701h30.929c2.201,0,3.437,1.258,3.437,3.437V44.63
		c0,0.97-0.886,1.718-1.718,1.718H11.609c-0.832,0-1.718-0.748-1.718-1.718V17.138C9.891,14.959,11.127,13.701,13.327,13.701
		L13.327,13.701z"/>
	<g>
		<path d="M37.383,37.757h6.873v3.437h-6.873V37.757z"/>
		<path d="M37.383,36.039V24.011c0-4.371,3.437-6.873,3.437-6.873s3.437,2.502,3.437,6.873v12.028H37.383z"/>
		<path d="M13.327,36.039V24.011c0-4.371,3.437-6.873,3.437-6.873s3.437,2.502,3.437,6.873v12.028H13.327z"/>
		<path d="M25.355,36.039V24.011c0-4.371,3.437-6.873,3.437-6.873s3.437,2.502,3.437,6.873v12.028H25.355z"/>
		<path d="M25.355,37.757h6.873v3.437h-6.873V37.757z"/>
		<path d="M13.327,37.757H20.2v3.437h-6.873C13.327,41.194,13.327,37.757,13.327,37.757z"/>
	</g>
</g>
</svg>
