<?xml version="1.0" encoding="utf-8"?>
<!-- Generator: Adobe Illustrator 17.0.0, SVG Export Plug-In . SVG Version: 6.00 Build 0)  -->
<!DOCTYPE svg PUBLIC "-//W3C//DTD SVG 1.1//EN" "http://www.w3.org/Graphics/SVG/1.1/DTD/svg11.dtd">
<svg version="1.1" id="Layer_1" xmlns="http://www.w3.org/2000/svg" xmlns:xlink="http://www.w3.org/1999/xlink" x="0px" y="0px"
	 width="613px" height="613px" viewBox="0 0 613 613" enable-background="new 0 0 613 613" xml:space="preserve">
<g>
	<path d="M437.962,91.738c0.009,0.006,0.019,0.012,0.028,0.018c32.752-14.574,70.666-24.372,136.128-8.685
		c-30.695-94.539-113.441-65.13-165.653-8.857c0.024,0.013,0.048,0.027,0.072,0.04C286.252,7.452,201.397,36.475,131.268,112.452
		c15.721,2.272,31.103,5.13,46.17,8.534c-26.042,13.491-49.412,35.658-68.347,68.418v0.004
		c-50.57,87.492-73.913,237.08-29.314,317.631l76.943,55.481c105.059,22.681,254.411-59.106,311.558-157.983
		c19.507-33.754,27.787-66.221,27.076-96.615c9.801,10.098,19.431,20.491,28.894,31.172
		C562.409,242.974,548.841,163.205,437.962,91.738z M486.763,299.195c-5.47-5.48-10.994-10.866-16.574-16.157
		C475.769,288.328,481.293,293.714,486.763,299.195z M417.742,79.409c1.856,1.07,3.684,2.143,5.492,3.217
		C421.424,81.552,419.598,80.479,417.742,79.409c-1.627-0.938-3.243-1.849-4.857-2.754C414.497,77.555,416.115,78.47,417.742,79.409
		z M433.223,88.725c-0.122-0.076-0.245-0.153-0.367-0.229C432.977,88.572,433.101,88.648,433.223,88.725z M428.355,85.711
		c-0.524-0.319-1.056-0.638-1.584-0.957C427.298,85.073,427.833,85.392,428.355,85.711z M177.457,120.99
		c7.743,1.75,15.4,3.648,22.976,5.688C192.857,124.639,185.2,122.74,177.457,120.99z M288.617,158.323
		c-6.927-3.143-13.927-6.159-21.006-9.039C274.69,152.165,281.691,155.18,288.617,158.323z M267.564,149.265
		c-3.524-1.433-7.068-2.832-10.63-4.2C260.496,146.432,264.04,147.831,267.564,149.265z M256.485,144.894
		c-7.097-2.717-14.27-5.301-21.521-7.751C242.215,139.592,249.388,142.177,256.485,144.894z M234.521,136.993
		c-3.644-1.227-7.306-2.422-10.989-3.58C227.215,134.571,230.878,135.766,234.521,136.993z M223.457,133.389
		c-7.396-2.325-14.874-4.509-22.433-6.552C208.584,128.881,216.061,131.064,223.457,133.389z M416.879,236.905
		c2.964,2.327,5.914,4.68,8.847,7.06C422.792,241.585,419.843,239.232,416.879,236.905z M289.18,158.579
		c6.914,3.146,13.755,6.42,20.522,9.822C302.935,164.999,296.094,161.725,289.18,158.579z M309.782,168.441
		c3.363,1.691,6.706,3.415,10.033,5.168C316.488,171.856,313.145,170.132,309.782,168.441z M320.277,173.854
		c6.62,3.496,13.17,7.115,19.651,10.852C333.447,180.969,326.897,177.351,320.277,173.854z M340.385,184.968
		c3.245,1.875,6.474,3.779,9.686,5.713C346.859,188.747,343.63,186.843,340.385,184.968z M350.212,190.767
		c6.451,3.889,12.833,7.898,19.149,12.021C363.045,198.665,356.663,194.656,350.212,190.767z M369.941,203.167
		c6.317,4.133,12.568,8.38,18.752,12.742C382.509,211.548,376.258,207.3,369.941,203.167z M388.81,215.991
		c3.067,2.164,6.117,4.357,9.153,6.576C394.927,220.348,391.877,218.155,388.81,215.991z M398.459,222.931
		c6.049,4.431,12.035,8.97,17.961,13.614C410.494,231.901,404.508,227.362,398.459,222.931z M461.321,274.752
		c2.824,2.598,5.633,5.222,8.429,7.869C466.954,279.975,464.145,277.351,461.321,274.752z M425.927,244.129
		c5.9,4.79,11.739,9.686,17.519,14.682C437.666,253.814,431.828,248.918,425.927,244.129z M444.006,259.295
		c5.804,5.027,11.55,10.156,17.237,15.386C455.556,269.451,449.81,264.322,444.006,259.295z M487.113,299.545
		c2.747,2.755,5.48,5.532,8.2,8.334C492.593,305.077,489.859,302.3,487.113,299.545z"/>
	<path d="M58.383,587.732c32.595-14.571,65.636-21.292,98.853-24.838l-77.555-55.923C80.579,534.933,70.594,561.477,58.383,587.732z
		"/>
</g>
</svg>
