<?xml version="1.0" encoding="utf-8"?>
<!-- Generator: Adobe Illustrator 17.0.0, SVG Export Plug-In . SVG Version: 6.00 Build 0)  -->
<!DOCTYPE svg PUBLIC "-//W3C//DTD SVG 1.1//EN" "http://www.w3.org/Graphics/SVG/1.1/DTD/svg11.dtd">
<svg version="1.1" id="Layer_1" xmlns="http://www.w3.org/2000/svg" xmlns:xlink="http://www.w3.org/1999/xlink" x="0px" y="0px"
	 width="613px" height="613px" viewBox="0 0 613 613" enable-background="new 0 0 613 613" xml:space="preserve">
<g>
	<path d="M569.583,113.416c-15.418-35.34-48.3-54.241-61.876-40.647l0.003-0.002c-14.666,14.685,5.568,35.195,6.964,68.143
		c-135.619,100.971-271.166,123.135-406.968,2.076c0.6-34.167,21.998-55.228,7.026-70.219l0.002,0.003
		c-13.576-13.594-46.458,5.307-61.876,40.647C1.104,232.045,41.394,543.333,157.884,534.096
		c-26.299-60.354-52.345-129.058-67.786-201.694c31.479,86.652,86.448,162.067,140.852,143.666
		c-38.27-48.034-78.944-104.303-107.613-167.747c41.856,70.733,102.032,126.519,147.049,102.19
		c-35.552-31.773-73.582-68.777-106.148-111.483c47.552,44.833,104.478,73.517,134.47,44.833
		c-24.867-12.093-51.786-27.173-77.38-44.783l-81.498-35.426l171.016,74.338l164.944-67.011l-83.051,33.741
		c-23.037,15.204-46.836,28.36-69.005,39.141c29.992,28.684,86.918,0,134.467-44.833c-32.566,42.706-70.596,79.71-106.148,111.483
		c45.017,24.329,105.193-31.457,147.049-102.19c-28.669,63.444-69.343,119.713-107.613,167.747
		c54.404,18.401,109.373-57.014,140.852-143.666c-15.441,72.636-41.487,141.34-67.786,201.694
		C581.046,543.332,621.336,232.044,569.583,113.416z M107.694,142.975c-1.925-1.716-3.851-3.469-5.776-5.243
		C103.843,139.506,105.768,141.258,107.694,142.975z M88.332,124.731c-1.905-1.891-3.811-3.803-5.716-5.752
		C84.521,120.928,86.427,122.84,88.332,124.731z M101.178,137.053c-1.833-1.696-3.665-3.421-5.498-5.169
		C97.513,133.632,99.346,135.357,101.178,137.053z M94.657,130.904c-1.817-1.743-3.634-3.51-5.452-5.305
		C91.022,127.394,92.839,129.161,94.657,130.904z M521.657,135.643c-2.298,1.756-4.595,3.489-6.893,5.2
		C517.062,139.132,519.359,137.399,521.657,135.643z M535.782,124.57c2.293-1.842,4.587-3.705,6.88-5.591
		C540.369,120.865,538.075,122.727,535.782,124.57z M521.701,135.609c2.311-1.766,4.622-3.555,6.933-5.366
		C526.323,132.055,524.012,133.843,521.701,135.609z M528.752,130.15c2.29-1.795,4.581-3.612,6.871-5.451
		C533.332,126.538,531.042,128.354,528.752,130.15z"/>
	<path d="M311.222,142.495c56.54,0,102.377-22.365,102.377-49.955c0-27.592-45.837-49.955-102.377-49.955
		c-56.54,0-102.377,22.366-102.377,49.955C208.845,120.129,254.682,142.495,311.222,142.495z M311.222,50.585
		c41.822,0,75.727,16.542,75.727,36.951c0,20.408-33.905,36.951-75.727,36.951c-41.822,0-75.727-16.544-75.727-36.951
		C235.495,67.129,269.4,50.585,311.222,50.585z"/>
</g>
</svg>
