<?xml version="1.0" encoding="utf-8"?>
<!-- Generator: Adobe Illustrator 17.0.0, SVG Export Plug-In . SVG Version: 6.00 Build 0)  -->
<!DOCTYPE svg PUBLIC "-//W3C//DTD SVG 1.1//EN" "http://www.w3.org/Graphics/SVG/1.1/DTD/svg11.dtd">
<svg version="1.1" id="Layer_1" xmlns="http://www.w3.org/2000/svg" xmlns:xlink="http://www.w3.org/1999/xlink" x="0px" y="0px"
	 width="612px" height="612px" viewBox="0 0 612 612" enable-background="new 0 0 612 612" xml:space="preserve">
<g>
	<polygon points="530.486,501.599 477.737,439.731 429.557,433.262 321.128,304.997 424.637,185.299 413.079,175.303 315.5,288.143 
		315.5,108.672 300.219,108.672 300.219,280.264 210.13,173.695 198.46,183.56 300.219,303.934 300.219,305.814 190.845,432.295 
		138.602,439.31 85.664,501.399 118.531,515.918 107.341,528.858 118.899,538.854 130.406,525.548 150.334,556.599 203.273,494.51 
		202.279,442.433 300.219,329.176 300.219,438.959 263.461,480.42 263.461,565.147 300.219,554.032 300.219,576.093 315.5,576.093 
		315.5,554.31 351.759,565.147 351.759,480.42 315.5,439.993 315.5,322.011 414.364,438.96 413.301,494.736 466.05,556.601 
		486.662,524.483 500.233,540.536 511.903,530.671 499.062,515.481 	"/>
	<polygon points="180.531,203.951 169.266,143.413 227.783,164.13 255.415,151.997 141.507,111.672 163.591,230.341 	"/>
	<polygon points="452.554,230.341 474.638,111.672 360.73,151.997 389.27,164.529 448.913,143.413 437.191,206.408 	"/>
	<polygon points="307.638,66.904 334.421,113.233 368.063,123.37 307.581,18.761 247.358,123.37 280.992,113.192 	"/>
</g>
</svg>
