<?xml version="1.0" encoding="utf-8"?>
<!-- Generator: Adobe Illustrator 17.0.0, SVG Export Plug-In . SVG Version: 6.00 Build 0)  -->
<!DOCTYPE svg PUBLIC "-//W3C//DTD SVG 1.1//EN" "http://www.w3.org/Graphics/SVG/1.1/DTD/svg11.dtd">
<svg version="1.1" id="Layer_1" xmlns="http://www.w3.org/2000/svg" xmlns:xlink="http://www.w3.org/1999/xlink" x="0px" y="0px"
	 width="612px" height="612px" viewBox="0 0 612 612" enable-background="new 0 0 612 612" xml:space="preserve">
<g>
	<path d="M590.248,432.607c-35.146-23.067-90.055-53.293-90.055-87.259s54.911-65.591,90.052-88.658
		c-40.491,0.507-93.552-13.101-108.204-42.582c-14.719-29.621,11.947-69.608,32.811-110.297
		c-34.904,24.053-68.828,55.442-94.242,38.396c-25.415-17.046-37.529-79.066-36.997-126.352l-0.002-0.001
		c-19.897,41.338-45.955,71.904-75.393,71.904c-29.311,0-56.222-30.184-76.09-71.205c0.438,47.046-11.623,108.633-36.997,125.655
		c-25.374,17.023-59.336-14.342-94.242-38.396c20.864,40.689,50.322,80.676,35.603,110.297
		c-14.596,29.375-70.713,42.981-110.997,42.582c35.067,23.059,94.24,54.73,94.243,88.658c0.002,33.928-59.173,64.202-94.243,87.259
		c40.283-0.398,96.398,13.906,110.997,43.281c14.616,29.415-10.781,67.304-40.328,102.271
		c53.582-18.423,77.855-6.866,102.039,12.912h37.947c-51.084-42.332-86.118-128.886-86.118-228.969
		C150.03,220.314,220.455,105.208,307.1,105.208h0.002c86.645,0,157.068,115.109,157.068,256.895
		c0,100.085-35.034,186.637-86.118,228.969h32.604c23.724-17.475,47.575-30.671,107.21-11.104
		c-31.357-36.174-50.441-74.662-35.822-104.08C496.694,446.405,549.757,432.1,590.248,432.607z"/>
	<path d="M348.304,249.43c11.216-14.067,18.429-33.616,18.429-55.275c-0.001-42.771-27.233-77.294-60.683-77.294
		c-2.091,0-4.255-0.266-6.293,0l0.002,0.002c-30.544,3.969-54.39,37.193-54.39,77.294c0,22.209,7.609,42.042,19.327,56.173
		c-63.52,11.951-68.323,118.989-68.323,194.134h44.05L252.111,601.3h111.924l10.338-156.836h41.805
		C416.178,369.109,417.69,260.187,348.304,249.43z"/>
</g>
</svg>
