<?xml version="1.0" encoding="utf-8"?>
<!-- Generator: Adobe Illustrator 17.0.0, SVG Export Plug-In . SVG Version: 6.00 Build 0)  -->
<!DOCTYPE svg PUBLIC "-//W3C//DTD SVG 1.1//EN" "http://www.w3.org/Graphics/SVG/1.1/DTD/svg11.dtd">
<svg version="1.1" id="Layer_1" xmlns="http://www.w3.org/2000/svg" xmlns:xlink="http://www.w3.org/1999/xlink" x="0px" y="0px"
	 width="612px" height="612px" viewBox="0 0 612 612" enable-background="new 0 0 612 612" xml:space="preserve">
<path d="M404.272,137.418c23.054,33.328,14.049,72.058-10.517,88.253c16.151-81.507-144.161-125.603-44.487-206.218l0.001-0.071
	C216.014,36.354,187.478,138.686,235.625,218.131c-51.587-21.365-73.865-52.825-52.172-98.588
	c-49.809,25.837-76.097,77.239-74.987,132.712c0.869,43.377,18.231,77.227,45.114,101.775
	c-13.558-34.643-17.104-70.81-8.449-101.325c42.723,58.966,164.708-23.907,175.835-94.773
	c-0.045,76.11,76.474,141.479,134.711,62.618c10.383,42.981,8.077,87.499-2.898,123.318c22.42-23.618,36.67-54.204,37.724-91.612
	C492.012,198.614,465.333,163.241,404.272,137.418z"/>
<polygon points="490.563,416.91 306.63,276.175 122.696,416.91 "/>
<g>
	<polygon points="439.085,377.522 439.085,289.695 363.642,289.695 363.64,289.695 363.64,319.796 	"/>
	<path d="M172.527,416.91v180.728h266.558V416.91H172.527z M255.477,546.566H211.24v-42.537h44.237V546.566z M255.477,473.024
		H211.24v-42.537h44.237V473.024z M326.941,546.566h-44.237v-42.537h44.237V546.566z M326.941,473.024h-44.237v-42.537h44.237
		V473.024z M355.016,430.488h44.237v42.537h-44.237V430.488z M400.105,592.506h-44.237V504.88h44.237V592.506z"/>
</g>
</svg>
