<?xml version="1.0" encoding="utf-8"?>
<!-- Generator: Adobe Illustrator 17.0.0, SVG Export Plug-In . SVG Version: 6.00 Build 0)  -->
<!DOCTYPE svg PUBLIC "-//W3C//DTD SVG 1.1//EN" "http://www.w3.org/Graphics/SVG/1.1/DTD/svg11.dtd">
<svg version="1.1" id="Layer_1" xmlns="http://www.w3.org/2000/svg" xmlns:xlink="http://www.w3.org/1999/xlink" x="0px" y="0px"
	 width="612px" height="612px" viewBox="0 0 612 612" enable-background="new 0 0 612 612" xml:space="preserve">
<g transform="matrix(15 0 0 15 -4304 -44)">
	<path d="M292.99,4.208c-3.188,1.594-3.586,2.391-3.586,2.391c3.188,12.75,0.398,21.914-1.195,29.883c0,0,0.797,1.992,7.172,3.586
		V23.333C295.38,16.958,292.99,4.208,292.99,4.208z M321.677,4.208c0,0-2.391,12.75-2.391,19.125v16.734
		c6.375-1.594,7.172-3.586,7.172-3.586c-1.594-7.969-4.383-17.133-1.195-29.883C325.263,6.599,324.865,5.802,321.677,4.208z
		 M304.943,18.552c-3.188,0-7.172,1.195-7.172,1.195v21.516c0,0,3.984,1.195,7.172,1.195h4.781c3.188,0,7.172-1.195,7.172-1.195
		V19.747c0,0-3.984-1.195-7.172-1.195H304.943z"/>
</g>
</svg>
