<?xml version="1.0" encoding="utf-8"?>
<!-- Generator: Adobe Illustrator 17.0.0, SVG Export Plug-In . SVG Version: 6.00 Build 0)  -->
<!DOCTYPE svg PUBLIC "-//W3C//DTD SVG 1.1//EN" "http://www.w3.org/Graphics/SVG/1.1/DTD/svg11.dtd">
<svg version="1.1" id="Layer_1" xmlns="http://www.w3.org/2000/svg" xmlns:xlink="http://www.w3.org/1999/xlink" x="0px" y="0px"
	 width="612px" height="612px" viewBox="0 0 612 612" enable-background="new 0 0 612 612" xml:space="preserve">
<g>
	<polygon points="319.709,275.892 312.797,302.032 312.797,302.032 351.835,154.388 330.858,133.41 310.804,178.205 
		310.425,112.977 282.265,84.817 267.783,108.433 265.001,67.553 218.657,21.208 178.486,173.138 182.772,172.005 160.781,177.82 
		178.486,173.138 186.57,142.563 106.506,62.384 68.923,99.969 149.613,180.773 26.19,213.408 46.206,233.424 107.145,232.228 
		62.69,249.909 109.788,297.007 149.143,299.454 133.753,310.097 158.494,311.635 138.347,325.567 159.368,346.588 282.645,313.991 
		570.029,601.78 599.956,601.78 599.956,556.541 	"/>
	<path d="M411.603,248.468l38.11,2.595l-22.017,13.498l36.809,36.808l71.002-18.774l64.447,64.448v-67.512l-32.189-32.19
		l17.702-66.947l-83.578-83.577l-17.702,66.944l-45.699-45.7l-33.408,34.105l46.851,46.852l-71.004,18.774L411.603,248.468z
		 M536.567,282.315l21.777-5.758l-0.761,0.201L536.567,282.315z M476.589,192.497l2.604-0.688l81.663,81.662l1.915,1.915
		l-83.578-83.577l-15.251,4.033L476.589,192.497z"/>
	<polygon points="205.716,554.73 207.627,556.641 205.029,557.328 204.512,557.465 207.627,556.641 124.049,473.064 205.716,554.73 
		230.328,461.651 213.718,445.042 199.234,468.671 196.448,427.771 146.75,378.074 121.451,473.751 121.451,473.751 129.07,444.936 
		83.537,399.245 49.435,433.35 96.447,480.362 118.098,474.638 25.783,499.047 90.323,563.586 131.074,563.586 111.35,582.098 
		187.563,561.946 180.023,563.94 217.862,601.779 285.372,601.779 212.588,528.743 	"/>
</g>
</svg>
