<?xml version="1.0" encoding="utf-8"?>
<!-- Generator: Adobe Illustrator 17.0.0, SVG Export Plug-In . SVG Version: 6.00 Build 0)  -->
<!DOCTYPE svg PUBLIC "-//W3C//DTD SVG 1.1//EN" "http://www.w3.org/Graphics/SVG/1.1/DTD/svg11.dtd">
<svg version="1.1" id="Layer_1" xmlns="http://www.w3.org/2000/svg" xmlns:xlink="http://www.w3.org/1999/xlink" x="0px" y="0px"
	 width="613px" height="613px" viewBox="0 0 613 613" enable-background="new 0 0 613 613" xml:space="preserve">
<path d="M429.38,102.357c76.808,74.634,63.366,131.928,12.909,178.031c-22.225-119.913-112.98-79.267-131.171-254.485
	c-18.191,175.218-108.946,134.57-131.171,254.485c-50.456-46.104-63.895-103.397,12.911-178.03
	C22.586,199.631,83.884,324.695,208.78,427.259l0.002-0.012c-0.01-0.012-0.02-0.025-0.03-0.037
	c32.145,38.66,79.092,69.318,102.366,158.753c23.266-89.417,70.19-120.088,102.334-158.728l0.004,0.023
	C538.353,324.695,599.652,199.631,429.38,102.357z M177.596,295.749c0.013-0.107,0.026-0.216,0.039-0.323
	C177.622,295.534,177.609,295.642,177.596,295.749z M179.662,372.369c-0.034-0.136-0.067-0.274-0.1-0.411
	C179.595,372.094,179.628,372.233,179.662,372.369z M178.903,369.167c-0.039-0.175-0.08-0.348-0.119-0.524
	C178.823,368.819,178.863,368.992,178.903,369.167z M178.137,365.539c-0.039-0.2-0.077-0.402-0.116-0.603
	C178.06,365.137,178.098,365.339,178.137,365.539z M177.479,361.953c-0.019-0.111-0.039-0.22-0.058-0.332
	C177.44,361.732,177.46,361.841,177.479,361.953z M176.911,358.337c-0.034-0.236-0.067-0.472-0.101-0.709
	C176.843,357.865,176.877,358.102,176.911,358.337z M176.366,354.214c-0.001-0.007-0.002-0.015-0.002-0.023
	C176.364,354.198,176.365,354.206,176.366,354.214z M175.998,350.722c-0.024-0.248-0.048-0.495-0.07-0.744
	C175.95,350.227,175.974,350.474,175.998,350.722z M175.641,346.447c-0.012-0.166-0.021-0.335-0.032-0.501
	C175.619,346.112,175.629,346.281,175.641,346.447z M175.416,342.64c-0.011-0.232-0.024-0.461-0.035-0.694
	C175.392,342.178,175.405,342.408,175.416,342.64z M175.6,319.042c0.021-0.412,0.043-0.824,0.066-1.233
	C175.643,318.218,175.621,318.63,175.6,319.042z M175.998,312.445c0.007-0.099,0.015-0.195,0.022-0.294
	C176.013,312.249,176.005,312.346,175.998,312.445z M176.419,307.077c0.025-0.288,0.049-0.577,0.074-0.863
	C176.468,306.501,176.444,306.79,176.419,307.077z M176.994,301.009c0.006-0.057,0.013-0.113,0.019-0.17
	C177.007,300.896,177,300.952,176.994,301.009z M175.23,328.69c-0.006,0.298-0.012,0.596-0.017,0.893
	C175.218,329.286,175.224,328.988,175.23,328.69z M175.183,333.496c0,0.171,0.003,0.339,0.004,0.509
	C175.187,333.835,175.184,333.667,175.183,333.496z M175.251,338.245c-0.006-0.248-0.011-0.499-0.016-0.748
	C175.24,337.747,175.244,337.997,175.251,338.245z M206.728,424.738c0.076,0.094,0.152,0.189,0.229,0.283
	C206.88,424.927,206.804,424.833,206.728,424.738z M180.446,375.338c0.053,0.194,0.108,0.386,0.162,0.579
	C180.554,375.724,180.499,375.532,180.446,375.338z M181.453,378.801c0.006,0.019,0.011,0.037,0.017,0.056
	C181.464,378.839,181.458,378.82,181.453,378.801z M182.397,381.737c0.062,0.186,0.124,0.371,0.187,0.556
	C182.521,382.108,182.459,381.922,182.397,381.737z M183.566,385.085c0.022,0.061,0.045,0.12,0.068,0.181
	C183.612,385.206,183.589,385.146,183.566,385.085z M184.63,387.874c0.063,0.158,0.124,0.318,0.187,0.476
	C184.754,388.191,184.693,388.032,184.63,387.874z M185.912,391.003c0.053,0.124,0.107,0.247,0.16,0.37
	C186.02,391.25,185.965,391.127,185.912,391.003z M187.149,393.799c0.049,0.108,0.098,0.217,0.147,0.325
	C187.246,394.016,187.198,393.907,187.149,393.799z M188.506,396.675c0.072,0.148,0.146,0.296,0.219,0.444
	C188.652,396.971,188.578,396.823,188.506,396.675z M189.987,399.615c0.005,0.009,0.01,0.019,0.015,0.028
	C189.997,399.634,189.992,399.625,189.987,399.615z M191.344,402.144c0.079,0.143,0.158,0.286,0.237,0.429
	C191.502,402.43,191.423,402.287,191.344,402.144z M192.971,405.021c0.007,0.012,0.015,0.025,0.022,0.037
	C192.986,405.045,192.978,405.033,192.971,405.021z M194.415,407.432c0.075,0.123,0.15,0.247,0.226,0.37
	C194.565,407.679,194.49,407.555,194.415,407.432z M196.117,410.148c0.053,0.082,0.107,0.164,0.16,0.246
	C196.224,410.312,196.17,410.23,196.117,410.148z M197.728,412.596c0.054,0.08,0.107,0.16,0.161,0.24
	C197.835,412.756,197.782,412.676,197.728,412.596z M199.462,415.12c0.077,0.109,0.154,0.218,0.231,0.328
	C199.616,415.339,199.539,415.23,199.462,415.12z M203.002,419.975c0.083,0.11,0.167,0.22,0.251,0.331
	C203.169,420.195,203.086,420.085,203.002,419.975z M311.121,113.166c11.067,106.596,67.478,78.305,78.674,156.72
	c0.003,0.013,0.006,0.027,0.009,0.041c-8.675-35.566-40.729-61.971-78.968-61.971c-36.431,0-67.262,23.964-77.598,56.986
	c0-0.001,0.001-0.002,0.001-0.003C246.066,192.634,300.295,217.453,311.121,113.166z M229.632,285.488
	c-0.057,1.249-0.095,2.503-0.095,3.765c0,1.343,0.037,2.677,0.101,4.003c-0.066-1.326-0.101-2.661-0.101-4.003
	C229.537,287.99,229.575,286.736,229.632,285.488z M232.986,265.804c-0.258,0.858-0.506,1.721-0.736,2.591
	C232.481,267.525,232.728,266.662,232.986,265.804z M231.913,269.732c-0.188,0.764-0.365,1.532-0.532,2.304
	C231.548,271.264,231.724,270.496,231.913,269.732z M231.109,273.314c-0.229,1.154-0.442,2.314-0.622,3.484
	C230.667,275.627,230.88,274.467,231.109,273.314z M230.418,277.308c-0.155,1.05-0.289,2.106-0.403,3.169
	C230.13,279.414,230.264,278.357,230.418,277.308z M229.901,281.67c-0.082,0.887-0.15,1.778-0.203,2.673
	C229.752,283.448,229.819,282.557,229.901,281.67z M231.022,304.706c0-0.002-0.001-0.004-0.001-0.007
	c7.217,37.513,40.198,65.854,79.815,65.854c41.703,0,76.051-31.407,80.735-71.853c-2.012,65.675-58.691,62.57-80.45,146.183
	C290.049,363.903,236.218,364.266,231.022,304.706z M229.874,296.472c0.019,0.216,0.029,0.435,0.05,0.651
	C229.902,296.908,229.893,296.689,229.874,296.472z M390.703,274.098c0.09,0.474,0.173,0.951,0.255,1.428
	C390.877,275.049,390.792,274.572,390.703,274.098z M391.33,277.911c0.106,0.75,0.202,1.504,0.287,2.261
	C391.533,279.414,391.435,278.661,391.33,277.911z M392.047,292.725c0.048-1.153,0.088-2.308,0.088-3.472
	c0-1.238-0.039-2.467-0.093-3.691c0.056,1.224,0.093,2.453,0.093,3.691C392.135,290.418,392.099,291.573,392.047,292.725z
	 M391.795,296.519c0.076-0.857,0.147-1.716,0.196-2.581C391.939,294.802,391.873,295.662,391.795,296.519z M391.753,281.438
	c0.106,1.091,0.189,2.188,0.25,3.292C391.943,283.626,391.857,282.529,391.753,281.438z M444.636,295.719
	c-0.011-0.092-0.022-0.185-0.034-0.277C444.614,295.534,444.625,295.628,444.636,295.719z M446.63,318.932
	c-0.018-0.344-0.036-0.688-0.055-1.03C446.594,318.244,446.612,318.588,446.63,318.932z M446.234,312.39
	c-0.002-0.022-0.003-0.044-0.005-0.066C446.231,312.346,446.233,312.368,446.234,312.39z M445.81,306.997
	c-0.021-0.243-0.041-0.487-0.063-0.729C445.769,306.51,445.789,306.754,445.81,306.997z M445.238,300.979
	c-0.002-0.023-0.005-0.045-0.007-0.068C445.233,300.934,445.236,300.956,445.238,300.979z M446.851,342.009
	c-0.008,0.17-0.017,0.339-0.025,0.508C446.834,342.347,446.843,342.179,446.851,342.009z M446.618,346.091
	c-0.007,0.097-0.012,0.196-0.019,0.293C446.606,346.287,446.612,346.189,446.618,346.091z M446.301,350.052
	c-0.017,0.19-0.036,0.379-0.054,0.569C446.265,350.431,446.284,350.242,446.301,350.052z M445.413,357.714
	c-0.025,0.18-0.051,0.36-0.076,0.539C445.362,358.073,445.388,357.893,445.413,357.714z M444.805,361.674
	c-0.006,0.034-0.012,0.068-0.018,0.103C444.792,361.742,444.799,361.708,444.805,361.674z M444.193,365.042
	c-0.027,0.14-0.053,0.281-0.081,0.421C444.14,365.324,444.166,365.183,444.193,365.042z M443.437,368.702
	c-0.024,0.111-0.05,0.22-0.075,0.33C443.387,368.922,443.412,368.813,443.437,368.702z M442.639,372.097
	c-0.017,0.067-0.033,0.136-0.05,0.203C442.606,372.233,442.622,372.165,442.639,372.097z M427.728,407.574
	c-0.022,0.036-0.044,0.072-0.066,0.108C427.684,407.646,427.706,407.61,427.728,407.574z M441.769,375.406
	c-0.037,0.134-0.075,0.267-0.112,0.4C441.694,375.673,441.732,375.54,441.769,375.406z M439.808,381.821
	c-0.042,0.126-0.084,0.251-0.127,0.377C439.724,382.072,439.766,381.946,439.808,381.821z M437.559,387.984
	c-0.036,0.092-0.072,0.185-0.109,0.277C437.486,388.169,437.522,388.076,437.559,387.984z M436.293,391.065
	c-0.022,0.05-0.044,0.1-0.065,0.151C436.249,391.166,436.271,391.116,436.293,391.065z M435.011,393.959
	c-0.012,0.026-0.023,0.052-0.035,0.078C434.987,394.011,434.999,393.985,435.011,393.959z M433.684,396.757
	c-0.036,0.074-0.073,0.147-0.109,0.221C433.612,396.904,433.648,396.831,433.684,396.757z M430.832,402.243
	c-0.038,0.07-0.077,0.139-0.115,0.209C430.755,402.382,430.793,402.312,430.832,402.243z M447.05,333.843
	c0-0.097,0.002-0.192,0.002-0.289C447.052,333.651,447.05,333.746,447.05,333.843z M446.987,338.175
	c0.005-0.187,0.008-0.376,0.012-0.563C446.995,337.799,446.991,337.988,446.987,338.175z M447.008,328.785
	c0.005,0.239,0.01,0.478,0.013,0.716C447.017,329.263,447.012,329.024,447.008,328.785z"/>
</svg>
