<?xml version="1.0" encoding="utf-8"?>
<!-- Generator: Adobe Illustrator 17.0.0, SVG Export Plug-In . SVG Version: 6.00 Build 0)  -->
<!DOCTYPE svg PUBLIC "-//W3C//DTD SVG 1.1//EN" "http://www.w3.org/Graphics/SVG/1.1/DTD/svg11.dtd">
<svg version="1.1" id="Layer_1" xmlns="http://www.w3.org/2000/svg" xmlns:xlink="http://www.w3.org/1999/xlink" x="0px" y="0px"
	 width="613px" height="613px" viewBox="0 0 613 613" enable-background="new 0 0 613 613" xml:space="preserve">
<path d="M97.791,430.539c147.424-94.251,243.97-193.77,333.387-337.289l73.617,72.766
	c-140.669,89.932-241.841,190.355-333.387,337.289l-73.617-72.764C97.791,430.541,97.791,430.539,97.791,430.539z"/>
<g>
	<path d="M339.038,294.341c-13.874,13.202-27.342,26.811-40.461,40.897c79.46,53.249,135.154,151.162,188.404,247.385
		L589.177,479.23C490.916,426.333,392.434,372.905,339.038,294.341z"/>
	<path d="M104.236,244.218c47.803,47.249,109.484,53.79,149.481,67.616c21.675-19.985,42.141-40.727,61.695-62.499
		c-13.991-39.968-21.839-100.994-69.676-148.278C174.39,30.534,84.944,5.541,45.9,45.043l0.001,0.001
		C6.857,84.544,32.888,173.695,104.236,244.218z M91.908,90.646c19.974-20.207,71.952-1.215,116.098,42.42
		c44.146,43.635,63.741,95.39,43.767,115.597c-19.974,20.207-71.952,1.215-116.097-42.419
		C91.531,162.609,71.935,110.854,91.908,90.646z"/>
</g>
</svg>
