<?xml version="1.0" encoding="utf-8"?>
<!-- Generator: Adobe Illustrator 17.0.0, SVG Export Plug-In . SVG Version: 6.00 Build 0)  -->
<!DOCTYPE svg PUBLIC "-//W3C//DTD SVG 1.1//EN" "http://www.w3.org/Graphics/SVG/1.1/DTD/svg11.dtd">
<svg version="1.1" id="Layer_1" xmlns="http://www.w3.org/2000/svg" xmlns:xlink="http://www.w3.org/1999/xlink" x="0px" y="0px"
	 width="612px" height="612px" viewBox="0 0 612 612" enable-background="new 0 0 612 612" xml:space="preserve">
<g>
	<path d="M359.277,198.44c12.914-16.072,21.211-38.443,21.211-63.205c0-48.908-31.341-88.378-69.839-88.378
		c-2.411,0-4.896-0.299-7.251,0c-35.153,4.541-62.607,42.535-62.607,88.378c0,25.398,8.765,48.067,22.239,64.233
		c-73.11,13.662-78.641,136.053-78.641,221.965h50.702l13.456,179.316h128.82l11.904-179.316h48.123
		C437.395,335.278,439.133,210.738,359.277,198.44z"/>
	<path d="M475.675,21.868c40.621,26.292,66.757,65.786,66.757,110.303c0,44.255-25.775,83.988-66.009,110.303
		c68.896-19.877,116.451-61.87,116.451-110.303C592.848,83.566,544.984,41.658,475.675,21.868z"/>
	<path d="M426.162,214.55c51.447-14.853,86.964-46.213,86.964-82.379c0-36.318-35.75-67.613-87.506-82.379
		c30.363,19.638,49.849,49.127,49.849,82.379C475.469,165.227,456.216,194.912,426.162,214.55z"/>
	<path d="M413.532,132.171c0,23.944-13.944,45.452-35.724,59.696c37.27-10.765,63.02-33.49,63.02-59.696
		c0-26.315-25.903-48.975-63.432-59.696C399.382,86.719,413.532,108.075,413.532,132.171z"/>
	<path d="M78.362,132.171c0-44.517,26.135-84.011,66.757-110.303C75.81,41.658,27.921,83.566,27.921,132.171
		c0,48.432,47.555,90.426,116.451,110.303C104.137,216.159,78.362,176.426,78.362,132.171z"/>
	<path d="M107.668,132.171c0,36.166,35.517,67.526,86.964,82.379c-30.053-19.638-49.307-49.323-49.307-82.379
		c0-33.253,19.486-62.741,49.849-82.379C143.417,64.558,107.642,95.853,107.668,132.171z"/>
	<path d="M242.96,191.867c-21.78-14.244-35.724-35.752-35.724-59.696c0-24.095,14.15-45.451,36.136-59.696
		c-37.502,10.721-63.432,33.382-63.432,59.696C179.94,158.376,205.69,181.102,242.96,191.867z"/>
</g>
</svg>
