<?xml version="1.0" encoding="utf-8"?>
<!-- Generator: Adobe Illustrator 17.0.0, SVG Export Plug-In . SVG Version: 6.00 Build 0)  -->
<!DOCTYPE svg PUBLIC "-//W3C//DTD SVG 1.1//EN" "http://www.w3.org/Graphics/SVG/1.1/DTD/svg11.dtd">
<svg version="1.1" id="Layer_1" xmlns="http://www.w3.org/2000/svg" xmlns:xlink="http://www.w3.org/1999/xlink" x="0px" y="0px"
	 width="613px" height="613px" viewBox="0 0 613 613" enable-background="new 0 0 613 613" xml:space="preserve">
<path d="M123.888,297.896c0,139.838,181.69,291.832,181.69,291.832S487.27,437.753,487.261,297.896
	C487.265-72.667,123.887-65.675,123.888,297.896z M253.803,450.78c-23.124-25.015-40.604-57.573-51.664-92.981
	c-17.702-4.935-30.623-21.247-30.456-40.501c0.119-13.699,6.836-25.796,17.107-33.303c-2.185-39.332,3.439-78.332,17.829-111.429
	l17.792,104.91c17.784,4.881,30.781,21.232,30.614,40.545c-0.122,14.085-7.224,26.467-17.985,33.918L253.803,450.78z
	 M357.347,450.78l16.763-98.84c-10.762-7.45-17.865-19.833-17.987-33.919c-0.168-19.314,12.831-35.665,30.616-40.546l17.792-104.909
	c14.39,33.097,20.014,72.098,17.829,111.431c10.27,7.507,16.987,19.603,17.105,33.301c0.167,19.253-12.752,35.564-30.453,40.5
	C397.951,393.206,380.471,425.765,357.347,450.78z"/>
</svg>
