<?xml version="1.0" encoding="utf-8"?>
<!-- Generator: Adobe Illustrator 17.0.0, SVG Export Plug-In . SVG Version: 6.00 Build 0)  -->
<!DOCTYPE svg PUBLIC "-//W3C//DTD SVG 1.1//EN" "http://www.w3.org/Graphics/SVG/1.1/DTD/svg11.dtd">
<svg version="1.1" id="Layer_1" xmlns="http://www.w3.org/2000/svg" xmlns:xlink="http://www.w3.org/1999/xlink" x="0px" y="0px"
	 width="613px" height="613px" viewBox="0 0 613 613" enable-background="new 0 0 613 613" xml:space="preserve">
<g>
	<path d="M187.558,302.633c0,65.695,53.255,118.95,118.95,118.95s118.95-53.255,118.95-118.95s-53.255-118.95-118.95-118.95
		S187.558,236.938,187.558,302.633z M306.552,231.138c39.509,0,71.537,32.028,71.537,71.537c0,39.509-32.028,71.537-71.537,71.537
		c-39.509,0-71.537-32.028-71.537-71.537S267.043,231.138,306.552,231.138z"/>
	<circle cx="306.552" cy="302.676" r="34.612"/>
	<path d="M443.428,395.804c0.001-0.001,0.002-0.003,0.003-0.004l21.321,70.28c42.701-41.35,69.255-99.276,69.255-163.412
		c0-111.72-80.542-204.621-186.729-223.82l-15.142-49.913h-61.911v-0.001l-28.277,94.316l12.613-42.07
		C153.988,104.693,79.082,194.929,79.082,302.668c0,60.537,23.652,115.547,62.216,156.301l-37.23,124.178h56.043l46.341-142.265
		l-18.258,56.053c24.98,15.25,53.125,25.828,83.226,30.494v55.718h62.271V465.99c-8.829,1.456-17.889,2.226-27.131,2.226
		c-12.056,0-23.806-1.301-35.129-3.748c-23.684-5.119-45.478-15.311-64.198-29.374c-17.758-13.342-32.75-30.163-43.948-49.465
		c0.085,0.146,0.174,0.288,0.259,0.433c-14.309-24.486-22.516-52.972-22.516-83.38c0-64.833,37.277-120.951,91.563-148.114
		c-0.013,0.006-0.025,0.012-0.038,0.018v0c22.272-11.152,47.404-17.437,74.008-17.437c21.945,0,42.888,4.281,62.053,12.036
		c60.673,24.553,103.479,84.021,103.479,153.497c0,34.547-10.589,66.617-28.689,93.156c-12.179,17.856-27.762,33.199-45.814,45.109
		c0.004-0.003,0.006-0.005,0.01-0.007c-18.944,12.499-40.606,21.211-63.909,25.056v62.522c30.095-3.583,58.386-13.042,83.698-27.195
		l26.834,81.824h56.043L443.431,395.8C443.43,395.801,443.429,395.803,443.428,395.804z"/>
</g>
</svg>
