<?xml version="1.0" encoding="utf-8"?>
<!-- Generator: Adobe Illustrator 17.0.0, SVG Export Plug-In . SVG Version: 6.00 Build 0)  -->
<!DOCTYPE svg PUBLIC "-//W3C//DTD SVG 1.1//EN" "http://www.w3.org/Graphics/SVG/1.1/DTD/svg11.dtd">
<svg version="1.1" id="Layer_1" xmlns="http://www.w3.org/2000/svg" xmlns:xlink="http://www.w3.org/1999/xlink" x="0px" y="0px"
	 width="612px" height="612px" viewBox="0 0 612 612" enable-background="new 0 0 612 612" xml:space="preserve">
<g transform="matrix(15 0 0 15 -2684 -3284)">
	<path d="M197.279,220.208c-1.135,0-4.109,0.952-4.109,2.129v2.129h-4.071c-2.27,0-4.109,1.904-4.109,4.258V254.2
		c0,2.355,1.839,4.258,4.109,4.258h20.47c2.27,0,4.109-1.904,4.109-4.258v-25.475c0-2.355-1.839-4.258-4.109-4.258h-4.071v-2.129
		c0-1.177-2.974-2.129-4.109-2.129h-4.11V220.208z M199.333,228.725v10.608h8.18l-8.18,14.867v-10.608h-8.18L199.333,228.725z"/>
</g>
</svg>
