<?xml version="1.0" encoding="utf-8"?>
<!-- Generator: Adobe Illustrator 17.0.0, SVG Export Plug-In . SVG Version: 6.00 Build 0)  -->
<!DOCTYPE svg PUBLIC "-//W3C//DTD SVG 1.1//EN" "http://www.w3.org/Graphics/SVG/1.1/DTD/svg11.dtd">
<svg version="1.1" id="Layer_1" xmlns="http://www.w3.org/2000/svg" xmlns:xlink="http://www.w3.org/1999/xlink" x="0px" y="0px"
	 width="613px" height="613px" viewBox="0 0 613 613" enable-background="new 0 0 613 613" xml:space="preserve">
<path d="M128.495,21.507c48.683,69.581-76.157,30.977-105.231,2.953c1.267,47.912,119.59,119.092,176.181,86.209
	C234.179,90.486,163.738,27.406,128.495,21.507L128.495,21.507z"/>
<polygon points="61.572,113.406 61.573,113.41 61.574,113.408 "/>
<path d="M317.29,221.95c13.108,83.884,103.327,49.031,121.936,146.307C391.41,331.776,253.012,384.71,317.29,221.95z"/>
<path d="M245.353,89.973l1.039,1.765c143.873,118.337-4.831,209.459-77.68,58.293C187.623,248.647,75,202.883,61.573,113.41
	c-77.297,162.067,144.869,163.057,151.71,273.87c3.861,62.515-93.005,23.806-136.1-58.373
	C368.754,952.782,973.029,313.925,245.353,89.973z M453.116,305.179c-25.638,70.135,121.75,137.124,19.093,203.651
	c31.033-40.866,2.835-135.755-105.008-130.462C506.469,464.995,417.78,625.7,343.654,489.74
	c1.562,41.936,14.328,65.524,32.456,77.006c-72.783-14.29-127.918-78.331-127.918-155.283c0-46.675,20.243-88.669,52.413-117.684
	c-0.479-17.482,4.395-40.709,16.685-71.829c3.389,21.689,11.941,35.431,23.07,45.58c20.177-9.322,42.634-14.533,66.298-14.533
	c53.285,0,102.251,22.357,130.988,62.749l-0.001-0.002C589.826,406.126,461.412,348.503,453.116,305.179z"/>
<path d="M316.189,443.445c48.779,26.389-9.383-65.765-40.498-73.818c51.236-5.265,132.455,66.064,109.241,99.121
	c-17.288,24.617-64.67-7.852-68.745-25.303H316.189z"/>
</svg>
