<?xml version="1.0" encoding="utf-8"?>
<!-- Generator: Adobe Illustrator 17.0.0, SVG Export Plug-In . SVG Version: 6.00 Build 0)  -->
<!DOCTYPE svg PUBLIC "-//W3C//DTD SVG 1.1//EN" "http://www.w3.org/Graphics/SVG/1.1/DTD/svg11.dtd">
<svg version="1.1" id="Layer_1" xmlns="http://www.w3.org/2000/svg" xmlns:xlink="http://www.w3.org/1999/xlink" x="0px" y="0px"
	 width="612px" height="612px" viewBox="0 0 612 612" enable-background="new 0 0 612 612" xml:space="preserve">
<path d="M587.671,355.956l-40.398-13.334l0.951,0.995L324.79,424.701L110.9,198.587l-52.507-17.331
	c-26.499,18.754-29.478,72.186-11.661,90.766l264.029,271.383l279.259-99.99C564.588,429.513,543.941,389.939,587.671,355.956z
	 M295.933,429.189L75.914,201.065H82.5l219.047,223.637L295.933,429.189z M312.755,535.255c0,0-30.438-35.563,9.008-82.892
	l239.086-86.58c0,0-27.493,47.211,4.681,75.095L312.755,535.255z"/>
<path d="M110.9,198.587l-7.301-7.718l222.889-79.148l220.786,230.901l40.397,13.334c-0.197,0.153-0.383,0.307-0.578,0.461
	l4.712-1.682L331.262,84.594l-271.813,97.01L110.9,198.587z"/>
</svg>
