<?xml version="1.0" encoding="utf-8"?>
<!-- Generator: Adobe Illustrator 17.0.0, SVG Export Plug-In . SVG Version: 6.00 Build 0)  -->
<!DOCTYPE svg PUBLIC "-//W3C//DTD SVG 1.1//EN" "http://www.w3.org/Graphics/SVG/1.1/DTD/svg11.dtd">
<svg version="1.1" id="Layer_1" xmlns="http://www.w3.org/2000/svg" xmlns:xlink="http://www.w3.org/1999/xlink" x="0px" y="0px"
	 width="613px" height="613px" viewBox="0 0 613 613" enable-background="new 0 0 613 613" xml:space="preserve">
<path d="M449.504,363.34l22.622,64.815l-146.213,134L449.504,363.34z"/>
<path d="M462.286,518.104l-22.625-64.813l146.213-133.997L462.286,518.104z"/>
<path d="M159.823,363.34L137.2,428.155l146.214,133.999L159.823,363.34z"/>
<path d="M147.04,518.104l22.625-64.813L23.452,319.295L147.04,518.104z"/>
<path d="M136.204,103.827c0.925,128.096,58.17,256.729,172.765,367.454C422.89,360.79,481.285,232.015,482.297,103.827
	C384.047,125.508,234.458,125.781,136.204,103.827z M309.036,424.035c-87.76-84.795-131.6-183.304-132.308-281.402
	c75.246,16.811,189.803,16.604,265.044,0C441,240.801,396.278,339.419,309.036,424.035z"/>
</svg>
