<?xml version="1.0" encoding="utf-8"?>
<!-- Generator: Adobe Illustrator 17.0.0, SVG Export Plug-In . SVG Version: 6.00 Build 0)  -->
<!DOCTYPE svg PUBLIC "-//W3C//DTD SVG 1.1//EN" "http://www.w3.org/Graphics/SVG/1.1/DTD/svg11.dtd">
<svg version="1.1" id="Layer_1" xmlns="http://www.w3.org/2000/svg" xmlns:xlink="http://www.w3.org/1999/xlink" x="0px" y="0px"
	 width="613px" height="613px" viewBox="0 0 613 613" enable-background="new 0 0 613 613" xml:space="preserve">
<g>
	<path d="M200.554,413.808l0.011,0.024c0-0.008,0-0.016,0-0.024H200.554z"/>
	<path d="M539.197,488.062c71.777-7.709,51.198-105.237,0-84.896c-58.581,23.274-109.417,40.941-157.023,51.239l15.664-33.573
		c0.588-0.36,1.176-0.719,1.764-1.076c-0.066-0.951-0.115-1.906-0.155-2.861c0.005,0.151,0.01,0.303,0.017,0.454l0.427-0.916
		l-0.461,0.027c-1.805-46.985,27.29-97.812,92.701-97.812C494.146,189.171,444.505,15.77,305.293,15.77l-0.003-0.001
		C164.892,15.77,110.24,196.066,108.33,318.648c70.763,0,93.461,50.507,92.201,96.986c0.411,0.266,0.83,0.526,1.244,0.789
		c0,0-0.001,0-0.001-0.001l19.075,40.882c-43.884-8.99-89.607-26.514-141.032-54.138c-63.936-34.344-87.458,67.322,0,82.472
		c-87.192,1.618-62.68,102.189,0,73.982c57.074-25.683,108.789-41.943,159.011-49.434l-9.174,19.663
		c16.315,4.597,32.63,7.421,48.946,8.636h0.668l-14.641-31.381c10.915-0.984,21.792-1.551,32.668-1.71l-15.539,33.304
		c1.605,0.099,3.211,0.18,4.816,0.248c-26.34-1.124-52.679-6.348-79.018-16.412v62.788c62.112,20.988,124.226,20.011,186.338,0
		v-62.788c-6.46,2.147-12.919,4.092-19.379,5.849l-8.725-18.7c-2.122-0.292-4.241-0.569-6.357-0.831
		c56.12,6.959,114.254,24.172,179.766,50.768C598.287,583.61,613.822,491.292,539.197,488.062z M340.333,506.871l-14.36,30.777
		c-5.935,0.632-11.869,1.074-17.804,1.316c5.044-0.205,10.088-0.549,15.132-1.037l-15.194-32.566
		C318.822,505.47,329.552,505.979,340.333,506.871z M317.112,463.83c0.953-0.063,1.908-0.138,2.862-0.209
		C319.02,463.692,318.065,463.767,317.112,463.83z M323.075,463.386c1.064-0.087,2.129-0.181,3.195-0.277
		C325.205,463.205,324.139,463.299,323.075,463.386z M329.065,462.849c1.091-0.106,2.182-0.213,3.275-0.328
		C331.247,462.636,330.156,462.743,329.065,462.849z M335.157,462.211c1.069-0.12,2.137-0.235,3.207-0.363
		C337.294,461.976,336.226,462.092,335.157,462.211z M338.402,461.843l9.511-20.384c-0.009,0.002-0.017,0.003-0.026,0.005
		c3.284-0.619,6.533-1.315,9.733-2.1c0,0,0,0,0,0l8.188,18.316C356.579,459.366,347.455,460.759,338.402,461.843z M393.598,423.431
		c1.381-0.845,2.758-1.692,4.136-2.535C396.357,421.739,394.98,422.586,393.598,423.431z M382.172,454.405
		c-2.638,0.571-5.267,1.12-7.886,1.644C376.906,455.523,379.534,454.976,382.172,454.405z M373.776,456.153
		c-2.664,0.531-5.321,1.043-7.967,1.527C368.455,457.197,371.111,456.686,373.776,456.153z M364.479,437.528
		c0.713-0.209,1.421-0.424,2.12-0.652C365.9,437.103,365.192,437.319,364.479,437.528z M367.514,436.564
		c0.487-0.165,0.976-0.328,1.456-0.502C368.49,436.235,368.001,436.399,367.514,436.564z M369.995,435.677
		c0.434-0.163,0.87-0.325,1.3-0.494C370.865,435.352,370.43,435.514,369.995,435.677z M372.339,434.756
		c0.414-0.17,0.829-0.338,1.239-0.514C373.168,434.418,372.753,434.586,372.339,434.756z M374.617,433.785
		c0.401-0.178,0.803-0.355,1.201-0.537C375.42,433.431,375.019,433.608,374.617,433.785z M376.85,432.765
		c0.392-0.185,0.784-0.37,1.173-0.56C377.634,432.394,377.242,432.579,376.85,432.765z M379.043,431.698
		c0.385-0.192,0.769-0.385,1.151-0.581C379.812,431.313,379.428,431.506,379.043,431.698z M381.197,430.594
		c0.382-0.201,0.763-0.402,1.142-0.606C381.96,430.192,381.579,430.394,381.197,430.594z M383.325,429.453
		c0.379-0.208,0.758-0.417,1.135-0.627C384.082,429.037,383.704,429.245,383.325,429.453z M385.419,428.286
		c0.385-0.219,0.77-0.439,1.153-0.66C386.189,427.847,385.804,428.067,385.419,428.286z M387.491,427.094
		c0.395-0.231,0.789-0.462,1.182-0.695C388.28,426.632,387.886,426.863,387.491,427.094z M389.546,425.882
		c0.413-0.246,0.825-0.494,1.236-0.741C390.371,425.388,389.959,425.635,389.546,425.882z M391.585,424.656
		c0.461-0.279,0.921-0.559,1.381-0.84C392.506,424.097,392.046,424.377,391.585,424.656z M390.16,172.664
		c25.718,6.868,40.947,33.171,34.055,58.813c-3.963,14.75-14.147,25.555-27.197,31.192v0.003
		c-7.604-21.617-31.629-43.201-65.372-57.802C339.234,180.268,365.022,165.946,390.16,172.664z M303.384,249.549h0.003
		c17.608,0,28.898,93.997,38.192,140.995c-16.032-5.475-32.194-14.528-37.627-40.359c-5.437,25.859-19.544,33.796-38.76,40.359
		C272.07,343.546,285.811,249.549,303.384,249.549z M338.225,443.038c-0.011,0.002-0.022,0.003-0.034,0.005
		C338.202,443.041,338.214,443.04,338.225,443.038z M323.403,444.575c-0.026,0.002-0.051,0.003-0.077,0.005
		C323.352,444.578,323.377,444.576,323.403,444.575z M247.744,436.932c3.224,0.894,6.472,1.719,9.74,2.479l11.4,24.433
		c-11.951-0.802-23.936-2.217-36.034-4.282l11.078-23.744C245.194,436.203,246.465,436.577,247.744,436.932z M293.23,444.749
		c-0.18-0.012-0.36-0.023-0.54-0.035C292.871,444.726,293.05,444.737,293.23,444.749z M282.83,443.82
		c-0.123-0.014-0.245-0.029-0.367-0.043C282.586,443.79,282.708,443.806,282.83,443.82z M277.756,443.177
		c-0.08-0.011-0.159-0.021-0.239-0.032C277.597,443.156,277.677,443.166,277.756,443.177z M267.666,441.54
		c-0.121-0.022-0.242-0.045-0.362-0.068C267.424,441.495,267.545,441.518,267.666,441.54z M185.169,231.476
		c-6.892-25.642,8.337-51.945,34.055-58.814c25.138-6.718,50.925,7.604,58.514,32.206c-33.743,14.602-57.768,36.186-65.372,57.803
		v-0.003C199.316,257.032,189.134,246.226,185.169,231.476z M232.718,431.974c-0.005-0.002-0.011-0.004-0.017-0.006
		C232.707,431.97,232.713,431.972,232.718,431.974z M221.95,427.427c-0.039-0.018-0.078-0.037-0.118-0.055
		C221.871,427.39,221.911,427.408,221.95,427.427z M227.367,429.82c-0.073-0.031-0.146-0.061-0.219-0.092
		C227.221,429.759,227.294,429.789,227.367,429.82z M226.804,458.475c-1.969-0.37-3.943-0.759-5.919-1.164
		C222.861,457.716,224.834,458.104,226.804,458.475z M232.838,459.56c-1.95-0.333-3.904-0.686-5.861-1.053
		C228.934,458.875,230.887,459.227,232.838,459.56z M274.119,464.155c4.942,0.258,9.88,0.412,14.821,0.463l9.15-19.611
		c2.692,0.109,5.39,0.17,8.094,0.17c0.737,0,1.474-0.01,2.21-0.016c-0.02,0-0.04,0.001-0.059,0.001l8.712,18.672
		C302.672,464.781,288.41,464.9,274.119,464.155z M268.894,463.845c1.624,0.109,3.247,0.206,4.87,0.292
		C272.141,464.05,270.518,463.953,268.894,463.845z M308.083,505.36c-1.267-0.013-2.534-0.012-3.8-0.012
		C305.549,505.35,306.816,505.347,308.083,505.36z M302.455,505.346c-1.706,0.007-3.411,0.023-5.117,0.048
		C299.044,505.369,300.749,505.35,302.455,505.346z M292.554,539.132c1.464,0.028,2.929,0.044,4.393,0.048
		C295.482,539.176,294.018,539.16,292.554,539.132z M287.155,538.972c1.513,0.061,3.026,0.107,4.539,0.141
		C290.181,539.079,288.668,539.033,287.155,538.972z M297.926,539.178c1.447-0.002,2.894-0.014,4.341-0.04
		C300.82,539.165,299.373,539.176,297.926,539.178z M307.639,538.988c-1.473,0.057-2.947,0.096-4.42,0.128
		C304.692,539.084,306.165,539.044,307.639,538.988z M368.295,530.01c-1.924,0.485-3.848,0.951-5.773,1.399
		C364.446,530.962,366.37,530.495,368.295,530.01z M374.458,528.398c-1.973,0.536-3.947,1.053-5.92,1.552
		C370.511,529.451,372.484,528.934,374.458,528.398z M325.991,537.646c1.997-0.213,3.993-0.448,5.99-0.703
		C329.985,537.198,327.988,537.433,325.991,537.646z M332.137,536.922c1.954-0.251,3.908-0.523,5.862-0.815
		C336.045,536.399,334.091,536.671,332.137,536.922z M338.258,536.068c1.921-0.289,3.843-0.597,5.764-0.924
		C342.101,535.471,340.18,535.779,338.258,536.068z M344.355,535.087c1.902-0.326,3.805-0.671,5.707-1.035
		C348.16,534.416,346.258,534.761,344.355,535.087z M350.424,533.983c1.894-0.364,3.788-0.747,5.682-1.148
		C354.213,533.236,352.318,533.618,350.424,533.983z M356.484,532.755c1.898-0.404,3.796-0.826,5.695-1.266
		C360.281,531.929,358.383,532.351,356.484,532.755z M353.142,508.113c2.069,0.229,4.141,0.473,6.215,0.73
		C357.282,508.585,355.211,508.342,353.142,508.113z M340.344,506.872c1.994,0.165,3.991,0.346,5.989,0.538
		C344.335,507.218,342.339,507.037,340.344,506.872z M346.792,507.453c2.001,0.194,4.005,0.403,6.011,0.623
		C350.798,507.855,348.794,507.647,346.792,507.453z"/>
</g>
</svg>
