<?xml version="1.0" encoding="utf-8"?>
<!-- Generator: Adobe Illustrator 17.0.0, SVG Export Plug-In . SVG Version: 6.00 Build 0)  -->
<!DOCTYPE svg PUBLIC "-//W3C//DTD SVG 1.1//EN" "http://www.w3.org/Graphics/SVG/1.1/DTD/svg11.dtd">
<svg version="1.1" id="Layer_1" xmlns="http://www.w3.org/2000/svg" xmlns:xlink="http://www.w3.org/1999/xlink" x="0px" y="0px"
	 width="613px" height="613px" viewBox="0 0 613 613" enable-background="new 0 0 613 613" xml:space="preserve">
<g>
	<path d="M473.282,419.944c4.948-28.441,7.493-54.696,23.753-79.483c43.007-65.571,103.922-129.353,81.293-213.81
		c-13.897-51.855-57.998-78.573-100.225-76.833c-36.066,1.489-67.552,27.945-85.748,66.814
		c-35.186-24.285-76.26-30.917-109.131-14.474c-33.299,16.658-55.487,53.224-51.591,97.192c-5.753,2.919-11.415,6.292-16.933,10.1
		c-18.196-38.869-49.682-65.325-85.748-66.814c-42.227-1.74-86.328,24.978-100.225,76.833
		c-22.629,84.457,38.286,148.239,81.293,213.81c16.26,24.787,18.805,51.042,23.753,79.483c16.441-24.4,39.122-46.673,59.767-58.323
		c59.577-33.625,138.19-55.343,169.424-118.224c-0.018-0.009-0.037-0.018-0.055-0.027c17.384,8.302,34.676,16.442,50.606,25.433
		C434.16,373.271,456.841,395.544,473.282,419.944z M361.87,284.958c-7.186-2.857-14.27-5.71-21.141-8.68
		c6.871,2.97,13.967,5.823,21.152,8.68H361.87z M273.195,219.973c12.559-0.597,24.658,2.103,35.046,7.3
		c18.559,9.283,31.339,25.259,32.299,48.923C310.56,263.219,284.768,247.938,273.195,219.973z M298.814,134.455
		c24.859-12.435,59.497-10.657,86.86,16.705l22.272,22.273l7.794-30.072c10.428-38.918,36.763-56.812,63.476-57.908l0.001,0.005
		c26.71-1.107,54.957,13.951,65.7,52.34c15.294,54.651-34.918,98.531-69.236,147.16h-99.869
		c1.001-40.731-20.522-74.244-51.981-89.982c-17.502-8.755-37.331-10.966-57.357-7.456c0.042,2.462,0.21,5.005,0.501,7.622
		C263.599,164.918,277.333,145.201,298.814,134.455z M272.415,218.047c-0.075-0.197-0.153-0.392-0.227-0.591
		C272.262,217.654,272.339,217.85,272.415,218.047z M271.14,214.447c-0.099-0.303-0.197-0.608-0.293-0.914
		C270.943,213.839,271.04,214.143,271.14,214.447z M269.861,210.182c-0.001-0.002-0.001-0.005-0.002-0.007
		c-0.002-0.008-0.004-0.016-0.006-0.024c0.002,0.008,0.004,0.016,0.006,0.024C269.86,210.177,269.86,210.18,269.861,210.182z
		 M269.026,206.854c-0.098-0.417-0.185-0.826-0.278-1.239C268.841,206.028,268.928,206.438,269.026,206.854z M268.322,203.641
		c-0.105-0.515-0.202-1.025-0.298-1.535C268.12,202.615,268.217,203.126,268.322,203.641z M267.743,200.548
		c-0.1-0.579-0.194-1.154-0.282-1.726C267.548,199.394,267.644,199.97,267.743,200.548z M267.289,197.628
		c-0.092-0.655-0.182-1.309-0.258-1.955C267.107,196.318,267.198,196.973,267.289,197.628z M235.34,220.196
		c0-0.001,0-0.002-0.001-0.002c-0.403-1.505-0.768-3.002-1.11-4.495c0.343,1.493,0.706,2.99,1.11,4.495
		C235.339,220.195,235.339,220.196,235.34,220.196z M237.023,225.896c-0.088-0.276-0.177-0.553-0.264-0.831
		C236.846,225.344,236.935,225.62,237.023,225.896z M233.017,209.753c-0.187-1.051-0.355-2.098-0.512-3.143
		C232.663,207.655,232.828,208.701,233.017,209.753z M234.072,215.023c-0.286-1.283-0.543-2.559-0.785-3.832
		C233.53,212.465,233.784,213.74,234.072,215.023z M62.137,230.616c10.743-38.389,38.99-53.447,65.7-52.34l0.002-0.005
		c26.713,1.096,53.048,18.99,63.476,57.908l7.794,30.072l22.272-22.273c5.488-5.488,11.272-9.931,17.209-13.452
		c15.404,42.62,50.835,67.957,90.295,88.796H86.788C66.91,291.378,53.11,262.874,62.137,230.616z M132.767,459.397L350.871,330.4
		c0,0,0.001,0,0.001,0L132.767,459.397z"/>
	<path d="M438.014,555.351c-0.25,18.374,16.964,33.552,38.313,33.552s38.974-15.172,38.974-33.552
		c0.001-40.751-31.727-32.379-40.294-96.483C467.242,523.223,438.588,514.807,438.014,555.351z"/>
</g>
</svg>
