<?xml version="1.0" encoding="utf-8"?>
<!-- Generator: Adobe Illustrator 17.0.0, SVG Export Plug-In . SVG Version: 6.00 Build 0)  -->
<!DOCTYPE svg PUBLIC "-//W3C//DTD SVG 1.1//EN" "http://www.w3.org/Graphics/SVG/1.1/DTD/svg11.dtd">
<svg version="1.1" id="Layer_1" xmlns="http://www.w3.org/2000/svg" xmlns:xlink="http://www.w3.org/1999/xlink" x="0px" y="0px"
	 width="613px" height="613px" viewBox="0 0 613 613" enable-background="new 0 0 613 613" xml:space="preserve">
<path d="M153.535,507.493l-30.852,64.497h462.243l-35.994-64.497h-22.196c-20.753-115.089-36.26-252.254-25.888-334.041
	c27.165-2.534,46.906-26.333,45.299-61.198c-2.486-53.168-61.889-73.677-109.205-41.733c-20.196-27.505-57.877-34.71-79.494-11.236
	c-33.468-42.191-100.45-34.136-118.84,15.249c-38.668-8.564-67.764,9.796-68.254,45.748c-0.486,35.739,21.762,48.405,48.117,45.8
	c0.738,6.217,1.34,12.919,1.806,20.053c-48.382-1.062-95.694-9.65-142.317-23.09C45.187,263.067,30.824,365.168,34.443,469.3
	c50.855,22.155,104.923,21.697,158.957,21.484c-1.187,5.647-2.405,11.225-3.659,16.709H153.535z M77.152,439.02
	c-2.785-79.941,8.264-145.395,33.466-223.58l0.002,0.001c36.314,8.643,73.172,10.801,110.877,8.325
	c0.334,64.498-6.956,148.768-20.186,225.53C159.12,451.571,116.864,454.324,77.152,439.02z"/>
</svg>
