<?xml version="1.0" encoding="utf-8"?>
<!-- Generator: Adobe Illustrator 17.0.0, SVG Export Plug-In . SVG Version: 6.00 Build 0)  -->
<!DOCTYPE svg PUBLIC "-//W3C//DTD SVG 1.1//EN" "http://www.w3.org/Graphics/SVG/1.1/DTD/svg11.dtd">
<svg version="1.1" id="Layer_1" xmlns="http://www.w3.org/2000/svg" xmlns:xlink="http://www.w3.org/1999/xlink" x="0px" y="0px"
	 width="613px" height="613px" viewBox="0 0 613 613" enable-background="new 0 0 613 613" xml:space="preserve">
<g>
	<polygon points="29.306,193.547 29.307,193.545 29.306,193.544 	"/>
	<path d="M29.307,193.545c32.313,59.074,69.68,91.833,69.808,158.076c0.045,26.324-19.223,35.266-19.223,55.15
		c0,10.863,13.893,21.642,25.131,21.642c10.993,0,25.83-11.594,25.828-23.035c0-19.763-18.474-27.01-18.474-50.262
		c0-77.922,135.301-29.514,141.712,78.882c3.277,55.445-27.226,59.171-27.226,85.866c0,21.378,14.069,29.32,28.62,29.32
		c14.232,0,25.828-6.802,25.828-29.32c0-18.414-24.452-30.329-23.735-85.166c1.501-114.89,97.196-76.506,102.619,43.981
		c1.609,35.744-23.036,48.301-23.036,76.09c0,15.452,12,26.527,25.131,26.527c12.843,0,26.527-11.647,26.527-27.923
		c0-29.3-24.477-39.676-23.735-76.09c2.69-132.044,82.915-223.854,97.732-92.844c3.545,31.337-18.849,42.517-18.849,70.505
		c0,16.667,11.422,28.62,22.339,28.62c11.16,0,21.642-11.402,21.642-27.227c0-27.063-22.73-40.281-18.849-72.601
		c14.576-121.4,83.609-141.764,116.581-190.189C439.649-18.224,143.246-18.575,29.307,193.545z M60.683,193.506L60.683,193.506
		c99.166-177.649,375.822-177.981,493.62,5.924C375.23,329.01,219.33,329.22,60.683,193.506z"/>
</g>
<path d="M398.934,177.374c0,53.756-43.578,97.332-97.332,97.332s-97.332-43.578-97.332-97.332s43.578-97.332,97.332-97.332
	S398.934,123.62,398.934,177.374z"/>
<path d="M335.847,173.586c0,19.28-15.63,34.91-34.91,34.91s-34.91-15.63-34.91-34.91s15.63-34.91,34.91-34.91
	C320.216,138.676,335.847,154.306,335.847,173.586z"/>
<path d="M105.481,390.245V280.663"/>
<path d="M254.315,491.931V382.348"/>
<path d="M362.334,520.56V410.978"/>
<path d="M466.573,434.672V325.09"/>
</svg>
