<?xml version="1.0" encoding="utf-8"?>
<!-- Generator: Adobe Illustrator 17.0.0, SVG Export Plug-In . SVG Version: 6.00 Build 0)  -->
<!DOCTYPE svg PUBLIC "-//W3C//DTD SVG 1.1//EN" "http://www.w3.org/Graphics/SVG/1.1/DTD/svg11.dtd">
<svg version="1.1" id="Layer_1" xmlns="http://www.w3.org/2000/svg" xmlns:xlink="http://www.w3.org/1999/xlink" x="0px" y="0px"
	 width="613px" height="613px" viewBox="0 0 613 613" enable-background="new 0 0 613 613" xml:space="preserve">
<path d="M296.25,266.057c39.92-9.074,44.831-59.554-17.766-74.478c-46.654-11.123-91.574-33.022-126.919-62.705
	c1.435,2.309,2.898,4.582,4.389,6.824c-14.652-22.028-26.639-47.184-34.941-77.468c1.292,4.713,2.676,9.298,4.142,13.771
	c8.53-11.938,8.106-28.582-1.961-40.123c-11.771-13.495-32.257-14.896-45.756-3.131c-11.716,10.211-14.312,26.982-7.1,40.057
	c-11.977-8.922-28.951-8.635-40.667,1.576c-13.499,11.765-14.9,32.242-3.129,45.737c11.263,12.913,30.501,14.743,43.966,4.572
	c-0.638-0.333-1.272-0.657-1.902-0.973c17.233,8.642,37.931,23.871,58.91,42.853c-1.823-1.65-3.645-3.273-5.462-4.864
	c21.022,33.245,45.126,82.616,44.512,112.487c-1.376,66.859,68.925,90.586,83.082,43.973c38.588,37.184,55.008,92.046,29.107,143.48
	c45.819,83.277,174.027,152.202,307.025,115.007C369.043,484.367,447.942,380.286,296.25,266.057z M66.741,118.8
	c0.588,0.283,1.18,0.573,1.777,0.872C67.921,119.373,67.329,119.083,66.741,118.8z M57.573,114.924
	c0.28,0.1,0.566,0.209,0.848,0.314C58.138,115.133,57.853,115.024,57.573,114.924z M59.377,115.595
	c0.366,0.141,0.737,0.291,1.108,0.44C60.114,115.886,59.743,115.736,59.377,115.595z M61.202,116.323
	c0.428,0.176,0.862,0.361,1.295,0.547C62.063,116.683,61.631,116.499,61.202,116.323z M63.037,117.101
	c0.488,0.212,0.98,0.433,1.474,0.657C64.017,117.533,63.525,117.313,63.037,117.101z M64.881,117.926
	c0.54,0.248,1.084,0.503,1.632,0.765C65.965,118.429,65.421,118.174,64.881,117.926z M291.025,262.187
	c-0.027-0.02-0.053-0.039-0.08-0.059C290.972,262.147,290.998,262.167,291.025,262.187z M280.055,254.438
	c-0.167-0.114-0.337-0.229-0.504-0.343C279.718,254.209,279.888,254.323,280.055,254.438z M202.579,190.226
	c-3.781-3.612-7.488-7.28-11.118-11.016C195.09,182.946,198.799,186.613,202.579,190.226z M239.063,222.342
	c-1.907-1.581-3.802-3.164-5.689-4.749C235.261,219.178,237.156,220.761,239.063,222.342z M231.796,216.262
	c-1.435-1.211-2.864-2.423-4.287-3.638C228.931,213.839,230.361,215.051,231.796,216.262z M225.955,211.295
	c-1.719-1.475-3.429-2.955-5.128-4.439C222.526,208.34,224.236,209.819,225.955,211.295z M220.367,206.455
	c-1.954-1.711-3.893-3.43-5.818-5.157C216.474,203.025,218.413,204.743,220.367,206.455z M214.082,200.875
	c-1.726-1.552-3.438-3.113-5.138-4.681C210.644,197.763,212.357,199.323,214.082,200.875z M208.043,195.361
	c-1.733-1.606-3.454-3.22-5.159-4.846C204.589,192.141,206.31,193.755,208.043,195.361z M170.208,155.198
	c-4.961-6.209-9.7-12.659-14.188-19.4C160.508,142.54,165.247,148.988,170.208,155.198z M191.184,178.922
	c-1.748-1.803-3.477-3.623-5.187-5.46C187.706,175.3,189.436,177.119,191.184,178.922z M185.803,173.255
	c-5.364-5.773-10.534-11.729-15.484-17.918C175.269,161.527,180.44,167.481,185.803,173.255z M149.842,184.095
	c-1.756-1.799-3.518-3.578-5.284-5.336C146.324,180.517,148.086,182.296,149.842,184.095z M132.995,167.607
	c-1.717-1.603-3.433-3.183-5.148-4.737C129.562,164.425,131.278,166.004,132.995,167.607z M144.126,178.331
	c-1.681-1.67-3.366-3.32-5.053-4.95C140.76,175.011,142.444,176.661,144.126,178.331z M138.527,172.855
	c-1.67-1.608-3.341-3.195-5.013-4.761C135.186,169.66,136.857,171.247,138.527,172.855z M166.557,202.036
	c1.599,1.797,3.187,3.607,4.762,5.428C169.743,205.643,168.156,203.833,166.557,202.036z M149.982,184.238
	c1.804,1.85,3.601,3.721,5.39,5.61C153.583,187.958,151.786,186.087,149.982,184.238z M155.604,190.094
	c1.71,1.808,3.411,3.633,5.104,5.474C159.016,193.727,157.314,191.902,155.604,190.094z M161.175,196.078
	c1.624,1.771,3.239,3.556,4.843,5.354C164.414,199.634,162.799,197.849,161.175,196.078z M181.993,220.21
	c1.603,1.98,3.186,3.969,4.75,5.964C185.179,224.179,183.595,222.19,181.993,220.21z M171.789,208.007
	c1.632,1.892,3.251,3.795,4.854,5.709C175.039,211.802,173.421,209.898,171.789,208.007z M176.886,214.005
	c1.681,2.01,3.345,4.03,4.989,6.06C180.231,218.035,178.567,216.015,176.886,214.005z M200.784,245.081
	c-1.359-1.938-2.742-3.874-4.147-5.807C198.043,241.207,199.426,243.143,200.784,245.081z M196.187,238.656
	c-1.378-1.889-2.777-3.774-4.196-5.656C193.41,234.882,194.809,236.768,196.187,238.656z M191.512,232.366
	c-1.442-1.905-2.904-3.805-4.385-5.699C188.608,228.561,190.07,230.461,191.512,232.366z M201.086,245.51
	c1.448,2.071,2.87,4.143,4.261,6.214C203.957,249.652,202.534,247.58,201.086,245.51z M248.665,234.591l-17.715,64.166
	c1.662,1.167,3.295,2.364,4.903,3.587c-1.607-1.224-3.242-2.42-4.903-3.587L248.665,234.591z M274.548,250.727
	c-0.281-0.186-0.559-0.373-0.841-0.559C273.989,250.354,274.268,250.54,274.548,250.727z M262.294,242.836
	c-0.483-0.302-0.973-0.603-1.46-0.905C261.321,242.232,261.811,242.534,262.294,242.836z M256.347,239.178
	c-0.555-0.337-1.107-0.673-1.667-1.01C255.239,238.505,255.792,238.842,256.347,239.178z M240.677,306.167
	c3.107,2.561,6.098,5.23,8.968,7.995C246.775,311.397,243.783,308.729,240.677,306.167z M235.943,302.413
	c1.589,1.211,3.15,2.449,4.685,3.713C239.094,304.861,237.531,303.624,235.943,302.413z"/>
</svg>
