<?xml version="1.0" encoding="utf-8"?>
<!-- Generator: Adobe Illustrator 17.0.0, SVG Export Plug-In . SVG Version: 6.00 Build 0)  -->
<!DOCTYPE svg PUBLIC "-//W3C//DTD SVG 1.1//EN" "http://www.w3.org/Graphics/SVG/1.1/DTD/svg11.dtd">
<svg version="1.1" id="Layer_1" xmlns="http://www.w3.org/2000/svg" xmlns:xlink="http://www.w3.org/1999/xlink" x="0px" y="0px"
	 width="613px" height="613px" viewBox="0 0 613 613" enable-background="new 0 0 613 613" xml:space="preserve">
<g>
	<path d="M550.086,367.899c-2.877-1.229-5.905-1.956-9.044-2.225l0.275-0.635l-89.098-38.619l0.001-0.002
		c-0.018-0.008-0.036-0.013-0.054-0.021l-140.653-60.965v72.736l108.247-20.247l-3.632,14.039c0,0,0,0,0,0l-14.146,54.683h0.001
		l-33.484,1.207c0,0,0,0,0,0.001l-56.986,2.053v99.227l59.076,25.606c0.001,0.001,0.002,0.001,0.004,0.002l0,0l89.098,38.619
		l0.097-0.224c2.112,1.728,4.427,3.148,6.946,4.224c27.322,11.668,68.13-21.287,91.147-73.604
		C580.898,431.437,577.409,379.567,550.086,367.899z M550.725,480.697c-10.355,23.538-27.764,38.77-38.883,34.022
		c-11.119-4.748-11.737-27.679-1.382-51.217c10.355-23.538,27.764-38.77,38.883-34.022
		C560.462,434.228,561.08,457.159,550.725,480.697z"/>
	<path d="M199.59,41.935c-57.398,0-103.929,23.94-103.929,53.472c0,0.867,0.044,1.729,0.123,2.586V208.1
		c-15.204,13.331-29.75,33.602-40.397,58.164c-22.107,51.003-19.225,101.63,6.158,114.462l-0.021,0.049l1.491,0.646
		c0.002,0.001,0.004,0.002,0.006,0.003l0,0L98.265,396.7v135.784h-0.003c0,0.041,0.003,0.081,0.003,0.121v1.512h0.051
		c1.68,28.393,46.985,51.17,102.571,51.17s100.892-22.777,102.571-51.17h0.055v-433.96h-0.407c0.268-1.565,0.413-3.149,0.413-4.75
		C303.519,65.875,256.988,41.935,199.59,41.935z M199.588,49.671c25.824,0,46.758,9.742,46.758,21.761
		c0,12.018-20.934,21.76-46.758,21.76c-25.823,0-46.758-9.742-46.758-21.76S173.764,49.671,199.588,49.671z M143.932,365
		L143.932,365l-9.454-9.933l0.001,0l-4.749-4.989l44.049-15.385l-56.203-83.236l0,0.001l-14.2-21.031l70.123-11.019l13.348,27.985
		l54.53,114.336l-20.28,10.044l-0.001-0.001l-8.31,4.116l0,0.001l0,0l61.843,126.436l-47.274-49.672l0.001,0.001L143.932,365z"/>
</g>
</svg>
