<?xml version="1.0" encoding="utf-8"?>
<!-- Generator: Adobe Illustrator 17.0.0, SVG Export Plug-In . SVG Version: 6.00 Build 0)  -->
<!DOCTYPE svg PUBLIC "-//W3C//DTD SVG 1.1//EN" "http://www.w3.org/Graphics/SVG/1.1/DTD/svg11.dtd">
<svg version="1.1" id="Layer_1" xmlns="http://www.w3.org/2000/svg" xmlns:xlink="http://www.w3.org/1999/xlink" x="0px" y="0px"
	 width="613px" height="613px" viewBox="0 0 613 613" enable-background="new 0 0 613 613" xml:space="preserve">
<g transform="matrix(18.68858,0,0,18.68858,6413.10074,-14263.71332)">
	<path d="M-321.744,781.393l-3.328-1.743l0.37,2.219l-2.562-0.872c4.503,3.163,7.559,7.146,10.354,12.203
		c1.449,2.621,4.599,0.413,2.192-2.192c2.648,2.173,4.995-1.598,2.615-2.615C-316.175,786.653-319.653,784.383-321.744,781.393
		L-321.744,781.393z"/>
	<path d="M-342.08,782.79c-0.882,1.321,0.53,3.263,3.475,2.134c-3.551,2.131-0.529,5.193,1.606,2.782
		c2.19-2.472,4.794-4.767,7.531-5.857l0.812-1.806l-2.098,0.401l3.098-3.825c-3.814,2.685-7.954,4.796-12.741,5.2
		C-341.241,781.89-341.786,782.35-342.08,782.79z"/>
	<path d="M-325.017,776.344l2.785-6.64l-1.642-5.171l-2.123,8.619L-325.017,776.344z"/>
	<path d="M-316.145,781.974l-7.698-3.949l7.158,0.551L-316.145,781.974L-316.145,781.974z"/>
	<path d="M-326.908,775.426l-5.93-9.415l0.13,7.08L-326.908,775.426z"/>
	<path d="M-328.506,782.646l-3.854,5.07l2.991-0.659L-328.506,782.646L-328.506,782.646z"/>
	<path d="M-323.191,776.712l5.454-2.495l-3.565-0.1L-323.191,776.712z"/>
	<path d="M-327.294,782.705l1.215,7.572l2.329-1.255L-327.294,782.705L-327.294,782.705z"/>
</g>
</svg>
