<?xml version="1.0" encoding="utf-8"?>
<!-- Generator: Adobe Illustrator 17.0.0, SVG Export Plug-In . SVG Version: 6.00 Build 0)  -->
<!DOCTYPE svg PUBLIC "-//W3C//DTD SVG 1.1//EN" "http://www.w3.org/Graphics/SVG/1.1/DTD/svg11.dtd">
<svg version="1.1" id="Layer_1" xmlns="http://www.w3.org/2000/svg" xmlns:xlink="http://www.w3.org/1999/xlink" x="0px" y="0px"
	 width="613px" height="613px" viewBox="0 0 613 613" enable-background="new 0 0 613 613" xml:space="preserve">
<path d="M502.963,230.187c-4.491-6.699-10.901-12.697-19.525-17.463c-17.437-9.637-34.328-8.965-48.226-2.235l0.007-0.066
	c-37.681,18.271-74.381,26.951-111.348,33.514c-9.561-3.624-12.632-10.787-6.056-23.213c22.608-21.72,49.122-39.257,75.922-48.314
	c21.801-2.862,39.072-20.414,45.704-41.063c28-6.191,61.424-3.688,82.161,18.84C508.09,68.946,461.209,59.966,418.939,70.14
	c-1.414-0.937-2.879-1.847-4.435-2.707c-36.622-20.239-70.836,4.977-79.943,36.349c-7.058,18.403-15.531,35.776-25.365,52.091
	c-41.847,37.4-81.501,22.728-112.112-18.643c-23.613-33.898-44.4-78.181-56.262-119.858H20.505v83.072
	c67.553,31.666,166.831,149.184,145.498,183.661c-23.839,11.616-49.81,21.398-79.25,31.033c-3.288,0.71-6.468,1.744-9.513,3.075
	c-0.224,0.071-0.441,0.143-0.665,0.214l0.064,0.063c-25.644,11.595-41.591,43.72-32.995,70.758
	c-23.16,45.524-21.064,105.456,69.821,121.171c-26.294-24.916-32.143-57.595-22.95-84.115c27.857,3.447,50.821-17.232,58.354-42.09
	c9.928-25.261,25.425-47.974,49.986-55.694c26.534-8.342,106.93,23.678,146.937,90.589c3.711,11.571,11.922,22.2,25.803,29.871
	c13.626,7.53,26.754,8.907,38.366,6.104c22.446,24.331,41.34,61.244,32.422,95.996c64.63-58.115,43.917-110.385,10.677-146.653
	c2.72-19.942-4.724-40.889-27.339-53.389c-11.179-6.179-22.13-8.105-32.217-6.93c-18.703,0.128-40.31-3.327-59.799-10.314
	c-26.592-18.906-24.846-36.977-2.948-48.72c32.736-3.136,65.125,7.253,90.723,20.497c2.383,1.807,4.985,3.512,7.836,5.087
	c31.043,17.158,59.515,2.445,73.295-21.117c25.94,6.27,49.475,29.895,64.689,58.448
	C593.956,266.116,550.414,234.658,502.963,230.187z"/>
</svg>
