<?xml version="1.0" encoding="utf-8"?>
<!-- Generator: Adobe Illustrator 17.0.0, SVG Export Plug-In . SVG Version: 6.00 Build 0)  -->
<!DOCTYPE svg PUBLIC "-//W3C//DTD SVG 1.1//EN" "http://www.w3.org/Graphics/SVG/1.1/DTD/svg11.dtd">
<svg version="1.1" id="Layer_1" xmlns="http://www.w3.org/2000/svg" xmlns:xlink="http://www.w3.org/1999/xlink" x="0px" y="0px"
	 width="612px" height="612px" viewBox="0 0 612 612" enable-background="new 0 0 612 612" xml:space="preserve">
<g transform="matrix(15 0 0 15 -524 -3284)">
	<path d="M55.333,220.208c-5.737,0-9.563,3.833-9.563,7.657c0,3.858,1.935,5.31,4.109,8.965c-0.277,3.783-0.299,8.912-0.299,15.875
		c1.242-4.141,2.242-7.327,3.063-9.675c1.152,3.568,2.15,8.412,2.689,15.427c0.54-7.015,1.537-11.859,2.689-15.427
		c0.821,2.348,1.821,5.534,3.063,9.675c0-7.006-0.017-12.161-0.299-15.95c2.162-3.616,4.109-5.051,4.109-8.89
		C64.896,224.041,61.071,220.208,55.333,220.208L55.333,220.208z M55.333,224.018c3.169,0,5.752,2.141,5.752,4.781
		c0,1.044-0.44,2.015-1.121,2.802c-0.804-2.686-2.183-3.735-4.632-3.735s-3.827,1.049-4.632,3.735
		c-0.681-0.786-1.121-1.758-1.121-2.802C49.581,226.159,52.165,224.018,55.333,224.018z"/>
</g>
</svg>
