<?xml version="1.0" encoding="utf-8"?>
<!-- Generator: Adobe Illustrator 17.0.0, SVG Export Plug-In . SVG Version: 6.00 Build 0)  -->
<!DOCTYPE svg PUBLIC "-//W3C//DTD SVG 1.1//EN" "http://www.w3.org/Graphics/SVG/1.1/DTD/svg11.dtd">
<svg version="1.1" id="Layer_1" xmlns="http://www.w3.org/2000/svg" xmlns:xlink="http://www.w3.org/1999/xlink" x="0px" y="0px"
	 width="613px" height="613px" viewBox="0 0 613 613" enable-background="new 0 0 613 613" xml:space="preserve">
<path d="M222.586,25.407h127.996C326.307,169.701,246.886,168.66,222.586,25.407z"/>
<path d="M474.573,393.549c0-85.825-84.541-129.714-136.789-180.141c-56.039-54.089,19.435-150.989,19.435-150.989l0.002-0.003
	h-14.906c-27.32,94.698-84.008,94.141-111.39,0h-11.241c0,0,68.913,96.823,13.455,152.486
	c-50.356,50.539-131.555,94.716-131.557,178.647c0,5.006-0.089,178.645-0.232,183.55l373.561,2.719
	C474.705,574.03,474.573,399.479,474.573,393.549z M300.583,248.501c14.651,0,26.528,11.877,26.528,26.528
	c0,14.651-11.877,26.528-26.528,26.528s-26.528-11.877-26.528-26.528C274.054,260.378,285.931,248.501,300.583,248.501z
	 M135.548,393.979c0-24.404,8.953-44.256,21.64-62.126h-0.001l0.002-0.002c0,0.001-0.001,0.001-0.001,0.002h151.854
	c6.318-7.309,15.65-11.941,26.071-11.941c10.421,0,19.753,4.632,26.071,11.941h57.786c12.691,17.75,21.641,37.757,21.642,62.128
	c0,7.935,0.286,146.03,0.65,153.639l-306.13-4.544C135.374,536.918,135.548,400.342,135.548,393.979z"/>
</svg>
