<?xml version="1.0" encoding="utf-8"?>
<!-- Generator: Adobe Illustrator 17.0.0, SVG Export Plug-In . SVG Version: 6.00 Build 0)  -->
<!DOCTYPE svg PUBLIC "-//W3C//DTD SVG 1.1//EN" "http://www.w3.org/Graphics/SVG/1.1/DTD/svg11.dtd">
<svg version="1.1" id="Layer_1" xmlns="http://www.w3.org/2000/svg" xmlns:xlink="http://www.w3.org/1999/xlink" x="0px" y="0px"
	 width="613px" height="613px" viewBox="0 0 613 613" enable-background="new 0 0 613 613" xml:space="preserve">
<path d="M282.798,295.984c3.081,15.914,1.975,99.804,1.975,99.804s-31.267-71.886-34.348-87.798s1.669-31.496,10.609-34.811
	c8.94-3.316,18.684,6.899,21.765,22.802L282.798,295.984z"/>
<path d="M325.942,297.629c-3.081,15.917-1.975,99.804-1.975,99.804s31.267-71.884,34.348-87.798s-1.669-31.496-10.609-34.811
	c-8.94-3.316-18.684,6.899-21.765,22.802L325.942,297.629z"/>
<path d="M323.189,226.424c-5.887-1.488-12.016-2.3-18.324-2.301c-7.693-0.001-15.122,1.192-22.161,3.375
	c-10.178,22.192-28.607,39.809-51.362,48.927c-4.095,10.345-6.366,21.728-6.366,33.685c0,47.5,79.892,279.97,79.892,279.97
	s79.892-232.478,79.89-279.97h0.003c0-11.398-2.08-22.268-5.822-32.222C354.018,269.152,333.82,250.384,323.189,226.424z"/>
<path d="M302.267,27.562c-118.583,0-214.715,70.468-214.715,157.398s96.131,157.398,214.715,157.398s214.715-70.471,214.715-157.398
	C516.981,98.03,420.85,27.562,302.267,27.562z M195.831,283.248c-52.76,0-95.529-42.771-95.529-95.53s42.769-95.53,95.529-95.53
	s95.529,42.768,95.529,95.53C291.359,240.477,248.59,283.248,195.831,283.248z M410.545,283.248
	c-52.76,0-95.529-42.771-95.529-95.53s42.769-95.53,95.529-95.53s95.529,42.768,95.529,95.53
	C506.073,240.477,463.304,283.248,410.545,283.248z"/>
<path d="M200.562,117.466c-37.598,0-68.08,30.484-68.08,68.082s30.481,68.08,68.08,68.08c37.598,0,68.08-30.481,68.08-68.08
	C268.641,147.948,238.16,117.466,200.562,117.466z M211.308,199.533c-12.417,0-22.483-10.066-22.483-22.483
	s10.066-22.484,22.483-22.484s22.483,10.066,22.483,22.484C233.792,189.467,223.725,199.533,211.308,199.533z"/>
<path d="M415.726,117.466c-37.598,0-68.08,30.484-68.08,68.082s30.481,68.08,68.08,68.08c37.598,0,68.08-30.481,68.08-68.08
	C483.805,147.948,453.324,117.466,415.726,117.466z M425.213,199.533c-12.417,0-22.483-10.066-22.483-22.483
	s10.066-22.484,22.483-22.484s22.483,10.066,22.483,22.484C447.696,189.467,437.63,199.533,425.213,199.533z"/>
</svg>
