<?xml version="1.0" encoding="utf-8"?>
<!-- Generator: Adobe Illustrator 17.0.0, SVG Export Plug-In . SVG Version: 6.00 Build 0)  -->
<!DOCTYPE svg PUBLIC "-//W3C//DTD SVG 1.1//EN" "http://www.w3.org/Graphics/SVG/1.1/DTD/svg11.dtd">
<svg version="1.1" id="Layer_1" xmlns="http://www.w3.org/2000/svg" xmlns:xlink="http://www.w3.org/1999/xlink" x="0px" y="0px"
	 width="613px" height="613px" viewBox="0 0 613 613" enable-background="new 0 0 613 613" xml:space="preserve">
<path d="M303.563,10.39c-130.162,0-235.682,132.448-235.682,295.828s105.521,295.828,235.682,295.828
	s235.682-132.448,235.682-295.828S433.724,10.39,303.563,10.39z M202.206,491.03c-28.041,0-50.773-22.933-50.773-51.222
	s22.732-51.222,50.773-51.222s50.773,22.933,50.773,51.222C252.979,468.097,230.247,491.03,202.206,491.03z M119.991,217.705
	c0-102.555,83.136-185.691,185.691-185.691s185.691,83.136,185.691,185.691s-83.135,185.691-185.691,185.691
	S119.991,320.259,119.991,217.705z M400.045,491.03c-28.041,0-50.773-22.933-50.773-51.222s22.732-51.222,50.773-51.222
	s50.773,22.933,50.773,51.222C450.817,468.097,428.086,491.03,400.045,491.03z"/>
<path d="M509.235,450.739c-6.976,15.607-15.035,30.347-24.07,44.04c27.914-11.544,52.244-26.217,71.036-44.04H509.235z"/>
<path d="M97.891,450.739H55.088c17.427,16.529,39.704,30.372,65.243,41.519C111.957,479.28,104.443,465.396,97.891,450.739z"/>
<path d="M306.097,355.94l-119.198-69.501l-0.439-138.24l118.755-68.737l119.198,69.501l0.439,138.24L306.097,355.94z"/>
</svg>
