<?xml version="1.0" encoding="utf-8"?>
<!-- Generator: Adobe Illustrator 17.0.0, SVG Export Plug-In . SVG Version: 6.00 Build 0)  -->
<!DOCTYPE svg PUBLIC "-//W3C//DTD SVG 1.1//EN" "http://www.w3.org/Graphics/SVG/1.1/DTD/svg11.dtd">
<svg version="1.1" id="Layer_1" xmlns="http://www.w3.org/2000/svg" xmlns:xlink="http://www.w3.org/1999/xlink" x="0px" y="0px"
	 width="613px" height="613px" viewBox="0 0 613 613" enable-background="new 0 0 613 613" xml:space="preserve">
<path d="M299.6,445.989l-57.703,99.945L37.342,427.835l57.703-99.945L299.6,445.989z"/>
<path d="M427.462,91.414l-29.869,111.474l-228.151-61.133l29.869-111.474L427.462,91.414z"/>
<path d="M376.183,272.986l-44.112,106.643l-218.263-90.282l44.112-106.643L376.183,272.986z"/>
<path d="M429.636,117.335l-17.293,64.538c65.45,17.108,124.708,25.327,182.72,13.684
	C550.193,156.069,495.251,135.251,429.636,117.335z"/>
<path d="M376.313,299.607l-25.531,61.721c62.138,25.147,119.413,40.745,178.011,36.773
	C489.726,353.442,438.424,325.735,376.313,299.607z"/>
<path d="M264.721,531.302c57.595,32.491,111.779,55.003,169.755,58.703c-32.522-48.856-79.091-82.837-136.379-116.512
	L264.721,531.302z"/>
</svg>
