<?xml version="1.0" encoding="utf-8"?>
<!-- Generator: Adobe Illustrator 17.0.0, SVG Export Plug-In . SVG Version: 6.00 Build 0)  -->
<!DOCTYPE svg PUBLIC "-//W3C//DTD SVG 1.1//EN" "http://www.w3.org/Graphics/SVG/1.1/DTD/svg11.dtd">
<svg version="1.1" id="Layer_1" xmlns="http://www.w3.org/2000/svg" xmlns:xlink="http://www.w3.org/1999/xlink" x="0px" y="0px"
	 width="613px" height="613px" viewBox="0 0 613 613" enable-background="new 0 0 613 613" xml:space="preserve">
<path d="M423.043,294.241l-100.247,60.75L222.56,294.233l-0.002,180.984l100.243,56.52l100.245-56.52L423.043,294.241z"/>
<path d="M557.99,164.423c7.151,30.282-7.32,91.774-40.464,112.389c5.975-69.059-4.682-168.478-43.86-205.04
	c38.992,206.554-111.153,181.941-57.799,118.982c35.275-41.626-0.228-122.514-20.943-134.318
	c13.021,50.349-17.018,83.293-65.401,73.443c-32.577-6.629-53.47-53.733-14.181-107.647l0.005-0.005
	c-60.227,15.241-96.447,79.26-60.735,132.922c26.867,40.372,53.735,73.116,10.445,94.506
	c-27.914,13.795-59.787-19.666-55.123-58.904c5.752-48.391-22.374-95.537-55.15-105.411c55.268,127.207-51.947,211.563-29.32,92.147
	c-36.2,19.238-39.2,70.569-13.461,146.712c-48.256-20.558-65.807-79.83-45.743-144.133C23.39,213.95,2.554,336.535,48.782,399.368
	c114.287,155.34,247.848,193.92,271.567,193.92c25.274,0,140.252-40.301,226.624-137.61
	C596.917,399.413,607.843,253.783,557.99,164.423z M456.749,479.09l-133.952,72.743L188.85,479.09V274.993l267.899,0.022V479.09z"/>
</svg>
