<?xml version="1.0" encoding="utf-8"?>
<!-- Generator: Adobe Illustrator 17.0.0, SVG Export Plug-In . SVG Version: 6.00 Build 0)  -->
<!DOCTYPE svg PUBLIC "-//W3C//DTD SVG 1.1//EN" "http://www.w3.org/Graphics/SVG/1.1/DTD/svg11.dtd">
<svg version="1.1" id="Layer_1" xmlns="http://www.w3.org/2000/svg" xmlns:xlink="http://www.w3.org/1999/xlink" x="0px" y="0px"
	 width="613px" height="613px" viewBox="0 0 613 613" enable-background="new 0 0 613 613" xml:space="preserve">
<path d="M558,397.586l25.596-1.652c-13.283-10.451-25.975-19.23-36.907-43.4c-6.631-30.476-17.027-59.148-64.198-68.727
	c2.132,3.07,4.111,6.168,5.98,9.28c-10.244-3.728-20.869-3.73-31.819-0.575c0.003-0.516,0.014-1.03,0.014-1.547
	c0-22.677-2.692-44.493-7.65-64.9c18.28,3.17,34.137-0.017,46.875-11.391c-0.494,3.776-1.106,7.627-1.854,11.557
	c33.799-24.089,39.195-45.531,38.017-66.674c4.308-26.169,14.295-37.934,24.418-51.466l-29.055,5.812
	c0.327-13.394,4.006-27.302,16.026-42.262c-85.166,6.432-42.546,47.145-46.03,125.589l-52.61,13.535
	c-14.548-46.952-41.489-85.005-75.222-106.562c1.99-1.391,3.86-2.852,5.619-4.368c7.806,8.16,18.794,13.25,30.978,13.25
	c23.68,0,42.877-19.195,42.877-42.876c0-23.683-19.197-42.878-42.877-42.878c-10.613,0-20.319,3.865-27.807,10.253
	c-15.38-15.221-42.229-25.314-72.802-25.314c-30.566,0-57.408,10.087-72.79,25.301c-7.486-6.381-17.186-10.24-27.793-10.24
	c-23.68,0-42.877,19.197-42.877,42.878c0,23.681,19.197,42.876,42.877,42.876c12.177,0,23.161-5.085,30.966-13.237
	c1.757,1.513,3.625,2.971,5.611,4.359c-33.782,21.59-60.748,59.726-75.279,106.775l-53.456-13.753
	c-3.484-78.444,39.136-119.157-46.03-125.589c11.95,14.872,15.653,28.705,16.018,42.027l-27.881-5.577
	c9.522,12.73,18.926,23.893,23.594,46.957c-2.147,22.615,1.472,45.381,37.675,71.183c-0.748-3.93-1.359-7.782-1.854-11.558
	c12.958,11.572,29.148,14.661,47.829,11.214c-4.986,20.458-7.692,42.336-7.692,65.079c0,0.607,0.013,1.21,0.017,1.816
	c-11.272-3.422-22.204-3.526-32.732,0.305c1.869-3.112,3.848-6.209,5.98-9.279c-49.009,9.952-58.321,40.515-64.958,72.297
	c-10.544,21.498-22.619,29.91-35.227,39.83l24.698,1.594c-5.612,14.069-14.461,26.401-30.765,34.785
	c79.637,28.484,57.088-46.237,90.432-120.365l43.364,0.433c2.203,29.123,8.852,56.445,19.002,80.686
	c-20.694,5.72-35.319,16.379-41.834,33.639c-26.965,27.83-14.702,46.039,9.112,68.553c7.88,22.841,5.277,37.393,3.366,53.394
	l23.707-20.828c4.198,17.424,2.081,29.952,0.46,43.524l25.989-22.836c8.343,10.464,16.074,22.193,22.387,35.594
	c27.309-81.512-56.779-91.89-72.931-144.746l35.118-34.425c27.068,55.548,73.349,92.165,125.904,92.165
	c52.364,0,98.503-36.35,125.611-91.559l34.5,33.819c-16.153,52.855-100.24,63.234-72.931,144.746
	c6.209-13.179,13.79-24.74,21.974-35.073l25.397,22.315c-1.62-13.573-3.738-26.101,0.461-43.525l23.707,20.828
	c-1.872-15.676-4.408-29.96,2.898-52.009c24.77-23.159,38.1-41.54,10.585-69.938c-6.43-17.033-20.748-27.646-41.014-33.419
	c10.203-24.298,16.884-51.701,19.093-80.915l42.453-0.424c33.344,74.128,10.795,148.849,90.432,120.365
	C572.461,423.94,563.614,411.631,558,397.586z M211.132,366.5l-12.326-181.104l27.555-9.498L211.132,366.5z M259.306,431.855
	l-12.15-266.873l27.16-13.992L259.306,431.855z M356.087,431.855l-15.01-280.864l27.16,13.992L356.087,431.855z M389.031,175.898
	l27.555,9.498L404.26,366.5L389.031,175.898z"/>
</svg>
