<?xml version="1.0" encoding="utf-8"?>
<!-- Generator: Adobe Illustrator 17.0.0, SVG Export Plug-In . SVG Version: 6.00 Build 0)  -->
<!DOCTYPE svg PUBLIC "-//W3C//DTD SVG 1.1//EN" "http://www.w3.org/Graphics/SVG/1.1/DTD/svg11.dtd">
<svg version="1.1" id="Layer_1" xmlns="http://www.w3.org/2000/svg" xmlns:xlink="http://www.w3.org/1999/xlink" x="0px" y="0px"
	 width="613px" height="613px" viewBox="0 0 613 613" enable-background="new 0 0 613 613" xml:space="preserve">
<path d="M566.522,49.963c-57.503,128.134-149.497,123.958-241.829,77.697l22.591-32.369c-14.831-22.439-41.827-38.704-66.757-46.004
	l-25.154,36.83c-21.031-14.374-41.613-29.796-61.317-45.13l-0.004,0.004c-2.371,3.612-4.574,7.105-6.633,10.499
	C146.805,28.533,93.15,18.328,32.825,18.328c59.749,24.131,106.624,56.163,127.596,110.658c-1.215,16.563-0.185,33.318-0.185,53.762
	c7.1,3.931,14.007,8.058,20.697,12.362L24.593,424.016l0.003,0.003l0.958,132.254l216.453-310.139
	c64.4,71.297,72.48,163.457-41.282,235.249c62.09,18.072,119.981,19.001,171.729,6.981l10.472-66.319l44.309,46.172
	c36.7-21.032,90.809-59.81,114.821-94.361l-38.362-66.299l65.62,18.15C609.582,263.813,613.9,129.645,566.522,49.963z"/>
</svg>
