<?xml version="1.0" encoding="utf-8"?>
<!-- Generator: Adobe Illustrator 17.0.0, SVG Export Plug-In . SVG Version: 6.00 Build 0)  -->
<!DOCTYPE svg PUBLIC "-//W3C//DTD SVG 1.1//EN" "http://www.w3.org/Graphics/SVG/1.1/DTD/svg11.dtd">
<svg version="1.1" id="Layer_1" xmlns="http://www.w3.org/2000/svg" xmlns:xlink="http://www.w3.org/1999/xlink" x="0px" y="0px"
	 width="613px" height="613px" viewBox="0 0 613 613" enable-background="new 0 0 613 613" xml:space="preserve">
<g>
	<path d="M308.373,32.293c-149.935,0-271.488,121.554-271.488,271.493s121.548,271.488,271.488,271.488
		S579.86,453.725,579.86,303.787S458.308,32.293,308.373,32.293z M466.353,478.215c41.557-61.128,49.236-147.091,17.426-227.471
		c-11.888,24.758-37.193,41.852-66.493,41.852c-40.714,0-73.72-33.005-73.72-73.719c0-23.238,10.763-43.952,27.564-57.464
		c-11.032-5.302-18.944-16.06-20.238-28.776c-6.062,7.151-15.105,11.695-25.214,11.695c-18.251,0-33.047-14.795-33.047-33.046
		c0-10.891,5.271-20.549,13.399-26.57c-19.036-5.215-38.388-7.862-57.553-7.763c19.855-5.467,40.76-8.403,62.353-8.403
		c129.43,0,234.359,104.931,234.359,234.364C545.189,372.664,514.708,435.284,466.353,478.215z"/>
</g>
</svg>
