<?xml version="1.0" encoding="utf-8"?>
<!-- Generator: Adobe Illustrator 17.0.0, SVG Export Plug-In . SVG Version: 6.00 Build 0)  -->
<!DOCTYPE svg PUBLIC "-//W3C//DTD SVG 1.1//EN" "http://www.w3.org/Graphics/SVG/1.1/DTD/svg11.dtd">
<svg version="1.1" id="Layer_1" xmlns="http://www.w3.org/2000/svg" xmlns:xlink="http://www.w3.org/1999/xlink" x="0px" y="0px"
	 width="613px" height="613px" viewBox="0 0 613 613" enable-background="new 0 0 613 613" xml:space="preserve">
<path d="M484.107,415.23c0,97.759-79.239,176.999-177,176.999c-97.76,0-177-79.239-177-176.999s79.239-176.999,177-176.999
	S484.107,317.471,484.107,415.23z"/>
<path d="M187.202,157.03c29.988,20.453,46.209,70.48,39.542,100.455c12.153-6.203,25.122-11.034,38.698-14.309
	c-22.836-18.041-37.474-65.059-20.511-98.107c15.81-30.78-12.503-63.428-43.769-53.971
	C164.832,102.087,167.654,143.705,187.202,157.03z"/>
<path d="M336.119,240.611c20.335,3.353,39.499,10.169,56.87,19.826c-14.07-41.855,5.302-113.729,54.452-143.139
	c28.743-17.194,35.284-78.977-16.147-94.545c-44.255-13.4-83.762,32.536-61.971,76.399
	C395.389,151.643,373.414,217.368,336.119,240.611z"/>
<path d="M137.504,364.479c9.975-33.384,29.531-62.626,55.485-84.539c-36.217-40.47-58.353-97.04-62.283-154.421
	c-4.84-70.532-61.28-87.5-93.742-65.093C4.876,82.573-3.608,143.477,60.904,182.088
	C122.352,218.852,150.126,297.183,137.504,364.479z"/>
<path d="M565.16,145.348c-39.508-18.257-98.209,13.962-98.694,74.045c-0.225,28.023-10.503,54.548-29.592,75.478
	c23.201,25.002,39.261,56.715,44.947,91.911c-6.804-62.572,0.092-96.955,37.589-107.212
	C633.392,248.415,612.031,167.009,565.16,145.348z"/>
</svg>
