<?xml version="1.0" encoding="utf-8"?>
<!-- Generator: Adobe Illustrator 17.0.0, SVG Export Plug-In . SVG Version: 6.00 Build 0)  -->
<!DOCTYPE svg PUBLIC "-//W3C//DTD SVG 1.1//EN" "http://www.w3.org/Graphics/SVG/1.1/DTD/svg11.dtd">
<svg version="1.1" id="Layer_1" xmlns="http://www.w3.org/2000/svg" xmlns:xlink="http://www.w3.org/1999/xlink" x="0px" y="0px"
	 width="613px" height="613px" viewBox="0 0 613 613" enable-background="new 0 0 613 613" xml:space="preserve">
<path d="M307.887,169.431c-77.291,0-139.94,62.665-139.94,139.958s62.655,139.95,139.94,139.95s139.934-62.657,139.934-139.95
	C447.821,232.088,385.178,169.431,307.887,169.431z M310.524,354.598c-26.375,0-47.753-21.38-47.753-47.758
	s21.378-47.754,47.753-47.754s47.753,21.38,47.753,47.754C358.277,333.218,336.899,354.598,310.524,354.598z"/>
<g>
	<path d="M326.979,354.885c-0.201-0.995-0.411-1.989-0.632-2.982c-4.953,1.739-10.275,2.695-15.823,2.695
		c-26.375,0-47.753-21.38-47.753-47.758c0-14.498,6.467-27.475,16.663-36.232c-0.762-0.7-1.53-1.391-2.304-2.074
		c-10.56,9.319-17.228,22.946-17.228,38.14c0,28.095,22.769,50.866,50.861,50.866C316.436,357.541,321.885,356.598,326.979,354.885z
		"/>
	<path d="M307.955,458.448c-14.435,0-28.388-2.06-41.589-5.888c-10.586,28.076-30.586,52.802-58.619,68.989
		c-20.124,11.62-42.129,17.099-63.829,17.659c35.577,6.781,73.985,2.078,107.81-17.464c26.813-15.483,47.316-37.738,60.611-63.365
		C310.882,458.421,309.422,458.448,307.955,458.448z"/>
	<path d="M182.066,229.56c-29.432-1.678-59.655,4.904-87.05,20.724c-33.789,19.508-57.495,49.798-69.423,83.959
		c11.336-18.515,27.483-34.149,47.602-45.769c28.44-16.421,60.357-21.286,90.336-16.059
		C167.456,257.033,173.776,242.609,182.066,229.56z"/>
</g>
<g>
	<path d="M350.306,452.333c-13.426,3.973-27.637,6.115-42.351,6.115c-1.179,0-2.354-0.017-3.526-0.045
		c13.293,25.628,33.8,47.883,60.615,63.366c33.822,19.542,72.233,24.245,107.812,17.464c-21.71-0.557-43.712-6.036-63.831-17.656
		C380.907,505.34,360.868,480.513,350.306,452.333z"/>
	<path d="M358.276,306.839c0,26.378-21.378,47.758-47.753,47.758c-7.038,0-13.714-1.535-19.729-4.269
		c-0.222,0.949-0.432,1.9-0.635,2.851c6.3,2.796,13.268,4.362,20.605,4.362c28.092,0,50.861-22.772,50.861-50.866
		c0-16.317-7.692-30.828-19.638-40.135c-0.876,0.742-1.747,1.493-2.608,2.256C350.859,277.516,358.276,291.309,358.276,306.839z"/>
	<path d="M521.745,250.317c-27.643-15.964-58.166-22.516-87.849-20.671c8.293,13.075,14.607,27.529,18.52,42.942
		c30.216-5.461,62.454-0.661,91.153,15.911c20.12,11.626,36.263,27.26,47.597,45.778
		C579.24,300.115,555.534,269.825,521.745,250.317z"/>
</g>
<g>
	<path d="M410.786,201.48c11.279,10.755,20.87,23.261,28.345,37.082c16.544-24.839,26.197-54.646,26.197-86.68
		c-0.001-39.063-15.123-74.69-38.781-102.113c10.361,19.081,16.619,40.88,16.619,64.117
		C443.166,147.352,430.971,177.946,410.786,201.48z"/>
	<path d="M205.865,200.791c-19.835-23.441-31.797-53.763-31.797-86.905c0-23.24,5.465-45.039,15.829-64.117
		c-23.615,27.414-37.99,63.091-37.99,102.113c0,31.565,9.373,60.967,25.475,85.585C184.932,223.784,194.569,211.417,205.865,200.791
		z"/>
	<path d="M310.764,255.812c-26.161,0-47.697,19.749-50.534,45.155c0.931,0.303,1.865,0.599,2.803,0.885
		c2.494-24.032,22.803-42.765,47.493-42.765c24.287,0,44.323,18.134,47.344,41.599c1.089-0.361,2.171-0.737,3.25-1.121
		C357.66,274.842,336.441,255.812,310.764,255.812z"/>
</g>
</svg>
