<?xml version="1.0" encoding="utf-8"?>
<!-- Generator: Adobe Illustrator 17.0.0, SVG Export Plug-In . SVG Version: 6.00 Build 0)  -->
<!DOCTYPE svg PUBLIC "-//W3C//DTD SVG 1.1//EN" "http://www.w3.org/Graphics/SVG/1.1/DTD/svg11.dtd">
<svg version="1.1" id="Layer_1" xmlns="http://www.w3.org/2000/svg" xmlns:xlink="http://www.w3.org/1999/xlink" x="0px" y="0px"
	 width="613px" height="613px" viewBox="0 0 613 613" enable-background="new 0 0 613 613" xml:space="preserve">
<path d="M296.828,465.586c78.017,72.002,181.213,118.588,294.732,123.922c-5.156-113.788-51.953-216.728-123.928-294.739
	c9.452,37.549,14.138,78.44,13.019,122.082c-6.686-6.726-13.395-13.453-20.167-20.227c-18.669-18.669-37.523-37.185-56.491-55.485
	l31.848-63.931l-64.928,32.345c-22.292-21.062-44.685-41.769-67.068-62.017l30.25-60.723L271.07,218.21
	c-22.341-19.768-44.617-39.024-66.716-57.656l25.629-51.446l-54.674,27.237c-20.388-16.798-40.58-33.016-60.488-48.568l21.84-43.841
	L88.855,67.751C67.578,51.555,46.679,36.182,26.276,21.753c14.362,20.287,29.65,41.041,45.742,62.151l-24.494,49.168l45.12-22.477
	c15.359,19.611,31.36,39.486,47.929,59.548l-28.168,56.543l53.258-26.531c18.138,21.441,36.869,43.046,56.089,64.718l-34.034,68.318
	l65.893-32.826c19.84,21.84,40.125,43.695,60.757,65.47l-32.606,65.452l64.507-32.135c25.799,26.667,52.046,53.136,78.562,79.226
	C378.979,480.098,335.978,475.529,296.828,465.586z"/>
</svg>
