<?xml version="1.0" encoding="utf-8"?>
<!-- Generator: Adobe Illustrator 17.0.0, SVG Export Plug-In . SVG Version: 6.00 Build 0)  -->
<!DOCTYPE svg PUBLIC "-//W3C//DTD SVG 1.1//EN" "http://www.w3.org/Graphics/SVG/1.1/DTD/svg11.dtd">
<svg version="1.1" id="Layer_1" xmlns="http://www.w3.org/2000/svg" xmlns:xlink="http://www.w3.org/1999/xlink" x="0px" y="0px"
	 width="613px" height="613px" viewBox="0 0 613 613" enable-background="new 0 0 613 613" xml:space="preserve">
<g>
	<path d="M569.009,423.566c21.423-59.488,14.108-120.815-25.073-159.997c-12.273-12.271-27.224-21.485-43.103-27.602
		c30.666,40.918,32.091,100.257,7.011,155.763c1.549-3.428,2.998-6.87,4.344-10.321l-54.031-40.086
		c18.845-50.02,13.143-101.959-19.839-134.941c-10.162-10.158-22.54-17.79-35.686-22.849c24.27,32.377,26.42,78.691,8.431,122.849
		l-44.769-33.215c-0.002,0.004-0.003,0.008-0.005,0.012c17.308-42.901,13.022-87.982-15.332-116.334
		c-8.513-8.513-18.881-14.905-29.894-19.146c22.724,30.323,22.297,75.231,1.03,115.895c1.688-3.229,3.246-6.484,4.671-9.756
		l-44.29-32.86c13.195-33.513,9.674-68.572-12.453-90.703c-6.706-6.703-14.875-11.742-23.549-15.085
		c17.718,23.643,17.557,58.536,1.312,90.307c1.288-2.52,2.478-5.06,3.563-7.612l-44.987-33.377
		c12.879-28.06,10.884-58.315-7.782-76.976c-5.33-5.32-11.806-9.334-18.7-11.982c13.851,18.48,13.951,45.621,1.645,70.532
		l-36.452-27.045c-0.004,0.007-0.008,0.014-0.011,0.02c12.435-23.136,11.728-49.088-3.866-64.684
		c-4.171-4.159-9.248-7.297-14.634-9.378c11.649,15.546,10.87,38.92-1.036,59.54L90.097,68.253c0.925-3.118,1.429-6.417,1.429-9.835
		c0-19.084-15.471-34.555-34.554-34.555S22.418,39.337,22.418,58.418s15.471,34.551,34.554,34.551c3.263,0,6.415-0.462,9.408-1.307
		l25.558,34.668c-19.62,9.862-41.081,9.873-55.657-1.054l-0.002,0.005c2.075,5.391,5.205,10.469,9.373,14.635
		c14.742,14.743,38.722,16.168,60.85,5.782c-0.07,0.033-0.139,0.07-0.209,0.103l27.535,37.35
		c-24.575,11.709-51.139,11.394-69.32-2.231l-0.004,0.004c2.656,6.888,6.657,13.375,11.978,18.701
		c18.374,18.375,47.971,20.578,75.654,8.36l34.146,46.317c1.543-0.697,3.081-1.436,4.612-2.207
		c-31.609,15.94-66.211,15.986-89.705-1.621l-0.003,0.002c3.34,8.68,8.379,16.847,15.083,23.555
		c22.644,22.644,58.826,25.802,93.037,11.504l31.729,43.037c1.057-0.444,2.111-0.905,3.164-1.376
		c-38.356,17.17-79.286,16.101-107.547-5.077c4.24,11.011,10.632,21.376,19.138,29.886c27.926,27.928,72.078,32.51,114.393,16.105
		l33.058,44.842c1.439-0.565,2.876-1.151,4.311-1.758c-44.819,18.977-92.147,17.165-125.072-7.509
		c5.06,13.15,12.69,25.525,22.85,35.685c32.477,32.479,83.335,38.511,132.643,20.695l39.905,54.129
		c1.644-0.617,3.285-1.263,4.924-1.926c-53.183,21.506-108.893,18.831-147.882-10.388v0.003h0
		c6.114,15.879,15.329,30.833,27.602,43.104c38.585,38.581,98.64,46.259,157.269,26.027c-0.006,0.002-0.013,0.005-0.019,0.007
		l14.07,19.085H587.42v-152.88L569.009,423.566z M566.885,429.207c-0.09,0.229-0.183,0.458-0.274,0.687
		C566.702,429.665,566.795,429.436,566.885,429.207z M564.603,434.798c-0.115,0.271-0.228,0.543-0.344,0.814
		C564.376,435.34,564.489,435.069,564.603,434.798z M559.253,446.505c-0.162,0.33-0.326,0.659-0.49,0.989
		C558.926,447.165,559.091,446.835,559.253,446.505z M556.311,452.287c-0.106,0.201-0.208,0.403-0.315,0.604
		C556.102,452.69,556.205,452.488,556.311,452.287z M553.046,458.284c-0.122,0.217-0.25,0.433-0.373,0.65
		C552.797,458.717,552.924,458.501,553.046,458.284z M549.989,463.537c-0.224,0.376-0.449,0.751-0.676,1.126
		C549.54,464.288,549.765,463.912,549.989,463.537z M542.717,474.972c-0.254,0.376-0.514,0.751-0.77,1.127
		C542.204,475.723,542.463,475.349,542.717,474.972z M539.072,480.214c-0.262,0.367-0.521,0.735-0.785,1.101
		C538.551,480.949,538.81,480.581,539.072,480.214z M534.6,486.298c-0.136,0.179-0.277,0.356-0.414,0.535
		C534.323,486.654,534.464,486.477,534.6,486.298z M530.786,491.178c-0.349,0.437-0.701,0.873-1.054,1.308
		C530.085,492.051,530.437,491.615,530.786,491.178z M526.412,496.5c-0.237,0.281-0.469,0.564-0.708,0.845
		C525.943,497.065,526.175,496.781,526.412,496.5z M463.682,456.671c-1.309,1.37-2.63,2.734-3.979,4.083
		c-1.386,1.386-2.787,2.743-4.195,4.086c1.408-1.343,2.809-2.7,4.194-4.086C461.051,459.405,462.374,458.041,463.682,456.671z
		 M507.716,392.015c-1.543,3.402-3.184,6.789-4.925,10.156C504.532,398.804,506.173,395.416,507.716,392.015z M502.674,402.394
		c-0.826,1.593-1.675,3.182-2.546,4.766C500.999,405.576,501.848,403.987,502.674,402.394z M499.928,407.527
		c-1.798,3.257-3.691,6.492-5.676,9.702C496.236,414.019,498.13,410.784,499.928,407.527z M493.811,417.939
		c-0.942,1.511-1.901,3.017-2.884,4.516C491.91,420.957,492.869,419.451,493.811,417.939z M490.809,422.638
		c-1.038,1.58-2.101,3.152-3.185,4.717C488.707,425.79,489.771,424.218,490.809,422.638z M487.152,428.028
		c-0.917,1.314-1.85,2.622-2.799,3.925C485.301,430.65,486.235,429.342,487.152,428.028z M483.694,432.856
		c-2.193,2.98-4.471,5.929-6.832,8.844C479.223,438.785,481.502,435.836,483.694,432.856z M475.992,442.766
		c-0.99,1.208-1.994,2.409-3.013,3.604C473.998,445.175,475.002,443.974,475.992,442.766z M472.331,447.135
		c-1.216,1.414-2.453,2.819-3.709,4.215C469.878,449.954,471.115,448.549,472.331,447.135z M467.823,452.225
		c-1.026,1.128-2.065,2.25-3.117,3.365C465.758,454.475,466.797,453.353,467.823,452.225z M452.163,355.427
		c0.016-0.033,0.031-0.065,0.046-0.098C452.194,355.361,452.179,355.394,452.163,355.427z M454.448,465.843
		c-1.225,1.155-2.457,2.295-3.698,3.418C451.991,468.138,453.223,466.998,454.448,465.843z M450.132,469.825
		c-1.43,1.285-2.87,2.545-4.32,3.788C447.262,472.37,448.703,471.109,450.132,469.825z M444.826,474.448
		c-1.207,1.024-2.421,2.033-3.641,3.028C442.405,476.482,443.619,475.472,444.826,474.448z M440.245,478.243
		c-1.475,1.19-2.958,2.36-4.45,3.507C437.287,480.603,438.77,479.433,440.245,478.243z M435.072,482.297
		c-1.29,0.984-2.586,1.95-3.889,2.902C432.486,484.247,433.782,483.281,435.072,482.297z M430.115,485.978
		c-1.532,1.107-3.07,2.198-4.618,3.26C427.045,488.176,428.583,487.084,430.115,485.978z M425.492,489.242
		c-1.534,1.053-3.077,2.076-4.625,3.085C422.415,491.318,423.958,490.294,425.492,489.242z M419.796,493.021
		c-1.441,0.928-2.887,1.841-4.339,2.732C416.909,494.862,418.355,493.949,419.796,493.021z M415.093,495.978
		c-1.589,0.97-3.186,1.914-4.787,2.839C411.908,497.892,413.504,496.949,415.093,495.978z M415.136,408.894
		c0.318-0.333,0.631-0.668,0.946-1.003C415.766,408.226,415.453,408.561,415.136,408.894z M418.756,404.999
		c0.298-0.328,0.598-0.655,0.893-0.985C419.354,404.344,419.054,404.671,418.756,404.999z M426.263,396.274
		c0.253-0.311,0.502-0.623,0.753-0.935C426.765,395.651,426.516,395.963,426.263,396.274z M429.552,392.124
		c0.215-0.279,0.433-0.556,0.647-0.836C429.985,391.568,429.768,391.845,429.552,392.124z M436.175,383.066
		c0.162-0.235,0.322-0.471,0.483-0.706C436.497,382.595,436.338,382.831,436.175,383.066z M439.135,378.652
		c0.114-0.175,0.23-0.349,0.343-0.524C439.365,378.303,439.249,378.477,439.135,378.652z M444.822,369.403
		c0.077-0.133,0.152-0.265,0.228-0.398C444.974,369.138,444.898,369.271,444.822,369.403z M447.427,364.752
		c0.027-0.05,0.055-0.101,0.083-0.151C447.482,364.651,447.454,364.702,447.427,364.752z M368.581,369.635
		c1.088-1.088,2.156-2.188,3.213-3.293C370.737,367.447,369.67,368.547,368.581,369.635c-1.117,1.118-2.246,2.213-3.381,3.296
		C366.335,371.848,367.464,370.752,368.581,369.635z M411.06,306.391c-1.698,4.166-3.574,8.313-5.629,12.427
		C407.485,314.704,409.362,310.557,411.06,306.391z M405.381,318.919c-2.027,4.054-4.227,8.075-6.598,12.052
		C401.152,326.994,403.354,322.973,405.381,318.919z M398.575,331.318c-1.566,2.614-3.204,5.21-4.918,7.781
		C395.371,336.528,397.01,333.933,398.575,331.318z M393.435,339.43c-0.76,1.136-1.535,2.266-2.324,3.392
		C391.899,341.696,392.675,340.565,393.435,339.43z M390.684,343.431c-1.742,2.467-3.551,4.91-5.43,7.326
		C387.133,348.341,388.943,345.898,390.684,343.431z M384.739,351.412c-0.768,0.979-1.547,1.953-2.338,2.922
		C383.192,353.365,383.971,352.391,384.739,351.412z M381.741,355.143c-1.916,2.325-3.896,4.622-5.941,6.889
		C377.845,359.765,379.825,357.468,381.741,355.143z M375.039,362.866c-0.799,0.876-1.608,1.746-2.426,2.612
		C373.431,364.612,374.24,363.741,375.039,362.866z M407.747,416.278c-0.332,0.316-0.665,0.628-0.998,0.941
		C407.082,416.906,407.415,416.593,407.747,416.278z M403.656,420.072c-0.285,0.258-0.568,0.519-0.854,0.774
		C403.088,420.59,403.371,420.329,403.656,420.072z M398.874,424.279c-0.196,0.167-0.394,0.329-0.591,0.495
		C398.48,424.608,398.678,424.446,398.874,424.279z M394.857,427.609c-0.344,0.279-0.689,0.557-1.035,0.833
		C394.168,428.166,394.513,427.888,394.857,427.609z M390.234,431.252c-0.155,0.119-0.309,0.241-0.464,0.359
		C389.926,431.492,390.079,431.37,390.234,431.252z M385.635,434.672c-0.286,0.206-0.573,0.408-0.859,0.613
		C385.062,435.08,385.349,434.879,385.635,434.672z M381.354,437.678c-0.317,0.217-0.633,0.435-0.951,0.65
		C380.721,438.113,381.037,437.895,381.354,437.678z M371.906,443.77c-0.319,0.193-0.639,0.384-0.959,0.576
		C371.266,444.154,371.586,443.964,371.906,443.77z M363.07,280.597c-0.004,0.008-0.008,0.016-0.012,0.025
		C363.063,280.614,363.066,280.606,363.07,280.597z M361.378,284.119c-0.058,0.117-0.115,0.233-0.174,0.35
		C361.262,284.353,361.32,284.236,361.378,284.119z M359.421,287.949c-0.006,0.012-0.013,0.025-0.019,0.037
		C359.408,287.974,359.414,287.961,359.421,287.949z M355.415,295.091c-0.092,0.155-0.186,0.31-0.279,0.465
		C355.229,295.401,355.323,295.247,355.415,295.091z M353.331,298.505c-0.13,0.208-0.259,0.415-0.39,0.622
		C353.071,298.92,353.201,298.712,353.331,298.505z M350.92,302.249c-0.051,0.078-0.101,0.156-0.153,0.233
		C350.819,302.404,350.869,302.326,350.92,302.249z M348.428,305.906c-0.072,0.103-0.147,0.206-0.22,0.309
		C348.28,306.112,348.355,306.009,348.428,305.906z M346.119,309.115c-0.211,0.286-0.424,0.571-0.637,0.857
		C345.695,309.686,345.908,309.401,346.119,309.115z M343.654,312.38c-0.227,0.294-0.453,0.589-0.682,0.882
		C343.201,312.969,343.427,312.674,343.654,312.38z M340.738,316.058c-0.096,0.118-0.19,0.238-0.286,0.356
		C340.548,316.296,340.642,316.176,340.738,316.058z M328.534,329.563c-0.004,0.004-0.008,0.008-0.012,0.012
		c-0.003,0.003-0.007,0.007-0.01,0.01c0.003-0.003,0.007-0.007,0.01-0.01C328.526,329.571,328.53,329.567,328.534,329.563z
		 M337.841,319.521c-0.233,0.271-0.471,0.54-0.706,0.81C337.37,320.061,337.608,319.792,337.841,319.521z M335.146,322.581
		c-0.305,0.34-0.613,0.678-0.922,1.016C334.533,323.259,334.841,322.921,335.146,322.581z M332.267,325.706
		c-0.293,0.31-0.583,0.622-0.878,0.931C331.684,326.328,331.974,326.016,332.267,325.706z M364.343,373.742
		c-0.932,0.88-1.87,1.749-2.813,2.607C362.473,375.492,363.411,374.622,364.343,373.742z M360.837,376.981
		c-1.164,1.049-2.336,2.081-3.515,3.096C358.502,379.062,359.673,378.03,360.837,376.981z M356.816,380.506
		c-1.025,0.876-2.057,1.738-3.094,2.588C354.759,382.244,355.791,381.381,356.816,380.506z M352.893,383.771
		c-1.166,0.946-2.338,1.88-3.518,2.794C350.556,385.651,351.727,384.717,352.893,383.771z M349.31,386.617
		c-1.247,0.965-2.503,1.908-3.764,2.837C346.807,388.525,348.063,387.582,349.31,386.617z M344.896,389.927
		c-1.083,0.791-2.171,1.568-3.264,2.332C342.726,391.495,343.813,390.717,344.896,389.927z M341.041,392.673
		c-2.557,1.773-5.138,3.471-7.741,5.097C335.903,396.145,338.485,394.446,341.041,392.673z M332.701,398.143
		c-1.277,0.791-2.558,1.569-3.845,2.324C330.143,399.712,331.424,398.934,332.701,398.143z M328.837,400.479
		c-1.372,0.805-2.749,1.589-4.131,2.354C326.088,402.068,327.466,401.284,328.837,400.479z M295.143,290.929
		c-0.857,0.895-1.722,1.785-2.604,2.667c-0.902,0.902-1.813,1.786-2.729,2.662c0.915-0.876,1.826-1.761,2.728-2.663
		C293.42,292.713,294.286,291.824,295.143,290.929z M322.03,253.717c-1.679,3.204-3.487,6.381-5.424,9.523
		C318.542,260.099,320.351,256.921,322.03,253.717z M316.475,263.451c-0.59,0.954-1.192,1.904-1.806,2.85
		C315.282,265.354,315.885,264.404,316.475,263.451z M314.457,266.629c-1.978,3.036-4.078,6.035-6.299,8.989
		C310.378,272.664,312.479,269.665,314.457,266.629z M307.755,276.15c-0.612,0.807-1.233,1.61-1.862,2.41
		C306.523,277.76,307.144,276.957,307.755,276.15z M305.475,279.091c-1.521,1.916-3.093,3.812-4.718,5.683
		C302.382,282.903,303.954,281.007,305.475,279.091z M300.352,285.236c-0.664,0.759-1.336,1.515-2.017,2.266
		C299.015,286.75,299.688,285.995,300.352,285.236z M297.691,288.206c-0.649,0.708-1.307,1.413-1.971,2.113
		C296.384,289.619,297.042,288.914,297.691,288.206z M325.509,332.512c-0.307,0.293-0.616,0.581-0.924,0.871
		C324.893,333.093,325.202,332.805,325.509,332.512z M322.369,335.435c-0.326,0.297-0.652,0.594-0.979,0.888
		C321.717,336.03,322.043,335.732,322.369,335.435z M318.753,338.643c-0.162,0.14-0.322,0.284-0.485,0.423
		C318.431,338.926,318.591,338.783,318.753,338.643z M315.119,341.697c-0.291,0.238-0.584,0.47-0.876,0.706
		C314.534,342.167,314.828,341.935,315.119,341.697z M311.859,344.292c-0.337,0.263-0.675,0.524-1.013,0.784
		C311.184,344.817,311.522,344.555,311.859,344.292z M308.27,347.013c-0.231,0.17-0.46,0.345-0.691,0.514
		C307.81,347.358,308.039,347.184,308.27,347.013z M304.284,349.875c-0.232,0.162-0.467,0.318-0.7,0.478
		C303.817,350.193,304.051,350.036,304.284,349.875z M300.923,352.148c-0.328,0.217-0.657,0.432-0.987,0.646
		C300.266,352.58,300.595,352.365,300.923,352.148z M297.315,354.465c-0.261,0.163-0.52,0.329-0.781,0.49
		C296.795,354.794,297.055,354.628,297.315,354.465z M293.095,357.025c-0.111,0.065-0.222,0.127-0.333,0.191
		C292.872,357.151,292.984,357.089,293.095,357.025z M281.234,214.006c0.011-0.025,0.021-0.05,0.032-0.075
		C281.255,213.956,281.245,213.981,281.234,214.006z M289.165,296.869c-0.718,0.68-1.441,1.353-2.167,2.017
		C287.724,298.222,288.446,297.55,289.165,296.869z M286.295,299.528c-0.863,0.781-1.731,1.552-2.604,2.31
		C284.564,301.08,285.432,300.309,286.295,299.528z M283.513,301.994c-0.953,0.825-1.913,1.634-2.878,2.433
		C281.6,303.628,282.56,302.819,283.513,301.994z M280.035,304.916c-0.763,0.625-1.528,1.241-2.298,1.849
		C278.507,306.158,279.273,305.541,280.035,304.916z M276.976,307.364c-0.82,0.641-1.644,1.272-2.472,1.894
		C275.332,308.636,276.156,308.004,276.976,307.364z M274.073,309.584c-0.992,0.74-1.99,1.467-2.992,2.18
		C272.083,311.051,273.081,310.325,274.073,309.584z M270.647,312.069c-0.846,0.598-1.694,1.185-2.546,1.763
		C268.953,313.254,269.802,312.666,270.647,312.069z M267.355,314.334c-0.824,0.553-1.652,1.097-2.482,1.631
		C265.704,315.431,266.531,314.887,267.355,314.334z M264.333,316.316c-1.035,0.661-2.074,1.31-3.117,1.943
		C262.259,317.626,263.297,316.977,264.333,316.316z M261.157,318.294c-0.992,0.602-1.989,1.187-2.988,1.763
		C259.168,319.481,260.165,318.895,261.157,318.294z M257.5,320.439c-0.854,0.487-1.709,0.964-2.567,1.432
		C255.791,321.403,256.647,320.925,257.5,320.439z M254.354,322.187c-2.1,1.134-4.212,2.212-6.334,3.234
		C250.142,324.399,252.254,323.321,254.354,322.187z M254.667,253.97c0.201-0.211,0.399-0.423,0.599-0.635
		C255.067,253.546,254.869,253.759,254.667,253.97z M256.958,251.51c0.211-0.232,0.422-0.463,0.631-0.696
		C257.38,251.047,257.169,251.278,256.958,251.51z M259.428,248.727c0.104-0.121,0.211-0.241,0.315-0.362
		C259.64,248.486,259.532,248.606,259.428,248.727z M261.867,245.829c0.116-0.142,0.229-0.285,0.344-0.428
		C262.096,245.544,261.983,245.687,261.867,245.829z M263.904,243.273c0.166-0.213,0.331-0.427,0.495-0.64
		C264.235,242.846,264.07,243.06,263.904,243.273z M266.005,240.505c0.113-0.152,0.227-0.304,0.339-0.457
		C266.233,240.2,266.118,240.352,266.005,240.505z M270.082,234.684c0.094-0.143,0.187-0.286,0.281-0.429
		C270.269,234.398,270.176,234.541,270.082,234.684z M271.884,231.882c0.081-0.129,0.162-0.257,0.242-0.386
		C272.047,231.625,271.965,231.753,271.884,231.882z M275.452,225.84c0.006-0.011,0.012-0.023,0.019-0.034
		C275.465,225.817,275.458,225.828,275.452,225.84z M276.971,223.014c0.042-0.081,0.084-0.162,0.127-0.243
		C277.055,222.852,277.013,222.933,276.971,223.014z M224.083,227.925c-0.027,0.027-0.052,0.055-0.079,0.082
		c-0.025,0.025-0.051,0.048-0.076,0.073c0.025-0.025,0.051-0.049,0.076-0.074C224.031,227.979,224.056,227.952,224.083,227.925z
		 M247.532,195.991c-1.211,2.342-2.51,4.666-3.896,6.967C245.021,200.656,246.323,198.333,247.532,195.991z M242.898,204.171
		c-0.399,0.646-0.798,1.292-1.211,1.934C242.1,205.463,242.5,204.817,242.898,204.171z M239.905,208.804
		c-0.353,0.52-0.717,1.036-1.079,1.553C239.188,209.84,239.552,209.324,239.905,208.804z M237.432,212.308
		c-0.315,0.433-0.626,0.867-0.948,1.298C236.806,213.175,237.117,212.741,237.432,212.308z M234.192,216.575
		c-0.294,0.37-0.593,0.738-0.892,1.106C233.599,217.313,233.899,216.945,234.192,216.575z M231.14,220.278
		c-0.184,0.215-0.361,0.432-0.547,0.646C230.779,220.71,230.957,220.492,231.14,220.278z M227.814,224.027
		c-0.261,0.283-0.524,0.565-0.788,0.846C227.29,224.591,227.553,224.31,227.814,224.027z M250.047,258.595
		c-0.205,0.196-0.411,0.387-0.617,0.582C249.635,258.982,249.842,258.791,250.047,258.595z M247.71,260.777
		c-0.244,0.223-0.489,0.445-0.734,0.666C247.221,261.222,247.466,261,247.71,260.777z M245.256,262.967
		c-0.22,0.192-0.439,0.385-0.659,0.575C244.818,263.352,245.037,263.159,245.256,262.967z M242.398,265.399
		c-0.06,0.049-0.118,0.1-0.178,0.149C242.279,265.5,242.338,265.449,242.398,265.399z M239.706,267.57
		c-0.106,0.083-0.213,0.164-0.319,0.247C239.493,267.734,239.6,267.654,239.706,267.57z M237.22,269.475
		c-0.187,0.14-0.375,0.279-0.563,0.418C236.845,269.754,237.033,269.615,237.22,269.475z M234.622,271.374
		c-0.169,0.12-0.337,0.241-0.506,0.361C234.285,271.616,234.453,271.495,234.622,271.374z M231.683,273.417
		c-0.025,0.017-0.05,0.035-0.075,0.052C231.633,273.452,231.658,273.434,231.683,273.417z M226.217,276.915
		c-0.061,0.037-0.121,0.073-0.182,0.109C226.095,276.987,226.156,276.952,226.217,276.915z M204.463,158.404
		c-0.2,0.39-0.416,0.775-0.622,1.164C204.047,159.179,204.264,158.793,204.463,158.404z M202.376,162.261
		c-0.266,0.469-0.547,0.934-0.822,1.401C201.829,163.195,202.11,162.73,202.376,162.261z M200.094,166.081
		c-0.308,0.493-0.626,0.982-0.944,1.472C199.468,167.063,199.786,166.574,200.094,166.081z M197.615,169.858
		c-0.339,0.494-0.683,0.987-1.032,1.478C196.932,170.845,197.276,170.353,197.615,169.858z M194.928,173.598
		c-0.359,0.478-0.717,0.956-1.085,1.431C194.212,174.554,194.57,174.076,194.928,173.598z M192.009,177.317
		c-0.361,0.44-0.715,0.883-1.084,1.319C191.294,178.199,191.649,177.757,192.009,177.317z M188.766,181.099
		c-0.315,0.351-0.619,0.708-0.94,1.057C188.147,181.807,188.451,181.45,188.766,181.099z M184.473,185.655
		c-0.917,0.915-1.847,1.804-2.785,2.678C182.626,187.458,183.556,186.57,184.473,185.655z M179.754,139.485
		c0.603-1.108,1.183-2.22,1.736-3.338C180.937,137.265,180.357,138.377,179.754,139.485z M181.109,188.874
		c-0.898,0.826-1.806,1.632-2.721,2.42C179.303,190.505,180.211,189.7,181.109,188.874z M177.621,191.946
		c-0.895,0.756-1.795,1.501-2.705,2.222C175.826,193.446,176.726,192.703,177.621,191.946z M174.094,194.805
		c-0.695,0.54-1.394,1.07-2.097,1.59C172.699,195.875,173.399,195.346,174.094,194.805z M170.824,197.257
		c-0.757,0.544-1.519,1.074-2.284,1.595C169.305,198.33,170.068,197.802,170.824,197.257z M167.085,199.827
		c-0.566,0.371-1.134,0.733-1.703,1.092C165.95,200.56,166.519,200.198,167.085,199.827z M163.101,202.316
		c-0.303,0.18-0.607,0.358-0.912,0.535C162.494,202.674,162.798,202.497,163.101,202.316z M162.266,162.841
		c0.904-0.909,1.788-1.829,2.649-2.76C164.054,161.013,163.17,161.932,162.266,162.841z M165.812,159.081
		c0.628-0.696,1.254-1.393,1.858-2.1C167.065,157.688,166.44,158.385,165.812,159.081z M168.592,155.872
		c0.573-0.69,1.143-1.381,1.695-2.08C169.735,154.492,169.166,155.183,168.592,155.872z M171.145,152.682
		c0.551-0.718,1.096-1.439,1.624-2.166C172.24,151.242,171.696,151.963,171.145,152.682z M173.526,149.455
		c0.542-0.766,1.073-1.536,1.59-2.311C174.599,147.919,174.069,148.689,173.526,149.455z M175.752,146.181
		c0.543-0.834,1.07-1.673,1.583-2.515C176.822,144.508,176.295,145.347,175.752,146.181z M177.828,142.856
		c0.557-0.934,1.094-1.872,1.615-2.815C178.921,140.984,178.385,141.923,177.828,142.856z M161.863,163.246
		c-0.954,0.95-1.921,1.875-2.898,2.778C159.943,165.122,160.91,164.196,161.863,163.246z M157.939,166.945
		c-0.717,0.645-1.436,1.285-2.165,1.906C156.502,168.23,157.222,167.59,157.939,166.945z M154.64,169.794
		c-0.72,0.597-1.444,1.184-2.175,1.757C153.196,170.978,153.92,170.39,154.64,169.794z M151.369,172.397
		c-0.784,0.598-1.573,1.181-2.367,1.752C149.796,173.579,150.585,172.995,151.369,172.397z M148.066,174.818
		c-0.928,0.651-1.863,1.282-2.803,1.896C146.203,176.101,147.137,175.469,148.066,174.818z M143.645,111.58
		c-0.03,0.052-0.061,0.104-0.092,0.156C143.584,111.684,143.614,111.632,143.645,111.58z M142.101,114.116
		c-0.068,0.107-0.137,0.214-0.206,0.321C141.963,114.33,142.033,114.223,142.101,114.116z M140.442,116.633
		c-0.12,0.175-0.243,0.348-0.365,0.522C140.198,116.982,140.322,116.808,140.442,116.633z M138.661,119.134
		c-0.189,0.256-0.387,0.509-0.58,0.764C138.275,119.643,138.472,119.39,138.661,119.134z M136.756,121.614
		c-0.288,0.362-0.59,0.718-0.885,1.076C136.167,122.332,136.467,121.976,136.756,121.614z M124.564,96.138
		c0.323-0.529,0.646-1.058,0.954-1.591C125.21,95.08,124.886,95.609,124.564,96.138z M124.845,133.862
		c-0.362,0.306-0.729,0.599-1.093,0.898C124.116,134.461,124.484,134.168,124.845,133.862z M122.031,136.142
		c-0.362,0.281-0.728,0.553-1.092,0.827C121.303,136.695,121.669,136.424,122.031,136.142z M119.137,138.292
		c-0.349,0.248-0.699,0.491-1.05,0.732C118.438,138.783,118.789,138.54,119.137,138.292z M116.161,140.314
		c-0.322,0.209-0.645,0.417-0.969,0.62C115.516,140.73,115.839,140.523,116.161,140.314z M113.092,142.212
		c-0.28,0.164-0.558,0.331-0.839,0.492C112.533,142.543,112.812,142.376,113.092,142.212z M114.64,109.2
		c0.201-0.216,0.394-0.436,0.592-0.653C115.034,108.765,114.842,108.985,114.64,109.2z M116.562,107.063
		c0.26-0.299,0.512-0.601,0.766-0.903C117.073,106.462,116.822,106.764,116.562,107.063z M118.38,104.896
		c0.282-0.348,0.558-0.699,0.833-1.049C118.938,104.197,118.663,104.548,118.38,104.896z M120.096,102.703
		c0.292-0.387,0.58-0.775,0.864-1.164C120.676,101.928,120.388,102.316,120.096,102.703z M121.704,100.497
		c0.299-0.425,0.596-0.85,0.885-1.278C122.3,99.647,122.003,100.073,121.704,100.497z M123.201,98.293
		c0.306-0.467,0.611-0.933,0.905-1.404C123.812,97.36,123.507,97.826,123.201,98.293z M94.569,124.941
		c-0.853,0.472-1.71,0.925-2.572,1.359C92.858,125.866,93.715,125.412,94.569,124.941z M112.269,111.636
		c-0.656,0.649-1.317,1.288-1.987,1.909C110.952,112.925,111.613,112.285,112.269,111.636z M109.535,114.214
		c-0.55,0.498-1.102,0.994-1.661,1.473C108.434,115.208,108.985,114.712,109.535,114.214z M107.12,116.315
		c-0.573,0.479-1.147,0.954-1.728,1.414C105.974,117.269,106.548,116.793,107.12,116.315z M104.703,118.26
		c-0.618,0.478-1.238,0.948-1.864,1.405C103.465,119.21,104.085,118.738,104.703,118.26z M102.243,120.091
		c-0.672,0.481-1.347,0.95-2.028,1.406C100.896,121.042,101.571,120.571,102.243,120.091z M99.737,121.813
		c-0.732,0.483-1.469,0.951-2.21,1.405C98.268,122.764,99.005,122.295,99.737,121.813z M97.179,123.43
		c-0.794,0.481-1.593,0.944-2.396,1.391C95.586,124.374,96.384,123.91,97.179,123.43z M109.905,143.993
		c-0.213,0.112-0.424,0.23-0.637,0.34C109.481,144.223,109.693,144.106,109.905,143.993z M129.748,129.379
		c0.153-0.15,0.31-0.292,0.462-0.444c0.799-0.798,1.577-1.608,2.337-2.427c-0.759,0.819-1.536,1.629-2.336,2.428
		C130.059,129.088,129.901,129.228,129.748,129.379z M126.564,132.355c0.338-0.302,0.681-0.594,1.016-0.903
		C127.245,131.761,126.903,132.053,126.564,132.355z M134.719,124.074c-0.451,0.525-0.92,1.041-1.387,1.559
		C133.799,125.115,134.268,124.598,134.719,124.074z M144.716,177.075c-3.553,2.289-7.185,4.31-10.862,6.064
		C137.531,181.385,141.163,179.361,144.716,177.075z M158.859,204.708c-0.161,0.086-0.321,0.173-0.482,0.257
		C158.538,204.881,158.698,204.794,158.859,204.708z M195.343,249.732c-1.188,0.662-2.38,1.301-3.578,1.918
		C192.963,251.033,194.155,250.393,195.343,249.732z M220.859,231.04c-0.248,0.233-0.496,0.467-0.746,0.697
		C220.363,231.506,220.61,231.272,220.859,231.04z M217.07,234.463c-0.278,0.242-0.559,0.477-0.838,0.716
		C216.511,234.94,216.792,234.705,217.07,234.463z M213.608,237.362c-0.258,0.209-0.514,0.424-0.773,0.63
		C213.094,237.785,213.35,237.571,213.608,237.362z M209.897,240.26c-0.422,0.318-0.845,0.633-1.269,0.944
		C209.052,240.893,209.475,240.577,209.897,240.26z M205.813,243.216c-0.49,0.34-0.984,0.668-1.477,0.999
		C204.829,243.884,205.323,243.555,205.813,243.216z M202.585,245.372c-0.829,0.539-1.662,1.064-2.498,1.579
		C200.923,246.436,201.756,245.909,202.585,245.372z M198.402,247.977c-0.657,0.391-1.315,0.773-1.975,1.149
		C197.087,248.75,197.745,248.367,198.402,247.977z M212.15,284.303c-0.002,0.001-0.004,0.002-0.005,0.002
		C212.147,284.304,212.148,284.303,212.15,284.303z M223.512,278.509c-0.079,0.045-0.158,0.091-0.236,0.135
		C223.354,278.6,223.433,278.554,223.512,278.509z M247.478,325.679c-0.897,0.428-1.795,0.845-2.696,1.253
		C245.683,326.524,246.581,326.106,247.478,325.679z M274.52,366.347c-0.271,0.115-0.542,0.231-0.814,0.344
		C273.978,366.577,274.249,366.461,274.52,366.347z M289.657,358.975c-0.302,0.167-0.604,0.331-0.906,0.496
		C289.053,359.306,289.356,359.142,289.657,358.975z M286.023,360.924c-0.268,0.14-0.536,0.281-0.804,0.419
		C285.488,361.206,285.755,361.064,286.023,360.924z M278.152,364.758c-0.258,0.117-0.517,0.231-0.775,0.346
		C277.635,364.989,277.894,364.875,278.152,364.758z M311.662,409.39c-1.361,0.617-2.725,1.218-4.091,1.796
		C308.937,410.608,310.301,410.007,311.662,409.39z M324.479,402.957c-1.277,0.705-2.558,1.39-3.842,2.06
		C321.921,404.347,323.202,403.662,324.479,402.957z M320.236,405.227c-2.73,1.415-5.476,2.752-8.234,4.009
		C314.76,407.979,317.506,406.642,320.236,405.227z M343.324,458.028c-0.267,0.106-0.534,0.214-0.801,0.319
		C342.79,458.242,343.056,458.134,343.324,458.028z M367.274,446.491c-0.229,0.13-0.457,0.264-0.686,0.393
		C366.817,446.755,367.045,446.621,367.274,446.491z M362.172,449.303c-0.158,0.084-0.317,0.164-0.476,0.248
		C361.855,449.467,362.014,449.387,362.172,449.303z M357.767,451.565c-0.308,0.153-0.615,0.307-0.924,0.458
		C357.151,451.872,357.459,451.718,357.767,451.565z M352.543,454.078c-0.024,0.011-0.048,0.023-0.073,0.034
		C352.494,454.101,352.519,454.089,352.543,454.078z M347.924,456.13c-0.249,0.107-0.498,0.21-0.747,0.315
		C347.425,456.34,347.675,456.237,347.924,456.13z M393.652,507.529c-3.284,1.544-6.583,2.993-9.892,4.35
		C387.069,510.522,390.368,509.072,393.652,507.529z M409.357,499.359c-1.384,0.79-2.771,1.565-4.162,2.321
		C406.586,500.924,407.973,500.15,409.357,499.359z M404.434,502.096c-1.621,0.873-3.246,1.723-4.876,2.55
		C401.188,503.819,402.814,502.969,404.434,502.096z M398.901,504.974c-1.437,0.723-2.877,1.426-4.32,2.113
		C396.024,506.4,397.465,505.696,398.901,504.974z M425.909,568.799c-0.075,0.028-0.15,0.056-0.224,0.084
		C425.76,568.855,425.834,568.828,425.909,568.799z M455.848,554.871c-0.118,0.065-0.235,0.128-0.353,0.193
		C455.612,554.999,455.731,554.936,455.848,554.871z M450.182,557.911c-0.2,0.104-0.4,0.21-0.601,0.313
		C449.782,558.121,449.982,558.015,450.182,557.911z M438.126,563.746c-0.17,0.076-0.34,0.152-0.51,0.228
		C437.786,563.898,437.956,563.822,438.126,563.746z M511.577,512.646c0.003-0.003,0.005-0.005,0.008-0.007
		c0.003-0.003,0.005-0.005,0.008-0.008c-0.003,0.003-0.005,0.006-0.008,0.008C511.583,512.642,511.58,512.644,511.577,512.646z
		 M461.482,551.642c0.153-0.09,0.305-0.184,0.457-0.274C461.787,551.458,461.635,551.552,461.482,551.642z M466.91,548.33
		c0.3-0.188,0.601-0.375,0.901-0.565C467.51,547.955,467.21,548.142,466.91,548.33z M478.378,540.682
		c0.376-0.266,0.751-0.534,1.125-0.802C479.129,540.148,478.754,540.416,478.378,540.682z M484.188,536.446
		c0.161-0.121,0.323-0.238,0.483-0.359C484.51,536.208,484.348,536.325,484.188,536.446z M489.711,532.171
		c0.379-0.301,0.755-0.608,1.133-0.912C490.466,531.563,490.09,531.87,489.711,532.171z M494.892,527.93
		c0.366-0.307,0.733-0.611,1.098-0.921C495.626,527.319,495.258,527.623,494.892,527.93z M500.808,522.818
		c0.292-0.261,0.581-0.529,0.873-0.792C501.389,522.289,501.1,522.557,500.808,522.818z M505.637,518.386
		c0.429-0.403,0.858-0.805,1.285-1.212C506.495,517.581,506.066,517.984,505.637,518.386z M521.6,502.044
		c-0.334,0.374-0.676,0.744-1.013,1.117C520.924,502.788,521.265,502.417,521.6,502.044z M517.235,506.795
		c-0.407,0.433-0.812,0.865-1.222,1.296C516.423,507.66,516.828,507.227,517.235,506.795z"/>
</g>
</svg>
