<?xml version="1.0" encoding="utf-8"?>
<!-- Generator: Adobe Illustrator 17.0.0, SVG Export Plug-In . SVG Version: 6.00 Build 0)  -->
<!DOCTYPE svg PUBLIC "-//W3C//DTD SVG 1.1//EN" "http://www.w3.org/Graphics/SVG/1.1/DTD/svg11.dtd">
<svg version="1.1" id="Layer_1" xmlns="http://www.w3.org/2000/svg" xmlns:xlink="http://www.w3.org/1999/xlink" x="0px" y="0px"
	 width="613px" height="613px" viewBox="0 0 613 613" enable-background="new 0 0 613 613" xml:space="preserve">
<path d="M597.476,49.998C496.702,71.33,411.428,154.063,370.526,255.329c59.506,47.511,39.992,130.773-18.516,160.944
	c-12.652-8.326-27.788-13.185-44.065-13.185c-16.28,0-31.418,4.86-44.07,13.188c-58.51-30.171-78.024-113.435-18.518-160.948
	C204.455,154.063,119.182,71.33,18.408,49.998c49.889,50.932,62.906,153.78,16.086,208.923
	c76.282,12.835,90.485,73.28,77.031,164.344c39.989-24.959,89.216-14.588,119.629,36.652c-2.263,7.42-3.49,15.292-3.49,23.452
	c0,44.337,35.944,80.281,80.281,80.281c44.337,0,80.281-35.944,80.281-80.281c0-8.162-1.227-16.037-3.492-23.458
	c30.413-51.236,79.638-61.606,119.626-36.647c-13.455-91.064,0.748-151.508,77.031-164.344
	C534.57,203.778,547.587,100.93,597.476,49.998z M331.958,508.467c-25.898,0-46.893-20.995-46.893-46.893
	s20.995-46.893,46.893-46.893c5.961,0,11.657,1.124,16.903,3.153c0,0,0,0-0.001,0c2.183,0.844,4.287,1.848,6.299,2.995
	c0.021,0.012,0.042,0.024,0.062,0.036c1.967,1.126,3.844,2.391,5.619,3.781c0.067,0.053,0.135,0.105,0.202,0.159
	c0.415,0.329,0.826,0.663,1.229,1.005c0.027,0.023,0.053,0.046,0.079,0.069c1.22,1.039,2.384,2.142,3.492,3.299
	c0.114,0.119,0.229,0.238,0.342,0.358c0.309,0.33,0.613,0.664,0.912,1.002c0.129,0.146,0.256,0.295,0.384,0.443
	c0.919,1.065,1.789,2.172,2.611,3.318c0.156,0.218,0.313,0.434,0.466,0.655c0.213,0.308,0.421,0.62,0.627,0.934
	c0.168,0.256,0.333,0.514,0.496,0.774c0.188,0.299,0.377,0.599,0.558,0.902c0.201,0.337,0.395,0.68,0.588,1.022
	c0.23,0.407,0.453,0.818,0.671,1.232c0.198,0.377,0.395,0.754,0.583,1.137c0.133,0.271,0.26,0.547,0.389,0.821
	c0.166,0.356,0.329,0.714,0.486,1.075c0.117,0.268,0.233,0.536,0.345,0.807c0.178,0.43,0.347,0.863,0.512,1.299
	c0.077,0.203,0.159,0.403,0.233,0.607c0.226,0.622,0.437,1.25,0.637,1.884c0.07,0.22,0.133,0.444,0.199,0.666
	c0.136,0.454,0.267,0.91,0.389,1.37c0.065,0.245,0.129,0.491,0.19,0.738c0.12,0.482,0.231,0.968,0.336,1.456
	c0.044,0.203,0.091,0.405,0.132,0.609c0.137,0.682,0.261,1.369,0.368,2.062c0.023,0.146,0.039,0.294,0.06,0.441
	c0.082,0.562,0.154,1.127,0.216,1.696c0.025,0.232,0.047,0.465,0.068,0.698c0.048,0.513,0.087,1.028,0.118,1.546
	c0.013,0.221,0.029,0.44,0.039,0.662c0.033,0.725,0.055,1.452,0.055,2.185c0,0.629-0.023,1.253-0.047,1.876
	c-0.015,0.339-0.029,0.678-0.05,1.016C377.258,489.016,356.884,508.467,331.958,508.467z"/>
</svg>
