<?xml version="1.0" encoding="utf-8"?>
<!-- Generator: Adobe Illustrator 17.0.0, SVG Export Plug-In . SVG Version: 6.00 Build 0)  -->
<!DOCTYPE svg PUBLIC "-//W3C//DTD SVG 1.1//EN" "http://www.w3.org/Graphics/SVG/1.1/DTD/svg11.dtd">
<svg version="1.1" id="Layer_1" xmlns="http://www.w3.org/2000/svg" xmlns:xlink="http://www.w3.org/1999/xlink" x="0px" y="0px"
	 width="613px" height="613px" viewBox="0 0 613 613" enable-background="new 0 0 613 613" xml:space="preserve">
<path d="M595.111,261.065c-108.923-60.99-229.115-39.065-320.618,56.85C382.999,377.497,504.184,356.653,595.111,261.065z"/>
<path d="M69.325,47.222c119.285,33.677,188.28,133.481,185.204,265.086C136.527,277.939,66.071,178.194,69.325,47.222L69.325,47.222
	z"/>
<path d="M266.659,340.406c102.005,40.374,135.212,122.683,90.045,218.86C256.135,518.549,221.526,436.098,266.659,340.406
	L266.659,340.406z"/>
<path d="M247.628,333.725c-99.161-40.691-180.852-5.47-218.417,92.469C127.629,465.674,210.385,431.304,247.628,333.725z"/>
</svg>
