<?xml version="1.0" encoding="utf-8"?>
<!-- Generator: Adobe Illustrator 17.0.0, SVG Export Plug-In . SVG Version: 6.00 Build 0)  -->
<!DOCTYPE svg PUBLIC "-//W3C//DTD SVG 1.1//EN" "http://www.w3.org/Graphics/SVG/1.1/DTD/svg11.dtd">
<svg version="1.1" id="Layer_1" xmlns="http://www.w3.org/2000/svg" xmlns:xlink="http://www.w3.org/1999/xlink" x="0px" y="0px"
	 width="612px" height="612px" viewBox="0 0 612 612" enable-background="new 0 0 612 612" xml:space="preserve">
<g transform="matrix(15 0 0 15 -2144 -3284)">
	<path d="M160.943,220.208c-1.987,0-3.586,1.066-3.586,2.391v1.195h-3.586c-2.355,0-4.781,2.427-4.781,4.781v25.102
		c0,2.355,2.427,4.781,4.781,4.781h19.125c2.355,0,4.781-2.427,4.781-4.781v-25.102c0-2.355-2.427-4.781-4.781-4.781h-3.586v-1.195
		c0-1.324-1.599-2.391-3.586-2.391L160.943,220.208L160.943,220.208z M153.771,228.576h19.125v25.102h-19.125V228.576z
		 M163.333,230.966v8.367h-5.977l5.977,11.953v-8.367h5.977L163.333,230.966z"/>
</g>
</svg>
