<?xml version="1.0" encoding="utf-8"?>
<!-- Generator: Adobe Illustrator 17.0.0, SVG Export Plug-In . SVG Version: 6.00 Build 0)  -->
<!DOCTYPE svg PUBLIC "-//W3C//DTD SVG 1.1//EN" "http://www.w3.org/Graphics/SVG/1.1/DTD/svg11.dtd">
<svg version="1.1" id="Layer_1" xmlns="http://www.w3.org/2000/svg" xmlns:xlink="http://www.w3.org/1999/xlink" x="0px" y="0px"
	 width="613px" height="613px" viewBox="0 0 613 613" enable-background="new 0 0 613 613" xml:space="preserve">
<path d="M459.675,113.088H165.859c0,69.444-40.672,25.62-40.672,102.043V515.66c0,32.689,26.195,58.883,58.882,58.883h255.159
	c32.688,0,58.882-26.195,58.882-58.883V215.131C498.111,134.192,459.675,180.083,459.675,113.088z M224.81,542.116l-0.002,0.005
	h-0.003L224.81,542.116l70.762-190.385H167.208l207.357-220.083l-55.954,160.695h139.885L224.81,542.116z"/>
<path d="M118.979,27.903v89.858h46.807c0.044-1.504,0.073-3.048,0.073-4.673h293.816c0,1.63,0.029,3.173,0.074,4.673h47.519V27.903
	H118.979z"/>
</svg>
