<?xml version="1.0" encoding="utf-8"?>
<!-- Generator: Adobe Illustrator 17.0.0, SVG Export Plug-In . SVG Version: 6.00 Build 0)  -->
<!DOCTYPE svg PUBLIC "-//W3C//DTD SVG 1.1//EN" "http://www.w3.org/Graphics/SVG/1.1/DTD/svg11.dtd">
<svg version="1.1" id="Layer_1" xmlns="http://www.w3.org/2000/svg" xmlns:xlink="http://www.w3.org/1999/xlink" x="0px" y="0px"
	 width="613px" height="613px" viewBox="0 0 613 613" enable-background="new 0 0 613 613" xml:space="preserve">
<path d="M589.692,338.19l-1.253-11.53v-23.233l-0.44,1.404c-0.545-4.003-1.613-7.902-3.2-11.669l-8.517-78.368l-16.931,50.315
	c-7.344-4.661-16.055-8.732-26.062-12.102l-20.404-81.238l-16.582,72.966c-13.614-1.793-28.654-2.626-45.08-2.341l-20.084-68.161
	l-18.526,70.685c-13.508,1.48-27.735,3.621-42.663,6.484l-18.187-42.891l-18.316,51.011c-5.931,1.495-11.945,3.083-18.063,4.792
	v3.458c-2.062-0.454-4.202-0.701-6.4-0.701c-1.553,0-3.078,0.121-4.567,0.351l1.143-6.612c-5.316-2.526-10.556-4.924-15.745-7.241
	l-5.968-56.064l-29.253,41.519c-14.247-5.39-27.925-9.948-41.008-13.729l-4.342-70.06l-33.21,60.96
	c-16.363-3.149-31.526-4.929-45.414-5.487l-3.915-74.724l-33.94,76.577c-10.435,1.616-19.712,4.145-27.742,7.487l-8.115-52.463
	l-21.738,75.773c-2.206,3.442-3.921,7.102-5.141,10.954l-0.195-1.458l-3.956,22.894l-3.198,11.148l1.413-0.82l-8.81,50.98
	C7.546,388.02,82.29,450.76,261.528,505.903c6.552,6.782,15.734,11.006,25.907,11.006c11.278,0,21.342-5.186,27.949-13.299l0,9.93
	c187.171-23.735,271.996-72.972,273.055-124.663v-51.736L589.692,338.19z M285.554,444.902c-4.35,0.224-8.495,1.222-12.303,2.855
	l0.187-1.084c-5.515-1.69-10.918-3.404-16.232-5.136l-4.585-48.123l-30.126,36.003c-14.681-5.49-28.475-11.136-41.386-16.901
	l-3.056-81.007l-34.648,62.559c-13.37-7.183-25.5-14.475-36.44-21.804l-4.806-93.558l-29.745,66.889
	c-12.088-10.922-21.615-21.737-28.706-32.211l3.404-30.026c41.853-22.435,126.086-19.089,240.088,33.423
	c0.74,0.802,1.526,1.56,2.35,2.277c-35.66,0.767-62.427,12.908-62.427,29.78c0,17.25,27.986,33.607,64.845,39.212L285.554,444.902z
	 M530.686,387.561l-17.92-70.979l-20.669,91.376c-11.926,5.314-25,10.391-39.256,15.157l-20.125-62.832l-19.763,74.513
	c-13.649,3.486-28.141,6.708-43.481,9.625l-21.869-43.955L332.7,450.571c-5.675,0.826-11.439,1.616-17.315,2.361l0,5.22
	c-3.932-4.829-9.091-8.614-15.002-10.892l6.496-57.583c43.07,2.893,77.83-10.194,77.83-29.414c0-16.295-24.968-31.799-58.802-38.191
	c120.217-31.691,203.091-20.608,240.31,8.469l-1.758,30.167C555.687,369.822,544.458,378.857,530.686,387.561z"/>
</svg>
