<?xml version="1.0" encoding="utf-8"?>
<!-- Generator: Adobe Illustrator 17.0.0, SVG Export Plug-In . SVG Version: 6.00 Build 0)  -->
<!DOCTYPE svg PUBLIC "-//W3C//DTD SVG 1.1//EN" "http://www.w3.org/Graphics/SVG/1.1/DTD/svg11.dtd">
<svg version="1.1" id="Layer_1" xmlns="http://www.w3.org/2000/svg" xmlns:xlink="http://www.w3.org/1999/xlink" x="0px" y="0px"
	 width="613px" height="613px" viewBox="0 0 613 613" enable-background="new 0 0 613 613" xml:space="preserve">
<g>
	<polygon points="281.006,21.338 281.005,21.341 281.006,21.341 	"/>
	<path d="M465.22,150.655c28.641,67.143,13.839,118.766-21.749,147.547C460.969,69.055,208.575,161.391,281.005,21.341
		c-208.174,57.772,17.182,173.928-60.201,215.605c-39.2,21.109-102.838,17.959-77.292-88.332
		C4.45,261.653,61.12,532.301,243.825,583.437c-50.157-26.228-84.393-78.745-84.393-139.269
		c0-86.749,70.321-157.069,157.069-157.069S473.57,357.423,473.57,444.168c0,54.435-27.694,102.396-69.756,130.577
		C622.157,498.918,592.393,219.126,465.22,150.655z"/>
</g>
<path d="M266.044,432.186c0,16.901,13.703,30.604,30.604,30.604s30.604-13.703,30.604-30.604s-13.703-30.604-30.604-30.604
	C279.747,401.583,266.044,415.285,266.044,432.186z"/>
<path d="M316.512,373.714c-50.122,0-90.752,40.63-90.752,90.752s40.631,90.752,90.752,90.752c50.12,0,90.752-40.63,90.752-90.752
	C407.264,414.346,366.634,373.714,316.512,373.714z M316.492,521.681c-31.614,0-57.243-25.628-57.243-57.243
	c0-10.042,2.594-19.476,7.136-27.681c-0.223-1.491-0.341-3.017-0.341-4.571c0-16.901,13.703-30.603,30.604-30.604
	c6.61,0,12.725,2.103,17.729,5.667c0.703-0.026,1.406-0.053,2.115-0.053c31.615,0,57.243,25.628,57.243,57.243
	C373.735,496.053,348.106,521.681,316.492,521.681z"/>
</svg>
