<?xml version="1.0" encoding="utf-8"?>
<!-- Generator: Adobe Illustrator 17.0.0, SVG Export Plug-In . SVG Version: 6.00 Build 0)  -->
<!DOCTYPE svg PUBLIC "-//W3C//DTD SVG 1.1//EN" "http://www.w3.org/Graphics/SVG/1.1/DTD/svg11.dtd">
<svg version="1.1" id="Layer_1" xmlns="http://www.w3.org/2000/svg" xmlns:xlink="http://www.w3.org/1999/xlink" x="0px" y="0px"
	 width="612px" height="612px" viewBox="0 0 612 612" enable-background="new 0 0 612 612" xml:space="preserve">
<g transform="matrix(15 0 0 15 -2144 -3284)">
	<path d="M158.951,220.208c-1.195,0-1.594,0.269-1.594,1.594v1.195h-3.586c-2.355,0-2.789,0.435-2.789,2.789v29.883
		c0,2.355,0.435,2.789,2.789,2.789h19.125c2.355,0,2.789-0.435,2.789-2.789v-29.883c0-2.355-0.435-2.789-2.789-2.789h-3.586v-1.195
		c0-1.324-0.398-1.594-1.594-1.594L158.951,220.208L158.951,220.208z M153.771,228.576c0-3.188-0.398-2.789,2.789-2.789
		c1.594,0,12.352,0,13.547,0c3.188,0,2.789-0.398,2.789,2.789c0,1.594,0,22.711,0,24.305c0,3.188,0.398,2.789-2.789,2.789
		c-1.594,0-11.953,0-13.547,0c-3.188,0-2.789,0.398-2.789-2.789C153.771,251.286,153.771,230.169,153.771,228.576z"/>
</g>
<path d="M192.445,443.466h227.109c6.602,0,11.953,5.352,11.953,11.953v65.742c0,6.602-5.352,11.953-11.953,11.953H192.445
	c-6.602,0-11.953-5.352-11.953-11.953v-65.742C180.492,448.818,185.844,443.466,192.445,443.466z"/>
</svg>
