<?xml version="1.0" encoding="utf-8"?>
<!-- Generator: Adobe Illustrator 17.0.0, SVG Export Plug-In . SVG Version: 6.00 Build 0)  -->
<!DOCTYPE svg PUBLIC "-//W3C//DTD SVG 1.1//EN" "http://www.w3.org/Graphics/SVG/1.1/DTD/svg11.dtd">
<svg version="1.1" id="Layer_1" xmlns="http://www.w3.org/2000/svg" xmlns:xlink="http://www.w3.org/1999/xlink" x="0px" y="0px"
	 width="613px" height="613px" viewBox="0 0 613 613" enable-background="new 0 0 613 613" xml:space="preserve">
<g>
	<path d="M585.037,306.41c0-154.441-125.198-279.638-279.637-279.638S25.764,151.97,25.764,306.41
		c0,54.474,15.592,105.299,42.534,148.286c-13.46-31.265-20.928-65.717-20.928-101.917c0-142.489,115.51-257.998,257.996-257.998
		S563.363,210.29,563.363,352.779c0,36.341-7.529,70.92-21.088,102.282C569.357,411.997,585.037,361.038,585.037,306.41z"/>
	<path d="M305.366,134.599l-80.94,236.81L102.63,337.536v235.043l86.864-91.782l45.023,34.671l16.576,72.386h108.582l16.583-72.418
		l44.979-34.638l86.862,91.78V337.536l-121.792,33.871L305.366,134.599z M345.418,382.779L345.418,382.779
		c0.056,1.352,0.106,2.72,0.15,4.099c0.007,0.208,0.012,0.418,0.018,0.626c0.035,1.141,0.065,2.292,0.09,3.452
		c0.007,0.32,0.014,0.641,0.02,0.962c0.022,1.127,0.04,2.262,0.053,3.406c0.003,0.268,0.007,0.534,0.01,0.803
		c0.014,1.42,0.022,2.851,0.022,4.298h-0.611h-80.223c0-1.404,0.008-2.792,0.021-4.171c0.004-0.407,0.01-0.81,0.015-1.215
		c0.012-0.991,0.027-1.976,0.046-2.953c0.008-0.433,0.017-0.864,0.027-1.294c0.022-1.005,0.049-2.003,0.078-2.994
		c0.01-0.348,0.019-0.698,0.03-1.044c0.043-1.329,0.09-2.647,0.145-3.951C270.914,250.155,339.799,250.306,345.418,382.779z"/>
</g>
</svg>
