<?xml version="1.0" encoding="utf-8"?>
<!-- Generator: Adobe Illustrator 17.0.0, SVG Export Plug-In . SVG Version: 6.00 Build 0)  -->
<!DOCTYPE svg PUBLIC "-//W3C//DTD SVG 1.1//EN" "http://www.w3.org/Graphics/SVG/1.1/DTD/svg11.dtd">
<svg version="1.1" id="Layer_1" xmlns="http://www.w3.org/2000/svg" xmlns:xlink="http://www.w3.org/1999/xlink" x="0px" y="0px"
	 width="613px" height="613px" viewBox="0 0 613 613" enable-background="new 0 0 613 613" xml:space="preserve">
<path d="M110.52,501.33c-26.407-26.388-58.234-37.359-71.091-24.501c-12.876,12.877-1.906,44.703,24.501,71.091
	s58.234,37.359,71.091,24.501C147.898,559.564,136.927,527.737,110.52,501.33z M122.673,556.918
	c-8.221,9.024-30.756,1.881-50.333-15.954c-19.577-17.835-28.784-39.608-20.563-48.632s30.756-1.881,50.333,15.954
	C121.688,526.121,130.894,547.894,122.673,556.918z"/>
<g>
	<path d="M104.519,510.56c-0.785-0.762-1.582-1.519-2.404-2.268C102.937,509.04,103.734,509.798,104.519,510.56z"/>
	<path d="M120.807,531.698c-0.417-0.793-0.853-1.589-1.321-2.392C119.953,530.109,120.39,530.906,120.807,531.698z"/>
	<path d="M119.477,529.29c-0.47-0.807-0.97-1.62-1.49-2.435C118.507,527.67,119.007,528.483,119.477,529.29z"/>
	<path d="M109.53,515.778c-0.686-0.768-1.385-1.535-2.11-2.296C108.145,514.243,108.844,515.01,109.53,515.778z"/>
	<path d="M117.715,526.433c-0.509-0.786-1.034-1.574-1.587-2.364C116.681,524.859,117.207,525.647,117.715,526.433z"/>
	<path d="M105.09,511.117c0.775,0.764,1.538,1.531,2.275,2.305C106.628,512.649,105.865,511.881,105.09,511.117z"/>
	<path d="M125.579,546.129c-0.127-1.384-0.381-2.832-0.762-4.335C125.197,543.297,125.453,544.746,125.579,546.129z"/>
	<path d="M116.086,524.008c-0.564-0.804-1.157-1.61-1.766-2.416C114.929,522.398,115.522,523.204,116.086,524.008z"/>
	<path d="M123.174,536.798c-0.622-1.557-1.354-3.151-2.194-4.771C121.82,533.647,122.552,535.241,123.174,536.798z"/>
	<path d="M125.673,548.271L125.673,548.271c0.007-0.661-0.023-1.342-0.084-2.039C125.65,546.929,125.679,547.61,125.673,548.271z"/>
	<path d="M124.777,541.641c-0.384-1.489-0.888-3.028-1.509-4.608C123.889,538.613,124.393,540.153,124.777,541.641z"/>
	<path d="M113.943,521.098c-0.597-0.778-1.208-1.555-1.846-2.332C112.734,519.542,113.346,520.32,113.943,521.098z"/>
	<path d="M112.037,518.691c-0.652-0.793-1.331-1.583-2.025-2.371C110.705,517.108,111.385,517.899,112.037,518.691z"/>
	<path d="M473.528,212.535l9.288-121.438l-91.369,33.228c4.074-41.489,27.808-76.586,68.12-112.431l-76.549,19.231L216.41,197.753
		c-55.337,55.337,1.402,105.161-57.673,164.235L49.072,471.653l0.253,0.253c15.58-2.87,40.11,8.354,61.195,29.424
		c17.08,17.081,27.69,36.422,29.578,51.438l104.7-104.7c59.074-59.075,108.898-2.336,164.235-57.673l192.38-192.38L473.528,212.535z
		"/>
	<path d="M102.099,508.276c-0.698-0.636-1.4-1.254-2.105-1.862C100.698,507.022,101.401,507.64,102.099,508.276z"/>
	<path d="M99.345,505.864c-0.504-0.428-1.008-0.849-1.514-1.262C98.337,505.014,98.842,505.436,99.345,505.864z"/>
	<path d="M69.865,489.447c-0.488-0.121-0.97-0.23-1.447-0.329C68.895,489.217,69.377,489.326,69.865,489.447z"/>
	<path d="M97.109,504.016c-0.515-0.413-1.031-0.817-1.548-1.216C96.077,503.199,96.593,503.603,97.109,504.016z"/>
	<path d="M71.894,490.002c-0.493-0.147-0.982-0.285-1.466-0.411C70.913,489.718,71.401,489.855,71.894,490.002z"/>
	<path d="M66.124,488.709c0.605,0.085,1.224,0.192,1.849,0.315C67.347,488.901,66.729,488.793,66.124,488.709L66.124,488.709z"/>
	<path d="M94.941,502.323c-1.444-1.094-2.893-2.129-4.34-3.104C92.048,500.194,93.497,501.229,94.941,502.323z"/>
	<path d="M80.719,493.492c-0.529-0.257-1.055-0.505-1.578-0.744C79.664,492.986,80.191,493.235,80.719,493.492z"/>
	<path d="M85.558,496.065c-1.443-0.834-2.875-1.604-4.292-2.308C82.683,494.461,84.116,495.231,85.558,496.065z"/>
	<path d="M76.439,491.589c-1.376-0.55-2.726-1.03-4.048-1.44C73.712,490.559,75.063,491.039,76.439,491.589z"/>
	<path d="M78.519,492.469c-0.529-0.234-1.055-0.457-1.578-0.672C77.464,492.011,77.99,492.235,78.519,492.469z"/>
	<path d="M87.731,497.368c-0.536-0.332-1.072-0.654-1.606-0.969C86.659,496.714,87.195,497.036,87.731,497.368z"/>
	<path d="M89.999,498.822c-0.531-0.352-1.062-0.696-1.591-1.031C88.938,498.126,89.468,498.471,89.999,498.822z"/>
</g>
</svg>
