<?xml version="1.0" encoding="utf-8"?>
<!-- Generator: Adobe Illustrator 17.0.0, SVG Export Plug-In . SVG Version: 6.00 Build 0)  -->
<!DOCTYPE svg PUBLIC "-//W3C//DTD SVG 1.1//EN" "http://www.w3.org/Graphics/SVG/1.1/DTD/svg11.dtd">
<svg version="1.1" id="Layer_1" xmlns="http://www.w3.org/2000/svg" xmlns:xlink="http://www.w3.org/1999/xlink" x="0px" y="0px"
	 width="613px" height="613px" viewBox="0 0 613 613" enable-background="new 0 0 613 613" xml:space="preserve">
<g>
	<path d="M25.997,205.917c-28.232,83.044,45.211,110.316,97.942,51.216C74.07,266.901,37.739,255.57,25.997,205.917z"/>
	<path d="M439.58,227.697c191.345-43.412,190.535-256.118,44.445-196.628v0.003c96.526-16.239,64.282,130.209-12.684,147.977
		c47.414-35.087,37.697-68.32,19.026-99.357c-7.695,110.285-146.52,128.822-187.205,200.96c0.235-0.417,0.469-0.834,0.711-1.248
		c-0.32,0-0.639,0.012-0.959,0.013c-0.006,0.567-0.017,1.127-0.021,1.695c0,0.001-0.001,0.001-0.001,0.002
		c1.039-131.897,43.9-204.789,103.844-171.893c27.519,15.102,23.294,53.72-8.762,64.374c66.04-13.686,77.674-74.52,14.471-111.009
		v-0.003c-53.761-31.038-133.073,8.202-143.404,105.806c0,0,0,0.001,0,0.001C230.699,7.83,96.715-27.903,84.911,117.538
		c0.351-0.738,0.707-1.464,1.068-2.177c0.134-0.265,0.272-0.52,0.408-0.781c0.229-0.443,0.458-0.89,0.691-1.324
		c0.157-0.292,0.319-0.573,0.477-0.861c0.217-0.393,0.433-0.79,0.653-1.176c0.165-0.288,0.334-0.565,0.5-0.849
		c0.219-0.373,0.437-0.75,0.66-1.116c0.175-0.287,0.354-0.564,0.53-0.846c0.219-0.35,0.436-0.704,0.658-1.047
		c0.183-0.282,0.369-0.554,0.554-0.831c0.221-0.332,0.441-0.668,0.664-0.993c0.187-0.272,0.378-0.534,0.567-0.8
		c0.226-0.319,0.45-0.641,0.679-0.954c0.193-0.264,0.391-0.519,0.586-0.778c0.229-0.303,0.456-0.61,0.687-0.906
		c0.199-0.255,0.401-0.5,0.602-0.75c0.233-0.29,0.464-0.583,0.699-0.866c0.203-0.244,0.409-0.479,0.614-0.719
		c0.237-0.278,0.474-0.558,0.713-0.829c0.208-0.235,0.42-0.462,0.63-0.692c0.24-0.263,0.479-0.53,0.722-0.786
		c0.213-0.226,0.429-0.442,0.644-0.663c0.245-0.251,0.488-0.505,0.735-0.75c0.215-0.213,0.433-0.418,0.65-0.627
		c0.25-0.241,0.5-0.484,0.753-0.719c0.218-0.203,0.44-0.397,0.66-0.595c0.256-0.23,0.51-0.461,0.768-0.685
		c0.221-0.191,0.445-0.375,0.668-0.562c0.26-0.218,0.52-0.439,0.783-0.651c0.225-0.181,0.452-0.355,0.678-0.532
		c0.265-0.207,0.529-0.416,0.797-0.616c0.226-0.17,0.455-0.333,0.683-0.498c0.271-0.197,0.541-0.395,0.814-0.585
		c0.228-0.159,0.459-0.311,0.689-0.466c0.276-0.186,0.552-0.372,0.83-0.552c0.231-0.149,0.463-0.291,0.695-0.435
		c0.281-0.175,0.562-0.351,0.846-0.519c0.232-0.138,0.466-0.269,0.699-0.403c0.287-0.164,0.573-0.329,0.862-0.487
		c0.233-0.127,0.469-0.249,0.703-0.372c0.293-0.154,0.585-0.308,0.88-0.455c0.234-0.117,0.469-0.228,0.704-0.34
		c0.299-0.143,0.597-0.287,0.898-0.423c0.235-0.107,0.471-0.208,0.707-0.311c0.304-0.132,0.608-0.265,0.914-0.39
		c0.235-0.097,0.472-0.188,0.708-0.281c0.311-0.122,0.622-0.244,0.934-0.359c0.234-0.086,0.47-0.168,0.705-0.25
		c0.316-0.111,0.633-0.222,0.952-0.326c0.236-0.077,0.473-0.15,0.709-0.224c0.322-0.1,0.644-0.2,0.968-0.293
		c0.234-0.068,0.47-0.131,0.706-0.195c0.329-0.089,0.657-0.178,0.988-0.261c0.234-0.059,0.469-0.113,0.704-0.168
		c0.335-0.078,0.67-0.156,1.007-0.227c0.232-0.049,0.465-0.095,0.698-0.141c0.342-0.068,0.684-0.134,1.028-0.195
		c0.231-0.041,0.463-0.078,0.694-0.115c0.348-0.056,0.697-0.111,1.047-0.161c0.23-0.032,0.46-0.061,0.69-0.091
		c0.354-0.045,0.709-0.088,1.065-0.126c0.229-0.024,0.458-0.045,0.688-0.067c0.36-0.034,0.721-0.065,1.084-0.091
		c0.226-0.016,0.453-0.03,0.68-0.044c0.368-0.022,0.737-0.042,1.107-0.056c0.222-0.009,0.445-0.015,0.668-0.021
		c0.377-0.01,0.755-0.018,1.134-0.021c0.218-0.002,0.437-0.001,0.655,0c0.384,0.002,0.769,0.006,1.155,0.015
		c0.216,0.005,0.433,0.013,0.65,0.02c0.39,0.014,0.781,0.03,1.173,0.052c0.214,0.012,0.427,0.025,0.641,0.039
		c0.397,0.026,0.796,0.055,1.195,0.09c0.21,0.018,0.42,0.037,0.63,0.057c0.405,0.039,0.81,0.081,1.217,0.128
		c0.207,0.024,0.413,0.049,0.62,0.075c0.411,0.051,0.824,0.106,1.236,0.166c0.202,0.029,0.405,0.06,0.608,0.091
		c0.419,0.064,0.839,0.133,1.26,0.206c0.198,0.034,0.396,0.069,0.594,0.105c0.428,0.078,0.856,0.16,1.285,0.246
		c0.192,0.039,0.384,0.078,0.576,0.118c0.436,0.091,0.872,0.187,1.309,0.287c0.188,0.043,0.376,0.087,0.564,0.131
		c0.444,0.105,0.888,0.215,1.332,0.329c0.181,0.046,0.362,0.093,0.543,0.141c0.453,0.12,0.906,0.244,1.36,0.373
		c0.175,0.05,0.351,0.1,0.526,0.151c0.461,0.134,0.923,0.273,1.386,0.417c0.168,0.052,0.336,0.104,0.504,0.158
		c0.469,0.149,0.94,0.303,1.41,0.462c0.163,0.055,0.327,0.11,0.49,0.166c0.478,0.164,0.957,0.334,1.436,0.508
		c0.155,0.056,0.309,0.112,0.464,0.169c0.488,0.18,0.977,0.366,1.466,0.556c0.148,0.057,0.295,0.114,0.443,0.173
		c0.496,0.196,0.993,0.397,1.49,0.603c0.141,0.059,0.283,0.117,0.424,0.176c0.504,0.212,1.008,0.429,1.513,0.651
		c0.135,0.059,0.269,0.118,0.404,0.178c0.513,0.228,1.027,0.463,1.54,0.702c0.126,0.059,0.253,0.117,0.379,0.176
		c0.521,0.245,1.042,0.496,1.563,0.751c0.121,0.059,0.242,0.118,0.362,0.177c0.53,0.262,1.059,0.531,1.589,0.804
		c0.111,0.057,0.222,0.114,0.333,0.171c0.539,0.28,1.079,0.567,1.618,0.858c0.103,0.056,0.206,0.11,0.309,0.166
		c0.549,0.299,1.099,0.604,1.648,0.915c0.092,0.052,0.185,0.104,0.277,0.156c0.558,0.317,1.117,0.642,1.675,0.971
		c0.085,0.05,0.17,0.099,0.255,0.15c0.567,0.336,1.134,0.679,1.7,1.027c0.076,0.047,0.152,0.092,0.227,0.139
		c0.576,0.355,1.151,0.718,1.726,1.085c0.067,0.043,0.135,0.085,0.202,0.128c0.586,0.376,1.172,0.759,1.758,1.148
		c0.055,0.037,0.111,0.073,0.166,0.11c0.594,0.396,1.188,0.799,1.782,1.207c0.048,0.033,0.097,0.066,0.145,0.099
		c0.607,0.419,1.213,0.845,1.819,1.277c0.033,0.023,0.066,0.047,0.099,0.07c0.619,0.443,1.238,0.892,1.857,1.349
		c0.021,0.015,0.041,0.03,0.062,0.045c0.627,0.464,1.254,0.934,1.879,1.412c0.013,0.01,0.026,0.02,0.039,0.03
		c0.638,0.487,1.275,0.981,1.911,1.483h0c0,0,0,0,0,0c-25.733,3.985-53.958,24.331-77.4,65.214
		c65.958-39.574,113.311-16.286,150.43,41.631c0,0.001,0.001,0.002,0.001,0.002c0-0.001-0.001-0.001-0.001-0.002
		c1.516,4.207,2.939,8.479,4.264,12.811c0.027,0.089,0.053,0.178,0.081,0.267c0.19,0.623,0.363,1.256,0.549,1.881
		c1.13,7.626,2.595,15.472,4.467,23.564c0.245,0.265,0.482,0.539,0.724,0.808c-31.83-35.227-89.412-44.987-131.654-6.109
		c44.065-2.559,79.69,12.434,109.367,39.795c-20.656,4.327-40.223,11.254-57.176,20.437c26.896,41.111,47.644,96.205,47.644,159.027
		c-60.156,12.62-93.489,67.395-100.967,135.175h244.968c-1.977-41.164-16.302-72.454-53.399-97.565
		c52.422,3.552,82.652,59.411,87.638,97.567h33.428c-7.446-67.491-42.291-122.255-102.251-135.175
		c0-66.708,22.029-117.908,48.929-159.027c-11.612-7.31-24.451-12.957-38.023-17.073c-20.743,45.753-38.545,102.496-42.378,175.988
		c-3.756-72.683,1.096-134.853,10.408-180.939C358.122,256.373,394.48,237.928,439.58,227.697z M276.884,251.587
		c0.033,0.17,0.061,0.342,0.094,0.512c-0.373-1.916-0.773-3.82-1.185-5.718c0.336,1.549,0.672,3.098,0.982,4.659
		C276.811,251.223,276.849,251.405,276.884,251.587z M299.394,316.521c0.033-0.78,0.051-1.555,0.065-2.328
		c0.001-0.045,0.003-0.091,0.004-0.136c-0.001,0.044-0.003,0.088-0.004,0.132c0.005-0.279,0.021-0.562,0.023-0.841
		C299.472,314.4,299.439,315.459,299.394,316.521z M299.356,317.343c-0.048,1.001-0.112,2.007-0.193,3.018
		c-0.004,0.053-0.007,0.106-0.011,0.159l0,0c0.089-1.078,0.153-2.149,0.206-3.217C299.357,317.316,299.357,317.33,299.356,317.343z
		 M299.355,317.362c-0.05,0.994-0.111,1.992-0.192,2.996C299.244,319.355,299.308,318.356,299.355,317.362z M299.164,320.546
		c0.617,1.394,1.253,2.798,1.889,4.201C300.413,323.342,299.781,321.94,299.164,320.546z M299.043,303.29
		c0.095,0.981,0.179,1.966,0.243,2.958C299.222,305.256,299.138,304.271,299.043,303.29z M299.294,306.352
		c0.065,1.023,0.108,2.054,0.14,3.089C299.403,308.406,299.359,307.375,299.294,306.352z M299.455,310.205
		c0.024,1.027,0.036,2.058,0.027,3.097C299.491,312.263,299.479,311.232,299.455,310.205z M298.611,299.548
		c0.136,0.988,0.252,1.985,0.356,2.986C298.863,301.533,298.747,300.536,298.611,299.548z M297.841,294.927
		c-0.123-0.66-0.245-1.32-0.384-1.972c0.201,0.942,0.382,1.893,0.554,2.848C297.958,295.509,297.896,295.22,297.841,294.927z
		 M298.147,296.582c0.157,0.918,0.304,1.839,0.434,2.768C298.452,298.422,298.304,297.5,298.147,296.582z M297.433,292.913
		c-0.328,0.878-0.638,1.766-0.939,2.659C296.795,294.678,297.104,293.79,297.433,292.913c-0.692-3.241-1.547-6.406-2.564-9.486
		c1.016,3.073,1.88,6.227,2.572,9.461C297.439,292.896,297.436,292.904,297.433,292.913
		C297.433,292.912,297.433,292.913,297.433,292.913z M291.52,274.803c0.376,0.836,0.737,1.681,1.088,2.532
		C292.258,276.484,291.896,275.64,291.52,274.803z M292.755,277.692c0.747,1.832,1.437,3.696,2.067,5.593
		C294.193,281.388,293.502,279.524,292.755,277.692z M296.228,296.386c-0.217,0.669-0.426,1.343-0.627,2.021
		C295.802,297.729,296.01,297.055,296.228,296.386z M295.349,299.252c-0.248,0.867-0.482,1.741-0.703,2.622
		C294.867,300.993,295.102,300.119,295.349,299.252z M294.392,302.949c-0.132,0.555-0.259,1.113-0.38,1.675
		C294.133,304.063,294.261,303.505,294.392,302.949z M293.725,306.012c-0.091,0.459-0.174,0.923-0.258,1.387
		C293.55,306.935,293.634,306.472,293.725,306.012z M292.972,310.456c-0.039,0.271-0.082,0.541-0.119,0.813
		C292.89,310.996,292.934,310.727,292.972,310.456z M292.617,313.236c-0.029,0.258-0.056,0.516-0.083,0.775
		C292.561,313.752,292.589,313.494,292.617,313.236z M292.084,321.158c0,0.014-0.001,0.027-0.001,0.041
		C292.083,321.185,292.084,321.171,292.084,321.158z M292.392,331.776c0.012,0.154,0.023,0.306,0.036,0.46
		c-0.012-0.144-0.032-0.293-0.043-0.437c0.003,0.005,0.006,0.01,0.01,0.015C292.394,331.801,292.393,331.789,292.392,331.776z
		 M294.24,345.15c-0.069-0.355-0.126-0.703-0.191-1.057C294.115,344.447,294.171,344.795,294.24,345.15z M293.469,340.781
		c-0.059-0.371-0.108-0.736-0.163-1.105C293.361,340.045,293.41,340.41,293.469,340.781z M292.864,336.468
		c-0.041-0.339-0.077-0.675-0.115-1.013C292.787,335.792,292.823,336.128,292.864,336.468z M302.58,328.079
		c0.57,1.234,1.138,2.467,1.726,3.709c-0.585-1.238-1.159-2.471-1.729-3.702C302.578,328.084,302.579,328.082,302.58,328.079z
		 M322.852,293.979c-0.433,0.547-0.86,1.098-1.286,1.651C321.992,295.078,322.419,294.526,322.852,293.979z M319.468,298.404
		c-0.415,0.566-0.814,1.143-1.221,1.714C318.654,299.547,319.053,298.969,319.468,298.404z M314.875,305.069
		c-0.466,0.715-0.94,1.424-1.395,2.148C313.935,306.493,314.409,305.784,314.875,305.069z M311.923,309.784
		c-0.477,0.796-0.952,1.593-1.414,2.398C310.972,311.377,311.446,310.58,311.923,309.784z M309.082,314.729
		c-0.476,0.868-0.94,1.744-1.399,2.624C308.142,316.473,308.606,315.597,309.082,314.729z M306.406,319.824
		c-0.541,1.084-1.059,2.184-1.576,3.285C305.347,322.008,305.865,320.908,306.406,319.824z M303.994,324.849
		c-0.042-0.751-0.078-1.493-0.117-2.24C303.916,323.356,303.952,324.098,303.994,324.849z M303.651,318.135
		c-0.044-0.938-0.085-1.871-0.125-2.804C303.566,316.264,303.606,317.198,303.651,318.135z M303.363,311.294
		c-0.033-0.873-0.067-1.748-0.097-2.617C303.295,309.546,303.33,310.421,303.363,311.294z M303.082,302.505
		c-0.014-0.572-0.023-1.137-0.036-1.708C303.059,301.368,303.067,301.933,303.082,302.505z M302.954,296.014
		c-0.012-0.804-0.022-1.603-0.031-2.403C302.932,294.411,302.941,295.21,302.954,296.014z M302.887,289.376
		c-0.004-0.736-0.009-1.473-0.01-2.205C302.878,287.903,302.883,288.64,302.887,289.376z M279.795,255.542
		c-0.195-0.246-0.389-0.492-0.586-0.736c0-0.002,0-0.004,0-0.005c0,0,0,0,0,0C279.407,255.045,279.6,255.295,279.795,255.542z
		 M291.462,274.67c-0.386-0.856-0.787-1.704-1.198-2.544C290.675,272.967,291.076,273.814,291.462,274.67z M289.995,271.585
		c-0.329-0.662-0.667-1.319-1.011-1.971C289.328,270.266,289.665,270.922,289.995,271.585z M288.667,269.013
		c-0.409-0.761-0.828-1.514-1.257-2.261C287.84,267.499,288.258,268.253,288.667,269.013z M286.989,266.038
		c-0.308-0.525-0.621-1.046-0.939-1.564C286.368,264.991,286.681,265.513,286.989,266.038z M285.498,263.584
		c-0.362-0.575-0.731-1.144-1.106-1.709C284.767,262.44,285.136,263.009,285.498,263.584z M283.6,260.703
		c-0.281-0.411-0.565-0.821-0.852-1.227C283.036,259.882,283.319,260.292,283.6,260.703z M281.975,258.401
		c-0.25-0.343-0.505-0.682-0.76-1.021C281.47,257.72,281.725,258.059,281.975,258.401z M289.264,327.065
		c-0.191-0.285-0.383-0.571-0.575-0.855C288.881,326.494,289.073,326.779,289.264,327.065z M285.499,321.575
		c-0.046-0.065-0.093-0.129-0.139-0.195C285.406,321.446,285.453,321.51,285.499,321.575z M282.259,317.073
		c-0.201-0.274-0.401-0.549-0.603-0.822C281.858,316.524,282.058,316.799,282.259,317.073z M274.89,198.814
		c-0.013-0.086-0.025-0.174-0.038-0.26C274.865,198.64,274.877,198.728,274.89,198.814z M278.67,237.253
		c-0.005-0.096-0.011-0.192-0.016-0.288C278.659,237.061,278.665,237.156,278.67,237.253z M278.349,231.688
		c-0.018-0.275-0.038-0.547-0.056-0.821C278.312,231.141,278.332,231.413,278.349,231.688z M277.958,226.174
		c-0.027-0.348-0.056-0.693-0.084-1.04C277.902,225.48,277.931,225.826,277.958,226.174z M277.497,220.701
		c-0.034-0.369-0.069-0.737-0.103-1.106C277.428,219.964,277.463,220.332,277.497,220.701z M276.964,215.256
		c-0.037-0.354-0.075-0.708-0.113-1.061C276.889,214.549,276.926,214.902,276.964,215.256z M276.357,209.827
		c-0.037-0.312-0.074-0.624-0.111-0.936C276.283,209.203,276.32,209.515,276.357,209.827z M275.672,204.384
		c-0.031-0.236-0.062-0.473-0.094-0.708C275.61,203.912,275.641,204.149,275.672,204.384z M271.969,230.896
		c0.044,0.159,0.088,0.319,0.132,0.479c0.132,0.474,0.25,0.956,0.379,1.432c-0.559-2.056-1.141-4.099-1.744-6.131
		C271.153,228.08,271.573,229.481,271.969,230.896z M273.869,238.081c0.086,0.345,0.162,0.695,0.248,1.041
		c-0.51-2.068-1.043-4.125-1.598-6.17c0.409,1.508,0.818,3.017,1.202,4.538C273.77,237.687,273.82,237.884,273.869,238.081z
		 M274.23,239.598c0.373,1.528,0.746,3.057,1.093,4.598c0.047,0.208,0.094,0.415,0.141,0.623c0.053,0.237,0.098,0.477,0.151,0.714
		C275.175,243.544,274.711,241.566,274.23,239.598z M276.988,252.153C276.988,252.153,276.988,252.154,276.988,252.153
		c-0.004-0.004-0.009-0.009-0.013-0.015C276.98,252.143,276.984,252.148,276.988,252.153z M278.407,311.942
		c-0.143-0.185-0.287-0.367-0.43-0.552C278.12,311.574,278.264,311.756,278.407,311.942z M274.974,307.592
		c-0.199-0.247-0.397-0.496-0.597-0.742C274.577,307.096,274.775,307.345,274.974,307.592z M259.433,290.203
		c-0.136-0.136-0.27-0.276-0.406-0.412C259.163,289.927,259.297,290.067,259.433,290.203z M271.05,302.846
		c-0.21-0.247-0.421-0.49-0.631-0.735C270.629,302.356,270.841,302.599,271.05,302.846z M267.383,298.638
		c-0.182-0.204-0.363-0.411-0.546-0.615C267.02,298.226,267.201,298.433,267.383,298.638z M263.416,294.311
		c-0.259-0.275-0.52-0.546-0.779-0.819C262.897,293.765,263.157,294.037,263.416,294.311z M255.49,286.361
		c-0.295-0.28-0.591-0.557-0.887-0.834C254.899,285.804,255.195,286.081,255.49,286.361z M304.431,332.056
		c-0.077-1.177-0.141-2.339-0.213-3.509C304.289,329.716,304.354,330.879,304.431,332.056
		C304.431,332.056,304.431,332.056,304.431,332.056z M328.772,286.951c0.041-0.046,0.084-0.09,0.126-0.136
		C328.856,286.861,328.813,286.905,328.772,286.951z M325.085,291.228c0.408-0.49,0.826-0.974,1.24-1.46
		C325.91,290.254,325.493,290.737,325.085,291.228z"/>
	<path d="M388.442,123.436c-38.955-6.847-51.498,57.958-0.793,49.886C369.744,166.707,368.442,140.338,388.442,123.436z"/>
</g>
</svg>
