<?xml version="1.0" encoding="utf-8"?>
<!-- Generator: Adobe Illustrator 17.0.0, SVG Export Plug-In . SVG Version: 6.00 Build 0)  -->
<!DOCTYPE svg PUBLIC "-//W3C//DTD SVG 1.1//EN" "http://www.w3.org/Graphics/SVG/1.1/DTD/svg11.dtd">
<svg version="1.1" id="Layer_1" xmlns="http://www.w3.org/2000/svg" xmlns:xlink="http://www.w3.org/1999/xlink" x="0px" y="0px"
	 width="613px" height="613px" viewBox="0 0 613 613" enable-background="new 0 0 613 613" xml:space="preserve">
<path d="M304.575,269.361c-14.369,6.693-28.92,15.369-43.181,25.807c13.434-19.473,28.43-34.728,43.94-45.962l16.27-162.735
	c7.128-33.033-34.142-47.705-87.315-41.025h0.003c-41.356,5.196-89.822,23.126-128.389,56.542l40.008,227.344l2.374,72.519
	l70.039,10.108l20.053-46.697l27.847,49.46c95.818,11.284,169.148-1.438,205.636-26.053
	C479.142,313.259,420.369,219.18,304.575,269.361z"/>
<path d="M502.495,391.238c6.489,3.896,10.008,8.051,10.008,12.366c0,22.215-92.92,40.224-207.538,40.224
	S97.427,425.819,97.427,403.604c0-4.335,3.553-8.509,10.102-12.422c-26.649,7.949-42.267,17.586-42.267,27.974
	c0,27.24,107.3,49.323,239.656,49.323s239.656-22.082,239.656-49.323C544.574,408.792,529.029,399.176,502.495,391.238z"/>
<path d="M98.898,393.953h-56.78l30.089,13.381C77.914,402.562,86.994,398.065,98.898,393.953z"/>
<path d="M65.262,419.156c0-4.47,2.9-8.801,8.319-12.919l-54.597,31.602l54.602-5.764C68.169,427.957,65.262,423.627,65.262,419.156z
	"/>
<path d="M83.889,438.25l-34.893,53.233l77.43-39.417C108.757,448.009,94.299,443.348,83.889,438.25z"/>
<path d="M142.295,455.381l-12.828,79.82l73.4-71.408C180.58,461.631,160.177,458.783,142.295,455.381z"/>
<path d="M222.8,465.507l13.954,92.671l60.869-89.724C271.407,468.293,246.248,467.267,222.8,465.507z"/>
<path d="M313.608,468.443l67.19,91.769l8.249-94.861C365.443,467.173,340.073,468.249,313.608,468.443z"/>
<path d="M408.922,463.605l72.655,71.601l-12.864-80.049C451.071,458.558,430.938,461.419,408.922,463.605z"/>
<path d="M526.855,437.793c-10.312,5.196-24.802,9.948-42.617,14.08l77.805,39.609L526.855,437.793z"/>
<path d="M544.574,419.156c0,4.43-2.855,8.723-8.177,12.807l55.66,5.876l-64.934-37.582l-0.068,0.363
	C538.345,406.342,544.574,412.599,544.574,419.156z"/>
<path d="M510.938,393.953c12.214,4.219,21.46,8.844,27.135,13.755l30.93-13.755H510.938z"/>
</svg>
