<?xml version="1.0" encoding="utf-8"?>
<!-- Generator: Adobe Illustrator 17.0.0, SVG Export Plug-In . SVG Version: 6.00 Build 0)  -->
<!DOCTYPE svg PUBLIC "-//W3C//DTD SVG 1.1//EN" "http://www.w3.org/Graphics/SVG/1.1/DTD/svg11.dtd">
<svg version="1.1" id="Layer_1" xmlns="http://www.w3.org/2000/svg" xmlns:xlink="http://www.w3.org/1999/xlink" x="0px" y="0px"
	 width="613px" height="613px" viewBox="0 0 613 613" enable-background="new 0 0 613 613" xml:space="preserve">
<g>
	<path d="M561.846,434.722l-77.58-77.58c-23.403-23.403-62.909-37.745-97.079-34.351c-0.002,0.003-0.004,0.006-0.005,0.009
		c7.907-13.006,14.881-26.946,21.172-41.57l-48.646-48.646c-59.704,22.915-101.078,66.491-127.077,127.077l48.646,48.646
		c15.273-4.642,28.962-10.868,41.326-18.419c-2.388,33.521,11.806,71.554,34.585,94.333l77.58,77.58
		c28.985,28.985,72.653,34.047,106.795,15.236l-10.201-10.201l35.522-35.522h0l-35.522,35.522l19.628,19.628l35.522-35.522
		l-9.427-9.427C595.893,507.373,590.83,463.707,561.846,434.722z"/>
	<path d="M210.727,381.023c-7.311-27.285-30.391-54.745-57.096-66.818c11.392-6.238,22.493-13.565,33.381-21.687l-15.197-56.716
		c-53.908-8.541-103.086,6.012-148.157,39.699l15.197,56.716c13.27,3.087,26.045,4.327,38.406,4.021
		c-16.07,23.758-21.809,57.927-14.693,84.485l24.236,90.45c9.055,33.793,39.171,56.17,72.435,56.835l-3.192-11.913l0,0l6.132,22.885
		l41.414-11.097l-2.94-10.972c28.473-17.209,43.365-51.645,34.31-85.438L210.727,381.023z"/>
	<path d="M349.015,156.543c-0.009,0.01-0.018,0.02-0.028,0.03c5.248,27.191,24.658,54.437,47.647,67.71l78.297,45.205
		c29.253,16.889,65.09,11.605,88.254-10.65l9.498,5.484l20.698-35.85l-19.81-11.437l-20.698,35.849l0,0l20.698-35.85l10.311,5.953
		c7.69-31.186-5.653-64.862-34.904-81.751l-78.297-45.205c-23.619-13.637-58.123-16.627-84.597-6.638
		c-0.005,0.017-0.011,0.034-0.016,0.051c3.527-12.052,6.108-24.65,7.999-37.647l-49.095-28.345
		c-42.635,30.972-66.273,74.482-74.046,128.25l49.095,28.345C331.201,173.087,340.778,165.202,349.015,156.543z M355.485,149.253
		c0.001-0.001,0.002-0.002,0.003-0.003C355.487,149.25,355.486,149.252,355.485,149.253z M352.296,152.973
		c0.009-0.011,0.019-0.021,0.028-0.032C352.315,152.951,352.306,152.962,352.296,152.973z"/>
</g>
</svg>
