<?xml version="1.0" encoding="utf-8"?>
<!-- Generator: Adobe Illustrator 17.0.0, SVG Export Plug-In . SVG Version: 6.00 Build 0)  -->
<!DOCTYPE svg PUBLIC "-//W3C//DTD SVG 1.1//EN" "http://www.w3.org/Graphics/SVG/1.1/DTD/svg11.dtd">
<svg version="1.1" id="Layer_1" xmlns="http://www.w3.org/2000/svg" xmlns:xlink="http://www.w3.org/1999/xlink" x="0px" y="0px"
	 width="613px" height="613px" viewBox="0 0 613 613" enable-background="new 0 0 613 613" xml:space="preserve">
<path d="M531.703,89.314c-37.835-39.439-189.595-38.299-311.41-17.574l7.726,84.502c71.67-5.353,148.252-3.856,191.383,40.075
	c41.797,45.202,39.595,121.768,30.787,193.095l84.031,11.797C560.803,280.537,569.27,129.009,531.703,89.314L531.703,89.314z
	 M196.124,76.196c-6.571,1.305-13.052,2.673-19.348,4.089l7.297,79.851c6.407-0.629,12.917-1.254,19.522-1.863L196.124,76.196
	L196.124,76.196z M528.602,425.136l-81.619-11.425c-0.928,6.568-1.866,13.04-2.804,19.409l79.405,11.144
	C525.303,438.043,526.981,431.636,528.602,425.136L528.602,425.136z M152.772,86.14c-57.738,15.284-97.653,35.31-95.333,56.47
	c2.922,26.653,45.781,25.146,102.288,19.869C159.727,162.48,152.772,86.14,152.772,86.14z M516.577,467.957l-75.915-10.633
	c-7.999,56.187-11.573,98.923,14.907,103.128C476.592,563.791,498.523,524.89,516.577,467.957L516.577,467.957z"/>
</svg>
