<?xml version="1.0" encoding="utf-8"?>
<!-- Generator: Adobe Illustrator 17.0.0, SVG Export Plug-In . SVG Version: 6.00 Build 0)  -->
<!DOCTYPE svg PUBLIC "-//W3C//DTD SVG 1.1//EN" "http://www.w3.org/Graphics/SVG/1.1/DTD/svg11.dtd">
<svg version="1.1" id="Layer_1" xmlns="http://www.w3.org/2000/svg" xmlns:xlink="http://www.w3.org/1999/xlink" x="0px" y="0px"
	 width="613px" height="613px" viewBox="0 0 613 613" enable-background="new 0 0 613 613" xml:space="preserve">
<path d="M596.807,362.775c0-126.716-41.918-273.682-148.912-342.841l-0.001-0.002l-28.203,43.625
	c27.17,16.714,41.432,32.199,55.206,59.561c-9.53,13.189-16.66,29.134-22.647,47.117c4.874,10.844,8.393,30.196,8.408,43.011
	l-42.911-7.003l-37.046,40.676l-29.782-61.013c-39.182,48.171-50.925,68.412-111.503,64.284l-17.123-52.818l-61.069,11.831
	c0,0-11.131-60.835-29.829-74.459c5.249-21.939,20.878-41.351,49.396-58.835l-27.09-50.164
	C54.555,95.261,14.231,233.398,14.231,362.776c111.057,55.852,144.19,119.322,138.017,186.675
	c16.558,9.324,33.685,18.586,53.754,23.969c27.448,7.363,56.89,10.899,87.168,10.895c30.278-0.005,61.286-3.532,90.074-10.895
	c26.065-6.668,49.717-17.083,71.187-29.782C453.471,478.114,489.19,413.372,596.807,362.775z M224.52,396.483
	c-33.775,19.501-73.228,14.509-87.832-10.785c-8.336-14.436-6.525-32.341,2.569-48.793l-0.001-0.001
	c15.342-0.262,33.429-3.344,52.905-10.787c18.554-7.087,35.945-16.798,49.823-27.221c7.173,3.77,13.424,9.439,17.464,16.435
	C274.052,340.627,258.295,376.982,224.52,396.483z M257.07,518.844c11.792-43.184,25.97-86.367,48.447-129.551
	c0-0.001-0.001-0.001-0.001-0.002h0.002c0,0.001-0.001,0.001-0.001,0.002c22.151,43.184,39.724,86.367,48.447,129.551
	C321.665,508.991,289.368,507.677,257.07,518.844z M474.246,385.699c-14.605,25.293-54.058,30.286-87.832,10.785
	c-33.775-19.501-49.532-55.856-34.927-81.152c4.04-6.996,10.291-12.665,17.464-16.435c13.877,10.423,31.269,20.134,49.823,27.221
	c19.477,7.443,37.563,10.525,52.905,10.787l-0.001,0.001C480.771,353.358,482.582,371.262,474.246,385.699z"/>
<path d="M126.125,141.593c6.324-16.684,10.622-36.892,31.053-50.03"/>
<path d="M481.536,129.26c-6.958-13.187-18.49-36.215-32.349-46.56"/>
</svg>
