<?xml version="1.0" encoding="utf-8"?>
<!-- Generator: Adobe Illustrator 17.0.0, SVG Export Plug-In . SVG Version: 6.00 Build 0)  -->
<!DOCTYPE svg PUBLIC "-//W3C//DTD SVG 1.1//EN" "http://www.w3.org/Graphics/SVG/1.1/DTD/svg11.dtd">
<svg version="1.1" id="Layer_1" xmlns="http://www.w3.org/2000/svg" xmlns:xlink="http://www.w3.org/1999/xlink" x="0px" y="0px"
	 width="612px" height="612px" viewBox="0 0 612 612" enable-background="new 0 0 612 612" xml:space="preserve">
<g transform="matrix(15 0 0 15 16 -1123.9999)">
	<path d="M19.333,85.771c4.781,5.977-3.586,3.586-13.148,3.586c4.087,1.362,7.189,2.404,9.413,3.287
		c-3.565,1.148-8.397,2.152-15.39,2.689c6.993,0.538,11.825,1.542,15.39,2.689c-2.224,0.883-5.326,1.925-9.413,3.287
		c9.563,0,17.93-2.391,13.148,3.586c1.567-0.783,3.374-1.561,5.117-2.428c2.018,1.392,3.552,2.428,6.35,2.428
		c3.825,0,7.657-3.825,7.657-9.563s-3.833-9.563-7.657-9.563c-2.817,0-4.349,1.022-6.388,2.428
		C22.679,87.337,20.891,86.55,19.333,85.771L19.333,85.771z M29.867,89.581c2.641,0,4.781,2.584,4.781,5.752
		s-2.141,5.752-4.781,5.752c-0.722,0-1.403-0.216-2.017-0.56c2.003-1.393,3.437-3.061,3.437-5.192c0-2.131-1.434-3.799-3.437-5.192
		C28.464,89.797,29.145,89.581,29.867,89.581L29.867,89.581z"/>
</g>
</svg>
