<?xml version="1.0" encoding="utf-8"?>
<!-- Generator: Adobe Illustrator 17.0.0, SVG Export Plug-In . SVG Version: 6.00 Build 0)  -->
<!DOCTYPE svg PUBLIC "-//W3C//DTD SVG 1.1//EN" "http://www.w3.org/Graphics/SVG/1.1/DTD/svg11.dtd">
<svg version="1.1" id="Layer_1" xmlns="http://www.w3.org/2000/svg" xmlns:xlink="http://www.w3.org/1999/xlink" x="0px" y="0px"
	 width="613px" height="613px" viewBox="0 0 613 613" enable-background="new 0 0 613 613" xml:space="preserve">
<path d="M120.981,435.68c-59.948,16.29-98.672,40.418-98.672,67.182c0,49.03,127.328,88.875,284.121,88.875
	s284.121-39.845,284.121-88.875c0-26.669-38.394-50.895-97.973-67.182c20.596,10.613,32.891,23.009,32.891,36.39
	c0,38.406-98.386,69.98-219.038,69.98S88.094,510.473,88.094,472.07c0-13.452,12.085-25.742,32.891-36.39H120.981z"/>
<g>
	<polygon points="364.25,64.198 364.254,64.201 364.252,64.196 	"/>
	<path d="M447.352,211.562c-7.014,98.149-84.262,59.814-52.632-69.803c7.764-31.82-14.386-68.386-30.466-77.558
		c31.612,80.233-70.811,140.19-68.146,42.1c-48.068,44.135-15.315,100.685,5.719,145.684c15.945,34.119,14.759,64.341-12.096,75.849
		c-19.167,8.211-40.484-13.855-47.362-36.494c-3.06-10.073-2.042-24.984,1.108-45.425c-25.2,51.159-64.521,54.873-45.984-37.677
		c-71.248,81.079-45.505,237.692,53.809,285.525c-15.525-30.436-24.047-68.215-17.001-100.418c0,0,0,0,0-0.001l0,0c0,0,0,0,0,0.001
		c43.449,94.208,144.741,1.72,150.636-82.554c16.128,53.329,13.865,131.171-12.944,187.018
		C480.082,455.615,504.333,292.852,447.352,211.562z"/>
</g>
</svg>
