<?xml version="1.0" encoding="utf-8"?>
<!-- Generator: Adobe Illustrator 17.0.0, SVG Export Plug-In . SVG Version: 6.00 Build 0)  -->
<!DOCTYPE svg PUBLIC "-//W3C//DTD SVG 1.1//EN" "http://www.w3.org/Graphics/SVG/1.1/DTD/svg11.dtd">
<svg version="1.1" id="Layer_1" xmlns="http://www.w3.org/2000/svg" xmlns:xlink="http://www.w3.org/1999/xlink" x="0px" y="0px"
	 width="613px" height="613px" viewBox="0 0 613 613" enable-background="new 0 0 613 613" xml:space="preserve">
<path d="M74.229,74.762c57.934,11.168,146.766,98.955,154.836,154.836C176.772,224.049,86.311,136.368,74.229,74.762z"/>
<path d="M286.851,126.748l-69.646,69.646c6.197,11.692,10.384,22.983,11.86,33.204c-10.044-1.066-21.499-5.171-33.534-11.53
	l-76.465,76.465l31.705,31.705l167.785-167.785L286.851,126.748z"/>
<path d="M74.229,74.762c6.123,1.18,12.593,3.225,19.274,5.989l18.848-18.848L71.643,21.195L18.86,73.977l40.708,40.709l20.6-20.6
	C77.475,87.455,75.447,80.974,74.229,74.762z"/>
<path d="M505.452,414.108l-48.642,8.667l9.125-47.904l-48.475,8.554l9.695-47.333l-47.904,9.125l9.125-47.904l-48.475,8.554l0,0l0,0
	l0,0l9.295-48.548l-56.411-56.411l-89.608,89.607l0.001,0.001L421.702,509.04c41.981,41.985,111.657,92.929,169.391,79.79
	C563.082,563.389,493.39,461.306,505.452,414.108z"/>
</svg>
