<?xml version="1.0" encoding="utf-8"?>
<!-- Generator: Adobe Illustrator 17.0.0, SVG Export Plug-In . SVG Version: 6.00 Build 0)  -->
<!DOCTYPE svg PUBLIC "-//W3C//DTD SVG 1.1//EN" "http://www.w3.org/Graphics/SVG/1.1/DTD/svg11.dtd">
<svg version="1.1" id="Layer_1" xmlns="http://www.w3.org/2000/svg" xmlns:xlink="http://www.w3.org/1999/xlink" x="0px" y="0px"
	 width="613px" height="613px" viewBox="0 0 613 613" enable-background="new 0 0 613 613" xml:space="preserve">
<path d="M309.955,28.927c48.363-1.922,95.748,12.039,141.446,37.901L440.984,105.7c-53.646,6.444-98.277-3.627-141.446-37.901
	L309.955,28.927z"/>
<path d="M396.303,271.642c10.772-7.068,18.832-16.596,21.99-28.365c5.873-21.897-5.902-45.07-27.85-62.277l19.69-73.486
	c-31.49-0.247-60.044-7.546-87.501-23.769l-19.6,73.144c-28.017,3.763-50.137,18.366-56.07,40.481
	c-3.197,11.914-1.267,24.58,4.689,36.199c-65.506,15.857-123.231,71.289-143.939,148.493c-10.975,40.914-9.963,81.67,0.583,118.012
	c82.935,61.47,174.324,93.32,279.374,74.856c27.175-26.173,48.578-61.153,59.51-101.909
	C468.008,395.348,445.716,317.999,396.303,271.642z M384.246,434.329c-20.692-3.679-37.335,4.851-45.888,25.704L218.27,427.855
	c3.737-19.835-8.422-39.205-27.809-45.43l15.056-56.133c19.913,4.27,40.357-7.259,47.072-26.38l120.086,32.18
	c-3.697,19.582,7.828,39.491,26.628,46.106L384.246,434.329z"/>
</svg>
