<?xml version="1.0" encoding="utf-8"?>
<!-- Generator: Adobe Illustrator 17.0.0, SVG Export Plug-In . SVG Version: 6.00 Build 0)  -->
<!DOCTYPE svg PUBLIC "-//W3C//DTD SVG 1.1//EN" "http://www.w3.org/Graphics/SVG/1.1/DTD/svg11.dtd">
<svg version="1.1" id="Layer_1" xmlns="http://www.w3.org/2000/svg" xmlns:xlink="http://www.w3.org/1999/xlink" x="0px" y="0px"
	 width="613px" height="613px" viewBox="0 0 613 613" enable-background="new 0 0 613 613" xml:space="preserve">
<path d="M93.1,153.66c4.995-28.273,25.949-51.021,53.235-58.614l-81.67-81.513H12.308l0.002,0.001V72.87L93.1,153.66z"/>
<path d="M151.7,228.825c0-41.073,33.295-74.368,74.368-74.368c4.719,0,9.328,0.459,13.803,1.299
	c-5.284-35.892-36.201-63.445-73.562-63.445c-41.073,0-74.368,33.295-74.368,74.368c0,36.354,26.091,66.595,60.565,73.069
	C151.981,236.182,151.7,232.537,151.7,228.825z"/>
<path d="M584.441,585.845L150.657,418.619l19.752-56.408l158.022-32.376l32.378-158.021l57.086-20.433L584.441,585.845z"/>
<polygon points="328.431,329.835 360.611,172.782 352.596,151.854 150.131,354.32 170.547,362.183 "/>
<path d="M204.458,299.993l92.778-92.778c-9.259-30.531-37.612-52.758-71.167-52.758c-41.073,0-74.368,33.295-74.368,74.368
	C151.7,262.381,173.927,290.735,204.458,299.993z"/>
</svg>
