<?xml version="1.0" encoding="utf-8"?>
<!-- Generator: Adobe Illustrator 17.0.0, SVG Export Plug-In . SVG Version: 6.00 Build 0)  -->
<!DOCTYPE svg PUBLIC "-//W3C//DTD SVG 1.1//EN" "http://www.w3.org/Graphics/SVG/1.1/DTD/svg11.dtd">
<svg version="1.1" id="Layer_1" xmlns="http://www.w3.org/2000/svg" xmlns:xlink="http://www.w3.org/1999/xlink" x="0px" y="0px"
	 width="613px" height="613px" viewBox="0 0 613 613" enable-background="new 0 0 613 613" xml:space="preserve">
<g>
	<path d="M504.915,463.953l-18.653-46.75L343.453,288.586c70.369-34.328,150.54-30.728,170.46,62.515
		c109.662-86.767,86.547-215.565,4.274-331.638c20.822,59.702-22.729,119.181-88.999,61.423
		c30.761,67.196-34.349,109.084-78.924,69.969c21.01,68.219-19.952,92.815-62.057,87.975l-79.787-71.858
		c24.673-22.066,51.699-41.714,80.888-58.566l-50.959-50.96l-71.205,71.205C118.9,108.773,82.141,69.745,54.057,16.26L17.06,53.259
		c47.316,23.904,87.423,57.9,112.39,113.09l-71.205,71.204l51.658,50.96c16.932-29.328,36.663-56.718,58.948-81.818l74.002,82.361
		c3.822,41.828-21.067,81.576-88.19,60.677c39.12,45.067-2.768,110.892-69.965,79.794c57.758,66.997-1.726,111.025-61.422,89.977
		c116.074,83.181,244.872,106.548,331.64-4.322l-0.001-0.004c-92.862-20.056-96.816-100.526-62.941-171.454l126.727,141.041
		l46.354,18.496c-13.179,8.227-28.297,14.517-45.373,18.848l171.473,66.445L524.71,417.075
		C520.214,434.804,513.611,450.424,504.915,463.953z"/>
</g>
</svg>
