<?xml version="1.0" encoding="utf-8"?>
<!-- Generator: Adobe Illustrator 17.0.0, SVG Export Plug-In . SVG Version: 6.00 Build 0)  -->
<!DOCTYPE svg PUBLIC "-//W3C//DTD SVG 1.1//EN" "http://www.w3.org/Graphics/SVG/1.1/DTD/svg11.dtd">
<svg version="1.1" id="Layer_1" xmlns="http://www.w3.org/2000/svg" xmlns:xlink="http://www.w3.org/1999/xlink" x="0px" y="0px"
	 width="613px" height="613px" viewBox="0 0 613 613" enable-background="new 0 0 613 613" xml:space="preserve">
<g>
	<path d="M375.923,536.613l-27.955-62.02l-24.911,71.624l-24.91-70.85l-29.612,61.246l-18.651-65.724
		c-22.663,28.48-21.533,54.38-21.832,85.439c66.904,25.796,129.1,23.795,191.733,0c3.179-33.732-3.483-60.979-23.554-84.659
		L375.923,536.613z"/>
	<path d="M250.515,362.512l22.321-63.46l24.711,69.039l25.508-63.58l25.509,64.382l25.509-69.841l22.321,64.262
		c21.083-38.264,24.917-90.304,12.755-128.567l82.106-0.001L445.818,46.618h-0.002c-81.84-31.572-164.569-28.06-245.522,0
		l-45.437,188.128h82.903C219.818,278.774,231.811,328.447,250.515,362.512z M433.799,131.819l14.314,66.057l-96.163-8.609
		C369.949,158.045,399.637,142.026,433.799,131.819z M323.215,227.624l29.717,39.24h-59.434L323.215,227.624z M198.415,197.876
		l14.314-66.057c35.898,7.665,65.384,23.869,81.849,57.448L198.415,197.876z"/>
	<path d="M501.337,376.321c-102.744,19.999-220.895,19.928-334.821,8.612c4.417,0.439,8.842,0.855,13.27,1.259l3.694-31.252
		c2.764,1.138,5.806,1.717,8.99,1.547c11.453-0.61,20.242-10.391,19.632-21.844c-0.61-11.453-10.388-20.239-21.842-19.629
		s-20.242,10.391-19.632,21.839c0.239,4.483,1.896,8.545,4.495,11.808c-7.036,16.151-12.406,33.756-15.817,51.672
		c-26.769-23.346-59.441-28.64-95.883-22.404c0.002,0,0.003-0.001,0.005-0.001c-2.835-8.094-10.521-13.907-19.583-13.907
		c-11.469,0-20.766,9.299-20.766,20.763c0,11.469,9.297,20.768,20.766,20.768c5.435,0,10.366-2.105,14.067-5.522
		c-0.005-0.003-0.01-0.007-0.015-0.01c30.647,21.324,63.605,27.126,98.383,20.719c-2.453,23.334-1.423,46.432,3.682,66.787
		c-3.994,4.018-6.355,9.629-6.031,15.729c0.61,11.453,10.389,20.244,21.842,19.634c11.453-0.611,20.242-10.392,19.632-21.845
		c-0.61-11.453-10.388-20.239-21.842-19.628c-1.792,0.096-3.509,0.439-5.145,0.955l4.913-41.563
		c124.48,18.606,335.464,34.749,422.289-55.876L501.337,376.321z M57.327,379.074c-0.078,0.016-0.156,0.032-0.233,0.048
		C57.171,379.106,57.249,379.09,57.327,379.074z M50.955,380.469c-0.004,0.001-0.007,0.002-0.011,0.003
		C50.948,380.471,50.952,380.47,50.955,380.469z M44.828,381.998c-0.156,0.041-0.313,0.083-0.469,0.124
		C44.516,382.081,44.672,382.039,44.828,381.998z M42.414,387.726c1.122,1.005,2.248,1.99,3.377,2.95
		C44.662,389.716,43.537,388.731,42.414,387.726z M38.198,383.837c1.146,1.093,2.297,2.153,3.45,3.197
		C40.495,385.99,39.344,384.93,38.198,383.837z M54.348,397.464c1.091,0.807,2.185,1.599,3.283,2.367
		C56.533,399.064,55.439,398.271,54.348,397.464z M46.403,391.188c1.013,0.852,2.028,1.686,3.046,2.502
		C48.431,392.874,47.416,392.04,46.403,391.188z M50.125,394.234c1.124,0.891,2.252,1.758,3.382,2.606
		C52.376,395.992,51.249,395.125,50.125,394.234z M183.406,331.765c0.204-0.372,0.407-0.746,0.613-1.116
		C183.813,331.018,183.611,331.393,183.406,331.765z M180.897,336.48c-0.081,0.157-0.162,0.312-0.243,0.469
		C180.735,336.792,180.817,336.637,180.897,336.48z M166.511,384.933v22.278c0,0,0,0,0,0L166.511,384.933L166.511,384.933z
		 M161.435,419.697c-0.022,0.005-0.044,0.01-0.066,0.015C161.391,419.707,161.413,419.701,161.435,419.697z M165.721,505.194
		c-0.588-1.42-1.147-2.862-1.682-4.324C164.576,502.33,165.134,503.774,165.721,505.194l0.742-6.275L165.721,505.194z
		 M166.511,439.776v-21.269c0,0,0,0,0,0L166.511,439.776c1.413,0.218,2.852,0.435,4.29,0.652
		C169.359,440.211,167.925,439.994,166.511,439.776z M170.438,417.487c1.343-0.367,2.687-0.744,4.035-1.145
		C173.125,416.743,171.78,417.123,170.438,417.487z M168.429,409.255c0.088,0.096,0.176,0.193,0.264,0.289
		C168.605,409.448,168.517,409.352,168.429,409.255z M170.305,411.348c0.138,0.157,0.276,0.314,0.413,0.472
		C170.581,411.662,170.443,411.505,170.305,411.348z M172.194,413.553c0.147,0.176,0.295,0.349,0.442,0.526
		C172.489,413.901,172.341,413.729,172.194,413.553z"/>
</g>
</svg>
