<?xml version="1.0" encoding="utf-8"?>
<!-- Generator: Adobe Illustrator 17.0.0, SVG Export Plug-In . SVG Version: 6.00 Build 0)  -->
<!DOCTYPE svg PUBLIC "-//W3C//DTD SVG 1.1//EN" "http://www.w3.org/Graphics/SVG/1.1/DTD/svg11.dtd">
<svg version="1.1" id="Layer_1" xmlns="http://www.w3.org/2000/svg" xmlns:xlink="http://www.w3.org/1999/xlink" x="0px" y="0px"
	 width="613px" height="613px" viewBox="0 0 613 613" enable-background="new 0 0 613 613" xml:space="preserve">
<path d="M510.582,21.549H460.32h-0.003l5.065,45.191H150.974l5.051-45.068h-50.259L12.92,435.635v152.878H92.5l54.809-489.067
	h153.966v48.255c-8.866,2.883-15.278,11.21-15.278,21.036c0,0.937,0.065,1.858,0.178,2.764
	c-43.86,10.451-62.73,53.711-85.643,139.256l0.002,0.001c-22.414,83.683-57.88,75.633-57.873,130.711
	c0.005,29.831,65.698,48.748,142.729,52.07c-1.025,2.933-1.589,6.083-1.589,9.366c0.002,15.672,12.711,28.378,28.386,28.38
	s28.379-12.7,28.377-28.371c0-3.365-0.59-6.591-1.665-9.585c75.011-3.841,138.083-22.571,138.079-51.817
	c-0.009-55.072-35.469-47.033-57.911-130.722c-23.495-87.625-42.739-130.883-88.926-139.978c0.064-0.683,0.1-1.375,0.1-2.075
	c0-9.25-5.68-17.17-13.741-20.473V99.446h152.547l54.797,488.945h79.581V435.51L510.582,21.549z"/>
</svg>
