<?xml version="1.0" encoding="utf-8"?>
<!-- Generator: Adobe Illustrator 17.0.0, SVG Export Plug-In . SVG Version: 6.00 Build 0)  -->
<!DOCTYPE svg PUBLIC "-//W3C//DTD SVG 1.1//EN" "http://www.w3.org/Graphics/SVG/1.1/DTD/svg11.dtd">
<svg version="1.1" id="Layer_1" xmlns="http://www.w3.org/2000/svg" xmlns:xlink="http://www.w3.org/1999/xlink" x="0px" y="0px"
	 width="613px" height="613px" viewBox="0 0 613 613" enable-background="new 0 0 613 613" xml:space="preserve">
<g>
	<path d="M387.783,243.987c-4.159,0-8.162,0.528-12.168,1.098c11.667-14.924,18.802-33.779,18.802-54.198
		c0-48.597-38.784-87.379-87.378-87.382c-48.594,0.003-88.482,38.785-88.482,87.382c0,20.246,7.305,39.326,18.802,54.198
		c-3.661-0.458-7.278-1.098-11.062-1.098c-48.597,0-88.488,39.889-88.488,88.488s39.891,88.488,88.488,88.488
		c19.828,0,38.136-6.656,52.868-17.799l-44.4,106.332l143.421-0.009L333.13,401.589c15.064,12.049,34.075,19.374,54.652,19.374
		c48.601,0,87.384-39.889,87.384-88.488S436.38,243.987,387.783,243.987z"/>
</g>
</svg>
