<?xml version="1.0" encoding="utf-8"?>
<!-- Generator: Adobe Illustrator 17.0.0, SVG Export Plug-In . SVG Version: 6.00 Build 0)  -->
<!DOCTYPE svg PUBLIC "-//W3C//DTD SVG 1.1//EN" "http://www.w3.org/Graphics/SVG/1.1/DTD/svg11.dtd">
<svg version="1.1" id="Layer_1" xmlns="http://www.w3.org/2000/svg" xmlns:xlink="http://www.w3.org/1999/xlink" x="0px" y="0px"
	 width="613px" height="613px" viewBox="0 0 613 613" enable-background="new 0 0 613 613" xml:space="preserve">
<path d="M601.256,384.699c-27.617-21.771-61.145-32.941-94.417-33.721v0.011c-5.602-0.245-10.91,0.267-16.486,0.736
	c-20.334,1.752-40.626,7.49-59.305,17.299l-15.9-14.403c14.163-39.185,5.568-84.8-25.804-116.159l-70.576-50.426
	c-21.068-21.057-49.545-30.776-76.99-28.409c-12.835,1.102-25.509,4.915-37.146,11.328l-5.374-4.874
	c9.66-24.634,4.565-53.758-15.312-73.633l-43.68-31.224c-13.039-13.035-30.664-19.05-47.648-17.588
	c-3.905,0.337-7.785,1.086-11.579,2.222L46.634,13.683h-35.26v33.372l31.214,35.17c-7.737,21.216-3.172,46.075,13.725,62.983
	l30.631,43.685c15.047,15.052,35.422,22.115,55.025,20.424c6.445-0.519,12.847-2.066,18.979-4.551l4.961,5.845
	c-18.904,36.392-13.171,82.691,17.21,113.081l49.494,70.561c24.313,24.313,57.234,35.717,88.906,32.99
	c10.91-0.901,21.748-3.593,32.084-7.947l12.795,15.058c-27.721,53.856-22.233,121.088,16.049,169.897h137.093l-39.54-48.119
	c-6.168-6.554-10.4-14.067-12.725-21.94c16.295,2.982,33.453-1.704,46.368-14.594c14.537-14.51,19.178-34.388,13.982-52.383
	c9.564,2.024,18.831,6.872,26.841,14.435l46.788,42.845l0.089,79.756h0.001L601.256,384.699z M87.693,120.719
	c-4.328-4.598-6.195-10.436-5.644-16.116c4.531-1.138,8.838-3.499,12.472-7.139c3.409-3.413,5.757-7.41,7.05-11.628
	c5.292-0.175,10.657,1.843,15.033,5.972l34.994,31.955c1.834,1.949,3.271,4.102,4.349,6.365c-8.01-2.411-16.718-0.479-23.339,6.147
	c-7.397,7.402-9.271,17.74-5.617,26.631c-3.372-1.136-6.578-3.03-9.373-5.668L87.693,120.719z M231.084,282.615
	c-3.181-3.38-5.554-7.169-7.126-11.16c11.037,3.59,23.337,1.157,32.277-7.78c10.363-10.359,12.422-25.227,6.228-37.431
	c5.732,1.405,11.26,4.398,16.06,8.929l57.43,52.438c3.035,3.228,5.43,6.789,7.204,10.538c-11.82-1.969-24.101,1.653-33.718,11.267
	c-12.137,12.133-15.292,29.05-9.413,43.654c-7.149-1.513-14.031-5.043-19.835-10.523L231.084,282.615z"/>
</svg>
