<?xml version="1.0" encoding="utf-8"?>
<!-- Generator: Adobe Illustrator 17.0.0, SVG Export Plug-In . SVG Version: 6.00 Build 0)  -->
<!DOCTYPE svg PUBLIC "-//W3C//DTD SVG 1.1//EN" "http://www.w3.org/Graphics/SVG/1.1/DTD/svg11.dtd">
<svg version="1.1" id="Layer_1" xmlns="http://www.w3.org/2000/svg" xmlns:xlink="http://www.w3.org/1999/xlink" x="0px" y="0px"
	 width="613px" height="613px" viewBox="0 0 613 613" enable-background="new 0 0 613 613" xml:space="preserve">
<path d="M214.314,227.704c4.154,5.826,6.522,12.948,6.522,20.98c0,25.405-23.644,50.249-52.808,55.487s-52.808-11.109-52.808-36.517
	c0-5.007,0.931-9.99,2.629-14.808L12.635,280.269v138.593c4.649-2.217,9.266-4.746,14.335-5.91
	c29.569-6.798,53.565,9.017,53.565,34.811s-23.997,52.32-53.565,59.115c-5.01,1.146-9.737,1.377-14.335,1.314v40.066l258.922-67.5
	c-6.799-9.027-10.766-19.817-10.766-31.418c0-31.693,29.51-57.386,65.911-57.386c35.696,0,64.745,24.712,65.858,55.555
	c1.103,0.299,2.202,0.591,3.317,0.91l201.43-51.891V127.883L214.314,227.704z M474.448,371.492
	c-19.477,0-35.266-13.754-35.266-30.721s15.789-30.721,35.266-30.721s35.267,13.754,35.267,30.721S493.925,371.492,474.448,371.492z
	"/>
<g>
	<path d="M274.82,54.245l-19.577,16.522c23.82,12.255,27.97,37.105,9.221,55.626c-18.816,18.587-53.568,23.759-77.616,11.551
		c-2.367-1.201-4.534-2.531-6.514-3.961L20.031,269.263l549.26-144.153C507.848,71.618,388.262,45.873,274.82,54.245z"/>
	<path d="M569.291,125.111L569.291,125.111L569.291,125.111z"/>
</g>
</svg>
