<?xml version="1.0" encoding="utf-8"?>
<!-- Generator: Adobe Illustrator 17.0.0, SVG Export Plug-In . SVG Version: 6.00 Build 0)  -->
<!DOCTYPE svg PUBLIC "-//W3C//DTD SVG 1.1//EN" "http://www.w3.org/Graphics/SVG/1.1/DTD/svg11.dtd">
<svg version="1.1" id="Layer_1" xmlns="http://www.w3.org/2000/svg" xmlns:xlink="http://www.w3.org/1999/xlink" x="0px" y="0px"
	 width="613px" height="613px" viewBox="0 0 613 613" enable-background="new 0 0 613 613" xml:space="preserve">
<path d="M595.451,136.494l-75.08,80.296l-27.879-99.301l-62.365,86.292l-29.642-67.288l-49.907,88.276l-48.912-85.14l-41.138,86.306
	l-59.013-89.441l-23.157,79.283l-67.681-90.039l2.303,106.593l-98.42-95.837L98.69,409.63
	c14.851,30.438,85.899,53.971,211.072,56.425c132.446,2.599,212.908-20.967,226.934-56.428l-0.002,0.003L595.451,136.494z
	 M127.545,396.381c-16.45,0-29.784-13.337-29.784-29.783s13.334-29.783,29.784-29.783c16.45,0,29.784,13.337,29.784,29.783
	C157.329,383.047,143.995,396.381,127.545,396.381z M231.328,425.047c-16.45,0-29.784-13.337-29.784-29.783
	s13.334-29.783,29.784-29.783s29.784,13.337,29.784,29.783C261.112,411.712,247.778,425.047,231.328,425.047z M388.195,425.047
	c-16.45,0-29.784-13.337-29.784-29.783s13.334-29.783,29.784-29.783s29.784,13.337,29.784,29.783
	C417.979,411.712,404.645,425.047,388.195,425.047z M503.545,396.381c-16.45,0-29.784-13.337-29.784-29.783
	s13.334-29.783,29.784-29.783c16.45,0,29.784,13.337,29.784,29.783C533.329,383.047,519.995,396.381,503.545,396.381z"/>
</svg>
