<?xml version="1.0" encoding="utf-8"?>
<!-- Generator: Adobe Illustrator 17.0.0, SVG Export Plug-In . SVG Version: 6.00 Build 0)  -->
<!DOCTYPE svg PUBLIC "-//W3C//DTD SVG 1.1//EN" "http://www.w3.org/Graphics/SVG/1.1/DTD/svg11.dtd">
<svg version="1.1" id="Layer_1" xmlns="http://www.w3.org/2000/svg" xmlns:xlink="http://www.w3.org/1999/xlink" x="0px" y="0px"
	 width="613px" height="613px" viewBox="0 0 613 613" enable-background="new 0 0 613 613" xml:space="preserve">
<g>
	<path d="M303.518,24.932c-155.267,0-281.136,125.87-281.136,281.136s125.864,281.136,281.136,281.136
		S584.66,461.336,584.66,306.069S458.785,24.932,303.518,24.932z M306.687,547.233c-133.697,0-242.079-108.381-242.079-242.079
		S172.99,63.071,306.687,63.071s242.079,108.385,242.079,242.083S440.383,547.233,306.687,547.233z"/>
	<path d="M307.7,136.99c-93.029,0-168.444,75.413-168.444,168.443S214.671,473.88,307.7,473.88s168.444-75.417,168.444-168.447
		C476.144,212.407,400.729,136.99,307.7,136.99z M385.128,385.041l-29.613-51.328h59.25
		C409.681,353.505,399.258,371.152,385.128,385.041z M355.515,278.54l29.643-51.381c14.134,13.904,24.554,31.57,29.627,51.381
		H355.515z M337.272,199.417l-29.734,51.535L277.8,199.409c9.459-2.63,19.425-4.041,29.721-4.041
		C317.828,195.368,327.804,196.782,337.272,199.417z M259.561,278.54h-59.302c5.075-19.821,15.503-37.495,29.647-51.402
		L259.561,278.54z M200.279,333.713h59.282l-29.625,51.348C215.796,371.169,205.366,353.515,200.279,333.713z M307.521,416.802
		c-10.282,0-20.234-1.407-29.68-4.029l29.697-51.472l29.692,51.464C327.775,415.392,317.813,416.802,307.521,416.802z"/>
</g>
</svg>
