<?xml version="1.0" encoding="utf-8"?>
<!-- Generator: Adobe Illustrator 17.0.0, SVG Export Plug-In . SVG Version: 6.00 Build 0)  -->
<!DOCTYPE svg PUBLIC "-//W3C//DTD SVG 1.1//EN" "http://www.w3.org/Graphics/SVG/1.1/DTD/svg11.dtd">
<svg version="1.1" id="Layer_1" xmlns="http://www.w3.org/2000/svg" xmlns:xlink="http://www.w3.org/1999/xlink" x="0px" y="0px"
	 width="613px" height="613px" viewBox="0 0 613 613" enable-background="new 0 0 613 613" xml:space="preserve">
<path d="M482.387,155.819l33.658-59.138l-59.156,33.668c-91.32-78.223-229.07-74.117-315.511,12.325
	C54.937,229.115,50.83,366.862,129.05,458.182l-33.675,59.169l59.151-33.665c91.319,78.371,229.185,74.31,315.679-12.185
	C556.7,385.006,560.761,247.138,482.387,155.819z M470.672,143.153C470.672,143.153,470.672,143.153,470.672,143.153l35.551-35.55
	L470.672,143.153z M305.572,308.253l-57.328-57.328l0.001,0l57.327,57.327l117.58-117.579c0,0,0,0,0,0L305.572,308.253z
	 M188.982,190.13c55.405-55.404,140.367-63.229,204.123-23.478l-145.149,82.61l-82.487,144.933
	C125.759,330.445,133.594,245.517,188.982,190.13z M422.622,423.77c-55.398,55.398-140.347,63.227-204.1,23.493l108.334-61.657
	l36.047-20.026l-0.312-0.312l0.873-0.497l82.615-145.157C485.854,283.373,478.036,368.355,422.622,423.77z"/>
</svg>
