<?xml version="1.0" encoding="utf-8"?>
<!-- Generator: Adobe Illustrator 17.0.0, SVG Export Plug-In . SVG Version: 6.00 Build 0)  -->
<!DOCTYPE svg PUBLIC "-//W3C//DTD SVG 1.1//EN" "http://www.w3.org/Graphics/SVG/1.1/DTD/svg11.dtd">
<svg version="1.1" id="Layer_1" xmlns="http://www.w3.org/2000/svg" xmlns:xlink="http://www.w3.org/1999/xlink" x="0px" y="0px"
	 width="613px" height="613px" viewBox="0 0 613 613" enable-background="new 0 0 613 613" xml:space="preserve">
<g>
	<path d="M279.111,331.143c-18.492-18.657-31.115-52.299-31.115-91.07c0-58.847,37.399-106.609,63.646-106.609
		c25.261,0,63.646,47.76,63.646,106.609c0,36.327-11.235,67.936-27.816,87.186c43.148-21.537,74.017-42.698,74.017-109.52
		C421.488,132.445,341.663,28.15,309.284,28.15c-33.365,0-112.205,104.295-112.205,189.588
		C197.079,288.681,231.769,313.022,279.111,331.143z"/>
	<path d="M409.061,370.445v-29.437c-32.288,11.988-65.082,17.787-97.636,17.833c2.862-35.09,1.765-71.438-5.174-118.818
		l-2.477,118.735c-31.014-0.816-61.755-6.85-91.573-17.75v114.221c-3.982,30.583-26.801,36.411-26.394,63.802
		c0.347,23.361,17.91,31.073,26.394,21.07v43.338h196.86V477.89c10.301,13.007,32.47,3.606,32.902-25.522
		C442.478,417.649,412.686,411.073,409.061,370.445z"/>
</g>
</svg>
