<?xml version="1.0" encoding="utf-8"?>
<!-- Generator: Adobe Illustrator 17.0.0, SVG Export Plug-In . SVG Version: 6.00 Build 0)  -->
<!DOCTYPE svg PUBLIC "-//W3C//DTD SVG 1.1//EN" "http://www.w3.org/Graphics/SVG/1.1/DTD/svg11.dtd">
<svg version="1.1" id="Layer_1" xmlns="http://www.w3.org/2000/svg" xmlns:xlink="http://www.w3.org/1999/xlink" x="0px" y="0px"
	 width="613px" height="613px" viewBox="0 0 613 613" enable-background="new 0 0 613 613" xml:space="preserve">
<g>
	<path d="M244.394,522.248c-5.39-11.005-24.488-13.931-28.413,0.72c-3.437,12.781,9.406,21.316,19.352,19.298
		c0.987,33.092,54.381,35.871,54.381,2.073C289.714,519.073,259.874,510.959,244.394,522.248z"/>
	<path d="M541.501,263.102c0-25.982-41.425-28.156-41.425-2.291C500.076,286.681,541.501,289.084,541.501,263.102z"/>
	<path d="M147.621,362.108c-4.811-16.735-34.98-19.768-40.697,1.566c-5.038,18.796,16.488,28.225,30.429,21.281
		c0.999,27.622,48.119,34.55,56.483,3.329C201.274,360.524,166.001,347.549,147.621,362.108z"/>
	<path d="M38.228,206.379c0,25.87,41.425,28.273,41.425,2.291S38.228,180.512,38.228,206.379z"/>
	<path d="M216.658,267.819c0,17.634,19.244,24.359,31.499,18.629l-28.814-28.661C217.657,260.466,216.658,263.804,216.658,267.819z"
		/>
	<path d="M382.818,103.881c0-25.982-41.425-28.156-41.425-2.291C341.393,127.46,382.818,129.863,382.818,103.881z"/>
	<path d="M410.359,218.426c0.343-0.198,0.665-0.407,0.998-0.61c4.284,12.235,24.898,16.119,29.04,0.82
		c2.825-10.43-5.222-18.036-13.686-19.39c9.564-29.372-25.517-68.536-60.484-48.346
		C322.479,176.159,366.792,243.579,410.359,218.426z"/>
	<path d="M359.19,544.743c-16.62,9.576-2.75,37.042,13.906,27.487S375.823,535.142,359.19,544.743z"/>
	<path d="M143.161,223.285c0,39.545,49.75,50.892,71.089,29.435l-57.86-57.553C148.486,201.037,143.161,210.356,143.161,223.285z"/>
	<path d="M91.149,130.272C91.149,130.272,91.149,130.272,91.149,130.272L45.438,84.803c-9.615,4.152-16.776,12.909-16.776,26.514
		c0,29.952,34.698,40.233,53.89,27.888c-0.025,0.431-0.06,0.855-0.06,1.303c0,19.593,23.758,25.72,35.289,16.255L91.149,130.272z"/>
	<path d="M100.694,42.021c0-20.642-26.144-26.255-36.892-14.721l29.669,29.514C97.768,53.826,100.694,48.926,100.694,42.021z"/>
	<path d="M151.278,114.318l43.532,43.303c0,0,0,0-0.001,0.001l46.592,46.347c7.657-4.596,13.022-12.676,13.022-24.433
		c0-18.899-13.852-29.837-28.824-32.168c2.712-4.909,4.292-10.869,4.292-17.912c0-36.106-41.442-48.403-64.672-33.834
		c-5.337-18.937-31.838-23.121-43.481-10.689L151.278,114.318C151.278,114.318,151.278,114.318,151.278,114.318z"/>
	<path d="M550.603,493.632c20.963-2.013,39.679-15.85,39.679-42.522c-0.001-23.874-14.993-39.125-33.17-45.165
		c0.146-1.625,0.229-3.295,0.229-5.023c0-7.588-1.446-14.345-3.99-20.255c8.06-3.33,14.107-10.556,14.107-21.926
		c0-8.164-3.12-14.532-7.861-19.039c0.791-0.295,1.589-0.647,2.397-1.11c16.656-9.555,2.727-37.088-13.906-27.487
		c-8.268,4.764-8.987,13.953-5.575,20.811c-7.041-0.868-14.283,0.547-19.826,4.345c-2.661-21.755-21.238-33.564-39.856-34.615
		c1.133-3.59,1.763-7.591,1.763-12.025c0-49.282-76.606-54.537-80.463-8.133c-14.168-4.146-29.731-3.613-42.768,1.799
		c1.117-4.086,1.742-8.566,1.742-13.477c0-50.946-65.102-64.478-90.971-35.268l72.421,72.041c0,0,0,0,0.001,0l46.63,46.385
		c0,0,0,0,0,0l8.705,8.659c0,0,0.021-0.019,0.055-0.052c0.011-0.01,0.022-0.021,0.037-0.035c0.034-0.032,0.075-0.071,0.129-0.123
		c0.027-0.026,0.053-0.05,0.085-0.081c0.061-0.059,0.132-0.127,0.211-0.204c0.034-0.033,0.063-0.061,0.1-0.097
		c0.113-0.11,0.24-0.234,0.383-0.374c0.01-0.01,0.018-0.017,0.028-0.027c0.323-0.318,0.721-0.714,1.181-1.179
		c0.022-0.023,0.045-0.046,0.068-0.069c0.216-0.219,0.447-0.454,0.69-0.704c0.018-0.018,0.034-0.035,0.052-0.053
		c1.64-1.683,3.861-4.036,6.476-6.995c-0.001,0-0.002-0.001-0.003-0.001c6.561-7.428,15.549-18.629,23.761-32.325
		c0.196-0.327,0.391-0.657,0.586-0.987c0.513-0.866,1.021-1.743,1.526-2.628c0.184-0.322,0.368-0.639,0.551-0.964
		c0.621-1.104,1.236-2.223,1.842-3.355c0.225-0.419,0.444-0.845,0.667-1.268c0.242-0.461,0.488-0.917,0.727-1.383
		c-0.002-0.004-0.005-0.008-0.007-0.013c3.14-6.107,6.023-12.568,8.406-19.329c4.051,5.594,8.097,11.422,12.107,17.444
		c1.612,2.419,3.217,4.874,4.814,7.355c0.16,0.249,0.321,0.497,0.481,0.747c8.413,13.114,16.591,27.073,24.229,41.619
		c0.182,0.347,0.367,0.692,0.549,1.04c1.364,2.612,2.707,5.246,4.034,7.895c0.279,0.557,0.557,1.115,0.835,1.674
		c1.318,2.654,2.621,5.322,3.898,8.009c6.987,14.706,13.328,29.875,18.725,45.271c0.026,0.073,0.05,0.147,0.076,0.22
		c0.624,1.783,1.234,3.569,1.832,5.357c0.124,0.37,0.244,0.74,0.366,1.11c0.497,1.499,0.985,3,1.463,4.502
		c0.152,0.479,0.301,0.958,0.452,1.438c0.44,1.402,0.872,2.805,1.295,4.21c0.158,0.524,0.314,1.048,0.47,1.572
		c0.41,1.383,0.81,2.767,1.203,4.152c4.604,16.233,8.027,32.584,9.935,48.784c1.501,12.74,2.078,25.388,1.541,37.807
		c-16.229-0.958-33.139-3.255-50.314-6.623c-0.001,0.004-0.002,0.007-0.003,0.011c-18.322-3.594-36.946-8.434-55.382-14.222
		c-2.164-0.679-4.324-1.372-6.482-2.077c-0.961-0.314-1.921-0.628-2.88-0.947c-14.337-4.764-28.498-10.081-42.262-15.815
		c-1.962-0.818-3.913-1.646-5.858-2.481c-0.955-0.41-1.911-0.818-2.861-1.232c-1.918-0.834-3.824-1.678-5.724-2.528
		c-0.99-0.443-1.98-0.886-2.965-1.333c-16.245-7.368-31.743-15.261-46.07-23.45c-9.026-5.157-17.598-10.425-25.585-15.751
		c8.497-3.986,16.032-7.738,22.743-11.251c0.001,0.001,0.002,0.002,0.002,0.003c0.236-0.124,0.459-0.243,0.693-0.367
		c0.743-0.39,1.475-0.778,2.197-1.162c0.451-0.24,0.899-0.479,1.342-0.716c0.72-0.386,1.428-0.768,2.127-1.148
		c0.41-0.223,0.816-0.444,1.219-0.664c0.338-0.185,0.69-0.374,1.023-0.558c-0.001-0.002-0.001-0.003-0.002-0.005
		c32.02-17.643,40.908-27.97,40.908-27.97l-40.479-40.264c0,0,0,0,0,0l-9.167-9.118c0,0,0-0.001,0-0.001l-56.11-55.813
		c-11.104,5.241-19.246,15.718-19.246,31.712c-0.001,23.671,17.826,37.234,36.714,39.713c-0.242,1.82-0.375,3.721-0.375,5.712
		c0,9.958,3.156,18.126,8.217,24.434c-12.472-2.372-25.613-0.849-36.308,4.733c3.576-17.798-24.64-26.667-29.51-8.492
		c-3.056,11.363,6.759,19.36,15.964,19.578c-5.567,7.057-8.978,16.354-8.978,27.963c0,42.95,46.656,59.442,76.665,45.761
		c-0.058,0.926-0.094,1.868-0.094,2.835c0,42.177,56.6,52.276,74.95,24.703c8.147,6.084,18.558,9.108,28.665,8.92
		c-2.345,5.455-3.678,11.783-3.678,19.016c0,54.895,76.222,66.581,96.484,27.273c23.743,27.711,76.191,31.055,88.003-13.034
		C591.244,525.385,573.361,502.7,550.603,493.632z"/>
</g>
</svg>
