<?xml version="1.0" encoding="utf-8"?>
<!-- Generator: Adobe Illustrator 17.0.0, SVG Export Plug-In . SVG Version: 6.00 Build 0)  -->
<!DOCTYPE svg PUBLIC "-//W3C//DTD SVG 1.1//EN" "http://www.w3.org/Graphics/SVG/1.1/DTD/svg11.dtd">
<svg version="1.1" id="Layer_1" xmlns="http://www.w3.org/2000/svg" xmlns:xlink="http://www.w3.org/1999/xlink" x="0px" y="0px"
	 width="613px" height="613px" viewBox="0 0 613 613" enable-background="new 0 0 613 613" xml:space="preserve">
<path d="M266.235,150.079c-19.338-3.203-27.009,94.65-29.829,141.387l-80.94,0.119c-3.457-123.863-5.089-136.06-23.865-169.038
	c-8.583-15.082-33.88-17.318-33.88-17.318c0-16.065-0.162-81.799-0.162-81.799c44.57,0,75.474,32.179,94.937,67.587l2.901-6.52
	c9.459-20.257,32.065-59.755,76.598-59.755c140.447,0,51.096,386.228,173.889,354.39c7.93-2.058,20.424-27.787-4.71-27.787
	c-45.413,6.039-62.337,251.772-209.579,231.883c-14.099-1.901-22.612-5.775-22.612-5.775l10.166-87.444
	c27.052,3.371,64.649-18.074,69.505-31.822c20.5-58.096,53.613-200.882,160.012-200.882c40.659,0,86.964,39.347,86.964,108.452
	c0,112.865-202.708,184.185-248.818-59.031C276.968,254.885,281.652,146.217,266.235,150.079L266.235,150.079z"/>
</svg>
