<?xml version="1.0" encoding="utf-8"?>
<!-- Generator: Adobe Illustrator 17.0.0, SVG Export Plug-In . SVG Version: 6.00 Build 0)  -->
<!DOCTYPE svg PUBLIC "-//W3C//DTD SVG 1.1//EN" "http://www.w3.org/Graphics/SVG/1.1/DTD/svg11.dtd">
<svg version="1.1" id="Layer_1" xmlns="http://www.w3.org/2000/svg" xmlns:xlink="http://www.w3.org/1999/xlink" x="0px" y="0px"
	 width="613px" height="613px" viewBox="0 0 613 613" enable-background="new 0 0 613 613" xml:space="preserve">
<g>
	<path d="M248.135,545.648l-30.341-202.843l-60.948,82.383c-52.685-65.003-57.049-159.738-4.979-230.12
		c49.36-66.721,134.484-91.356,209.292-67.026L350.661,57.84l86.068-12.87C310.925-19.541,153.321,14.542,66.486,131.916
		C-20.583,249.607-6.755,410.834,92.467,512.211l-47.18,63.774L248.135,545.648z"/>
	<path d="M516.087,104.307l49.418-66.799L362.66,67.84l30.337,202.848l58.542-79.132c50.446,64.894,53.907,157.829,2.623,227.151
		c-48.548,65.623-131.69,90.527-205.588,68.18l10.061,67.262l-91.227,13.643c126.062,65.617,284.628,31.738,371.828-86.13
		C625.471,365.097,612.728,205.839,516.087,104.307z"/>
</g>
</svg>
