<?xml version="1.0" encoding="utf-8"?>
<!-- Generator: Adobe Illustrator 17.0.0, SVG Export Plug-In . SVG Version: 6.00 Build 0)  -->
<!DOCTYPE svg PUBLIC "-//W3C//DTD SVG 1.1//EN" "http://www.w3.org/Graphics/SVG/1.1/DTD/svg11.dtd">
<svg version="1.1" id="Layer_1" xmlns="http://www.w3.org/2000/svg" xmlns:xlink="http://www.w3.org/1999/xlink" x="0px" y="0px"
	 width="613px" height="613px" viewBox="0 0 613 613" enable-background="new 0 0 613 613" xml:space="preserve">
<path d="M526.092,90.768L408.629,23.191c-3.867,6.69-16.903,29.372-26.468,55.919l-6.219-3.573
	C297.567,211.91,223.09,338.68,145.55,472.246c-23.371,40.255-14.884,88.695,18.886,108.097
	c33.77,19.403,80.299,2.568,103.471-37.799C344.795,408.606,419.409,281.907,498.3,145.835l-8.008-4.6
	C508.657,120.016,522.053,97.754,526.092,90.768z M291.275,262.87l80.573-141.009c-2.215,23.639,3.086,45.462,24.128,57.595
	c27.822,16.041,57.233-0.82,81.161-24.192L415.651,262.87H291.275z"/>
</svg>
