<?xml version="1.0" encoding="utf-8"?>
<!-- Generator: Adobe Illustrator 17.0.0, SVG Export Plug-In . SVG Version: 6.00 Build 0)  -->
<!DOCTYPE svg PUBLIC "-//W3C//DTD SVG 1.1//EN" "http://www.w3.org/Graphics/SVG/1.1/DTD/svg11.dtd">
<svg version="1.1" id="Layer_1" xmlns="http://www.w3.org/2000/svg" xmlns:xlink="http://www.w3.org/1999/xlink" x="0px" y="0px"
	 width="613px" height="613px" viewBox="0 0 613 613" enable-background="new 0 0 613 613" xml:space="preserve">
<path d="M42.028,173.918C90.822,93.563,209.488,36.641,341.015,36.641c87.472,0,165.87,20.513,237.194,71.83l0.554,115.698
	c-96.726-73.762-217.385-108.382-333.354-64.201c21.326,23.217,34.373,54.212,34.373,88.255c0,72.07-58.415,130.491-130.479,130.491
	S18.824,320.293,18.824,248.222C18.818,220.634,27.392,195.003,42.028,173.918L42.028,173.918z M148.948,273.576
	c14.817,0,26.829-12.018,26.829-26.841s-12.012-26.841-26.829-26.841s-26.841,12.018-26.841,26.841S134.136,273.576,148.948,273.576
	z M460.795,330.703c-14.823,0-26.835,12.018-26.835,26.841s12.012,26.835,26.835,26.835s26.835-12.012,26.835-26.835
	S475.613,330.703,460.795,330.703z M567.714,430.361c-48.794,80.355-167.46,137.277-298.98,137.277
	c-87.478,0-165.87-20.513-237.194-71.83l-0.554-115.692c96.72,73.756,217.385,108.376,333.348,64.207
	c-21.332-23.223-34.373-54.218-34.373-88.261c0-72.064,58.415-130.479,130.479-130.479s130.485,58.415,130.485,130.479
	C590.931,383.645,582.358,409.27,567.714,430.361L567.714,430.361z"/>
</svg>
