<?xml version="1.0" encoding="utf-8"?>
<!-- Generator: Adobe Illustrator 17.0.0, SVG Export Plug-In . SVG Version: 6.00 Build 0)  -->
<!DOCTYPE svg PUBLIC "-//W3C//DTD SVG 1.1//EN" "http://www.w3.org/Graphics/SVG/1.1/DTD/svg11.dtd">
<svg version="1.1" id="Layer_1" xmlns="http://www.w3.org/2000/svg" xmlns:xlink="http://www.w3.org/1999/xlink" x="0px" y="0px"
	 width="613px" height="613px" viewBox="0 0 613 613" enable-background="new 0 0 613 613" xml:space="preserve">
<g>
	<path d="M334.907,537.818c0,16.874,18.529,31.896,38.033,31.896v-0.002c19.075,0,38.796-14.932,38.796-32.698
		c0-35.398-33.32-51.653-38.796-112.768C368.566,485.263,334.907,503.833,334.907,537.818z"/>
	<path d="M594.241,273.978c13.27-22.74,0.113-62.539-21.641-72.495l-161.696,54.604c-1.378-2.836-2.81-5.634-4.301-8.385
		l134.581-96.41c2.436-11.829-2.424-26.606-11.169-38.337s-21.229-21.033-34.205-22.306L358.492,190.2
		c-1.904-1.421-3.832-2.774-5.78-4.069l87.948-138.006c-4.973-20.866-35.377-37.806-59.336-36.944l0.005,0.011
		c-3.422,0.224-6.705,0.491-9.773,1.385L251.426,200.99c-16.748-71.913-30.459-149.339-107.373-116.289
		c26.083,70.008,33.352,146.459,48.549,202.681c-36.977,44.297-94.305,95.914-180.559,132.983V600.91h185.69
		c55.491-106.24,109.576-181.177,154.275-181.938l6.982-0.26l-37.819-108.876l25.299-8.434l-40.245-94.47l82.461,110.976
		l-33.347,8.991l42.591,90.365l178.861-6.655c18.559-17.602,21.334-60.534,3.489-77.376l-148.31,4.246
		c-0.102-2.295-0.247-4.59-0.433-6.883L594.241,273.978z"/>
</g>
</svg>
