<?xml version="1.0" encoding="utf-8"?>
<!-- Generator: Adobe Illustrator 17.0.0, SVG Export Plug-In . SVG Version: 6.00 Build 0)  -->
<!DOCTYPE svg PUBLIC "-//W3C//DTD SVG 1.1//EN" "http://www.w3.org/Graphics/SVG/1.1/DTD/svg11.dtd">
<svg version="1.1" id="Layer_1" xmlns="http://www.w3.org/2000/svg" xmlns:xlink="http://www.w3.org/1999/xlink" x="0px" y="0px"
	 width="613px" height="613px" viewBox="0 0 613 613" enable-background="new 0 0 613 613" xml:space="preserve">
<g>
	<path d="M409.812,406.722l-56.486-75.197c3.823-7.182,5.996-15.376,5.996-24.08c0-18.741-10.047-35.131-25.045-44.093v-58.935
		h27.226L307.752,49.815h-0.001L253.3,204.417h27.226v59.662c-14.347,9.104-23.878,25.117-23.878,43.366
		c0,28.352,22.985,51.336,51.337,51.336c0.873,0,1.74-0.023,2.602-0.066l58.611,78.025l-20.724,15.613l136.344,96.646
		l-55.022-157.331L409.812,406.722z"/>
	<path d="M564.092,307.556c0-33.733-6.513-65.939-18.325-95.452l46.914-46.914L449.433,21.944l-46.892,46.892
		c-26.296-10.531-54.735-16.848-84.484-18.106l22.78,57.08c6.606,1.11,13.099,2.552,19.471,4.285
		c1.638,0.446,3.268,0.911,4.89,1.397c0.407,0.122,0.815,0.24,1.22,0.364c1.881,0.576,3.751,1.179,5.609,1.808
		c0.378,0.128,0.753,0.262,1.13,0.392c1.612,0.557,3.215,1.133,4.808,1.729c0.37,0.138,0.742,0.273,1.11,0.413
		c1.839,0.7,3.666,1.426,5.479,2.178c0.354,0.147,0.704,0.299,1.057,0.447c1.59,0.67,3.17,1.359,4.739,2.068
		c0.329,0.149,0.66,0.294,0.988,0.444c1.793,0.822,3.572,1.67,5.336,2.542c0.328,0.162,0.654,0.329,0.981,0.493
		c1.566,0.785,3.121,1.589,4.664,2.413c0.284,0.152,0.57,0.3,0.854,0.453c1.744,0.942,3.472,1.91,5.184,2.901
		c0.299,0.173,0.595,0.35,0.893,0.525c1.545,0.905,3.078,1.829,4.596,2.773c0.232,0.145,0.467,0.286,0.699,0.431
		c1.694,1.063,3.371,2.152,5.031,3.264c0.262,0.176,0.522,0.355,0.783,0.531c1.527,1.033,3.04,2.084,4.536,3.157
		c0.177,0.127,0.357,0.251,0.533,0.379c1.64,1.184,3.261,2.393,4.864,3.624c0.225,0.173,0.448,0.349,0.673,0.523
		c1.505,1.166,2.995,2.35,4.465,3.557c0.12,0.099,0.243,0.196,0.363,0.295c1.583,1.306,3.145,2.636,4.688,3.989
		c0.184,0.161,0.365,0.324,0.549,0.486c1.483,1.309,2.948,2.637,4.392,3.988c0.062,0.058,0.125,0.115,0.187,0.173
		c1.52,1.427,3.017,2.878,4.492,4.351c0.146,0.145,0.289,0.292,0.435,0.438c1.453,1.458,2.887,2.935,4.295,4.437
		c0.005,0.005,0.01,0.011,0.016,0.016c1.451,1.549,2.877,3.122,4.279,4.716c0.107,0.122,0.213,0.245,0.32,0.367
		c2.79,3.185,5.483,6.457,8.072,9.814c0.072,0.093,0.143,0.188,0.215,0.281c2.609,3.396,5.115,6.876,7.509,10.438
		c0.044,0.065,0.087,0.13,0.13,0.195c2.412,3.597,4.713,7.274,6.895,11.029c0.021,0.036,0.042,0.073,0.063,0.109
		c2.198,3.787,4.278,7.651,6.232,11.589c0.004,0.009,0.008,0.017,0.013,0.026c5.898,11.885,10.663,24.431,14.155,37.498l0.001-0.001
		c4.469,16.724,6.863,34.295,6.863,52.429c0,18.144-2.391,35.727-6.866,52.459l-0.006-0.006
		c-8.392,31.391-24.153,59.76-45.288,83.184l38.265,103.729l96.968-96.968l-46.917-46.917
		C557.576,373.524,564.092,341.304,564.092,307.556z"/>
	<path d="M439.929,527.647l-25.631-17.921l-24.6-17.2c-7.082,3.171-14.378,5.951-21.861,8.309c-0.322,0.101-0.644,0.204-0.967,0.304
		c-1.013,0.314-2.03,0.619-3.05,0.917c-0.443,0.129-0.888,0.254-1.333,0.381c-0.998,0.284-1.997,0.567-3.002,0.836l0.001,0.001
		c-16.736,4.478-34.323,6.875-52.471,6.875c-18.133,0-35.704-2.396-52.427-6.865l0,0c-13.067-3.492-25.614-8.257-37.499-14.154
		c-0.01-0.005-0.02-0.01-0.031-0.015c-5.931-2.944-11.697-6.171-17.281-9.662c-0.014-0.009-0.029-0.018-0.043-0.027
		c-5.584-3.493-10.986-7.251-16.188-11.256c-0.007-0.005-0.014-0.011-0.021-0.016c-13.893-10.699-26.359-23.161-37.062-37.051
		c-0.001-0.002-0.003-0.004-0.004-0.005c-4.01-5.204-7.773-10.609-11.27-16.197c-0.007-0.011-0.014-0.023-0.021-0.034
		c-3.493-5.583-6.722-11.349-9.669-17.279c-0.006-0.012-0.012-0.024-0.018-0.036c-2.948-5.936-5.613-12.037-7.979-18.286
		c-0.001-0.004-0.003-0.007-0.004-0.011c-2.367-6.255-4.434-12.659-6.182-19.193l0,0c-4.48-16.744-6.883-34.338-6.883-52.495
		c0-18.149,2.398-35.735,6.875-52.472l0.001,0.001c7.564-28.284,21.097-54.127,39.165-76.1c0.036-0.044,0.072-0.089,0.108-0.133
		c2.724-3.307,5.552-6.524,8.477-9.651c0.085-0.091,0.169-0.182,0.254-0.273c2.89-3.078,5.877-6.063,8.952-8.956
		c0.133-0.125,0.265-0.251,0.398-0.376c3.046-2.849,6.182-5.604,9.4-8.263c0.179-0.148,0.357-0.297,0.537-0.444
		c3.193-2.62,6.468-5.142,9.819-7.566c0.224-0.162,0.448-0.325,0.673-0.486c3.332-2.389,6.74-4.678,10.218-6.866
		c0.263-0.166,0.526-0.331,0.79-0.496c3.464-2.157,6.999-4.211,10.598-6.16c0.3-0.162,0.6-0.324,0.9-0.485
		c3.59-1.92,7.244-3.735,10.959-5.441c0.33-0.151,0.66-0.302,0.991-0.452c3.709-1.68,7.478-3.25,11.302-4.709
		c0.357-0.136,0.715-0.271,1.073-0.405c3.821-1.432,7.697-2.753,11.624-3.958c0.38-0.117,0.761-0.231,1.142-0.345
		c1.899-0.57,3.807-1.12,5.729-1.635c7.491-2.009,15.152-3.603,22.959-4.748l21.186-56.516
		c-30.674,0.991-59.984,7.367-87.032,18.193l-46.927-46.927L21.358,165.144l46.92,46.92c-11.822,29.524-18.341,61.744-18.341,95.492
		c0,33.762,6.52,65.998,18.351,95.533l-46.922,46.922l143.247,143.247l46.944-46.944c29.515,11.811,61.725,18.32,95.458,18.32
		c33.749,0,65.974-6.511,95.499-18.333l46.909,46.909l34.678-34.678L439.929,527.647
		C439.929,527.647,439.929,527.647,439.929,527.647z"/>
</g>
</svg>
