<?xml version="1.0" encoding="utf-8"?>
<!-- Generator: Adobe Illustrator 17.0.0, SVG Export Plug-In . SVG Version: 6.00 Build 0)  -->
<!DOCTYPE svg PUBLIC "-//W3C//DTD SVG 1.1//EN" "http://www.w3.org/Graphics/SVG/1.1/DTD/svg11.dtd">
<svg version="1.1" id="Layer_1" xmlns="http://www.w3.org/2000/svg" xmlns:xlink="http://www.w3.org/1999/xlink" x="0px" y="0px"
	 width="613px" height="613px" viewBox="0 0 613 613" enable-background="new 0 0 613 613" xml:space="preserve">
<path d="M489.479,13.644v80.978h-56.544V13.644h-92.844v80.978h-55.847V13.644H191.4v80.978h-55.847V13.644H42.709l-0.006-0.003
	v135.428l79.582,75.393v220.595c42.801,55.699,104.576,106.826,189.182,155.674c86.493-49.938,148.648-103.361,191.275-159.86
	V224.465l79.582-75.393V13.644H489.479z M312.86,327.482H177.432V197.238l-55.847-52.358H312.86V327.482z M447.592,417.136
	c-29.824,39.564-73.923,77.347-134.032,112.39V328.88h134.032L447.592,417.136L447.592,417.136z"/>
</svg>
