<?xml version="1.0" encoding="utf-8"?>
<!-- Generator: Adobe Illustrator 17.0.0, SVG Export Plug-In . SVG Version: 6.00 Build 0)  -->
<!DOCTYPE svg PUBLIC "-//W3C//DTD SVG 1.1//EN" "http://www.w3.org/Graphics/SVG/1.1/DTD/svg11.dtd">
<svg version="1.1" id="Layer_1" xmlns="http://www.w3.org/2000/svg" xmlns:xlink="http://www.w3.org/1999/xlink" x="0px" y="0px"
	 width="613px" height="613px" viewBox="0 0 613 613" enable-background="new 0 0 613 613" xml:space="preserve">
<path d="M460.909,419.608l82.35-82.35L509.17,303.17c-13.285,26.123-29.178,50.203-47.177,72.41
	c-27.558-27.526-54.695-54.468-81.82-80.714c79.868-84.91,152.131-173.211,207.48-277.601
	C481.562,76.391,391.802,146.704,305.636,224.836C219.471,146.704,129.711,76.391,23.62,17.265
	c55.349,104.389,127.611,192.69,207.48,277.601c-27.124,26.246-54.261,53.187-81.819,80.713
	c-17.998-22.207-33.892-46.287-47.177-72.41l-34.089,34.089l82.351,82.351c-31.425,52.207-75.918,91.349-126.687,124.213
	l33.542,33.542c33.235-50.396,73.811-93.458,124.409-126.491l82.157,82.157l34.089-34.089
	c-25.057-14.477-49.09-30.501-71.628-48.206c26.741-26.69,53.297-52.951,79.389-79.166c26.092,26.215,52.649,52.476,79.39,79.166
	c-22.538,17.706-46.572,33.729-71.628,48.206l34.089,34.089l82.158-82.158c50.598,33.033,91.173,76.094,124.408,126.49
	l33.542-33.542C536.828,510.957,492.335,471.815,460.909,419.608z"/>
</svg>
