<?xml version="1.0" encoding="utf-8"?>
<!-- Generator: Adobe Illustrator 17.0.0, SVG Export Plug-In . SVG Version: 6.00 Build 0)  -->
<!DOCTYPE svg PUBLIC "-//W3C//DTD SVG 1.1//EN" "http://www.w3.org/Graphics/SVG/1.1/DTD/svg11.dtd">
<svg version="1.1" id="Layer_1" xmlns="http://www.w3.org/2000/svg" xmlns:xlink="http://www.w3.org/1999/xlink" x="0px" y="0px"
	 width="613px" height="613px" viewBox="0 0 613 613" enable-background="new 0 0 613 613" xml:space="preserve">
<path d="M556.97,447.035l-0.001-0.003c-78.885-26.813-146.484-68.607-204.774-121.827l-29.077,29.077
	c53.21,59.433,96.83,126.64,127.115,199.489c27.385,65.869,114.231,15.492,50.472-50.472
	C576.1,558.022,627.962,471.165,556.97,447.035z"/>
<path d="M292.724,263.382c-52.818-62.157-96.712-134.847-133.746-214.341c-24.209-51.964-106.053-0.735-57.92,57.919
	C43.341,53.651-8.084,128.189,52.239,155.78c76.315,34.903,147.831,81.667,210.275,137.812L292.724,263.382z"/>
<path d="M59.073,446.417C246.767,382.62,370.59,234.041,457.063,48.426c24.211-51.964,106.053-0.735,57.92,57.919
	c57.717-53.309,109.142,21.229,48.819,48.82C388.593,235.3,238.656,377.929,165.812,553.156
	c-27.385,65.871-114.231,15.491-50.472-50.472C39.945,557.407-11.917,470.55,59.073,446.42V446.417L59.073,446.417z"/>
</svg>
