<?xml version="1.0" encoding="utf-8"?>
<!-- Generator: Adobe Illustrator 17.0.0, SVG Export Plug-In . SVG Version: 6.00 Build 0)  -->
<!DOCTYPE svg PUBLIC "-//W3C//DTD SVG 1.1//EN" "http://www.w3.org/Graphics/SVG/1.1/DTD/svg11.dtd">
<svg version="1.1" id="Layer_1" xmlns="http://www.w3.org/2000/svg" xmlns:xlink="http://www.w3.org/1999/xlink" x="0px" y="0px"
	 width="613px" height="613px" viewBox="0 0 613 613" enable-background="new 0 0 613 613" xml:space="preserve">
<g>
	<path d="M530.724,529.071l-34.317-45.408l-10.128,7.617c-78.465-83.147-106.31-161.41-144.928-249.669
		c12.131-26.929,24.817-53.587,38.831-79.541l18.384,10.647c61.835-75.821,80.803,96.324,42.776,167.784
		C566.38,308.47,674.854,105.507,536.31,25.519c-34.212,59.257-84.781,42.502-167.122-5.186l-58.433,101.528l15.393,8.915
		c-7.143,12.376-13.731,24.502-19.886,36.406c-6.155-11.904-12.744-24.03-19.886-36.407l15.392-8.915L243.335,20.333
		c-82.342,47.688-132.911,64.443-167.122,5.186c-138.544,79.988-30.07,282.951,94.968,314.983
		c-38.027-71.46-19.059-243.605,42.776-167.784l18.384-10.647c14.015,25.954,26.7,52.612,38.832,79.542
		c-38.619,88.258-66.463,166.522-144.928,249.668l-10.129-7.618L81.8,529.071l2.993,2.251c-2.674,2.368-5.395,4.741-8.164,7.12
		c11.837,22.451,35.134,34.831,61.101,44.865c2.49-2.191,4.939-4.405,7.361-6.635l14.999,11.281l34.316-45.408l-9.702-7.297
		c53.714-63.544,88.524-137.887,121.558-213.502c33.034,75.614,67.844,149.957,121.559,213.501l-9.703,7.298l34.317,45.408
		l15-11.281c2.422,2.229,4.87,4.443,7.36,6.634c25.967-10.034,49.264-22.414,61.101-44.865c-2.769-2.379-5.49-4.752-8.164-7.119
		L530.724,529.071z"/>
</g>
</svg>
