<?xml version="1.0" encoding="utf-8"?>
<!-- Generator: Adobe Illustrator 17.0.0, SVG Export Plug-In . SVG Version: 6.00 Build 0)  -->
<!DOCTYPE svg PUBLIC "-//W3C//DTD SVG 1.1//EN" "http://www.w3.org/Graphics/SVG/1.1/DTD/svg11.dtd">
<svg version="1.1" id="Layer_1" xmlns="http://www.w3.org/2000/svg" xmlns:xlink="http://www.w3.org/1999/xlink" x="0px" y="0px"
	 width="613px" height="613px" viewBox="0 0 613 613" enable-background="new 0 0 613 613" xml:space="preserve">
<path d="M566.988,30.803c-50.117,11.145-100.234,19.524-150.351,24.636l-84.455,161.774l55.556,24.666l-137.55,226.329
	l49.561-202.69l-26.92-12.26l-85.296,23.836l71.008-60.066l52.165-155.833c-82.384,0.417-164.767-8.958-247.151-30.392h-0.001
	c36.517,31.118,63.113,113.733,63.113,210.951c0,53.023-8.263,101.17-21.282,139.456c37.214,85.381,102.711,146.314,215.024,209.535
	c109.44-58.268,172.153-115.433,207.685-200.333c-14.943-39.517-24.218-91.397-24.218-148.657
	C503.874,144.536,530.471,61.921,566.988,30.803z"/>
</svg>
