<?xml version="1.0" encoding="utf-8"?>
<!-- Generator: Adobe Illustrator 17.0.0, SVG Export Plug-In . SVG Version: 6.00 Build 0)  -->
<!DOCTYPE svg PUBLIC "-//W3C//DTD SVG 1.1//EN" "http://www.w3.org/Graphics/SVG/1.1/DTD/svg11.dtd">
<svg version="1.1" id="Layer_1" xmlns="http://www.w3.org/2000/svg" xmlns:xlink="http://www.w3.org/1999/xlink" x="0px" y="0px"
	 width="613px" height="613px" viewBox="0 0 613 613" enable-background="new 0 0 613 613" xml:space="preserve">
<path d="M388.514,322.624l17.623,30.547c33.557-4.848,68.174,10.678,86.16,41.863c23.585,40.882,9.311,93.052-31.541,116.656
	s-92.763,9.686-116.348-31.201c-19.001-32.941-13.64-73.381,10.535-100.159l-16.573-28.731L388.514,322.624z"/>
<path d="M230.5,99.493c0,0-37-136.35-115-55.175l9.657,9.175c0,0,53.343-64,91.343,53l14-3"/>
<path d="M550.821,237.709c-48.048-83.279-140.514-124.744-230.148-111.797l-47.07-81.594h-0.001L139.66,121.707l44.271,76.74
	c-64.573,71.521-78.896,179.533-28.14,267.513c62.998,109.201,201.667,146.38,310.785,83.334S613.82,346.916,550.821,237.709z
	 M468.169,534.678c-74.396,42.987-168.939,17.643-211.889-56.818c-34.604-59.992-24.838-133.645,19.186-182.407l-30.184-52.324
	l45.193-26.115c-26.677-77.634-63.173-33.853-63.173-33.853l-6.802-6.462c47.93-49.881,73.878,16.845,79.719,34.684l36.384-21.025
	h0.003l32.091,55.635c61.112-8.83,124.154,19.448,156.911,76.233C568.561,396.687,542.565,491.692,468.169,534.678z"/>
<path d="M370,343.207c0,0-20.591-75.882-64-30.706l5.374,5.106c0,0,29.686-35.617,50.834,29.496l7.791-1.67"/>
</svg>
