<?xml version="1.0" encoding="utf-8"?>
<!-- Generator: Adobe Illustrator 17.0.0, SVG Export Plug-In . SVG Version: 6.00 Build 0)  -->
<!DOCTYPE svg PUBLIC "-//W3C//DTD SVG 1.1//EN" "http://www.w3.org/Graphics/SVG/1.1/DTD/svg11.dtd">
<svg version="1.1" id="Layer_1" xmlns="http://www.w3.org/2000/svg" xmlns:xlink="http://www.w3.org/1999/xlink" x="0px" y="0px"
	 width="613px" height="613px" viewBox="0 0 613 613" enable-background="new 0 0 613 613" xml:space="preserve">
<path d="M601.188,363.775c-148.286-6.058-168.532-53.226-26.147-122.702c-61.156,6.485-112.045,16.198-154.256,31.979
	c20.591-36.327,26.688-66.743,13.04-80.391c-4.213-4.213-10.03-6.535-17.118-7.14L290.091,13.612h-88.234L364.58,198.899
	l-1.276,1.492c-29.189,14.846-63.141,40.015-95.649,72.522c-4,4-7.885,8.023-11.657,12.055L21.931,76.668v239.066l158.576,108.44
	c0.87,6.092,3.127,11.14,6.894,14.906c14.128,14.127,46.222,7.1,84.242-15.262c-16.471,44.025-27.305,98.447-33.951,165.901
	c44.845-154.307,96.626-130.802,136.916-7.515c-22.256-130.963,118.79-73.657,221.142,6.452
	C516.361,466.994,446.785,376.466,601.188,363.775z M239.405,390.645c-0.065-0.065-0.117-0.143-0.181-0.21
	c-6.634-6.946-4.555-21.304,4.2-38.943c0.008-0.015,0.016-0.031,0.024-0.046c0.539-1.084,1.102-2.181,1.691-3.289
	c0.035-0.066,0.074-0.134,0.11-0.201c0.565-1.06,1.149-2.128,1.759-3.207c0.064-0.114,0.134-0.23,0.199-0.344
	c0.589-1.036,1.192-2.079,1.821-3.132c0.094-0.157,0.195-0.316,0.289-0.473c0.61-1.014,1.231-2.032,1.877-3.06
	c0.134-0.214,0.279-0.431,0.415-0.645c0.619-0.976,1.245-1.955,1.897-2.942c0.176-0.267,0.364-0.538,0.543-0.805
	c0.627-0.94,1.257-1.881,1.911-2.83c0.224-0.324,0.461-0.652,0.688-0.977c0.626-0.897,1.253-1.795,1.904-2.699
	c0.277-0.385,0.57-0.773,0.851-1.159c0.621-0.851,1.239-1.701,1.881-2.557c0.316-0.421,0.647-0.845,0.968-1.266
	c0.627-0.825,1.25-1.649,1.896-2.477c0.369-0.473,0.756-0.949,1.131-1.424c0.618-0.781,1.23-1.561,1.864-2.344
	c0.427-0.527,0.872-1.057,1.307-1.585c0.603-0.733,1.198-1.465,1.815-2.2c0.499-0.594,1.018-1.19,1.526-1.785
	c0.573-0.67,1.136-1.34,1.72-2.011c0.592-0.68,1.204-1.36,1.808-2.04c0.521-0.587,1.032-1.174,1.561-1.761
	c0.665-0.737,1.351-1.474,2.029-2.212c0.489-0.531,0.967-1.062,1.462-1.593c0.829-0.888,1.679-1.774,2.526-2.66
	c0.361-0.378,0.712-0.756,1.077-1.133c1.221-1.264,2.461-2.525,3.719-3.784c1.258-1.258,2.519-2.497,3.782-3.718
	c0.406-0.392,0.812-0.769,1.218-1.157c0.859-0.821,1.718-1.646,2.579-2.449c0.507-0.473,1.014-0.929,1.521-1.396
	c0.76-0.7,1.52-1.406,2.28-2.092c0.602-0.543,1.204-1.067,1.807-1.601c0.665-0.59,1.331-1.189,1.996-1.768
	c0.685-0.597,1.37-1.173,2.055-1.758c0.58-0.495,1.161-1.001,1.74-1.488c0.755-0.634,1.507-1.246,2.26-1.865
	c0.508-0.418,1.017-0.846,1.524-1.257c0.804-0.651,1.605-1.28,2.406-1.913c0.453-0.359,0.909-0.728,1.361-1.081
	c0.85-0.663,1.696-1.303,2.543-1.946c0.4-0.304,0.802-0.618,1.2-0.917c0.897-0.673,1.789-1.322,2.681-1.972
	c0.343-0.25,0.689-0.511,1.032-0.758c0.925-0.666,1.844-1.308,2.763-1.949c0.305-0.213,0.613-0.436,0.917-0.646
	c0.966-0.667,1.924-1.308,2.881-1.946c0.25-0.167,0.504-0.343,0.753-0.508c1.009-0.666,2.009-1.306,3.007-1.938
	c0.193-0.122,0.388-0.252,0.58-0.373c1.041-0.655,2.073-1.284,3.101-1.902c0.144-0.086,0.29-0.179,0.433-0.265
	c1.076-0.642,2.141-1.259,3.199-1.86c0.091-0.052,0.183-0.108,0.274-0.159c1.095-0.618,2.178-1.211,3.252-1.783
	c0.052-0.028,0.106-0.058,0.158-0.086c1.117-0.593,2.222-1.161,3.315-1.704c0.007-0.003,0.014-0.008,0.022-0.011
	c17.626-8.749,31.974-10.83,38.926-4.214c0.072,0.069,0.156,0.124,0.226,0.195c8.172,8.172,3.727,27.106-9.78,49.629
	c-34.955,20.429-62.188,47.718-83.177,84.522C268.482,393.885,247.997,399.237,239.405,390.645z"/>
</svg>
