<?xml version="1.0" encoding="utf-8"?>
<!-- Generator: Adobe Illustrator 17.0.0, SVG Export Plug-In . SVG Version: 6.00 Build 0)  -->
<!DOCTYPE svg PUBLIC "-//W3C//DTD SVG 1.1//EN" "http://www.w3.org/Graphics/SVG/1.1/DTD/svg11.dtd">
<svg version="1.1" id="Layer_1" xmlns="http://www.w3.org/2000/svg" xmlns:xlink="http://www.w3.org/1999/xlink" x="0px" y="0px"
	 width="613px" height="613px" viewBox="0 0 613 613" enable-background="new 0 0 613 613" xml:space="preserve">
<g>
	<path d="M502.002,426.231c0.326-2.022,0.503-4.062,0.503-6.12c0-19.894-15.504-38.21-41.534-52.801
		c75.532-83.142,73.164-211.822-7.116-292.102c-82.726-82.726-216.85-82.726-299.576,0c-80.281,80.281-82.648,208.962-7.114,292.104
		c-26.028,14.591-41.532,32.906-41.532,52.799c0,2.574,0.275,5.12,0.783,7.637C76.3,445.783,58.5,468.056,58.5,492.164
		c0,60.102,110.584,108.826,247,108.826s247-48.722,247-108.826C552.5,467.375,533.68,444.526,502.002,426.231z M170.009,91.451
		c74.072-74.071,194.164-74.071,268.235,0s74.072,194.163,0,268.235c-36.814,36.814-84.995,55.322-133.243,55.543
		c-31.73-0.093-63.442-8.091-91.922-24.009c-0.361,0.064-0.717,0.132-1.077,0.197c-15.053-8.371-29.209-18.947-41.993-31.731
		C95.938,285.615,95.937,165.522,170.009,91.451z"/>
	<ellipse transform="matrix(0.7071 0.7071 -0.7071 0.7071 206.7178 -246.5408)" cx="400.96" cy="126.26" rx="69.199" ry="44.189"/>
	
		<ellipse transform="matrix(0.7071 0.7071 -0.7071 0.7071 274.2946 -81.7216)" cx="235.794" cy="290.242" rx="138.453" ry="88.411"/>
</g>
</svg>
