<?xml version="1.0" encoding="utf-8"?>
<!-- Generator: Adobe Illustrator 17.0.0, SVG Export Plug-In . SVG Version: 6.00 Build 0)  -->
<!DOCTYPE svg PUBLIC "-//W3C//DTD SVG 1.1//EN" "http://www.w3.org/Graphics/SVG/1.1/DTD/svg11.dtd">
<svg version="1.1" id="Layer_1" xmlns="http://www.w3.org/2000/svg" xmlns:xlink="http://www.w3.org/1999/xlink" x="0px" y="0px"
	 width="613px" height="613px" viewBox="0 0 613 613" enable-background="new 0 0 613 613" xml:space="preserve">
<path d="M554.122,22.414l-41.807,69.11c-35.945-11.647-89.438-9.372-123.1,0l-40.258-68.145
	c-66.128,123.521-47.409,201.576,3.052,240.398c-7.712,4.827-15.675,10.135-23.892,15.949
	C117.798,111.932-71.536,300.917,52.674,469.763h0.953c22.288,32.319,47.952,52.309,75.676,62.77
	c39.267,14.816,79.673,10.548,119.458,4.917c39.785-5.631,78.719-12.704,115.822-10.062c37.103,2.642,74.218,12.167,108.181,49.204
	c23.158,25.251,56.046-1.944,28.473-28.872c-41.864-40.887-86.691-56.681-130.739-59.814s-86.3,5.615-124.559,11.03
	c-38.259,5.415-72.047,7.831-101.076-3.12c-13.614-5.136-26.873-13.221-39.659-26.053h431.199
	c20.385-71.948,22.548-148.075-0.626-196.097C605.414,237.326,633.42,151.522,554.122,22.414z M424.814,208.262
	c-44.358,21.406-64.504,4.063-73.123-31.727C395.229,149.52,421.157,171.218,424.814,208.262z M480.196,208.262
	c3.657-37.045,29.585-58.743,73.123-31.727C544.701,212.325,524.555,229.668,480.196,208.262z"/>
</svg>
