<?xml version="1.0" encoding="utf-8"?>
<!-- Generator: Adobe Illustrator 17.0.0, SVG Export Plug-In . SVG Version: 6.00 Build 0)  -->
<!DOCTYPE svg PUBLIC "-//W3C//DTD SVG 1.1//EN" "http://www.w3.org/Graphics/SVG/1.1/DTD/svg11.dtd">
<svg version="1.1" id="Layer_1" xmlns="http://www.w3.org/2000/svg" xmlns:xlink="http://www.w3.org/1999/xlink" x="0px" y="0px"
	 width="613px" height="613px" viewBox="0 0 613 613" enable-background="new 0 0 613 613" xml:space="preserve">
<g>
	<path d="M528.578,221.58l12.242-28.432l-35.216,9.071c-14.934-11.471-31.174-22.024-48.369-31.586l-6.759-57.491l-36.877,36.169
		c-18.069-7.72-36.767-14.443-55.766-20.102l-8.592-73.082l-58.812,57.682c-16.106-2.578-32.147-4.353-47.932-5.296l-32.551-81.775
		l-50.324,85.242C40.999,130.791-34.622,213.04,46.722,381.188c234.56,61.93,452.468-170.83,471.646,158.268
		C637.436,410.661,612.111,299.045,528.578,221.58z"/>
	<path d="M260.994,383.513c-46.821,8.9-97.553,16.756-150.029,13.396c53.462,137.623,248.994,276.193,313.352,109.951
		C299.609,548.567,310.945,441.199,260.994,383.513z"/>
</g>
</svg>
