<?xml version="1.0" encoding="utf-8"?>
<!-- Generator: Adobe Illustrator 17.0.0, SVG Export Plug-In . SVG Version: 6.00 Build 0)  -->
<!DOCTYPE svg PUBLIC "-//W3C//DTD SVG 1.1//EN" "http://www.w3.org/Graphics/SVG/1.1/DTD/svg11.dtd">
<svg version="1.1" id="Layer_1" xmlns="http://www.w3.org/2000/svg" xmlns:xlink="http://www.w3.org/1999/xlink" x="0px" y="0px"
	 width="613px" height="613px" viewBox="0 0 613 613" enable-background="new 0 0 613 613" xml:space="preserve">
<path d="M399.616,153.865c-140.847-81.318-296.29-75.77-347.189,12.39s22.018,225.55,162.865,306.868s296.288,75.773,347.188-12.387
	C613.38,372.573,540.463,235.184,399.616,153.865z M524.899,422.45c-33.732,58.425-152.676,52.903-265.668-12.334
	S81.984,244.632,115.716,186.207s152.677-52.905,265.669,12.332S558.632,364.023,524.899,422.45z"/>
<path d="M474.103,230.485c7.778-29.764,39.291-57.137,59.667-74.231c-22.694-6.381-81.038,6.19-96.561,21.232"/>
<path d="M168.78,100.805c-20.442-8.29-44.948-34.809-55-61.581c-12.036,20.274-11.408,55.757-5.746,83.5"/>
<path d="M320.692,118.464c-19.433-30.544-23.679-67.69-15.791-88.728c-21.914,12.298-45.3,58.058-51.971,76.585"/>
<path d="M374.032,461.521c25.475-15.407,39.33-56.275,37.292-77.25c16.87,16.465,25.513,64.289,27.057,82.701"/>
<path d="M526.292,288.66c28.909,7.12,49.849,2.389,63.239-13.885c0.288,23.569-9.668,49.128-21.593,63.237"/>
<path d="M54.055,300.626c-0.601,29.767-10.595,48.768-29.775,57.496c22.689,6.378,49.956,3.373,66.672-4.494"/>
<path d="M227.729,395.219c-7.124-28.905,7.175-68.974,23.444-82.363c-23.567-0.289-58.693,28.799-72.799,40.726"/>
<path d="M341.094,516.626c20.623,21.48,22.211,51.541,14.817,71.27c20.554-11.529,42.493-42.501,48.748-59.88"/>
<path d="M265.884,497.003c-29.768,0.625-63.234,35.027-76.622,51.293c-0.29-23.566,15.756-71.475,23.621-88.188"/>
<path d="M525.133,484.301c28.911,4.903,49.849,18.338,63.239,40.181c0.293-23.449-9.668-53.147-21.595-72.219"/>
<path d="M86.433,219.444c20.317-8.592,56.396-7.172,82.432,4.652c-5.822-22.843-31.357-47.489-54.978-63.106"/>
<path d="M394.921,204.481c-21.89,2.719-52.427,21.987-69.062,45.245c-6.38-22.693,3.411-56.804,16.059-82.139"/>
</svg>
