<?xml version="1.0" encoding="utf-8"?>
<!-- Generator: Adobe Illustrator 17.0.0, SVG Export Plug-In . SVG Version: 6.00 Build 0)  -->
<!DOCTYPE svg PUBLIC "-//W3C//DTD SVG 1.1//EN" "http://www.w3.org/Graphics/SVG/1.1/DTD/svg11.dtd">
<svg version="1.1" id="Layer_1" xmlns="http://www.w3.org/2000/svg" xmlns:xlink="http://www.w3.org/1999/xlink" x="0px" y="0px"
	 width="613px" height="613px" viewBox="0 0 613 613" enable-background="new 0 0 613 613" xml:space="preserve">
<path d="M595.287,170.19l0.579-0.579L584.612,24.759L439.254,13.003l-0.578,0.578l-0.002-0.002l0,0.003L270.521,181.735l0.133,1.641
	l-1.643-0.133l1.776,1.776l8.779,108.523l-39.41-39.409c-5.43,51.058-34.547,78.438-84.735,84.735l22.147,22.146L20.425,517.674
	v73.997h64.224l161.788-161.789l23.116,23.116c6.521-49.963,33.996-78.986,84.735-84.735l-38.574-38.573l108.148,8.402l1.759,1.759
	l-0.127-1.632l1.637,0.127l0.002-0.003L595.287,170.19L595.287,170.19L595.287,170.19z M419.24,257.69l-4.869-62.691l-63.436-5.13
	l94.13-94.132l0.257,0.014l5.112,63.185l62.689,4.871L419.24,257.69z"/>
</svg>
