<?xml version="1.0" encoding="utf-8"?>
<!-- Generator: Adobe Illustrator 17.0.0, SVG Export Plug-In . SVG Version: 6.00 Build 0)  -->
<!DOCTYPE svg PUBLIC "-//W3C//DTD SVG 1.1//EN" "http://www.w3.org/Graphics/SVG/1.1/DTD/svg11.dtd">
<svg version="1.1" id="Layer_1" xmlns="http://www.w3.org/2000/svg" xmlns:xlink="http://www.w3.org/1999/xlink" x="0px" y="0px"
	 width="612px" height="612px" viewBox="0 0 612 612" enable-background="new 0 0 612 612" xml:space="preserve">
<g transform="matrix(14.99999 0 0 14.99999 16.0002 -6649.4283)">
</g>
<g transform="matrix(6 0 0 6 -1088.00003 -3562.1732)">
	<path d="M232.333,596.882c-7.922,0-14.344,6.422-14.344,14.344s6.422,14.344,14.344,14.344s14.344-6.422,14.344-14.344
		S240.255,596.882,232.333,596.882z M232.333,606.444c2.641,0,4.781,2.141,4.781,4.781s-2.141,4.781-4.781,4.781
		c-2.641,0-4.781-2.141-4.781-4.781S229.693,606.444,232.333,606.444z"/>
	<path d="M241.896,644.694c0,5.281-4.281,9.562-9.563,9.562c-5.281,0-9.563-4.281-9.563-9.562s4.281-9.562,9.563-9.562
		C237.615,635.132,241.896,639.413,241.896,644.694z"/>
	<path d="M232.333,663.819c-7.922,0-14.344,6.422-14.344,14.344s6.422,14.344,14.344,14.344s14.344-6.422,14.344-14.344
		C246.677,670.241,240.255,663.819,232.333,663.819z M232.333,673.382c2.641,0,4.781,2.141,4.781,4.781s-2.141,4.781-4.781,4.781
		c-2.641,0-4.781-2.141-4.781-4.781S229.693,673.382,232.333,673.382z"/>
	<path d="M273.74,620.788c-3.961-6.86-12.733-9.211-19.594-5.25s-9.211,12.733-5.25,19.594s12.733,9.211,19.594,5.25
		S277.701,627.649,273.74,620.788z M265.459,625.569c1.32,2.287,0.537,5.211-1.75,6.531s-5.211,0.537-6.531-1.75
		s-0.537-5.211,1.75-6.531S264.138,623.283,265.459,625.569z"/>
	<path d="M215.771,654.257c-3.961-6.86-12.733-9.211-19.594-5.25s-9.211,12.733-5.25,19.594s12.733,9.211,19.594,5.25
		S219.732,661.118,215.771,654.257z M207.489,659.038c1.32,2.287,0.537,5.211-1.75,6.531s-5.211,0.537-6.531-1.75
		s-0.537-5.211,1.75-6.531S206.169,656.751,207.489,659.038z"/>
	<path d="M190.926,620.788c-3.961,6.861-1.61,15.633,5.25,19.594c6.861,3.961,15.633,1.61,19.594-5.25s1.61-15.633-5.25-19.594
		C203.66,611.577,194.887,613.928,190.926,620.788z M199.208,625.569c1.32-2.287,4.244-3.07,6.531-1.75s3.07,4.244,1.75,6.531
		s-4.244,3.07-6.531,1.75C198.671,630.78,197.888,627.856,199.208,625.569z"/>
	<path d="M248.896,654.257c-3.961,6.861-1.61,15.633,5.25,19.594c6.861,3.961,15.633,1.61,19.594-5.25s1.61-15.633-5.25-19.594
		C261.629,645.046,252.857,647.397,248.896,654.257L248.896,654.257z M257.177,659.038c1.32-2.287,4.244-3.07,6.531-1.75
		s3.07,4.244,1.75,6.531s-4.244,3.07-6.531,1.75C256.641,664.249,255.857,661.325,257.177,659.038z"/>
</g>
</svg>
