<?xml version="1.0" encoding="utf-8"?>
<!-- Generator: Adobe Illustrator 17.0.0, SVG Export Plug-In . SVG Version: 6.00 Build 0)  -->
<!DOCTYPE svg PUBLIC "-//W3C//DTD SVG 1.1//EN" "http://www.w3.org/Graphics/SVG/1.1/DTD/svg11.dtd">
<svg version="1.1" id="Layer_1" xmlns="http://www.w3.org/2000/svg" xmlns:xlink="http://www.w3.org/1999/xlink" x="0px" y="0px"
	 width="612px" height="612px" viewBox="0 0 612 612" enable-background="new 0 0 612 612" xml:space="preserve">
<g>
	<path d="M306.01,449.437c-39.6,0-71.715,32.1-71.715,71.715c0,39.6,32.1,71.715,71.715,71.715c39.6,0,71.715-32.1,71.715-71.715
		S345.61,449.437,306.01,449.437z"/>
	<path d="M557.02,19.117H54.985c-17.94,0-35.865,17.94-35.865,35.865h0.045v286.875H90.88l71.715,71.715l71.715-71.715
		l71.715,71.715l71.715-71.715l71.715,71.715l71.715-71.715h71.715V54.982C592.885,37.043,574.945,19.117,557.02,19.117z"/>
</g>
</svg>
