<?xml version="1.0" encoding="utf-8"?>
<!-- Generator: Adobe Illustrator 17.0.0, SVG Export Plug-In . SVG Version: 6.00 Build 0)  -->
<!DOCTYPE svg PUBLIC "-//W3C//DTD SVG 1.1//EN" "http://www.w3.org/Graphics/SVG/1.1/DTD/svg11.dtd">
<svg version="1.1" id="Layer_1" xmlns="http://www.w3.org/2000/svg" xmlns:xlink="http://www.w3.org/1999/xlink" x="0px" y="0px"
	 width="613px" height="613px" viewBox="0 0 613 613" enable-background="new 0 0 613 613" xml:space="preserve">
<g>
	<path d="M484.487,467.772c73.245-53.975,111.484-168.667,6.313-218.483c46.712,72.29-15.68,125.579-72.601,49.563
		c-46.076-86.223,98.469-135.548-81.674-270.857h-0.003c57.899,85.47-22.053,174.007-76.09,70.508
		c32.626,172.725-77.965,198.841-89.355,89.355C79.474,268.88,101.74,372.03,152.65,449.199l-75.167,43.21
		c4.675,45.271,26.056,80.948,62.577,107.915l102.057-58.667c4.355,34.261,33.712,60.761,69.305,60.761
		c26.177,0,48.979-14.34,60.951-35.551l129.23,34.477c28.268-35.46,39.644-75.428,32.393-120.363L484.487,467.772z M183.161,329.132
		c30.707,47.13,127.717,12.047,116.085-71.656c12.784,38.337,45.18,34.604,78.623-24.528
		c-45.491,122.778,26.098,202.448,74.008,165.695c2.15,17.534-6.277,38.16-19.41,55.25l-143.359-38.247
		c-9.972,9.732-17.671,21.197-23.31,33.554l-23.879-7.566c-1.096-0.383-2.175-0.804-3.248-1.242c-0.268-0.109-0.534-0.22-0.8-0.333
		c-1.044-0.442-2.08-0.902-3.102-1.395c-0.095-0.046-0.188-0.096-0.283-0.143c-0.928-0.453-1.843-0.934-2.752-1.428
		c-0.33-0.18-0.659-0.361-0.986-0.546c-0.816-0.461-1.624-0.938-2.423-1.431c-0.395-0.244-0.786-0.496-1.177-0.748
		c-0.64-0.411-1.274-0.832-1.902-1.264c-0.435-0.299-0.868-0.602-1.297-0.91c-0.505-0.363-1.003-0.737-1.501-1.113
		c-0.765-0.578-1.521-1.171-2.268-1.779c-0.337-0.274-0.675-0.548-1.008-0.829c-0.542-0.456-1.081-0.918-1.613-1.389
		c-0.182-0.161-0.361-0.328-0.542-0.491c-1.088-0.982-2.157-1.994-3.202-3.039c-0.117-0.117-0.235-0.232-0.351-0.349
		c-1.825-1.845-3.582-3.784-5.268-5.808C189.416,394.841,179.486,361.62,183.161,329.132z"/>
	<path d="M207.834,57.527c-76.653,38.648-17.485,72.301-16.754,110.35C243.821,121.34,186.615,103.95,207.834,57.527z"/>
</g>
</svg>
