<?xml version="1.0" encoding="utf-8"?>
<!-- Generator: Adobe Illustrator 17.0.0, SVG Export Plug-In . SVG Version: 6.00 Build 0)  -->
<!DOCTYPE svg PUBLIC "-//W3C//DTD SVG 1.1//EN" "http://www.w3.org/Graphics/SVG/1.1/DTD/svg11.dtd">
<svg version="1.1" id="Layer_1" xmlns="http://www.w3.org/2000/svg" xmlns:xlink="http://www.w3.org/1999/xlink" x="0px" y="0px"
	 width="613px" height="613px" viewBox="0 0 613 613" enable-background="new 0 0 613 613" xml:space="preserve">
<g>
	<path d="M440.237,184.564l41.188-157.069h-0.002l-106.806,82.374l-75.393-80.28l-75.393,80.28l-97.732-76.091l39.093,150.786
		H440.237z M407.264,114.802c16.194,0,29.319,13.127,29.319,29.323c0,16.192-13.125,29.319-29.319,29.319
		c-16.194,0-29.319-13.127-29.319-29.319S391.07,114.802,407.264,114.802z M299.01,99.654l29.585,27.048l-29.585,38.894
		l-29.585-38.894L299.01,99.654z M197.184,114.802c16.194,0,29.319,13.127,29.319,29.323c0,16.192-13.125,29.319-29.319,29.319
		c-16.194,0-29.319-13.127-29.319-29.319S180.99,114.802,197.184,114.802z"/>
	<path d="M304.961,269.741c-57.023-107.06-199.333-67.18-202.885,45.967C98.29,436.3,256.124,466.835,304.961,587.225
		c46.234-120.373,199.862-158.165,203.483-271.517C512.305,194.866,361.885,171.671,304.961,269.741z"/>
</g>
</svg>
