<?xml version="1.0" encoding="utf-8"?>
<!-- Generator: Adobe Illustrator 17.0.0, SVG Export Plug-In . SVG Version: 6.00 Build 0)  -->
<!DOCTYPE svg PUBLIC "-//W3C//DTD SVG 1.1//EN" "http://www.w3.org/Graphics/SVG/1.1/DTD/svg11.dtd">
<svg version="1.1" id="Layer_1" xmlns="http://www.w3.org/2000/svg" xmlns:xlink="http://www.w3.org/1999/xlink" x="0px" y="0px"
	 width="613px" height="613px" viewBox="0 0 613 613" enable-background="new 0 0 613 613" xml:space="preserve">
<path d="M516.762,253.708l-38.239-19.604l-88.074,23.599l46.655-80.809l-4.258-66.026l-70.332,22.656l0-39.56l-47.459-71.185
	l-64.406,71.182l0,107.662l-41.539-71.948l-42.497-21.013l-11.19,52.01l80.002,138.569l-91.435,24.499l-27.963,33.415l40.927,14.957
	l79.899-21.408l-33.292,57.662l6.659,74.987l40.429-18.789v39.574l55.934,79.657l55.934-79.66l0-87.003l25.841,81.38l42.906,32.693
	l16.183-51.457L393.167,308.82l98.317-26.343L516.762,253.708z M298.699,408.838l0.001,0.001l-13.858-70.994l0,0l-3.367-17.249
	l-49.73-14.979l6.27-1.888l0,0l31.422-9.463l0,0l12.039-3.626l5.08-26.025l0,0l21.642-110.878l7.768,39.799l0,0.001l15.604,79.941
	l0,0l3.472,17.786l30.693,9.244l0,0l16.961,5.108l-20.181,6.079v0l-3.921,1.181l0,0l-23.553,7.095l-1.286,6.588l0,0l-9.903,50.737
	l-7.767,39.791l0,0l-7.887,40.411L298.699,408.838z"/>
</svg>
