<?xml version="1.0" encoding="utf-8"?>
<!-- Generator: Adobe Illustrator 17.0.0, SVG Export Plug-In . SVG Version: 6.00 Build 0)  -->
<!DOCTYPE svg PUBLIC "-//W3C//DTD SVG 1.1//EN" "http://www.w3.org/Graphics/SVG/1.1/DTD/svg11.dtd">
<svg version="1.1" id="Layer_1" xmlns="http://www.w3.org/2000/svg" xmlns:xlink="http://www.w3.org/1999/xlink" x="0px" y="0px"
	 width="612px" height="612px" viewBox="0 0 612 612" enable-background="new 0 0 612 612" xml:space="preserve">
<g transform="matrix(15 0 0 15 16.00003 -5569.4334)">
</g>
<g transform="matrix(6 0 0 6 -127.99999 -2602.17305)">
	<path d="M72.333,436.882v14.344H38.865l9.563,9.563l-23.906,23.906h14.344v33.469l9.563-9.563l23.906,23.906v-14.344h33.469
		l-9.563-9.563l23.906-23.906h-14.344v-33.469l-9.563,9.563L72.333,436.882z M72.333,460.788c13.203,0,23.906,10.703,23.906,23.906
		S85.536,508.6,72.333,508.6s-23.906-10.703-23.906-23.906C48.427,471.491,59.13,460.788,72.333,460.788z"/>
	<path d="M81.896,484.694c0,5.281-4.281,9.562-9.563,9.562s-9.563-4.281-9.563-9.562s4.281-9.562,9.563-9.562
		S81.896,479.413,81.896,484.694z"/>
</g>
</svg>
