<?xml version="1.0" encoding="utf-8"?>
<!-- Generator: Adobe Illustrator 17.0.0, SVG Export Plug-In . SVG Version: 6.00 Build 0)  -->
<!DOCTYPE svg PUBLIC "-//W3C//DTD SVG 1.1//EN" "http://www.w3.org/Graphics/SVG/1.1/DTD/svg11.dtd">
<svg version="1.1" id="Layer_1" xmlns="http://www.w3.org/2000/svg" xmlns:xlink="http://www.w3.org/1999/xlink" x="0px" y="0px"
	 width="613px" height="613px" viewBox="0 0 613 613" enable-background="new 0 0 613 613" xml:space="preserve">
<g>
	<path d="M163.625,350.127L34.433,481.109c64.654,210.493,278.316,46.558,162.24-66.702
		C173.337,391.636,162.118,368.223,163.625,350.127z M158.089,408.266c11.642,8.439,20.965,17.185,28.253,26.023
		c-34.747,4.387-97.15,52.082-110.299,86.644c-5.495-8.414-10.504-18.352-14.836-29.98L158.089,408.266z M88.307,536.467
		c35.488-4.188,95.457-55.058,108.576-86.982C239.725,524.747,147.266,597.703,88.307,536.467z"/>
	<path d="M236.387,363.319c-14.424,11.175-28.747,22.325-42.851,33.457l37.057,62.195c25.486-15.248,50.814-31.025,75.538-47.258
		c24.724,16.232,50.052,32.009,75.538,47.258l37.056-62.195c-14.104-11.132-28.426-22.282-42.85-33.457
		c142.262-104.861,245.13-224.315,204.013-341.514C537.367,122.186,424.629,216.896,306.13,309.306
		C187.632,216.896,74.895,122.186,32.374,21.805C-8.743,139.003,94.125,258.458,236.387,363.319z"/>
	<path d="M415.588,414.407c-116.075,113.26,97.587,277.196,162.24,66.702L448.636,350.127
		C450.143,368.222,438.925,391.635,415.588,414.407z M415.378,449.485c13.12,31.924,73.088,82.794,108.577,86.982
		C464.996,597.703,372.536,524.747,415.378,449.485z M551.053,490.953c-4.331,11.628-9.341,21.566-14.836,29.98
		c-13.148-34.562-75.551-82.257-110.299-86.644c7.289-8.838,16.612-17.584,28.253-26.023L551.053,490.953z"/>
</g>
</svg>
