<?xml version="1.0" encoding="utf-8"?>
<!-- Generator: Adobe Illustrator 17.0.0, SVG Export Plug-In . SVG Version: 6.00 Build 0)  -->
<!DOCTYPE svg PUBLIC "-//W3C//DTD SVG 1.1//EN" "http://www.w3.org/Graphics/SVG/1.1/DTD/svg11.dtd">
<svg version="1.1" id="Layer_1" xmlns="http://www.w3.org/2000/svg" xmlns:xlink="http://www.w3.org/1999/xlink" x="0px" y="0px"
	 width="613px" height="613px" viewBox="0 0 613 613" enable-background="new 0 0 613 613" xml:space="preserve">
<path d="M372.052,61.356c9.694,1.674,19.212,5.774,28.156,12.813c40.862,32.161,15.896,65.015-15.738,57.505
	c42.526,47.044,1.171,83.241-44.186,59.315c12.009,31.425-26.784,49.646-59.923,18.161l0.002-0.005
	c-1.737-1.651-3.331-3.365-4.799-5.13c-25.45,53.556-31.104,90.991-32.109,121.601c-0.459,13.975,1.151,22.646,4.01,28.169
	c-51.671,49.684-130.834,108.632-162.159,120.304c-30.709,11.437-41.728,1.129-58.764,21.87
	c-16.204,19.284,14.719,63.441,49.345,39.182c-31.57,49.421,31.473,88.506,50.67,19.217c15.917-59.41,99.36-128.75,158.632-178.564
	c0.375,0.699,0.735,1.441,1.074,2.238c45.629,2.612,118.585,6.081,217.038-44.808C710.512,226.125,550.13-109.632,372.052,61.356z
	 M75.89,535.139L75.89,535.139L75.89,535.139L75.89,535.139z M549.977,107.846c30.667,61.873,8.381,113.013-76.293,150.868
	C515.949,213.213,551.141,164.227,549.977,107.846z M335.885,345.582c77.806-27.1,159.907-70.294,227.814-119.411
	C517.877,288.704,442.615,348.347,335.885,345.582z"/>
</svg>
