<?xml version="1.0" encoding="utf-8"?>
<!-- Generator: Adobe Illustrator 17.0.0, SVG Export Plug-In . SVG Version: 6.00 Build 0)  -->
<!DOCTYPE svg PUBLIC "-//W3C//DTD SVG 1.1//EN" "http://www.w3.org/Graphics/SVG/1.1/DTD/svg11.dtd">
<svg version="1.1" id="Layer_1" xmlns="http://www.w3.org/2000/svg" xmlns:xlink="http://www.w3.org/1999/xlink" x="0px" y="0px"
	 width="613px" height="613px" viewBox="0 0 613 613" enable-background="new 0 0 613 613" xml:space="preserve">
<g>
	<path d="M306.228,23.316c-155.779,0-282.453,125.943-282.453,281.724s126.674,282.457,282.453,282.457
		s281.72-126.676,281.72-282.457S462.007,23.316,306.228,23.316z M306.228,517.8c-117.405,0-212.758-95.352-212.758-212.759
		S188.82,92.28,306.228,92.28c117.406,0,212.756,95.353,212.756,212.76S423.633,517.8,306.228,517.8z"/>
	<path d="M306.253,151.721c-84.867,0-154.074,68.428-154.074,153.297s69.21,154.079,154.074,154.079s153.293-69.21,153.295-154.079
		C459.55,220.149,391.12,151.721,306.253,151.721z M329.407,419.207l-22.644-85.005l-22.694,85.193
		c-46.059-9.054-82.339-45.726-91.383-91.87l84.809-22.592l-84.772-22.582c9.122-46.005,45.474-82.162,91.58-91.002l22.461,84.316
		l22.411-84.131c45.731,9.175,81.684,45.27,90.659,91.074l-83.804,22.324l83.841,22.334
		C410.973,373.208,375.091,409.815,329.407,419.207z"/>
</g>
</svg>
