<?xml version="1.0" encoding="utf-8"?>
<!-- Generator: Adobe Illustrator 17.0.0, SVG Export Plug-In . SVG Version: 6.00 Build 0)  -->
<!DOCTYPE svg PUBLIC "-//W3C//DTD SVG 1.1//EN" "http://www.w3.org/Graphics/SVG/1.1/DTD/svg11.dtd">
<svg version="1.1" id="Layer_1" xmlns="http://www.w3.org/2000/svg" xmlns:xlink="http://www.w3.org/1999/xlink" x="0px" y="0px"
	 width="613px" height="613px" viewBox="0 0 613 613" enable-background="new 0 0 613 613" xml:space="preserve">
<g>
	<path d="M547.202,149.832L325.227,21.675c-28.905-16.688-65.868-6.784-82.557,22.121L46.191,384.109
		c-16.689,28.905-6.784,65.868,22.121,82.557l221.975,128.157c28.905,16.689,65.868,6.784,82.557-22.121l196.479-340.313
		C586.012,203.484,576.107,166.521,547.202,149.832z M282.956,72.221c7.311-12.662,23.503-17.002,36.167-9.691
		c12.664,7.311,17.002,23.504,9.691,36.166c-7.311,12.663-23.503,17.002-36.167,9.691
		C279.983,101.076,275.645,84.883,282.956,72.221z M323.515,390.18c-11.29-6.971-19.24-17.43-23.423-29.144l-4.843,30.48l0,0.002
		l-6.988,43.982l-78.694-48.581l0.277-0.198l-0.001,0l60.106-43.102c-1.34,0.127-2.687,0.2-4.036,0.233
		c-0.153,0.004-0.306,0.013-0.46,0.015c-0.722,0.012-1.446,0.009-2.169-0.007c-0.19-0.004-0.381-0.017-0.571-0.023
		c-0.531-0.017-1.062-0.036-1.593-0.068c-0.284-0.017-0.567-0.044-0.85-0.065c-0.439-0.033-0.878-0.065-1.316-0.108
		c-0.309-0.03-0.617-0.07-0.925-0.105c-0.414-0.048-0.827-0.095-1.241-0.152c-0.32-0.044-0.639-0.096-0.959-0.146
		c-0.401-0.062-0.801-0.125-1.201-0.196c-0.325-0.058-0.65-0.122-0.975-0.185c-0.394-0.077-0.788-0.156-1.181-0.242
		c-0.326-0.071-0.652-0.147-0.978-0.224c-0.39-0.092-0.78-0.188-1.169-0.289c-0.325-0.084-0.649-0.172-0.973-0.262
		c-0.389-0.109-0.778-0.222-1.166-0.339c-0.32-0.097-0.64-0.196-0.959-0.298c-0.39-0.125-0.778-0.257-1.166-0.392
		c-0.316-0.109-0.631-0.219-0.946-0.334c-0.39-0.143-0.778-0.294-1.167-0.446c-0.308-0.121-0.616-0.24-0.923-0.367
		c-0.394-0.163-0.786-0.335-1.178-0.508c-0.298-0.131-0.596-0.259-0.893-0.395c-0.403-0.186-0.802-0.383-1.202-0.578
		c-0.281-0.138-0.563-0.27-0.843-0.413c-0.428-0.219-0.852-0.45-1.276-0.681c-0.248-0.135-0.497-0.263-0.744-0.401
		c-0.563-0.317-1.121-0.649-1.677-0.988c-0.1-0.061-0.202-0.117-0.302-0.179c-0.044-0.027-0.085-0.057-0.129-0.084
		c-0.727-0.452-1.44-0.919-2.14-1.398c-0.27-0.185-0.531-0.379-0.797-0.568c-0.467-0.332-0.931-0.666-1.386-1.01
		c-0.303-0.23-0.601-0.465-0.898-0.7c-0.4-0.315-0.795-0.635-1.184-0.959c-0.312-0.26-0.621-0.523-0.925-0.789
		c-0.356-0.311-0.706-0.627-1.053-0.945c-0.313-0.287-0.626-0.573-0.932-0.866c-0.315-0.302-0.62-0.612-0.927-0.921
		c-0.317-0.319-0.639-0.635-0.948-0.961c-0.207-0.218-0.403-0.444-0.606-0.665c-0.779-0.849-1.531-1.716-2.252-2.606
		c-0.117-0.144-0.238-0.284-0.353-0.428c-0.38-0.478-0.745-0.965-1.108-1.453c-0.135-0.182-0.273-0.362-0.406-0.545
		c-0.362-0.5-0.714-1.006-1.059-1.516c-0.113-0.167-0.225-0.334-0.336-0.501c-0.357-0.54-0.706-1.084-1.044-1.635
		c-0.07-0.114-0.138-0.23-0.208-0.345c-1.989-3.296-3.638-6.772-4.926-10.371c-0.002-0.004-0.004-0.008-0.006-0.013
		c-5.652-15.813-4.39-33.963,5.048-49.248c16.464-26.665,51.863-35.037,78.527-18.574c2.076,1.282,3.844,2.858,5.697,4.35
		c-1.262-11.976,1.159-24.827,7.915-35.887c0.001,0,0.001,0,0.002,0c0.044-0.073,0.084-0.147,0.129-0.219
		c0.126-0.204,0.262-0.398,0.39-0.6c0.365-0.575,0.732-1.149,1.114-1.706c0.224-0.326,0.459-0.639,0.689-0.959
		c0.307-0.428,0.613-0.858,0.93-1.275c0.254-0.333,0.517-0.656,0.777-0.982c0.308-0.387,0.616-0.774,0.933-1.151
		c0.273-0.325,0.554-0.641,0.833-0.958c0.319-0.362,0.639-0.722,0.966-1.074c0.289-0.311,0.582-0.616,0.876-0.919
		c0.331-0.341,0.666-0.678,1.005-1.009c0.301-0.294,0.605-0.586,0.912-0.872c0.347-0.324,0.699-0.642,1.054-0.957
		c0.31-0.275,0.62-0.549,0.936-0.816c0.367-0.311,0.74-0.613,1.114-0.913c0.314-0.252,0.626-0.507,0.945-0.751
		c0.395-0.303,0.797-0.595,1.199-0.887c0.309-0.224,0.614-0.453,0.927-0.671c0.451-0.314,0.911-0.612,1.37-0.911
		c0.273-0.178,0.542-0.365,0.818-0.538c0.727-0.456,1.462-0.895,2.207-1.316c0.238-0.135,0.483-0.257,0.723-0.388
		c0.524-0.286,1.049-0.572,1.581-0.841c0.322-0.163,0.649-0.312,0.974-0.469c0.459-0.221,0.918-0.443,1.382-0.651
		c0.35-0.157,0.703-0.303,1.056-0.452c0.447-0.19,0.895-0.378,1.347-0.556c0.365-0.143,0.732-0.279,1.099-0.415
		c0.448-0.166,0.897-0.328,1.349-0.482c0.373-0.127,0.747-0.249,1.122-0.368c0.454-0.144,0.91-0.283,1.367-0.416
		c0.376-0.109,0.754-0.216,1.132-0.318c0.466-0.125,0.935-0.242,1.404-0.355c0.373-0.09,0.746-0.181,1.121-0.263
		c0.486-0.107,0.975-0.202,1.465-0.296c0.362-0.07,0.724-0.143,1.087-0.206c0.524-0.09,1.051-0.166,1.578-0.242
		c0.332-0.048,0.662-0.102,0.994-0.144c0.654-0.082,1.31-0.146,1.967-0.206c0.208-0.019,0.414-0.046,0.622-0.063
		c0.861-0.069,1.725-0.117,2.59-0.147c0.267-0.009,0.535-0.006,0.803-0.012c0.605-0.012,1.209-0.023,1.815-0.016
		c0.338,0.004,0.676,0.02,1.014,0.029c0.537,0.016,1.074,0.032,1.612,0.063c0.361,0.021,0.722,0.051,1.083,0.079
		c0.516,0.039,1.031,0.081,1.547,0.135c0.37,0.038,0.74,0.084,1.109,0.129c0.508,0.063,1.015,0.13,1.523,0.207
		c0.371,0.056,0.741,0.116,1.111,0.179c0.508,0.087,1.016,0.182,1.523,0.283c0.364,0.072,0.729,0.146,1.092,0.226
		c0.517,0.113,1.033,0.238,1.548,0.366c0.35,0.087,0.701,0.172,1.05,0.266c0.54,0.145,1.077,0.304,1.614,0.466
		c0.32,0.096,0.642,0.187,0.961,0.289c0.602,0.192,1.2,0.403,1.798,0.616c0.251,0.09,0.505,0.171,0.755,0.264
		c1.635,0.609,3.253,1.301,4.849,2.068c0.311,0.149,0.62,0.309,0.929,0.464c0.5,0.251,0.998,0.507,1.493,0.774
		c0.243,0.131,0.486,0.262,0.728,0.396c0.751,0.419,1.498,0.849,2.236,1.305c26.661,16.464,34.802,50.88,18.339,77.544
		c-0.046,0.074-0.095,0.144-0.141,0.218c-0.506,0.81-1.031,1.601-1.573,2.375c-0.145,0.208-0.292,0.412-0.439,0.617
		c-0.551,0.767-1.115,1.521-1.698,2.253c-6.639,8.342-15.333,14.394-24.825,17.904c2.392,1.044,4.767,2.111,7.048,3.52
		c15.203,9.386,24.251,24.807,26.18,41.272c0.135,1.154,0.231,2.314,0.296,3.477c0.018,0.32,0.042,0.64,0.055,0.961
		c0.019,0.483,0.023,0.966,0.029,1.45c0.005,0.371,0.012,0.742,0.01,1.114c-0.003,0.466-0.016,0.933-0.03,1.4
		c-0.012,0.392-0.026,0.783-0.046,1.175c-0.023,0.455-0.052,0.91-0.086,1.365c-0.031,0.408-0.067,0.816-0.107,1.224
		c-0.042,0.441-0.086,0.881-0.139,1.321c-0.052,0.433-0.114,0.865-0.176,1.297c-0.06,0.417-0.116,0.835-0.185,1.251
		c-0.083,0.502-0.182,1.003-0.279,1.503c-0.067,0.346-0.125,0.692-0.198,1.037c-0.175,0.82-0.368,1.639-0.58,2.455
		c-0.083,0.319-0.179,0.635-0.267,0.953c-0.147,0.53-0.295,1.061-0.458,1.589c-0.108,0.35-0.227,0.698-0.342,1.046
		c-0.164,0.495-0.33,0.99-0.508,1.482c-0.127,0.353-0.262,0.705-0.396,1.056c-0.187,0.488-0.381,0.975-0.582,1.46
		c-0.143,0.344-0.288,0.687-0.438,1.03c-0.218,0.499-0.447,0.995-0.681,1.49c-0.151,0.321-0.3,0.642-0.458,0.961
		c-0.268,0.541-0.551,1.078-0.837,1.615c-0.142,0.266-0.277,0.533-0.423,0.797c-0.442,0.797-0.9,1.588-1.384,2.371
		C384.972,397.897,350.181,406.644,323.515,390.18z M331.238,546.578c-7.311,12.663-23.503,17.002-36.167,9.691
		c-12.664-7.311-17.002-23.503-9.691-36.166c7.311-12.663,23.503-17.002,36.167-9.691
		C334.211,517.723,338.549,533.915,331.238,546.578z"/>
</g>
</svg>
