<?xml version="1.0" encoding="utf-8"?>
<!-- Generator: Adobe Illustrator 17.0.0, SVG Export Plug-In . SVG Version: 6.00 Build 0)  -->
<!DOCTYPE svg PUBLIC "-//W3C//DTD SVG 1.1//EN" "http://www.w3.org/Graphics/SVG/1.1/DTD/svg11.dtd">
<svg version="1.1" id="Layer_1" xmlns="http://www.w3.org/2000/svg" xmlns:xlink="http://www.w3.org/1999/xlink" x="0px" y="0px"
	 width="613px" height="613px" viewBox="0 0 613 613" enable-background="new 0 0 613 613" xml:space="preserve">
<path d="M540.011,184.164c-16.543-9.859-35.606-11.423-58.442-7.145l-0.002,0.003c-14.725,2.759-30.737,8.437-47.908,17.065
	c0.249-6.005,0.393-11.938,0.393-17.776h-0.187c0.52-2.679,0.794-5.393,0.794-8.139c0-46.374-75.817-83.969-169.342-83.969
	S95.975,121.799,95.975,168.172c0,2.746,0.275,5.46,0.794,8.139h-0.087c-0.654,97.507,19.43,195.202,17.875,292.608
	c-0.739,46.342,56.868,83.199,150.342,83.199s139.842-37.731,139.842-83.199c0-6.18,0.113-12.379,0.321-18.592
	c49.055,2.65,90.159-19.767,119.001-51.24c29.951-32.683,48.311-74.865,53.028-114.42S573.096,203.883,540.011,184.164z
	 M265.944,131.547c71.355,0,129.198,19.568,129.198,43.706c0,0.354-0.015,0.706-0.04,1.058h0c-0.026,0.367-0.065,0.734-0.118,1.099
	c0,0.002,0,0.004-0.001,0.007c-0.049,0.339-0.112,0.677-0.183,1.014c-0.006,0.031-0.011,0.061-0.017,0.092
	c-0.069,0.316-0.152,0.63-0.241,0.944c-0.014,0.051-0.025,0.103-0.04,0.154c-0.088,0.299-0.189,0.598-0.295,0.895
	c-0.023,0.065-0.042,0.13-0.066,0.194c-0.106,0.287-0.224,0.573-0.346,0.858c-0.032,0.074-0.059,0.149-0.092,0.223
	c-0.123,0.276-0.258,0.551-0.395,0.826c-0.041,0.082-0.078,0.165-0.121,0.247c-0.138,0.266-0.288,0.531-0.441,0.795
	c-0.052,0.09-0.099,0.18-0.153,0.27c-0.153,0.257-0.318,0.513-0.485,0.769c-0.062,0.095-0.12,0.191-0.184,0.286
	c-0.168,0.25-0.347,0.499-0.528,0.747c-0.072,0.099-0.141,0.199-0.215,0.298c-0.183,0.245-0.377,0.488-0.573,0.73
	c-0.081,0.101-0.16,0.203-0.243,0.304c-0.197,0.239-0.405,0.476-0.614,0.713c-0.092,0.104-0.181,0.209-0.275,0.313
	c-0.211,0.232-0.431,0.464-0.653,0.694c-0.103,0.107-0.202,0.214-0.307,0.32c-0.224,0.227-0.457,0.452-0.691,0.677
	c-0.114,0.109-0.225,0.219-0.341,0.327c-0.236,0.221-0.481,0.44-0.727,0.66c-0.125,0.111-0.247,0.222-0.374,0.333
	c-0.249,0.216-0.506,0.431-0.764,0.645c-0.135,0.112-0.269,0.225-0.407,0.337c-0.261,0.211-0.53,0.421-0.8,0.631
	c-0.145,0.113-0.289,0.226-0.437,0.338c-0.274,0.207-0.555,0.413-0.838,0.619c-0.155,0.113-0.309,0.226-0.466,0.338
	c-0.284,0.202-0.575,0.402-0.867,0.602c-0.168,0.115-0.335,0.23-0.506,0.344c-0.294,0.196-0.594,0.391-0.896,0.586
	c-0.179,0.115-0.357,0.231-0.539,0.345c-0.304,0.192-0.615,0.382-0.927,0.572c-0.19,0.116-0.38,0.232-0.573,0.347
	c-0.315,0.188-0.635,0.374-0.958,0.559c-0.2,0.115-0.399,0.23-0.601,0.344c-0.325,0.183-0.656,0.366-0.99,0.547
	c-0.211,0.115-0.422,0.23-0.636,0.344c-0.335,0.179-0.674,0.356-1.016,0.533c-0.221,0.115-0.442,0.229-0.667,0.343
	c-0.346,0.175-0.696,0.349-1.049,0.523c-0.231,0.113-0.461,0.227-0.695,0.339c-0.355,0.171-0.714,0.341-1.076,0.51
	c-0.241,0.113-0.483,0.225-0.727,0.337c-0.364,0.167-0.732,0.332-1.103,0.497c-0.251,0.112-0.503,0.223-0.757,0.334
	c-0.372,0.162-0.749,0.324-1.128,0.484c-0.263,0.112-0.528,0.223-0.794,0.334c-0.379,0.158-0.762,0.314-1.148,0.47
	c-0.273,0.11-0.547,0.22-0.823,0.329c-0.39,0.154-0.783,0.307-1.179,0.46c-0.282,0.108-0.565,0.216-0.849,0.324
	c-0.397,0.15-0.797,0.299-1.2,0.447c-0.294,0.108-0.589,0.215-0.886,0.322c-0.403,0.145-0.809,0.289-1.218,0.432
	c-0.305,0.107-0.611,0.213-0.919,0.318c-0.41,0.141-0.823,0.281-1.239,0.42c-0.314,0.105-0.63,0.209-0.947,0.313
	c-0.419,0.137-0.84,0.273-1.265,0.409c-0.323,0.103-0.649,0.205-0.975,0.307c-0.424,0.132-0.849,0.264-1.278,0.394
	c-0.336,0.102-0.675,0.204-1.015,0.305c-0.43,0.128-0.862,0.255-1.298,0.381c-0.344,0.1-0.69,0.198-1.037,0.297
	c-0.437,0.124-0.876,0.247-1.318,0.369c-0.357,0.099-0.716,0.196-1.076,0.293c-0.44,0.119-0.881,0.237-1.325,0.354
	c-0.367,0.096-0.736,0.192-1.106,0.287c-0.448,0.115-0.898,0.23-1.351,0.344c-0.372,0.093-0.747,0.185-1.121,0.277
	c-0.456,0.112-0.913,0.223-1.374,0.333c-0.382,0.091-0.767,0.181-1.152,0.27c-0.461,0.107-0.923,0.214-1.388,0.32
	c-0.393,0.089-0.79,0.177-1.186,0.264c-0.463,0.102-0.927,0.204-1.394,0.305c-0.403,0.087-0.809,0.172-1.216,0.257
	c-0.47,0.099-0.94,0.197-1.414,0.293c-0.409,0.083-0.821,0.165-1.233,0.247c-0.479,0.095-0.957,0.19-1.44,0.283
	c-0.415,0.08-0.833,0.158-1.25,0.236c-0.483,0.091-0.967,0.182-1.454,0.27c-0.428,0.078-0.859,0.154-1.29,0.23
	c-0.484,0.086-0.968,0.172-1.456,0.256c-0.438,0.075-0.88,0.148-1.32,0.222c-0.488,0.081-0.975,0.163-1.466,0.242
	c-0.445,0.072-0.893,0.142-1.341,0.212c-0.494,0.078-0.988,0.155-1.486,0.231c-0.451,0.068-0.906,0.135-1.361,0.201
	c-0.499,0.073-0.996,0.147-1.498,0.218c-0.464,0.066-0.932,0.129-1.399,0.193c-0.497,0.068-0.993,0.137-1.493,0.203
	c-0.474,0.063-0.952,0.123-1.428,0.184c-0.502,0.064-1.002,0.129-1.506,0.191c-0.478,0.059-0.96,0.115-1.441,0.172
	c-0.507,0.06-1.013,0.121-1.523,0.179c-0.485,0.055-0.974,0.107-1.461,0.161c-0.512,0.056-1.023,0.112-1.538,0.166
	c-0.491,0.051-0.987,0.1-1.48,0.149c-0.516,0.052-1.03,0.104-1.549,0.153c-0.497,0.047-0.998,0.092-1.498,0.137
	c-0.52,0.047-1.039,0.096-1.561,0.141c-0.512,0.044-1.028,0.085-1.543,0.127c-0.513,0.042-1.025,0.085-1.54,0.125
	c-0.534,0.041-1.071,0.079-1.607,0.118c-0.503,0.037-1.004,0.075-1.508,0.109c-0.543,0.037-1.09,0.071-1.635,0.106
	c-0.504,0.032-1.006,0.066-1.512,0.097c-0.558,0.033-1.12,0.063-1.68,0.094c-0.496,0.027-0.99,0.057-1.487,0.082
	c-0.573,0.029-1.15,0.055-1.726,0.082c-0.492,0.023-0.982,0.048-1.475,0.069c-0.582,0.025-1.168,0.046-1.753,0.068
	c-0.49,0.019-0.978,0.039-1.469,0.056c-0.59,0.02-1.183,0.036-1.775,0.053c-0.492,0.014-0.981,0.031-1.475,0.044
	c-0.615,0.016-1.234,0.027-1.852,0.04c-0.471,0.01-0.94,0.022-1.413,0.03c-0.719,0.012-1.441,0.02-2.162,0.028
	c-0.375,0.004-0.749,0.011-1.125,0.014c-1.078,0.009-2.16,0.014-3.245,0.014c-0.022,0-0.044,0-0.066,0
	c-1.108,0-2.212-0.005-3.313-0.014c-0.327-0.003-0.653-0.009-0.979-0.012c-0.771-0.009-1.543-0.017-2.31-0.03
	c-0.423-0.007-0.843-0.018-1.265-0.027c-0.668-0.014-1.337-0.026-2.002-0.043c-0.446-0.011-0.888-0.026-1.332-0.039
	c-0.641-0.019-1.282-0.036-1.92-0.058c-0.442-0.015-0.88-0.034-1.321-0.05c-0.635-0.024-1.271-0.047-1.903-0.074
	c-0.444-0.019-0.885-0.041-1.327-0.062c-0.626-0.029-1.253-0.057-1.877-0.089c-0.446-0.023-0.889-0.049-1.333-0.074
	c-0.613-0.034-1.227-0.066-1.837-0.103c-0.455-0.027-0.907-0.058-1.361-0.087c-0.597-0.038-1.195-0.075-1.789-0.116
	c-0.453-0.031-0.903-0.065-1.355-0.098c-0.589-0.043-1.178-0.084-1.763-0.13c-0.463-0.036-0.922-0.075-1.382-0.112
	c-0.568-0.046-1.137-0.092-1.703-0.141c-0.47-0.041-0.937-0.084-1.405-0.127c-0.553-0.05-1.107-0.099-1.658-0.152
	c-0.465-0.044-0.926-0.091-1.388-0.138c-0.549-0.055-1.098-0.108-1.644-0.165c-0.461-0.048-0.917-0.099-1.376-0.149
	c-0.543-0.059-1.086-0.117-1.626-0.179c-0.455-0.052-0.906-0.106-1.359-0.159c-0.537-0.063-1.074-0.126-1.608-0.192
	c-0.449-0.055-0.895-0.113-1.342-0.17c-0.533-0.068-1.066-0.135-1.596-0.205c-0.444-0.059-0.884-0.12-1.326-0.18
	c-0.524-0.072-1.049-0.143-1.569-0.217c-0.445-0.063-0.887-0.129-1.33-0.194c-0.512-0.075-1.024-0.15-1.532-0.227
	c-0.442-0.067-0.879-0.136-1.318-0.205c-0.504-0.079-1.009-0.157-1.51-0.239c-0.435-0.07-0.867-0.143-1.3-0.215
	c-0.498-0.083-0.996-0.166-1.491-0.251c-0.431-0.074-0.858-0.15-1.285-0.226c-0.489-0.086-0.979-0.173-1.464-0.261
	c-0.43-0.078-0.856-0.159-1.283-0.238c-0.476-0.089-0.951-0.178-1.423-0.269c-0.426-0.082-0.849-0.166-1.271-0.25
	c-0.47-0.093-0.94-0.186-1.406-0.281c-0.416-0.085-0.829-0.171-1.242-0.258c-0.464-0.097-0.929-0.194-1.389-0.293
	c-0.41-0.088-0.817-0.178-1.224-0.268c-0.454-0.1-0.908-0.2-1.358-0.302c-0.408-0.092-0.813-0.186-1.218-0.28
	c-0.444-0.103-0.887-0.206-1.327-0.311c-0.402-0.096-0.801-0.193-1.199-0.29c-0.435-0.106-0.869-0.213-1.3-0.321
	c-0.394-0.099-0.785-0.199-1.175-0.299c-0.43-0.11-0.859-0.221-1.284-0.333c-0.385-0.101-0.768-0.204-1.149-0.307
	c-0.42-0.113-0.839-0.227-1.254-0.342c-0.383-0.106-0.763-0.213-1.143-0.32c-0.407-0.115-0.812-0.231-1.215-0.348
	c-0.376-0.109-0.75-0.219-1.122-0.33c-0.399-0.119-0.797-0.238-1.192-0.358c-0.37-0.112-0.737-0.226-1.102-0.34
	c-0.386-0.12-0.771-0.241-1.154-0.363c-0.366-0.117-0.729-0.234-1.09-0.352c-0.377-0.123-0.752-0.247-1.124-0.371
	c-0.357-0.119-0.711-0.24-1.064-0.36c-0.367-0.126-0.733-0.252-1.096-0.38c-0.35-0.123-0.698-0.246-1.044-0.371
	c-0.356-0.128-0.71-0.257-1.062-0.386c-0.345-0.127-0.687-0.254-1.027-0.382c-0.344-0.13-0.685-0.26-1.025-0.391
	c-0.338-0.13-0.673-0.261-1.007-0.393c-0.335-0.132-0.667-0.266-0.998-0.399c-0.327-0.133-0.653-0.266-0.976-0.399
	c-0.325-0.135-0.647-0.27-0.967-0.406c-0.322-0.137-0.642-0.274-0.958-0.412c-0.312-0.136-0.622-0.273-0.93-0.41
	c-0.313-0.14-0.625-0.28-0.934-0.421c-0.301-0.138-0.599-0.276-0.896-0.415c-0.306-0.143-0.611-0.287-0.912-0.432
	c-0.29-0.139-0.576-0.28-0.862-0.421c-0.297-0.146-0.592-0.293-0.884-0.44c-0.281-0.142-0.558-0.286-0.834-0.429
	c-0.286-0.148-0.571-0.297-0.852-0.447c-0.27-0.144-0.536-0.289-0.802-0.434c-0.278-0.152-0.555-0.304-0.827-0.457
	c-0.258-0.145-0.512-0.292-0.766-0.438c-0.268-0.155-0.535-0.309-0.797-0.465c-0.248-0.148-0.492-0.296-0.735-0.445
	c-0.258-0.158-0.516-0.315-0.768-0.474c-0.236-0.149-0.467-0.298-0.699-0.448c-0.248-0.161-0.496-0.321-0.739-0.483
	c-0.224-0.15-0.443-0.3-0.663-0.451c-0.24-0.165-0.48-0.329-0.713-0.495c-0.211-0.149-0.416-0.3-0.621-0.45
	c-0.231-0.169-0.462-0.337-0.686-0.507c-0.2-0.151-0.394-0.303-0.589-0.456c-0.219-0.171-0.438-0.341-0.65-0.513
	c-0.189-0.153-0.372-0.306-0.556-0.46c-0.208-0.174-0.416-0.347-0.618-0.522c-0.177-0.154-0.348-0.308-0.52-0.463
	c-0.196-0.176-0.394-0.352-0.584-0.53c-0.165-0.154-0.323-0.309-0.483-0.464c-0.186-0.18-0.373-0.36-0.552-0.541
	c-0.153-0.155-0.299-0.31-0.447-0.466c-0.174-0.183-0.35-0.365-0.517-0.549c-0.141-0.155-0.274-0.311-0.41-0.467
	c-0.163-0.186-0.327-0.372-0.482-0.559c-0.129-0.156-0.25-0.312-0.375-0.468c-0.15-0.189-0.302-0.377-0.444-0.567
	c-0.118-0.157-0.228-0.316-0.342-0.474c-0.136-0.19-0.275-0.38-0.404-0.572c-0.106-0.158-0.204-0.316-0.305-0.474
	c-0.124-0.193-0.25-0.387-0.366-0.581c-0.094-0.157-0.179-0.315-0.268-0.473c-0.111-0.197-0.225-0.394-0.328-0.592
	c-0.081-0.156-0.154-0.313-0.23-0.47c-0.098-0.201-0.199-0.402-0.289-0.604c-0.069-0.156-0.129-0.312-0.194-0.469
	c-0.084-0.204-0.172-0.408-0.247-0.613c-0.058-0.156-0.105-0.312-0.158-0.468c-0.07-0.207-0.143-0.414-0.205-0.622
	c-0.045-0.154-0.081-0.308-0.121-0.462c-0.056-0.212-0.115-0.423-0.162-0.636c-0.033-0.149-0.056-0.3-0.084-0.45
	c-0.042-0.219-0.087-0.437-0.119-0.656c-0.021-0.144-0.032-0.289-0.049-0.434c-0.026-0.226-0.056-0.452-0.073-0.679
	c-0.026-0.359-0.04-0.719-0.04-1.081C136.746,151.114,194.589,131.547,265.944,131.547z M534.491,280.441
	c-3.581,30.05-18.125,64.869-41.199,90.045c-22.187,24.208-50.202,39.086-85.437,37.13c5.128-55.146,15.387-110.346,21.437-161.739
	c49.733-31.783,77.445-32.047,89.58-24.813C531.148,228.383,538.072,250.391,534.491,280.441z"/>
</svg>
