<?xml version="1.0" encoding="utf-8"?>
<!-- Generator: Adobe Illustrator 17.0.0, SVG Export Plug-In . SVG Version: 6.00 Build 0)  -->
<!DOCTYPE svg PUBLIC "-//W3C//DTD SVG 1.1//EN" "http://www.w3.org/Graphics/SVG/1.1/DTD/svg11.dtd">
<svg version="1.1" id="Layer_1" xmlns="http://www.w3.org/2000/svg" xmlns:xlink="http://www.w3.org/1999/xlink" x="0px" y="0px"
	 width="613px" height="613px" viewBox="0 0 613 613" enable-background="new 0 0 613 613" xml:space="preserve">
<path d="M440.62,262.32c-27.895,31.797-13.731,26.185-65.064,51.703l64.861-51.973c-15.509-20.642-32.044-39.461-49.449-55.322
	c-31.164,47.476-52.293,54.536-93.908,72.449l93.497-72.822c-29.267-26.572-60.984-44.762-94.417-49.119
	c-9.583-1.249-19.695-0.052-29.726,3.043c-37.791-56.811-19.999-77.159,6.806-129.556c-37.671,13.184-43.831,20.105-61.984,80.528
	c-22.029-40.125-91.37-69.25-148.888-76.871c52.315,36.03,92.462,69.908,91.68,113.686c-42.875-7.939-77.918-0.979-125.603,24.755
	c76.426-7.265,156.142-3.628,179.426,29.756c-11.765,15.468-19.183,33.103-18.978,50.009
	c2.056,169.352,370.834,371.8,387.819,328.233C584.92,559.704,529.715,381.061,440.62,262.32z"/>
</svg>
