<?xml version="1.0" encoding="utf-8"?>
<!-- Generator: Adobe Illustrator 17.0.0, SVG Export Plug-In . SVG Version: 6.00 Build 0)  -->
<!DOCTYPE svg PUBLIC "-//W3C//DTD SVG 1.1//EN" "http://www.w3.org/Graphics/SVG/1.1/DTD/svg11.dtd">
<svg version="1.1" id="Layer_1" xmlns="http://www.w3.org/2000/svg" xmlns:xlink="http://www.w3.org/1999/xlink" x="0px" y="0px"
	 width="613px" height="613px" viewBox="0 0 613 613" enable-background="new 0 0 613 613" xml:space="preserve">
<g>
	<rect x="372.151" y="173.691" width="66.151" height="66.151"/>
	<rect x="372.151" y="305.993" width="66.151" height="66.151"/>
	<rect x="306" y="372.144" width="66.151" height="66.151"/>
	<rect x="107.547" y="173.691" width="66.151" height="66.151"/>
	<rect x="173.698" y="107.54" width="66.151" height="66.151"/>
	<rect x="306" y="107.54" width="66.151" height="66.151"/>
	<rect x="173.698" y="239.842" width="66.151" height="66.151"/>
	<rect x="239.849" y="305.993" width="66.151" height="66.151"/>
	<rect x="306" y="239.842" width="66.151" height="66.151"/>
	<rect x="239.849" y="173.691" width="66.151" height="66.151"/>
	<rect x="173.698" y="372.144" width="66.151" height="66.151"/>
	<rect x="107.547" y="305.993" width="66.151" height="66.151"/>
	<rect x="372.151" y="438.295" width="66.151" height="66.151"/>
	<rect x="438.302" y="239.842" width="66.151" height="66.151"/>
	<rect x="239.849" y="438.295" width="66.151" height="66.151"/>
	<rect x="438.302" y="372.144" width="66.151" height="66.151"/>
	<rect x="438.302" y="107.54" width="66.151" height="66.151"/>
	<path d="M17.75,17.743v576.5h576.5v-576.5H17.75z M570.604,173.691h-66.151v66.151h66.151v66.151h-66.151v66.151h66.151v66.151
		h-66.151v66.151h66.151v66.151h-66.151v-66.151h-66.151v66.151h-66.151v-66.151H306v66.151h-66.151v-66.151h-66.151v66.151h-66.151
		v-66.151H41.396v-66.151h66.151v-66.151H41.396v-66.151h66.151v-66.151H41.396v-66.151h66.151V107.54H41.396V41.389h66.151v66.151
		h66.151V41.389h66.151v66.151H306V41.389h66.151v66.151h66.151V41.389h66.151v66.151h66.151V173.691z"/>
	<rect x="107.547" y="438.295" width="66.151" height="66.151"/>
</g>
</svg>
