<?xml version="1.0" encoding="utf-8"?>
<!-- Generator: Adobe Illustrator 17.0.0, SVG Export Plug-In . SVG Version: 6.00 Build 0)  -->
<!DOCTYPE svg PUBLIC "-//W3C//DTD SVG 1.1//EN" "http://www.w3.org/Graphics/SVG/1.1/DTD/svg11.dtd">
<svg version="1.1" id="Layer_1" xmlns="http://www.w3.org/2000/svg" xmlns:xlink="http://www.w3.org/1999/xlink" x="0px" y="0px"
	 width="613px" height="613px" viewBox="0 0 613 613" enable-background="new 0 0 613 613" xml:space="preserve">
<path d="M218.148,24.589c28.958,222.269-112.685,336.106-83.301,445.765c4.384,16.362,12.201,31.303,22.58,44.658
	c-3.07-8.535-4.831-17.528-5.031-26.89c-1.259-58.963,60.355-110.216,104.4-192.734c13.78,37.367,28.449,82.164,20.028,139.003
	c75.227-21.841,132.397-79.526,144.876-140.653c57.843,103.526,49.568,225.493-59.979,288.505c-2.543,1.463-5.142,2.816-7.784,4.073
	c29.821-4.293,57.519-15.249,79.15-33.774h0.001C610.552,400.561,464.006,123.809,218.148,24.589z"/>
</svg>
