<?xml version="1.0" encoding="utf-8"?>
<!-- Generator: Adobe Illustrator 17.0.0, SVG Export Plug-In . SVG Version: 6.00 Build 0)  -->
<!DOCTYPE svg PUBLIC "-//W3C//DTD SVG 1.1//EN" "http://www.w3.org/Graphics/SVG/1.1/DTD/svg11.dtd">
<svg version="1.1" id="Layer_1" xmlns="http://www.w3.org/2000/svg" xmlns:xlink="http://www.w3.org/1999/xlink" x="0px" y="0px"
	 width="613px" height="613px" viewBox="0 0 613 613" enable-background="new 0 0 613 613" xml:space="preserve">
<g>
	<path d="M409.438,244.323c16.051-5.507,34.296-8.535,55.047-8.535c-19.743-79.304-80.404-185.833-160.714-224.922
		c-78.67,36.962-144.069,144.611-160.713,224.922c20.652,0,38.914,2.834,55.047,8.193c-39.354,60.859-66.759,161.118-66.759,300.897
		c56.63,33.58,111.118,51.543,166.182,52.788c-62.753-5.203-112.637-88.479-112.637-190.452c0-59.895,17.216-113.328,44.137-148.288
		c8.283,5.483,15.808,11.865,22.621,19.093l18.288-19.979c-6.2-7.139-13.232-13.703-21.198-19.906
		c0.002-0.002,0.005-0.004,0.007-0.006c-0.098-0.076-0.2-0.151-0.299-0.227c-0.242-0.188-0.494-0.373-0.738-0.56
		c-1.024-0.786-2.061-1.567-3.116-2.341c-0.426-0.313-0.861-0.623-1.292-0.934c-0.903-0.651-1.815-1.3-2.741-1.944
		c-0.483-0.336-0.969-0.672-1.459-1.006c-0.923-0.631-1.859-1.258-2.804-1.882c-0.48-0.318-0.958-0.636-1.444-0.952
		c-1.079-0.701-2.177-1.398-3.285-2.093c-0.358-0.225-0.708-0.451-1.07-0.675c-1.479-0.916-2.982-1.828-4.512-2.734
		c-0.313-0.186-0.638-0.369-0.953-0.555c-1.217-0.714-2.446-1.427-3.697-2.136c-0.57-0.323-1.152-0.645-1.729-0.968
		c-0.656-0.367-1.301-0.735-1.966-1.101c-0.003,0.003-0.005,0.006-0.008,0.01c-5.888-3.237-12.108-6.435-18.725-9.628
		c15.155-37.703,38.264-94.777,67.653-98.099c11.5-1.299,23.813,5.643,37.21,25.183c41.932-69.728,81.753,22.356,104.862,72.916
		c-6.46,3.503-12.556,6.934-18.346,10.353c-0.002-0.002-0.003-0.004-0.005-0.006c-0.554,0.327-1.092,0.654-1.64,0.981
		c-0.706,0.421-1.416,0.842-2.112,1.263c-1.062,0.642-2.105,1.285-3.144,1.927c-0.525,0.325-1.058,0.65-1.578,0.975
		c-1.371,0.858-2.721,1.716-4.052,2.577c-0.528,0.341-1.044,0.685-1.566,1.027c-0.922,0.604-1.839,1.209-2.742,1.816
		c-0.554,0.372-1.101,0.746-1.648,1.119c-0.872,0.595-1.735,1.193-2.589,1.792c-0.517,0.363-1.035,0.726-1.545,1.09
		c-0.927,0.661-1.84,1.325-2.745,1.992c-0.407,0.299-0.82,0.597-1.223,0.898c-1.281,0.956-2.545,1.916-3.784,2.886
		c0,0,0.001,0.001,0.001,0.001c-8.182,6.405-15.448,13.131-21.899,20.509l17.445,19.624c6.981-7.434,14.745-14.099,23.373-19.848
		c26.724,34.969,43.799,88.197,43.799,147.839c0,101.913-49.828,185.153-112.53,190.441c53.782-1.273,108.308-18.511,166.095-52.777
		C476.199,405.456,448.793,305.257,409.438,244.323z"/>
	<path d="M239.52,389.13c13.842-4.461,27.897-7.188,42.03-8.456c0.072,60.149,1.526,114.866,23.334,172.44
		c22.839-55.829,21.123-112.121,21.009-171.897c14.139,1.522,28.217,4.239,42.098,7.914V367h-49.482
		c-8.234-26.946-7.067-53.893,0.984-80.839h-31.476c8.399,26.946,10.91,53.892,1.168,80.839H239.52V389.13z"/>
	<ellipse cx="262.511" cy="183.349" rx="19.251" ry="10.551"/>
	<ellipse cx="344.945" cy="183.349" rx="19.251" ry="10.551"/>
</g>
</svg>
