<?xml version="1.0" encoding="utf-8"?>
<!-- Generator: Adobe Illustrator 17.0.0, SVG Export Plug-In . SVG Version: 6.00 Build 0)  -->
<!DOCTYPE svg PUBLIC "-//W3C//DTD SVG 1.1//EN" "http://www.w3.org/Graphics/SVG/1.1/DTD/svg11.dtd">
<svg version="1.1" id="Layer_1" xmlns="http://www.w3.org/2000/svg" xmlns:xlink="http://www.w3.org/1999/xlink" x="0px" y="0px"
	 width="613px" height="613px" viewBox="0 0 613 613" enable-background="new 0 0 613 613" xml:space="preserve">
<g>
	<polygon points="10.437,59.485 10.437,59.484 10.435,59.483 	"/>
	<path d="M302.757,290.501l74.043,74.043l74.537,73.55l73.051,74.041l74.008,73.019v-87.119L255.052,154.692l50.949-50.949
		L272.928,70.67l-82.586,82.586c-26.664-13.543-51.738-31.608-73.282-53.148C91.405,74.46,71.316,44.454,57.577,12.345
		c-23.556,7.089-39.546,22.493-47.14,47.139c59.403,25.421,111.441,74.747,140.932,132.744l-80.693,80.693l33.073,33.073
		l51.477-51.477l337.061,337.061h33.136l-5.475-0.956l-11.357-62.691l-62.686-11.352l-10.858-62.195l-62.694-11.355l-11.35-62.688
		l-62.691-11.355l-11.349-62.689l-62.198-10.858l-14.807-81.94l-0.003-0.003l21.72,3.95l-0.491,0.493L302.757,290.501z"/>
</g>
</svg>
