<?xml version="1.0" encoding="utf-8"?>
<!-- Generator: Adobe Illustrator 17.0.0, SVG Export Plug-In . SVG Version: 6.00 Build 0)  -->
<!DOCTYPE svg PUBLIC "-//W3C//DTD SVG 1.1//EN" "http://www.w3.org/Graphics/SVG/1.1/DTD/svg11.dtd">
<svg version="1.1" id="Layer_1" xmlns="http://www.w3.org/2000/svg" xmlns:xlink="http://www.w3.org/1999/xlink" x="0px" y="0px"
	 width="612px" height="612px" viewBox="0 0 612 612" enable-background="new 0 0 612 612" xml:space="preserve">
<g transform="matrix(15 0 0 15 -3764 -2204)">
</g>
<g transform="matrix(30 0 0 30 -14144 -21954.866)">
	<path d="M478.333,737.259c-0.729,0.137-1.804,1.384-1.33,1.858l2.915,2.914l-2.915,2.914c-0.583,0.583,1.166,2.331,1.749,1.748
		l2.915-2.914l2.915,2.914c0.583,0.583,2.332-1.166,1.749-1.748l-2.915-2.914l2.915-2.914c0.583-0.583-1.166-2.331-1.749-1.748
		l-2.915,2.914l-2.915-2.914C478.642,737.26,478.501,737.227,478.333,737.259L478.333,737.259z"/>
</g>
<g transform="matrix(15 0 0 15 -3764 -2204)">
	<path d="M271.333,148.208c-10.563,0-19.125,8.563-19.125,19.125c0,10.563,8.562,19.125,19.125,19.125s19.125-8.563,19.125-19.125
		S281.896,148.208,271.333,148.208z M271.333,152.99c7.922,0,14.344,6.422,14.344,14.344s-6.422,14.344-14.344,14.344
		s-14.344-6.422-14.344-14.344C256.99,159.412,263.411,152.99,271.333,152.99z"/>
</g>
</svg>
