<?xml version="1.0" encoding="utf-8"?>
<!-- Generator: Adobe Illustrator 17.0.0, SVG Export Plug-In . SVG Version: 6.00 Build 0)  -->
<!DOCTYPE svg PUBLIC "-//W3C//DTD SVG 1.1//EN" "http://www.w3.org/Graphics/SVG/1.1/DTD/svg11.dtd">
<svg version="1.1" id="Layer_1" xmlns="http://www.w3.org/2000/svg" xmlns:xlink="http://www.w3.org/1999/xlink" x="0px" y="0px"
	 width="613px" height="613px" viewBox="0 0 613 613" enable-background="new 0 0 613 613" xml:space="preserve">
<path d="M481.418,297.604V112.803l-171.04-98.752l-171.04,98.752v183.888l-98.34,56.778v153.868l133.255,76.934l129.803-74.941
	h11.063l114.941,66.36l10.467,6.481l0.399-0.207l3.996,2.307l133.255-76.934V353.469L481.418,297.604z M445.413,396.474
	l-53.292-30.759c14.57-12.136,33.303-19.443,53.747-19.443c20.284,0,38.89,7.188,53.41,19.155L445.413,396.474z M122.703,364.707
	c14.385-11.526,32.629-18.435,52.496-18.435c20.855,0,39.921,7.614,54.612,20.191l-52.067,30.011L122.703,364.707z M177.123,169.416
	l51.063,29.433c-0.586,4.004-0.9,8.096-0.9,12.263c0,34.862,21.229,64.763,51.463,77.489v48.265l-101.626-58.675V169.416z
	 M344.802,334.338v-46.139c29.75-12.939,50.561-42.578,50.561-77.088c0-3.245-0.203-6.441-0.561-9.59l48.831-27.952v103.707
	L344.802,334.338z M411.525,115.731l-49.38,28.462c-14.115-10.736-31.719-17.12-50.821-17.12c-18.067,0-34.788,5.721-48.491,15.422
	l-49.988-28.851l97.533-56.312L411.525,115.731z M91.16,430.311c0-3.135,0.186-6.225,0.52-9.27l51.858,29.89v57.229
	C112.822,495.654,91.16,465.52,91.16,430.311z M207.762,507.804v-54.782l51.194-29.305c0.169,2.178,0.282,4.372,0.282,6.594
	C259.238,465.177,238.003,495.081,207.762,507.804z M361.83,430.311c0-2.575,0.134-5.117,0.361-7.632l49.016,28.252v55.933
	C382.093,493.66,361.83,464.361,361.83,430.311z M475.431,508.987v-55.965l54.069-30.95c0.264,2.711,0.407,5.458,0.407,8.239
	C529.907,466.317,507.255,497.022,475.431,508.987z"/>
</svg>
