<?xml version="1.0" encoding="utf-8"?>
<!-- Generator: Adobe Illustrator 17.0.0, SVG Export Plug-In . SVG Version: 6.00 Build 0)  -->
<!DOCTYPE svg PUBLIC "-//W3C//DTD SVG 1.1//EN" "http://www.w3.org/Graphics/SVG/1.1/DTD/svg11.dtd">
<svg version="1.1" id="Layer_1" xmlns="http://www.w3.org/2000/svg" xmlns:xlink="http://www.w3.org/1999/xlink" x="0px" y="0px"
	 width="613px" height="613px" viewBox="0 0 613 613" enable-background="new 0 0 613 613" xml:space="preserve">
<path d="M303.895,29.493c-152.385,0-275.919,123.532-275.919,275.919c0,82.532,36.247,156.588,93.677,207.151V346.095L104.9,318.868
	h9.074l53.054-136.824l52.357,136.824h9.773l-17.451,27.227v21.642h44.677V220.44l-16.754-27.227h9.074L301.758,56.39l-0.002-0.005
	l0.002,0.003l-0.001,0.002l53.053,136.82h9.074l-17.451,27.227v105.412h43.98V285.36l-17.451-27.227h9.773l52.358-136.824
	l53.054,136.824h9.074l-16.754,27.227v232.064c60.705-50.613,99.344-126.796,99.344-212.013
	C579.813,153.025,456.281,29.493,303.895,29.493z"/>
</svg>
