<?xml version="1.0" encoding="utf-8"?>
<!-- Generator: Adobe Illustrator 17.0.0, SVG Export Plug-In . SVG Version: 6.00 Build 0)  -->
<!DOCTYPE svg PUBLIC "-//W3C//DTD SVG 1.1//EN" "http://www.w3.org/Graphics/SVG/1.1/DTD/svg11.dtd">
<svg version="1.1" id="Layer_1" xmlns="http://www.w3.org/2000/svg" xmlns:xlink="http://www.w3.org/1999/xlink" x="0px" y="0px"
	 width="613px" height="613px" viewBox="0 0 613 613" enable-background="new 0 0 613 613" xml:space="preserve">
<path d="M554.008,196.514l-46.016,12.329l-6.339,23.656l-38.493-38.493l13.906-13.906l-9.651-36.02l-36.02-9.652l-13.906,13.906
	l-38.529-38.529l23.707-6.352l12.329-46.014l-33.684-33.685l-46.014,12.329l-12.329,46.014l17.169,17.169l-52.638,14.104
	l-5.039-18.805l-36.02-9.652l-26.369,26.369l5.039,18.806l-52.75,14.134l6.302-23.52l-33.686-33.685l-46.015,12.33l-12.329,46.015
	l33.686,33.685l23.64-6.334l-14.099,52.616l-18.793-5.036l-26.369,26.369l9.652,36.021l18.793,5.035l-14.123,52.704l-17.344-17.344
	l-46.016,12.329l-12.331,46.015l33.685,33.686l46.016-12.329l6.369-23.766l38.706,38.706l-13.746,13.746l9.651,36.02l36.02,9.652
	l13.746-13.746l38.669,38.67l-23.707,6.352l-12.329,46.014l33.684,33.685l46.014-12.329l12.329-46.014l-17.543-17.544l52.819-14.153
	l5.083,18.97l36.02,9.652l26.369-26.369l-5.083-18.97l52.709-14.123l-6.405,23.903l33.686,33.685l46.015-12.33l12.329-46.015
	l-33.686-33.685l-23.78,6.372l14.16-52.843l18.983,5.087l26.369-26.369l-9.652-36.021l-18.982-5.086l14.135-52.751l17.366,17.366
	l46.016-12.329l12.331-46.015L554.008,196.514z M433.453,308.89C416.35,381.793,289.469,402.24,268.2,439.077
	c0-46.48-96.181-119.381-78.378-195.469c17.1-73.075,110.626-64.854,129.379,5.129C371.687,196.256,450.305,237.053,433.453,308.89z
	"/>
</svg>
