<?xml version="1.0" encoding="utf-8"?>
<!-- Generator: Adobe Illustrator 17.0.0, SVG Export Plug-In . SVG Version: 6.00 Build 0)  -->
<!DOCTYPE svg PUBLIC "-//W3C//DTD SVG 1.1//EN" "http://www.w3.org/Graphics/SVG/1.1/DTD/svg11.dtd">
<svg version="1.1" id="Layer_1" xmlns="http://www.w3.org/2000/svg" xmlns:xlink="http://www.w3.org/1999/xlink" x="0px" y="0px"
	 width="613px" height="613px" viewBox="0 0 613 613" enable-background="new 0 0 613 613" xml:space="preserve">
<g>
	<polygon points="321.825,71.995 241.372,138.741 277.257,402.45 323.713,435.033 372.906,404.34 401.014,141.254 	"/>
	<polygon points="461.646,247.422 510.235,161.403 490.584,121.644 456.681,136.746 424.119,231.697 431.707,269.64 	"/>
	<polygon points="176.474,213.949 180.627,181.011 133.227,110.108 101.722,97.236 99.079,132.16 146.479,203.04 	"/>
	<polygon points="527.96,280.585 462.269,294.779 377.72,497.29 396.257,538.5 452.623,534.689 554.992,342.091 	"/>
	<polygon points="117.956,259.252 94.643,336.967 215.832,527.942 259.324,541.837 271.009,506.01 193.161,264.215 	"/>
</g>
</svg>
