<?xml version="1.0" encoding="utf-8"?>
<!-- Generator: Adobe Illustrator 17.0.0, SVG Export Plug-In . SVG Version: 6.00 Build 0)  -->
<!DOCTYPE svg PUBLIC "-//W3C//DTD SVG 1.1//EN" "http://www.w3.org/Graphics/SVG/1.1/DTD/svg11.dtd">
<svg version="1.1" id="Layer_1" xmlns="http://www.w3.org/2000/svg" xmlns:xlink="http://www.w3.org/1999/xlink" x="0px" y="0px"
	 width="612px" height="612px" viewBox="0 0 612 612" enable-background="new 0 0 612 612" xml:space="preserve">
<g>
	<path d="M500.077,153.989l74.522,6.002c5.148-6.492,13.158-39.15,5.148-47.139l-78.73-78.73c-8.01-8.01-40.647,0-47.14,5.126
		l5.981,74.522L500.077,153.989z"/>
	<path d="M581.415,507.045c0.872,0.931,1.754,1.859,2.653,2.78c-58.122-60.76-25.091-173.406-115.709-292.223l27.875-37.233
		L433.5,117.637l-37.233,27.882C282.104,58.468,173.656,85.514,111.438,36.231l-0.024-0.27l-4.709-3.708
		c-0.896-0.8-1.785-1.614-2.66-2.451c0.869,0.848,1.744,1.677,2.621,2.501l-0.001,0.255l32.388,373.479L14.966,544.886
		l54.018,54.018l135.109-120.737L581.415,507.045z M576.897,502.04l-367.366-28.733l203.615-181.956l20.61-27.529
		C521.438,368.217,526.208,443.984,576.897,502.04z M111.475,36.663c58.104,50.981,133.97,55.59,238.582,143.46l-27.54,20.623
		L143.351,401.227L111.475,36.663z M141.733,457.035l244.322-244.322l6.777-6.777l37.763-22.662l-22.662,37.763l-6.777,6.777l0,0
		L156.834,472.136L141.733,457.035z"/>
</g>
</svg>
