<?xml version="1.0" encoding="utf-8"?>
<!-- Generator: Adobe Illustrator 17.0.0, SVG Export Plug-In . SVG Version: 6.00 Build 0)  -->
<!DOCTYPE svg PUBLIC "-//W3C//DTD SVG 1.1//EN" "http://www.w3.org/Graphics/SVG/1.1/DTD/svg11.dtd">
<svg version="1.1" id="Layer_1" xmlns="http://www.w3.org/2000/svg" xmlns:xlink="http://www.w3.org/1999/xlink" x="0px" y="0px"
	 width="613px" height="613px" viewBox="0 0 613 613" enable-background="new 0 0 613 613" xml:space="preserve">
<path d="M531.494,183.987c-52.429-85.065-146.493-141.69-225.263-168.72c-26.705,8.517-53.271,20.23-78.914,34.914l101.54,79.071
	l-27.718,28.022l99.534,76.005l-186.704-58.336l38.215-36.874l-101.442-32.198c-25.118,22.779-48.118,48.898-67.93,78.115
	c54.162,145.472,54.162,173.873,0,319.348c146.499,111.877,301.023,117.173,448.682,0
	C487.181,357.861,487.178,329.462,531.494,183.987z M457.535,344.464c-37.638-18.805-74.428-30.604-110.851-35.272
	c-14.384,91.124-14.025,182.249,2.971,273.373h-71.45c22.097-91.331,18.788-182.66,2.738-273.989
	c-37.476,4.155-74.87,16.064-112.716,35.888v-85.251c95.23-26.779,200.164-17.938,289.308,0L457.535,344.464L457.535,344.464z"/>
</svg>
