<?xml version="1.0" encoding="utf-8"?>
<!-- Generator: Adobe Illustrator 17.0.0, SVG Export Plug-In . SVG Version: 6.00 Build 0)  -->
<!DOCTYPE svg PUBLIC "-//W3C//DTD SVG 1.1//EN" "http://www.w3.org/Graphics/SVG/1.1/DTD/svg11.dtd">
<svg version="1.1" id="Layer_1" xmlns="http://www.w3.org/2000/svg" xmlns:xlink="http://www.w3.org/1999/xlink" x="0px" y="0px"
	 width="613px" height="613px" viewBox="0 0 613 613" enable-background="new 0 0 613 613" xml:space="preserve">
<path d="M592.55,295.18l-0.001-0.003c-24.709,9.196-63.819,20.624-103.339-13.275l-115.747-99.285l114.167-97.93l-58.013-67.632
	L305.034,123.92L180.45,17.055l-58.013,67.632l114.167,97.93l-115.748,99.286c-39.52,33.899-78.63,22.471-103.339,13.275v0.002
	c-16.484,41.514,3.61,79.73,57.89,64.836c-29.398,50.273-37.088,141.197,36.6,210.808c65.954,62.307,174.372-35.434,113.502-80.132
	c-22.996-16.886-44.928-36.155-54.36-59.809c41.264-37.037,63.677-67.198,37.947-105.683c6.476-6.599,13.782-13.414,21.994-20.458
	l73.943-63.427l73.943,63.427c8.212,7.044,15.518,13.859,21.994,20.458c-25.731,38.485-3.317,68.647,37.947,105.683
	c-9.432,23.655-31.364,42.923-54.36,59.809c-60.87,44.698,47.548,142.439,113.502,80.132c73.688-69.611,65.998-160.535,36.6-210.808
	C588.94,374.91,609.034,336.694,592.55,295.18z M166.679,413.086c-2.047-19.041,4.162-40.718,23.187-65.831L166.679,413.086z
	 M420.202,347.255c19.025,25.113,25.233,46.79,23.187,65.831L420.202,347.255z"/>
</svg>
