<?xml version="1.0" encoding="utf-8"?>
<!-- Generator: Adobe Illustrator 17.0.0, SVG Export Plug-In . SVG Version: 6.00 Build 0)  -->
<!DOCTYPE svg PUBLIC "-//W3C//DTD SVG 1.1//EN" "http://www.w3.org/Graphics/SVG/1.1/DTD/svg11.dtd">
<svg version="1.1" id="Layer_1" xmlns="http://www.w3.org/2000/svg" xmlns:xlink="http://www.w3.org/1999/xlink" x="0px" y="0px"
	 width="613px" height="613px" viewBox="0 0 613 613" enable-background="new 0 0 613 613" xml:space="preserve">
<g>
	<path d="M482.021,375.953c32.449,15.44,52.357,34.94,52.357,56.393c0,49.503-103.399,89.453-231.067,89.453
		c-127.666,0-231.067-39.95-231.067-89.453c0-21.453,19.908-40.956,52.357-56.394C63.083,395.885,23.38,426.079,23.38,459.573
		c0,59.964,125.287,108.901,279.931,108.898s279.931-48.935,279.931-108.898C583.242,426.08,543.539,395.885,482.021,375.953z"/>
	<path d="M303.31,496.521c83.969,0,152.182-26.752,152.182-59.311c0-18.3-22.077-33.905-55.847-44.726
		c17.858,8.41,29.32,18.405,29.32,30.142c0,26.878-56.336,48.615-125.655,48.615s-125.655-21.737-125.655-48.615
		c0.001-11.738,11.463-21.732,29.32-30.143c-33.769,10.821-55.847,26.427-55.847,44.727
		C151.128,469.769,219.341,496.521,303.31,496.521z"/>
	<path d="M297.022,107.738c0.001,0.021,0.002,0.042,0.003,0.063c0.001-0.022,0.002-0.043,0.004-0.065L297.022,107.738z"/>
	<path d="M300.516,440.726c53.258,0,99.351-41.074,123.56-101.32c-7.667,8.323-15.17,13.157-21.642,13.66
		c-19.455,1.512-27.318-35.789-23.735-93.919c-7.89,16.502-16.982,26.753-26.527,26.753c-27.305,0-49.863-76.485-55.147-178.099
		c-5.282,101.613-27.841,178.097-55.146,178.097c-6.773,0-13.526-5.03-19.546-13.66c1.544,50.162-5.866,82.218-23.735,80.828
		c-6.469-0.502-13.975-5.337-21.642-13.66C201.164,399.651,247.258,440.726,300.516,440.726z"/>
	<circle cx="295.929" cy="52.802" r="29.124"/>
</g>
</svg>
