<?xml version="1.0" encoding="utf-8"?>
<!-- Generator: Adobe Illustrator 17.0.0, SVG Export Plug-In . SVG Version: 6.00 Build 0)  -->
<!DOCTYPE svg PUBLIC "-//W3C//DTD SVG 1.1//EN" "http://www.w3.org/Graphics/SVG/1.1/DTD/svg11.dtd">
<svg version="1.1" id="Layer_1" xmlns="http://www.w3.org/2000/svg" xmlns:xlink="http://www.w3.org/1999/xlink" x="0px" y="0px"
	 width="613px" height="613px" viewBox="0 0 613 613" enable-background="new 0 0 613 613" xml:space="preserve">
<g>
	<path d="M437.849,380.747c6.04-67.338,43.531-42.229,41.333,62.244l21.347,69.694c6.749-59.375,54.134-71.166,59.486,2.1
		l6.581-371.725L428.485,283.348L437.849,380.747z"/>
	<path d="M369.211,472.868c8.228-79.789,44.097-90.02,46.4-53.311l8.884-138.221L315.909,402.508
		C336.252,383.699,357.334,401.15,369.211,472.868z"/>
	<path d="M484.856,47.2L169.735,362.33c-22.839-31.108-40.799-64.556-51.35-97.923c-89.1,70.997-23.652,129.811,28.663,160.014
		c-31.817,43.172-68.998,76.506-107.471,107.467c0,30.803,18.662,45.981,45.973,45.975c30.121-40.571,63.978-78.038,107.469-107.467
		c25.587,44.317,78.402,116.242,162.997,31.643c-35.646-11.268-69.333-30.53-100.902-54.336l315.121-315.13l9.581-94.137
		L484.856,47.2z"/>
</g>
</svg>
