<?xml version="1.0" encoding="utf-8"?>
<!-- Generator: Adobe Illustrator 17.0.0, SVG Export Plug-In . SVG Version: 6.00 Build 0)  -->
<!DOCTYPE svg PUBLIC "-//W3C//DTD SVG 1.1//EN" "http://www.w3.org/Graphics/SVG/1.1/DTD/svg11.dtd">
<svg version="1.1" id="Layer_1" xmlns="http://www.w3.org/2000/svg" xmlns:xlink="http://www.w3.org/1999/xlink" x="0px" y="0px"
	 width="613px" height="613px" viewBox="0 0 613 613" enable-background="new 0 0 613 613" xml:space="preserve">
<path d="M524.846,377.596c-57.556-42.559-98.181-60.546-149.577-79.965c4.986-11.432,7.477-22.79,7.261-33.088
	c7.092,0.92,14.338,0.349,21.232-1.728c1.288,3.443,3.31,6.673,6.078,9.442c10.358,10.358,27.151,10.356,37.508-0.001
	c10.358-10.358,10.359-27.151,0.001-37.51c-2.812-2.812-6.101-4.854-9.604-6.139c5.065-17.23,0.803-36.619-12.79-50.212
	c-13.588-13.588-32.965-17.851-50.188-12.797c-1.237-3.961-3.417-7.69-6.555-10.827c-10.358-10.358-27.15-10.357-37.508,0.001
	c-10.358,10.359-10.359,27.152-0.001,37.51c2.958,2.958,6.441,5.067,10.148,6.335c-2.62,8.102-3.158,16.727-1.597,25.042
	c-9.803,0.188-20.469,2.737-31.189,7.48c-18.002-46.56-36.322-85.463-75.922-139.022c-58.465-79.069-126.397-75.554-89.518,26.683
	c0.166,0.46,0.34,0.93,0.508,1.393c-64.593-43.87-110.112-18.368-54.976,66.324c35.902,55.15,100.216,132.229,149.583,139.538
	c-0.041,8.909,1.891,17.072,5.947,23.868c-58.981,45.841-172.04,137.103-212.437,159.626c-16.87,55.942-3.047,94.893,68.321,68.325
	c21.292-41.041,114.847-155.393,161.509-212.931c7.499,3.154,16.266,4.144,25.643,3.137
	c-0.16,50.173,82.113,119.363,140.108,157.126c87.619,57.042,111.885,6.345,61.519-61.746c3.337,1.279,6.617,2.502,9.813,3.655
	C600.393,503.993,603.91,436.06,524.846,377.596z"/>
</svg>
