<?xml version="1.0" encoding="utf-8"?>
<!-- Generator: Adobe Illustrator 17.0.0, SVG Export Plug-In . SVG Version: 6.00 Build 0)  -->
<!DOCTYPE svg PUBLIC "-//W3C//DTD SVG 1.1//EN" "http://www.w3.org/Graphics/SVG/1.1/DTD/svg11.dtd">
<svg version="1.1" id="Layer_1" xmlns="http://www.w3.org/2000/svg" xmlns:xlink="http://www.w3.org/1999/xlink" x="0px" y="0px"
	 width="613px" height="613px" viewBox="0 0 613 613" enable-background="new 0 0 613 613" xml:space="preserve">
<g>
	<path d="M491.611,422.066c20.596,10.613,32.891,23.01,32.891,36.39c0,38.406-98.386,69.98-219.038,69.98
		s-218.338-31.577-218.338-69.98c0-13.452,12.085-25.742,32.891-36.39h-0.003v0c-59.948,16.29-98.672,40.418-98.672,67.182
		c0,49.029,127.328,88.875,284.121,88.875s284.121-39.845,284.121-88.875C589.584,462.579,551.19,438.353,491.611,422.066z"/>
	<path d="M166.113,389.114c6.86,7.706,15.153,14.575,24.532,20.574l-20.53,33.849c56.448,46.188,181.03,52.294,253.05-0.581
		l-21.167-27.138c13.421-7.314,25.449-16.413,35.406-27.393c-36.591-34.166-22.188-71.017,72.839-115.567v-0.01
		c0-117.174-55.348-260.055-205.956-260.055c-149.334,0-205.956,136.288-205.956,260.055
		C187.953,314.88,196.996,360.126,166.113,389.114z M299.988,301.438h0.002c0,0.001-0.001,0.001-0.001,0.002
		c14.465,26.079,25.942,52.155,31.638,78.233c-15.558,11.591-43.413,13.275-63.276,0c7.701-26.079,16.96-52.155,31.638-78.233
		C299.989,301.439,299.988,301.439,299.988,301.438z M412.615,190.722c37.882,6.956,43.431,35.812,37.636,72.347l-0.002,0.003
		c-37.144,25.15-76.88,46.823-123.966,22.764l-1.327-40.148C376.004,247.81,403.414,227.047,412.615,190.722z M387.963,174.797
		c-30.919,44.931-148.121,44.969-174.219-0.245C268.956,187.542,327.273,187.343,387.963,174.797z M151.827,263.069
		c-5.795-36.535-0.246-65.391,37.636-72.347c9.201,36.325,36.611,57.087,87.659,54.966l-1.327,40.148
		c-47.083,24.059-86.821,2.386-123.966-22.764L151.827,263.069z"/>
</g>
</svg>
