<?xml version="1.0" encoding="utf-8"?>
<!-- Generator: Adobe Illustrator 17.0.0, SVG Export Plug-In . SVG Version: 6.00 Build 0)  -->
<!DOCTYPE svg PUBLIC "-//W3C//DTD SVG 1.1//EN" "http://www.w3.org/Graphics/SVG/1.1/DTD/svg11.dtd">
<svg version="1.1" id="Layer_1" xmlns="http://www.w3.org/2000/svg" xmlns:xlink="http://www.w3.org/1999/xlink" x="0px" y="0px"
	 width="613px" height="613px" viewBox="0 0 613 613" enable-background="new 0 0 613 613" xml:space="preserve">
<path d="M522.949,43.024H89.051c-25.416,0-46.02,20.604-46.02,46.02v433.898c0,25.416,20.604,46.02,46.02,46.02h433.898
	c25.416,0,46.02-20.604,46.02-46.02V89.044C568.969,63.628,548.365,43.024,522.949,43.024z M145.828,525.93
	c-33.008,0-59.766-26.758-59.766-59.766s26.758-59.766,59.766-59.766s59.766,26.758,59.766,59.766S178.836,525.93,145.828,525.93z
	 M306.001,365.758c-33.008,0-59.766-26.758-59.766-59.766s26.758-59.766,59.766-59.766s59.766,26.758,59.766,59.766
	S339.009,365.758,306.001,365.758z M466.172,205.586c-33.008,0-59.766-26.758-59.766-59.766s26.758-59.766,59.766-59.766
	s59.766,26.758,59.766,59.766C525.937,178.828,499.179,205.586,466.172,205.586z"/>
</svg>
