<?xml version="1.0" encoding="utf-8"?>
<!-- Generator: Adobe Illustrator 17.0.0, SVG Export Plug-In . SVG Version: 6.00 Build 0)  -->
<!DOCTYPE svg PUBLIC "-//W3C//DTD SVG 1.1//EN" "http://www.w3.org/Graphics/SVG/1.1/DTD/svg11.dtd">
<svg version="1.1" id="Layer_1" xmlns="http://www.w3.org/2000/svg" xmlns:xlink="http://www.w3.org/1999/xlink" x="0px" y="0px"
	 width="613px" height="613px" viewBox="0 0 613 613" enable-background="new 0 0 613 613" xml:space="preserve">
<g>
	<path d="M590.204,89.529l9.086-33.91c-23.719-23.743-57.254-31.834-89.446-23.967l-9.086,33.91l16.514,4.425l-37.018,138.152
		l-9.214-2.469c-9.585,15.014-32.685,22.268-57.534,17.829l-9.215,34.389c15.903,1.45,31.597,3.669,47.107,6.575
		c-51.406,99.337-69.673,221.95-43.335,325.155c77.831-88.994,121.227-193.294,125.125-302.992
		c14.958,5.299,29.755,11.206,44.398,17.696l9.215-34.389c-23.74-8.58-40.119-26.412-40.913-44.207l-9.215-2.469l37.018-138.152
		L590.204,89.529z M486.409,297.997c-12.226-3.275-19.481-15.843-16.206-28.067c0.136-0.507,0.294-1.002,0.461-1.492c0,0,0,0,0,0
		c1.685-4.935,4.924-8.96,9.012-11.671c0.02-0.013,0.039-0.027,0.058-0.04c0.557-0.367,1.132-0.708,1.719-1.025
		c0.04-0.022,0.08-0.044,0.12-0.065c0.573-0.306,1.161-0.586,1.759-0.842c0.058-0.025,0.115-0.05,0.173-0.074
		c0.588-0.247,1.188-0.468,1.796-0.665c0.071-0.023,0.142-0.045,0.213-0.068c0.603-0.189,1.215-0.354,1.835-0.493
		c0.078-0.017,0.156-0.034,0.234-0.05c0.619-0.132,1.245-0.24,1.877-0.321c0.079-0.01,0.159-0.018,0.238-0.027
		c0.636-0.074,1.277-0.124,1.923-0.144c0.074-0.002,0.148-0.002,0.223-0.003c0.656-0.014,1.315-0.003,1.977,0.04
		c0.06,0.004,0.12,0.011,0.179,0.015c0.679,0.05,1.36,0.127,2.042,0.239c0.036,0.006,0.072,0.014,0.108,0.02
		c0.707,0.12,1.415,0.27,2.122,0.46c0.712,0.191,1.405,0.416,2.082,0.668c0.032,0.012,0.065,0.022,0.097,0.034
		c0.652,0.246,1.285,0.523,1.903,0.822c0.051,0.025,0.104,0.048,0.156,0.073c0.6,0.296,1.181,0.62,1.746,0.964
		c0.061,0.037,0.123,0.072,0.183,0.109c0.553,0.343,1.086,0.711,1.603,1.096c0.064,0.047,0.128,0.094,0.191,0.142
		c0.508,0.387,0.996,0.796,1.466,1.222c0.061,0.056,0.123,0.11,0.184,0.167c0.465,0.43,0.91,0.879,1.337,1.344
		c0.054,0.059,0.109,0.119,0.163,0.178c0.423,0.472,0.826,0.96,1.208,1.464c0.045,0.06,0.09,0.12,0.135,0.181
		c0.381,0.513,0.74,1.04,1.077,1.582c0.035,0.056,0.069,0.113,0.104,0.17c0.337,0.553,0.652,1.12,0.941,1.699
		c0.024,0.048,0.046,0.096,0.07,0.144c0.291,0.594,0.559,1.2,0.798,1.819c0.013,0.033,0.025,0.067,0.037,0.1
		c0.243,0.636,0.46,1.283,0.646,1.94c0.004,0.014,0.007,0.028,0.011,0.042c0.956,3.406,1.135,7.072,0.387,10.741
		c-0.093,0.457-0.196,0.913-0.318,1.369C511.202,294.017,498.635,301.272,486.409,297.997z"/>
	<path d="M344.524,202.173h-9.541V59.148h17.096V24.042c-29.056-16.795-63.542-15.931-92.601,0v35.106h17.096v143.025h-9.538
		c-5.372,16.983-25.808,29.969-50.959,32.112v35.602c15.736-2.715,31.47-4.634,47.203-5.84
		c-23.944,109.257-9.855,232.42,42.297,325.292c52.146-106.106,67.069-218.084,42.442-325.054
		c15.82,1.247,31.641,3.123,47.464,5.602v-35.602C370.332,232.142,349.897,219.157,344.524,202.173z M328.695,264.46
		c0,12.655-10.261,22.916-22.918,22.916c-12.657,0-22.918-10.261-22.918-22.916c0-0.525,0.024-1.045,0.059-1.561h0
		c0.35-5.2,2.436-9.925,5.681-13.601c0.018-0.02,0.034-0.04,0.052-0.06c0.44-0.495,0.904-0.97,1.385-1.425
		c0.037-0.035,0.074-0.072,0.112-0.107c0.47-0.439,0.961-0.857,1.467-1.256c0.055-0.043,0.109-0.086,0.164-0.129
		c0.499-0.386,1.015-0.751,1.545-1.095c0.069-0.045,0.139-0.089,0.208-0.133c0.527-0.334,1.068-0.647,1.622-0.938
		c0.08-0.042,0.161-0.083,0.241-0.123c0.555-0.283,1.122-0.545,1.702-0.782c0.085-0.035,0.17-0.067,0.255-0.101
		c0.585-0.232,1.18-0.442,1.787-0.626c0.083-0.025,0.168-0.047,0.252-0.072c0.617-0.179,1.243-0.336,1.88-0.463
		c0.074-0.015,0.15-0.026,0.224-0.04c0.654-0.124,1.315-0.224,1.987-0.291c0.054-0.005,0.11-0.007,0.164-0.012
		c0.687-0.063,1.381-0.1,2.085-0.101c0.015,0,0.03-0.001,0.045-0.001c0.015,0,0.029,0.001,0.044,0.001
		c0.709,0.001,1.409,0.038,2.101,0.102c0.052,0.005,0.104,0.007,0.156,0.012c0.678,0.068,1.345,0.169,2.004,0.294
		c0.072,0.014,0.144,0.024,0.216,0.039c0.641,0.128,1.271,0.287,1.892,0.468c0.083,0.024,0.168,0.046,0.25,0.071
		c0.609,0.185,1.206,0.397,1.792,0.63c0.087,0.034,0.174,0.067,0.26,0.103c0.578,0.238,1.144,0.501,1.697,0.784
		c0.086,0.044,0.172,0.087,0.257,0.132c0.549,0.289,1.083,0.601,1.605,0.932c0.08,0.051,0.159,0.101,0.239,0.153
		c0.52,0.339,1.024,0.699,1.514,1.079c0.07,0.054,0.139,0.109,0.209,0.164c0.49,0.389,0.965,0.798,1.421,1.225
		c0.057,0.054,0.113,0.108,0.17,0.162c0.46,0.44,0.903,0.897,1.325,1.373c0.043,0.048,0.084,0.098,0.127,0.146
		c0.428,0.491,0.837,0.999,1.222,1.525c0.027,0.037,0.053,0.076,0.08,0.113c0.393,0.544,0.765,1.105,1.111,1.684
		c0.011,0.019,0.022,0.038,0.033,0.057c1.803,3.043,2.924,6.539,3.148,10.277h0C328.677,263.53,328.695,263.993,328.695,264.46z"/>
	<path d="M207.432,257.888l-9.215-34.389c-24.849,4.439-47.949-2.815-57.534-17.829l-9.214,2.469L94.451,69.987l16.514-4.425
		l-9.086-33.91c-32.192-7.867-65.727,0.224-89.446,23.967l9.086,33.91l16.513-4.425L75.05,223.257l-9.215,2.469
		c-0.794,17.795-17.172,35.627-40.912,44.207l9.215,34.389c14.643-6.49,29.439-12.397,44.397-17.696
		c3.898,109.698,47.295,213.998,125.126,302.992c26.339-103.204,8.07-225.817-43.335-325.155
		C175.835,261.557,191.53,259.338,207.432,257.888z M141.52,269.93c3.276,12.224-3.98,24.791-16.206,28.067
		c-12.226,3.276-24.793-3.98-28.068-16.204c-0.121-0.451-0.223-0.903-0.316-1.355c0,0,0,0,0.001,0
		c-0.753-3.677-0.574-7.352,0.386-10.765c0.003-0.009,0.005-0.018,0.007-0.028c0.187-0.661,0.405-1.311,0.649-1.95
		c0.012-0.031,0.022-0.062,0.034-0.092c0.24-0.621,0.509-1.229,0.801-1.826c0.022-0.046,0.044-0.091,0.067-0.137
		c0.29-0.582,0.606-1.15,0.944-1.705c0.034-0.055,0.067-0.11,0.101-0.165c0.337-0.543,0.697-1.071,1.078-1.585
		c0.044-0.06,0.089-0.119,0.134-0.179c0.382-0.504,0.785-0.993,1.209-1.465c0.054-0.06,0.108-0.119,0.162-0.178
		c0.426-0.466,0.872-0.915,1.337-1.345c0.06-0.056,0.122-0.11,0.183-0.165c0.471-0.426,0.959-0.835,1.467-1.222
		c0.063-0.048,0.128-0.094,0.191-0.142c0.517-0.386,1.05-0.753,1.603-1.096c0.06-0.037,0.122-0.072,0.183-0.109
		c0.565-0.344,1.146-0.667,1.746-0.964c0.051-0.025,0.104-0.048,0.156-0.073c0.617-0.299,1.251-0.576,1.903-0.822
		c0.032-0.012,0.066-0.022,0.098-0.034c0.677-0.252,1.37-0.477,2.081-0.668c0.707-0.189,1.414-0.34,2.122-0.46
		c0.036-0.006,0.072-0.014,0.108-0.02c0.682-0.112,1.363-0.189,2.042-0.239c0.06-0.004,0.12-0.011,0.179-0.015
		c0.662-0.044,1.321-0.054,1.977-0.04c0.074,0.002,0.149,0.001,0.223,0.003c0.646,0.02,1.287,0.07,1.923,0.144
		c0.079,0.009,0.159,0.017,0.238,0.027c0.632,0.08,1.258,0.188,1.877,0.321c0.078,0.017,0.156,0.033,0.233,0.05
		c0.62,0.139,1.232,0.304,1.836,0.493c0.071,0.022,0.141,0.045,0.212,0.068c0.608,0.197,1.208,0.419,1.796,0.665
		c0.058,0.024,0.115,0.049,0.173,0.074c0.598,0.256,1.185,0.536,1.759,0.842c0.04,0.021,0.08,0.044,0.12,0.065
		c0.587,0.317,1.161,0.658,1.719,1.026c0.019,0.013,0.038,0.026,0.057,0.039c4.089,2.711,7.328,6.737,9.013,11.672c0,0,0,0,0,0
		C141.227,268.928,141.384,269.423,141.52,269.93z"/>
</g>
</svg>
