<?xml version="1.0" encoding="utf-8"?>
<!-- Generator: Adobe Illustrator 17.0.0, SVG Export Plug-In . SVG Version: 6.00 Build 0)  -->
<!DOCTYPE svg PUBLIC "-//W3C//DTD SVG 1.1//EN" "http://www.w3.org/Graphics/SVG/1.1/DTD/svg11.dtd">
<svg version="1.1" id="Layer_1" xmlns="http://www.w3.org/2000/svg" xmlns:xlink="http://www.w3.org/1999/xlink" x="0px" y="0px"
	 width="613px" height="613px" viewBox="0 0 613 613" enable-background="new 0 0 613 613" xml:space="preserve">
<g>
	<polygon points="592.957,588.841 492.133,526.93 557.579,434.952 437.904,465.739 399.551,357.301 330.79,442.743 267.493,250.993 
		214.428,424.339 108.299,339.437 152.519,468.561 35.776,473.868 94.148,532.239 34.007,588.844 159.468,588.844 193.096,557.133 
		172.766,512.598 240.43,537.221 274.702,436.883 313.826,548.222 382.093,496.757 384.548,563.162 461,554.638 436.663,588.842 	
		"/>
	<polygon points="210.489,404.767 214.954,408.339 258.54,265.959 258.54,265.96 268.019,234.993 331.316,426.743 400.076,341.301 
		423.533,407.621 423.533,206.389 487.333,127.299 487.333,26.45 428.863,26.45 428.863,74.018 393.273,74.018 393.273,26.45 
		334.167,26.45 334.167,74.018 299.212,74.018 299.212,26.45 240.106,26.45 240.106,74.018 205.153,74.018 205.153,26.45 
		146.685,26.45 146.685,127.299 210.489,206.394 	"/>
</g>
</svg>
