<?xml version="1.0" encoding="utf-8"?>
<!-- Generator: Adobe Illustrator 17.0.0, SVG Export Plug-In . SVG Version: 6.00 Build 0)  -->
<!DOCTYPE svg PUBLIC "-//W3C//DTD SVG 1.1//EN" "http://www.w3.org/Graphics/SVG/1.1/DTD/svg11.dtd">
<svg version="1.1" id="Layer_1" xmlns="http://www.w3.org/2000/svg" xmlns:xlink="http://www.w3.org/1999/xlink" x="0px" y="0px"
	 width="613px" height="613px" viewBox="0 0 613 613" enable-background="new 0 0 613 613" xml:space="preserve">
<path d="M401.54,320.449c17.759-27.814,30.669-58.885,37.697-93.543c-6.768,1.352-13.402,2.938-19.928,4.703L197.785,10.075
	l-78.721,0.005l243.568,243.581c-14.762,7.736-28.592,16.747-41.37,26.997c-15.937-18.867-32.862-33.577-53.953-46.29l-2.023-2.023
	c7.999-20.417-17.656-45.085-43.549-43.55L44.269,11.318H9.604v35.651l175.299,175.312c-4.504,25.164,18.193,49.525,41.804,44.726
	c13.066,22.71,32.078,40.2,51.97,56.932c-9.567,12.418-17.976,25.875-25.22,40.184L10.612,121.268v78.245l221.394,221.403
	c-1.589,5.987-3.031,12.052-4.288,18.207c32.963-6.844,63.156-19.137,90.052-35.602c82.179,82.183,143.252,125.824,253.406,164.748
	C541.443,457.301,489.058,407.971,401.54,320.449z M321.871,339.096l19.876-21.341h0.001
	c52.31,49.619,130.495,134.567,168.769,189.459C456.18,469.234,371.364,391.212,321.871,339.096z"/>
</svg>
