<?xml version="1.0" encoding="utf-8"?>
<!-- Generator: Adobe Illustrator 17.0.0, SVG Export Plug-In . SVG Version: 6.00 Build 0)  -->
<!DOCTYPE svg PUBLIC "-//W3C//DTD SVG 1.1//EN" "http://www.w3.org/Graphics/SVG/1.1/DTD/svg11.dtd">
<svg version="1.1" id="Layer_1" xmlns="http://www.w3.org/2000/svg" xmlns:xlink="http://www.w3.org/1999/xlink" x="0px" y="0px"
	 width="613px" height="613px" viewBox="0 0 613 613" enable-background="new 0 0 613 613" xml:space="preserve">
<path d="M296.424,26.516c-35.45,4.603-63.128,43.134-63.128,89.636c0,25.755,8.832,48.754,22.433,65.145
	c-73.724,13.858-79.301,137.989-79.301,225.135h51.126l13.564,181.878h129.906l12-181.878h48.52
	c0-87.386,1.756-213.701-78.777-226.177c13.017-16.312,21.39-38.981,21.39-64.101c0-49.602-31.609-89.636-70.431-89.636
	c-2.426,0-4.941-0.314-7.305,0L296.424,26.516z"/>
<path d="M405.41,25.959c38.823,0,70.505,39.755,70.505,89.355c0,25.123-8.622,47.914-21.642,64.224
	c80.533,12.478,78.882,138.793,78.882,226.179h-48.166l-12.566,182.2H397.03l11.866-182.2h48.866
	c0-87.386,1.651-213.701-78.882-226.179c13.017-16.31,21.642-39.101,21.642-64.224c0-31.831-13.223-59.493-32.811-75.393
	c9.041-7.447,18.783-12.5,30.019-13.962C400.092,25.646,402.982,25.959,405.41,25.959z"/>
<path d="M240.262,39.921c-19.484,16.056-32.811,43.63-32.811,75.393c0,25.758,8.737,49.231,22.339,65.623
	c-73.724,13.858-78.885,137.637-78.882,224.78h50.959l13.265,182.2h-75.393l-13.265-182.2H74.815
	c0-87.143,5.857-210.922,79.582-224.78c-13.602-16.389-22.339-39.864-22.339-65.623c0-46.499,27.378-84.749,62.828-89.355
	c2.363-0.314,5.252,0,7.68,0C216.474,25.959,229.328,31.045,240.262,39.921z"/>
</svg>
