<?xml version="1.0" encoding="utf-8"?>
<!-- Generator: Adobe Illustrator 17.0.0, SVG Export Plug-In . SVG Version: 6.00 Build 0)  -->
<!DOCTYPE svg PUBLIC "-//W3C//DTD SVG 1.1//EN" "http://www.w3.org/Graphics/SVG/1.1/DTD/svg11.dtd">
<svg version="1.1" id="Layer_1" xmlns="http://www.w3.org/2000/svg" xmlns:xlink="http://www.w3.org/1999/xlink" x="0px" y="0px"
	 width="613px" height="613px" viewBox="0 0 613 613" enable-background="new 0 0 613 613" xml:space="preserve">
<g>
	<polygon points="589.181,280.553 556.825,345.542 521.146,156.615 522.028,312.574 437.029,135.439 481.206,323.425 
		585.271,539.831 571.466,429.383 	"/>
	<polygon points="176.821,410.571 354.094,529.745 176.818,511.831 349.851,555.155 286.634,578.864 424.147,572.835 
		545.917,588.059 	"/>
	<polygon points="65.32,380.112 121.084,444.75 207.021,461.493 	"/>
	<path d="M82.795,94.109c-22.596,24.099-35.94,55.204-41.494,86.26L500.35,520.808L44.743,260.755
		c6.123,20.013,16.407,35.803,30.117,43.718h0.001l490.892,261.645L304.107,75.223C286.138,8.163,148.802,23.707,82.795,94.109z"/>
</g>
</svg>
