<?xml version="1.0" encoding="utf-8"?>
<!-- Generator: Adobe Illustrator 17.0.0, SVG Export Plug-In . SVG Version: 6.00 Build 0)  -->
<!DOCTYPE svg PUBLIC "-//W3C//DTD SVG 1.1//EN" "http://www.w3.org/Graphics/SVG/1.1/DTD/svg11.dtd">
<svg version="1.1" id="Layer_1" xmlns="http://www.w3.org/2000/svg" xmlns:xlink="http://www.w3.org/1999/xlink" x="0px" y="0px"
	 width="613px" height="613px" viewBox="0 0 613 613" enable-background="new 0 0 613 613" xml:space="preserve">
<path d="M568.46,108.663c-9.5,118.627-92.685,94.082-92.685,12.139h-0.003c0-64.718-68.818-88.522-90.268-16.955
	C337.069,54.335,273.54,55.196,225.612,106.4c-20.265-75.687-91.227-52.168-91.227,13.553c0,81.943-83.185,106.489-92.685-12.139
	C-2.736,158.215,2.802,215.04,43.179,255.415c29.093,29.091,77.386,30.796,117.715,10.676c-3.121,23.305-4.82,48.641-4.82,76.043
	c51.665,52.103,68.783,123.998,68.783,219.665c14.654,13.905,29.792,23.587,45.2,29.166c5.936-43.922,0.706-86.25-0.681-129.127
	l33.55,49.259l35.349-49.867c-0.882,42.906-4.509,85.809-0.886,128.715c15.159-5.755,30.285-15.167,45.186-28.146
	c0-92.659,9.93-168.715,74.855-219.665c0-26.376-1.568-50.842-4.465-73.42c39.548,18.216,85.807,15.756,114.016-12.45
	C607.358,215.889,612.896,159.064,568.46,108.663z M226.862,371.593c-18.29,0-34.763-26.357-36.795-58.872
	s11.146-58.872,29.436-58.872c18.29,0,34.763,26.357,36.795,58.872C258.33,345.237,245.152,371.593,226.862,371.593z
	 M417.582,312.722c-2.032,32.515-18.505,58.872-36.795,58.872c-18.29,0-31.468-26.357-29.436-58.872s18.505-58.872,36.795-58.872
	C406.436,253.85,419.615,280.207,417.582,312.722z"/>
</svg>
