<?xml version="1.0" encoding="utf-8"?>
<!-- Generator: Adobe Illustrator 17.0.0, SVG Export Plug-In . SVG Version: 6.00 Build 0)  -->
<!DOCTYPE svg PUBLIC "-//W3C//DTD SVG 1.1//EN" "http://www.w3.org/Graphics/SVG/1.1/DTD/svg11.dtd">
<svg version="1.1" id="Layer_1" xmlns="http://www.w3.org/2000/svg" xmlns:xlink="http://www.w3.org/1999/xlink" x="0px" y="0px"
	 width="613px" height="613px" viewBox="0 0 613 613" enable-background="new 0 0 613 613" xml:space="preserve">
<path d="M18.32,15.527v73.297c91.676,64.777,188.677,176.397,77.488,150.089c68.271,65.823,124.458,32.018,208.029,161.956
	c36.361,56.535,8.931,96.27-35.603,108.204c-57.232,15.336-136.688-36.394-69.111-64.92c-70.878-1.732-80.033,57.348-46.292,95.909
	c-33.385-11.518-54.996-41.01-51.439-72.443c-43.082,57.708-6.409,111.504,64.921,122.436h427.228v-411.87
	c-18.827-84.04-113.405-104.905-123.56-4.189c17.462-43.536,60.913-24.652,100.524,22.339
	c-13.484-8.962-28.973-13.737-43.281-13.265c-23.583,0.777-44.655,14.447-49.565,43.981c66.822-55.119,101.158,41.499,73.8,91.892
	c-29.577,54.485-113.423-24.466-113.59-90.496c-33.439,37.335-9.34,129.448,62.598,146.482
	c-136.331-14.802-90.78-156.29-147.065-186.271C387.739,341.223,145.503,74.412,79.054,15.534H18.32V15.527z"/>
</svg>
