<?xml version="1.0" encoding="utf-8"?>
<!-- Generator: Adobe Illustrator 17.0.0, SVG Export Plug-In . SVG Version: 6.00 Build 0)  -->
<!DOCTYPE svg PUBLIC "-//W3C//DTD SVG 1.1//EN" "http://www.w3.org/Graphics/SVG/1.1/DTD/svg11.dtd">
<svg version="1.1" id="Layer_1" xmlns="http://www.w3.org/2000/svg" xmlns:xlink="http://www.w3.org/1999/xlink" x="0px" y="0px"
	 width="613px" height="613px" viewBox="0 0 613 613" enable-background="new 0 0 613 613" xml:space="preserve">
<g>
	<path d="M602.307,333.954c-49.016-54.531-99.101-103.172-148.691-146.598c-78.168-68.45-154.794-123.024-224.084-166.843h-87.989
		c72.652,43.985,164.76,110.776,227.059,182.426C263.368,177.172,127.736,123.87,20.804,77.843v73.213
		c0.204,0.089,0.409,0.177,0.613,0.266l-5.586-1.757c207.976,91.1,426.944,158.299,586.406,184.433l-0.378-0.119
		C602.008,333.904,602.159,333.93,602.307,333.954z"/>
	<path d="M71.252,346.163c-3.567,13.347-22.774,48.432-22.774,64.314c0,21.527,17.286,39.044,38.802,38.512
		c21.517-0.532,38.8-19.285,38.802-40.811c0-15.977-19.964-49.895-23.619-63.104c-14.498-52.412,14.363-128.059,50.502-133.786
		c-38.689-14.819-77.518-30.567-116.049-47.129C63.716,191.71,84.515,296.534,71.252,346.163z"/>
	<path d="M296.667,491.916c-3.878,14.147-24.553,51.837-24.55,68.797c0.001,22.85,17.797,40.513,40.636,40.332
		c22.839-0.181,41.483-18.13,41.483-40.98c0-16.856-19.019-54.665-23.706-68.416c-17.634-51.756-4.747-171.847,25.397-168.741
		c26.322,2.708,30.291,58.722,19.473,95.552c-2.491,8.478-14.391,30.551-14.393,40.766c0.001,13.765,10.792,24.477,24.55,24.368
		c13.758-0.112,24.55-10.991,24.553-24.756c0-10.155-10.722-32.263-13.546-40.547c-11.09-32.553,8.046-106.917,34.116-115.859
		c-63.017-16.998-129.996-37.881-198.407-61.985C298.929,286.364,312.15,435.443,296.667,491.916z"/>
	<path d="M567.355,334.356c-37.895-7.285-78.549-16.622-121.149-27.796c29.737,23.437,41.768,97.113,25.469,158.094
		c-4.436,16.593-28.31,60.206-28.312,79.948c0,26.759,21.486,48.533,48.234,47.875c26.748-0.659,48.234-23.972,48.234-50.731
		c0-19.861-24.818-62.023-29.36-78.444C492.479,398.258,526.377,343.128,567.355,334.356z"/>
</g>
</svg>
