<?xml version="1.0" encoding="utf-8"?>
<!-- Generator: Adobe Illustrator 17.0.0, SVG Export Plug-In . SVG Version: 6.00 Build 0)  -->
<!DOCTYPE svg PUBLIC "-//W3C//DTD SVG 1.1//EN" "http://www.w3.org/Graphics/SVG/1.1/DTD/svg11.dtd">
<svg version="1.1" id="Layer_1" xmlns="http://www.w3.org/2000/svg" xmlns:xlink="http://www.w3.org/1999/xlink" x="0px" y="0px"
	 width="612px" height="612px" viewBox="0 0 612 612" enable-background="new 0 0 612 612" xml:space="preserve">
<g>
	<path d="M482.5,472.42c-18.525-2.13-34.125-17.805-36.42-29.13c15.54-3.105,27.45-19.59,27.45-39.225
		c0-21.855-14.955-39.78-33.06-39.78c-1.755,0-5.61-0.87-7.29-0.555l-45.39-189.945V19.135l-61.065-0.015V482.5l30.255-21.855
		c0,0,10.725,33.015,41.46,66.12c30.735,33.105,122.715,66.12,122.715,66.12V460.66C521.155,460.66,495.205,474.91,482.5,472.42z"/>
	<path d="M213.565,85.24C182.815,52.15,90.835,19.12,90.85,19.12v132.225c0,0,25.95-14.25,38.655-11.76
		c18.525,2.13,34.125,17.805,36.42,29.13c-15.54,3.105-27.45,19.59-27.45,39.225c0,21.855,14.955,39.78,33.06,39.78
		c1.755,0,5.61,0.87,7.29,0.555l45.39,189.945v154.65h61.065V129.505l-30.255,21.855C255.025,151.36,244.3,118.345,213.565,85.24z"
		/>
</g>
</svg>
