<?xml version="1.0" encoding="utf-8"?>
<!-- Generator: Adobe Illustrator 17.0.0, SVG Export Plug-In . SVG Version: 6.00 Build 0)  -->
<!DOCTYPE svg PUBLIC "-//W3C//DTD SVG 1.1//EN" "http://www.w3.org/Graphics/SVG/1.1/DTD/svg11.dtd">
<svg version="1.1" id="Layer_1" xmlns="http://www.w3.org/2000/svg" xmlns:xlink="http://www.w3.org/1999/xlink" x="0px" y="0px"
	 width="613px" height="613px" viewBox="0 0 613 613" enable-background="new 0 0 613 613" xml:space="preserve">
<g>
	<path d="M586.771,17.937c-47.981,83.104-149.392,124.478-250.455,117.064c-71.644,48.318-207.464,112.015-314.097,133.936v173.547
		C308.474,349.542,627.625,282.615,586.771,17.937z"/>
	<path d="M513.02,329.562c0,18.106,17.898,31.415,35.21,31.415v0.002c17.701,0,34.52-12.445,34.52-29.637
		c0-34.641-25.368-48.332-34.52-99.706C539.373,283.107,513.02,293.476,513.02,329.562z"/>
	<path d="M265.759,407.808c0,13.904-15.304,25.127-15.304,37.806c0,15.242,13.991,26.011,28.739,26.011
		c14.424,0,29.476-12.068,29.476-28.12s-16.761-25.033-16.761-37.962c0.001-20.942,8.349-37.222,21.237-48.782
		c-25.505,9.865-51.978,19.247-79.053,28.355C252.724,384.701,265.759,391.738,265.759,407.808z"/>
	<path d="M104.541,493.886c-7.785,38.898-28.039,47.703-28.039,76.266c0,14.759,14.591,25.609,28.705,25.609
		c14.431,0,28.14-10.146,28.14-24.159c0-27.484-19.585-38.804-27.51-78c4.913-38.522,33.978-69.405,66.026-88.229
		c-33.678,10.679-67.842,21.181-101.853,31.872C85.28,443.167,98.905,458.282,104.541,493.886z"/>
	<path d="M499.935,255.445c-37.306,31.325-84.192,57.523-136.875,80.749c37.018-3.616,76.755,12.581,87.462,49.237
		c-15.723,68.171-50.232,89.7-50.232,139.718c0,26.346,25.777,45.421,52.907,45.421c26.534,0,53.966-20.4,53.966-48.149
		c0-52.265-36.065-69.342-51.489-137.63C467.903,316.644,483.521,280.286,499.935,255.445z"/>
</g>
</svg>
