<?xml version="1.0" encoding="utf-8"?>
<!-- Generator: Adobe Illustrator 17.0.0, SVG Export Plug-In . SVG Version: 6.00 Build 0)  -->
<!DOCTYPE svg PUBLIC "-//W3C//DTD SVG 1.1//EN" "http://www.w3.org/Graphics/SVG/1.1/DTD/svg11.dtd">
<svg version="1.1" id="Layer_1" xmlns="http://www.w3.org/2000/svg" xmlns:xlink="http://www.w3.org/1999/xlink" x="0px" y="0px"
	 width="613px" height="613px" viewBox="0 0 613 613" enable-background="new 0 0 613 613" xml:space="preserve">
<path d="M594.488,286.57c-9.996-25.833-26.375-45.342-47.254-59.138c20.017-10.683,37.247-25.958,50.092-46.321
	c-24.015-19.154-51.421-29.771-80.156-33.122c11.236-14.967,18.695-33.253,20.789-55.395c-32.424-3.266-69.673-1.895-103.67,6.762
	c0.814-19.189-6.752-40.125-25.986-62.073c-30.954,7.89-59.35,23.834-78.855,45.393c-15.702-23.855-43.282-43.335-77.57-52.673
	c-22.9,17.635-35.269,37.53-39.169,57.423c-26.419-14.364-58.139-20.492-93.585-17.282c-1.853,22.227,1.617,41.416,9.078,57.769
	c-33.586-0.444-67.632,8.9-99.063,29.435c15.269,18.767,32.772,33.716,51.84,45.071c-23.84,10.359-44.28,26.375-58.858,48.643
	c27.705,14.124,56.802,23.117,85.884,26.595c-14.803,16.445-25.209,37.192-29.152,62.81c32.97,4.183,68.472,2.917,100.749-5.384
	c-0.814,19.239,5.621,40.154,21.456,61.932c34.764-9.173,67.971-27.13,89.854-50.924c23.147,60.923,3.073,136.534-41.361,203.194
	c-36.976-89.103-123.482-51.028-159.664-98.532c-7.987,77.256,10.199,145.376,117.672,151.219c-0.184,0.196-0.365,0.393-0.55,0.589
	h72.523c182.008,4.362,198.883-88.303,177.228-180.698c-19.083,32.292-64.891,35.59-105.423,53.408
	c6.455-24.783,9.101-50.008,7.536-75.182c1.998,1.041,4.021,2.03,6.065,2.965c26.184-18.37,38.812-38.744,41.548-58.969
	c31.932,11.737,68.374,16.486,99.728,16.269c3.381-22.713-0.016-41.897-8.208-57.984
	C530.872,303.308,564.076,297.854,594.488,286.57z M326.513,229.695c-0.438,2.938-0.754,5.814-0.969,8.635
	c-3.928-1.713-7.919-3.297-11.961-4.724c-3.108,2.913-5.903,5.927-8.432,9.016c-1.756-3.207-3.704-6.435-5.889-9.683
	c-4.518,0.852-8.974,1.843-13.364,2.953c0.566-2.619,1.071-5.285,1.492-8.014c-4.434-0.562-8.915-1.021-13.427-1.382
	c2.428-2.174,4.827-4.412,7.19-6.726c-3.191-1.722-6.426-3.37-9.691-4.961c3.594-1.264,7.18-2.595,10.753-4.011
	c-1.874-2.479-3.789-4.906-5.739-7.284c4.619,0.07,9.234,0.024,13.826-0.152c-0.566-2.948-1.185-5.85-1.85-8.711
	c4.771,1.81,9.7,3.423,14.782,4.805c3.513-2.709,6.77-5.473,9.795-8.28c1.366,2.963,2.86,5.945,4.524,8.948
	c4.335-1.037,8.669-2.221,12.983-3.53c-0.462,2.8-0.839,5.661-1.117,8.595c4.744,0.476,9.595,0.847,14.52,1.116
	c-2.794,2.273-5.558,4.596-8.283,6.98c3.297,1.82,6.642,3.564,10.02,5.247c-3.695,1.185-7.391,2.425-11.084,3.726
	c1.908,2.627,3.876,5.182,5.897,7.673C335.744,229.746,331.072,229.665,326.513,229.695z"/>
</svg>
