<?xml version="1.0" encoding="utf-8"?>
<!-- Generator: Adobe Illustrator 17.0.0, SVG Export Plug-In . SVG Version: 6.00 Build 0)  -->
<!DOCTYPE svg PUBLIC "-//W3C//DTD SVG 1.1//EN" "http://www.w3.org/Graphics/SVG/1.1/DTD/svg11.dtd">
<svg version="1.1" id="Layer_1" xmlns="http://www.w3.org/2000/svg" xmlns:xlink="http://www.w3.org/1999/xlink" x="0px" y="0px"
	 width="613px" height="613px" viewBox="0 0 613 613" enable-background="new 0 0 613 613" xml:space="preserve">
<path d="M351.419,590.42l244.652-35.411L493.06,326.453c-1.951,40.897-7.171,79.52-17.564,114.544l-92.983-118.239
	c-1.231,25.83-4.286,50.435-10.105,73.182l-96.643-86.615c-1.629,14.315-4.019,28.093-7.455,41.137l-54.908-34.263L593.683,24.181
	H485.251L144.903,324.033l110.767,60.885c-2.078,4.2-4.344,8.267-6.797,12.204L81.128,336.274l299.62-312.093h-96.622L21.926,344.67
	l208.72,75.4c-9.821,9.746-21.581,18.129-35.698,24.855l135.556,32.352c-13.099,14.205-29.225,26.377-48.991,36.102l150.079,14.812
	C411.417,553.49,385.212,574.595,351.419,590.42z"/>
</svg>
