<?xml version="1.0" encoding="utf-8"?>
<!-- Generator: Adobe Illustrator 17.0.0, SVG Export Plug-In . SVG Version: 6.00 Build 0)  -->
<!DOCTYPE svg PUBLIC "-//W3C//DTD SVG 1.1//EN" "http://www.w3.org/Graphics/SVG/1.1/DTD/svg11.dtd">
<svg version="1.1" id="Layer_1" xmlns="http://www.w3.org/2000/svg" xmlns:xlink="http://www.w3.org/1999/xlink" x="0px" y="0px"
	 width="613px" height="613px" viewBox="0 0 613 613" enable-background="new 0 0 613 613" xml:space="preserve">
<g>
	<rect x="190.882" y="428.097" width="0.003" height="0"/>
	<path d="M399.637,132.964c30.906-31.04,37.568-74.673,14.883-97.457s-66.128-16.093-97.034,14.948
		c-30.904,31.039-37.568,74.673-14.883,97.457S368.731,164.004,399.637,132.964z"/>
	<path d="M473.788,74.5c195.305,176.876-289.5,149.584-442.576-34.668c37.087,53.45,90.152,95.391,148.943,126.748l-37.711-8.715
		c36.107,22.845,77.146,41.968,120.217,56.743C193.494,247,192.502,351.672,190.885,428.097h48.965l12.992,173.482h124.42
		l11.494-173.482h46.469c3.668-67.588,0.638-138.73-34.244-182.169c42.467,4.793,84.023,4.953,122.094-0.103l-31.606-7.304
		C602.08,230.178,641.89,171.409,473.788,74.5z"/>
</g>
</svg>
