<?xml version="1.0" encoding="utf-8"?>
<!-- Generator: Adobe Illustrator 17.0.0, SVG Export Plug-In . SVG Version: 6.00 Build 0)  -->
<!DOCTYPE svg PUBLIC "-//W3C//DTD SVG 1.1//EN" "http://www.w3.org/Graphics/SVG/1.1/DTD/svg11.dtd">
<svg version="1.1" id="Layer_1" xmlns="http://www.w3.org/2000/svg" xmlns:xlink="http://www.w3.org/1999/xlink" x="0px" y="0px"
	 width="613px" height="613px" viewBox="0 0 613 613" enable-background="new 0 0 613 613" xml:space="preserve">
<path d="M594.259,522.774c-72.474,9.396-136.658,6.334-192.499-7.542c66.351-55.769,113.84-139.059,127.723-234.051
	c1.794-3.582,3.328-7.448,4.557-11.54c17.625,8.803,33.29,21.621,45.209,38.007l10.624-68.974l-54.85-8.549
	c-0.984-3.57-2.266-6.911-3.827-9.953c3.432-51.802-2.338-108.162-22.687-153.749c10.225-5.493,15.926-14.513,13.392-22.89
	c-2.349-7.764-11.139-12.874-21.932-13.763c0.215-1.299,0.1-2.595-0.41-3.82c-2.112-5.075-10.064-7.019-17.759-4.344
	s-12.222,8.958-10.109,14.033c0.184,0.441,0.426,0.849,0.694,1.242c-7.977,5.525-12.114,13.383-9.887,20.747
	c2.54,8.397,12.613,13.69,24.608,13.896c6.921,44.388,7.49,94.661-2.329,138.511c-3.537,2.909-6.812,6.538-9.702,10.747
	l-63.722-9.932l-10.624,68.974c18.849-13.872,40.414-21.51,62.277-23.541c-0.326,4.284-0.274,8.465,0.117,12.474
	c-28.459,91.794-80.621,163.659-156.116,208.245c-74.948-44.23-126.932-115.311-155.572-206.038c0.617-4.7,0.762-9.66,0.368-14.769
	c22.217,1.883,44.166,9.538,63.313,23.629l-10.624-68.974l-64.654,10.077c-3.016-4.419-6.458-8.199-10.18-11.192
	c-9.75-43.778-9.164-93.924-2.259-138.21c12.578,0.18,23.313-5.189,25.947-13.897c2.12-7.009-1.527-14.466-8.761-19.932
	c0.558-0.615,1.02-1.296,1.337-2.057c2.112-5.075-2.414-11.358-10.109-14.033s-15.647-0.731-17.759,4.344
	c-0.496,1.191-0.613,2.449-0.422,3.711c-11.588,0.452-21.213,5.69-23.689,13.872c-2.445,8.081,2.774,16.761,12.325,22.296
	c-20.638,45.849-26.448,102.706-22.924,154.882c-1.462,2.944-2.667,6.159-3.599,9.582l-53.772,8.381l10.624,68.974
	c11.718-16.11,27.057-28.77,44.319-37.558c0.764,2.488,1.642,4.89,2.623,7.194c13.158,96.656,61.138,181.497,128.521,238.027
	c-55.785,13.831-119.919,16.849-192.326,7.462c97.851,70.656,199.982,79.734,287.181,47.866
	C394.2,602.509,496.405,593.432,594.259,522.774z"/>
</svg>
