<?xml version="1.0" encoding="utf-8"?>
<!-- Generator: Adobe Illustrator 17.0.0, SVG Export Plug-In . SVG Version: 6.00 Build 0)  -->
<!DOCTYPE svg PUBLIC "-//W3C//DTD SVG 1.1//EN" "http://www.w3.org/Graphics/SVG/1.1/DTD/svg11.dtd">
<svg version="1.1" id="Layer_1" xmlns="http://www.w3.org/2000/svg" xmlns:xlink="http://www.w3.org/1999/xlink" x="0px" y="0px"
	 width="613px" height="613px" viewBox="0 0 613 613" enable-background="new 0 0 613 613" xml:space="preserve">
<g>
	<path d="M436.166,281.183c2.437-64.256-96.349-104.825-126.319-21.472c-29.97-83.353-128.756-42.784-126.319,21.472
		c2.288,60.276,99.289,86.044,126.319,144.687C336.877,367.227,433.881,341.46,436.166,281.183z"/>
	<path d="M74.966,226.846l92.499,39.943c1.857-10.843,6.297-20.806,12.539-29.432l-39.417-18.888
		c35.045-51.857,73.57-85.522,115.842-101.788C209.176,79.865,180.891,56.8,162.925,10.44H83.343
		c68.964,51.94,93.182,88.97,81.714,125.115C118.102,99.043,68.373,78.804,18.244,60.904l-7.296,42.79
		c47.812,11.031,95.068,25.309,139.029,58.927C134.375,182.507,108.9,203.163,74.966,226.846z"/>
	<path d="M145.472,411.836L12.136,334.348v61.002c147.774,7.474,192.184,140.498,0,165.177v48.866l177.313-84.467
		c-55.03-65.244-4.994-119.811,51.599-152.037c-6.954-5.255-13.912-10.451-20.633-15.687L145.472,411.836z"/>
	<path d="M607.757,605.208l-99.229-119.93c-80.004,53.281-134.308-7.567-141.42-108.182c-9.405,7.182-18.673,14.526-27.201,22.277
		l18.761,141.611c65.732-38.029,184.038,19.771,168.422,64.224H607.757z"/>
	<path d="M590.971,417.4l0.001,0.001l6.161-52.984L495.101,386.33c-6.001-28.885-6.724-49.846,26.454-78.731
		c-26.12-4.006-52.099-7.123-77.914-8.455c-4.179,11.907-11.773,22.602-21.379,32.657c43.856,18.466,57.607,49.91,31.475,95.953
		L590.971,417.4z"/>
	<path d="M429.079,231.567c6.443,7.31,11.514,15.841,14.64,25.225c39.879-12.243,77.275-28.236,112.455-47.576l-112.806-66.94
		c47.921-33.4,99.317-46.594,157.193-61.114c11.814-74.741-27.64-73.584-90.177-65.957
		c-20.043,50.892-79.722,97.984-155.475,143.035C401.294,162.391,515.012,191.192,429.079,231.567z"/>
</g>
</svg>
