<?xml version="1.0" encoding="utf-8"?>
<!-- Generator: Adobe Illustrator 17.0.0, SVG Export Plug-In . SVG Version: 6.00 Build 0)  -->
<!DOCTYPE svg PUBLIC "-//W3C//DTD SVG 1.1//EN" "http://www.w3.org/Graphics/SVG/1.1/DTD/svg11.dtd">
<svg version="1.1" id="Layer_1" xmlns="http://www.w3.org/2000/svg" xmlns:xlink="http://www.w3.org/1999/xlink" x="0px" y="0px"
	 width="613px" height="613px" viewBox="0 0 613 613" enable-background="new 0 0 613 613" xml:space="preserve">
<path d="M579.738,190.147c-30.408-27.381-62.465-51.801-94.91-72.391c-7.86-29.808-72.969-92.157-112.079-57.212
	c-28.111-41.694-86.661-42.331-127.64-24.68C120.148,26.236,49.171,82.838,22.207,185.793v406.656H248.46
	c-6.318-66.511,6.785-139.27,34.246-187.782c45.93,11.593,100.075,22.583,161.667,35.492c48.839,10.235,67.847-21.571,80.486-78.036
	l-38.269,25.88l-11.99-53.075l-54.586,36.915l-12.89-57.059l-51.702,34.964l-12.78-56.57l-40.313,27.262l-12.038,8.139
	l-17.931-79.369l84.663-57.255l12.78,56.57l52.351-35.403l12.89,57.059l51.702-34.964l11.99,53.075l54.586-36.915l9.205,40.746
	C587.45,259.87,604.625,212.556,579.738,190.147z"/>
</svg>
