<?xml version="1.0" encoding="utf-8"?>
<!-- Generator: Adobe Illustrator 17.0.0, SVG Export Plug-In . SVG Version: 6.00 Build 0)  -->
<!DOCTYPE svg PUBLIC "-//W3C//DTD SVG 1.1//EN" "http://www.w3.org/Graphics/SVG/1.1/DTD/svg11.dtd">
<svg version="1.1" id="Layer_1" xmlns="http://www.w3.org/2000/svg" xmlns:xlink="http://www.w3.org/1999/xlink" x="0px" y="0px"
	 width="613px" height="613px" viewBox="0 0 613 613" enable-background="new 0 0 613 613" xml:space="preserve">
<path d="M482.523,21.173c-19.444,113.002-66.637,160.812-91.338,219.997C359.5,180.5,325.574,109.275,306.665,3.167
	c-19.2,111.542-56.239,181.197-90.095,240.987c-24.213-59.105-68.736-112.228-88.465-222.981
	C101.191,177.584,21.103,209.092,21.103,318.75c0,55.02,54.389,95.464,107.001,95.464c6.391,0,12.741-0.542,18.975-1.571
	c-1.783,13.144-2.751,27.006-2.751,41.811c0,83.44,82.519,144.775,162.337,144.775c81.615,0,159.148-57.355,159.148-136.572
	c0-17.931-1.48-34.641-4.159-50.518c6.901,1.361,13.9,2.075,20.869,2.075c53.794,0,104.898-37.82,104.898-90.056
	C587.421,218.894,510.334,177.288,482.523,21.173z M127.067,403.371c-52.151,0-94.429-42.844-94.429-95.694
	c0-52.85,42.277-95.694,94.429-95.694c20.185,0,38.889,6.422,54.237,17.356c-5.122-1.711-10.577-2.643-16.242-2.643
	c-29.426,0-53.28,24.919-53.28,55.66c0,30.741,23.854,55.66,53.28,55.66c0.853,0,1.7-0.026,2.543-0.067
	c-8.142,19.688-14.632,40.228-18.668,62.839C141.918,402.474,134.596,403.371,127.067,403.371z M305.065,580.859
	c-75.028,0-135.85-61.615-135.85-137.621c0-13.433,1.908-26.413,5.451-38.687c0,0,0,0,0,0c1.862-6.45,4.176-12.704,6.908-18.725
	c0,0-0.001,0.001-0.001,0.001c8.178-18.023,20.082-33.951,34.721-46.764c0,0.001,0,0.002-0.001,0.002
	c1.229-1.076,2.481-2.125,3.748-3.155c0.133-0.108,0.265-0.218,0.399-0.325c3.999-3.227,8.18-6.232,12.526-8.995
	c0,0,0-0.001,0-0.001c20.896-13.283,45.61-20.971,72.099-20.971c25.931,0,50.163,7.363,70.775,20.134
	c1.272,0.788,2.527,1.602,3.771,2.431c0.188,0.125,0.377,0.25,0.565,0.376c1.267,0.853,2.523,1.724,3.76,2.619
	c0.009,0.006,0.017,0.013,0.026,0.019c0.333,0.241,0.656,0.497,0.987,0.741c-9.704-4.638-20.485-7.243-31.854-7.243
	c-42.334,0-76.652,35.836-76.652,80.045s34.318,80.045,76.652,80.045c42.334,0,76.652-35.839,76.652-80.045
	c0-8.164-1.177-16.039-3.353-23.459c1.021,2.048,1.992,4.126,2.913,6.231c0.528,1.207,1.039,2.424,1.533,3.649
	c0.047,0.116,0.094,0.231,0.14,0.347c1.563,3.902,2.956,7.892,4.167,11.962c3.746,12.592,5.768,25.94,5.768,39.769
	C440.915,519.244,380.093,580.859,305.065,580.859z M481.486,403.371c-7.571,0-14.929-0.916-21.984-2.622
	c-10.653-50.849-33.559-93.706-59.122-142.097c16.487-27.95,46.637-46.669,81.106-46.669c19.464,0,37.552,5.97,52.581,16.2
	c-5.788-2.251-12.048-3.487-18.587-3.488c-29.426,0-53.28,24.919-53.28,55.66c0,30.741,23.854,55.66,53.28,55.66
	c29.427,0,53.281-24.921,53.281-55.66c0-4.263-0.474-8.408-1.343-12.396c5.454,12.099,8.497,25.548,8.497,39.718
	C575.915,360.527,533.638,403.371,481.486,403.371z"/>
</svg>
