<?xml version="1.0" encoding="utf-8"?>
<!-- Generator: Adobe Illustrator 17.0.0, SVG Export Plug-In . SVG Version: 6.00 Build 0)  -->
<!DOCTYPE svg PUBLIC "-//W3C//DTD SVG 1.1//EN" "http://www.w3.org/Graphics/SVG/1.1/DTD/svg11.dtd">
<svg version="1.1" id="Layer_1" xmlns="http://www.w3.org/2000/svg" xmlns:xlink="http://www.w3.org/1999/xlink" x="0px" y="0px"
	 width="613px" height="614.291px" viewBox="0 0 613 614.291" enable-background="new 0 0 613 614.291" xml:space="preserve">
<path d="M385.421,321.406l74.283,20.636l-45.636-29.036l21.691-54.636l-38.416,43.995l-17.015-10.826l-0.003-0.001l-45.534,54.409
	c-20.366-28.909-2.393-81.961,25.448-132.641l33.775-34.775l49.632,31.046l16.012,68.475l95.346,26.223l-75.694-42.251
	l-15.284-67.018l-53.466-33.512l28.726-29.577l50.844-40.71l-62.526,21.787l-6.49-2.506l48.341-94.573l-69.407,86.441
	l-52.476-20.258V11.439l-23.29,86.684l83.701,32.052l-47.033,48.834c-18.517,10.083-32.323,9.768-44.503,2.501l-6.145-13.281
	l49.994-40.029l-59.003,20.559l-35.725-77.216l17.226-37.522l-37.849,26.954l0.003-0.004L135.772,36.933l108.502,45.249
	l13.776,29.782L183.644,127.8L143.81,78.052l18.888,54.206l-31.291,6.66L60.08,93.025l31.494,35.919L43.86,167.15l62.207-21.676
	l16.606,18.939l96.283-20.237l-3.85,52.288l24.873-56.706l28.26-5.94l27.967,60.46c2.253,11.919,3.225,22.894,2.709,32.47
	l-54.003-21.071l49.22,42.471c-7.278,15.465-22.984,21.814-49.327,13.903l-90.11-59.763l-33.456,22.189l-19.598-44.681l4.05,54.993
	l-11.406,7.564l-77.877-59.005v0.004l73.512,89.6l64.778-42.98c13.031,8.955,26.126,17.815,39.248,26.632l-14.503,49.859
	l-58.268,24.195l76.463-4.526l16.211-56.209c6.82,4.535,13.646,9.061,20.487,13.565c59.198,90.7,68.187,226.28,2.327,211.183
	c10.862,46.18-29.006,81.16-65.549,96.886h230.801c-82.608-45.057-101.518-133.173-59.859-218.177L385.421,321.406z"/>
</svg>
