<?xml version="1.0" encoding="utf-8"?>
<!-- Generator: Adobe Illustrator 17.0.0, SVG Export Plug-In . SVG Version: 6.00 Build 0)  -->
<!DOCTYPE svg PUBLIC "-//W3C//DTD SVG 1.1//EN" "http://www.w3.org/Graphics/SVG/1.1/DTD/svg11.dtd">
<svg version="1.1" id="Layer_1" xmlns="http://www.w3.org/2000/svg" xmlns:xlink="http://www.w3.org/1999/xlink" x="0px" y="0px"
	 width="613px" height="613px" viewBox="0 0 613 613" enable-background="new 0 0 613 613" xml:space="preserve">
<path d="M450.373,50.909C310.76-29.696,132.239,18.139,51.634,157.751S18.864,475.885,158.477,556.49s318.134,32.77,398.739-106.842
	S589.985,131.514,450.373,50.909z M520.943,430.548c-52.685,91.202-161.687,126.888-243.466,79.7s-105.36-159.371-52.672-250.577
	s161.687-126.888,243.466-79.7S573.63,339.342,520.943,430.548z"/>
<path d="M453.038,272.035c-42.94-24.721-100.18-6.026-127.845,41.755c-27.666,47.781-15.283,106.558,27.658,131.279
	c42.94,24.721,100.18,6.026,127.845-41.755S495.978,296.756,453.038,272.035z M371.884,360.58c-19.644,0-35.57-15.92-35.57-35.555
	s15.926-35.555,35.57-35.555s35.57,15.92,35.57,35.555C407.454,344.663,391.528,360.58,371.884,360.58z"/>
</svg>
