<?xml version="1.0" encoding="utf-8"?>
<!-- Generator: Adobe Illustrator 17.0.0, SVG Export Plug-In . SVG Version: 6.00 Build 0)  -->
<!DOCTYPE svg PUBLIC "-//W3C//DTD SVG 1.1//EN" "http://www.w3.org/Graphics/SVG/1.1/DTD/svg11.dtd">
<svg version="1.1" id="Layer_1" xmlns="http://www.w3.org/2000/svg" xmlns:xlink="http://www.w3.org/1999/xlink" x="0px" y="0px"
	 width="613px" height="613px" viewBox="0 0 613 613" enable-background="new 0 0 613 613" xml:space="preserve">
<path d="M420.004,416.263l46.051-171.865L340.637,118.69l-171.468,46.157l-46.051,171.865L248.536,462.42L420.004,416.263z
	 M194.269,192.277l136.065-36.658v-0.001l98.786,99.407L393.085,391.09l-53.432,14.29
	c142.872-128.941-41.621-284.914-157.188-168.371L194.269,192.277z"/>
<path d="M379.678,17.682L92.131,94.466L15.215,381.522l210.632,210.272l287.548-76.784l76.916-287.056L379.678,17.682z
	 M341.407,43.821l-10.265,40.215c0,0.003,0,0.005,0,0.008h-0.002l0.002-0.008c-0.35-18.538-45.466-20.341-128.566-5.231
	L341.407,43.821z M52.751,335.487c60.743-36.508,78.5-155.522,43.449-197.537l39.236,36.463l-36.04,142.193L52.751,335.487z
	 M206.669,547.306c-6.25-53.269-33.879-102.711-84.496-171.909l93.403,98.538L206.669,547.306z M182.465,237.011l11.804-44.733
	l136.065-36.658v-0.001l98.786,99.407l-36.035,136.065l-53.432,14.29C482.525,276.441,298.032,120.467,182.465,237.011z
	 M329.932,548.417c73.249-31.609,99.64-44.737,108.723-68.819l29.002,29.701L329.932,548.417z M479.744,217.832
	c19.363-25.542-38.601-108.881-77.305-156.523L550.06,208.811l-70.313,9.018L479.744,217.832z M494.094,264.777L494.094,264.777
	l71.636-5.554l-34.985,138.83C538.787,315.726,530.701,289.458,494.094,264.777z"/>
</svg>
