<?xml version="1.0" encoding="utf-8"?>
<!-- Generator: Adobe Illustrator 17.0.0, SVG Export Plug-In . SVG Version: 6.00 Build 0)  -->
<!DOCTYPE svg PUBLIC "-//W3C//DTD SVG 1.1//EN" "http://www.w3.org/Graphics/SVG/1.1/DTD/svg11.dtd">
<svg version="1.1" id="Layer_1" xmlns="http://www.w3.org/2000/svg" xmlns:xlink="http://www.w3.org/1999/xlink" x="0px" y="0px"
	 width="613px" height="613px" viewBox="0 0 613 613" enable-background="new 0 0 613 613" xml:space="preserve">
<path d="M593.558,553.293v-59.336l-372.975,20.075c1.037-5.935,1.582-12.039,1.582-18.271c0-0.236-0.007-0.471-0.009-0.707
	l371.4-70.208v-60.735L220.894,479.367c-1.042-6.675-2.712-13.141-4.945-19.339l377.606-198.535v-78.185l-384.27,261.926
	c-3.004-5.489-6.485-10.679-10.382-15.52L593.553,75.102V14.367l-0.004,0.008h-48.166L184.976,415.41
	c-4.831-4.106-10.034-7.787-15.556-10.979L435.786,14.378h-79.582l-201.24,383.115c-4.595-1.788-9.344-3.265-14.226-4.401
	L258.472,14.378h-57.243l-70.802,376.853c-4.12-0.534-8.316-0.824-12.571-0.868l19.849-375.987H83.954l20.677,376.671
	c-4.536,0.519-8.983,1.325-13.325,2.402L19.728,14.367V195.17l62.351,201.022c-41.182,14.34-70.738,53.499-70.738,99.569
	c0,58.218,47.194,105.412,105.412,105.412c33.557,0,63.449-15.681,82.754-40.114l95.968,29.929h136.128l-223.547-42.514
	c2.97-5.134,5.519-10.541,7.601-16.174L593.558,553.293z"/>
</svg>
