<?xml version="1.0" encoding="utf-8"?>
<!-- Generator: Adobe Illustrator 17.0.0, SVG Export Plug-In . SVG Version: 6.00 Build 0)  -->
<!DOCTYPE svg PUBLIC "-//W3C//DTD SVG 1.1//EN" "http://www.w3.org/Graphics/SVG/1.1/DTD/svg11.dtd">
<svg version="1.1" id="Layer_1" xmlns="http://www.w3.org/2000/svg" xmlns:xlink="http://www.w3.org/1999/xlink" x="0px" y="0px"
	 width="613px" height="613px" viewBox="0 0 613 613" enable-background="new 0 0 613 613" xml:space="preserve">
<g>
	<path d="M514.232,382.594l65.725-5.47l-120.61-79.329l101.782-46.236l-86.395-29.064l84.222-41.361l-69.221-24.013l53.236-61.551
		l-96.696,17.163l7.111-84.466l-73.074,69.939l-44.519-75.243l-25.212,77.057l-65.79-42.649l7.717,104.382L150.793,94.852
		l57.118-17.79l-86.14-52.31l-94.994-0.003v75.74l115.867,55.099l-70.242,20.888l154.142,93.385l-113.474,3.864l88.329,56.319
		L78.592,380.012l100.388,29.676l-79.82,93.481L214.6,472.96l13.384,117.371l77.79-91.7l56.637,90.969l21.919-87.067l56.843,29.579
		l-12.622-139.867l101.147,61.278l-60.304,8.685l119.308,82.884l1.204-98.604L514.232,382.594z M377.203,465.889L221.63,424.204
		l36.266-135.348l0.001,0l28.147-105.046l0,0l13.334-49.764l37.015,9.919l5.616-20.959l81.534,21.847l-5.616,20.958l37.023,9.921
		l-27.264,101.752l-26.335,98.282l0,0L377.203,465.889z"/>
	<polygon points="401.507,184.765 410.097,152.706 349.731,136.531 341.141,168.59 315.429,161.7 296.602,231.965 371.861,266.93 
		350.8,307.244 391.349,325.522 427.218,191.654 	"/>
	<polygon points="317.105,312.057 279.797,295.211 279.892,294.826 279.758,294.826 249.355,408.294 361.144,438.248 
		375.906,383.155 300.859,342.743 	"/>
</g>
</svg>
