<?xml version="1.0" encoding="utf-8"?>
<!-- Generator: Adobe Illustrator 17.0.0, SVG Export Plug-In . SVG Version: 6.00 Build 0)  -->
<!DOCTYPE svg PUBLIC "-//W3C//DTD SVG 1.1//EN" "http://www.w3.org/Graphics/SVG/1.1/DTD/svg11.dtd">
<svg version="1.1" id="Layer_1" xmlns="http://www.w3.org/2000/svg" xmlns:xlink="http://www.w3.org/1999/xlink" x="0px" y="0px"
	 width="613px" height="613px" viewBox="0 0 613 613" enable-background="new 0 0 613 613" xml:space="preserve">
<path d="M596.145,478.44l0.007-140.389L489.21,341.95c2.658-15.813,3.319-31.58,2.154-47.02l56.893-33.034l-63.569-14.244
	l-8.329-14.425c-10.956-25.817-27.375-49.16-48.22-68.249L578.168,15.775L463.099,15.77l-58.401,130.814
	c-6.676-4.455-13.671-8.525-20.963-12.173l-9.051-74.086l-42.66,56.682c-31.902-6.026-63.714-3.878-93.116,5.075L216.534,12.173
	l-151.78,0.005l125.855,132.115c-9.791,6.226-19.039,13.319-27.617,21.209L89.97,141l36.962,69.106
	c-8.793,14.934-15.745,31.284-20.449,48.839c-5.54,20.675-7.545,41.461-6.411,61.728l-63.688,47.93l75.635,9.243
	c2.43,6.537,5.215,12.928,8.317,19.157L12.21,442.99v121.682l126.606-137.617c5.774,7.736,12.127,15.06,19.016,21.899l-29.31,68.934
	l78.528-33.392c8.969,4.544,18.387,8.453,28.219,11.638l-60.476,101.817l129.631,0.005l-10.518-92.196
	c11.704,0.124,23.278-0.818,34.609-2.74l38.542,57.128l16.587-75.201c14.626-7.334,28.325-16.468,40.728-27.217l61.482,20.879
	l-25.22-62.675c4.702-7.296,8.959-14.954,12.704-22.959L596.145,478.44z M301.483,395c-47.271,0-85.593-38.321-85.593-85.592
	c0-47.271,38.322-85.594,85.593-85.594s85.593,38.321,85.593,85.594C387.076,356.679,348.753,395,301.483,395z"/>
</svg>
