<?xml version="1.0" encoding="utf-8"?>
<!-- Generator: Adobe Illustrator 17.0.0, SVG Export Plug-In . SVG Version: 6.00 Build 0)  -->
<!DOCTYPE svg PUBLIC "-//W3C//DTD SVG 1.1//EN" "http://www.w3.org/Graphics/SVG/1.1/DTD/svg11.dtd">
<svg version="1.1" id="Layer_1" xmlns="http://www.w3.org/2000/svg" xmlns:xlink="http://www.w3.org/1999/xlink" x="0px" y="0px"
	 width="612px" height="612px" viewBox="0 0 612 612" enable-background="new 0 0 612 612" xml:space="preserve">
<g transform="matrix(15 0 0 15 -7004 -6109.4327)">
	<g>
		<path d="M487.333,408.571c-5.379,0-8.367,9.563-8.367,16.734c0,3.586,3.586,7.172,8.367,7.172s8.367-3.586,8.367-7.172
			C495.701,418.133,492.712,408.571,487.333,408.571z"/>
		<path d="M477.771,428.891c7.172,8.367,11.953,8.367,19.125,0c0,7.172-3.586,5.977-3.586,10.758c0,7.172,5.977,4.781,5.977,7.172
			H475.38c0-2.391,5.977,0,5.977-7.172C481.357,434.867,477.771,436.063,477.771,428.891z"/>
	</g>
</g>
</svg>
