<?xml version="1.0" encoding="utf-8"?>
<!-- Generator: Adobe Illustrator 17.0.0, SVG Export Plug-In . SVG Version: 6.00 Build 0)  -->
<!DOCTYPE svg PUBLIC "-//W3C//DTD SVG 1.1//EN" "http://www.w3.org/Graphics/SVG/1.1/DTD/svg11.dtd">
<svg version="1.1" id="Layer_1" xmlns="http://www.w3.org/2000/svg" xmlns:xlink="http://www.w3.org/1999/xlink" x="0px" y="0px"
	 width="613px" height="613px" viewBox="0 0 613 613" enable-background="new 0 0 613 613" xml:space="preserve">
<g>
	<path d="M462.635,428.967c45.706-42.276,74.332-102.751,74.332-169.919c0.001-127.815-103.613-231.429-231.425-231.429
		S74.117,131.236,74.117,259.048c0,67.173,28.63,127.651,74.341,169.927l-4.061,0.267c-31.408,54.193-6.151,97.617,29.687,139.224
		c-8.522-34.996-14.124-70.775,8.53-113.325c4.417,2.775,8.931,5.409,13.542,7.887c-13.692,50.398,1.923,92.4,32.476,128.013
		c-4.909-32.374-6.308-68.43,9.593-110.526c3.942,1.197,7.929,2.287,11.957,3.276c2.127,43.126,15.734,83.321,33.586,122.435
		c-1.599-38.03,1.123-76.59,10.908-116.014c3.602,0.167,7.223,0.262,10.867,0.262c3.687,0,7.351-0.096,10.996-0.266
		c9.786,39.426,12.509,77.987,10.909,116.019c17.857-39.124,31.466-79.329,33.588-122.467c4.023-0.99,8.006-2.082,11.944-3.279
		c15.916,42.111,14.517,78.178,9.607,110.561c30.565-35.627,46.179-77.648,32.458-128.073c4.606-2.479,9.114-5.113,13.526-7.888
		c22.692,42.578,17.089,78.374,8.563,113.387c35.839-41.608,61.096-85.032,29.687-139.224L462.635,428.967z M161.339,298.331
		c0-79.667,64.585-144.251,144.253-144.251s144.253,64.582,144.253,144.251S385.26,442.585,305.592,442.585
		S161.339,378.001,161.339,298.331z"/>
	<path d="M335.404,264.287c-24.104,0-43.645-19.541-43.645-43.646c0-6.769,1.542-13.177,4.292-18.894
		c-40.527,7.548-71.211,43.092-71.211,85.806c0,48.21,39.082,87.291,87.291,87.291s87.291-39.081,87.291-87.291
		c-0.001-21.932-8.091-41.972-21.447-57.305C373.597,249.729,356.206,264.287,335.404,264.287z M307.739,340.003
		c-15.668,0-28.37-12.702-28.37-28.37c0-15.668,12.702-28.37,28.37-28.37c15.668,0,28.37,12.701,28.37,28.37
		S323.407,340.003,307.739,340.003z"/>
</g>
</svg>
