<?xml version="1.0" encoding="utf-8"?>
<!-- Generator: Adobe Illustrator 17.0.0, SVG Export Plug-In . SVG Version: 6.00 Build 0)  -->
<!DOCTYPE svg PUBLIC "-//W3C//DTD SVG 1.1//EN" "http://www.w3.org/Graphics/SVG/1.1/DTD/svg11.dtd">
<svg version="1.1" id="Layer_1" xmlns="http://www.w3.org/2000/svg" xmlns:xlink="http://www.w3.org/1999/xlink" x="0px" y="0px"
	 width="612px" height="612px" viewBox="0 0 612 612" enable-background="new 0 0 612 612" xml:space="preserve">
<path d="M406.47,278.011c-86.61,21.597-145.895,18.853-169.972-59.332c-3.744-12.156-8.917-22.395-15.133-30.836l9.12,3.752
	c-5.725-27.951,3.226-48.888,23.659-64.327c-24.615-5.214-48.975-8.006-70.157,19.492c6.46-16.072-0.867-45.272-15.347-53.698
	c-8.957,31.181-24.503,44.397-44.264,47.035c-28.124-15.396-14.001-105.604-14.001-105.604l-14.001-6.085
	c-15.893,56.683-1.732,94.407,7.509,111.165c-14.76-2.292-31.036-8.182-48.138-15.528l23.447,43.581
	c-17.377-8.388-35.181-6.054-52.13-0.36c38.23,25.076,22.01,46.346-3.679,70.692c16.797-3.509,34.042-12.798,47.625-14.884
	c-8.154,22.462-9.882,49.96-1.51,81.464c62.124,233.831,258.447,301.534,398.589,256.857
	C649.696,503.509,590.905,232.21,406.47,278.011z"/>
</svg>
