<?xml version="1.0" encoding="utf-8"?>
<!-- Generator: Adobe Illustrator 17.0.0, SVG Export Plug-In . SVG Version: 6.00 Build 0)  -->
<!DOCTYPE svg PUBLIC "-//W3C//DTD SVG 1.1//EN" "http://www.w3.org/Graphics/SVG/1.1/DTD/svg11.dtd">
<svg version="1.1" id="Layer_1" xmlns="http://www.w3.org/2000/svg" xmlns:xlink="http://www.w3.org/1999/xlink" x="0px" y="0px"
	 width="613px" height="613px" viewBox="0 0 613 613" enable-background="new 0 0 613 613" xml:space="preserve">
<g>
	<polygon points="55.209,22.951 55.211,22.952 55.211,22.951 	"/>
	<path d="M55.211,22.952c0,257.541,32.382,440.901,251.813,566.536C528.101,462.91,559.123,281.201,559.123,22.952
		C394.581,47.911,218.817,47.604,55.211,22.952z M309.259,158.882c53.368,0,96.63,43.359,96.63,96.844s-43.262,96.844-96.63,96.844
		c-53.368,0-96.63-43.359-96.63-96.844S255.891,158.882,309.259,158.882z M481.82,211.663
		c19.966,12.762,39.648,27.735,58.951,44.935c-19.306,17.202-39.143,32.128-59.37,44.795c3.839-14.577,5.894-29.881,5.894-45.668
		C487.295,240.518,485.391,225.757,481.82,211.663z M136.647,211.66c-3.572,14.095-5.476,28.856-5.476,44.065
		c0,15.787,2.055,31.091,5.894,45.668c-20.127-12.624-39.943-27.532-59.318-44.795C97.135,239.324,116.796,224.366,136.647,211.66z"
		/>
	<ellipse cx="309.247" cy="255.694" rx="43.741" ry="43.838"/>
</g>
</svg>
