<?xml version="1.0" encoding="utf-8"?>
<!-- Generator: Adobe Illustrator 17.0.0, SVG Export Plug-In . SVG Version: 6.00 Build 0)  -->
<!DOCTYPE svg PUBLIC "-//W3C//DTD SVG 1.1//EN" "http://www.w3.org/Graphics/SVG/1.1/DTD/svg11.dtd">
<svg version="1.1" id="Layer_1" xmlns="http://www.w3.org/2000/svg" xmlns:xlink="http://www.w3.org/1999/xlink" x="0px" y="0px"
	 width="613px" height="613px" viewBox="0 0 613 613" enable-background="new 0 0 613 613" xml:space="preserve">
<path d="M455.065,166.222c40.78,44.944,3.012,99.045-61.477,90.502c-79.734-10.564-85.893-87.611-70.355-118.881
	c29.37-59.115-21.002-121.368-111.362-115.79c123.763,92.344-63.52,194.386-88.732-2.401l0.002-0.002
	c-18.695,17.902-36.045,73.975-14.272,112.884c88.682,158.493-3.144,237.006-47.208,110.804
	c-33.441,107.139,8.19,236.308,120.981,301.454l66.983-66.983l-20.578-20.886c-26.688-26.623-27.624-69.803-0.963-96.417
	l49.093-49.094l-10.727-10.704l68.535-25.235l-25.287,68.39l-10.442-10.419l-48.994,48.274c-14.924,14.897-14.978,38.086,0,53.03
	l21.211,21.212l88.085-88.085l-16.393-16.357l90.617-33.366l-33.436,90.424L381.75,390.02l-88.316,87.902l22.392,22.392
	c14.971,14.905,38.087,14.911,53.03,0l52.986-52.985l-10.514-10.491l68.537-25.237l-25.286,68.392l-10.931-10.907l-52.618,53.403
	c-26.677,26.617-70.691,26.576-97.383,0l-22.274-22.607l-59.78,59.5c39.715,17.295,86.652,27.349,140.693,27.349
	C651.944,586.729,637.685,214.498,455.065,166.222z"/>
</svg>
