<?xml version="1.0" encoding="utf-8"?>
<!-- Generator: Adobe Illustrator 17.0.0, SVG Export Plug-In . SVG Version: 6.00 Build 0)  -->
<!DOCTYPE svg PUBLIC "-//W3C//DTD SVG 1.1//EN" "http://www.w3.org/Graphics/SVG/1.1/DTD/svg11.dtd">
<svg version="1.1" id="Layer_1" xmlns="http://www.w3.org/2000/svg" xmlns:xlink="http://www.w3.org/1999/xlink" x="0px" y="0px"
	 width="612px" height="612px" viewBox="0 0 612 612" enable-background="new 0 0 612 612" xml:space="preserve">
<g transform="matrix(15 0 0 15 15.99891 -9889.4324)">
</g>
<g transform="matrix(2.25523 0 0 1.875 -309.67166 724.11839)">
	<path d="M225.295-309.063c0,57.375,47.702,66.938,47.702,114.75c0,19.125-15.901,47.812-39.751,47.812s-39.751-28.688-23.851-76.5
		c-23.851,19.125-31.801,38.25-31.801,57.375c0,47.813,39.751,95.625,95.403,95.625S368.4-98.688,368.4-156.064
		c0.355-84.867-81.303-113.217-103.354-153c-15.901-28.688-7.95-47.813,7.95-66.938
		C241.196-366.438,225.295-339.663,225.295-309.063L225.295-309.063z"/>
</g>
</svg>
