<?xml version="1.0" encoding="utf-8"?>
<!-- Generator: Adobe Illustrator 17.0.0, SVG Export Plug-In . SVG Version: 6.00 Build 0)  -->
<!DOCTYPE svg PUBLIC "-//W3C//DTD SVG 1.1//EN" "http://www.w3.org/Graphics/SVG/1.1/DTD/svg11.dtd">
<svg version="1.1" id="Layer_1" xmlns="http://www.w3.org/2000/svg" xmlns:xlink="http://www.w3.org/1999/xlink" x="0px" y="0px"
	 width="613px" height="613px" viewBox="0 0 613 613" enable-background="new 0 0 613 613" xml:space="preserve">
<g>
	<path d="M409.935,479.661c-32.462-22.942-14.993-67.672,3.258-101.291c15.353-28.283,54.456-44.955,75.079-33.048
		c16.274,9.396,19.729,32.317,10.91,55.17c21.336-11.75,43.802-12.54,56.43,1.017c9.473,10.162,10.641,25.846,5.391,41.805
		c62.468-64.04,3.397-155.858-69.879-198.166h0.003c-4.476-2.584-9.029-4.947-13.636-7.092c4.052-45.97-25.336-104.386-99.18-154.1
		c-0.864,8.326-2.046,16.452-3.564,24.367c14.703,12.08,28.248,27.119,39.869,46c-14.899-10.861-30.068-17.906-45.745-21.997
		c-1.888,6.244-4.032,12.328-6.452,18.241c10.616,5.168,20.982,11.615,30.933,19.626c-13.587-1.444-26.572-2-39.202-2.083
		c-4.715,8.752-10.161,17.051-16.372,24.879c-50.042-6.396-100.036-1.806-149.396,13.177
		c-23.138-43.758-89.931-82.556-169.875-94.87c10.565,13.013,19.672,26.354,27.1,40.084c28.061,6.915,57.02,19.471,86.109,40.645
		c-25.993-7.732-49.241-8.95-71.138-5.294c3.531,11.492,5.863,23.265,6.88,35.351l33.973,9.678l-33.625,13.153
		c-0.76,14.365-3.363,29.17-7.988,44.465c11.971,2.718,24.581,2.991,38.201,0.317c-15.737,11.886-31.446,19.334-46.894,23.517
		c-4.728,11.087-10.496,22.427-17.37,34.036c74.952-15.127,120.725-37.789,144.058-63.248c32.615,16.846,61.716,36.717,87.97,64.675
		L200.886,382.3c30.973,22.812,70.41,33.872,105.239,29.669c9.583,19.849,23.559,39.924,41.911,61.13
		c45.584,52.671,104.366,62.387,128.44,4.989C458.104,491.563,425.74,490.829,409.935,479.661z"/>
	<path d="M552.401,516.188l-2.112-43.808c-9.92,30.099-35.465,41.1-62.569,50.199l49.246,7.66
		c2.775,38.262,12.381,57.587,47.22,52.012C598.055,550.864,584.876,527.42,552.401,516.188z"/>
</g>
</svg>
