<?xml version="1.0" encoding="utf-8"?>
<!-- Generator: Adobe Illustrator 17.0.0, SVG Export Plug-In . SVG Version: 6.00 Build 0)  -->
<!DOCTYPE svg PUBLIC "-//W3C//DTD SVG 1.1//EN" "http://www.w3.org/Graphics/SVG/1.1/DTD/svg11.dtd">
<svg version="1.1" id="Layer_1" xmlns="http://www.w3.org/2000/svg" xmlns:xlink="http://www.w3.org/1999/xlink" x="0px" y="0px"
	 width="613px" height="613px" viewBox="0 0 613 613" enable-background="new 0 0 613 613" xml:space="preserve">
<path d="M320.052,72.602c-8.028,20.346-28.047,31.508-44.713,24.932s-23.669-28.401-15.641-48.747s28.047-31.508,44.713-24.932
	S328.08,52.256,320.052,72.602z"/>
<path d="M405.973,104.601c-14.641,19.763-39.635,26.062-55.824,14.068s-17.444-37.738-2.803-57.501S386.981,35.106,403.17,47.1
	C419.36,59.093,420.615,84.837,405.973,104.601z"/>
<path d="M482.589,157.561c-18.969,18.369-46.546,20.663-61.593,5.124s-11.868-43.027,7.102-61.396s46.546-20.663,61.593-5.124
	S501.558,139.192,482.589,157.561z"/>
<path d="M553.728,269.164c-33.274,18.504-72.536,11.408-87.694-15.848s-0.472-64.353,32.802-82.857s72.536-11.408,87.694,15.848
	S587.002,250.66,553.728,269.164z"/>
<path d="M201.619,152.892C128.661,218.163,57.591,311.991,33.792,462.549C5.99,638.419,222.635,606.632,201.187,512.697
	c-27.4-119.994,40.787-168.666,129.085-148.402c39.251,9.009,79.539-5.862,102.798-48.338
	c27.972-51.08-8.863-127.672-75.138-166.889c-51.666-30.573-110.598-37.074-156.311,3.822L201.619,152.892z"/>
</svg>
