<?xml version="1.0" encoding="utf-8"?>
<!-- Generator: Adobe Illustrator 17.0.0, SVG Export Plug-In . SVG Version: 6.00 Build 0)  -->
<!DOCTYPE svg PUBLIC "-//W3C//DTD SVG 1.1//EN" "http://www.w3.org/Graphics/SVG/1.1/DTD/svg11.dtd">
<svg version="1.1" id="Layer_1" xmlns="http://www.w3.org/2000/svg" xmlns:xlink="http://www.w3.org/1999/xlink" x="0px" y="0px"
	 width="613px" height="613px" viewBox="0 0 613 613" enable-background="new 0 0 613 613" xml:space="preserve">
<g>
	<path d="M227.38,589.677c54.162-0.074,117.24-0.301,164.411-0.426c122.58-92.05,8.593-217.258-94.227-199.133
		C388.364,458.763,309.365,571.218,227.38,589.677z"/>
	<path d="M445.284,118.259c0.013,0.867,0,1.731,0,2.602c94.385,222.174-163.095,226.056-142.517,13.727
		c-49.829,120.086-158.835-2.558-108.872-109.102v-0.002C-25.893,153,256.039,297.23,181.712,422.88
		C139.78,493.765,45.54,389.003,52.284,271.321C-7.225,422.38,36.106,530.403,113.811,588.98c2.046,0.5,30.329,0.689,69.976,0.717
		c-4.053-1.036-8.034-2.388-11.916-4.091c-25.576-11.223-40.614-72.94,34.904-105.412c-15.079,92.683,164.857,16.052,27.923-196.161
		l0.002-0.002c101.869,32.128,166.187,71.732,212.218,142.409c32.456-28.944,55.739-78.045,62.828-126.352
		c51.978,93.271,28.078,236.679-94.83,289.108c27.179-0.054,45.401-0.044,47.339,0.105
		C647.241,547.738,628.805,296.528,445.284,118.259z"/>
</g>
</svg>
