<?xml version="1.0" encoding="utf-8"?>
<!-- Generator: Adobe Illustrator 17.0.0, SVG Export Plug-In . SVG Version: 6.00 Build 0)  -->
<!DOCTYPE svg PUBLIC "-//W3C//DTD SVG 1.1//EN" "http://www.w3.org/Graphics/SVG/1.1/DTD/svg11.dtd">
<svg version="1.1" id="Layer_1" xmlns="http://www.w3.org/2000/svg" xmlns:xlink="http://www.w3.org/1999/xlink" x="0px" y="0px"
	 width="613px" height="613px" viewBox="0 0 613 613" enable-background="new 0 0 613 613" xml:space="preserve">
<path d="M600.676,432.128l0.002,0.003c-13.798-77.964-58.429-86.439-127.126-97.233c8.954-48.286,21.316-107.002,5.109-139.577
	c-20.739-41.691-63.748-38.144-90.896-23.309l52.469,28.744c-63.795-11.93-95.757-82.911-138.58-93.595
	c-59.705-14.895-89.459,66.637-122.334,123.46c-88.878-39.959-152.205-58.384-165.266,7.104
	c-29.402,147.418,231.511,230.709,372.475,251.324l12.519-29.718l67.34,43.527C548.857,509.482,609.768,483.508,600.676,432.128z"/>
</svg>
