<?xml version="1.0" encoding="utf-8"?>
<!-- Generator: Adobe Illustrator 17.0.0, SVG Export Plug-In . SVG Version: 6.00 Build 0)  -->
<!DOCTYPE svg PUBLIC "-//W3C//DTD SVG 1.1//EN" "http://www.w3.org/Graphics/SVG/1.1/DTD/svg11.dtd">
<svg version="1.1" id="Layer_1" xmlns="http://www.w3.org/2000/svg" xmlns:xlink="http://www.w3.org/1999/xlink" x="0px" y="0px"
	 width="613px" height="613px" viewBox="0 0 613 613" enable-background="new 0 0 613 613" xml:space="preserve">
<g id="Layer_1_1_">
	<path d="M266.866,381.821c47.907-73.244-37.069-135.227-89.887-55.13h-0.001C105.972,246.807,3.784,291.68,63.119,393.805
		C1.87,435.159,17.067,551.338,113.458,534.03c7.624,94.443,177.443,51.413,144.317-22.712
		C360.692,475.465,324.37,407.712,266.866,381.821z M178.163,488.446c-29.785,0-53.932-24.145-53.932-53.93
		c0-29.785,24.147-53.933,53.932-53.933s53.932,24.145,53.932,53.933C232.095,464.301,207.948,488.446,178.163,488.446z"/>
	<path d="M524.185,259.904l-0.004,0.011c31.013-93.415-51.801-154.244-105.914-59.904c-61.163-29.802-146.805,12.091-88.64,104.715
		c-58.537,79.89,28.732,138.128,84.534,104.636c42.061,73.19,136.992,6.242,107.44-52.386
		C602.05,361.451,612.361,265.14,524.185,259.904z M463.533,353.678c-23.749,13.716-54.116,5.579-67.825-18.175
		s-5.571-54.13,18.179-67.846c23.749-13.716,54.118-5.58,67.827,18.174C495.423,309.584,487.285,339.96,463.533,353.678z"/>
	<path d="M237.785,119.109c38.907-66.912-14.265-126.074-79.553-70.551C108.27-2.065,26.342,29.365,56.033,119.475
		c-74.511,26.571-3.135,154.241,49.482,111.497c51.143,75.262,97.928,31.316,106.386-20.664
		C281.31,233.11,313.786,144.393,237.785,119.109z M165.231,184.989c-24.018,6.44-48.703-7.817-55.136-31.841
		c-6.433-24.025,7.822-48.721,31.839-55.161c24.018-6.44,48.705,7.816,55.138,31.841
		C203.506,153.851,189.251,178.548,165.231,184.989z"/>
	<path d="M431.605,505.256c26.045-35.681-27.683-73.375-37.627-14.965c-28.556-36.663-69.538,5.495-24.535,32.076
		c-56.839,29.101,3.174,68.055,26.223,32.843c5.08,59.127,72.617,21.72,34.802-12.931
		C478.46,550.154,478.367,503.827,431.605,505.256z M405.216,537.608c-7.488,0-13.559-6.071-13.559-13.56
		s6.071-13.558,13.559-13.558c7.488,0,13.559,6.071,13.559,13.558C418.775,531.538,412.704,537.608,405.216,537.608z"/>
	<path d="M397.173,90.327c50.479-10.968,8.898-70.58-23.675-28.6c-0.134-41.321-63.145-34.934-39.132,15.331h0.001
		c-40.869-0.848-25.461,56.027,5.21,40.047c-16.003,49.4,48.698,57.169,40.069,5.855
		C418.235,147.278,435.685,108.472,397.173,90.327z M362.07,108.546c-7.488,0-13.559-6.071-13.559-13.56s6.071-13.558,13.559-13.558
		c7.488,0,13.559,6.071,13.559,13.558C375.629,102.475,369.558,108.546,362.07,108.546z"/>
</g>
<g id="Layer_2">
</g>
</svg>
