<?xml version="1.0" encoding="utf-8"?>
<!-- Generator: Adobe Illustrator 17.0.0, SVG Export Plug-In . SVG Version: 6.00 Build 0)  -->
<!DOCTYPE svg PUBLIC "-//W3C//DTD SVG 1.1//EN" "http://www.w3.org/Graphics/SVG/1.1/DTD/svg11.dtd">
<svg version="1.1" id="Layer_1" xmlns="http://www.w3.org/2000/svg" xmlns:xlink="http://www.w3.org/1999/xlink" x="0px" y="0px"
	 width="613px" height="613px" viewBox="0 0 613 613" enable-background="new 0 0 613 613" xml:space="preserve">
<path d="M26.861,34.372c128.559,81.409,247.452,145.266,384.905,159.789c48.656,5.14,57.151,41.762,37.859,83.792
	c-31.699,69.058,19.638,171.584,134.285,233.643c-7.151,33.452-55.362,61.612-85.057,51.723
	c-24.722-51.598-63.234-106.069-104.956-91.292c-85.338,30.224-173.219,36.651-232.89,4.122
	c79.162-10.743,154.521-31.79,220.892-64.956c-119.91,17.933-261.879,18.396-315.677-41.802
	c108.841,4.349,197.061-6.693,295.552-31.346C230.59,325.963,86.358,301.976,45.753,221.543
	c96.793,30.18,226.595,41.414,314.406,42.026C223.357,229.105,39.371,134.731,26.861,34.372L26.861,34.372z"/>
</svg>
