<?xml version="1.0" encoding="utf-8"?>
<!-- Generator: Adobe Illustrator 17.0.0, SVG Export Plug-In . SVG Version: 6.00 Build 0)  -->
<!DOCTYPE svg PUBLIC "-//W3C//DTD SVG 1.1//EN" "http://www.w3.org/Graphics/SVG/1.1/DTD/svg11.dtd">
<svg version="1.1" id="Layer_1" xmlns="http://www.w3.org/2000/svg" xmlns:xlink="http://www.w3.org/1999/xlink" x="0px" y="0px"
	 width="613px" height="613px" viewBox="0 0 613 613" enable-background="new 0 0 613 613" xml:space="preserve">
<path d="M549.113,489.189c-37.664-20.961-59.7-56.744-61.915-89.526C475.336,224.122,182.82,201.252,33.93,25.948l-0.001,0.005
	c7.725,223.373,252.948,222.296,397.375,334.255c-93.462-40.475-246.646-31.591-357.537-103.518
	c51.73,168.104,236.243,112.756,371.743,158.451c-80.694-7.881-187.109,37.693-287.718,1.652
	c88.845,140.039,204.097,46.499,315.753,47.325c-56.316,14.349-114.49,77.111-192.249,71.224
	c94.739,91.184,144.37,2.665,212.239-31.281c-6.846,8.147-11.171,18.523-11.681,29.976c-1.232,27.648,20.184,51.06,47.832,52.292
	s51.06-20.184,52.292-47.832C582.976,516.101,569.112,496.488,549.113,489.189z"/>
</svg>
