<?xml version="1.0" encoding="utf-8"?>
<!-- Generator: Adobe Illustrator 17.0.0, SVG Export Plug-In . SVG Version: 6.00 Build 0)  -->
<!DOCTYPE svg PUBLIC "-//W3C//DTD SVG 1.1//EN" "http://www.w3.org/Graphics/SVG/1.1/DTD/svg11.dtd">
<svg version="1.1" id="Layer_1" xmlns="http://www.w3.org/2000/svg" xmlns:xlink="http://www.w3.org/1999/xlink" x="0px" y="0px"
	 width="613px" height="613px" viewBox="0 0 613 613" enable-background="new 0 0 613 613" xml:space="preserve">
<polygon points="560.764,438.602 591.279,443.433 573.17,421.142 573.405,420.811 572.901,420.811 307.158,93.693 225.483,153.728 
	10.473,29.469 10.471,29.469 10.471,69.772 231.764,197.707 299.478,148.143 492.846,386.888 189.178,338.72 198.951,253.554 
	10.471,144.469 10.471,186.538 79.937,226.703 106.521,353.772 127.276,254.074 157.768,271.704 145.901,372.926 146.262,372.983 
	173.562,521.509 186.333,451.683 210.177,591.487 244.148,391.308 269.95,531.686 294.256,398.803 315.43,441.862 334.55,402.791 
	357.054,406.353 383.42,565.297 408.317,414.469 423.615,416.89 452.935,492.196 470.589,446.63 492.208,564.245 513.259,449.151 
	533.314,477.236 "/>
</svg>
