<?xml version="1.0" encoding="utf-8"?>
<!-- Generator: Adobe Illustrator 17.0.0, SVG Export Plug-In . SVG Version: 6.00 Build 0)  -->
<!DOCTYPE svg PUBLIC "-//W3C//DTD SVG 1.1//EN" "http://www.w3.org/Graphics/SVG/1.1/DTD/svg11.dtd">
<svg version="1.1" id="Layer_1" xmlns="http://www.w3.org/2000/svg" xmlns:xlink="http://www.w3.org/1999/xlink" x="0px" y="0px"
	 width="613px" height="613px" viewBox="0 0 613 613" enable-background="new 0 0 613 613" xml:space="preserve">
<path d="M560.658,226.803c-33.8,67.812-148.125,16.462-110.297-56.545c37.962-73.263-11.216-122.926-117.278-124.957
	c100.553,14.39,63.319,141.166,9.773,159.163c-47.289,15.895-71.448-7.998-62.128-43.979c14.909-57.565-30.05-83.806-67.016-75.393
	c77.87,67.076-44.604,141.662-94.939,68.415c-31.75-46.202-28.109-99.763,38.396-124.957h-0.003
	c-84.34,2.951-120.064,83.691-120.767,124.957c-2.631,154.5,183.655,79.265,187.087,154.277
	c3.735,81.651-120.06,94.364-125.655-6.283c-32.921,132.641,70.707,201.685,159.62,178.583l-0.945-0.545l-0.001-163.932
	l141.969-81.965l141.967,81.966l0.001,163.932l-141.969,81.965l-111.079-64.132c-17.223,27.881-39.263,42.999-61.818,47.758
	c101.217,58.053,235.821,62.719,310.646-14.66C612.892,451.188,609.468,321.634,560.658,226.803z"/>
<path d="M459.145,399.797c0,34.741-28.164,62.905-62.905,62.905s-62.905-28.164-62.905-62.905s28.164-62.905,62.905-62.905
	S459.145,365.056,459.145,399.797z"/>
</svg>
