<?xml version="1.0" encoding="utf-8"?>
<!-- Generator: Adobe Illustrator 17.0.0, SVG Export Plug-In . SVG Version: 6.00 Build 0)  -->
<!DOCTYPE svg PUBLIC "-//W3C//DTD SVG 1.1//EN" "http://www.w3.org/Graphics/SVG/1.1/DTD/svg11.dtd">
<svg version="1.1" id="Layer_1" xmlns="http://www.w3.org/2000/svg" xmlns:xlink="http://www.w3.org/1999/xlink" x="0px" y="0px"
	 width="613px" height="613px" viewBox="0 0 613 613" enable-background="new 0 0 613 613" xml:space="preserve">
<path d="M537.577,479.62L354.679,248.553V83.749c0,0,9.052-0.409,18.849-0.409l-0.002,0.002c9.798,0,17.451-15.945,17.451-23.833
	s-7.653-21.077-17.451-21.077h-138.92c-9.798,0-17.451,13.189-17.451,21.077s7.653,23.832,17.451,23.833l18.849,0.409v160.615
	c-61.04,77.723-184.294,235.253-184.294,235.253c-5.399,9.322-10.472,22.102-10.472,36.997c0,36.249,30.28,66.318,66.319,66.319
	h358.116c36.039,0,66.319-29.52,66.319-66.319C549.443,500.368,542.395,487.897,537.577,479.62z M483.055,561.216h-357.39
	c-24.191,0-44.517-20.228-44.517-44.613c0-10.021,3.405-18.619,7.028-24.89c0,0,146.752-188.883,187.728-241.171V149.838
	l56.383,2.096v98.983l187.319,240.797c3.234,5.567,7.966,13.957,7.966,24.89C527.571,541.358,507.245,561.216,483.055,561.216z"/>
<path d="M240.544,83.431h115.882"/>
</svg>
