<?xml version="1.0" encoding="utf-8"?>
<!-- Generator: Adobe Illustrator 17.0.0, SVG Export Plug-In . SVG Version: 6.00 Build 0)  -->
<!DOCTYPE svg PUBLIC "-//W3C//DTD SVG 1.1//EN" "http://www.w3.org/Graphics/SVG/1.1/DTD/svg11.dtd">
<svg version="1.1" id="Layer_1" xmlns="http://www.w3.org/2000/svg" xmlns:xlink="http://www.w3.org/1999/xlink" x="0px" y="0px"
	 width="613px" height="613px" viewBox="0 0 613 613" enable-background="new 0 0 613 613" xml:space="preserve">
<g>
	<polygon points="25.439,155.051 25.441,155.055 25.442,155.053 	"/>
	<path d="M384.484,102.401c42.846,30.857,4.737,47.351-42.865,41.735c39.967,22.138,64.445,51.656,33.711,78.509
		c-30.453,26.608-75.04-23.478-80.967-67.863c-9.342-69.958-16.207-106.864-108.249-102.939
		c46.635,36.648,44.941,79.462,20.605,110.555l166.343,166.343l7.647-37.332l27.045-9.471l80.17,207.998l0.002,0.001v0.003
		l-0.001-0.003l-208.293-79.856l9.796-27.372l42.34-8.677l-175.84-175.839c-42.73,15.48-96.174,8.035-130.487-43.138
		c-6.9,53.934,32.842,85.364,80.807,107.687c170.763,79.475,74.794,184.455-25.109,81.655
		c28.197,160.425,332.274,272.34,452.219,185.143C630.514,458.909,567.312,149.571,384.484,102.401z"/>
</g>
</svg>
