<?xml version="1.0" encoding="utf-8"?>
<!-- Generator: Adobe Illustrator 17.0.0, SVG Export Plug-In . SVG Version: 6.00 Build 0)  -->
<!DOCTYPE svg PUBLIC "-//W3C//DTD SVG 1.1//EN" "http://www.w3.org/Graphics/SVG/1.1/DTD/svg11.dtd">
<svg version="1.1" id="Layer_1" xmlns="http://www.w3.org/2000/svg" xmlns:xlink="http://www.w3.org/1999/xlink" x="0px" y="0px"
	 width="613px" height="613px" viewBox="0 0 613 613" enable-background="new 0 0 613 613" xml:space="preserve">
<g>
	<path d="M334.296,424.328c-4.282-3.689-8.51-7.604-12.653-11.746c-47.269-47.267-65.616-105.548-40.984-130.177
		c24.631-24.629,82.913-6.284,130.183,40.983c4.002,4.002,7.791,8.084,11.37,12.216l-77.586-200.577l-27.855,58.794
		c-28.659-61.389-65.78-140.452-65.78-140.452l24.244,153.167L87.025,18.391l-66.61-0.898l-0.916,68.42l192.548,192.464
		L51.399,252.95c0,0,77.833,36.517,139.013,65.075l-56.577,27.788L334.296,424.328z"/>
	<path d="M560.589,563.75l-60.761-175.197l51.276,42.487l-20.84-118.914l-51.846,56.081l-28.232,7.05l-40.163-21.926l-59.85,59.85
		l21.925,40.161l-7.025,28.134l-55.04,50.883l118.914,20.84l-37.929-48.258L560.589,563.75z M424.144,471.822l44.523-44.523
		C551.188,511.224,508.176,554.453,424.144,471.822z"/>
</g>
</svg>
