<?xml version="1.0" encoding="utf-8"?>
<!-- Generator: Adobe Illustrator 17.0.0, SVG Export Plug-In . SVG Version: 6.00 Build 0)  -->
<!DOCTYPE svg PUBLIC "-//W3C//DTD SVG 1.1//EN" "http://www.w3.org/Graphics/SVG/1.1/DTD/svg11.dtd">
<svg version="1.1" id="Layer_1" xmlns="http://www.w3.org/2000/svg" xmlns:xlink="http://www.w3.org/1999/xlink" x="0px" y="0px"
	 width="613px" height="613px" viewBox="0 0 613 613" enable-background="new 0 0 613 613" xml:space="preserve">
<g>
	<polygon points="342.281,18.194 342.285,18.195 342.279,18.189 	"/>
	<path d="M512.614,155.715c57.658,93.726-23.768,139.358-46.074,102.62c-45.537-75.001,83.916-182.367-124.255-240.14
		c42.723,43.496,43.216,113.179-2.269,134.801c-49.427,23.494-118.88-6.724-87.092-89.431
		C164.273,117.553,146.261,207,176.834,293.233c-36.209-28.105-108.028-80.698-57.243-140.314
		c-68.131,13.564-85.881,71.56-50.262,108.204c58.842,60.533,15.561,142.108-33.508,55.847
		C6.607,464.108,219.57,497.059,221.511,593.413h22.158c-10.036-82.088-74.71-129.293-144.132-187.028L135.7,294.751
		c0.168,1.269,0.34,2.52,0.513,3.767c0.192-5.485,0.592-10.579,1.175-15.131c3.699,25.146,12.066,86.5,50.118,129.108
		c24.797-4.994,46.185-75.673,38.603-186.925l105.331-37.73c0.004-0.003,0.008-0.005,0.012-0.008l0.002,0.003l-0.014,0.005
		c-77.041,52.438-93.389,140.509-47.158,184.74l53.458-124.212l102.2-26.729c-77.546,49.423-126.534,114.358-87.264,172.954
		l69.182-96.699l125.785,18.868C397.906,342.79,359.728,438.619,340.098,527.451c3.711,21.02,12.795,43.343,24.221,65.963h16.355
		c-54.713-148.272,160.786-159.43,194.068-249.216C606.807,257.696,583.579,213.4,512.614,155.715z"/>
</g>
</svg>
