<?xml version="1.0" encoding="utf-8"?>
<!-- Generator: Adobe Illustrator 17.0.0, SVG Export Plug-In . SVG Version: 6.00 Build 0)  -->
<!DOCTYPE svg PUBLIC "-//W3C//DTD SVG 1.1//EN" "http://www.w3.org/Graphics/SVG/1.1/DTD/svg11.dtd">
<svg version="1.1" id="Layer_1" xmlns="http://www.w3.org/2000/svg" xmlns:xlink="http://www.w3.org/1999/xlink" x="0px" y="0px"
	 width="613px" height="613px" viewBox="0 0 613 613" enable-background="new 0 0 613 613" xml:space="preserve">
<path d="M592.933,323.3c-79.359-135.953-156.942-181.855-233.44-172.856l-32.204-71.772l-29.825,85.199l-60.205-35.643l-0.952,75.36
	l-55.663,2.122l14.975,36.516c-20.917,19.413-41.789,41.107-62.631,64.338L22.041,252.348l53.64,90.748l-43.576,46.709l43.339,3.343
	l-48.372,71.573l129.193-77.599l104.646,50.828l-59.478,20.794l42.508,16.481l-38.921,26.584l62.367,1.162l-5.518,55.964
	l70.909-86.078l0,0.002c2.536-0.048,5.041-0.123,7.529-0.209c0.337-0.012,0.674-0.023,1.01-0.035
	c2.452-0.091,4.883-0.198,7.29-0.325c0.221-0.012,0.441-0.025,0.662-0.037c2.363-0.128,4.705-0.272,7.024-0.435
	c0.146-0.01,0.295-0.019,0.441-0.03c2.368-0.168,4.711-0.356,7.034-0.559c0.326-0.029,0.651-0.058,0.977-0.087
	c4.677-0.419,9.262-0.908,13.757-1.462c0.269-0.033,0.539-0.065,0.807-0.099c2.215-0.278,4.409-0.571,6.581-0.881
	c0.229-0.033,0.456-0.067,0.685-0.1c2.191-0.316,4.363-0.646,6.51-0.993c0.022-0.004,0.045-0.007,0.067-0.011
	c2.161-0.35,4.296-0.72,6.414-1.101c0.273-0.049,0.545-0.099,0.817-0.148c2.113-0.385,4.207-0.783,6.276-1.199
	c0.012-0.002,0.023-0.005,0.035-0.007c2.084-0.419,4.142-0.854,6.181-1.302c0.174-0.038,0.348-0.075,0.522-0.114
	c2.013-0.445,4.004-0.905,5.974-1.378c0.195-0.047,0.388-0.094,0.582-0.141c3.984-0.964,7.881-1.983,11.693-3.053
	c0.191-0.054,0.382-0.107,0.572-0.161c1.913-0.541,3.808-1.094,5.678-1.661c0.021-0.006,0.042-0.013,0.063-0.019
	c1.912-0.58,3.8-1.174,5.667-1.779c0.052-0.017,0.105-0.033,0.157-0.05c1.841-0.598,3.659-1.21,5.457-1.832
	c0.13-0.045,0.26-0.09,0.39-0.136c3.607-1.253,7.128-2.554,10.565-3.897c0.092-0.036,0.185-0.072,0.277-0.108
	c5.268-2.066,10.337-4.232,15.215-6.486c0.05-0.023,0.099-0.046,0.149-0.069c94.43-43.682,117.099-119.653,117.099-119.653l-0.002,0
	L592.933,323.3z M431.415,279.728c5.469-20.41,26.444-32.521,46.854-27.052c3.66,0.981,7.048,2.468,10.121,4.353
	c-0.179-0.004-0.354-0.026-0.534-0.026c-11.861,0-21.476,9.309-21.476,20.794c0,11.484,9.615,20.794,21.476,20.794
	c8.055,0,15.065-4.301,18.74-10.653c0.168,3.811-0.233,7.712-1.273,11.593c-5.468,20.41-26.447,32.52-46.857,27.051
	C438.059,321.114,425.946,300.138,431.415,279.728z"/>
</svg>
