<?xml version="1.0" encoding="utf-8"?>
<!-- Generator: Adobe Illustrator 17.0.0, SVG Export Plug-In . SVG Version: 6.00 Build 0)  -->
<!DOCTYPE svg PUBLIC "-//W3C//DTD SVG 1.1//EN" "http://www.w3.org/Graphics/SVG/1.1/DTD/svg11.dtd">
<svg version="1.1" id="Layer_1" xmlns="http://www.w3.org/2000/svg" xmlns:xlink="http://www.w3.org/1999/xlink" x="0px" y="0px"
	 width="613px" height="613px" viewBox="0 0 613 613" enable-background="new 0 0 613 613" xml:space="preserve">
<path d="M587.078,230.401c-51.214-32.919-102.029-52.844-156.28-50.158c-0.852-57.385-20.997-108.334-50.16-156.278
	C334.26,53.89,287.046,82.839,259.06,134.224c-53.472-29.039-106.946-37.138-160.42-34.7
	c-0.035,53.472,6.532,106.943,34.701,160.418c-53.408,32.201-81.405,77.107-110.262,121.58
	c49.838,27.992,100.232,53.207,156.279,50.158c2.008,52.092,23.07,104.181,50.16,156.278
	c47.112-31.487,90.156-66.225,121.578-110.265c50.021,28.831,104.1,37.361,160.42,34.702v0.005
	c2.516-57.701-5.737-112.168-34.701-160.423C525.1,326.276,560.875,284.491,587.078,230.401z M307.547,403.176
	c-55.855,0-101.134-45.281-101.134-101.136s45.28-101.136,101.134-101.136c55.855,0,101.134,45.281,101.134,101.136
	C408.681,357.897,363.401,403.176,307.547,403.176z"/>
</svg>
