<?xml version="1.0" encoding="utf-8"?>
<!-- Generator: Adobe Illustrator 17.0.0, SVG Export Plug-In . SVG Version: 6.00 Build 0)  -->
<!DOCTYPE svg PUBLIC "-//W3C//DTD SVG 1.1//EN" "http://www.w3.org/Graphics/SVG/1.1/DTD/svg11.dtd">
<svg version="1.1" id="Layer_1" xmlns="http://www.w3.org/2000/svg" xmlns:xlink="http://www.w3.org/1999/xlink" x="0px" y="0px"
	 width="613px" height="613px" viewBox="0 0 613 613" enable-background="new 0 0 613 613" xml:space="preserve">
<path d="M515.758,257.546l-73.291,28.872l17.167-49.713l-26.598,13.885c-13.989-78.859-24.291-157.717-18.667-236.576
	c-29.162,39.555-54.472,88.2-72.445,137.289h-94.089C225.709,99.757,196.93,54.697,168.25,9.537
	c5.019,84.753,2.031,163.954-4.356,241.923l-28.264-14.755l17.167,49.713l-73.291-28.872l63.359,64.646L93.55,325.53
	c36.517,23.394,81.935,38.725,108.43,71.202c33.217,47.406,51.713,95.174,53.489,185.972c27.206,12.713,61.052,12.026,85.573,0
	c5.812-92.958,17.913-134.834,50.978-184.391c26.295-33.568,72.589-49.013,109.694-72.783l-49.315-3.338L515.758,257.546z
	 M257.911,414.414c3.308-48.37-18.108-76.348-62.041-86.656c19.636-22.821,41.478-20.134,63.138,2.363v0.001
	C280.545,352.492,276.593,387.09,257.911,414.414z M338.652,414.414c-17.58-27.325-20.14-61.922,2.299-84.292l0.002-0.001
	c21.519-21.45,42.47-24.873,60.598-5.365l-0.832,3.864C358.668,339.569,337.328,367.325,338.652,414.414z"/>
</svg>
