<?xml version="1.0" encoding="utf-8"?>
<!-- Generator: Adobe Illustrator 17.0.0, SVG Export Plug-In . SVG Version: 6.00 Build 0)  -->
<!DOCTYPE svg PUBLIC "-//W3C//DTD SVG 1.1//EN" "http://www.w3.org/Graphics/SVG/1.1/DTD/svg11.dtd">
<svg version="1.1" id="Layer_1" xmlns="http://www.w3.org/2000/svg" xmlns:xlink="http://www.w3.org/1999/xlink" x="0px" y="0px"
	 width="613px" height="613px" viewBox="0 0 613 613" enable-background="new 0 0 613 613" xml:space="preserve">
<path d="M592.431,27.011c-0.002,0.001-0.003,0.003-0.005,0.004c0-0.001,0-0.001,0-0.002l-0.068,0.06
	c-54.05,46.11-104.44,87.253-137.724,114.065c-22.035-16.354-48.041-27.654-76.307-32.201l-67.341-72.216l25.204,70.536
	c-1.477,0.117-2.949,0.253-4.416,0.407L228.321,25.36l36.022,77.654L122.646,26.946l70.826,92.991L45.332,31.206l121.966,160.99
	L63.965,133.249l83.282,106.873l-49.119-19.229l78.378,84.138c3.302,25.129,11.929,48.577,24.706,69.184l-8.539,7.59l-33.58-37.865
	l-69.486,61.628l38.488,43.399l-58.405,51.8l-12.695-5.032l2.869,13.747l-43.257,38.365c-4.446,29.607,12.82,49.474,43.918,49.521
	l14.92-13.233l2.073,9.93l74.386-60.707l-13.274-5.262l33.383-29.608l37.161,41.903l69.486-61.628l-32.155-36.258l12.345-10.957
	c26.619,16.306,57.924,25.711,91.428,25.711c96.808,0,175.282-78.476,175.282-175.283c0-25.922-5.632-50.527-15.731-72.666
	l52.585-46.871C607.794,122.189,598.626,89.847,592.431,27.011z"/>
</svg>
