<?xml version="1.0" encoding="utf-8"?>
<!-- Generator: Adobe Illustrator 17.0.0, SVG Export Plug-In . SVG Version: 6.00 Build 0)  -->
<!DOCTYPE svg PUBLIC "-//W3C//DTD SVG 1.1//EN" "http://www.w3.org/Graphics/SVG/1.1/DTD/svg11.dtd">
<svg version="1.1" id="Layer_1" xmlns="http://www.w3.org/2000/svg" xmlns:xlink="http://www.w3.org/1999/xlink" x="0px" y="0px"
	 width="613px" height="613px" viewBox="0 0 613 613" enable-background="new 0 0 613 613" xml:space="preserve">
<g>
	<path d="M439.319,471.377H515.4v-34.834c23.607-8.362,47.216-23.352,70.824-43.886c-23.683-20.948-46.892-32.628-70.824-38.226
		v-35.558H236.194v24.308H129.897c19.12,46.391,61.256,78.224,106.297,88.804v39.392h70.022
		c-16.642,41.952-47.925,75.378-83.527,104.217h306.219C486.464,546.773,455.211,513.381,439.319,471.377z"/>
	<polygon points="284.571,298.198 343.49,271.671 317.982,187.579 251.263,122.03 213.021,139.248 233.198,205.777 20.665,301.45 
		35.66,334.76 248.206,239.082 	"/>
	<polygon points="431.909,296.202 583.765,235.311 499.126,232.96 556.224,150.848 468.419,197.789 494.097,83.553 402.761,228.847 
		392.88,189.771 356.751,296.12 431.672,261.014 	"/>
</g>
</svg>
