<?xml version="1.0" encoding="utf-8"?>
<!-- Generator: Adobe Illustrator 17.0.0, SVG Export Plug-In . SVG Version: 6.00 Build 0)  -->
<!DOCTYPE svg PUBLIC "-//W3C//DTD SVG 1.1//EN" "http://www.w3.org/Graphics/SVG/1.1/DTD/svg11.dtd">
<svg version="1.1" id="Layer_1" xmlns="http://www.w3.org/2000/svg" xmlns:xlink="http://www.w3.org/1999/xlink" x="0px" y="0px"
	 width="613px" height="613px" viewBox="0 0 613 613" enable-background="new 0 0 613 613" xml:space="preserve">
<path d="M407.221,46.352c-29.193-9.086-68.756-4.892-81.674,23.732c-18.756-24.935-57.214-16.71-65.973,11.775
	c-8.759,28.482,16.093,59.138,53.408,58.034c-3.679,40.617,52.956,65.369,97.732,46.772c-0.566,23.078,9.937,50.028,36.3,53.752
	c-7.642,21.649,3.713,50.262,34.205,50.262c37.619,0,45.451-43.409,25.131-63.526c11.323-12.421,15.34-30.08,13.265-46.772
	c20.659,14.466,41.345-7.796,40.362-24.005c-1.812-29.846-24.343-42.992-40.362-29.044c-10.518-33.009-44.516-38.258-62.828-19.546
	c1.613-8.876,0.239-15.663-6.281-23.037c27.021-6.814,22.607-45.062,5.594-56.065c-20.802-13.452-42.383-4.401-48.875,17.668
	L407.221,46.352L407.221,46.352z"/>
<path d="M516.077,374.587c-42.497,0-42.16-64.355,0-64.355S558.574,374.587,516.077,374.587z"/>
<path d="M569.471,248.834c-27.352,0-27.133-41.421,0-41.421S596.823,248.834,569.471,248.834z"/>
<path d="M518.575,69.934c-27.352,0-27.133-41.421,0-41.421S545.927,69.934,518.575,69.934z"/>
<path d="M212.373,130.874c-27.352,0-27.133-41.421,0-41.421S239.726,130.874,212.373,130.874z"/>
<path d="M285.093,181.804v0.003L219.48,295.456L38.432,398.794C7.096,416.881,1.763,451.93,30.551,482.52
	c55.725,59.22,124.634,95.597,202.308,116.804c41.42,11.303,66.947-6.632,66.947-47.246l0.252-209.308l65.957-114.243
	L285.093,181.804z M222.223,550.543c-60.661-20.719-197.367-95.891-144.911-126.176l163.159-94.5L222.223,550.543z"/>
<path d="M303.435,191.561l-34.582,64.289"/>
</svg>
