<?xml version="1.0" encoding="utf-8"?>
<!-- Generator: Adobe Illustrator 17.0.0, SVG Export Plug-In . SVG Version: 6.00 Build 0)  -->
<!DOCTYPE svg PUBLIC "-//W3C//DTD SVG 1.1//EN" "http://www.w3.org/Graphics/SVG/1.1/DTD/svg11.dtd">
<svg version="1.1" id="Layer_1" xmlns="http://www.w3.org/2000/svg" xmlns:xlink="http://www.w3.org/1999/xlink" x="0px" y="0px"
	 width="613px" height="613px" viewBox="0 0 613 613" enable-background="new 0 0 613 613" xml:space="preserve">
<path display="none" d="M395.062,476.945c-18.361,68.522-88.794,109.187-157.316,90.826s-109.187-88.794-90.826-157.316
	s88.794-109.187,157.316-90.826C372.758,337.989,413.423,408.423,395.062,476.945z"/>
<path display="none" d="M395.062,476.945c-18.361,68.522-88.794,109.187-157.316,90.826s-109.187-88.794-90.826-157.316
	s88.794-109.187,157.316-90.826C372.758,337.989,413.423,408.423,395.062,476.945z"/>
<path display="none" d="M395.062,476.945c-18.361,68.522-88.794,109.187-157.316,90.826s-109.187-88.794-90.826-157.316
	s88.794-109.187,157.316-90.826C372.758,337.989,413.423,408.423,395.062,476.945z"/>
<path d="M601.145,210.154L601.145,210.154L601.145,210.154c-94.219-48.306-184.76-18.931-250.693,41.167
	c-20.469-17.617-47.103-28.268-76.227-28.268c-6.392,0-12.662,0.521-18.775,1.508c-28.437-94.69-93.435-182.025-191.995-208.714
	v-0.001c-91.499,176.169-61.438,333.233,72.089,354.727c-43.047,38.183-65.508,87.84-63.645,139.959
	c72.78,22.815,125.039,4.941,157.845-35.201c-63.643-21.512-100.458-89.075-82.824-154.884
	c11.207-41.826,41.825-73.25,79.559-87.227c-40.768,18.263-69.172,59.189-69.172,106.751c0,64.571,52.347,116.918,116.918,116.918
	s116.918-52.344,116.918-116.918c0-28.377-10.113-54.39-26.927-74.64c29.651,31.342,42.831,76.876,30.846,121.607
	c-17.478,65.227-82.14,105.208-147.422,93.066c4.327,58.128,36.816,105.894,107.57,120.684
	c26.581-41.012,32.59-90.184,16.665-151.394c116.778,76.249,217.373-31.887,229.273-239.14H601.145z"/>
</svg>
