<?xml version="1.0" encoding="utf-8"?>
<!-- Generator: Adobe Illustrator 17.0.0, SVG Export Plug-In . SVG Version: 6.00 Build 0)  -->
<!DOCTYPE svg PUBLIC "-//W3C//DTD SVG 1.1//EN" "http://www.w3.org/Graphics/SVG/1.1/DTD/svg11.dtd">
<svg version="1.1" id="Layer_1" xmlns="http://www.w3.org/2000/svg" xmlns:xlink="http://www.w3.org/1999/xlink" x="0px" y="0px"
	 width="613px" height="613px" viewBox="0 0 613 613" enable-background="new 0 0 613 613" xml:space="preserve">
<g>
	<path d="M446.588,207.329c27.833-65.93,78.194,11.52,63.233,67.357c-11.64,43.448-50.39,70.406-105.547,34.931l0.001-0.002
		c-126.769-81.534-93.73-121.452-157.946-188.059c22.003,92.992-43.251,34.043-102.143-41.026
		c16.97-10.153,35.973-17.291,56.398-20.905l131.86,88.863l24.604-51.506c3.452,2.229,6.904,4.545,10.353,6.974
		c71.659,50.452,63.601-68.738,85.194-93.344L12.145,9.704l2.169,430.81c46.864,32.742,125.477-8.955,93.715-61.607
		c-2.268-3.76-4.437-7.507-6.522-11.243l36.046-21.38L63.699,214.868c1.68-19.761,6.152-38.227,13.019-55.059
		c85.958,88.37,220.167,227.509,99.662,200.386c36.577,34.226,164.393,59.589,178.796,117.25
		c11.957,47.87-30.514,85.914-66.671,85.914c-48.549,0-98.984-38.866-53.611-83.853c-28.813,4.79-42.542,25.107-43.3,48.113
		s11.578,48.745,35.054,64.607h362.214v-389.02C580.413,132.131,444.027,102.513,446.588,207.329z"/>
	<polygon points="12.145,9.704 12.145,9.704 12.145,9.701 	"/>
</g>
</svg>
