<?xml version="1.0" encoding="utf-8"?>
<!-- Generator: Adobe Illustrator 17.0.0, SVG Export Plug-In . SVG Version: 6.00 Build 0)  -->
<!DOCTYPE svg PUBLIC "-//W3C//DTD SVG 1.1//EN" "http://www.w3.org/Graphics/SVG/1.1/DTD/svg11.dtd">
<svg version="1.1" id="Layer_1" xmlns="http://www.w3.org/2000/svg" xmlns:xlink="http://www.w3.org/1999/xlink" x="0px" y="0px"
	 width="613px" height="613px" viewBox="0 0 613 613" enable-background="new 0 0 613 613" xml:space="preserve">
<g>
	<polygon points="371.267,119.202 371.268,119.203 371.268,119.202 	"/>
	<path d="M514.995,217.98l-32.343,32.343l-24.075-24.075c-8.035-8.038-20.297-8.685-34.516-4.561l-25.282-25.282l24.845-24.845
		l-52.357-52.357l-24.845,24.845l-25.382-25.383c4.203-14.318,3.519-26.434-4.562-34.514L143.778,34.063l40.301,182.487
		c9.002,9.003,20.849,10.557,34.502,6.943l24.198,24.198L25.716,464.755v104.713l269.421-269.421l24.098,24.098
		c-3.491,13.508-1.979,25.58,6.943,34.502l24.075,24.075L307.975,425l60.135,60.135l207.02-207.02L514.995,217.98z"/>
</g>
</svg>
