<?xml version="1.0" encoding="utf-8"?>
<!-- Generator: Adobe Illustrator 17.0.0, SVG Export Plug-In . SVG Version: 6.00 Build 0)  -->
<!DOCTYPE svg PUBLIC "-//W3C//DTD SVG 1.1//EN" "http://www.w3.org/Graphics/SVG/1.1/DTD/svg11.dtd">
<svg version="1.1" id="Layer_1" xmlns="http://www.w3.org/2000/svg" xmlns:xlink="http://www.w3.org/1999/xlink" x="0px" y="0px"
	 width="613px" height="613px" viewBox="0 0 613 613" enable-background="new 0 0 613 613" xml:space="preserve">
<path d="M305.045,191.379c-155.73,0-281.974,85.718-281.974,191.451s126.244,191.448,281.974,191.448
	s281.974-85.715,281.974-191.448C587.019,277.094,460.775,191.379,305.045,191.379z M305.047,555.975
	c-130.356,0-236.03-71.749-236.03-160.254s105.674-160.257,236.03-160.257s236.03,71.749,236.03,160.257
	C541.077,484.226,435.403,555.975,305.047,555.975z"/>
<path d="M58.254,294.665c22.182-49.875,31.699-99.78,28.028-149.717c22.915,29.846,43.096,60.641,37.6,99.125"/>
<path d="M304.646,94.296c-26.342,12.268-29.581,38.471-19.546,68.415c22.966,68.538-67.791-12.113-64.224-67.016L193.65,211.574
	l216.359-6.875c-66.954-5.942-128.412-67.608-105.365-110.404L304.646,94.296L304.646,94.296z"/>
<path d="M373.34,20.078c6.092,63.37-91.66,85.987,4.562,156.584C352.797,95.553,425.661,79.914,373.34,20.078z"/>
<path d="M116.699,246.427c37.373-45.485,53.025-98.266,49.306-174.805c32.641,26.844,36.162,88.496,33.977,133.495"/>
<path d="M433.793,74.526c-32.641,26.844-35.691,88.332-33.508,133.334l184.242,150.443c-9.552-42.539-12.436-68.9-2.683-81.45
	c14.435-18.576,13.955-47.066-2.85-74.578c-9.034,57.45-46.733,35.998-75.393-64.224
	C470.178,251.586,417.219,132.813,433.793,74.526L433.793,74.526z"/>
<path d="M76.351,446.398c23.721,11.51,35.331,0.736,47.316-9.334c5.348,15.415,4.427,32.333,3.302,49.302
	c24.242,1.922,47.338,0.379,50.224-35.709c24.412,35.99-19.285,56.608,11.408,76.083c17.404,11.049,43.12-31.834,46.623-67.098
	c4.698,37.877-9.664,78.387,39.582,99.292l-149.455-36.429L76.351,446.398z"/>
<path d="M526.076,459.661c-25.611,31.433-39.64-12.756-41.816-39.927c-19.267,24.613-0.681,70.427-20.8,89.72
	c-2.542-12.244-14.315-27.449-30.311-36.758c2.757,29.03-6.248,56.539-44.767,75.532l74.625-20.048L526.076,459.661z"/>
<path d="M403.414,541.724c-41.398,12.356-58.565-31.348-65.01-63.373c-5.051,41.98-20.547,73.457-65.754,77.362l76.7,3.188
	L403.414,541.724z"/>
</svg>
