<?xml version="1.0" encoding="utf-8"?>
<!-- Generator: Adobe Illustrator 17.0.0, SVG Export Plug-In . SVG Version: 6.00 Build 0)  -->
<!DOCTYPE svg PUBLIC "-//W3C//DTD SVG 1.1//EN" "http://www.w3.org/Graphics/SVG/1.1/DTD/svg11.dtd">
<svg version="1.1" id="Layer_1" xmlns="http://www.w3.org/2000/svg" xmlns:xlink="http://www.w3.org/1999/xlink" x="0px" y="0px"
	 width="613px" height="613px" viewBox="0 0 613 613" enable-background="new 0 0 613 613" xml:space="preserve">
<path d="M513.925,77.676l-0.002,0.005c-12.385-10.651-26.565-19.71-42.044-27.388c-123.825-61.41-298.311,3.359-389.962,144.645
	c-1.13,1.745-1.99,3.65-3.085,5.399c0.543-0.476,1.003-1.072,1.544-1.543C32.26,266.91,38.32,361.941,99.276,422.897
	c65.209,65.21,169.441,67.711,237.99,8.1c-5.589,7.862-11.853,15.711-18.901,22.756c-68.133,68.133-178.727,68.133-246.86,0
	c-21.291-21.292-35.987-46.294-43.971-73.287c3.498,78.417,41.796,146.737,112.245,181.674
	c123.826,61.41,299.082-3.36,390.732-144.645C610.707,293.87,600.623,152.233,513.925,77.676z M477.519,197.276
	c-4.401,71.41-82.199,151.398-173.822,178.78c-1.13,0.337-2.265,0.515-3.389,0.833l1.148-0.577
	c-45.234,15.201-88.564-0.844-100.937-40.189c-13.236-42.088,13.745-95.492,60.478-122.253c-5.229,1.774-10.638,3.891-15.876,6.516
	c-50.651,25.39-99.481,81.688-85.651,125.665c4.322,13.742,12.181,24.635,22.797,32.38c-36.162-12.478-57.772-41.27-55.637-81.919
	c4.401-84.67,99.457-159.366,191.079-186.751c80.169-23.96,146.361,8.069,158.214,62.372l-0.001,0.004
	C477.615,179.896,478.071,188.35,477.519,197.276z"/>
<path d="M292.141,218.445c12.722,10.538,8.035,31.507-10.472,46.837c-18.507,15.329-43.823,19.211-56.544,8.674
	s-8.035-31.507,10.472-46.837C254.104,211.79,279.42,207.908,292.141,218.445z"/>
</svg>
