<?xml version="1.0" encoding="utf-8"?>
<!-- Generator: Adobe Illustrator 17.0.0, SVG Export Plug-In . SVG Version: 6.00 Build 0)  -->
<!DOCTYPE svg PUBLIC "-//W3C//DTD SVG 1.1//EN" "http://www.w3.org/Graphics/SVG/1.1/DTD/svg11.dtd">
<svg version="1.1" id="Layer_1" xmlns="http://www.w3.org/2000/svg" xmlns:xlink="http://www.w3.org/1999/xlink" x="0px" y="0px"
	 width="612px" height="612px" viewBox="0 0 612 612" enable-background="new 0 0 612 612" xml:space="preserve">
<g transform="matrix(15 0 0 15 -1064 -3284)">
	<path d="M91.333,220.208c-4.184,20.132-16.734,22.141,0,36.233C108.068,242.349,95.517,240.34,91.333,220.208z M80.874,232.274
		c-2.092,6.039-6.275,10.097-6.275,16.137c0,6.039,8.367,10.048,14.643,10.048C76.691,248.392,80.874,242.339,80.874,232.274z
		 M101.792,232.274c0,10.066,4.184,16.119-8.367,26.185c6.275,0,14.643-4.009,14.643-10.048
		C108.068,242.371,103.884,238.313,101.792,232.274z"/>
</g>
</svg>
