<?xml version="1.0" encoding="utf-8"?>
<!-- Generator: Adobe Illustrator 17.0.0, SVG Export Plug-In . SVG Version: 6.00 Build 0)  -->
<!DOCTYPE svg PUBLIC "-//W3C//DTD SVG 1.1//EN" "http://www.w3.org/Graphics/SVG/1.1/DTD/svg11.dtd">
<svg version="1.1" id="Layer_1" xmlns="http://www.w3.org/2000/svg" xmlns:xlink="http://www.w3.org/1999/xlink" x="0px" y="0px"
	 width="612px" height="612px" viewBox="0 0 612 612" enable-background="new 0 0 612 612" xml:space="preserve">
<g>
	<path d="M574.751,167.76l-6.439-12.613c-7.112-13.932-24.163-19.46-38.088-12.352l-113.199,57.801
		c-6.037,3.083-10.492,8.037-13.025,13.794c-1.483,1.949-2.74,4.119-3.706,6.497l-27.759,68.292l-9.833-14.028l-59.703-102.407
		V57.44c0-15.641-12.672-28.322-28.307-28.322h-14.155c-15.633,0-28.307,12.679-28.307,28.323v127.167
		c0,6.459,2.165,12.409,5.803,17.174c0.171,0.321,0.342,0.642,0.527,0.959l51.081,87.618l-87.613,61.479l7.294-58.32
		c1.234-9.864-2.764-19.171-9.82-25.148l-79.189-97.87c-9.835-12.158-27.661-14.035-39.812-4.192l-11,8.912
		c-12.151,9.84-14.026,27.675-4.189,39.833l71.459,88.316l-13.45,107.54c-0.682,5.456,0.241,10.74,2.391,15.388
		c0.759,3.665,2.258,7.24,4.543,10.499l48.761,69.566c0.396,0.564,0.814,1.102,1.242,1.629c2.405,7.018,7.538,13.09,14.786,16.479
		l115.143,53.844c0.294,0.137,0.591,0.261,0.887,0.388c9.437,6.43,22.242,6.74,32.156-0.193l104.177-72.85
		c12.814-8.961,15.943-26.619,6.986-39.44l-8.109-11.608c-8.957-12.821-26.605-15.951-39.419-6.99l-83.762,58.574l-56.738-26.532
		l137.487-96.476c3.318-2.329,5.978-5.244,7.951-8.503c2.579-2.589,4.699-5.722,6.162-9.32l43.982-108.204l100.47-51.301
		C576.342,198.748,581.863,181.69,574.751,167.76z"/>
	<ellipse cx="90.833" cy="521.142" rx="71.711" ry="71.719"/>
</g>
</svg>
