<?xml version="1.0" encoding="utf-8"?>
<!-- Generator: Adobe Illustrator 17.0.0, SVG Export Plug-In . SVG Version: 6.00 Build 0)  -->
<!DOCTYPE svg PUBLIC "-//W3C//DTD SVG 1.1//EN" "http://www.w3.org/Graphics/SVG/1.1/DTD/svg11.dtd">
<svg version="1.1" id="Layer_1" xmlns="http://www.w3.org/2000/svg" xmlns:xlink="http://www.w3.org/1999/xlink" x="0px" y="0px"
	 width="613px" height="613px" viewBox="0 0 613 613" enable-background="new 0 0 613 613" xml:space="preserve">
<path d="M72.193,42.503c0,239.641,44.541,416.931,235.638,527.262c186.591-107.729,236.263-286.96,236.263-527.262
	C390.336,69.982,235.111,73.257,72.193,42.503z M295.347,503.636c-69.755-2.43-192.12-205.795-94.721-317.102v0.002
	c-19.2,111.957,39.31,120.198,67.707,77.113c27.11-41.13-31.12-118.179,75.386-149.948
	c-56.977,69.603,47.217,253.399,72.268,124.491C489.899,387.976,368.618,506.192,295.347,503.636z"/>
<path d="M378.067,411.092c0,54.502-32.2,98.689-71.923,98.689s-71.923-44.182-71.923-98.689s32.2-98.689,71.923-98.689
	S378.067,356.585,378.067,411.092z"/>
</svg>
