<?xml version="1.0" encoding="utf-8"?>
<!-- Generator: Adobe Illustrator 17.0.0, SVG Export Plug-In . SVG Version: 6.00 Build 0)  -->
<!DOCTYPE svg PUBLIC "-//W3C//DTD SVG 1.1//EN" "http://www.w3.org/Graphics/SVG/1.1/DTD/svg11.dtd">
<svg version="1.1" id="Layer_1" xmlns="http://www.w3.org/2000/svg" xmlns:xlink="http://www.w3.org/1999/xlink" x="0px" y="0px"
	 width="613px" height="613px" viewBox="0 0 613 613" enable-background="new 0 0 613 613" xml:space="preserve">
<g>
	<path d="M304.867,29.543c-151.156,0-273.691,122.536-273.691,273.687s122.539,273.687,273.691,273.687
		S578.554,454.386,578.554,303.23C578.554,152.079,456.022,29.543,304.867,29.543z M304.836,556.009
		c-139.662,0-252.881-113.22-252.881-252.881S165.174,50.247,304.836,50.247s252.881,113.22,252.881,252.881
		S444.498,556.009,304.836,556.009z"/>
	<polygon points="489.477,323.656 414.565,343.728 385.031,317.953 399.699,303.285 386.01,289.596 414.978,264.317 488.66,283.672 
		438,244.226 495.775,193.808 423.676,218.479 415.045,153.245 394.93,228.315 357.494,241.125 351.978,220.54 331.853,225.932 
		324.417,188.069 379.523,132.963 318.546,158.174 303.825,83.21 289.042,158.485 229.765,134.422 283.175,188.361 275.838,225.722 
		256.501,220.541 251.057,240.86 214.751,228.437 194.656,153.44 186.034,218.61 114.003,193.963 171.766,244.371 121.041,283.868 
		194.819,264.488 222.974,289.058 208.746,303.286 223.952,318.492 195.232,343.556 120.223,323.458 172.359,363.516 114.738,413.8 
		187.546,388.887 196.369,452.423 216.43,379.003 251.441,367.023 256.501,385.909 275.847,380.725 283.167,418.001 
		229.765,471.932 289.034,447.873 303.825,523.193 318.555,448.184 379.523,473.391 324.425,418.293 331.844,380.516 
		351.977,385.911 357.109,366.758 393.249,379.125 413.331,452.621 422.163,389.019 495.041,413.956 437.409,363.662 	"/>
	<polygon points="379.526,132.96 379.523,132.963 379.526,132.962 	"/>
	<polygon points="379.526,473.392 379.523,473.391 379.526,473.394 	"/>
</g>
</svg>
