<?xml version="1.0" encoding="utf-8"?>
<!-- Generator: Adobe Illustrator 17.0.0, SVG Export Plug-In . SVG Version: 6.00 Build 0)  -->
<!DOCTYPE svg PUBLIC "-//W3C//DTD SVG 1.1//EN" "http://www.w3.org/Graphics/SVG/1.1/DTD/svg11.dtd">
<svg version="1.1" id="Layer_1" xmlns="http://www.w3.org/2000/svg" xmlns:xlink="http://www.w3.org/1999/xlink" x="0px" y="0px"
	 width="613px" height="613px" viewBox="0 0 613 613" enable-background="new 0 0 613 613" xml:space="preserve">
<path d="M556.587,223.297c-50.821-88.29-148.501-132.498-243.279-119.263l-28.924-50.247l-66.294,38.389
	C196.188,53.788,141.773-19.78,74.5,47.493l7,11c0,0,58.904-75.21,124.088,40.923l-78.127,45.241l28.818,50.064
	c-59.12,75.734-69.928,182.93-19.007,271.393c66.901,116.225,215.003,156.089,330.794,89.037S623.489,339.521,556.587,223.297z
	 M495.936,389.078c-1.162,75.106-39.84,122.154-89.072,142.248c10.234-15.657,16.327-35.289,16.327-56.605
	c0-51.177-35.094-92.664-78.387-92.664c-43.293,0-78.387,41.487-78.387,92.664c0,19.6,5.152,37.774,13.936,52.745
	c-46.867-22.201-83.165-68.652-84.683-138.388c-1.186-54.592,19.781-90.593,67.773-116.869
	c-18.119,33.914-11.042,73.334,8.265,89.818c-11.52-75.271,91.156-119.194,51.74-187.982l0.001,0
	c-0.015-0.026-0.031-0.052-0.046-0.078c-0.445-0.775-0.911-1.553-1.393-2.334c-0.082-0.133-0.162-0.265-0.245-0.398
	c-0.511-0.819-1.038-1.641-1.589-2.467c-0.035-0.052-0.072-0.105-0.107-0.157c-0.508-0.757-1.036-1.518-1.578-2.281
	c-0.124-0.175-0.248-0.35-0.374-0.525c-0.584-0.811-1.182-1.624-1.806-2.442c-0.058-0.076-0.119-0.152-0.178-0.228
	c-0.566-0.738-1.151-1.479-1.75-2.223c-0.173-0.215-0.347-0.43-0.523-0.645c-0.659-0.807-1.331-1.616-2.03-2.43
	c-0.071-0.083-0.146-0.166-0.218-0.249c-0.639-0.741-1.298-1.485-1.971-2.232c-0.217-0.241-0.435-0.482-0.656-0.723
	c-0.714-0.782-1.441-1.566-2.192-2.355c-0.04-0.042-0.077-0.084-0.118-0.126l-0.001-0.076c1.585,0.737,3.146,1.479,4.694,2.223
	c0.414,0.199,0.825,0.399,1.237,0.599c1.174,0.569,2.338,1.141,3.491,1.714c0.412,0.205,0.825,0.409,1.234,0.614
	c1.488,0.747,2.963,1.496,4.416,2.249c0.117,0.061,0.231,0.122,0.348,0.183c1.322,0.687,2.626,1.378,3.919,2.071
	c0.463,0.248,0.922,0.498,1.382,0.747c0.992,0.537,1.974,1.077,2.948,1.617c0.443,0.246,0.889,0.492,1.329,0.739
	c89.771,50.373,104.804,115.105,64.32,189.516c40.545-21.744,58.056-53.763,41.005-100.333
	C476.149,280.308,496.81,332.626,495.936,389.078z"/>
</svg>
