<?xml version="1.0" encoding="utf-8"?>
<!-- Generator: Adobe Illustrator 17.0.0, SVG Export Plug-In . SVG Version: 6.00 Build 0)  -->
<!DOCTYPE svg PUBLIC "-//W3C//DTD SVG 1.1//EN" "http://www.w3.org/Graphics/SVG/1.1/DTD/svg11.dtd">
<svg version="1.1" id="Layer_1" xmlns="http://www.w3.org/2000/svg" xmlns:xlink="http://www.w3.org/1999/xlink" x="0px" y="0px"
	 width="613px" height="613px" viewBox="0 0 613 613" enable-background="new 0 0 613 613" xml:space="preserve">
<g>
	<path d="M434.78,509.799c-15.586-29.607-32.149-59.674-49.892-89.508c30.271-107.69,77.519-230.828,187.319-382.374
		C462.86,110.676,381.513,220.384,325.663,329.049C256.095,231.595,170.302,145.216,60.021,97.427
		c86.494,97.67,170.478,216.524,224.917,321.232c-12.296,30.886-22.453,60.762-30.532,88.681
		c-13.85-101.881-89.539-204.983-167.147-207.981c81.749,82.083,135.315,211.336,89.713,281.005h60.038
		c-0.473,2.62-0.927,5.212-1.349,7.758h106.565c0.773-2.866,1.537-5.743,2.296-8.625c0.409,2.816,0.779,5.602,1.064,8.322h128.918
		c-1.157-2.331-2.322-4.673-3.49-7.018h53.529c-28.291-80.066-12.939-181.925,13.75-298.641
		C477.347,337.095,446.68,418.756,434.78,509.799z"/>
	<path d="M50.397,397.913c59.405,90.682,69.147,140.01,45.88,182.172h75.631v-0.001C157.23,499.39,136.663,449.778,50.397,397.913z"
		/>
</g>
</svg>
