<?xml version="1.0" encoding="utf-8"?>
<!-- Generator: Adobe Illustrator 17.0.0, SVG Export Plug-In . SVG Version: 6.00 Build 0)  -->
<!DOCTYPE svg PUBLIC "-//W3C//DTD SVG 1.1//EN" "http://www.w3.org/Graphics/SVG/1.1/DTD/svg11.dtd">
<svg version="1.1" id="Layer_1" xmlns="http://www.w3.org/2000/svg" xmlns:xlink="http://www.w3.org/1999/xlink" x="0px" y="0px"
	 width="613px" height="613px" viewBox="0 0 613 613" enable-background="new 0 0 613 613" xml:space="preserve">
<path d="M576.368,231.834l-32.985,57.427c-20.128-8.609-41.599-14.639-64.05-17.609v-66.345h-64.222v66.301
	c-21.864,2.842-42.826,8.555-62.514,16.731l-32.425-56.506l-43.044,24.212l-17.76-24.862c5.859-8.141,10.483-17.303,13.554-27.254
	l64.799-7.091l-6.381-64.857l-62.004,6.13c-4.842-11.121-11.779-21.221-20.393-29.727l24.768-55.321l-59.008-26.408h-0.004
	L190.172,81.44c-12.573-1.042-24.854,0.457-36.3,4.089l-34.6-48.439L66.645,75.536l35.612,49.859
	c-5.99,9.506-10.364,20.226-12.689,31.839l-62.562,6.847l6.38,64.854l66.115-7.235c4.678,8.461,10.631,16.176,17.642,22.857
	L89.172,307.03l59.01,26.408l28.199-62.988c9.712,0.632,19.236-0.243,28.318-2.444l40.754,55.825l37.916-27.701l13.955,24.095
	c-17.581,13.427-33.316,29.153-46.766,46.727l-58.833-33.895l-30.715,55.847l57.507,33.407
	c-8.446,20.236-14.304,41.816-17.144,64.325H134.48v64.224h67.177c1.986,14.402,5.24,28.376,9.612,41.885h202.403c0,0,0,0,0,0h0
	c-28.598-12.855-48.524-41.57-48.524-74.959c0-45.381,36.787-82.166,82.166-82.166s82.166,36.785,82.166,82.166
	c0,33.387-19.926,62.104-48.525,74.959h0c0,0,0,0,0,0H590.33v0v-30.018v-11.867v-64.224v-14.66v-73.997v-61.431v-20.943v-76.091
	L576.368,231.834z M185.724,232.535c-29.018,1.771-53.98-20.313-55.751-49.33c-1.771-29.017,20.321-53.976,49.339-55.747
	s53.981,20.317,55.751,49.334C236.835,205.809,214.743,230.764,185.724,232.535z"/>
</svg>
