<?xml version="1.0" encoding="utf-8"?>
<!-- Generator: Adobe Illustrator 17.0.0, SVG Export Plug-In . SVG Version: 6.00 Build 0)  -->
<!DOCTYPE svg PUBLIC "-//W3C//DTD SVG 1.1//EN" "http://www.w3.org/Graphics/SVG/1.1/DTD/svg11.dtd">
<svg version="1.1" id="Layer_1" xmlns="http://www.w3.org/2000/svg" xmlns:xlink="http://www.w3.org/1999/xlink" x="0px" y="0px"
	 width="613px" height="613px" viewBox="0 0 613 613" enable-background="new 0 0 613 613" xml:space="preserve">
<g>
	<path d="M580.868,388.892l11.462-69.447l-25.207-4.16c0.726-22.511-1.536-44.591-6.464-65.807l23.745-8.938l-24.797-65.874
		l-24.156,9.093c-10.624-19.258-23.693-37.094-38.854-53.043l16.948-20.652l-54.412-44.65l-17.585,21.429
		c-18.405-10.897-38.402-19.59-59.688-25.683l4.749-28.769l-69.448-11.463l-4.991,30.241c-21.511-0.118-42.585,2.482-62.838,7.521
		l-11.279-29.963l-65.874,24.797l11.824,31.412c-17.943,10.265-34.607,22.664-49.599,36.921l-26.839-22.025l-44.65,54.411
		l27.628,22.672c-10.204,17.244-18.481,35.881-24.492,55.669L30.11,226.65l-11.462,69.447l36.308,5.993
		c-0.448,20.593,1.591,40.813,5.891,60.32l-34.536,13l24.797,65.874l34.224-12.882c9.647,17.958,21.399,34.715,34.989,49.897
		l-22.661,27.615l54.412,44.65l21.942-26.74c17.196,10.898,35.878,19.832,55.776,26.463l-5.424,32.86l69.448,11.463l5.181-31.389
		c21.572,1.045,42.776-0.655,63.231-4.827l10.699,28.423l65.874-24.797l-10.187-27.063c19.277-9.974,37.214-22.365,53.375-36.824
		l21.426,17.583l44.65-54.412l-20.54-16.855c11.631-18.344,21.025-38.379,27.771-59.778L580.868,388.892z M496.581,419.155
		c-2.29,3.775-4.689,7.469-7.193,11.079c-0.017,0.025-0.034,0.05-0.051,0.074c-0.749,1.079-1.511,2.148-2.279,3.212
		c-0.152,0.21-0.302,0.421-0.455,0.631c-0.743,1.022-1.494,2.036-2.254,3.043c-0.162,0.215-0.326,0.43-0.489,0.645
		c-0.785,1.033-1.576,2.06-2.379,3.078c-0.066,0.084-0.134,0.167-0.2,0.251c-3.548,4.485-7.267,8.82-11.143,12.995
		c-0.098,0.105-0.194,0.211-0.292,0.316c-0.897,0.963-1.804,1.916-2.719,2.862c-0.15,0.155-0.3,0.31-0.45,0.464
		c-0.922,0.948-1.85,1.889-2.789,2.82c-0.086,0.085-0.172,0.169-0.258,0.253c-4.114,4.067-8.384,7.968-12.8,11.689l0,0
		c-11.245,9.476-23.428,17.804-36.356,24.837l0-0.001c-3.673,1.999-7.409,3.888-11.197,5.674c-0.252,0.119-0.502,0.24-0.755,0.358
		c-1.086,0.507-2.178,1.002-3.273,1.492c-0.321,0.143-0.642,0.287-0.964,0.429c-1.101,0.485-2.205,0.963-3.314,1.43
		c-0.268,0.113-0.537,0.223-0.805,0.335c-6.527,2.719-13.2,5.128-20,7.206c-0.127,0.039-0.253,0.078-0.38,0.117
		c-1.322,0.401-2.649,0.791-3.981,1.167c-0.096,0.027-0.192,0.054-0.288,0.081c-7.057,1.985-14.24,3.62-21.529,4.886l0,0
		c-13.837,2.403-28.047,3.476-42.471,3.106l0,0c-3.503-0.09-7.02-0.268-10.545-0.527c-0.385-0.029-0.769-0.056-1.154-0.087
		c-0.986-0.078-1.973-0.161-2.961-0.253c-0.906-0.085-1.812-0.178-2.719-0.274c-0.976-0.103-1.952-0.212-2.929-0.328
		c-1.106-0.132-2.213-0.27-3.32-0.419c-0.554-0.074-1.108-0.151-1.662-0.229c-1.511-0.216-3.022-0.442-4.535-0.69
		c-0.082-0.013-0.164-0.025-0.246-0.038c-0.341-0.056-0.679-0.123-1.02-0.181c-1.409-0.239-2.814-0.485-4.212-0.75
		c-0.865-0.164-1.723-0.346-2.584-0.52c-0.859-0.174-1.72-0.343-2.574-0.526c-1.05-0.226-2.093-0.468-3.137-0.708
		c-0.637-0.147-1.276-0.289-1.91-0.441c-1.182-0.284-2.357-0.582-3.53-0.884c-0.468-0.12-0.938-0.239-1.405-0.362
		c-1.292-0.342-2.577-0.697-3.857-1.062c-0.323-0.092-0.647-0.183-0.969-0.276c-1.388-0.402-2.77-0.817-4.145-1.245
		c-0.189-0.059-0.378-0.118-0.567-0.177c-1.479-0.465-2.951-0.942-4.414-1.437c-0.059-0.02-0.118-0.04-0.177-0.06
		c-1.543-0.523-3.078-1.06-4.603-1.615l0,0.001c-13.026-4.738-25.409-10.645-37.031-17.6l0.001-0.001
		c-0.232-0.139-0.459-0.283-0.69-0.423c-1.144-0.691-2.283-1.388-3.412-2.099c-0.562-0.354-1.118-0.716-1.676-1.075
		c-0.812-0.522-1.624-1.045-2.428-1.577c-0.619-0.41-1.234-0.825-1.849-1.241c-0.725-0.49-1.448-0.984-2.166-1.483
		c-0.648-0.45-1.295-0.902-1.938-1.359c-0.664-0.472-1.322-0.95-1.98-1.428c-0.671-0.489-1.344-0.975-2.009-1.471
		c-0.578-0.431-1.149-0.871-1.723-1.307c-2.794-2.127-5.534-4.316-8.214-6.57c-0.306-0.257-0.614-0.511-0.918-0.77
		c-0.874-0.743-1.738-1.496-2.599-2.252c-0.3-0.263-0.6-0.526-0.899-0.791c-0.889-0.789-1.771-1.585-2.646-2.387
		c-0.221-0.203-0.44-0.406-0.66-0.61c-0.95-0.879-1.895-1.763-2.829-2.659c-0.009-0.009-0.019-0.018-0.028-0.027
		c-5.289-5.074-10.312-10.405-15.053-15.969l0,0c-8.749-10.267-16.536-21.326-23.247-33.031l0,0
		c-2.845-4.962-5.494-10.042-7.944-15.224c-0.089-0.188-0.179-0.376-0.268-0.565c-0.547-1.166-1.084-2.338-1.611-3.514
		c-0.093-0.208-0.185-0.417-0.278-0.625c-0.538-1.211-1.068-2.427-1.584-3.649c-0.023-0.054-0.045-0.109-0.068-0.163
		c-2.239-5.313-4.27-10.724-6.085-16.221c-0.03-0.09-0.06-0.179-0.09-0.268c-0.424-1.289-0.834-2.582-1.234-3.88
		c-0.052-0.17-0.105-0.341-0.157-0.511c-0.398-1.304-0.786-2.612-1.16-3.926c-0.021-0.075-0.042-0.151-0.063-0.226
		c-1.599-5.64-2.976-11.361-4.118-17.153l0,0c-2.575-13.061-3.964-26.476-4.065-40.109c-0.031-4.262,0.069-8.547,0.29-12.846
		c0.022-0.423,0.039-0.845,0.063-1.268c0.059-1.037,0.134-2.075,0.208-3.114c0.05-0.699,0.1-1.398,0.158-2.097
		c0.074-0.909,0.156-1.819,0.241-2.73c0.082-0.865,0.169-1.731,0.261-2.597c0.084-0.794,0.169-1.588,0.262-2.383
		c0.125-1.062,0.262-2.126,0.403-3.19c0.083-0.627,0.16-1.253,0.248-1.881c0.241-1.709,0.498-3.42,0.781-5.133
		c0.275-1.664,0.574-3.318,0.884-4.966c0.093-0.495,0.192-0.988,0.288-1.482c0.236-1.208,0.482-2.411,0.738-3.61
		c0.105-0.494,0.209-0.989,0.318-1.482c0.347-1.576,0.706-3.146,1.087-4.707c0.013-0.052,0.024-0.105,0.037-0.157
		c0.392-1.606,0.807-3.201,1.234-4.79c0.13-0.483,0.264-0.964,0.397-1.445c0.32-1.16,0.649-2.316,0.987-3.468
		c0.143-0.487,0.285-0.974,0.431-1.459c0.446-1.479,0.903-2.952,1.379-4.416c0.03-0.093,0.058-0.188,0.089-0.281
		c4.273-13.095,9.738-25.565,16.229-37.325l0,0c0.719-1.303,1.451-2.597,2.195-3.882c0.003-0.005,0.006-0.01,0.009-0.015
		c3.656-6.312,7.617-12.406,11.854-18.271c0.127-0.176,0.253-0.353,0.381-0.528c0.731-1.005,1.472-2.003,2.219-2.994
		c0.206-0.273,0.413-0.546,0.621-0.818c0.722-0.949,1.451-1.893,2.188-2.829c0.219-0.277,0.44-0.552,0.66-0.828
		c2.336-2.935,4.745-5.804,7.223-8.607c0.3-0.339,0.596-0.683,0.898-1.02c0.624-0.697,1.258-1.384,1.89-2.072
		c0.466-0.508,0.932-1.016,1.403-1.519c0.593-0.633,1.191-1.26,1.791-1.885c0.529-0.552,1.061-1.101,1.595-1.646
		c0.576-0.588,1.154-1.174,1.736-1.755c0.584-0.583,1.174-1.16,1.765-1.736c0.553-0.54,1.105-1.082,1.664-1.615
		c0.698-0.667,1.406-1.323,2.113-1.98c0.46-0.427,0.914-0.861,1.377-1.284l0,0c10.318-9.427,21.521-17.84,33.436-25.121l0,0.001
		c2.033-1.242,4.092-2.443,6.165-3.618c0.589-0.334,1.176-0.671,1.768-0.999c0.806-0.447,1.617-0.884,2.428-1.32
		c0.584-0.315,1.169-0.629,1.756-0.938c0.839-0.442,1.681-0.877,2.526-1.308c0.546-0.278,1.093-0.553,1.641-0.827
		c0.893-0.446,1.787-0.889,2.686-1.323c0.447-0.215,0.896-0.425,1.344-0.637c4.834-2.29,9.757-4.408,14.763-6.341
		c0.21-0.081,0.419-0.164,0.629-0.244c1.206-0.461,2.417-0.911,3.632-1.351c0.211-0.076,0.422-0.153,0.633-0.228
		c1.265-0.454,2.534-0.898,3.808-1.329c0.064-0.022,0.129-0.043,0.193-0.065c6.954-2.342,14.049-4.339,21.26-5.973l0,0
		c13.95-3.161,28.334-4.962,42.983-5.28c1.578-0.034,3.16-0.049,4.744-0.049c0.133,0,0.265,0,0.398,0
		c1.485,0.003,2.973,0.023,4.463,0.056c0.261,0.006,0.521,0.012,0.782,0.019c1.384,0.036,2.77,0.085,4.158,0.148
		c0.396,0.018,0.792,0.039,1.189,0.059c1.275,0.064,2.551,0.138,3.828,0.225c0.542,0.037,1.084,0.081,1.627,0.122
		c1.153,0.087,2.306,0.178,3.461,0.284c0.717,0.066,1.435,0.143,2.153,0.217c0.999,0.102,1.998,0.201,2.999,0.316
		c0.979,0.114,1.96,0.244,2.94,0.371c0.76,0.098,1.52,0.188,2.281,0.294c1.762,0.247,3.526,0.513,5.292,0.805
		c1.616,0.267,3.222,0.558,4.824,0.859c0.506,0.095,1.011,0.193,1.516,0.291c1.157,0.226,2.309,0.463,3.459,0.707
		c0.835,0.178,1.668,0.359,2.499,0.546c0.99,0.222,1.978,0.449,2.963,0.684c0.943,0.226,1.883,0.459,2.821,0.697
		c0.398,0.101,0.795,0.204,1.193,0.307c3.408,0.885,6.781,1.843,10.114,2.879l0,0c14.538,4.521,28.337,10.483,41.257,17.708l0,0
		c1.114,0.623,2.219,1.26,3.32,1.902c0.271,0.158,0.544,0.315,0.815,0.474c1.039,0.611,2.07,1.232,3.097,1.86
		c0.315,0.192,0.629,0.386,0.942,0.58c1.026,0.635,2.048,1.276,3.062,1.927c0.249,0.16,0.495,0.322,0.743,0.483
		c4.668,3.023,9.205,6.217,13.602,9.572c0.169,0.129,0.34,0.257,0.51,0.387c0.99,0.76,1.971,1.53,2.946,2.306
		c0.241,0.192,0.483,0.384,0.723,0.577c0.967,0.776,1.927,1.559,2.88,2.35c0.197,0.164,0.393,0.33,0.59,0.494
		c5.412,4.53,10.59,9.312,15.518,14.326c0.146,0.149,0.294,0.297,0.44,0.447c0.905,0.926,1.801,1.859,2.688,2.801
		c0.143,0.152,0.286,0.305,0.429,0.458c0.917,0.977,1.826,1.961,2.724,2.955l0,0c10.193,11.281,19.193,23.594,26.826,36.737
		l-0.001,0c0.071,0.123,0.139,0.248,0.21,0.371c0.721,1.247,1.43,2.501,2.126,3.762c0.301,0.546,0.593,1.097,0.89,1.645
		c0.467,0.864,0.932,1.728,1.388,2.598c0.334,0.638,0.662,1.28,0.99,1.922c0.4,0.783,0.796,1.569,1.187,2.358
		c0.343,0.692,0.684,1.386,1.02,2.082c0.353,0.731,0.698,1.466,1.043,2.201c0.35,0.748,0.702,1.494,1.044,2.246
		c0.29,0.637,0.57,1.28,0.854,1.92c1.434,3.237,2.794,6.51,4.071,9.821c0.129,0.334,0.262,0.667,0.389,1.002
		c0.418,1.101,0.824,2.207,1.225,3.315c0.123,0.341,0.248,0.682,0.369,1.024c0.409,1.15,0.809,2.304,1.2,3.461
		c0.085,0.252,0.168,0.505,0.253,0.758c2.747,8.253,5.011,16.7,6.758,25.304l0,0c2.995,14.755,4.49,29.966,4.309,45.44l0,0
		c-0.002,0.193-0.01,0.386-0.012,0.579c-0.021,1.43-0.057,2.862-0.106,4.296c-0.019,0.565-0.044,1.13-0.068,1.695
		c-0.047,1.126-0.104,2.253-0.168,3.381c-0.032,0.556-0.062,1.113-0.099,1.669c-0.101,1.549-0.215,3.099-0.35,4.652
		c-0.018,0.211-0.039,0.423-0.058,0.634c-0.135,1.501-0.287,3.004-0.454,4.508c-0.059,0.537-0.124,1.074-0.188,1.611
		c-0.14,1.183-0.289,2.367-0.448,3.551c-0.07,0.52-0.138,1.039-0.212,1.559c-0.232,1.637-0.477,3.276-0.748,4.916
		c-0.003,0.017-0.005,0.033-0.008,0.05c-0.005,0.033-0.012,0.066-0.017,0.099c-0.277,1.675-0.577,3.341-0.891,5
		c-0.122,0.643-0.254,1.282-0.382,1.923c-0.204,1.031-0.412,2.06-0.63,3.084c-0.17,0.796-0.348,1.588-0.526,2.38
		c-0.188,0.837-0.381,1.672-0.578,2.505c-0.213,0.898-0.431,1.794-0.655,2.686c-0.169,0.674-0.345,1.346-0.52,2.017
		c-0.264,1.011-0.529,2.023-0.807,3.027c-0.112,0.405-0.23,0.806-0.344,1.21c-1.176,4.157-2.462,8.261-3.868,12.301h0
		C510.833,392.659,504.336,406.369,496.581,419.155z"/>
	<path d="M342.821,113.704c-106.476-17.575-207.04,54.492-224.615,160.97C100.631,381.151,172.7,481.713,279.177,499.288
		c106.477,17.575,207.04-54.492,224.615-160.97S449.297,131.279,342.821,113.704z M405.004,339.445l-59.013-48.426L221.264,443.01
		l-30.991-25.432L315,265.587l-79.255-65.037l113.683-39.688l120.786,99.121L405.004,339.445z"/>
</g>
</svg>
