<?xml version="1.0" encoding="utf-8"?>
<!-- Generator: Adobe Illustrator 17.0.0, SVG Export Plug-In . SVG Version: 6.00 Build 0)  -->
<!DOCTYPE svg PUBLIC "-//W3C//DTD SVG 1.1//EN" "http://www.w3.org/Graphics/SVG/1.1/DTD/svg11.dtd">
<svg version="1.1" id="Layer_1" xmlns="http://www.w3.org/2000/svg" xmlns:xlink="http://www.w3.org/1999/xlink" x="0px" y="0px"
	 width="613px" height="613px" viewBox="0 0 613 613" enable-background="new 0 0 613 613" xml:space="preserve">
<path d="M378.477,436.498l-2.885,38.724h0l-8.267,110.971h175.161L508.18,475.222h-47.043v-225.5l73.101-90.62V26.277h-77.006v62.65
	h-46.874v-62.65h-77.843v62.65H286.48v-62.65h-77.843v62.65h-46.035v-62.65H85.595h-0.007v132.824l73.101,90.62v225.501H111.65
	L77.345,586.193h180.612l-7.313-110.971h0l-2.552-38.724h-47.498c-8.34-44.358-6.57-91.038,6.518-127.132
	c0.347-0.958,0.7-1.91,1.063-2.852c0.002-0.006,0.005-0.013,0.008-0.019c2.721-7.057,5.893-13.679,9.52-19.772
	c0.083-0.14,0.164-0.283,0.248-0.422c0.407-0.676,0.823-1.341,1.241-2.004c0.141-0.223,0.278-0.45,0.42-0.672
	c0.389-0.607,0.787-1.202,1.186-1.797c0.179-0.267,0.355-0.538,0.536-0.803c0.381-0.557,0.77-1.104,1.159-1.65
	c0.208-0.292,0.414-0.587,0.624-0.876c0.375-0.515,0.759-1.021,1.142-1.526c0.235-0.309,0.468-0.621,0.705-0.926
	c0.374-0.481,0.755-0.952,1.136-1.423c0.256-0.316,0.511-0.634,0.77-0.946c0.375-0.451,0.757-0.894,1.139-1.336
	c0.277-0.32,0.553-0.641,0.833-0.956c0.376-0.422,0.757-0.837,1.139-1.251c0.297-0.321,0.594-0.642,0.895-0.958
	c0.378-0.396,0.76-0.786,1.144-1.174c0.316-0.319,0.632-0.636,0.952-0.949c0.382-0.373,0.767-0.74,1.155-1.104
	c0.332-0.313,0.666-0.623,1.003-0.929c0.386-0.351,0.776-0.697,1.168-1.04c0.35-0.306,0.702-0.608,1.056-0.907
	c0.39-0.329,0.782-0.654,1.178-0.974c0.367-0.298,0.737-0.591,1.11-0.881c0.394-0.307,0.79-0.612,1.189-0.911
	c0.385-0.289,0.774-0.572,1.164-0.853c0.397-0.286,0.796-0.57,1.198-0.847c0.402-0.278,0.809-0.549,1.217-0.819
	c0.402-0.266,0.805-0.531,1.212-0.789c0.419-0.265,0.843-0.523,1.267-0.779c0.407-0.246,0.814-0.493,1.226-0.731
	c0.436-0.252,0.878-0.496,1.321-0.739c0.41-0.226,0.82-0.453,1.236-0.671c0.456-0.239,0.917-0.469,1.379-0.698
	c0.413-0.206,0.825-0.414,1.242-0.612c0.477-0.226,0.961-0.441,1.444-0.657c0.412-0.184,0.823-0.372,1.24-0.549
	c0.501-0.213,1.01-0.412,1.517-0.614c0.411-0.163,0.819-0.331,1.235-0.488c0.526-0.198,1.06-0.381,1.593-0.567
	c0.408-0.143,0.812-0.291,1.224-0.427c0.559-0.184,1.128-0.353,1.695-0.524c0.395-0.12,0.786-0.246,1.185-0.36
	c0.605-0.172,1.221-0.326,1.834-0.484c0.372-0.095,0.739-0.199,1.115-0.289c0.695-0.167,1.401-0.314,2.107-0.462
	c0.303-0.063,0.6-0.136,0.905-0.196c1.017-0.2,2.044-0.382,3.083-0.543c-5.451-6.839-9.929-15.007-13.048-24.096h-0.002
	c-3.128-9.116-4.889-19.159-4.889-29.719c0-41.648,26.509-75.257,59.066-75.257c2.036,0,4.143-0.314,6.125,0h0.003
	c29.73,3.861,52.94,36.208,52.94,75.257c0,10.59-1.786,20.619-4.94,29.719h0c-2.04,5.886-4.654,11.382-7.734,16.385
	c-0.022,0.036-0.042,0.073-0.064,0.109c-0.573,0.927-1.165,1.832-1.77,2.724c-0.053,0.078-0.102,0.16-0.155,0.237
	c-0.608,0.891-1.236,1.76-1.874,2.615c-0.051,0.068-0.099,0.141-0.151,0.209c-0.692,0.919-1.401,1.817-2.126,2.692c0,0,0,0,0.001,0
	c0,0,0,0.001-0.001,0.001c0.169,0.032,0.336,0.072,0.505,0.105c0.742,0.145,1.481,0.296,2.214,0.464
	c0.363,0.083,0.721,0.178,1.082,0.267c0.542,0.133,1.083,0.264,1.62,0.409c0.394,0.107,0.784,0.223,1.175,0.336
	c0.496,0.143,0.991,0.286,1.482,0.44c0.403,0.126,0.802,0.26,1.201,0.393c0.474,0.157,0.946,0.317,1.415,0.484
	c0.402,0.143,0.801,0.292,1.2,0.442c0.46,0.173,0.919,0.351,1.375,0.534c0.397,0.159,0.792,0.321,1.186,0.487
	c0.453,0.191,0.902,0.388,1.35,0.588c0.388,0.173,0.776,0.347,1.161,0.527c0.448,0.21,0.892,0.427,1.336,0.646
	c0.377,0.186,0.756,0.37,1.13,0.562c0.449,0.231,0.893,0.473,1.337,0.713c0.361,0.195,0.723,0.385,1.081,0.586
	c0.481,0.27,0.955,0.554,1.43,0.835c0.313,0.185,0.629,0.363,0.939,0.553c0.757,0.463,1.507,0.94,2.25,1.431
	c0.335,0.221,0.663,0.454,0.994,0.681c0.427,0.292,0.855,0.581,1.277,0.881c0.362,0.258,0.718,0.526,1.076,0.791
	c0.384,0.283,0.769,0.565,1.149,0.856c0.366,0.281,0.728,0.569,1.09,0.857c0.364,0.289,0.728,0.578,1.088,0.873
	c0.365,0.3,0.726,0.605,1.087,0.912c0.349,0.297,0.697,0.595,1.042,0.898c0.362,0.318,0.721,0.639,1.079,0.964
	c0.336,0.305,0.67,0.614,1.003,0.926c0.357,0.335,0.713,0.671,1.066,1.013c0.324,0.314,0.645,0.633,0.966,0.953
	c0.353,0.352,0.706,0.705,1.055,1.064c0.31,0.319,0.615,0.645,0.921,0.97c0.351,0.372,0.703,0.742,1.049,1.122
	c0.291,0.319,0.576,0.646,0.864,0.97c0.353,0.398,0.709,0.792,1.057,1.197c0.226,0.262,0.445,0.533,0.669,0.799
	c0.769,0.914,1.527,1.846,2.271,2.796c0.211,0.269,0.426,0.534,0.635,0.806c0.352,0.458,0.697,0.927,1.043,1.394
	c0.242,0.326,0.486,0.648,0.725,0.977c0.335,0.462,0.664,0.933,0.994,1.402c0.242,0.344,0.484,0.687,0.723,1.035
	c0.324,0.473,0.644,0.953,0.963,1.433c0.235,0.354,0.47,0.709,0.703,1.067c0.315,0.487,0.627,0.978,0.937,1.472
	c0.227,0.361,0.453,0.724,0.676,1.09c0.308,0.502,0.614,1.007,0.916,1.517c0.216,0.364,0.43,0.731,0.643,1.099
	c0.302,0.521,0.603,1.044,0.9,1.572c0.202,0.361,0.401,0.726,0.601,1.09c0.299,0.546,0.599,1.091,0.892,1.644
	c0.18,0.34,0.356,0.684,0.534,1.027c0.305,0.587,0.611,1.173,0.909,1.768c0.125,0.249,0.245,0.503,0.369,0.753
	c0.777,1.575,1.535,3.171,2.265,4.798l0.001-0.001c16.181,36.076,20.582,84.71,10.608,132.748H378.477z"/>
</svg>
