<?xml version="1.0" encoding="utf-8"?>
<!-- Generator: Adobe Illustrator 17.0.0, SVG Export Plug-In . SVG Version: 6.00 Build 0)  -->
<!DOCTYPE svg PUBLIC "-//W3C//DTD SVG 1.1//EN" "http://www.w3.org/Graphics/SVG/1.1/DTD/svg11.dtd">
<svg version="1.1" id="Layer_1" xmlns="http://www.w3.org/2000/svg" xmlns:xlink="http://www.w3.org/1999/xlink" x="0px" y="0px"
	 width="613px" height="613px" viewBox="0 0 613 613" enable-background="new 0 0 613 613" xml:space="preserve">
<path d="M320.086,19.692l-76.769,60.42l90.3,191.075l95.57-230.339L320.089,19.693L320.086,19.692L320.086,19.692z"/>
<path d="M34.434,409.567l19.73-53.379l185.771,3.974L34.434,409.567z"/>
<path d="M369.953,278.95l172.383-161.377l-30.912-47.967l-73.552,36.242L369.953,278.95L369.953,278.95z"/>
<path d="M168.297,22.04l134.15,266.603L114.391,32.976l53.906-10.938V22.04z"/>
<path d="M35.732,177.908l-13.568,70.099L255.5,318.084L134.473,220.12l-15.829,36.934L35.732,177.91L35.732,177.908L35.732,177.908z
	"/>
<path d="M52.864,33.805l216.969,259.772L21.355,77.847l31.509-44.045V33.805z"/>
<path d="M576.25,123.359l-76.514,99.407l88.736-45.874L576.25,123.359z"/>
<path d="M23.743,280.688l125.55,45.478l-124.476,2.172l-1.075-47.648L23.743,280.688L23.743,280.688z"/>
<polygon points="487.065,260.888 519.09,335.612 499.544,411.702 459.055,409.609 403.974,469.077 443.697,511.529 317.345,515.018 
	303.383,496.868 231.479,470.341 209.838,489.191 152.849,417.473 12.375,483.287 12.375,600.285 600.456,600.285 600.456,207.763 
	"/>
</svg>
