<?xml version="1.0" encoding="utf-8"?>
<!-- Generator: Adobe Illustrator 17.0.0, SVG Export Plug-In . SVG Version: 6.00 Build 0)  -->
<!DOCTYPE svg PUBLIC "-//W3C//DTD SVG 1.1//EN" "http://www.w3.org/Graphics/SVG/1.1/DTD/svg11.dtd">
<svg version="1.1" id="Layer_1" xmlns="http://www.w3.org/2000/svg" xmlns:xlink="http://www.w3.org/1999/xlink" x="0px" y="0px"
	 width="613px" height="613px" viewBox="0 0 613 613" enable-background="new 0 0 613 613" xml:space="preserve">
<path d="M282.064,499.031l310.162,94.228l-94.222-310.165c-100.735,188.726-104.667,9.705-162.454-33.301
	c-2.991-5.905-6.938-11.449-11.873-16.384c-23.608-23.608-61.03-24.961-86.232-4.077l-7.013-6.979
	c2.816-4.436,4.454-9.693,4.454-15.337c0-15.83-12.832-28.663-28.662-28.663c-5.693,0-10.993,1.667-15.453,4.528l-31.01-30.861
	c2.897-4.479,4.586-9.812,4.586-15.543c0-15.83-12.832-28.663-28.662-28.663c-5.781,0-11.158,1.717-15.66,4.661L88.492,81.093
	c2.98-4.521,4.719-9.932,4.719-15.751c0-15.83-12.832-28.663-28.662-28.663c-5.869,0-11.324,1.767-15.868,4.794L26.022,18.923
	l-8.465,8.506l22.745,22.636c-2.793,4.423-4.415,9.66-4.415,15.278c0,15.83,12.83,28.663,28.662,28.663
	c5.667,0,10.946-1.652,15.394-4.491l31.629,31.477c-2.874,4.467-4.549,9.779-4.549,15.485c0,15.83,12.83,28.663,28.662,28.663
	c5.756,0,11.111-1.703,15.602-4.624l30.956,30.808c-2.956,4.509-4.681,9.898-4.681,15.692c0,15.83,12.83,28.663,28.662,28.663
	c5.844,0,11.276-1.753,15.808-4.757l6.921,6.888c-20.961,25.203-19.634,62.685,4.002,86.32c4.49,4.49,9.485,8.161,14.796,11.042
	C288.861,394.31,472.308,397.484,282.064,499.031z M274.654,250.283C274.654,250.284,274.653,250.284,274.654,250.283
	c0.524-0.06,1.053-0.106,1.586-0.14c0.022-0.001,0.045-0.004,0.067-0.005c0.546-0.033,1.096-0.051,1.651-0.051
	c2.473,0,4.874,0.313,7.163,0.902c4.121,1.06,7.884,3.014,11.069,5.643c0.354,0.292,0.701,0.592,1.04,0.901
	c0.679,0.617,1.328,1.266,1.944,1.945c0.308,0.339,0.609,0.686,0.901,1.04c4.089,4.955,6.545,11.307,6.545,18.232
	c0,5.554-1.584,10.735-4.318,15.126l-39.586-39.396C266.25,252.256,270.303,250.783,274.654,250.283z M293.977,302.522
	c-0.761,0.514-1.547,0.992-2.358,1.432c-0.812,0.441-1.648,0.844-2.505,1.207c-3.429,1.45-7.199,2.253-11.156,2.253
	c-2.969,0-5.831-0.451-8.524-1.289c-4.039-1.256-7.695-3.382-10.749-6.158c-0.339-0.308-0.671-0.625-0.995-0.949
	c-5.187-5.187-8.394-12.353-8.394-20.268c0-0.003,0-0.006,0-0.008c0-0.573,0.02-1.142,0.055-1.707
	c0.002-0.038,0.006-0.076,0.009-0.114c0.037-0.549,0.086-1.094,0.152-1.635c0.55-4.562,2.166-8.795,4.6-12.438L293.977,302.522z
	 M361.867,363.18c63.628,46.335,111.276,34.512,124.322-5.511v-0.003l56.862,186.708l-186.706-56.867
	C396.373,474.453,408.199,426.804,361.867,363.18z"/>
</svg>
