<?xml version="1.0" encoding="utf-8"?>
<!-- Generator: Adobe Illustrator 17.0.0, SVG Export Plug-In . SVG Version: 6.00 Build 0)  -->
<!DOCTYPE svg PUBLIC "-//W3C//DTD SVG 1.1//EN" "http://www.w3.org/Graphics/SVG/1.1/DTD/svg11.dtd">
<svg version="1.1" id="Layer_1" xmlns="http://www.w3.org/2000/svg" xmlns:xlink="http://www.w3.org/1999/xlink" x="0px" y="0px"
	 width="613px" height="613px" viewBox="0 0 613 613" enable-background="new 0 0 613 613" xml:space="preserve">
<path d="M596.135,212.812C560.732,80.525,431.479,0.134,307.615,33.366v0.003C183.758,66.596-17.679,235.724,17.719,368.002
	s253.973,236.869,377.833,203.641S631.538,345.099,596.135,212.812z M251.534,101.298c66.635-35.326,137.326-34.282,157.905,2.334
	c20.577,36.611-16.753,94.927-83.388,130.252s-137.326,34.282-157.905-2.334C147.567,194.934,184.899,136.624,251.534,101.298z
	 M70.493,291.065c0-24.935,20.214-45.146,45.146-45.146s45.146,20.212,45.146,45.146s-20.212,45.146-45.146,45.146
	S70.493,315.999,70.493,291.065z M382.284,536.633c-66.015,17.711-162.719-9.239-235.362-59.152
	c163.354,74.242,382.658,14.286,411.184-255.382v0.003C589.14,338.064,490.852,507.507,382.284,536.633z"/>
</svg>
