<?xml version="1.0" encoding="utf-8"?>
<!-- Generator: Adobe Illustrator 17.0.0, SVG Export Plug-In . SVG Version: 6.00 Build 0)  -->
<!DOCTYPE svg PUBLIC "-//W3C//DTD SVG 1.1//EN" "http://www.w3.org/Graphics/SVG/1.1/DTD/svg11.dtd">
<svg version="1.1" id="Layer_1" xmlns="http://www.w3.org/2000/svg" xmlns:xlink="http://www.w3.org/1999/xlink" x="0px" y="0px"
	 width="613px" height="613px" viewBox="0 0 613 613" enable-background="new 0 0 613 613" xml:space="preserve">
<path d="M21.516,590.477l43.45-394.931c8.042,128.64,4.884,277.097,42.501,353.418c13.393-101.513,18.775-201.028,12.625-297.645
	c18.199,85.692,42.485,169.352,47.177,259.55c8.839-66.86,15.141-133.301,38.009-202.498
	c-0.907,77.922-20.512,149.295,15.153,188.226c17.251-60.973,34.653-121.802,37.602-197.083
	c25.424,73.944,21.926,162.347,29.822,245.063c10.061-81.353,18.264-308.199,56.069-380.313
	c-3.716,149.39-4.616,267.678,32.749,327.791c36.932-46.226,40.122-136.792,40.975-222.735
	c26.072,73.809,43.578,157.901,45.251,260.985c10.311-86.009,22.313-172.017,51.865-258.02
	c-6.871,105.534-1.535,187.604,23.339,232.094c16.446-66.4,30.485-132.799,34.807-199.211
	c22.018,98.948,15.539,190.76,19.969,285.309H21.516z"/>
</svg>
