<?xml version="1.0" encoding="utf-8"?>
<!-- Generator: Adobe Illustrator 17.0.0, SVG Export Plug-In . SVG Version: 6.00 Build 0)  -->
<!DOCTYPE svg PUBLIC "-//W3C//DTD SVG 1.1//EN" "http://www.w3.org/Graphics/SVG/1.1/DTD/svg11.dtd">
<svg version="1.1" id="Layer_1" xmlns="http://www.w3.org/2000/svg" xmlns:xlink="http://www.w3.org/1999/xlink" x="0px" y="0px"
	 width="613px" height="613px" viewBox="0 0 613 613" enable-background="new 0 0 613 613" xml:space="preserve">
<path d="M550.851,293.081c-15.986-40.554-48.964-31.967-31.464,12.41l2.354,5.97c-32.762,7.97-46.381-6.558-57.285-31.258
	c4.273-25.446,5.092-50.979,1.648-75.731c-1.645-11.812,5.995-18.234,14.173-24.411c9.652-0.076,19.252-2.776,27.897-8.787
	c11.831,8.071,28.039,5.506,36.767-6.041c8.998-11.906,6.642-28.851-5.266-37.849c-0.813-0.614-1.65-1.17-2.505-1.679
	c37.154-98.649,0.821-128.605-84.068-63.579c-0.65-0.599-1.333-1.173-2.052-1.717c-11.906-8.999-28.851-6.64-37.849,5.266
	c-8.85,11.71-6.709,28.291,4.695,37.394c-5.601,17.153-1.281,34.275,8.495,48.004c-0.401,8.002-3.24,14.729-11.912,21.481
	c-10.954,8.534-22.625,19.413-34.265,32.197c-26.646-13.567-47.112-34.836-64.6-59.211l2.527-1.068
	c43.929-18.576,26.972-48.13-13.173-31.155c-19.808-46.831-48.307-27.405-31.16,13.174c-49.212,20.808-33.502,50.892,13.177,31.155
	l2.163-0.915c17.047,33.332,39.675,57.372,68.732,75.096c-20.481,27.355-39.272,60.101-51.935,95.714
	c-41.774-32.671-80.638-22.388-124.359,11.756l-0.7-1.106c-27.099-42.826-57.149-27.064-28.58,18.085h0.003
	c-37.225,23.552-24.885,55.773,18.085,28.583c23.304,36.838,54.087,22.227,28.582-18.082l-2.367-3.74
	c43.604-19.457,75.768-13.074,94.837,24.703c-1.411,11.449-2.037,23.034-1.771,34.684c-37.75,65.727-99.828,129.646-167.215,89.303
	c-54.993-32.919-85.302-164.797-19.62-195.191c-106.216,16.735-86.194,189.05-13.544,241.57
	c82.365,59.544,211.735,11.66,270.726-80.771c11.022-11.044,21.583-23.096,31.493-35.947c33.679,11.711,56.791,41.303,65.448,79.582
	l-2.219-0.139c-47.612-3.002-45.635,31.01-2.135,33.759c-3.198,50.737,30.989,46.088,33.761,2.122
	c53.322,3.368,52.717-30.566,2.132-33.759l-4.112-0.258c2.779-56.942-25.181-95.633-62.84-126.243
	c13.086-22.768,24.004-46.961,31.983-71.74c17.691,20.696,43.729,24.139,78.688,13.287c18.656,45.943,50.499,35.879,31.047-13.449
	C604.243,308.384,598.156,274.429,550.851,293.081z"/>
</svg>
