<?xml version="1.0" encoding="utf-8"?>
<!-- Generator: Adobe Illustrator 17.0.0, SVG Export Plug-In . SVG Version: 6.00 Build 0)  -->
<!DOCTYPE svg PUBLIC "-//W3C//DTD SVG 1.1//EN" "http://www.w3.org/Graphics/SVG/1.1/DTD/svg11.dtd">
<svg version="1.1" id="Layer_1" xmlns="http://www.w3.org/2000/svg" xmlns:xlink="http://www.w3.org/1999/xlink" x="0px" y="0px"
	 width="612px" height="612px" viewBox="0 0 612 612" enable-background="new 0 0 612 612" xml:space="preserve">
<g>
	<polygon points="222.839,368.069 222.813,368.055 222.714,368.003 	"/>
	<path d="M586.583,307.873l-42.205-111.669l-153.427-83.401L73.023,282.277L26.526,406.498l187.421,99.727l3.073-135.152
		L71.216,287.815l12.505,6.619l-7.138-4.104l25.482,13.544l-23.17-13.544l143.918,77.725l0.026,0.014l309.926-160.19l-49.607,27.23
		l58.078-29.664l-114.952,60.883L226.732,375.864l-12.785,130.361L586.583,307.873z M229.032,329.056l-83.94-44.786l81.64,25.244
		l249.966-110.919L229.032,329.056z"/>
</g>
<path display="none" fill="#FFFFFF" d="M500.208,284.968l-186.483,97.828l-45.119-24.112l-27.501,14.573l72.621,38.747
	l214.269-112.869L500.208,284.968z"/>
<polygon display="none" fill="#FFFFFF" points="293.833,569.833 303.332,448.355 171.167,376.708 171.167,359.833 311.735,437.833 
	591.167,289.833 594.5,305.061 321.167,448.355 307.534,565.282 296.5,569.833 "/>
</svg>
