<?xml version="1.0" encoding="utf-8"?>
<!-- Generator: Adobe Illustrator 17.0.0, SVG Export Plug-In . SVG Version: 6.00 Build 0)  -->
<!DOCTYPE svg PUBLIC "-//W3C//DTD SVG 1.1//EN" "http://www.w3.org/Graphics/SVG/1.1/DTD/svg11.dtd">
<svg version="1.1" id="Layer_1" xmlns="http://www.w3.org/2000/svg" xmlns:xlink="http://www.w3.org/1999/xlink" x="0px" y="0px"
	 width="613px" height="613px" viewBox="0 0 613 613" enable-background="new 0 0 613 613" xml:space="preserve">
<path d="M218.956,395.436L396.07,218.322"/>
<path d="M396.07,395.436L218.956,218.322"/>
<path d="M391.657,222.775V39.876h-169.01v182.899H40.518v169.01h182.129v182.129h169.011V391.785h182.899v-169.01L391.657,222.775
	L391.657,222.775z M125.616,359.954c-29.315,0-53.079-23.763-53.079-53.077S96.3,253.8,125.616,253.8s53.079,23.763,53.079,53.077
	S154.931,359.954,125.616,359.954z M307.513,541.85c-29.314,0-53.077-23.763-53.077-53.079s23.763-53.079,53.077-53.079
	s53.077,23.763,53.077,53.079S336.828,541.85,307.513,541.85z M307.513,178.061c-29.314,0-53.077-23.763-53.077-53.079
	c0-29.315,23.763-53.078,53.077-53.078s53.077,23.763,53.077,53.078S336.828,178.061,307.513,178.061z M489.405,359.954
	c-29.315,0-53.079-23.763-53.079-53.077s23.763-53.077,53.079-53.077c29.315,0,53.079,23.763,53.079,53.077
	S518.72,359.954,489.405,359.954z"/>
</svg>
