<?xml version="1.0" encoding="utf-8"?>
<!-- Generator: Adobe Illustrator 17.0.0, SVG Export Plug-In . SVG Version: 6.00 Build 0)  -->
<!DOCTYPE svg PUBLIC "-//W3C//DTD SVG 1.1//EN" "http://www.w3.org/Graphics/SVG/1.1/DTD/svg11.dtd">
<svg version="1.1" id="Layer_1" xmlns="http://www.w3.org/2000/svg" xmlns:xlink="http://www.w3.org/1999/xlink" x="0px" y="0px"
	 width="613px" height="613px" viewBox="0 0 613 613" enable-background="new 0 0 613 613" xml:space="preserve">
<path d="M558.257,295.594l25.136-3.905l-9.959-64.107l-25.639,3.983c-6.304-21.025-15.335-41.159-26.847-59.855l20.414-16.431
	l-40.678-50.539l-20.603,16.583c-15.557-14.769-33.185-27.705-52.684-38.297l9.673-24.979l-60.498-23.429l-9.678,24.99
	c-21.587-5.306-43.368-7.609-64.852-7.152l-4.072-26.215l-64.107,9.959l4.043,26.027c-21.04,6.067-41.217,14.85-59.986,26.118
	l-16.29-20.239l-50.539,40.678l15.975,19.847c-15.123,15.572-28.367,33.299-39.243,52.933l-23.336-9.037l-23.429,60.497l22.85,8.849
	c-5.593,21.975-8.072,44.167-7.677,66.056l-23.522,3.654l9.959,64.107l23.126-3.592c6.125,21.498,15.092,42.102,26.638,61.237
	l-18.029,14.512l40.678,50.539l17.75-14.287c15.933,15.403,34.099,28.854,54.255,39.812l-8.127,20.987l60.498,23.429l8.123-20.975
	c22.238,5.474,44.684,7.773,66.798,7.138l3.485,22.436l64.107-9.959l-3.532-22.736c21.484-6.367,42.05-15.572,61.109-27.367
	l14.652,18.203l50.539-40.678l-14.898-18.51c15.043-15.918,28.163-33.997,38.834-54.015l22.669,8.779l23.429-60.497l-23.156-8.967
	C556.801,339.331,558.95,317.299,558.257,295.594z M308.275,515.534c-43.04-112.723-186.055-148.108-189.425-254.25
	c-3.594-113.156,136.436-134.876,189.425-43.037c53.083-100.251,185.563-62.901,188.869,43.037
	C500.669,374.215,353.738,402.801,308.275,515.534z"/>
</svg>
