<?xml version="1.0" encoding="utf-8"?>
<!-- Generator: Adobe Illustrator 17.0.0, SVG Export Plug-In . SVG Version: 6.00 Build 0)  -->
<!DOCTYPE svg PUBLIC "-//W3C//DTD SVG 1.1//EN" "http://www.w3.org/Graphics/SVG/1.1/DTD/svg11.dtd">
<svg version="1.1" id="Layer_1" xmlns="http://www.w3.org/2000/svg" xmlns:xlink="http://www.w3.org/1999/xlink" x="0px" y="0px"
	 width="613px" height="613px" viewBox="0 0 613 613" enable-background="new 0 0 613 613" xml:space="preserve">
<path d="M588.446,188.446C583.605,27.254,389.683-29.577,311.98,122.96C234.414-16.775,29.438,16.273,34.699,188.446
	c4.935,161.5,184.676,226.452,277.281,386.852C404.496,415.056,593.607,360.275,588.446,188.446z M552.456,269.506
	c-45.651,97.24-171.937,152.922-240.838,269.461c-68.05-115.096-185.807-176.762-235.253-269.461h0.921
	c-0.493-1.255-0.752-2.522-0.752-3.802c0-26.35,106.545-47.712,237.975-47.712s237.975,21.361,237.975,47.712
	c0,1.28-0.259,2.548-0.752,3.802H552.456z M557.892,135.525c-4.453,19.591-35.008,22.059-68.246,5.513s-56.573-45.841-52.12-65.432
	s35.008-22.059,68.246-5.513S562.345,115.934,557.892,135.525z"/>
<path d="M146.051,77.707c-5.058,22.074,21.447,55.08,59.2,73.723s72.458,15.862,77.515-6.212c5.058-22.073-21.447-55.08-59.2-73.723
	S151.109,55.634,146.051,77.707z"/>
</svg>
