<?xml version="1.0" encoding="utf-8"?>
<!-- Generator: Adobe Illustrator 17.0.0, SVG Export Plug-In . SVG Version: 6.00 Build 0)  -->
<!DOCTYPE svg PUBLIC "-//W3C//DTD SVG 1.1//EN" "http://www.w3.org/Graphics/SVG/1.1/DTD/svg11.dtd">
<svg version="1.1" id="Layer_1" xmlns="http://www.w3.org/2000/svg" xmlns:xlink="http://www.w3.org/1999/xlink" x="0px" y="0px"
	 width="613px" height="613px" viewBox="0 0 613 613" enable-background="new 0 0 613 613" xml:space="preserve">
<path d="M365.701,93.508c43.9-33.778,62.982,37.323,36.955,56.462C368.619,174.999,329.169,121.616,365.701,93.508z"/>
<path d="M330.897,31.142c39.964,9.865,19.117,52.373-4.182,46.129C296.247,69.107,297.641,22.933,330.897,31.142z"/>
<path d="M559.113,63.939v-0.005c-6.963,0.277-12.845,2.239-15.96,4.859c-44.391,37.33,38.212,104.568,27.758,158.218
	c-12.551,64.4-63.745,39.47-95.764,4.164c-114.032-125.751-4.538,0.157-22.899,88.823c-12.492,60.319-94.708,23.164-133.93,2.082
	c-54.661-29.378-113.531-94.537-174.177-84.659c-61.34,9.993-49.181,68.339-9.715,58.985c53.8-12.751,103.352-1.347,108.253,71.475
	c3.894,57.855-32.914,106.203-99.981,70.628c-15.978-8.475-31.88-16.477-56.903,2.777c-30.878,23.758-25.641,59.039-5.86,78.86
	c41.83,28.315,111.135,25.352,171.899,11.672c-51.326,34.451-147.674,46.013-200.165,7.783c-13.573,3.652-26.519,3.32-33.824,4.542
	v48.576H434.72c64.996-26.496,99.89-86.966,117.909-147.859c18.615,37.485-0.414,99.664-42.397,147.859h82.189V83.369
	C584.941,67.767,570.717,63.476,559.113,63.939z M364.238,478.455c-58.043,80.537-135.982-20.062-46.96-84.757v-0.003
	c47.271-34.352,182.769-34.055,181.327,43.872C497.354,505.24,394.575,436.36,364.238,478.455z M542.044,358.557
	c-47.7,19.883-83.274-44.335-31.779-66.996C572.145,264.331,578.519,343.352,542.044,358.557z"/>
</svg>
