<?xml version="1.0" encoding="utf-8"?>
<!-- Generator: Adobe Illustrator 17.0.0, SVG Export Plug-In . SVG Version: 6.00 Build 0)  -->
<!DOCTYPE svg PUBLIC "-//W3C//DTD SVG 1.1//EN" "http://www.w3.org/Graphics/SVG/1.1/DTD/svg11.dtd">
<svg version="1.1" id="Layer_1" xmlns="http://www.w3.org/2000/svg" xmlns:xlink="http://www.w3.org/1999/xlink" x="0px" y="0px"
	 width="613px" height="613px" viewBox="0 0 613 613" enable-background="new 0 0 613 613" xml:space="preserve">
<path d="M455.568,151.762l19.215,5.149l23.022-85.918L295.368,16.75l-8.527,31.823c-116,0.817-204.884,152.448-238.482,277.839
	l13.598,68.674c57.134-170.36,137.625-271.444,213.113-291.687l28.475,7.63c-73.236,22.211-139.962,96.072-166.698,195.853
	c-26.921,100.472-5.594,198.465,47.524,254.124l46.017,12.33c0.887,2.426,1.823,4.757,2.807,6.989l1.559-5.819l42.618,11.42
	l-1.559,5.819c1.969-1.44,3.945-2.992,5.926-4.649l52.048,13.946c73.832-21.643,141.298-95.844,168.219-196.316
	C528.743,304.944,507.886,207.615,455.568,151.762z"/>
</svg>
