<?xml version="1.0" encoding="utf-8"?>
<!-- Generator: Adobe Illustrator 17.0.0, SVG Export Plug-In . SVG Version: 6.00 Build 0)  -->
<!DOCTYPE svg PUBLIC "-//W3C//DTD SVG 1.1//EN" "http://www.w3.org/Graphics/SVG/1.1/DTD/svg11.dtd">
<svg version="1.1" id="Layer_1" xmlns="http://www.w3.org/2000/svg" xmlns:xlink="http://www.w3.org/1999/xlink" x="0px" y="0px"
	 width="613px" height="613px" viewBox="0 0 613 613" enable-background="new 0 0 613 613" xml:space="preserve">
<path d="M190.503,36.712v112.583l245.338-61.036V36.711C435.841,36.712,190.503,36.712,190.503,36.712z M435.841,109.999
	l-245.338,61.036v53.864l245.338-61.745V109.999z"/>
<path d="M455.153,36.799h33.208v536.042h-33.208V36.799z"/>
<path d="M136.552,36.799h33.208v536.042h-33.208V36.799z"/>
<path d="M190.503,444.313v54.051h80.945c4.567-21.012,22.152-36.681,43.143-36.681s38.538,15.671,43.106,36.681h78.144v-52.855
	L190.503,444.313L190.503,444.313z M190.503,519.468v52.444h245.338v-52.444h-77.994c-4.384,21.279-22.088,37.204-43.255,37.204
	s-38.87-15.927-43.255-37.204H190.503z"/>
</svg>
