<?xml version="1.0" encoding="utf-8"?>
<!-- Generator: Adobe Illustrator 17.0.0, SVG Export Plug-In . SVG Version: 6.00 Build 0)  -->
<!DOCTYPE svg PUBLIC "-//W3C//DTD SVG 1.1//EN" "http://www.w3.org/Graphics/SVG/1.1/DTD/svg11.dtd">
<svg version="1.1" id="Layer_1" xmlns="http://www.w3.org/2000/svg" xmlns:xlink="http://www.w3.org/1999/xlink" x="0px" y="0px"
	 width="612px" height="612px" viewBox="0 0 612 612" enable-background="new 0 0 612 612" xml:space="preserve">
<g transform="matrix(15 0 0 15 -4304 -2204)">
	<path d="M307.333,148.208c-10.563,0-19.125,8.563-19.125,19.125c0,10.563,8.562,19.125,19.125,19.125s19.125-8.563,19.125-19.125
		S317.896,148.208,307.333,148.208z M307.333,152.99c7.922,0,14.344,6.422,14.344,14.344s-6.422,14.344-14.344,14.344
		s-14.344-6.422-14.344-14.344C292.99,159.412,299.411,152.99,307.333,152.99z"/>
</g>
<g>
	<g transform="matrix(30 0 0 30 -16304 -21954.866)">
	</g>
	<g transform="matrix(15 0 0 15 -8864 -13489.433)">
		<path d="M611.333,907.742c-5.281,0-9.563,3.211-9.563,7.172c0,2.391,4.781,2.391,4.781,0c0-1.32,2.141-2.391,4.781-2.391
			c2.641,0,4.781,1.07,4.781,2.391c0,1.32-2.391,1.195-4.781,2.391c-0.149,0.075-0.277,0.17-0.374,0.262
			c-1.975,1.251-2.017,3.398-2.017,4.52v1.195c0,1.324,1.066,2.391,2.391,2.391c1.324,0,2.391-1.066,2.391-2.391v-1.195
			c0-3.586,7.172-3.211,7.172-7.172C620.896,910.953,616.615,907.742,611.333,907.742z"/>
		<path d="M611.333,926.867c1.32,0,2.391,1.07,2.391,2.391c0,1.32-1.07,2.391-2.391,2.391c-1.32,0-2.391-1.07-2.391-2.391
			C608.943,927.938,610.013,926.867,611.333,926.867"/>
	</g>
</g>
</svg>
