<?xml version="1.0" encoding="utf-8"?>
<!-- Generator: Adobe Illustrator 17.0.0, SVG Export Plug-In . SVG Version: 6.00 Build 0)  -->
<!DOCTYPE svg PUBLIC "-//W3C//DTD SVG 1.1//EN" "http://www.w3.org/Graphics/SVG/1.1/DTD/svg11.dtd">
<svg version="1.1" id="Layer_1" xmlns="http://www.w3.org/2000/svg" xmlns:xlink="http://www.w3.org/1999/xlink" x="0px" y="0px"
	 width="612px" height="612px" viewBox="0 0 612 612" enable-background="new 0 0 612 612" xml:space="preserve">
<g transform="matrix(15 0 0 15 -3224 -4364)">
	<g>
		<path d="M235.333,292.208c-10.562,0-19.125,8.563-19.125,19.125s8.563,19.125,19.125,19.125s19.125-8.563,19.125-19.125
			S245.896,292.208,235.333,292.208z M235.333,296.99c7.922,0,14.344,6.422,14.344,14.344s-6.422,14.344-14.344,14.344
			s-14.344-6.422-14.344-14.344C220.99,303.411,227.412,296.99,235.333,296.99z"/>
		<path d="M244.896,305.357c0,0-1.613,3.399-2.05,5.139c-0.571,2.276,0.234,3.506-0.596,5.712c-0.359,0.647,0.771,1.66,0.746,2.25
			c-0.022,0.498-1.973,1.557-2.402,1.77c-0.429,0.214-2.974,1.164-3.704,1.167c-0.772,0.004-0.739-1.695-2.047-1.696
			c-1.918-0.002-6.921-1.465-6.921-1.465c-0.757-0.195-2.151-0.08-2.151-0.926s0.991-1.464,1.871-1.466l3.468,0.304
			c0.842-0.053,1.725-0.546,1.752-1.648c-0.014-1.631-0.175-2.883-1.003-4.207l-3.214-5.015c-0.192-0.399-0.238-1.08,0.318-1.384
			c0.556-0.304,1.187,0.148,1.403,0.541l3.59,4.884c0.383,0.357,1.065,0.425,1.007-0.334l-1.585-7.268
			c-0.099-0.516,0.163-1.142,0.761-1.142c0.784,0,1.267,0.299,1.252,0.774l1.743,7.171c0.136,0.349,0.619,0.302,0.749-0.02
			l0.497-6.974c0.025-0.222,0.316-0.61,0.873-0.529s0.878,0.677,0.819,0.908l-0.161,6.89c0.113,0.611,0.593,0.7,0.967,0.359
			l2.439-4.362c0.148-0.366,0.729-0.442,1.064-0.297C244.692,304.699,244.896,304.972,244.896,305.357L244.896,305.357z"/>
	</g>
</g>
</svg>
