<?xml version="1.0" encoding="utf-8"?>
<!-- Generator: Adobe Illustrator 17.0.0, SVG Export Plug-In . SVG Version: 6.00 Build 0)  -->
<!DOCTYPE svg PUBLIC "-//W3C//DTD SVG 1.1//EN" "http://www.w3.org/Graphics/SVG/1.1/DTD/svg11.dtd">
<svg version="1.1" id="Layer_1" xmlns="http://www.w3.org/2000/svg" xmlns:xlink="http://www.w3.org/1999/xlink" x="0px" y="0px"
	 width="613px" height="613px" viewBox="0 0 613 613" enable-background="new 0 0 613 613" xml:space="preserve">
<path d="M307.656,38.291L307.656,38.291c-140.352,65.94-257.025,257.992-286.72,401.268c85.754,0,148.461,27.309,193.73,75.344
	l12.531-13.69c-33.537-34.508-77.62-62.655-135.742-90.696c31.247-77.734,78.894-195.405,139.485-202.254
	c23.71-2.681,49.1,11.634,76.718,51.919c86.455-143.761,168.557,46.091,216.203,150.335
	c-57.003,30.905-100.998,59.145-135.028,94.116l11.038,12.417c44.626-47.524,107.172-77.491,194.505-77.491
	C559.154,298.074,450.932,108.026,307.656,38.291z"/>
<path d="M270.65,366.43c0,15.036-20.115,23.324-44.928,18.514s-44.928-20.898-44.928-35.934c0-15.035,20.115-23.324,44.928-18.514
	C250.535,335.306,270.65,351.394,270.65,366.43z"/>
<path d="M340.937,366.43c0,15.036,20.115,23.324,44.928,18.514c24.813-4.81,44.928-20.898,44.928-35.934
	c0-15.035-20.115-23.324-44.928-18.514C361.051,335.306,340.937,351.394,340.937,366.43z"/>
</svg>
