<?xml version="1.0" encoding="utf-8"?>
<!-- Generator: Adobe Illustrator 17.0.0, SVG Export Plug-In . SVG Version: 6.00 Build 0)  -->
<!DOCTYPE svg PUBLIC "-//W3C//DTD SVG 1.1//EN" "http://www.w3.org/Graphics/SVG/1.1/DTD/svg11.dtd">
<svg version="1.1" id="Layer_1" xmlns="http://www.w3.org/2000/svg" xmlns:xlink="http://www.w3.org/1999/xlink" x="0px" y="0px"
	 width="613px" height="613px" viewBox="0 0 613 613" enable-background="new 0 0 613 613" xml:space="preserve">
<g>
	<path d="M580.334,302.019l-15.107,5.526c-3.053-36.562-14.598-74.313-34.564-110.45l-30.061,21.118
		c-27.097-47.915-63.391-95.9-107.935-140.443c-32.888,62.551-71.811,117.781-116.375,166.085L57.224,24.127H18.131v37.697
		l220.229,220.229c-50.109,46.844-106.348,86.132-168.276,118.302c41.123,41.123,85.18,75.216,129.408,101.533l-22.145,31.514
		c41.237,22.787,84.578,34.603,125.855,35.341l-6.004,16.411c63.436,15.729,124.96,4.764,167.641-29.025l-0.012-0.008
		c-15.156,3.618-32.061,5.224-50.147,4.751c-70.274-23.063-155.324-78.074-233.65-156.402l79.565-79.564l60.937,46.443
		l-18.573,18.575l94.036,49.354L382.8,453.475l132.563,69.572l-69.581-132.56l-14.898,14.899l-49.358-94.036l-17.863,17.865
		l-46.441-60.934l79.566-79.565c81.773,81.773,138.153,170.882,159.274,242.846c-0.359,13.567-1.954,26.35-4.757,38.085l0.009,0.017
		C585.094,426.976,596.056,365.455,580.334,302.019z"/>
	<polygon points="70.082,400.356 70.084,400.355 70.082,400.353 	"/>
</g>
</svg>
