<?xml version="1.0" encoding="utf-8"?>
<!-- Generator: Adobe Illustrator 17.0.0, SVG Export Plug-In . SVG Version: 6.00 Build 0)  -->
<!DOCTYPE svg PUBLIC "-//W3C//DTD SVG 1.1//EN" "http://www.w3.org/Graphics/SVG/1.1/DTD/svg11.dtd">
<svg version="1.1" id="Layer_1" xmlns="http://www.w3.org/2000/svg" xmlns:xlink="http://www.w3.org/1999/xlink" x="0px" y="0px"
	 width="613px" height="613px" viewBox="0 0 613 613" enable-background="new 0 0 613 613" xml:space="preserve">
<g>
	<path d="M549.777,364.733l-124.762,39.041l68.49-231.699l-166.942,205.39l-34.278-146.683l-16.045,80.157
		c-42.88-111.798-108.521-216.866-167.883-288.96H17.86v56.91c80.317,78.123,155.215,207.048,191.794,335.591L107.595,279.864
		l43.284,185.87l-99.3-53.469l56.015,109.485l-75.536-6.79l67.054,66.195h108.272l-34.226-49.954l58.677,15.443l0.557-20.891h0.001
		l1.503-56.315l48.383,55.587l0,0l0,0l34.287-68.572c0,0,0,0,0,0l14.096-28.191l-1.03,108.089l49.413-37.059l-35.086,81.864H509.04
		l79.778-119.669l-101.847,28.008L549.777,364.733z"/>
	<polygon points="467.268,81.441 395.518,148.441 392.992,242.29 451.98,153.562 	"/>
	<polygon points="550.019,437.745 591.207,417.501 591.207,370.031 	"/>
</g>
</svg>
