<?xml version="1.0" encoding="utf-8"?>
<!-- Generator: Adobe Illustrator 17.0.0, SVG Export Plug-In . SVG Version: 6.00 Build 0)  -->
<!DOCTYPE svg PUBLIC "-//W3C//DTD SVG 1.1//EN" "http://www.w3.org/Graphics/SVG/1.1/DTD/svg11.dtd">
<svg version="1.1" id="Layer_1" xmlns="http://www.w3.org/2000/svg" xmlns:xlink="http://www.w3.org/1999/xlink" x="0px" y="0px"
	 width="613px" height="613px" viewBox="0 0 613 613" enable-background="new 0 0 613 613" xml:space="preserve">
<path d="M510.293,212.148c-48.628-41.114-74.25-121.793,10.036-165.225c-112.972,8.596-120.71,124.708-84.379,176.999
	c62.149,89.48,49.558,134.412,10.439,165.246c-4.29-11.26-9.353-22.488-14.887-33.698c-84.753,12.429-166.665,23.174-246.914,0
	c-7.045,12.603-12.695,25.205-16.96,37.808c-43.303-30.96-60.004-75.819,4.962-169.356c36.331-52.29,28.594-168.403-84.379-176.999
	c84.286,43.432,58.663,124.111,10.036,165.225c-108.801,92.016-98.52,246.348,70.84,296.603c4.04,10.827,9.182,21.654,15.501,32.482
	c82.305-8.204,164.609-7.775,246.914,0c8.834-12.193,15.378-24.294,19.987-36.318C609.242,451.05,616.457,301.934,510.293,212.148z"
	/>
</svg>
