<?xml version="1.0" encoding="utf-8"?>
<!-- Generator: Adobe Illustrator 17.0.0, SVG Export Plug-In . SVG Version: 6.00 Build 0)  -->
<!DOCTYPE svg PUBLIC "-//W3C//DTD SVG 1.1//EN" "http://www.w3.org/Graphics/SVG/1.1/DTD/svg11.dtd">
<svg version="1.1" id="Layer_1" xmlns="http://www.w3.org/2000/svg" xmlns:xlink="http://www.w3.org/1999/xlink" x="0px" y="0px"
	 width="613px" height="613px" viewBox="0 0 613 613" enable-background="new 0 0 613 613" xml:space="preserve">
<path display="none" d="M168.28,548.781h275.44v28.494H168.28V548.781z"/>
<path display="none" d="M168.28,413.339h275.44v40.366H168.28V413.339z"/>
<path display="none" d="M130.288,212.857h351.423v58.175H130.288V212.857z"/>
<g>
	<polygon points="195.619,458.774 416.331,458.774 430.928,363.698 181.022,363.698 	"/>
	<path d="M163.32,248.397l11.505,74.935h262.3l11.507-74.954c-41.398-16.899-90.354-26.67-142.819-26.646
		C253.462,221.755,204.625,231.528,163.32,248.397z"/>
	<path d="M505.553,279.462l40.373-222.439c-12.98-16.623-45.134-21.596-65.787-10.866l-11.774,76.693H143.585l-11.777-76.714
		c-20.653-10.73-52.807-5.756-65.787,10.866l40.381,222.488c0.049-0.035,0.099-0.069,0.147-0.104
		c-43.227,31.101-69.543,72.354-69.495,117.607c0,0.08,0,0.161,0,0.241c0.102,96.726,120.596,175.084,269.13,175.018
		s268.862-78.533,268.759-175.259c0-0.08,0-0.161,0-0.241C574.895,351.62,548.634,310.495,505.553,279.462z M406.674,521.678
		l5.283-34.409H199.993l5.279,34.388c-21.86-6.311-42.999-13.344-59.003-25.511l-39.385-216.998
		c16.413-11.766,35.253-22.066,56.003-30.575l-10.37-67.548h306.917l-10.367,67.528c20.75,8.506,39.589,18.806,56.005,30.568
		l-39.394,217.046C449.673,508.334,428.534,515.366,406.674,521.678z"/>
</g>
</svg>
