<?xml version="1.0" encoding="utf-8"?>
<!-- Generator: Adobe Illustrator 17.0.0, SVG Export Plug-In . SVG Version: 6.00 Build 0)  -->
<!DOCTYPE svg PUBLIC "-//W3C//DTD SVG 1.1//EN" "http://www.w3.org/Graphics/SVG/1.1/DTD/svg11.dtd">
<svg version="1.1" id="Layer_1" xmlns="http://www.w3.org/2000/svg" xmlns:xlink="http://www.w3.org/1999/xlink" x="0px" y="0px"
	 width="613px" height="613px" viewBox="0 0 613 613" enable-background="new 0 0 613 613" xml:space="preserve">
<g>
	<path d="M318.008,394.45c-23.172-40.134-82.311-29.725-80.781,18.246c1.595,49.959,73.087,79.077,80.781,107.791
		c7.044-26.276,82.049-59.915,80.545-107.791C397.072,365.526,341.746,353.337,318.008,394.45z"/>
	<path d="M408.561,194.902c63.531,71.014-48.048,100.407-68.982,50.548c-18.157-43.248,7.743-71.562,40.232-73.413
		c82.481-4.704,110.833-97.156,51.428-139.671c13.144,25.096,6.682,52.493-15.358,71.903
		C399.272,18.079,299.314-6.897,237.174,58.891c64.655-13.323,82.539,11.208,94.242,51.658
		c20.116,69.538-79.117,84.321-71.904-12.565c-30.325,19.086-40.737,63.19,0,101.92c27.104,25.766,15.977,62.828-16.057,62.828
		c-53.472,0.224-128.796-90.009-71.205-166.842c-42.33,16.25-71.084,30.648-80.978,71.207c-8.486-35.226,7.738-66.4,37.697-81.676
		C7.073,94.245,40.336,220.41,128.272,245.98c78.521,22.83,5.864,130.073-58.639,35.602
		c-6.972,134.193,76.651,157.745,162.652,216.403c37.983,25.906,55.404,41.482,55.404,66.029c0,42.417,62.933,42.992,62.933-3.758
		c0-25.314,21.74-41.408,63.862-67.856c68.975-43.306,122.166-108.98,122.166-155.673
		C536.651,254.116,485.363,228.254,408.561,194.902z M318.078,540.658c-12.157-45.367-125.103-91.37-127.623-170.292
		c-2.419-75.797,91.017-92.237,127.623-28.831c37.502-64.955,124.909-45.697,127.248,28.831
		C447.698,445.999,329.202,499.141,318.078,540.658z"/>
	<path d="M548.803,79.347c-82.696,78.264,21.729,77.215-2.395,190.79C647.915,138.952,529.506,136.222,548.803,79.347z"/>
</g>
</svg>
