<?xml version="1.0" encoding="utf-8"?>
<!-- Generator: Adobe Illustrator 17.0.0, SVG Export Plug-In . SVG Version: 6.00 Build 0)  -->
<!DOCTYPE svg PUBLIC "-//W3C//DTD SVG 1.1//EN" "http://www.w3.org/Graphics/SVG/1.1/DTD/svg11.dtd">
<svg version="1.1" id="Layer_1" xmlns="http://www.w3.org/2000/svg" xmlns:xlink="http://www.w3.org/1999/xlink" x="0px" y="0px"
	 width="613px" height="613px" viewBox="0 0 613 613" enable-background="new 0 0 613 613" xml:space="preserve">
<path d="M352.542,316.662v-20.244c67.249-31.965,116.581-135.668,116.581-258.989H148.701c0,122.596,48.542,226.37,115.183,258.989
	v20.244c-66.643,32.616-115.183,136.394-115.183,258.989h320.422C469.123,452.333,419.79,348.626,352.542,316.662z M203.326,156.41
	c63.395,28.381,143.359,28.354,212.218-4.887c-17.124,63.649-53.035,109.308-95.385,116.33c1.793,2.429,2.866,5.422,2.866,8.673
	c0,8.083-6.552,14.635-14.634,14.635s-14.634-6.553-14.634-14.635c0-3.298,1.104-6.331,2.944-8.778
	C255.694,260.589,220.841,217.255,203.326,156.41z M308.39,385.366c-8.082,0-14.634-6.553-14.634-14.635s6.552-14.635,14.634-14.635
	s14.634,6.553,14.634,14.635S316.472,385.366,308.39,385.366z M323.024,417.971c0,8.083-6.552,14.635-14.634,14.635
	s-14.634-6.553-14.634-14.635s6.552-14.635,14.634-14.635C316.472,403.336,323.024,409.889,323.024,417.971z M308.39,338.409
	c-8.082,0-14.634-6.553-14.634-14.635s6.552-14.635,14.634-14.635s14.634,6.553,14.634,14.635
	C323.024,331.856,316.472,338.409,308.39,338.409z M217.936,541.477c70.814-119.258,109.893-121.93,182.863,0H217.936z"/>
</svg>
