<?xml version="1.0" encoding="utf-8"?>
<!-- Generator: Adobe Illustrator 17.0.0, SVG Export Plug-In . SVG Version: 6.00 Build 0)  -->
<!DOCTYPE svg PUBLIC "-//W3C//DTD SVG 1.1//EN" "http://www.w3.org/Graphics/SVG/1.1/DTD/svg11.dtd">
<svg version="1.1" id="Layer_1" xmlns="http://www.w3.org/2000/svg" xmlns:xlink="http://www.w3.org/1999/xlink" x="0px" y="0px"
	 width="613px" height="613px" viewBox="0 0 613 613" enable-background="new 0 0 613 613" xml:space="preserve">
<path d="M300.248,34.105C57.637,37.636,72.802,309.265,148.705,523.548c-17.545,11.25-20.669,7.632-18.826,20.395
	c1.32,9.145,14.92,27.771,20.993,30.891s11.204,3.409,20.358,2.802s72.122-10.483,58.832-27.044
	C172.685,470.027,78.769,113.755,306,103.471c227.231,10.284,133.315,366.556,75.94,447.122
	c-13.29,16.561,49.678,26.437,58.832,27.044s14.285,0.319,20.358-2.802s19.672-21.747,20.993-30.891
	c1.843-12.763-1.281-9.145-18.826-20.395c75.902-214.283,91.068-485.912-151.543-489.443c-1.91-0.028-3.81-0.006-5.752,0
	C304.058,34.1,302.158,34.078,300.248,34.105L300.248,34.105z M245.711,60.589c8.252,0,14.941,6.689,14.941,14.941
	s-6.689,14.941-14.941,14.941S230.77,83.782,230.77,75.53C230.77,67.278,237.459,60.589,245.711,60.589z M366.289,60.589
	c8.252,0,14.941,6.689,14.941,14.941s-6.689,14.941-14.941,14.941s-14.941-6.689-14.941-14.941
	C351.347,67.278,358.037,60.589,366.289,60.589z M162.077,130.664c8.252,0,14.941,6.689,14.941,14.941s-6.689,14.941-14.941,14.941
	s-14.941-6.689-14.941-14.941S153.825,130.664,162.077,130.664z M449.923,130.664c8.252,0,14.941,6.689,14.941,14.941
	s-6.689,14.941-14.941,14.941s-14.941-6.689-14.941-14.941S441.671,130.664,449.923,130.664z M130.961,245.414
	c8.252,0,14.941,6.689,14.941,14.941s-6.689,14.941-14.941,14.941s-14.941-6.689-14.941-14.941S122.709,245.414,130.961,245.414z
	 M481.038,245.414c8.252,0,14.941,6.689,14.941,14.941s-6.689,14.941-14.941,14.941s-14.941-6.689-14.941-14.941
	S472.786,245.414,481.038,245.414z M141.308,367.934c8.252,0,14.941,6.689,14.941,14.941s-6.689,14.941-14.941,14.941
	s-14.941-6.689-14.941-14.941S133.056,367.934,141.308,367.934z M470.691,367.934c8.252,0,14.941,6.689,14.941,14.941
	s-6.689,14.941-14.941,14.941s-14.941-6.689-14.941-14.941S462.439,367.934,470.691,367.934z M165.961,468.415
	c8.252,0,14.941,6.689,14.941,14.941s-6.689,14.941-14.941,14.941s-14.941-6.689-14.941-14.941S157.71,468.415,165.961,468.415z
	 M446.038,468.415c8.252,0,14.941,6.689,14.941,14.941s-6.689,14.941-14.941,14.941s-14.941-6.689-14.941-14.941
	S437.786,468.415,446.038,468.415z"/>
</svg>
