<?xml version="1.0" encoding="utf-8"?>
<!-- Generator: Adobe Illustrator 17.0.0, SVG Export Plug-In . SVG Version: 6.00 Build 0)  -->
<!DOCTYPE svg PUBLIC "-//W3C//DTD SVG 1.1//EN" "http://www.w3.org/Graphics/SVG/1.1/DTD/svg11.dtd">
<svg version="1.1" id="Layer_1" xmlns="http://www.w3.org/2000/svg" xmlns:xlink="http://www.w3.org/1999/xlink" x="0px" y="0px"
	 width="613px" height="613px" viewBox="0 0 613 613" enable-background="new 0 0 613 613" xml:space="preserve">
<path d="M441.615,188.598l-33.526-8.98l13.932-51.996l43.181,11.57l19.524-72.868L294.358,15.315l-19.526,72.868l42.039,11.264
	l-13.933,51.999l-32.764-8.778c-45.415-12.17-91.969,14.068-104.136,59.479l-59.617,222.49
	c-12.168,45.414,14.826,92.174,60.241,104.339l171.441,45.937c45.415,12.17,91.41-15.031,103.58-60.447l59.615-222.487
	C513.465,246.566,487.029,200.771,441.615,188.598z M431.068,361.619c-19.365,63.951-112.598,62.048-157.296,123.498
	c-9.429-75.944-94.622-117.368-74.059-185.415c19.296-63.845,106.404-64.856,122.525,4.753
	C369.614,257.324,451.714,293.444,431.068,361.619z"/>
</svg>
