<?xml version="1.0" encoding="utf-8"?>
<!-- Generator: Adobe Illustrator 17.0.0, SVG Export Plug-In . SVG Version: 6.00 Build 0)  -->
<!DOCTYPE svg PUBLIC "-//W3C//DTD SVG 1.1//EN" "http://www.w3.org/Graphics/SVG/1.1/DTD/svg11.dtd">
<svg version="1.1" id="Layer_1" xmlns="http://www.w3.org/2000/svg" xmlns:xlink="http://www.w3.org/1999/xlink" x="0px" y="0px"
	 width="612px" height="612px" viewBox="0 0 612 612" enable-background="new 0 0 612 612" xml:space="preserve">
<g transform="matrix(15.00004 0 0 15.00004 -3764.0106 -4364.0128)">
	<path d="M290.458,301.771c0,0-3.226,6.799-4.099,10.279c-1.142,4.552,0.166,7.992-1.494,12.406
		c-2.869,5.177-3.063,6.014-13.532,6.003c-3.836-0.004-14.823-2.929-14.823-2.929c-1.515-0.389-4.301-0.16-4.301-1.852
		s1.982-2.927,3.743-2.932l6.935,0.609c1.685-0.106,3.449-1.092,3.503-3.296c-0.028-3.261-0.351-5.766-2.006-8.415l-6.429-10.03
		c-0.384-0.798-0.475-2.16,0.636-2.768s2.374,0.296,2.805,1.082l7.18,9.767c0.767,0.713,2.131,0.851,2.014-0.668l-3.171-14.536
		c-0.197-1.033,0.327-2.283,1.522-2.283c1.569,0,2.534,0.599,2.503,1.547l3.486,14.342c0.273,0.698,1.239,0.605,1.499-0.039
		l0.993-13.947c0.051-0.445,0.631-1.22,1.745-1.059c1.114,0.162,1.756,1.355,1.638,1.816l-0.322,13.781
		c0.226,1.222,1.186,1.4,1.934,0.718l4.879-8.725c0.296-0.732,1.457-0.884,2.129-0.594
		C290.051,300.456,290.458,301.002,290.458,301.771L290.458,301.771z"/>
</g>
</svg>
