<?xml version="1.0" encoding="utf-8"?>
<!-- Generator: Adobe Illustrator 17.0.0, SVG Export Plug-In . SVG Version: 6.00 Build 0)  -->
<!DOCTYPE svg PUBLIC "-//W3C//DTD SVG 1.1//EN" "http://www.w3.org/Graphics/SVG/1.1/DTD/svg11.dtd">
<svg version="1.1" id="Layer_1" xmlns="http://www.w3.org/2000/svg" xmlns:xlink="http://www.w3.org/1999/xlink" x="0px" y="0px"
	 width="613px" height="613px" viewBox="0 0 613 613" enable-background="new 0 0 613 613" xml:space="preserve">
<path d="M513.972,41.16L151.093,333.009l-14.815-15.135l-114.152,83.11c19.136,71.002,64.594,125.712,116.698,176.309l99.88-109.969
	l-73.022-78.927l3.2-9.624l54.719,68.383l44.785-47.766l6.859-33.395l31.707-7.738l4.867-29.647l28.903-6.375l1.909-26.488l31.365-9
	l3.61-24.841l26.44-7.22L411.8,228.9l25.968-10.179l7.474-21.852l20.932-8.451l5.038-19.304l20.96-8.415l4.197-18.523l20.624-7.95
	l4.619-20.535l18.918-4.564l2.994-20.547l17.323-1.127l20.194-21.54L513.972,41.16z M188.447,467.421l-45.219,48.422
	c-5.845-47.908-26.841-84.62-69.071-105.63l38.059-25.699L188.447,467.421z"/>
</svg>
