<?xml version="1.0" encoding="utf-8"?>
<!-- Generator: Adobe Illustrator 17.0.0, SVG Export Plug-In . SVG Version: 6.00 Build 0)  -->
<!DOCTYPE svg PUBLIC "-//W3C//DTD SVG 1.1//EN" "http://www.w3.org/Graphics/SVG/1.1/DTD/svg11.dtd">
<svg version="1.1" id="Layer_1" xmlns="http://www.w3.org/2000/svg" xmlns:xlink="http://www.w3.org/1999/xlink" x="0px" y="0px"
	 width="612px" height="612px" viewBox="0 0 612 612" enable-background="new 0 0 612 612" xml:space="preserve">
<g transform="matrix(15 0 0 15 -2144 -3824)">
</g>
<g transform="matrix(3.75 0 0 3.75 -1784 -2730.35818)">
	<path d="M538.208,733.193c-5.298,0-9.563,4.265-9.563,9.563v38.25h-38.25c-5.298,0-9.563,4.265-9.563,9.563v38.25
		c0,5.298,4.265,9.563,9.563,9.563h38.25v38.25c0,5.298,4.265,9.563,9.563,9.563h38.25c5.298,0,9.563-4.265,9.563-9.563v-38.25
		h38.25c5.298,0,9.563-4.265,9.563-9.563v-38.25c0-5.298-4.265-9.563-9.563-9.563h-38.25v-38.25c0-5.298-4.265-9.563-9.563-9.563
		H538.208z M538.208,776.225h38.25l-19.125,19.125L538.208,776.225z M538.208,800.131h38.25l-19.125,19.125L538.208,800.131z
		 M538.208,824.037h38.25l-19.125,19.125L538.208,824.037z"/>
</g>
</svg>
