<?xml version="1.0" encoding="utf-8"?>
<!-- Generator: Adobe Illustrator 17.0.0, SVG Export Plug-In . SVG Version: 6.00 Build 0)  -->
<!DOCTYPE svg PUBLIC "-//W3C//DTD SVG 1.1//EN" "http://www.w3.org/Graphics/SVG/1.1/DTD/svg11.dtd">
<svg version="1.1" id="Layer_1" xmlns="http://www.w3.org/2000/svg" xmlns:xlink="http://www.w3.org/1999/xlink" x="0px" y="0px"
	 width="613px" height="613px" viewBox="0 0 613 613" enable-background="new 0 0 613 613" xml:space="preserve">
<path d="M369.937,28.835c40.029,8.372,65.208,26.101,78.728,46.871c-18.51-3.165-36.645-5.375-54.381-6.642l-22.558-20.822
	l-23.023,19.654c-9.007,0.2-17.892,0.669-26.657,1.393l-35.21-19.364l-17.831,27.27c-9.676,2.121-19.174,4.594-28.483,7.428
	l-35.215-17.887l-13.521,36.777c-10.503,5.018-20.709,10.564-30.613,16.626l-39.076-6.337l-0.534,34.714
	c-7.559,6.281-14.897,12.916-22,19.917H57.38l4.27,43.765c-5.244,7.071-10.311,14.4-15.201,21.979l-24.37-4.386v47.171
	c-0.018,0.036-0.037,0.071-0.055,0.107l0.003,0.002v312.554h22.115c28.118-111.124,113.036-155.891,201.971-101.92
	c50.352,30.557,112.118,74.476,178.188,49.223c-1.078,9.498-3.911,18.654-8.247,26.939l113.972,22.963
	c3.572-9.26,6.659-18.783,9.098-28.166c-4.253,2.738-12.391,5.696-23.661,3.932c-49.368-7.733-39.595-64.576-0.605-69.803
	c13.048-1.742,25.269,3.837,32.934,13.435l21.854-46.464c-81.4,7.264-154.936-36.829-236.051-19.92l0.003,0.001
	c42.396,8.865,68.13,28.23,81.001,50.587c-8.765,0.675-17.232,0.713-25.426,0.187l-12.945-12.246l-16.294,7.694
	c-7.146-1.818-14.04-4.13-20.702-6.88L330,460.726l-13.015,7.127c-8.549-5.238-16.654-11.272-24.329-18.024l-2.16-31.967
	l-23.255,6.013c-8.971-9.115-18.105-16.357-27.335-21.927l-1.522-23.588l-28.525,11.223c-14.002-3.229-28.056-3.14-41.935-0.306
	c52.864-108.056,160.268-110.433,216.148-77.148c-6.248,6.789-13.63,12.36-21.684,16.455l79.562,84.774
	c8.281-5.476,16.314-11.442,23.742-17.678c-5.053-0.245-16.906-6.007-20.873-9.656c-41.275-37.936,8.471-76.29,39.283-58.088
	c11.337,6.697,18.367,17.774,19.051,30.037l41.521-28.507c-70.541-41.263-101.688-116.504-177.586-149.739l-0.004,0.001
	c27.607,29.85,37.888,58.728,37.002,83.396c-10.674-8.072-22.244-14.486-34.485-19.373l-16.519-25.396l-21.737,15.255
	c-6.207-0.906-12.509-1.507-18.889-1.811l-22.804-21.603L271.424,233.7c-9.471,1.275-18.998,3.105-28.52,5.463l-18.812-15.519
	l-11.672,24.866c-8.354,3.052-16.647,6.48-24.834,10.276l-28.214-9.927l-10.325,30.973c-14.644,9.28-28.642,19.708-41.672,31.142
	c41.192-164.601,247.042-204.611,352.737-181.225c-1.34,8.127-3.97,15.945-7.72,23.112l113.972,22.963
	c3.572-9.261,6.659-18.777,9.098-28.163c-4.253,2.735-8.96,6.362-14.299,5.634c-55.351-7.543-52.362-65.426-9.969-71.507
	c13.032-1.876,25.269,3.842,32.936,13.435c1.195-12.173,2.149-42.632,2.602-54.89C505.33,47.599,451.049,11.937,369.937,28.835z"/>
</svg>
