<?xml version="1.0" encoding="utf-8"?>
<!-- Generator: Adobe Illustrator 17.0.0, SVG Export Plug-In . SVG Version: 6.00 Build 0)  -->
<!DOCTYPE svg PUBLIC "-//W3C//DTD SVG 1.1//EN" "http://www.w3.org/Graphics/SVG/1.1/DTD/svg11.dtd">
<svg version="1.1" id="Layer_1" xmlns="http://www.w3.org/2000/svg" xmlns:xlink="http://www.w3.org/1999/xlink" x="0px" y="0px"
	 width="612px" height="612px" viewBox="0 0 612 612" enable-background="new 0 0 612 612" xml:space="preserve">
<path d="M553.557,161.373L300.706,15.555L47.854,161.373v291.636l252.851,145.818l252.853-145.819L553.557,161.373z
	 M235.423,422.113l-62.635,36.162l-62.635-36.162v-72.324l62.635-36.162l62.635,36.162V422.113z M172.788,313.622l-62.635-36.162
	v-72.324l62.635-36.162l62.635,36.162v72.324L172.788,313.622z M361.351,422.064v72.324l-62.635,36.162l-62.635-36.162v-72.324
	l62.469-36.067l-62.469-36.067v-72.324l62.635-36.162l62.635,36.162v72.324l-62.469,36.067L361.351,422.064z M298.716,241.347
	l-62.635-36.162v-72.324l62.635-36.162l62.635,36.162v72.324L298.716,241.347z M486.831,422.113l-62.635,36.162l-62.635-36.162
	v-72.324l62.635-36.162l62.635,36.162V422.113z M424.196,313.622l-62.635-36.162v-72.324l62.635-36.162l62.635,36.162v72.324
	L424.196,313.622z"/>
</svg>
