<?xml version="1.0" encoding="utf-8"?>
<!-- Generator: Adobe Illustrator 17.0.0, SVG Export Plug-In . SVG Version: 6.00 Build 0)  -->
<!DOCTYPE svg PUBLIC "-//W3C//DTD SVG 1.1//EN" "http://www.w3.org/Graphics/SVG/1.1/DTD/svg11.dtd">
<svg version="1.1" id="Layer_1" xmlns="http://www.w3.org/2000/svg" xmlns:xlink="http://www.w3.org/1999/xlink" x="0px" y="0px"
	 width="613px" height="613px" viewBox="0 0 613 613" enable-background="new 0 0 613 613" xml:space="preserve">
<path d="M522.338,220.094c4.026,128.095-196.666,218.084-215.511,288.421C286.236,431.676,94.953,353.764,90.68,220.094
	c-4.098-128.366,154.147-156.22,216.147-48.84C370.341,61.247,518.375,93.873,522.338,220.094z"/>
<path display="none" d="M307.451,104.172L470.992,305.33L307.451,506.487l-163.54-201.158L307.451,104.172z"/>
<g transform="matrix(-.95581,0,0,.95581,981.29867,131.81969)" display="none">
	<path display="inline" d="M631.849,394.006l74.153-177.579l74.153,177.588"/>
	<path display="inline" d="M880.475,204.649c3.251-103.546-174.212-233.15-174.212-233.15S534.986,96.591,531.537,204.649
		c-3.316,103.771,124.607,126.28,174.725,39.478C757.606,333.056,877.272,306.685,880.475,204.649z"/>
</g>
<g transform="matrix(-.95581,0,0,.95581,977.73048,131.8581)" display="none">
	<path display="inline" d="M627.263,395.088l75.026-179.67l75.026,179.679"/>
	<path display="inline" d="M701.707-29.664c-50.844,0-91.424,40.576-91.424,91.422c0,21.363,7.465,41.09,19.671,56.704
		c-4.192-0.597-8.38-1.149-12.731-1.149c-50.844,0-91.424,41.733-91.424,92.579s40.576,92.579,91.424,92.579
		c37.561,0,70.16-23.298,84.476-55.547c14.205,32.52,46.722,55.547,84.476,55.547c50.844,0,92.579-41.733,92.579-92.579
		s-41.735-92.579-92.579-92.579c-3.959,0-7.743,0.67-11.573,1.149c12.028-15.56,19.671-35.522,19.671-56.704
		c0-50.846-41.735-91.422-92.579-91.422L701.707-29.664L701.707-29.664z"/>
</g>
</svg>
