<?xml version="1.0" encoding="utf-8"?>
<!-- Generator: Adobe Illustrator 17.0.0, SVG Export Plug-In . SVG Version: 6.00 Build 0)  -->
<!DOCTYPE svg PUBLIC "-//W3C//DTD SVG 1.1//EN" "http://www.w3.org/Graphics/SVG/1.1/DTD/svg11.dtd">
<svg version="1.1" id="Layer_1" xmlns="http://www.w3.org/2000/svg" xmlns:xlink="http://www.w3.org/1999/xlink" x="0px" y="0px"
	 width="613px" height="613px" viewBox="0 0 613 613" enable-background="new 0 0 613 613" xml:space="preserve">
<path d="M515.404,191.393l20.718,4.765c12.548-54.62,18.153-109.76,16.754-164.748l-136.824,0.001v20.381H379h-20.21V21.861h-100.1
	v29.931H224h-22.26h-0.001v-20.38H60.729v-0.001c-1.416,54.952,4.298,110.164,16.754,164.748l20.722-4.719
	c4.999,23.509,11.433,46.918,19.278,70.162l-48.811,7.359l-0.001,0.003l75.42,158.953l35.852-32.158
	c12.028,20.027,25.183,39.82,39.496,59.323l42.337-31.348l-59.336,43.979c30.09,42.283,65.019,83.307,104.713,122.863
	c39.571-39.581,73.925-80.484,104.013-122.863l-17.119-12.636c14.374-19.625,27.592-39.549,39.679-59.715l36.294,32.555
	l75.42-158.953v-0.003l-49.388-7.446C503.917,238.286,510.377,214.89,515.404,191.393z M207.179,157.693h199.815
	c2.013,84.168-31.678,158.438-99.907,231.03C238.453,315.981,205.142,241.804,207.179,157.693z M352.525,424.432l0.002,0.001
	c-14.009,17.228-28.912,33.793-45.373,50.261c0,0-0.001-0.001-0.001-0.002C323.616,458.225,338.517,441.662,352.525,424.432z"/>
</svg>
