<?xml version="1.0" encoding="utf-8"?>
<!-- Generator: Adobe Illustrator 17.0.0, SVG Export Plug-In . SVG Version: 6.00 Build 0)  -->
<!DOCTYPE svg PUBLIC "-//W3C//DTD SVG 1.1//EN" "http://www.w3.org/Graphics/SVG/1.1/DTD/svg11.dtd">
<svg version="1.1" id="Layer_1" xmlns="http://www.w3.org/2000/svg" xmlns:xlink="http://www.w3.org/1999/xlink" x="0px" y="0px"
	 width="613px" height="613px" viewBox="0 0 613 613" enable-background="new 0 0 613 613" xml:space="preserve">
<path d="M500.488,345.597c67.774-86.609,105.285-198.2,99.448-321.717l-0.003,0.002c-82.564,91.116-248.775,65.737-316.97-2.465
	L193.622,60.33l57.704,57.702l-71.842,71.67l-57.616-57.614L88.302,216.08c10.293,10.292,19.62,22.811,27.756,36.897l-92.176,91.955
	v106.109l121.041-120.796c14.742,70.489,3.753,150.086-48.816,197.464c110.682,3.438,211.438-26.219,293.301-79.983l108.903,6.702
	L500.488,345.597z M232.564,242.781l71.829-71.683l26.071,26.07c19.799,19.792,19.799,51.961-0.002,71.761
	c-19.801,19.8-51.958,19.795-71.754-0.005L232.564,242.781z"/>
</svg>
