<?xml version="1.0" encoding="utf-8"?>
<!-- Generator: Adobe Illustrator 17.0.0, SVG Export Plug-In . SVG Version: 6.00 Build 0)  -->
<!DOCTYPE svg PUBLIC "-//W3C//DTD SVG 1.1//EN" "http://www.w3.org/Graphics/SVG/1.1/DTD/svg11.dtd">
<svg version="1.1" id="Layer_1" xmlns="http://www.w3.org/2000/svg" xmlns:xlink="http://www.w3.org/1999/xlink" x="0px" y="0px"
	 width="613px" height="613px" viewBox="0 0 613 613" enable-background="new 0 0 613 613" xml:space="preserve">
<path d="M547.202,149.832L325.227,21.675c-28.905-16.688-65.868-6.784-82.557,22.121L46.191,384.109
	c-16.689,28.905-6.784,65.868,22.121,82.557l221.975,128.157c28.905,16.689,65.868,6.784,82.557-22.121l196.479-340.313
	C586.012,203.484,576.107,166.521,547.202,149.832z M282.956,72.221c7.311-12.662,23.503-17.002,36.167-9.691
	c12.664,7.311,17.002,23.504,9.691,36.166c-7.311,12.663-23.503,17.002-36.167,9.691C279.983,101.076,275.645,84.883,282.956,72.221
	z M331.238,546.578c-7.311,12.663-23.503,17.002-36.167,9.691c-12.664-7.311-17.002-23.503-9.691-36.166
	c7.311-12.663,23.503-17.002,36.167-9.691C334.211,517.723,338.549,533.915,331.238,546.578z M416.874,358.826L416.874,358.826
	c-0.238,0.152-0.483,0.298-0.723,0.449c-0.851,0.534-1.712,1.059-2.582,1.574c-0.349,0.206-0.698,0.413-1.05,0.616
	c-1.06,0.613-2.129,1.216-3.215,1.802c-0.211,0.114-0.427,0.224-0.639,0.337c-0.964,0.513-1.938,1.016-2.921,1.51
	c-0.316,0.159-0.632,0.318-0.95,0.475c-1.155,0.569-2.32,1.128-3.499,1.672c-0.181,0.083-0.365,0.164-0.547,0.247
	c-1.073,0.49-2.157,0.969-3.248,1.438c-0.275,0.118-0.55,0.238-0.827,0.355c-1.241,0.526-2.491,1.041-3.752,1.543
	c-51.35,20.402-119.25,20.862-140.246,41.74c-0.05,0.048-0.104,0.095-0.153,0.144c4.45-16.939-3.327-40.962-12.817-68.025
	c-0.076-0.217-0.154-0.439-0.231-0.656c-0.57-1.624-1.146-3.259-1.725-4.904c-1.024-2.908-2.055-5.835-3.089-8.8
	c-8.605-24.667-17.11-51.146-18.346-76.677c-0.052-1.074-0.092-2.146-0.117-3.216c0-0.018-0.001-0.036-0.001-0.054
	c-0.15-6.322,0.175-12.576,1.07-18.724c0.037-0.256,0.069-0.514,0.109-0.77c0.11-0.716,0.237-1.43,0.363-2.143
	c0.072-0.408,0.141-0.817,0.219-1.224c0.121-0.636,0.255-1.27,0.39-1.903c0.103-0.484,0.206-0.968,0.316-1.45
	c0.133-0.581,0.276-1.16,0.42-1.738c0.134-0.535,0.272-1.069,0.416-1.602c0.145-0.536,0.295-1.072,0.451-1.606
	c0.168-0.576,0.343-1.15,0.522-1.723c0.155-0.495,0.312-0.99,0.476-1.483c0.207-0.619,0.425-1.236,0.646-1.851
	c0.161-0.448,0.319-0.896,0.488-1.341c0.256-0.677,0.529-1.35,0.803-2.023c0.157-0.384,0.308-0.77,0.471-1.153
	c0.337-0.791,0.695-1.578,1.059-2.363c0.122-0.263,0.234-0.527,0.359-0.789c0.504-1.059,1.031-2.113,1.585-3.161
	c0.512-0.967,1.037-1.908,1.571-2.833c0.124-0.215,0.251-0.424,0.376-0.637c0.417-0.709,0.841-1.406,1.271-2.091
	c0.148-0.235,0.296-0.47,0.445-0.702c0.461-0.717,0.928-1.42,1.402-2.11c0.099-0.144,0.196-0.293,0.296-0.436
	c0.591-0.847,1.191-1.675,1.802-2.481c0.046-0.061,0.093-0.118,0.139-0.178c0.55-0.72,1.108-1.422,1.673-2.109
	c0.154-0.188,0.31-0.371,0.465-0.556c0.483-0.576,0.972-1.14,1.466-1.692c0.154-0.173,0.308-0.347,0.463-0.517
	c0.602-0.659,1.209-1.304,1.825-1.929c0.032-0.033,0.064-0.068,0.096-0.1c0.672-0.679,1.353-1.335,2.041-1.973
	c0.114-0.106,0.23-0.207,0.344-0.311c0.56-0.512,1.125-1.011,1.695-1.497c0.175-0.149,0.351-0.296,0.526-0.443
	c0.549-0.457,1.102-0.902,1.659-1.336c0.149-0.116,0.297-0.234,0.446-0.349c1.415-1.08,2.856-2.083,4.32-3.012
	c0.165-0.105,0.332-0.205,0.498-0.308c0.571-0.355,1.145-0.698,1.723-1.03c0.194-0.111,0.388-0.223,0.582-0.331
	c0.614-0.344,1.231-0.674,1.851-0.993c0.128-0.066,0.254-0.135,0.383-0.2c0.762-0.385,1.529-0.752,2.301-1.099
	c0.083-0.038,0.168-0.071,0.251-0.109c0.669-0.298,1.341-0.581,2.017-0.851c0.209-0.084,0.419-0.164,0.629-0.245
	c0.575-0.222,1.151-0.434,1.73-0.637c0.211-0.074,0.423-0.15,0.635-0.221c0.69-0.233,1.382-0.452,2.076-0.657
	c0.08-0.024,0.159-0.051,0.24-0.074c0.78-0.227,1.563-0.434,2.348-0.627c0.194-0.048,0.389-0.089,0.584-0.135
	c0.587-0.138,1.175-0.267,1.764-0.386c0.254-0.051,0.508-0.1,0.763-0.148c0.559-0.105,1.119-0.2,1.68-0.289
	c0.236-0.037,0.473-0.077,0.709-0.112c0.775-0.112,1.552-0.213,2.33-0.293c0.083-0.009,0.166-0.013,0.249-0.022
	c0.696-0.069,1.393-0.125,2.091-0.17c0.277-0.018,0.555-0.029,0.833-0.043c0.513-0.025,1.026-0.045,1.538-0.057
	c0.303-0.007,0.605-0.013,0.908-0.016c0.522-0.004,1.044,0.001,1.566,0.01c0.269,0.005,0.538,0.005,0.807,0.013
	c0.745,0.023,1.49,0.059,2.233,0.109c0.284,0.019,0.567,0.048,0.85,0.071c0.491,0.04,0.983,0.083,1.473,0.135
	c0.346,0.037,0.691,0.078,1.037,0.121c0.433,0.053,0.865,0.112,1.297,0.174c0.355,0.051,0.711,0.102,1.065,0.16
	c0.451,0.073,0.9,0.155,1.349,0.238c0.466,0.086,0.931,0.175,1.396,0.271c0.551,0.114,1.101,0.232,1.649,0.362
	c0.385,0.091,0.768,0.191,1.151,0.288c0.368,0.094,0.736,0.189,1.102,0.289c0.402,0.11,0.804,0.225,1.204,0.343
	c0.341,0.101,0.682,0.206,1.022,0.312c0.411,0.129,0.822,0.256,1.23,0.393c0.308,0.103,0.613,0.214,0.92,0.322
	c0.793,0.279,1.582,0.572,2.367,0.882c0.273,0.107,0.546,0.212,0.817,0.323c0.44,0.181,0.878,0.37,1.316,0.56
	c0.271,0.118,0.542,0.237,0.811,0.358c0.444,0.2,0.887,0.404,1.328,0.614c0.237,0.113,0.471,0.23,0.707,0.346
	c1.563,0.768,3.103,1.598,4.614,2.49c0.181,0.107,0.362,0.211,0.542,0.319c0.463,0.279,0.922,0.565,1.379,0.856
	c0.19,0.121,0.38,0.243,0.569,0.366c0.468,0.304,0.935,0.61,1.397,0.926c0.106,0.072,0.21,0.148,0.316,0.221
	c1.564,1.082,3.091,2.233,4.576,3.45c0.132,0.108,0.265,0.216,0.396,0.325c0.455,0.378,0.905,0.763,1.352,1.154
	c0.123,0.107,0.244,0.216,0.366,0.325c1.521,1.351,2.995,2.771,4.411,4.265c0.009,0.009,0.017,0.018,0.026,0.027
	c0.437,0.462,0.867,0.933,1.293,1.408c0.104,0.116,0.209,0.233,0.313,0.35c0.417,0.47,0.829,0.946,1.235,1.429
	c0.068,0.081,0.135,0.164,0.203,0.245c1.31,1.574,2.562,3.214,3.749,4.919c0.056,0.08,0.112,0.159,0.168,0.239
	c0.366,0.53,0.725,1.067,1.078,1.609c0.087,0.133,0.173,0.268,0.259,0.402c0.355,0.552,0.706,1.109,1.048,1.674
	c6.816,11.26,10.972,24.968,11.047,40.568c13.478-7.868,27.023-11.454,39.697-11.617l0,0.003
	c11.175-0.143,21.671,2.381,30.841,6.992c0.012,0.006,0.024,0.012,0.035,0.018c0.589,0.296,1.171,0.602,1.749,0.916
	c0.033,0.018,0.065,0.035,0.098,0.053c0.559,0.304,1.111,0.617,1.659,0.938c0.051,0.03,0.102,0.06,0.153,0.09
	c0.531,0.313,1.058,0.633,1.579,0.96c0.064,0.04,0.128,0.081,0.192,0.121c0.508,0.321,1.011,0.65,1.508,0.984
	c0.074,0.05,0.148,0.101,0.223,0.151c0.486,0.33,0.967,0.667,1.443,1.01c0.082,0.059,0.163,0.119,0.245,0.179
	c0.467,0.34,0.929,0.685,1.386,1.037c0.086,0.066,0.17,0.133,0.255,0.2c0.45,0.351,0.895,0.706,1.335,1.068
	c0.088,0.073,0.175,0.147,0.263,0.22c0.434,0.361,0.864,0.727,1.287,1.099c0.088,0.078,0.175,0.157,0.262,0.236
	c0.419,0.373,0.835,0.75,1.244,1.134c0.086,0.081,0.169,0.164,0.255,0.245c0.407,0.387,0.811,0.776,1.207,1.174
	c0.078,0.078,0.154,0.159,0.231,0.238c0.4,0.406,0.797,0.814,1.186,1.231c0.055,0.059,0.109,0.121,0.164,0.181
	c1.631,1.761,3.157,3.618,4.575,5.56c0.133,0.182,0.27,0.36,0.401,0.543c0.2,0.28,0.391,0.566,0.586,0.849
	c0.199,0.289,0.401,0.576,0.596,0.869c0.167,0.251,0.326,0.508,0.489,0.762c0.213,0.332,0.429,0.663,0.636,1
	c0.146,0.237,0.286,0.479,0.428,0.718c0.215,0.36,0.431,0.72,0.638,1.085c0.13,0.229,0.255,0.462,0.383,0.693
	c0.211,0.382,0.422,0.764,0.625,1.151c0.117,0.223,0.23,0.45,0.344,0.675c0.204,0.401,0.407,0.802,0.602,1.208
	c0.105,0.219,0.207,0.44,0.31,0.661c0.196,0.419,0.39,0.84,0.576,1.264c0.093,0.212,0.183,0.426,0.274,0.639
	c0.187,0.439,0.371,0.88,0.549,1.324c0.082,0.206,0.162,0.414,0.242,0.621c0.177,0.457,0.349,0.916,0.515,1.378
	c0.072,0.201,0.142,0.402,0.212,0.604c0.165,0.475,0.325,0.952,0.479,1.433c0.062,0.194,0.123,0.389,0.183,0.584
	c0.153,0.494,0.299,0.99,0.44,1.489c0.053,0.187,0.105,0.374,0.156,0.562c0.14,0.514,0.273,1.03,0.399,1.55
	c0.043,0.177,0.086,0.354,0.128,0.531c0.126,0.538,0.245,1.079,0.358,1.622c0.034,0.163,0.068,0.325,0.101,0.488
	c0.112,0.565,0.216,1.134,0.313,1.705c0.025,0.145,0.051,0.29,0.075,0.436c0.097,0.596,0.185,1.195,0.265,1.797
	c0.017,0.125,0.035,0.249,0.051,0.373c0.081,0.635,0.151,1.274,0.214,1.916c0.009,0.093,0.02,0.186,0.029,0.28
	c0.064,0.687,0.116,1.378,0.158,2.072c0.003,0.05,0.007,0.1,0.01,0.15c0.131,2.265,0.146,4.567,0.038,6.902l0.003-0.005
	c-0.488,10.521-3.47,21.695-9.486,33.044C439.115,341.299,429.022,351.073,416.874,358.826z"/>
</svg>
