<?xml version="1.0" encoding="utf-8"?>
<!-- Generator: Adobe Illustrator 17.0.0, SVG Export Plug-In . SVG Version: 6.00 Build 0)  -->
<!DOCTYPE svg PUBLIC "-//W3C//DTD SVG 1.1//EN" "http://www.w3.org/Graphics/SVG/1.1/DTD/svg11.dtd">
<svg version="1.1" id="Layer_1" xmlns="http://www.w3.org/2000/svg" xmlns:xlink="http://www.w3.org/1999/xlink" x="0px" y="0px"
	 width="613px" height="613px" viewBox="0 0 613 613" enable-background="new 0 0 613 613" xml:space="preserve">
<path d="M537.956,587.433L503.65,476.462h-47.042V250.961l73.1-90.619V27.518h-77.006v62.65h-46.874v-62.65h-77.843v62.65H281.95
	v-62.65h-77.843v62.65h-46.035v-62.65H81.065h-0.007v132.824l73.102,90.621v225.499h-47.039L72.815,587.433H537.956z
	 M292.422,223.919c0.499,0.555,0.993,1.119,1.483,1.693c0.135,0.159,0.269,0.321,0.404,0.481c0.487,0.58,0.972,1.164,1.45,1.764
	c0.04,0.05,0.079,0.103,0.119,0.154c0.853,1.077,1.686,2.193,2.506,3.335c0.282,0.393,0.566,0.781,0.843,1.181
	c0.285,0.41,0.564,0.831,0.844,1.249c0.344,0.513,0.686,1.029,1.023,1.555c0.24,0.373,0.477,0.749,0.714,1.128
	c0.396,0.637,0.787,1.284,1.174,1.939c0.176,0.298,0.354,0.592,0.528,0.894c0.566,0.981,1.123,1.976,1.666,2.996
	c0,0,0-0.001,0.001-0.001c0,0,0,0.001,0,0.001c0.066-0.113,0.135-0.221,0.201-0.334c0.486-0.829,0.98-1.647,1.485-2.45
	c0.238-0.378,0.484-0.745,0.726-1.117c0.341-0.525,0.683-1.051,1.032-1.565c0.299-0.439,0.604-0.869,0.908-1.299
	c0.297-0.421,0.595-0.841,0.898-1.254c0.348-0.475,0.701-0.944,1.057-1.408c0.259-0.339,0.52-0.676,0.783-1.01
	c0.4-0.507,0.803-1.011,1.211-1.505c0.209-0.253,0.42-0.502,0.631-0.751c0.466-0.552,0.935-1.102,1.411-1.638
	c0.108-0.122,0.219-0.24,0.328-0.361c1.194-1.328,2.416-2.61,3.669-3.839h-0.016c32.193-31.578,83.031-30.18,108.632,0h-0.004
	c0.638,0.752,1.26,1.522,1.866,2.31c0.029,0.037,0.056,0.077,0.084,0.114c0.561,0.733,1.109,1.481,1.642,2.244
	c0.124,0.178,0.242,0.364,0.365,0.543c0.428,0.628,0.851,1.261,1.259,1.909c0.172,0.273,0.335,0.554,0.504,0.831
	c0.345,0.567,0.688,1.136,1.018,1.718c0.196,0.345,0.382,0.699,0.572,1.05c0.285,0.526,0.569,1.053,0.841,1.59
	c0.207,0.41,0.406,0.828,0.606,1.244c0.237,0.492,0.472,0.986,0.698,1.488c0.211,0.468,0.413,0.944,0.614,1.421
	c0.196,0.465,0.391,0.931,0.578,1.404c0.207,0.523,0.405,1.052,0.601,1.585c0.162,0.441,0.321,0.883,0.475,1.33
	c0.198,0.576,0.389,1.159,0.574,1.746c0.131,0.416,0.259,0.835,0.383,1.257c0.185,0.629,0.364,1.264,0.534,1.905
	c0.104,0.393,0.204,0.789,0.302,1.186c0.169,0.682,0.331,1.37,0.482,2.065c0.08,0.367,0.154,0.738,0.229,1.109
	c0.149,0.738,0.292,1.48,0.42,2.233c0.058,0.338,0.11,0.68,0.163,1.021c0.126,0.797,0.246,1.598,0.349,2.411
	c0.038,0.302,0.07,0.608,0.105,0.912c0.1,0.863,0.194,1.731,0.268,2.612c0.021,0.252,0.035,0.509,0.055,0.762
	c0.071,0.942,0.134,1.889,0.176,2.85c0.098,2.287,0.122,4.624,0.045,7.025c-2.471,77.302-107.235,103.068-138.763,185.159
	c-33.305-82.096-140.937-102.921-138.354-185.159c0.071-2.255,0.236-4.46,0.465-6.628c0.093-0.878,0.203-1.745,0.32-2.609
	c0.038-0.281,0.075-0.564,0.116-0.843c0.123-0.839,0.26-1.67,0.406-2.496c0.051-0.29,0.103-0.579,0.157-0.867
	c0.153-0.816,0.317-1.624,0.493-2.426c0.062-0.282,0.126-0.563,0.19-0.843c0.185-0.803,0.378-1.6,0.585-2.389
	c0.068-0.258,0.139-0.514,0.209-0.77c0.219-0.804,0.446-1.603,0.688-2.392c0.065-0.211,0.135-0.419,0.201-0.63
	c0.261-0.827,0.529-1.648,0.815-2.458c0.041-0.115,0.085-0.228,0.126-0.342c1.671-4.661,3.742-9.027,6.154-13.081
	c0.082-0.138,0.16-0.279,0.243-0.416c0.401-0.664,0.816-1.314,1.235-1.96c0.136-0.21,0.27-0.423,0.408-0.632
	c0.4-0.604,0.811-1.196,1.226-1.784c0.169-0.239,0.336-0.479,0.508-0.716c0.408-0.563,0.824-1.117,1.246-1.665
	c0.19-0.247,0.38-0.493,0.573-0.737c0.42-0.532,0.847-1.058,1.281-1.576c0.204-0.244,0.411-0.486,0.618-0.727
	C211.62,193.749,261.034,189.022,292.422,223.919z"/>
</svg>
