<?xml version="1.0" encoding="utf-8"?>
<!-- Generator: Adobe Illustrator 17.0.0, SVG Export Plug-In . SVG Version: 6.00 Build 0)  -->
<!DOCTYPE svg PUBLIC "-//W3C//DTD SVG 1.1//EN" "http://www.w3.org/Graphics/SVG/1.1/DTD/svg11.dtd">
<svg version="1.1" id="Layer_1" xmlns="http://www.w3.org/2000/svg" xmlns:xlink="http://www.w3.org/1999/xlink" x="0px" y="0px"
	 width="613px" height="613px" viewBox="0 0 613 613" enable-background="new 0 0 613 613" xml:space="preserve">
<path d="M196.586,345.218l-41.951-72.001l41.952-72.001h83.902l41.951,72.001l-41.952,72.001H196.586z"/>
<path d="M331.387,272.075l-41.951-72.001l41.952-72.001h83.902l41.951,72.001l-41.952,72.001H331.387z"/>
<path d="M58.828,268.041L16.877,196.04l41.952-72.001h83.902l41.951,72.001l-41.952,72.001H58.828z"/>
<path d="M194.611,189.725l-41.951-72.001l41.952-72.001h83.902l41.951,72.001l-41.952,72.001H194.611z"/>
<path d="M330.387,579.184l-41.951-72.001l41.952-72.001h83.902l41.951,72.001l-41.952,72.001H330.387z"/>
<path d="M462.727,501.152l-41.951-72.001l41.952-72.001h83.902l41.951,72.001l-41.952,72.001H462.727z"/>
<path d="M196.586,499.182l-41.951-72.001l41.952-72.001h83.902l41.951,72.001l-41.952,72.001H196.586z"/>
<path d="M330.387,424.181l-41.951-72.001l41.952-72.001h83.902l41.951,72.001l-41.952,72.001H330.387z"/>
<path d="M62.828,423.995l-41.951-72.001l41.951-72.001h83.902l41.951,72.001l-41.952,72.001H62.828z"/>
<path d="M465.727,194.04l-41.951-72.001l41.952-72.001h83.902l41.951,72.001l-41.952,72.001H465.727z"/>
</svg>
