<?xml version="1.0" encoding="utf-8"?>
<!-- Generator: Adobe Illustrator 17.0.0, SVG Export Plug-In . SVG Version: 6.00 Build 0)  -->
<!DOCTYPE svg PUBLIC "-//W3C//DTD SVG 1.1//EN" "http://www.w3.org/Graphics/SVG/1.1/DTD/svg11.dtd">
<svg version="1.1" id="Layer_1" xmlns="http://www.w3.org/2000/svg" xmlns:xlink="http://www.w3.org/1999/xlink" x="0px" y="0px"
	 width="613px" height="613px" viewBox="0 0 613 613" enable-background="new 0 0 613 613" xml:space="preserve">
<g>
	<path d="M103.638,45.297l304.179,118.191c-0.767,10.164-3.582,19.424-7.095,27.496l141.252,49.392
		c7.833-14.115,14.416-28.543,20.043-43.21c-6.474,4.487-14.328,7.124-22.801,7.124c-22.137,0-40.082-17.946-40.082-40.083
		c0-3.744,0.524-7.363,1.484-10.801l0-0.001c1.611-5.769,4.478-11.011,8.292-15.415c7.35-8.488,18.196-13.866,30.305-13.866
		c17.284,0,32.012,10.94,37.639,26.274c4.795-18.438,8.599-37.124,11.93-55.928l-292.35-52.444
		c36.566,17.015,61.937,34.09,79.143,50.604L108.75,26.225C92.154,21.78,85.186,40.348,103.638,45.297z M439.373,92.317
		l58.737,12.296l-11.809,15.573l0,0l-6.739,8.887l-15.869-14.514l-0.001,0L439.373,92.317z"/>
	<polygon points="124.344,273.749 124.346,273.755 124.345,273.748 	"/>
	<path d="M124.005,363.139L38.843,102.865c-4.975-16.443-24.427-12.571-18.896,5.716l64.242,321.451
		c-10.333,6.307-21.292,9.417-31.388,10.892l32.542,146.057c16.124-0.79,31.854-2.808,47.282-5.764
		c-7.227-3.133-13.61-8.415-18.079-15.614c-7.085-11.413-7.732-24.996-2.951-36.525l0.001,0c0.769-1.854,1.679-3.654,2.724-5.384
		c0.014-0.024,0.028-0.047,0.043-0.071c1.025-1.69,2.184-3.309,3.466-4.847c0.049-0.058,0.096-0.118,0.145-0.176
		c0.62-0.735,1.271-1.45,1.949-2.145c0.082-0.084,0.167-0.165,0.25-0.248c0.636-0.64,1.296-1.261,1.981-1.862
		c0.068-0.06,0.134-0.123,0.203-0.182c0.709-0.613,1.45-1.201,2.21-1.77c0.162-0.121,0.327-0.241,0.492-0.36
		c0.777-0.563,1.57-1.11,2.398-1.624c0.001-0.001,0.002-0.001,0.003-0.002c0.534-0.331,1.074-0.644,1.616-0.948
		c0.163-0.091,0.326-0.177,0.49-0.266c0.394-0.213,0.79-0.419,1.188-0.618c0.177-0.088,0.353-0.176,0.531-0.262
		c0.44-0.211,0.883-0.413,1.328-0.608c0.117-0.051,0.234-0.107,0.352-0.157c0.556-0.236,1.116-0.458,1.678-0.668
		c0.152-0.057,0.305-0.108,0.458-0.162c0.417-0.15,0.836-0.293,1.256-0.429c0.199-0.064,0.399-0.126,0.599-0.187
		c0.396-0.12,0.792-0.233,1.19-0.341c0.188-0.051,0.376-0.104,0.564-0.152c0.558-0.142,1.117-0.274,1.678-0.392
		c0.142-0.03,0.285-0.053,0.428-0.081c0.432-0.085,0.864-0.165,1.297-0.236c0.234-0.038,0.469-0.072,0.703-0.106
		c0.348-0.051,0.696-0.096,1.045-0.138c0.248-0.029,0.495-0.059,0.743-0.083c0.367-0.037,0.735-0.065,1.102-0.091
		c0.286-0.02,0.573-0.041,0.859-0.055c0.457-0.023,0.915-0.039,1.372-0.046c0.283-0.004,0.566-0.001,0.849,0.001
		c0.286,0.002,0.573,0.005,0.859,0.012c0.304,0.008,0.607,0.019,0.911,0.035c0.259,0.013,0.518,0.031,0.777,0.049
		c0.317,0.022,0.634,0.042,0.951,0.071c0.158,0.015,0.315,0.036,0.473,0.052c0.689,0.073,1.375,0.163,2.059,0.27
		c0.195,0.031,0.39,0.06,0.585,0.093c0.356,0.062,0.711,0.129,1.065,0.2c0.182,0.036,0.364,0.075,0.545,0.114
		c0.371,0.08,0.742,0.161,1.112,0.252c0.088,0.021,0.175,0.046,0.263,0.068c0.874,0.22,1.741,0.467,2.598,0.745
		c0.016,0.005,0.031,0.01,0.047,0.015c0.404,0.132,0.805,0.273,1.205,0.417c0.112,0.041,0.225,0.081,0.337,0.123
		c0.398,0.148,0.795,0.301,1.189,0.462c0.067,0.027,0.134,0.057,0.201,0.084c1.292,0.535,2.558,1.138,3.792,1.808
		c0.051,0.028,0.102,0.054,0.153,0.082c0.397,0.218,0.79,0.443,1.181,0.675c0.062,0.037,0.123,0.074,0.185,0.112
		c1.249,0.751,2.463,1.571,3.632,2.462l0,0c3.772,2.875,7.099,6.465,9.749,10.734c9.117,14.684,7.59,32.968-2.469,45.836
		c18.194-5.652,36.076-12.276,53.808-19.365L124.346,273.755C128.869,311.24,128.177,340.426,124.005,363.139z M166.371,473.215
		l-6.538-0.577l0-0.001l-22.395-1.976l7.141-38.082l3.071-16.378L166.371,473.215z"/>
	<polygon points="368.347,296.149 368.351,296.153 368.348,296.148 	"/>
	<path d="M595.31,487.745L368.351,296.153c22.507,32.088,35.827,58.937,42.658,81.447L40.709,28.865
		C28.561,16.717,13.24,29.312,26.747,42.827l377.176,414.432c-5.718,8.31-12.721,14.851-19.736,20.038l97.631,113.4
		c13.842-8.307,26.756-17.511,38.962-27.4c-7.849,0.649-15.969-0.995-23.307-5.231c-11.637-6.718-18.619-18.392-19.843-30.816
		c-0.191-1.939-0.24-3.896-0.147-5.856c0.005-0.101,0.01-0.203,0.015-0.304c0.024-0.434,0.054-0.868,0.092-1.301
		c0.01-0.109,0.022-0.218,0.033-0.328c0.124-1.284,0.313-2.567,0.563-3.844c0.044-0.224,0.086-0.448,0.134-0.672
		c0.068-0.318,0.143-0.635,0.219-0.953c0.066-0.274,0.135-0.548,0.207-0.822c0.076-0.288,0.152-0.575,0.234-0.862
		c0.101-0.351,0.21-0.7,0.321-1.049c0.068-0.213,0.13-0.427,0.201-0.64c0.184-0.546,0.381-1.09,0.59-1.632
		c0.075-0.194,0.156-0.386,0.234-0.58c0.155-0.384,0.314-0.768,0.482-1.149c0.089-0.204,0.182-0.406,0.275-0.609
		c0.179-0.389,0.366-0.776,0.558-1.162c0.087-0.175,0.172-0.351,0.262-0.525c0.287-0.554,0.583-1.105,0.898-1.651
		c0.313-0.543,0.641-1.072,0.975-1.594c0.102-0.159,0.207-0.315,0.311-0.472c0.244-0.37,0.494-0.736,0.749-1.095
		c0.116-0.164,0.232-0.327,0.35-0.489c0.287-0.393,0.581-0.778,0.88-1.158c0.08-0.101,0.157-0.206,0.237-0.306
		c0.375-0.467,0.76-0.922,1.153-1.369c0.117-0.133,0.239-0.262,0.358-0.394c0.286-0.316,0.576-0.628,0.871-0.934
		c0.151-0.157,0.304-0.312,0.458-0.466c0.286-0.287,0.577-0.568,0.871-0.846c0.145-0.137,0.288-0.276,0.434-0.41
		c0.419-0.384,0.845-0.759,1.279-1.124c0.139-0.117,0.282-0.227,0.423-0.342c0.311-0.254,0.625-0.505,0.943-0.749
		c0.198-0.152,0.399-0.301,0.6-0.449c0.272-0.2,0.546-0.397,0.822-0.59c0.212-0.148,0.423-0.297,0.637-0.441
		c0.3-0.201,0.604-0.395,0.909-0.587c0.337-0.213,0.677-0.421,1.02-0.623c0.294-0.174,0.588-0.348,0.887-0.514
		c0.263-0.147,0.53-0.287,0.796-0.427c0.234-0.123,0.468-0.245,0.704-0.364c0.285-0.143,0.57-0.284,0.858-0.42
		c0.212-0.101,0.427-0.196,0.64-0.293c1.09-0.493,2.199-0.937,3.326-1.33c0.165-0.058,0.331-0.117,0.497-0.172
		c0.36-0.12,0.721-0.235,1.084-0.345c0.147-0.044,0.294-0.087,0.441-0.13c1.298-0.377,2.614-0.691,3.944-0.937
		c0.045-0.008,0.089-0.018,0.133-0.026c0.432-0.078,0.866-0.148,1.301-0.212c0.091-0.013,0.183-0.026,0.274-0.039
		c1.884-0.264,3.79-0.396,5.703-0.39c0.048,0,0.097,0,0.145,0c0.475,0.003,0.95,0.014,1.426,0.034c0.009,0,0.018,0.001,0.027,0.001
		c1.473,0.063,2.948,0.209,4.418,0.438c4.753,0.74,9.454,2.342,13.87,4.892c14.968,8.642,22.253,25.481,19.46,41.573
		C570.386,516.644,583.024,502.364,595.31,487.745z M502.704,447.993l-11.714,4.931l0,0l-16.58,6.98l-16.426-51.925L502.704,447.993
		z"/>
	<polygon points="296.43,42.025 296.435,42.026 296.43,42.023 	"/>
</g>
</svg>
