<?xml version="1.0" encoding="utf-8"?>
<!-- Generator: Adobe Illustrator 17.0.0, SVG Export Plug-In . SVG Version: 6.00 Build 0)  -->
<!DOCTYPE svg PUBLIC "-//W3C//DTD SVG 1.1//EN" "http://www.w3.org/Graphics/SVG/1.1/DTD/svg11.dtd">
<svg version="1.1" id="Layer_1" xmlns="http://www.w3.org/2000/svg" xmlns:xlink="http://www.w3.org/1999/xlink" x="0px" y="0px"
	 width="613px" height="613px" viewBox="0 0 613 613" enable-background="new 0 0 613 613" xml:space="preserve">
<g>
	<polygon points="444.749,201.412 587.855,144.169 587.855,42.948 587.855,42.945 	"/>
	<polygon points="407.05,20.606 384.014,127.412 468.481,20.606 	"/>
	<polygon points="587.855,312.405 587.855,264.239 587.855,264.236 486.634,297.047 	"/>
	<path d="M395.179,216.07C338.352,140.267,268.528,93.813,219.262,96h0.002c-11.368,0.504-21.968,3.148-30.716,9.074
		c-20.277,13.737-13.497,44.39-27.226,75.393c-46.9,105.923-94.26,182.754-136.127,239.444v123.56
		c73.61-25.513,183.238-51.934,343.457-57.243c33.617-1.115,59.421,15.052,79.582,1.396c49.77-33.716,31.743-146.409-39.79-252.008
		C403.974,229.017,399.844,222.288,395.179,216.07z M237.423,177.955c19.274-11.717,70.579,32.483,114.592,98.725
		s64.067,129.44,44.792,141.157c-7.923,4.816-21.26,0.178-37.275-11.549c-22.845-23.149-47.23-52.94-70.436-87.197
		c-23.016-33.976-41.685-67.54-54.89-97.331C228.023,199.471,228.601,183.318,237.423,177.955z"/>
</g>
</svg>
