<?xml version="1.0" encoding="utf-8"?>
<!-- Generator: Adobe Illustrator 17.0.0, SVG Export Plug-In . SVG Version: 6.00 Build 0)  -->
<!DOCTYPE svg PUBLIC "-//W3C//DTD SVG 1.1//EN" "http://www.w3.org/Graphics/SVG/1.1/DTD/svg11.dtd">
<svg version="1.1" id="Layer_1" xmlns="http://www.w3.org/2000/svg" xmlns:xlink="http://www.w3.org/1999/xlink" x="0px" y="0px"
	 width="612px" height="612px" viewBox="0 0 612 612" enable-background="new 0 0 612 612" xml:space="preserve">
<g transform="matrix(15 0 0 15 -524 -4526.9327)">
	<g>
		<path d="M52.943,329.965c-3.586-11.953,3.586-11.953,0-23.906h4.781c3.586,11.953-3.586,11.953,0,23.906H52.943z"/>
		<path d="M36.208,335.941v2.391h38.25v-2.391c0-2.391,0-2.391-2.391-2.391c0,0-1.195-2.391-2.391-2.391
			c-2.391,0-2.391,3.586-4.781,3.586c-2.391,0-2.391-3.586-4.781-3.586s-2.391,3.586-4.781,3.586s-2.391-3.586-4.781-3.586
			s-2.391,3.586-4.781,3.586s-2.391-3.586-4.781-3.586c-1.195,0-2.391,2.391-2.391,2.391
			C36.208,333.551,36.208,333.551,36.208,335.941z"/>
		<path d="M43.38,329.965c-3.586-11.953,3.586-11.953,0-23.906h4.781c3.586,11.953-3.586,11.953,0,23.906H43.38z"/>
		<path d="M62.505,329.965c-3.586-11.953,3.586-11.953,0-23.906h4.781c3.586,11.953-3.586,11.953,0,23.906H62.505z"/>
	</g>
</g>
</svg>
