<?xml version="1.0" encoding="utf-8"?>
<!-- Generator: Adobe Illustrator 17.0.0, SVG Export Plug-In . SVG Version: 6.00 Build 0)  -->
<!DOCTYPE svg PUBLIC "-//W3C//DTD SVG 1.1//EN" "http://www.w3.org/Graphics/SVG/1.1/DTD/svg11.dtd">
<svg version="1.1" id="Layer_1" xmlns="http://www.w3.org/2000/svg" xmlns:xlink="http://www.w3.org/1999/xlink" x="0px" y="0px"
	 width="613px" height="613px" viewBox="0 0 613 613" enable-background="new 0 0 613 613" xml:space="preserve">
<g>
	<path d="M202.414,512.718c-6.69,27.917-31.795,48.675-61.763,48.675c-3.586,0-7.098-0.312-10.522-0.883l-22.548,33.689h123.012
		l22.61-84.334c-7.517,5.998-17.037,9.593-27.402,9.593C217.204,519.458,209.19,516.982,202.414,512.718z"/>
	<path d="M389.734,389.058c3.94-3.802,7.587-7.904,10.905-12.271l190.838,128.381V381.476l-171.621-46.347
		c1.157-5.329,1.916-10.807,2.242-16.401l90.883,6.318c-4.115-5.565-6.551-12.447-6.551-19.899
		c0-18.506,15.003-33.508,33.508-33.508s33.508,15.002,33.508,33.508c0,9.125-3.653,17.394-9.57,23.437l27.601,1.919V227.88
		l-176.076,46.83c-1.919-5.061-4.21-9.938-6.845-14.596l182.921-90.002V19.916h-4.076L538.6,68.717
		c16.507,4.848,28.563,20.098,28.563,38.174c0,21.976-17.815,39.791-39.791,39.791c-18.075,0-33.326-12.057-38.174-28.563
		l-79.168,79.168c4.004,5.962,6.342,13.136,6.342,20.857c0,12.464-6.093,23.498-15.457,30.307
		c-14.281-18.96-34.75-32.996-58.409-39.1c3.957-16.443,18.752-28.664,36.409-28.664c4.612,0,9.027,0.838,13.108,2.363
		L501.766,19.918H378.077l-50.596,186.7c-3.827-0.417-7.713-0.637-11.651-0.637c-0.445,0-0.888,0.011-1.332,0.017l12.607-186.08
		H224.48l9.871,36.943c30.014,2.568,53.579,27.729,53.579,58.407c0,19.918-9.94,37.505-25.12,48.103l13.42,50.225
		c-3.925,1.574-7.736,3.373-11.414,5.384l-22.751-46.487c-4.114,0.914-8.385,1.412-12.774,1.412
		c-32.385,0-58.639-26.254-58.639-58.639c0-18.19,8.284-34.444,21.283-45.2l-24.544-50.15H17.195h-0.003v4.077l218.439,218.439
		c-2.579,2.952-4.994,6.048-7.239,9.274L17.192,109.626v123.692l48.968,13.189c-0.144-1.376-0.22-2.772-0.22-4.186
		c0-21.976,17.816-39.791,39.791-39.791c21.975,0,39.791,17.815,39.791,39.791c0,8.789-2.855,16.908-7.681,23.492l74.849,20.159
		c-0.979,3.825-1.744,7.735-2.295,11.714L17.193,284.291v102.624l194.638-51.662c0.858,3.929,1.927,7.779,3.206,11.533
		L17.193,443.321v150.878h4.077l64.508-64.34c-5.491-9.397-8.652-20.323-8.652-31.992c0-35.084,28.442-63.526,63.526-63.526
		c11.729,0,22.707,3.192,32.136,8.735l61.896-61.734c2.824,3.323,5.847,6.47,9.053,9.423l-28.055,41.918
		c3.25-0.766,6.635-1.183,10.119-1.183c18.611,0,34.511,11.567,40.933,27.9l12.582-46.93c4.517,1.649,9.179,2.995,13.959,4.026
		l-12.387,177.703h102.624l-46.82-177.35c5.245-1.042,10.351-2.469,15.288-4.251l47.849,98.052
		c6.984-11.461,19.599-19.114,34.002-19.114c21.975,0,39.791,17.815,39.791,39.791s-17.815,39.791-39.791,39.791
		c-1.567,0-3.109-0.101-4.629-0.277l11.399,23.359h150.878v-3.398L389.734,389.058z"/>
</g>
</svg>
