<?xml version="1.0" encoding="utf-8"?>
<!-- Generator: Adobe Illustrator 17.0.0, SVG Export Plug-In . SVG Version: 6.00 Build 0)  -->
<!DOCTYPE svg PUBLIC "-//W3C//DTD SVG 1.1//EN" "http://www.w3.org/Graphics/SVG/1.1/DTD/svg11.dtd">
<svg version="1.1" id="Layer_1" xmlns="http://www.w3.org/2000/svg" xmlns:xlink="http://www.w3.org/1999/xlink" x="0px" y="0px"
	 width="613px" height="613px" viewBox="0 0 613 613" enable-background="new 0 0 613 613" xml:space="preserve">
<path d="M451.961,56.402C311.988-24.412,133.006,23.547,52.192,163.52S19.337,482.476,159.31,563.289
	s318.955,32.855,399.769-107.119S591.934,137.215,451.961,56.402z M418.535,114.167c99.165,57.254,138.531,178.284,96.23,281.364
	L219.931,100.697C282.405,75.203,355.576,77.817,418.535,114.167z M192.455,505.747C93.256,448.474,53.896,327.38,96.268,224.277
	l294.897,294.897C328.667,544.713,255.45,542.118,192.455,505.747z M444.983,487.934L127.543,170.494
	c11.421-14.61,24.393-27.504,38.548-38.58l317.42,317.421C472.098,463.951,459.132,476.852,444.983,487.934z"/>
</svg>
