<?xml version="1.0" encoding="utf-8"?>
<!-- Generator: Adobe Illustrator 17.0.0, SVG Export Plug-In . SVG Version: 6.00 Build 0)  -->
<!DOCTYPE svg PUBLIC "-//W3C//DTD SVG 1.1//EN" "http://www.w3.org/Graphics/SVG/1.1/DTD/svg11.dtd">
<svg version="1.1" id="Layer_1" xmlns="http://www.w3.org/2000/svg" xmlns:xlink="http://www.w3.org/1999/xlink" x="0px" y="0px"
	 width="613px" height="613px" viewBox="0 0 613 613" enable-background="new 0 0 613 613" xml:space="preserve">
<g>
	<path d="M500.865,333.607c4.727,56.755-51.308,150.453-118.384,164.158c-63.81,13.037-131.035-20.446-153.666-87.932
		c27.51,48.43,92.379,67.564,136.311,25.701c-76.595,25.978-132.359-59.198-139.735-123.055c-1.613,3.966-3.004,7.892-4.196,11.775
		c-49.753,73.082-33.221,173.15,38.501,226.148c73.474,54.293,177.166,38.725,231.458-34.75l0.003-0.002
		C531.708,460.767,533.285,389.027,500.865,333.607z"/>
	<path d="M323.418,267.551c35.145-15.7,45.384-58.655,5.194-84.592c-73.635-47.522-110.032,98.79-197.128,79.981l-0.001,0.003
		c67.537,66.382,101.619-34.91,164.344-45.749C318.178,213.331,339.169,237.704,323.418,267.551z"/>
	<path d="M306.02,146.775c53.901,16.506,96.983,61.963,102.613,114.336c2.075,19.319,0.377,37.732-7.211,52.97h0.002
		c35.32-11.732,58.177-38.97,54.482-73.349c-5.202-48.418-60.209-91.484-122.139-95.927
		C323.643,144.078,315.139,145.477,306.02,146.775z"/>
	<path d="M381.354,260.27c-0.433-6.032-2.119-11.231-3.795-16.788c-6.011,31.314-32.059,54.292-66.029,54.314
		c-12.531,0.011-24.806-2.185-35.52-7.716c10.906,21.961,30.895,37.431,53.194,37.409
		C360.611,327.458,384.006,297.176,381.354,260.27z"/>
	<path d="M210.654,204.215c-63.207,11.701-161.002-16.593-158.665-97.439C10.455,189.934,120.153,278.036,210.654,204.215z"/>
	<path d="M376.181,126.394c-64.715-101.138-138.124,5.529-220.143-3.592c-29.225-3.248-48.209-39.062-19.412-68.508
		c-48.864,6.149-74.705,52.85-32.092,97.166C182.607,232.651,272.528,74.121,376.181,126.394z"/>
	<polygon points="376.184,126.396 376.181,126.394 376.181,126.395 	"/>
	<path d="M362.364,71.432c14.683,8.299,27.432,18.318,35.898,30.155l0.002-0.003c3.432-26.023-8.562-52.515-34.687-67.282
		c-36.794-20.797-86.532-10.4-110.655,22.94c-3.945,5.452-5.803,11.016-7.943,16.884C275.123,51.316,322.563,48.935,362.364,71.432z
		"/>
	<path d="M262.118,333.984c20.076,74.556,100.783,89.502,158.047,57.368c-8.095,27.577-28.249,57.498-65.403,80.922
		c86.225-15.781,135-112.156,121.632-194.119l-0.003,0.003C441.637,358.222,337.487,372.097,262.118,333.984z"/>
</g>
</svg>
