<?xml version="1.0" encoding="utf-8"?>
<!-- Generator: Adobe Illustrator 17.0.0, SVG Export Plug-In . SVG Version: 6.00 Build 0)  -->
<!DOCTYPE svg PUBLIC "-//W3C//DTD SVG 1.1//EN" "http://www.w3.org/Graphics/SVG/1.1/DTD/svg11.dtd">
<svg version="1.1" id="Layer_1" xmlns="http://www.w3.org/2000/svg" xmlns:xlink="http://www.w3.org/1999/xlink" x="0px" y="0px"
	 width="613px" height="613px" viewBox="0 0 613 613" enable-background="new 0 0 613 613" xml:space="preserve">
<path d="M570.121,277.104c-30.148,1.789-66.323-9.243-95.029-31.862c-17.747-13.984-29.865-30.174-35.924-46.11
	c28.924-23.436,46.563-54.572,46.563-88.726c0-5.708-6.84-10.941-18.613-15.573c-1.627,6.437-5.225,13.063-10.633,18.947
	c0,0-0.001-0.001-0.001-0.001c-0.817,0.888-1.671,1.761-2.57,2.612c-15.152,14.353-36.118,17.544-46.829,7.128
	c-0.001-0.001-0.002-0.002-0.003-0.003c-0.463-0.45-0.89-0.924-1.299-1.409c-0.078-0.092-0.158-0.184-0.234-0.277
	c-0.385-0.474-0.746-0.962-1.082-1.466c-0.065-0.098-0.127-0.198-0.191-0.298c-0.33-0.515-0.643-1.04-0.923-1.582
	c-0.009-0.017-0.019-0.033-0.027-0.05c-0.285-0.555-0.537-1.128-0.77-1.71c-0.045-0.112-0.091-0.224-0.135-0.337
	c-0.217-0.569-0.412-1.149-0.581-1.741c-0.031-0.108-0.058-0.217-0.087-0.326c-0.161-0.595-0.303-1.197-0.416-1.811
	c-0.006-0.03-0.013-0.06-0.019-0.09c-0.114-0.635-0.197-1.282-0.261-1.934c-0.012-0.122-0.025-0.245-0.035-0.367
	c-0.054-0.641-0.086-1.29-0.092-1.946c-0.001-0.107,0.002-0.216,0.002-0.324c0.001-0.654,0.021-1.312,0.069-1.978
	c0.003-0.039,0.003-0.078,0.006-0.117c0.052-0.687,0.134-1.381,0.234-2.078c0.018-0.127,0.036-0.255,0.056-0.383
	c0.107-0.685,0.235-1.374,0.389-2.066c0.023-0.105,0.05-0.21,0.075-0.315c0.157-0.678,0.334-1.359,0.535-2.041
	c0.016-0.054,0.029-0.108,0.046-0.163c0.211-0.705,0.452-1.411,0.71-2.118c0.05-0.137,0.1-0.273,0.151-0.409
	c0.262-0.695,0.544-1.389,0.851-2.083c0.048-0.108,0.099-0.215,0.148-0.323c0.298-0.659,0.616-1.317,0.954-1.973
	c0.043-0.082,0.082-0.165,0.125-0.248c0.358-0.685,0.744-1.365,1.145-2.044c1.568-2.649,3.456-5.243,5.665-7.711
	c-17.636-2.699-37.392-4.839-58.051-6.338c-15.512-2.538-31.475-3.869-47.775-3.87h-0.005c-9.723,0-19.322,0.485-28.781,1.4
	c-28.636,0.234-56.247,1.836-79.787,5.025c0.238,0.217,0.478,0.429,0.713,0.651c3.381,3.203,6.183,6.692,8.383,10.294
	c0,0,0,0-0.001,0c0.461,0.755,0.893,1.516,1.301,2.28c0.025,0.046,0.05,0.092,0.075,0.138c0.406,0.767,0.785,1.537,1.136,2.308
	c0.012,0.027,0.024,0.054,0.036,0.081c0.351,0.774,0.675,1.551,0.97,2.327c0.003,0.009,0.007,0.017,0.01,0.026
	c0.293,0.773,0.557,1.547,0.795,2.319c0.018,0.06,0.035,0.119,0.053,0.179c0.46,1.522,0.812,3.038,1.052,4.535
	c0.013,0.082,0.026,0.164,0.038,0.247c0.225,1.473,0.341,2.926,0.348,4.35c0,0.094,0.001,0.189,0.001,0.283
	c-0.004,0.708-0.03,1.41-0.089,2.101c-0.002,0.021-0.005,0.041-0.007,0.061c-0.058,0.664-0.147,1.319-0.256,1.965
	c-0.016,0.092-0.029,0.185-0.046,0.276c-0.119,0.654-0.263,1.297-0.435,1.929c-0.021,0.075-0.045,0.149-0.066,0.224
	c-0.166,0.585-0.356,1.16-0.569,1.724c-0.028,0.073-0.052,0.147-0.08,0.219c-0.233,0.596-0.494,1.177-0.78,1.746
	c-0.048,0.096-0.1,0.19-0.15,0.286c-0.282,0.538-0.584,1.066-0.915,1.577c-0.022,0.035-0.042,0.071-0.065,0.105
	c-0.351,0.534-0.734,1.048-1.14,1.549c-0.076,0.094-0.154,0.187-0.232,0.28c-0.418,0.497-0.854,0.981-1.328,1.441
	c-10.711,10.417-31.678,7.226-46.83-7.127c-1.034-0.979-2.009-1.987-2.934-3.015c-0.001,0.001-0.002,0.001-0.003,0.002
	c-6.299-6.997-10.067-15.003-11.024-22.476c-11.308,5.225-17.855,11.684-17.855,19.505c0,33.848,17.33,64.726,45.792,88.088
	c-5.976,16.142-18.174,32.577-36.158,46.747c-28.705,22.618-64.883,33.651-95.029,31.862c-2.831,14.581-4.043,29.268-4.043,44.608
	c0,110.652,76.347,204.969,182.981,238.169c-32.327-25.147-31.678-84.566-8.087-114.176
	c-104.332-83.352-59.866-173.224,42.399-208.855c1.42,0.312,2.847,0.611,4.282,0.897c-13.42,14.147-21.75,33.819-21.75,55.583
	c0,36.772,23.763,67.58,55.73,75.813c-10.355-11.083-17.337-31.923-17.337-55.825c0-35.513,15.402-64.302,34.401-64.302
	c18.999,0,34.401,28.789,34.401,64.302c0,23.907-6.985,44.75-17.343,55.831c31.98-8.223,55.756-39.038,55.756-75.819
	c0-22.546-8.941-42.845-23.219-57.084c1.601-0.372,3.19-0.763,4.77-1.167c100.545,32.642,127.189,131.799,33.924,210.625
	c30.025,29.355,17.466,88.251-8.087,114.176c106.634-33.2,183.993-127.516,183.993-238.169
	C575.176,306.374,572.951,291.684,570.121,277.104z M201.364,153.797c11.868-10.344,36.33-10.62,54.637-0.616
	c18.306,10.002,23.527,26.498,11.659,36.843c-11.868,10.344-36.33,10.62-54.637,0.617
	C194.716,180.637,189.496,164.141,201.364,153.797z M357.528,153.179c18.307-10.004,42.769-9.728,54.637,0.616
	c11.868,10.345,6.648,26.841-11.659,36.845c-18.307,10.004-42.769,9.728-54.637-0.617
	C334.001,179.679,339.222,163.183,357.528,153.179z"/>
</svg>
