<?xml version="1.0" encoding="utf-8"?>
<!-- Generator: Adobe Illustrator 17.0.0, SVG Export Plug-In . SVG Version: 6.00 Build 0)  -->
<!DOCTYPE svg PUBLIC "-//W3C//DTD SVG 1.1//EN" "http://www.w3.org/Graphics/SVG/1.1/DTD/svg11.dtd">
<svg version="1.1" id="Layer_1" xmlns="http://www.w3.org/2000/svg" xmlns:xlink="http://www.w3.org/1999/xlink" x="0px" y="0px"
	 width="613px" height="613px" viewBox="0 0 613 613" enable-background="new 0 0 613 613" xml:space="preserve">
<path d="M564.023,135.358L323.998,41.1c-31.022-12.778-47.907-11.033-75.426-0.578l-187.968,68.14
	c-25.082,9.141-25.801,14.131-26.706,39.769l-8.853,279.752c-1.443,32.892-0.784,39.665,27.789,52.067l222.033,97.323
	c23.119,9.91,38.164,9.151,54.037,3.85l217.483-67.6c26.239-8.721,29.914-11.48,30.912-44.012l9.192-299.047
	C587.282,150.001,579.698,141.253,564.023,135.358z M303.764,427.086c-9.302,131.256-10.513,131.311-153.559,70.866
	C62.77,461.009,46.431,449.13,48.366,391.615l6.555-194.76c1.517-45.076,3.829-49.008,92.286-9.599
	C315.656,262.306,315.182,265.987,303.764,427.086z M268.35,215.572l-132.723-58.083c-41.32-18.079-53.412-32.848,21.333-59.904
	c128.983-46.69,129.609-46.608,234.018-6.037c114.206,44.372,157.441,64.311,83.305,93.161
	C385.827,219.133,321.069,238.642,268.35,215.572z M559.345,322.919c-4.921,161.525-10.814,167.567-143.881,207.653
	c-84.172,25.349-97.414,30.618-94.401-14.382l13.139-196.243c3.845-57.417,9.052-61.535,113.313-100.262
	C561.621,177.303,563.529,185.62,559.345,322.919z"/>
<path d="M183.276,281.694c-5.913,71.248-85.915,15.821-114.506,79.636c-38.106,85.057,70.597,117.398,137.944,145.354
	c58.436,24.258,82.036-5.819,84.365-79.003C296.078,270.476,190.492,194.723,183.276,281.694L183.276,281.694z"/>
<path d="M391.812,508.827c103.884,5.514,163.157-68.696,152.124-222.023c-5.205-72.339-83.131-67.889-77.075,3.316
	c2.826,33.241-25.507,96.968-65.653,102.438c-78.918,10.749-82.374,112.397-9.395,116.275L391.812,508.827z"/>
<path d="M424.605,253.4c-89.355,5.017-85.088,59.932-57.922,94.4C429.784,427.866,518.227,248.142,424.605,253.4z"/>
<path d="M346.976,210.08c173.538-33.961,156.159-86.944,15.085-105.662C232.293,87.201,225.637,233.826,346.976,210.08z"/>
</svg>
