<?xml version="1.0" encoding="utf-8"?>
<!-- Generator: Adobe Illustrator 17.0.0, SVG Export Plug-In . SVG Version: 6.00 Build 0)  -->
<!DOCTYPE svg PUBLIC "-//W3C//DTD SVG 1.1//EN" "http://www.w3.org/Graphics/SVG/1.1/DTD/svg11.dtd">
<svg version="1.1" id="Layer_1" xmlns="http://www.w3.org/2000/svg" xmlns:xlink="http://www.w3.org/1999/xlink" x="0px" y="0px"
	 width="613px" height="613px" viewBox="0 0 613 613" enable-background="new 0 0 613 613" xml:space="preserve">
<path d="M592.206,441.174l-91.173-149.106l12.405-21.49l-2.551-1.473c20.544-37.546,21.155-86.475-0.404-143.516
	c-47.01,7.546-82.956,24.126-107.1,48.172c-1.867-1.322-3.851-2.596-5.962-3.815c-2.146-1.239-4.275-2.335-6.388-3.302
	c8.887-32.946,5.502-72.288-11.211-116.506c-60.684,9.742-102.937,34.532-125.15,71.014l-2.551-1.473l-12.405,21.491l-174.69-4.42
	L10.01,232.057l142.714,59.815l-15.672,27.15l34.134,19.711c-35.59,14.54-62.03,35.951-78.677,63.188l125.693,72.582
	c15.277-28.052,20.799-61.585,15.857-99.463l33.649,19.431l36.564-63.342c0.001,0.001,0.003,0.002,0.004,0.003l-36.564,63.342
	l34.132,19.71c-35.589,14.54-62.03,35.951-78.677,63.188l125.693,72.582c15.277-28.052,20.799-61.585,15.857-99.463l33.65,19.432
	l15.672-27.15l123.15,93.71L592.206,441.174z"/>
</svg>
