<?xml version="1.0" encoding="utf-8"?>
<!-- Generator: Adobe Illustrator 17.0.0, SVG Export Plug-In . SVG Version: 6.00 Build 0)  -->
<!DOCTYPE svg PUBLIC "-//W3C//DTD SVG 1.1//EN" "http://www.w3.org/Graphics/SVG/1.1/DTD/svg11.dtd">
<svg version="1.1" id="Layer_1" xmlns="http://www.w3.org/2000/svg" xmlns:xlink="http://www.w3.org/1999/xlink" x="0px" y="0px"
	 width="613px" height="613px" viewBox="0 0 613 613" enable-background="new 0 0 613 613" xml:space="preserve">
<path d="M589.473,477.915L553.18,342.472c-17.185-21.675-50.393-5.876-59.359,17.939c-7.164,19.015-60.585,29.314-77.692-34.506
	c-17.107-63.82,38.805-72.92,58.845-56.196c17.08,14.257,61.395,14.108,48.2-36.722l-2.267-7.566
	c0.892,2.639,1.642,5.158,2.267,7.566l6.327,21.113l-31.037-115.83l-165.84,44.437c-22.832-10.149-30.953-37.569-12.422-53.083
	c37.024-30.997,12.349-114.71-61.954-94.795c-74.303,19.915-46.518,107.423-16.689,113.229c5.931,1.153,18.053,35.566,6.478,57.314
	l-125.825,33.715l33.549,125.207c-5.573,22.65-41.383,26.064-61.497,9.586c-15.588-12.784-82.454,11.208-65.479,74.564
	c16.975,63.356,91.582,39.668,96.532,14.234c1.216-6.268,34.095-29.555,54.29-9.39l33.612,125.444l137.024-36.716
	c35.112-17.257,6.783-42.828-17.227-51.892c-19.003-7.158-31.743-77.596,32.083-94.697c63.826-17.101,80.741,59.926,61.045,77.054
	c-4.939,4.293-16.017,51.541,18.839,44.082l-4.378,1.241l6.884-1.845c-0.861,0.234-1.689,0.428-2.499,0.602l6.415-1.819
	c-1.314,0.458-2.575,0.85-3.787,1.183L589.473,477.915z"/>
</svg>
