<?xml version="1.0" encoding="utf-8"?>
<!-- Generator: Adobe Illustrator 17.0.0, SVG Export Plug-In . SVG Version: 6.00 Build 0)  -->
<!DOCTYPE svg PUBLIC "-//W3C//DTD SVG 1.1//EN" "http://www.w3.org/Graphics/SVG/1.1/DTD/svg11.dtd">
<svg version="1.1" id="Layer_1" xmlns="http://www.w3.org/2000/svg" xmlns:xlink="http://www.w3.org/1999/xlink" x="0px" y="0px"
	 width="613px" height="613px" viewBox="0 0 613 613" enable-background="new 0 0 613 613" xml:space="preserve">
<g>
	<path d="M345.274,304.786l-83.313-71.771c8.509-20.663,3.355-45.302-14.505-60.687c-22.31-19.219-55.974-16.713-75.192,5.595
		c-19.218,22.309-16.713,55.973,5.597,75.191c17.753,15.293,42.687,16.816,61.819,5.566l82.554,71.117l16.345,84.689l243.34,117.18
		L430.008,308.353L345.274,304.786z M193.446,235.481c-12.47-10.742-13.871-29.559-3.129-42.028
		c10.742-12.47,29.558-13.87,42.029-3.128c12.471,10.742,13.871,29.558,3.129,42.028
		C224.733,244.823,205.917,246.223,193.446,235.481z"/>
	<path d="M105.343,177.884c17.996-11.85,27.261-34.282,21.379-56.236c-7.348-27.425-35.537-43.7-62.961-36.351
		c-27.424,7.348-43.698,35.536-36.35,62.961c5.847,21.823,24.893,36.57,46.246,37.988l27.192,101.481l-32.94,76.365l130.33,225.46
		l0.139-260.419l-65.592-48.832L105.343,177.884z M49.402,142.662c-4.107-15.329,4.989-31.085,20.318-35.193
		c15.329-4.107,31.085,4.989,35.192,20.319c4.108,15.33-4.989,31.086-20.318,35.193C69.265,167.088,53.509,157.992,49.402,142.662z"
		/>
	<path d="M164.928,107.311c22.31,19.218,55.974,16.713,75.192-5.595c1.565-1.817,2.971-3.715,4.248-5.668l78.207,20.955
		l42.59,57.207l223.326-0.121L395.144,62.324l-64.392,27.777l-77.776-20.84c0.682-15.75-5.582-31.647-18.454-42.736
		c-22.31-19.219-55.974-16.713-75.192,5.595C140.113,54.429,142.618,88.093,164.928,107.311z M192.288,39.162
		c15.329-4.107,31.085,4.989,35.192,20.319c4.108,15.33-4.989,31.086-20.318,35.193c-15.329,4.107-31.085-4.989-35.192-20.319
		C167.863,59.026,176.959,43.27,192.288,39.162z"/>
</g>
</svg>
