<?xml version="1.0" encoding="utf-8"?>
<!-- Generator: Adobe Illustrator 17.0.0, SVG Export Plug-In . SVG Version: 6.00 Build 0)  -->
<!DOCTYPE svg PUBLIC "-//W3C//DTD SVG 1.1//EN" "http://www.w3.org/Graphics/SVG/1.1/DTD/svg11.dtd">
<svg version="1.1" id="Layer_1" xmlns="http://www.w3.org/2000/svg" xmlns:xlink="http://www.w3.org/1999/xlink" x="0px" y="0px"
	 width="613px" height="613px" viewBox="0 0 613 613" enable-background="new 0 0 613 613" xml:space="preserve">
<path d="M523.713,160.25l12.062-19.373l28.979,18.043l20.41-29.786l-51.388-35.212h-0.002c-28.98,42.294-64.521,22.81-99.086-0.538
	l31.68-46.232l-40.25-27.582L210.763,333.847l-27.413-19.131h0.002c-29.243-20.409-65.347,30.492-35.713,51.173l27.85,19.436
	l-4.028,5.879c-54.591-27.446-113.954-22.234-139.636,15.247h0.002C2.75,448.88,27.821,516.647,87.436,557.5
	c59.615,40.853,131.381,39.437,160.454-2.993c25.76-37.594,9.393-94.813-36.137-135.785l3.75-5.472l23.718,16.552
	c27.196,18.979,63.583-31.722,35.713-51.173l-24.156-16.857L376.164,178.79c33.165,22.887,66.202,48.529,40.055,86.688
	l51.388,35.212l34.528-50.389l-32.144-20.013l13.19-21.184l33.074,20.593l21.467-31.328l-45.076-28.066l13.19-21.184L523.713,160.25
	z M118.452,536.895c-21.746,0-39.375-17.629-39.375-39.374c0-21.745,17.628-39.374,39.375-39.374s39.375,17.629,39.375,39.374
	C157.826,519.267,140.198,536.895,118.452,536.895z"/>
</svg>
