<?xml version="1.0" encoding="utf-8"?>
<!-- Generator: Adobe Illustrator 17.0.0, SVG Export Plug-In . SVG Version: 6.00 Build 0)  -->
<!DOCTYPE svg PUBLIC "-//W3C//DTD SVG 1.1//EN" "http://www.w3.org/Graphics/SVG/1.1/DTD/svg11.dtd">
<svg version="1.1" id="Layer_1" xmlns="http://www.w3.org/2000/svg" xmlns:xlink="http://www.w3.org/1999/xlink" x="0px" y="0px"
	 width="613px" height="613px" viewBox="0 0 613 613" enable-background="new 0 0 613 613" xml:space="preserve">
<g>
	<circle cx="304.037" cy="310.539" r="90.946"/>
	<circle cx="150.781" cy="269.562" r="48.148"/>
	<circle cx="53.371" cy="243.447" r="31.207"/>
	<circle cx="459.058" cy="352.191" r="48.148"/>
	<circle cx="556.333" cy="378.188" r="31.207"/>
	<circle cx="263.502" cy="156.633" r="48.149"/>
	<circle cx="237.504" cy="59.358" r="31.207"/>
	<circle cx="346.128" cy="464.909" r="48.149"/>
	<circle cx="372.246" cy="562.322" r="31.207"/>
	<circle cx="417.617" cy="197.869" r="48.15"/>
	<circle cx="489.032" cy="126.705" r="31.207"/>
	<circle cx="191.966" cy="423.506" r="48.15"/>
	<circle cx="120.81" cy="494.926" r="31.207"/>
	<circle cx="250.645" cy="511.592" r="31.256"/>
	<circle cx="356.387" cy="116.956" r="31.256"/>
	<circle cx="106.371" cy="367.116" r="31.257"/>
	<circle cx="501.008" cy="261.373" r="31.256"/>
	<circle cx="159.289" cy="169.888" r="31.257"/>
	<circle cx="448.184" cy="458.783" r="31.257"/>
</g>
</svg>
