<?xml version="1.0" encoding="utf-8"?>
<!-- Generator: Adobe Illustrator 17.0.0, SVG Export Plug-In . SVG Version: 6.00 Build 0)  -->
<!DOCTYPE svg PUBLIC "-//W3C//DTD SVG 1.1//EN" "http://www.w3.org/Graphics/SVG/1.1/DTD/svg11.dtd">
<svg version="1.1" id="Layer_1" xmlns="http://www.w3.org/2000/svg" xmlns:xlink="http://www.w3.org/1999/xlink" x="0px" y="0px"
	 width="613px" height="613px" viewBox="0 0 613 613" enable-background="new 0 0 613 613" xml:space="preserve">
<path d="M348.778,317.738l49.228-52.001c20.957,9.031,44.068,8.705,60.943-8.169L596.54,119.979l-26.433-26.43l-95.936,100.64
	l-18.095-17.25l96.349-101.072l-19.812-19.812l-98.442,103.268l-18.095-17.25L514.93,38.372l-18.913-18.913l-137.59,137.59
	c-17.567,17.567-18.059,39.583-9.425,59.685l-51.806,49.428L46.641,15.638c-77.018,82.207,69.037,273.138,202.723,296.16
	L20.42,530.234c-14.246,53.167,12.867,79.399,65.339,65.338l216.199-228.377l189.581,228.822
	c54.431,14.583,82.555-12.623,67.775-67.77L348.778,317.738z"/>
</svg>
