<?xml version="1.0" encoding="utf-8"?>
<!-- Generator: Adobe Illustrator 17.0.0, SVG Export Plug-In . SVG Version: 6.00 Build 0)  -->
<!DOCTYPE svg PUBLIC "-//W3C//DTD SVG 1.1//EN" "http://www.w3.org/Graphics/SVG/1.1/DTD/svg11.dtd">
<svg version="1.1" id="Layer_1" xmlns="http://www.w3.org/2000/svg" xmlns:xlink="http://www.w3.org/1999/xlink" x="0px" y="0px"
	 width="612px" height="612px" viewBox="0 0 612 612" enable-background="new 0 0 612 612" xml:space="preserve">
<g transform="matrix(14.9995 0 0 14.9995 -4842.9527 -1123.9619)">
	<path d="M340.954,76.208v19.387c-5.136,1.234-8.3,6.398-7.066,11.534c1.046,4.357,4.977,7.403,9.457,7.329
		c5.281,0.01,9.571-4.262,9.581-9.544c0.009-4.375-2.953-8.197-7.191-9.283V88.16h4.781v-3.586h-4.781v-3.585h7.172v-4.781h-7.172
		h-1.195H340.954z M342.971,100.114c0.062-0.001,0.124-0.001,0.187,0c0.062-0.001,0.124-0.001,0.187,0
		c2.641,0,4.781,2.141,4.781,4.781s-2.141,4.781-4.781,4.781c-2.641,0.09-4.855-1.978-4.945-4.619
		C338.31,102.435,340.35,100.229,342.971,100.114L342.971,100.114z"/>
</g>
</svg>
