<?xml version="1.0" encoding="utf-8"?>
<!-- Generator: Adobe Illustrator 17.0.0, SVG Export Plug-In . SVG Version: 6.00 Build 0)  -->
<!DOCTYPE svg PUBLIC "-//W3C//DTD SVG 1.1//EN" "http://www.w3.org/Graphics/SVG/1.1/DTD/svg11.dtd">
<svg version="1.1" id="Layer_1" xmlns="http://www.w3.org/2000/svg" xmlns:xlink="http://www.w3.org/1999/xlink" x="0px" y="0px"
	 width="613px" height="613px" viewBox="0 0 613 613" enable-background="new 0 0 613 613" xml:space="preserve">
<path d="M114.75,76.493h382.5"/>
<path d="M325.125,286.868v286.851c70.125-0.243,140.25-3.163,210.375-38.226l-38.25-459c-191.25-76.5-191.25-76.5-382.5,0
	l-38.25,459c70.125,35.063,140.25,37.982,210.375,38.226V286.868h-153v-57.375h344.25v57.375H325.125z M382.5,439.868h-19.125
	v-19.125H382.5V439.868z M382.5,401.618h-19.125v-19.125H382.5V401.618z M382.5,363.368h-19.125v-19.125H382.5V363.368z
	 M420.75,439.868h-19.125v-19.125h19.125V439.868z M420.75,401.618h-19.125v-19.125h19.125V401.618z M420.75,363.368h-19.125
	v-19.125h19.125V363.368z M459,439.868h-19.125v-19.125H459V439.868z M459,401.618h-19.125v-19.125H459V401.618z M459,363.368
	h-19.125v-19.125H459V363.368z M229.5,344.243h19.125v19.125H229.5V344.243z M229.5,382.493h19.125v19.125H229.5V382.493z
	 M229.5,420.743h19.125v19.125H229.5V420.743z M191.25,344.243h19.125v19.125H191.25V344.243z M191.25,382.493h19.125v19.125H191.25
	V382.493z M191.25,420.743h19.125v19.125H191.25V420.743z M153,344.243h19.125v19.125H153V344.243z M153,382.493h19.125v19.125H153
	V382.493z M153,420.743h19.125v19.125H153V420.743z M191.25,210.368c-5.281,0-9.563-4.281-9.563-9.563s4.281-9.563,9.563-9.563
	s9.563,4.281,9.563,9.563S196.531,210.368,191.25,210.368z M248.625,210.368c-5.281,0-9.563-4.281-9.563-9.563
	s4.281-9.563,9.563-9.563s9.563,4.281,9.563,9.563S253.906,210.368,248.625,210.368z M306,210.368c-5.281,0-9.563-4.281-9.563-9.563
	s4.281-9.563,9.563-9.563s9.563,4.281,9.563,9.563S311.281,210.368,306,210.368z M363.375,210.368c-5.281,0-9.563-4.281-9.563-9.563
	s4.281-9.563,9.563-9.563s9.563,4.281,9.563,9.563S368.656,210.368,363.375,210.368z M420.75,210.368
	c-5.281,0-9.563-4.281-9.563-9.563s4.281-9.563,9.563-9.563s9.563,4.281,9.563,9.563S426.031,210.368,420.75,210.368z"/>
</svg>
