<?xml version="1.0" encoding="utf-8"?>
<!-- Generator: Adobe Illustrator 17.0.0, SVG Export Plug-In . SVG Version: 6.00 Build 0)  -->
<!DOCTYPE svg PUBLIC "-//W3C//DTD SVG 1.1//EN" "http://www.w3.org/Graphics/SVG/1.1/DTD/svg11.dtd">
<svg version="1.1" id="Layer_1" xmlns="http://www.w3.org/2000/svg" xmlns:xlink="http://www.w3.org/1999/xlink" x="0px" y="0px"
	 width="613px" height="613px" viewBox="0 0 613 613" enable-background="new 0 0 613 613" xml:space="preserve">
<g>
	<path d="M319.369,110.531c12.737,14.918,18.349,34.51,7.5,66.198c86.492,29.611,168.067,63.246,267.447,56.213
		c-72.59-57.854-154.34-101.146-267.582-143.921l4.013-11.723L161.35,19.303l-18.417,53.793
		c59.591,10.198,116.245,28.988,169.397,57.995L319.369,110.531z"/>
	<path d="M325.803,255.052l9.664-12.597L153.424,102.797l-44.349,57.809c68.209,36.737,129.34,82.708,182.043,139.658l16.951-22.095
		c9.373,23.323,8.184,49.412-17.941,83.465c92.948,71.307,178.282,145.493,301.859,177.558
		C527.463,439.264,445.864,353.278,325.803,255.052z"/>
	<path d="M167.074,272.778L70.313,106.354l-52.849,30.727c41.226,50.257,74.014,105.424,96.761,166.424l20.2-11.744
		c-0.161,21.089-9.401,40.957-40.533,59.057c49.404,84.973,91.982,169.753,177.667,234.035
		c-18.22-98.124-54.139-190.872-116.002-305.379L167.074,272.778z"/>
</g>
</svg>
