<?xml version="1.0" encoding="utf-8"?>
<!-- Generator: Adobe Illustrator 17.0.0, SVG Export Plug-In . SVG Version: 6.00 Build 0)  -->
<!DOCTYPE svg PUBLIC "-//W3C//DTD SVG 1.1//EN" "http://www.w3.org/Graphics/SVG/1.1/DTD/svg11.dtd">
<svg version="1.1" id="Layer_1" xmlns="http://www.w3.org/2000/svg" xmlns:xlink="http://www.w3.org/1999/xlink" x="0px" y="0px"
	 width="613px" height="613px" viewBox="0 0 613 613" enable-background="new 0 0 613 613" xml:space="preserve">
<path d="M118.504,159.516c112.325,93.34,103.685,124.673,13.235,249.949c49.173,34.662,93.961,128.827,78.094,182.235H17.941
	l7.292-566.152c84.328,8.166,144.437,84.124,93.273,133.968H118.504z"/>
<path d="M209.111,21.756c-80.549,161.485,98.753,318.987,303.979,262.181c-10.891,91.616-1.142,181.02,72.901,184.683V21.753
	H209.113L209.111,21.756z"/>
<path d="M294.646,590.753c-51.997-28.042-67.969-63.659-74.82-97.38c77.37-8.781,141.684,17.599,164.506,98.327l-89.683-0.947
	H294.646z"/>
<path d="M248.166,282.001c-119.535,145.433-41.08,219.844,97.07,185.735c20.171,42.875,43.73,84.998,86.358,122.882h81.673
	c-11.874-16.78-27.579-32.603-49.54-46.862c43.286-75.195,48.516-143.617,6.748-223.72c-60.405-9.507-98.021-0.816-155.9,17.446
	c-15.495-28.093-40.341-41.23-66.412-55.482L248.166,282.001L248.166,282.001z"/>
<path d="M556.115,589.005c-72.534-19.991-65.414-92.303-33.303-127.357c34.518,18.364,52.384,38.033,68.785,72.618v56.078
	l-35.48-1.339H556.115z"/>
<path d="M588.315,466.931V325.097"/>
</svg>
