<?xml version="1.0" encoding="utf-8"?>
<!-- Generator: Adobe Illustrator 17.0.0, SVG Export Plug-In . SVG Version: 6.00 Build 0)  -->
<!DOCTYPE svg PUBLIC "-//W3C//DTD SVG 1.1//EN" "http://www.w3.org/Graphics/SVG/1.1/DTD/svg11.dtd">
<svg version="1.1" id="Layer_1" xmlns="http://www.w3.org/2000/svg" xmlns:xlink="http://www.w3.org/1999/xlink" x="0px" y="0px"
	 width="612px" height="612px" viewBox="0 0 612 612" enable-background="new 0 0 612 612" xml:space="preserve">
<g transform="matrix(15 0 0 15 -1604 -4364)">
	<g>
		<path d="M127.333,307.986c-4.879,0-8.833,3.996-8.833,8.925s3.955,8.925,8.833,8.925s8.833-3.996,8.833-8.925
			S132.212,307.986,127.333,307.986L127.333,307.986z M125.125,310.217h4.417v4.462h4.417v4.462h-4.417v4.462h-4.417v-4.462h-4.417
			v-4.462h4.417L125.125,310.217L125.125,310.217z"/>
		<path d="M127.333,294.599c2.208,6.694,4.417,6.694,4.417,11.156c0,0-2.208,2.231-4.417,2.231c-2.208,0-4.417-2.231-4.417-2.231
			C122.917,301.293,125.125,301.293,127.333,294.599z"/>
		<path d="M146.458,328.068c-6.842-1.415-7.946,0.518-11.771-1.714c0,0-0.808-3.048,0.296-4.98s4.121-2.749,4.121-2.749
			C142.929,320.855,141.825,322.788,146.458,328.068L146.458,328.068z"/>
		<path d="M108.208,328.068c4.633-5.279,3.529-7.212,7.354-9.443c0,0,3.017,0.817,4.121,2.749c1.104,1.932,0.296,4.98,0.296,4.98
			C116.154,328.586,115.05,326.653,108.208,328.068z"/>
	</g>
</g>
</svg>
