<?xml version="1.0" encoding="utf-8"?>
<!-- Generator: Adobe Illustrator 17.0.0, SVG Export Plug-In . SVG Version: 6.00 Build 0)  -->
<!DOCTYPE svg PUBLIC "-//W3C//DTD SVG 1.1//EN" "http://www.w3.org/Graphics/SVG/1.1/DTD/svg11.dtd">
<svg version="1.1" id="Layer_1" xmlns="http://www.w3.org/2000/svg" xmlns:xlink="http://www.w3.org/1999/xlink" x="0px" y="0px"
	 width="613px" height="613px" viewBox="0 0 613 613" enable-background="new 0 0 613 613" xml:space="preserve">
<g>
	<path d="M181.35,184.072h58.05c5.095,0,9.225-5.326,9.225-11.895V88.388c0-6.57-4.13-11.895-9.225-11.895h-58.05
		c-5.095,0-9.225,5.325-9.225,11.895v83.789C172.125,178.747,176.255,184.072,181.35,184.072z"/>
	<polygon points="497.25,448.235 497.25,295.235 344.25,295.235 344.25,448.235 267.75,448.235 420.75,601.235 573.75,448.235 	"/>
	<path d="M136.265,492.462c-5.281,0-9.563-4.281-9.563-9.563V262.962c0-5.281,4.281-9.563,9.563-9.563h339.469
		c5.281,0,9.563,4.281,9.563,9.563v10.273h29.76v164.871h30.006V152.993c0-5.295-80.765-86.063-86.063-86.063h-90.823
		c3.232,1.316,5.489,4.281,5.489,7.734v118.408c0,4.674-4.13,8.463-9.225,8.463H161.496c-5.095,0-9.225-3.789-9.225-8.463V74.664
		c0-3.453,2.257-6.418,5.489-7.734H76.5c-5.298,0-9.563,4.265-9.563,9.563v459c0,5.298,4.265,9.563,9.563,9.563h276.071
		l-52.594-52.594H136.265z"/>
</g>
</svg>
