<?xml version="1.0" encoding="utf-8"?>
<!-- Generator: Adobe Illustrator 17.0.0, SVG Export Plug-In . SVG Version: 6.00 Build 0)  -->
<!DOCTYPE svg PUBLIC "-//W3C//DTD SVG 1.1//EN" "http://www.w3.org/Graphics/SVG/1.1/DTD/svg11.dtd">
<svg version="1.1" id="Layer_1" xmlns="http://www.w3.org/2000/svg" xmlns:xlink="http://www.w3.org/1999/xlink" x="0px" y="0px"
	 width="613px" height="613px" viewBox="0 0 613 613" enable-background="new 0 0 613 613" xml:space="preserve">
<path d="M41.003,455.444h529.799v99.159H41.003V455.444z M349.919,375.534v-61.008c29.477-16.012,48.921-46.093,48.921-80.629
	c0-50.591-41.716-91.6-93.155-91.6s-93.149,41.009-93.149,91.6c0,34.122,18.969,63.885,47.111,79.648v61.989l-0.366,37.736H40.996
	v-99.153h79.16c-11.941-24.479-18.597-51.731-18.597-80.44c0-106.424,91.478-192.703,204.327-192.703
	s204.327,86.279,204.327,192.703c0,28.709-6.656,55.961-18.597,80.44h79.166v99.153h-220.85L349.919,375.534z"/>
</svg>
