<?xml version="1.0" encoding="utf-8"?>
<!-- Generator: Adobe Illustrator 17.0.0, SVG Export Plug-In . SVG Version: 6.00 Build 0)  -->
<!DOCTYPE svg PUBLIC "-//W3C//DTD SVG 1.1//EN" "http://www.w3.org/Graphics/SVG/1.1/DTD/svg11.dtd">
<svg version="1.1" id="Layer_1" xmlns="http://www.w3.org/2000/svg" xmlns:xlink="http://www.w3.org/1999/xlink" x="0px" y="0px"
	 width="613px" height="613px" viewBox="0 0 613 613" enable-background="new 0 0 613 613" xml:space="preserve">
<g>
	<polygon points="227.346,448.569 553.794,122.119 595.308,18.061 491.253,59.581 164.806,386.023 	"/>
	<polygon points="58.152,374.736 58.153,374.735 58.152,374.734 	"/>
	<path d="M109.247,323.64l-51.094,51.095l71.458,71.458l-112.6,112.6l37.01,37.01l112.6-112.6l71.51,71.511l51.095-51.096
		C213.857,460.105,152.269,398.158,109.247,323.64z"/>
	<polygon points="173.401,231.055 245.688,298.018 290.923,252.784 253.193,217.832 290.406,183.361 23.881,23.669 210.579,196.615 
			"/>
	<polygon points="439.898,390.789 364.281,320.74 319.046,365.975 363.052,406.74 328.387,438.854 594.912,598.546 405.268,422.869 
			"/>
</g>
</svg>
