<?xml version="1.0" encoding="utf-8"?>
<!-- Generator: Adobe Illustrator 17.0.0, SVG Export Plug-In . SVG Version: 6.00 Build 0)  -->
<!DOCTYPE svg PUBLIC "-//W3C//DTD SVG 1.1//EN" "http://www.w3.org/Graphics/SVG/1.1/DTD/svg11.dtd">
<svg version="1.1" id="Layer_1" xmlns="http://www.w3.org/2000/svg" xmlns:xlink="http://www.w3.org/1999/xlink" x="0px" y="0px"
	 width="612px" height="612px" viewBox="0 0 612 612" enable-background="new 0 0 612 612" xml:space="preserve">
<g transform="matrix(15.00002 0 0 15.00002 -2684.0034 -4364.0059)">
	<g>
		<path d="M199.333,300.515c-5.975,0-10.819,4.844-10.819,10.819s4.844,10.819,10.819,10.819s10.819-4.844,10.819-10.819
			C210.152,305.358,205.308,300.515,199.333,300.515z M196.629,303.219h5.409v5.409h5.409v5.409h-5.409v5.409h-5.409v-5.409h-5.409
			v-5.409h5.409V303.219z"/>
		<path d="M180.208,292.208c7.65,3.825,9.563,1.913,13.387,5.737c0,0,0,3.825-1.913,5.737c-1.913,1.913-5.738,1.913-5.738,1.913
			C182.121,301.771,184.033,299.858,180.208,292.208L180.208,292.208z"/>
		<path d="M218.458,330.458c-7.65-3.825-9.563-1.913-13.387-5.737c0,0,0-3.825,1.913-5.737c1.913-1.913,5.738-1.913,5.738-1.913
			C216.546,320.896,214.633,322.808,218.458,330.458L218.458,330.458z"/>
		<path d="M218.458,292.208c-3.825,7.65-1.913,9.563-5.738,13.388c0,0-3.825,0-5.738-1.913s-1.913-5.737-1.913-5.737
			C208.896,294.121,210.808,296.033,218.458,292.208L218.458,292.208z"/>
		<path d="M180.208,330.458c3.825-7.65,1.913-9.563,5.738-13.388c0,0,3.825,0,5.738,1.913c1.913,1.913,1.913,5.737,1.913,5.737
			C189.771,328.546,187.858,326.633,180.208,330.458L180.208,330.458z"/>
	</g>
</g>
</svg>
