<?xml version="1.0" encoding="utf-8"?>
<!-- Generator: Adobe Illustrator 17.0.0, SVG Export Plug-In . SVG Version: 6.00 Build 0)  -->
<!DOCTYPE svg PUBLIC "-//W3C//DTD SVG 1.1//EN" "http://www.w3.org/Graphics/SVG/1.1/DTD/svg11.dtd">
<svg version="1.1" id="Layer_1" xmlns="http://www.w3.org/2000/svg" xmlns:xlink="http://www.w3.org/1999/xlink" x="0px" y="0px"
	 width="613px" height="613px" viewBox="0 0 613 613" enable-background="new 0 0 613 613" xml:space="preserve">
<path d="M201.789,365.648c14.896,0,26.974-12.073,26.974-26.974s-12.079-26.969-26.974-26.969
	c-14.896,0-26.974,12.067-26.974,26.969S186.893,365.648,201.789,365.648L201.789,365.648z M71.539,338.847
	c0-70.962,57.165-128.566,127.953-129.278c-1.394-10.575-2.048-21.531-1.724-33.025C204.201-48.61,554.11-1.967,501.214,214.093
	c-19.587,80.015-53.758,156.061-85.319,225.49c-29.502,64.917,16.325,60.133,20.605,39.203l99.926,2.175
	c-3.639,166.508-309.12,131.997-211.525-82.734c32.007-70.424,58.53-139.32,79.228-207.91
	c23.683-78.459-156.293-107.845-91.422,59.467c9.302,24.001,17.383,53.486,17.244,82.52l0.162,6.537
	c0,71.401-57.882,129.283-129.289,129.283S71.539,410.249,71.539,338.847z"/>
</svg>
