<?xml version="1.0" encoding="utf-8"?>
<!-- Generator: Adobe Illustrator 17.0.0, SVG Export Plug-In . SVG Version: 6.00 Build 0)  -->
<!DOCTYPE svg PUBLIC "-//W3C//DTD SVG 1.1//EN" "http://www.w3.org/Graphics/SVG/1.1/DTD/svg11.dtd">
<svg version="1.1" id="Layer_1" xmlns="http://www.w3.org/2000/svg" xmlns:xlink="http://www.w3.org/1999/xlink" x="0px" y="0px"
	 width="612px" height="612px" viewBox="0 0 612 612" enable-background="new 0 0 612 612" xml:space="preserve">
<g transform="matrix(15 0 0 15 -524 -5059.5665)">
	<g>
		<path d="M36.208,372.038v2.391h38.25v-2.391c0-2.391,0-2.391-2.391-2.391c0,0-1.195-2.391-2.391-2.391
			c-2.391,0-2.391,3.586-4.781,3.586c-2.391,0-2.391-3.586-4.781-3.586s-2.391,3.586-4.781,3.586s-2.391-3.586-4.781-3.586
			s-2.391,3.586-4.781,3.586s-2.391-3.586-4.781-3.586c-1.195,0-2.391,2.391-2.391,2.391
			C36.208,369.647,36.208,369.647,36.208,372.038z"/>
		<path d="M45.749,348.121c0.011,1.975-1.58,3.584-3.555,3.596c-1.975,0.011-3.584-1.58-3.596-3.555c0-0.014,0-0.027,0-0.041
			c-0.011-1.975,1.58-3.584,3.555-3.596c1.975-0.011,3.584,1.58,3.596,3.555C45.75,348.092,45.75,348.107,45.749,348.121z"/>
		<path d="M58.919,344.556c0.011,1.975-1.58,3.584-3.555,3.596c-1.975,0.011-3.584-1.58-3.596-3.555c0-0.014,0-0.027,0-0.041
			c-0.011-1.975,1.58-3.584,3.555-3.596c1.975-0.011,3.584,1.58,3.596,3.555C58.919,344.529,58.919,344.542,58.919,344.556z"/>
		<path d="M72.068,348.121c0.011,1.975-1.58,3.584-3.555,3.596c-1.975,0.011-3.584-1.58-3.596-3.555c0-0.014,0-0.027,0-0.041
			c-0.011-1.975,1.58-3.584,3.555-3.596c1.975-0.011,3.584,1.58,3.596,3.555C72.068,348.092,72.068,348.107,72.068,348.121z"/>
		<path d="M57.724,356.509c0.008,1.314-1.052,2.386-2.366,2.394c-1.314,0.008-2.386-1.052-2.394-2.366c0-0.009,0-0.018,0-0.027
			c-0.008-1.314,1.052-2.386,2.366-2.394c1.314-0.008,2.386,1.052,2.394,2.366C57.724,356.49,57.724,356.5,57.724,356.509z"/>
		<path d="M46.966,366.061c0.004,0.66-0.528,1.198-1.188,1.202s-1.198-0.528-1.202-1.188c0-0.005,0-0.009,0-0.014
			c-0.004-0.66,0.528-1.198,1.188-1.202s1.198,0.528,1.202,1.188C46.966,366.052,46.966,366.057,46.966,366.061z"/>
		<path d="M46.966,358.898c0.008,1.314-1.052,2.386-2.366,2.394c-1.314,0.008-2.386-1.052-2.394-2.366c0-0.009,0-0.018,0-0.027
			c-0.008-1.314,1.052-2.386,2.366-2.394c1.314-0.008,2.386,1.052,2.394,2.366C46.966,358.881,46.966,358.89,46.966,358.898z"/>
		<path d="M68.482,358.898c0.008,1.314-1.052,2.386-2.366,2.394c-1.314,0.008-2.386-1.052-2.394-2.366c0-0.009,0-0.018,0-0.027
			c-0.008-1.314,1.052-2.386,2.366-2.394c1.314-0.008,2.386,1.052,2.394,2.366C68.482,358.881,68.482,358.89,68.482,358.898z"/>
		<path d="M56.529,364.866c0.004,0.66-0.528,1.198-1.188,1.202s-1.198-0.528-1.202-1.188c0-0.005,0-0.009,0-0.014
			c-0.004-0.66,0.528-1.198,1.188-1.202s1.198,0.528,1.202,1.188C56.529,364.857,56.529,364.861,56.529,364.866z"/>
		<path d="M66.091,366.061c0.004,0.66-0.528,1.198-1.188,1.202s-1.198-0.528-1.202-1.188c0-0.005,0-0.009,0-0.014
			c-0.004-0.66,0.528-1.198,1.188-1.202c0.66-0.004,1.198,0.528,1.202,1.188C66.091,366.052,66.091,366.057,66.091,366.061z"/>
	</g>
</g>
</svg>
