<?xml version="1.0" encoding="utf-8"?>
<!-- Generator: Adobe Illustrator 17.0.0, SVG Export Plug-In . SVG Version: 6.00 Build 0)  -->
<!DOCTYPE svg PUBLIC "-//W3C//DTD SVG 1.1//EN" "http://www.w3.org/Graphics/SVG/1.1/DTD/svg11.dtd">
<svg version="1.1" id="Layer_1" xmlns="http://www.w3.org/2000/svg" xmlns:xlink="http://www.w3.org/1999/xlink" x="0px" y="0px"
	 width="613px" height="613px" viewBox="0 0 613 613" enable-background="new 0 0 613 613" xml:space="preserve">
<path d="M462.858,232.103l0.002-0.002c-7.938-27.385-28.513-45.293-67.932-63.347c14.038-70.391-19.727-110.627-83.836-148.013
	l5.133,51.677C270.84,42.084,205.83,10.815,147.566,13.539c-19.421,0.894-39.47,3.943-60.511,10.087l71.316,74.919
	c-38.956,0.224-104.112,5.677-140.122,32.431l38.548,62.659l-43.942,22.821v80.91l47.497,26.827l-47.497,40.89v55.211
	c34.1-2.771,80.122,2.211,121.263-11.551c-29.083,34.105-38.345,82.966-72.996,125.631c46.333-1.764,92.538-7.774,141.913-34.577
	l-11.527,91.487c78.693-29.317,156.415-103.169,149.741-166.223l1.104-5.27c4.586,2.716,9.41,5.144,14.467,7.264l139.138,49.304
	c7.61-16.458,15.86-32.998,24.604-49.539c-5.476,2.13-11.428,3.312-17.659,3.312c-26.918,0-48.739-21.822-48.739-48.74
	c0-26.918,21.821-48.74,48.739-48.74c23.975,0,43.892,17.316,47.964,40.121c14.518-24.54,29.899-48.892,45.808-72.784
	L462.858,232.103z"/>
</svg>
