<?xml version="1.0" encoding="utf-8"?>
<!-- Generator: Adobe Illustrator 17.0.0, SVG Export Plug-In . SVG Version: 6.00 Build 0)  -->
<!DOCTYPE svg PUBLIC "-//W3C//DTD SVG 1.1//EN" "http://www.w3.org/Graphics/SVG/1.1/DTD/svg11.dtd">
<svg version="1.1" id="Layer_1" xmlns="http://www.w3.org/2000/svg" xmlns:xlink="http://www.w3.org/1999/xlink" x="0px" y="0px"
	 width="613px" height="613px" viewBox="0 0 613 613" enable-background="new 0 0 613 613" xml:space="preserve">
<g>
	<path d="M591.657,592.829l-0.003-0.005l-0.001-29.194L388.672,359.111c-8.508-21.319-11.373-38.896-13.635-54.879
		c7.38,2.498,15.86,0.828,21.742-5.057c8.26-8.263,8.258-21.659-0.001-29.921c-7.825-7.827-20.25-8.226-28.558-1.223
		c-4.625-15.193-12.841-30.515-30.114-48.291c-18.07-18.591-45.069-24.234-71.065-17.485l25.027-25.027l-44.909-44.909
		l23.376-23.376l-59.607-59.607l-23.376,23.376l-61.628-61.628H12.138v120.768l58.137,58.137l-22.844,22.844l59.607,59.607
		l22.843-22.843l44.909,44.909l92.233-92.233c21.202-1.621,42.958,5.654,59.171,21.872c29.478,29.488,29.487,77.299,0.004,106.792
		c-18.092,18.099-43.077,25.067-66.497,20.952c-1.247-4.437-3.608-8.626-7.097-12.117c-8.172-8.174-20.167-10.193-30.229-6.061
		c-0.995-0.896-1.974-1.82-2.932-2.778c-15.166-15.171-22.508-35.195-22.069-55.078c-4.796,23.469,0.189,47.308,15.506,64.346
		c-10.435,10.888-10.305,28.179,0.41,38.899c10.856,10.859,28.457,10.863,39.315,0.001c2.443-2.443,4.331-5.23,5.674-8.203
		c29.175,9.842,57.752,3.903,99.468,18.557l27.405,27.613c-7.785,8.292-7.648,21.321,0.451,29.423
		c8.063,8.066,21.004,8.236,29.3,0.553L559.59,592.829H591.657z"/>
	<path d="M260.406,405.61c-6.429,6.432-6.429,16.863,0.001,23.296c6.43,6.433,16.856,6.435,23.287,0.001
		c6.431-6.433,6.429-16.863-0.001-23.296C277.263,399.178,266.835,399.179,260.406,405.61z"/>
	<path d="M418.031,231.634c11.612-11.616,11.609-30.447-0.001-42.061s-30.438-11.613-42.046-0.001
		c-11.608,11.612-11.609,30.447,0.001,42.061S406.419,243.25,418.031,231.634z"/>
	<path d="M415.169,341.548c6.43,6.433,16.856,6.435,23.287,0.001c6.431-6.434,6.429-16.864-0.001-23.296
		c-6.43-6.433-16.858-6.432-23.287-0.001C408.739,324.684,408.739,335.115,415.169,341.548z"/>
</g>
</svg>
