<?xml version="1.0" encoding="utf-8"?>
<!-- Generator: Adobe Illustrator 17.0.0, SVG Export Plug-In . SVG Version: 6.00 Build 0)  -->
<!DOCTYPE svg PUBLIC "-//W3C//DTD SVG 1.1//EN" "http://www.w3.org/Graphics/SVG/1.1/DTD/svg11.dtd">
<svg version="1.1" id="Layer_1" xmlns="http://www.w3.org/2000/svg" xmlns:xlink="http://www.w3.org/1999/xlink" x="0px" y="0px"
	 width="612px" height="612px" viewBox="0 0 612 612" enable-background="new 0 0 612 612" xml:space="preserve">
<g transform="matrix(15 0 0 15 -524 -4364)">
	<g>
		<path d="M55.333,303.683c-3.961,0-7.172,3.425-7.172,7.65s3.211,7.65,7.172,7.65s7.172-3.425,7.172-7.65
			S59.294,303.683,55.333,303.683z M53.54,305.596h3.586v3.825h3.586v3.825h-3.586v3.825H53.54v-3.825h-3.586v-3.825h3.586V305.596z
			"/>
		<path d="M55.333,292.208c1.793,5.737,3.586,5.737,3.586,9.563c0,0-1.793,1.913-3.586,1.913s-3.586-1.913-3.586-1.913
			C51.747,297.946,53.54,297.946,55.333,292.208z"/>
		<path d="M55.333,330.458c-1.793-5.737-3.586-5.737-3.586-9.563c0,0,1.793-1.913,3.586-1.913s3.586,1.913,3.586,1.913
			C58.919,324.721,57.126,324.721,55.333,330.458z"/>
	</g>
</g>
</svg>
