<?xml version="1.0" encoding="utf-8"?>
<!-- Generator: Adobe Illustrator 17.0.0, SVG Export Plug-In . SVG Version: 6.00 Build 0)  -->
<!DOCTYPE svg PUBLIC "-//W3C//DTD SVG 1.1//EN" "http://www.w3.org/Graphics/SVG/1.1/DTD/svg11.dtd">
<svg version="1.1" id="Layer_1" xmlns="http://www.w3.org/2000/svg" xmlns:xlink="http://www.w3.org/1999/xlink" x="0px" y="0px"
	 width="613px" height="613px" viewBox="0 0 613 613" enable-background="new 0 0 613 613" xml:space="preserve">
<path d="M537.943,182.629c-1.106,3.334-2.24,6.688-3.375,10.061c12.914,63.136,8.138,131.738-24.434,206.633
	c4.727-48.104,3.945-94.115-3.489-138.221c-8.774,17.071-19.964,33.611-31.412,50.262c1.624,47.832-7.289,98.315-30.716,152.182
	c3.758-38.258,3.07-75.137-0.697-110.997c-15.342,17.445-32.467,34.212-51.658,49.565c-4.544,30.334-13.095,61.746-27.227,94.243
	c2.535-25.823,2.942-51.332,2.093-76.09c-42.542,28.933-93.065,52.071-154.275,64.92c51.544-28.929,92.679-58.775,126.352-89.355
	c-22.151-4.615-44.943-7.649-67.713-9.773c30.104-7.607,59.841-10.575,88.658-9.773c20.592-21.058,37.797-42.238,51.658-64.224
	c-38.41-6.907-77.284-8.904-116.581-6.281c45.119-21.834,90.065-29.46,134.729-26.527c11.54-23.755,19.428-48.327,25.131-73.297
	c-33.968-3.21-70.95,4.85-113.09,15.358c38.05-34.857,79.179-49.998,120.07-54.451c2.127-17.302,3.246-34.637,3.448-52.511
	C276.773-19.88,326.741,431.58,31.242,504.112C274.387,654.73,745.217,436.32,537.943,182.629z"/>
<path d="M494.008,35.356c12.027-5.851,26.627-6.195,37.697,4.188c6.318,59.448-13.032,185.099-89.355,272.952
	c58.208-106.086,62.474-182.905,51.658-277.138V35.356z"/>
</svg>
