<?xml version="1.0" encoding="utf-8"?>
<!-- Generator: Adobe Illustrator 17.0.0, SVG Export Plug-In . SVG Version: 6.00 Build 0)  -->
<!DOCTYPE svg PUBLIC "-//W3C//DTD SVG 1.1//EN" "http://www.w3.org/Graphics/SVG/1.1/DTD/svg11.dtd">
<svg version="1.1" id="Layer_1" xmlns="http://www.w3.org/2000/svg" xmlns:xlink="http://www.w3.org/1999/xlink" x="0px" y="0px"
	 width="613px" height="613px" viewBox="0 0 613 613" enable-background="new 0 0 613 613" xml:space="preserve">
<path d="M457.861,118.075c11.354-31.87,12.535-65.345,4.691-96.928h-0.002v0.002c-0.808,29.103-9.74,58.898-26.527,85.866
	c-44.78,71.941-134.759,103.803-217.381,83.572c6.225-2.762,12.231-5.778,17.966-9.083c46.684-26.894,68.47-66.287,64.921-109.597
	c-8.83,26.073-29.438,49.387-60.035,67.016c-57.433,33.088-141.062,37.875-224.084,20.243v44.677
	c49.059,9.772,98.125,11.442,141.73,4.114c5.003,3.418,10.221,6.639,15.725,9.624l-0.78,0.051l126.268,146.916l-111.218,24.387
	L547.313,592.82L416.621,382.408l69.384-17.864l-109.43-150.199c24.607-14.326,46.092-33.945,62.24-58.315
	c48.341,17.538,101.373,23.839,152.188,19.593V128.85C546.946,133.148,501.119,129.777,457.861,118.075z"/>
</svg>
