<?xml version="1.0" encoding="utf-8"?>
<!-- Generator: Adobe Illustrator 17.0.0, SVG Export Plug-In . SVG Version: 6.00 Build 0)  -->
<!DOCTYPE svg PUBLIC "-//W3C//DTD SVG 1.1//EN" "http://www.w3.org/Graphics/SVG/1.1/DTD/svg11.dtd">
<svg version="1.1" id="Layer_1" xmlns="http://www.w3.org/2000/svg" xmlns:xlink="http://www.w3.org/1999/xlink" x="0px" y="0px"
	 width="613px" height="613px" viewBox="0 0 613 613" enable-background="new 0 0 613 613" xml:space="preserve">
<path d="M147.186,416.263l-28.205,168.411h382.428l-28.205-168.411h-30.916V197.48l55.261-61.812V24.639h-64.471v52.568h-39.265
	V24.639h-64.472v52.568h-38.78V24.639H226.09v52.568h-38.78V24.639h-64.468v-0.003l-0.004,0.003h0.003v111.027l55.261,61.812
	v218.785H147.186z M310.195,222.663c23.165,0,41.944,18.779,41.944,41.944c0,16.004-8.965,29.91-22.145,36.981l21.215,107.692
	h-82.046l21.217-107.7c-13.171-7.074-22.129-20.975-22.129-36.973C268.251,241.442,287.03,222.663,310.195,222.663z"/>
</svg>
