<?xml version="1.0" encoding="utf-8"?>
<!-- Generator: Adobe Illustrator 17.0.0, SVG Export Plug-In . SVG Version: 6.00 Build 0)  -->
<!DOCTYPE svg PUBLIC "-//W3C//DTD SVG 1.1//EN" "http://www.w3.org/Graphics/SVG/1.1/DTD/svg11.dtd">
<svg version="1.1" id="Layer_1" xmlns="http://www.w3.org/2000/svg" xmlns:xlink="http://www.w3.org/1999/xlink" x="0px" y="0px"
	 width="612px" height="612px" viewBox="0 0 612 612" enable-background="new 0 0 612 612" xml:space="preserve">
<g transform="matrix(15 0 0 15 -1064.0001 -4364.0003)">
	<g>
		<path d="M100.167,316.911c-0.003,4.929-3.96,8.922-8.839,8.919c-4.874-0.003-8.825-3.995-8.828-8.919
			c-0.003-4.929,3.949-8.928,8.828-8.931c4.879-0.003,8.836,3.99,8.839,8.919C100.167,316.904,100.167,316.908,100.167,316.911z"/>
		<path d="M91.333,294.599c2.208,6.694,4.417,6.694,4.417,11.156c0,0-2.208,2.231-4.417,2.231c-2.208,0-4.417-2.231-4.417-2.231
			C86.917,301.293,89.125,301.293,91.333,294.599z"/>
		<path d="M110.458,328.068c-6.842-1.415-7.946,0.518-11.771-1.713c0,0-0.808-3.048,0.296-4.98s4.121-2.749,4.121-2.749
			C106.929,320.855,105.825,322.788,110.458,328.068z"/>
		<path d="M72.208,328.068c4.633-5.279,3.529-7.212,7.354-9.443c0,0,3.017,0.817,4.121,2.749c1.104,1.932,0.296,4.98,0.296,4.98
			C80.154,328.586,79.05,326.653,72.208,328.068z"/>
	</g>
</g>
</svg>
