<?xml version="1.0" encoding="utf-8"?>
<!-- Generator: Adobe Illustrator 17.0.0, SVG Export Plug-In . SVG Version: 6.00 Build 0)  -->
<!DOCTYPE svg PUBLIC "-//W3C//DTD SVG 1.1//EN" "http://www.w3.org/Graphics/SVG/1.1/DTD/svg11.dtd">
<svg version="1.1" id="Layer_1" xmlns="http://www.w3.org/2000/svg" xmlns:xlink="http://www.w3.org/1999/xlink" x="0px" y="0px"
	 width="613px" height="613px" viewBox="0 0 613 613" enable-background="new 0 0 613 613" xml:space="preserve">
<g>
	<path d="M519.099,231.938L333.649,100.735c8.886-7.579,14.528-18.849,14.528-31.444c0-22.82-18.499-41.32-41.32-41.32
		c-22.821,0-41.32,18.5-41.32,41.32c0,12.324,5.402,23.382,13.96,30.952L94.127,231.938H519.099z"/>
	<path d="M405.052,533.22l78.161-278.216H130.011l78.161,278.216H405.052z M319.483,286.125
		c62.604,49.657-9.758,81.36,19.066,117.513c11.884,14.905,35.874,2.012,41.666-26.762c15.327,55.361-14.219,119.372-72.601,119.372
		c-25.189-0.764-46.648-20.381-60.035-50.262C227.675,370.402,354.159,343.177,319.483,286.125z"/>
	<rect x="122.5" y="552.493" width="360.714" height="34"/>
</g>
</svg>
