<?xml version="1.0" encoding="utf-8"?>
<!-- Generator: Adobe Illustrator 17.0.0, SVG Export Plug-In . SVG Version: 6.00 Build 0)  -->
<!DOCTYPE svg PUBLIC "-//W3C//DTD SVG 1.1//EN" "http://www.w3.org/Graphics/SVG/1.1/DTD/svg11.dtd">
<svg version="1.1" id="Layer_1" xmlns="http://www.w3.org/2000/svg" xmlns:xlink="http://www.w3.org/1999/xlink" x="0px" y="0px"
	 width="612px" height="612px" viewBox="0 0 612 612" enable-background="new 0 0 612 612" xml:space="preserve">
<g transform="matrix(15.00001 0 0 15.00001 -2144.002 -4364.0043)">
	<g>
		<path d="M174.152,311.333c-0.02,5.975-4.88,10.803-10.855,10.783c-5.947-0.02-10.763-4.836-10.783-10.783
			c-0.02-5.975,4.808-10.835,10.783-10.855s10.835,4.808,10.855,10.783C174.152,311.285,174.152,311.309,174.152,311.333z"/>
		<path d="M144.208,292.208c7.65,3.825,9.563,1.913,13.387,5.737c0,0,0,3.825-1.913,5.737c-1.913,1.913-5.738,1.913-5.738,1.913
			C146.121,301.771,148.033,299.858,144.208,292.208L144.208,292.208z"/>
		<path d="M182.458,330.458c-7.65-3.825-9.563-1.913-13.387-5.737c0,0,0-3.825,1.913-5.737c1.913-1.913,5.738-1.913,5.738-1.913
			C180.546,320.896,178.633,322.808,182.458,330.458L182.458,330.458z"/>
		<path d="M182.458,292.208c-3.825,7.65-1.913,9.563-5.738,13.388c0,0-3.825,0-5.738-1.913s-1.913-5.737-1.913-5.737
			C172.896,294.121,174.808,296.033,182.458,292.208L182.458,292.208z"/>
		<path d="M144.208,330.458c3.825-7.65,1.913-9.563,5.738-13.388c0,0,3.825,0,5.738,1.913c1.913,1.913,1.913,5.737,1.913,5.737
			C153.771,328.546,151.858,326.633,144.208,330.458L144.208,330.458z"/>
	</g>
</g>
</svg>
