<?xml version="1.0" encoding="utf-8"?>
<!-- Generator: Adobe Illustrator 17.0.0, SVG Export Plug-In . SVG Version: 6.00 Build 0)  -->
<!DOCTYPE svg PUBLIC "-//W3C//DTD SVG 1.1//EN" "http://www.w3.org/Graphics/SVG/1.1/DTD/svg11.dtd">
<svg version="1.1" id="Layer_1" xmlns="http://www.w3.org/2000/svg" xmlns:xlink="http://www.w3.org/1999/xlink" x="0px" y="0px"
	 width="613px" height="613px" viewBox="0 0 613 613" enable-background="new 0 0 613 613" xml:space="preserve">
<path d="M590.992,195.804h-0.003c-5.193-165.468-205.297-221.298-288.558-77.089C252.333-22.059,19.742,27.516,25.112,195.804
	c1.466,45.89,19.751,86.763,46.423,123.914l127.297-42.431c-23.759-1.249-48.935-11.295-82.159-38.979
	c38.315-22.611,69.19-24.809,108.687-28.037c31.929-17.201,79.45-32.161,100.524-20.942c37.035-21.896,83.211-50.037,129.842-67.713
	v-0.001h0.003c-0.001,0-0.002,0.001-0.003,0.001c6.076,23.817,6.377,53.239,4.188,80.977l-12.565-16.754
	c-61.512,13.825-92.454,134.795-0.697,84.468l12.566-20.244c2.108,18.985,4.052,36.551,0,52.356
	c-40.685,28.698-82.267,52.269-123.56,71.204c-21.213,18.653-62.883,78.362-75.115,130.184
	c23.922,24.006,41.762,47.085,47.926,70.091C333.17,481.724,596.262,363.737,590.992,195.804z"/>
<path d="M266.145,223.098c15.538-7.729,32.448-11.891,51.433-10.662C323.043,250.441,286.738,246.093,266.145,223.098z"/>
</svg>
