<?xml version="1.0" encoding="utf-8"?>
<!-- Generator: Adobe Illustrator 17.0.0, SVG Export Plug-In . SVG Version: 6.00 Build 0)  -->
<!DOCTYPE svg PUBLIC "-//W3C//DTD SVG 1.1//EN" "http://www.w3.org/Graphics/SVG/1.1/DTD/svg11.dtd">
<svg version="1.1" id="Layer_1" xmlns="http://www.w3.org/2000/svg" xmlns:xlink="http://www.w3.org/1999/xlink" x="0px" y="0px"
	 width="612px" height="612px" viewBox="0 0 612 612" enable-background="new 0 0 612 612" xml:space="preserve">
<g transform="matrix(15 0 0 15 15.99995 -8269.4346)">
</g>
<g transform="matrix(6 0 0 6 -3056.00042 -3562.17354)">
	<path d="M560.333,608.835c-19.805,0-35.859,16.055-35.859,35.859s16.055,35.859,35.859,35.859s35.859-16.055,35.859-35.859
		S580.138,608.835,560.333,608.835z M560.333,626.765c9.902,0,17.93,8.027,17.93,17.93s-8.027,17.93-17.93,17.93
		s-17.93-8.027-17.93-17.93S550.431,626.765,560.333,626.765z"/>
	<path d="M566.31,656.05v34.066c0,1.32-1.07,2.391-2.391,2.391h-7.172c-1.32,0-2.391-1.07-2.391-2.391V656.05
		c0-1.32,1.07-2.391,2.391-2.391h7.172C565.24,653.659,566.31,654.729,566.31,656.05"/>
	<path d="M566.31,599.272v34.066c0,1.32-1.07,2.391-2.391,2.391h-7.172c-1.32,0-2.391-1.07-2.391-2.391v-34.066
		c0-1.32,1.07-2.391,2.391-2.391h7.172C565.24,596.882,566.31,597.952,566.31,599.272"/>
</g>
</svg>
