<?xml version="1.0" encoding="utf-8"?>
<!-- Generator: Adobe Illustrator 17.0.0, SVG Export Plug-In . SVG Version: 6.00 Build 0)  -->
<!DOCTYPE svg PUBLIC "-//W3C//DTD SVG 1.1//EN" "http://www.w3.org/Graphics/SVG/1.1/DTD/svg11.dtd">
<svg version="1.1" id="Layer_1" xmlns="http://www.w3.org/2000/svg" xmlns:xlink="http://www.w3.org/1999/xlink" x="0px" y="0px"
	 width="613px" height="613px" viewBox="0 0 613 613" enable-background="new 0 0 613 613" xml:space="preserve">
<g>
	<path d="M288.659,113.592c-3.876-5.502-6.002-13.073-4.82-22.503c5.14-41.007,37.308-47.508,44.711,0.003
		c1.559,10.007,0.18,17.601-2.895,22.97c10.18-6.942,16.683-20.855,13.148-42.473c-10.985-67.172-59.465-60.065-67.174,0
		C269.014,91.964,277.171,106.237,288.659,113.592z"/>
	<path d="M145.995,118.286c-2.097-5.113-2.862-11.81-1.554-20.213c7.404-47.511,39.571-41.01,44.711-0.003
		c0.858,6.843-0.03,12.704-2.06,17.511c9.797-7.427,16.263-19.991,13.883-37.011c-7.778-55.62-56.553-64.535-67.771,0
		C129.692,98.77,135.997,111.744,145.995,118.286z"/>
	<path d="M485.653,284.477h-16.799V152.286c-4.471,3.143-8.942,4.938-13.413,5.773l-9.625-35.254h-0.001l-9.303,34.077
		c-4.685-1.198-9.371-2.872-14.057-4.596v132.191h-14.997c0,18.581,9.467,30.711,21.809,36.384v34.393
		c0,24.122-18.633,43.453-42.395,43.453h-62.051v-77.664c12.503-5.585,22.14-17.76,22.14-36.566h-17.878v-154.53
		c-4.3,1.621-8.601,3.013-12.901,3.992l-9.165-33.57h-0.001l-9.463,34.661c-4.956-0.695-9.913-2.291-14.869-5.083v154.53h-13.918
		c0,18.747,9.637,30.925,22.141,36.532v77.698h-62.191c-23.762,0-43.453-19.691-43.453-43.453v-34.093
		c12.632-5.531,22.405-17.745,22.405-36.684h-16.982V139.72c-4.691,2.433-9.381,3.987-14.072,4.803l-9.722-35.611l-9.567,35.039
		c-4.346-0.943-8.692-2.372-13.038-4.231v144.757h-14.814c0,18.615,9.501,30.754,21.876,36.413v34.364
		c0,42.425,34.943,77.367,77.367,77.367h62.191v110.5c-26.446,4.216-48.993,18.436-48.993,42.642h131.898
		c0-24.282-22.545-38.483-48.991-42.665V432.621h62.051c42.426,0,76.309-35.305,76.309-77.367V321.19
		C475.846,315.673,485.653,303.449,485.653,284.477z"/>
	<path d="M427.638,136.53c-4.07-5.41-6.145-13.715-4.357-25.194c7.404-47.511,39.571-41.01,44.711-0.003
		c1.353,10.794-1.624,19.156-6.606,24.762c12.165-7.394,21.139-22.6,18.445-44.264c-7.552-60.733-54.824-70.76-65.7,0
		C410.548,115.139,417.276,129.678,427.638,136.53z"/>
</g>
</svg>
