<?xml version="1.0" encoding="utf-8"?>
<!-- Generator: Adobe Illustrator 17.0.0, SVG Export Plug-In . SVG Version: 6.00 Build 0)  -->
<!DOCTYPE svg PUBLIC "-//W3C//DTD SVG 1.1//EN" "http://www.w3.org/Graphics/SVG/1.1/DTD/svg11.dtd">
<svg version="1.1" id="Layer_1" xmlns="http://www.w3.org/2000/svg" xmlns:xlink="http://www.w3.org/1999/xlink" x="0px" y="0px"
	 width="613px" height="613px" viewBox="0 0 613 613" enable-background="new 0 0 613 613" xml:space="preserve">
<g>
	<path d="M399.194,258.089c-21.137-40.717-23-76.387-4.691-79.072c4.347-0.637,9.179,0.523,14.744,3.351
		c-11.069-8.669-22.127-13.24-30.155-12.063l0.003,0.001c-20.71,3.038-17.875,43.073,6.031,89.124
		c23.906,46.051,60.375,80.773,81.083,77.732c7.164-1.052,11.064-6.82,12.73-15.412c-1.995,2.614-4.608,4.186-8.042,4.691
		C452.588,329.128,420.331,298.806,399.194,258.089z"/>
	<path d="M552.765,186.864c18.709-24.374,9.197-49.299-8.258-61.939c-5.145-4.278-11.002-7.057-16.845-7.608
		c-14.22-3.039-29.422,1.731-38.712,18.703c-10.977,20.056-19.349,34.294-28.18,45.72c-38.662-50.44-84.194-77.262-110.903-61.825
		c-0.89,0.514-1.744,1.078-2.574,1.674c-0.038-0.047-0.08-0.103-0.117-0.148c-101.838,86.676-142.385,92.772-195.044,109.589
		c-40.84,13.041-47.567,88.154-18.648,156.221c-22.478,2.891-48.591,5.014-79.779,6.616c-58.724,3.016-30.535,85.53,35.983,62.392
		c-59.008,35.74,4.61,103.92,32.235,55.894c14.475-25.166,30.828-46.712,48.739-65.485c45.826,52.909,111.578,82.263,134.633,49.938
		c36.05-50.552,108.811-81.717,193.272-110.425l0.001-0.002c-0.137-0.32-0.301-0.685-0.477-1.073
		c1.261-0.521,2.491-1.114,3.679-1.801c25.248-14.592,26.239-62.648,5.743-117.479c13.739-2.668,29.138-3.872,51.471-4.317
		C620.728,260.281,613.124,172.86,552.765,186.864z M487.649,364.708c-0.485,0.392-0.985,0.763-1.495,1.12
		c-0.089,0.062-0.177,0.125-0.266,0.186c-0.526,0.36-1.063,0.705-1.618,1.026c-27.503,15.896-78.586-21.132-114.096-82.704
		s-42.001-124.373-14.498-140.27c0.402-0.232,0.81-0.451,1.222-0.661c0.323-0.164,0.65-0.316,0.979-0.466
		c0.078-0.036,0.155-0.075,0.234-0.11c0.403-0.179,0.81-0.348,1.222-0.507c0.001,0,0.001-0.001,0.002-0.001
		c0.416-0.161,0.837-0.311,1.261-0.452c22.74-7.54,57.697,14.279,87.926,53.182c-1.977,1.963-3.963,3.911-5.958,5.842
		c-8.478,7.2-18.47,13.825-31.543,21.373c-12.626,21.238,15.438,64.192,36.911,64.192c17.28-7.286,29.98-12.517,42.161-16.259
		C505.515,312.95,505.317,350.418,487.649,364.708z"/>
</g>
</svg>
