<?xml version="1.0" encoding="utf-8"?>
<!-- Generator: Adobe Illustrator 17.0.0, SVG Export Plug-In . SVG Version: 6.00 Build 0)  -->
<!DOCTYPE svg PUBLIC "-//W3C//DTD SVG 1.1//EN" "http://www.w3.org/Graphics/SVG/1.1/DTD/svg11.dtd">
<svg version="1.1" id="Layer_1" xmlns="http://www.w3.org/2000/svg" xmlns:xlink="http://www.w3.org/1999/xlink" x="0px" y="0px"
	 width="613px" height="613px" viewBox="0 0 613 613" enable-background="new 0 0 613 613" xml:space="preserve">
<path d="M564.052,238.672c10.252-49.299-19.572-91.702-67.827-79.502c13.85-39.026-9.295-73.548-40.996-88.155l-0.004,0.006
	c-24.655-11.361-54.444-11.118-74.33,8.674c-20.572-62.412-111.819-79.088-136.608-6.324
	C206.903,34.66,127.5,86.102,139.148,136.804c-63.44-30.995-113.985,76.809-71.783,117.352
	c-54.167,12.425-48.408,97.082-4.57,112.629c-38.523,51.43-9.212,93.244,37.6,92.643c4.932,23.42,14.701,37.866,26.121,45.565
	l-9.907,6.629c12.594,9.644,31.334,9.257,48.165,2.457c47.333,43.711,115.94,62.643,153.323-10.183
	c-45.651,36.525-92.09,15.428-121.097-15.989c5.893-9.761,8.135-21.104,4.326-32.969l-9.486,6.347
	c-3.61-12.181-13.885-24.928-33.711-36.234c7.602-19.971,3.824-45.455-12.257-66.728c26.514-20.087,26.371-46.033,12.791-72.418
	c26.172-12.432,38.148-28.993,38.974-60.524c3.655-3.851,8.185-4.975,11.674,3.516c25.602,62.303,47.666,54.564,40.563-8.824
	c-1.883-16.81,38.041-12.635,35.907,6.221c-8.292,73.26,14.212,91.569,36.162,7.175c6.445-24.783,39.158-4.01,33.207,9.498
	c-30.016,68.155-15.398,77.004,30.296,21.523c18.139-22.024,36.501,7.043,25.714,19.683c-45.191,52.954-42.122,67.807,15.431,34.703
	c4.321-2.485,9.466-4.171,15.175-5.389c-4.221,15.163-5.039,30.599-1.199,44.684c-34.27,32.284-34.945,92.271,5.053,142.081
	c-27.186-64.863-6.999-96.663,22.41-105.041c9.445,6.24,21.366,11.226,36.115,14.511c11.057,2.463,21.064,3.26,30.075,2.657
	c21.057,21.226,23.124,57.985-29.883,101.176c62.849-21.697,80.395-68.814,65.606-113.737
	C616.421,365.258,606.689,270.29,564.052,238.672z"/>
</svg>
