<?xml version="1.0" encoding="utf-8"?>
<!-- Generator: Adobe Illustrator 17.0.0, SVG Export Plug-In . SVG Version: 6.00 Build 0)  -->
<!DOCTYPE svg PUBLIC "-//W3C//DTD SVG 1.1//EN" "http://www.w3.org/Graphics/SVG/1.1/DTD/svg11.dtd">
<svg version="1.1" id="Layer_1" xmlns="http://www.w3.org/2000/svg" xmlns:xlink="http://www.w3.org/1999/xlink" x="0px" y="0px"
	 width="612px" height="612px" viewBox="0 0 612 612" enable-background="new 0 0 612 612" xml:space="preserve">
<g transform="matrix(15 0 0 15 -3224 -3284)">
	<path d="M220.99,222.599c-2.649,0-4.781,2.132-4.781,4.781v23.906c0,2.649,2.132,4.781,4.781,4.781h28.688
		c2.649,0,4.781-2.132,4.781-4.781V227.38c0-2.649-2.132-4.781-4.781-4.781H220.99z M220.99,227.38h28.688v23.906H220.99V227.38z
		 M232.943,232.161v4.781h-4.781v4.781h4.781v4.781h4.781v-4.781h4.781v-4.781h-4.781v-4.781H232.943z"/>
</g>
</svg>
