<?xml version="1.0" encoding="utf-8"?>
<!-- Generator: Adobe Illustrator 17.0.0, SVG Export Plug-In . SVG Version: 6.00 Build 0)  -->
<!DOCTYPE svg PUBLIC "-//W3C//DTD SVG 1.1//EN" "http://www.w3.org/Graphics/SVG/1.1/DTD/svg11.dtd">
<svg version="1.1" id="Layer_1" xmlns="http://www.w3.org/2000/svg" xmlns:xlink="http://www.w3.org/1999/xlink" x="0px" y="0px"
	 width="613px" height="613px" viewBox="0 0 613 613" enable-background="new 0 0 613 613" xml:space="preserve">
<g>
	<path d="M489.89,77.128h-20.868C422.465,36.686,367.35,13.192,308.004,13.192c-59.347,0-114.461,23.494-161.019,63.936H126.12
		V539.26h20.516c46.622,40.549,101.963,64.261,161.368,64.261c59.405,0,114.746-23.711,161.368-64.261h20.518V77.128z
		 M158.395,111.907H334.2L158.614,262.409v75.393l263.545-225.895h35.565v393.478H158.395V111.907z"/>
	<polygon points="158.614,505.345 195.611,505.345 457.394,281.261 457.394,149.324 457.394,149.32 158.614,405.518 	"/>
</g>
</svg>
