<?xml version="1.0" encoding="utf-8"?>
<!-- Generator: Adobe Illustrator 17.0.0, SVG Export Plug-In . SVG Version: 6.00 Build 0)  -->
<!DOCTYPE svg PUBLIC "-//W3C//DTD SVG 1.1//EN" "http://www.w3.org/Graphics/SVG/1.1/DTD/svg11.dtd">
<svg version="1.1" id="Layer_1" xmlns="http://www.w3.org/2000/svg" xmlns:xlink="http://www.w3.org/1999/xlink" x="0px" y="0px"
	 width="613px" height="613px" viewBox="0 0 613 613" enable-background="new 0 0 613 613" xml:space="preserve">
<path d="M593.735,265.123l-119.557-45.237l20.604-126.159l-120.664,42.197l-65.31-109.886l-65.311,109.886L122.834,93.727
	l20.603,126.159L23.879,265.122l96.876,83.4l-62.51,111.503l127.819,1.617l23.788,125.596l98.954-80.922l98.953,80.923
	l23.789-125.597l127.819-1.618l-62.508-111.503L593.735,265.123z M315.546,488.366c-95.344,0-172.633-77.292-172.633-172.636
	c0-95.341,77.289-172.633,172.633-172.633c44.597,0,85.241,16.912,115.876,44.67c-10.543-4.1-21.691-6.967-33.247-8.136
	c-4.58-0.469-9.307,0-14.01,0c-75.27,0-135.998,60.725-135.998,135.996s60.728,135.996,135.998,135.996
	c17.243,0,33.706-3.432,48.874-9.424C402.224,470.841,360.935,488.366,315.546,488.366z"/>
</svg>
