<?xml version="1.0" encoding="utf-8"?>
<!-- Generator: Adobe Illustrator 17.0.0, SVG Export Plug-In . SVG Version: 6.00 Build 0)  -->
<!DOCTYPE svg PUBLIC "-//W3C//DTD SVG 1.1//EN" "http://www.w3.org/Graphics/SVG/1.1/DTD/svg11.dtd">
<svg version="1.1" id="Layer_1" xmlns="http://www.w3.org/2000/svg" xmlns:xlink="http://www.w3.org/1999/xlink" x="0px" y="0px"
	 width="613px" height="613px" viewBox="0 0 613 613" enable-background="new 0 0 613 613" xml:space="preserve">
<g>
	<polygon points="38.716,498.38 38.716,498.38 38.716,498.379 	"/>
	<path d="M415.151,229.887l130.24-136.339l-0.599-0.719l32.29-33.052l-10.2-10.2l-22.173,19.07l-40.356-39.469
		c-6.753,0.402-12.699,2.058-14.191,10.643l19.177,22.806L508.797,62L225.428,293.05c-0.002,0-0.004-0.001-0.005-0.001
		c-13.512-0.333-20.055,9.178-22.173,13.747c-11.128,24.002-17.954,49.761-32.152,74.062
		C127.91,420.493,73.125,457.369,38.716,498.38c20.655,28.477,48.782,53.218,73.177,79.826c9.874-0.602,15.394-11.659,22.617-18.627
		c31.959-60.351,55.223-115.24,92.685-171.181c19.157-12.31,43.813-24.151,43.462-38.129c15.522,2.138,28.175,8.576,33.696,25.72
		c-6.777,33.221,2.972,46.844,7.982,66.077l53.216-12.417c-16.329-27.418-19.481-67.26-26.164-103.777l67.824-56.379
		c42.426,31.219,86.517,59.575,137.826,75.561l11.086-29.27C507.374,299.382,447.562,264.372,415.151,229.887z M271.822,325.24
		l-24.617-27.183c0,0-0.001,0-0.001,0l-0.001-0.001l5.609-4.688l126.503-105.933l20.688,29.48l-28.506,23.857l-0.102-0.08
		L271.822,325.24z"/>
</g>
</svg>
