<?xml version="1.0" encoding="utf-8"?>
<!-- Generator: Adobe Illustrator 17.0.0, SVG Export Plug-In . SVG Version: 6.00 Build 0)  -->
<!DOCTYPE svg PUBLIC "-//W3C//DTD SVG 1.1//EN" "http://www.w3.org/Graphics/SVG/1.1/DTD/svg11.dtd">
<svg version="1.1" id="Layer_1" xmlns="http://www.w3.org/2000/svg" xmlns:xlink="http://www.w3.org/1999/xlink" x="0px" y="0px"
	 width="613px" height="613px" viewBox="0 0 613 613" enable-background="new 0 0 613 613" xml:space="preserve">
<path d="M554.625,258v-76.319h-30.339c-20.768-37.824-37.821-91.196-84.411-118.731c-53.407,1.04-102.486,61.567-153,82.871
	c-19.639-22.651-50.852-40.033-95.625-35.859c-43.471,4.047-65.996,37.074-85.631,71.719H38.25V258h20.342l46.424,175.547
	c-3.057-0.551-6.191-0.851-9.391-0.851c-31.687,0-57.375,28.096-57.375,62.754s25.688,62.754,57.375,62.754
	c31.662,0,57.332-28.051,57.373-62.671h75.321c0.041,34.62,25.712,62.671,57.373,62.671s57.332-28.051,57.373-62.671h141.718
	l5.651-26.978h64.191v-53.789H501.7L534.536,258H554.625z"/>
</svg>
