<?xml version="1.0" encoding="utf-8"?>
<!-- Generator: Adobe Illustrator 17.0.0, SVG Export Plug-In . SVG Version: 6.00 Build 0)  -->
<!DOCTYPE svg PUBLIC "-//W3C//DTD SVG 1.1//EN" "http://www.w3.org/Graphics/SVG/1.1/DTD/svg11.dtd">
<svg version="1.1" id="Layer_1" xmlns="http://www.w3.org/2000/svg" xmlns:xlink="http://www.w3.org/1999/xlink" x="0px" y="0px"
	 width="613px" height="613px" viewBox="0 0 613 613" enable-background="new 0 0 613 613" xml:space="preserve">
<path d="M537.179,104.629c-35.775-57.857-79.741-95.518-98.2-84.123c-2.355,1.453-4.177,3.639-5.497,6.459
	c-65.39,120.647-157.523,183.85-262.951,249.335c-41.701,2.456-68.687,27.421-78.639,55.659l-27.957-27.901
	c-0.907,13.335,8.383,28.541,25.256,37.49c-0.367,1.729-0.678,3.463-0.919,5.196l-0.001,0l0,0.001
	C40.51,381.122-3.844,461.929,35.733,556.395c35.423,84.553,175.651,38.717,137.712-27.494
	c-17.972-31.363-34.956-63.424-26.277-92.797c50.686,23.57,100.134-16.176,90.055-66.076c3.274-1.07,6.648-2.129,10.135-3.174
	c0.536-9.889,0.964-19.909,0.395-29.533c95.48-56.535,188.886-101.078,310.906-105.389c3.783,0.391,7.113-0.209,9.87-1.911
	C586.988,218.626,572.951,162.481,537.179,104.629z"/>
</svg>
