<?xml version="1.0" encoding="utf-8"?>
<!-- Generator: Adobe Illustrator 17.0.0, SVG Export Plug-In . SVG Version: 6.00 Build 0)  -->
<!DOCTYPE svg PUBLIC "-//W3C//DTD SVG 1.1//EN" "http://www.w3.org/Graphics/SVG/1.1/DTD/svg11.dtd">
<svg version="1.1" id="Layer_1" xmlns="http://www.w3.org/2000/svg" xmlns:xlink="http://www.w3.org/1999/xlink" x="0px" y="0px"
	 width="613px" height="613px" viewBox="0 0 613 613" enable-background="new 0 0 613 613" xml:space="preserve">
<path d="M557.672,131.387c0.712,16.506-1.497,32.866-7.381,48.691c-12.4-47.39-36.694-113.309-108.688-144.233
	c-18.973-6.622-39.996-11.386-63.172-13.892h-0.003c48.71,59.399,33.049,103.63,6.372,146.689
	c0.959-51.303-44.465-69.471-99.524-52.683c85.392,0.171,75.913,64.247,56.494,120.832c-10.044,19.318-17.093,39.731-17.093,62.3
	c0,25.279,8.049,46.055,22.178,62.066L21.21,560.178v28.62h71.702l315.232-196.257c6.368,2.265,13.218,3.509,20.361,3.509
	c33.633,0,60.899-27.339,60.899-61.062c0-33.723-27.266-61.062-60.899-61.062s-60.899,27.339-60.899,61.062
	c0,4.348,0.461,8.587,1.323,12.678l-11.572,7.072c-2.689-11.235-2.812-23.771,0.132-37.494
	c12.17-56.747,62.299-86.426,84.467-134.032c11.467,21.137,28.994,36.251,46.074,36.3c23.232,0.067,36.03-26.983,30.019-60.735
	c49.488,71.216,33.86,181.566-13.963,231.765C582.731,354.634,610.806,226.92,557.672,131.387z"/>
</svg>
