<?xml version="1.0" encoding="utf-8"?>
<!-- Generator: Adobe Illustrator 17.0.0, SVG Export Plug-In . SVG Version: 6.00 Build 0)  -->
<!DOCTYPE svg PUBLIC "-//W3C//DTD SVG 1.1//EN" "http://www.w3.org/Graphics/SVG/1.1/DTD/svg11.dtd">
<svg version="1.1" id="Layer_1" xmlns="http://www.w3.org/2000/svg" xmlns:xlink="http://www.w3.org/1999/xlink" x="0px" y="0px"
	 width="612px" height="612px" viewBox="0 90 612 612" enable-background="new 0 90 612 612" xml:space="preserve">
<g transform="matrix(15 0 0 15 -524 -8374.4329)">
	<g>
		<path d="M60.115,578.719c0-2.641-2.141-4.781-4.781-4.781c-2.641,0-4.781,2.141-4.781,4.781c0,2.641,2.141,4.781,4.781,4.781
			C57.974,583.5,60.115,581.36,60.115,578.719z"/>
		<path d="M36.208,593.063v2.391h38.25v-2.391c0-1.195-1.195-2.391-2.391-2.391h-2.391l-4.781-4.781l-4.781,4.781l-4.781-4.781
			l-4.781,4.781l-4.781-4.781l-4.781,4.781h-2.391C37.404,590.672,36.208,591.867,36.208,593.063z"/>
	</g>
</g>
</svg>
