<?xml version="1.0" encoding="utf-8"?>
<!-- Generator: Adobe Illustrator 17.0.0, SVG Export Plug-In . SVG Version: 6.00 Build 0)  -->
<!DOCTYPE svg PUBLIC "-//W3C//DTD SVG 1.1//EN" "http://www.w3.org/Graphics/SVG/1.1/DTD/svg11.dtd">
<svg version="1.1" id="Layer_1" xmlns="http://www.w3.org/2000/svg" xmlns:xlink="http://www.w3.org/1999/xlink" x="0px" y="0px"
	 width="613px" height="613px" viewBox="0 0 613 613" enable-background="new 0 0 613 613" xml:space="preserve">
<g>
	<polygon points="109.524,293.29 109.524,293.29 109.524,293.29 	"/>
	<path d="M413.611,22.313c-48.679,47.058,7.801,121.577,52.132,68.02c45.559,85.29,8.001,157.146-96.116,94.123
		c6.135-12.791,9.646-27.631,9.646-43.457c0-48.11-32.433-87.108-72.443-87.108s-72.443,39.001-72.443,87.108
		c0,15.487,3.366,30.027,9.259,42.63c-105.148,64.473-143.231-7.636-97.474-93.296c44.331,53.557,100.81-20.962,52.132-68.02
		C18.634,70.833-50.418,237.32,110.832,293.29h-1.307c0.757,0.102,1.509,0.221,2.263,0.334c10.766,3.687,22.553,6.881,35.385,9.522
		c60.071,23.636,103.523,80.837,107.048,136.725c-40.051,27.608-71.088,75.104-71.088,75.104l31.423,46.243l-49.27,28.061h97.973
		c-48.321-48.331-14.032-102.701,43.205-102.701c58.022,0,88.375,57.524,43.205,102.701h96.962l-48.258-28.061l31.423-46.243
		c0,0-31.537-48.265-72.055-75.769c3.826-55.677,47.171-112.519,107.007-136.062c12.831-2.641,24.616-5.835,35.38-9.521
		c0.754-0.113,1.507-0.231,2.264-0.334h-1.308C662.333,237.32,593.282,70.833,413.611,22.313z"/>
</g>
</svg>
