<?xml version="1.0" encoding="utf-8"?>
<!-- Generator: Adobe Illustrator 17.0.0, SVG Export Plug-In . SVG Version: 6.00 Build 0)  -->
<!DOCTYPE svg PUBLIC "-//W3C//DTD SVG 1.1//EN" "http://www.w3.org/Graphics/SVG/1.1/DTD/svg11.dtd">
<svg version="1.1" id="Layer_1" xmlns="http://www.w3.org/2000/svg" xmlns:xlink="http://www.w3.org/1999/xlink" x="0px" y="0px"
	 width="612px" height="612px" viewBox="0 0 612 612" enable-background="new 0 0 612 612" xml:space="preserve">
<g transform="matrix(15.05075 0 0 15.05075 -3235.7738 -1785.921)">
	<g>
		<path d="M240.103,137.4c0-2.641-2.141-4.781-4.781-4.781c-2.641,0-4.781,2.141-4.781,4.781c0,2.641,2.141,4.781,4.781,4.781
			C237.963,142.181,240.103,140.041,240.103,137.4z"/>
		<path d="M235.322,156.525c-3.083,0-5.975-0.759-8.554-2.054l5.342-10.646c0.963,0.481,2.063,0.747,3.212,0.747
			s2.249-0.266,3.212-0.747l5.342,10.646C241.297,155.766,238.405,156.525,235.322,156.525L235.322,156.525z"/>
		<path d="M251.885,127.838c1.541,2.67,2.33,5.554,2.498,8.435l-11.89,0.697c-0.065-1.074-0.385-2.16-0.959-3.155
			c-0.575-0.995-1.355-1.815-2.253-2.408l6.549-9.949C248.24,123.043,250.343,125.168,251.885,127.838L251.885,127.838z"/>
		<path d="M218.759,127.838c1.541-2.67,3.645-4.795,6.056-6.381l6.549,9.949c-0.898,0.594-1.678,1.413-2.253,2.408
			c-0.575,0.995-0.894,2.081-0.959,3.156l-11.89-0.697C216.429,133.392,217.218,130.507,218.759,127.838L218.759,127.838z"/>
	</g>
</g>
</svg>
