<?xml version="1.0" encoding="utf-8"?>
<!-- Generator: Adobe Illustrator 17.0.0, SVG Export Plug-In . SVG Version: 6.00 Build 0)  -->
<!DOCTYPE svg PUBLIC "-//W3C//DTD SVG 1.1//EN" "http://www.w3.org/Graphics/SVG/1.1/DTD/svg11.dtd">
<svg version="1.1" id="Layer_1" xmlns="http://www.w3.org/2000/svg" xmlns:xlink="http://www.w3.org/1999/xlink" x="0px" y="0px"
	 width="613px" height="613px" viewBox="0 0 613 613" enable-background="new 0 0 613 613" xml:space="preserve">
<path d="M504.414,524.189V48.505V27.061h-21.642H126.05h-21.642v21.444v475.684h-9.127l36.499,69.391l36.499-69.391h-20.59v-75.897
	h46.773v75.897h-8.531l36.499,69.391l36.499-69.391h-21.186v-75.897h43.981v75.897h-6.815l36.499,69.391l36.499-69.391h-22.202
	v-75.897h47.47v75.897h-8.33l36.499,69.391l36.499-69.391h-21.387v-75.897h44.677v75.897h-7.311l36.499,69.391l36.499-69.391
	H504.414z M237.743,194.974h43.981v83.211h-43.981V194.974z M194.462,278.185h-46.773v-83.211h46.773V278.185z M325.705,194.974
	h47.47v83.211h-47.47V194.974z M416.456,194.974h44.677v83.211h-44.677V194.974z M461.133,69.949v81.594h-44.677V69.949H461.133z
	 M373.175,69.949v81.594h-47.47V69.949H373.175z M281.724,69.949v81.594h-43.981V69.949H281.724z M194.462,69.949v81.594h-46.773
	V69.949H194.462z M147.689,404.855v-83.239h46.773v83.239H147.689z M237.743,404.855v-83.239h43.981v83.239H237.743z
	 M325.705,404.855v-83.239h47.47v83.239H325.705z M416.456,404.855v-83.239h44.677v83.239H416.456z"/>
</svg>
