<?xml version="1.0" encoding="utf-8"?>
<!-- Generator: Adobe Illustrator 17.0.0, SVG Export Plug-In . SVG Version: 6.00 Build 0)  -->
<!DOCTYPE svg PUBLIC "-//W3C//DTD SVG 1.1//EN" "http://www.w3.org/Graphics/SVG/1.1/DTD/svg11.dtd">
<svg version="1.1" id="Layer_1" xmlns="http://www.w3.org/2000/svg" xmlns:xlink="http://www.w3.org/1999/xlink" x="0px" y="0px"
	 width="613px" height="613px" viewBox="0 0 613 613" enable-background="new 0 0 613 613" xml:space="preserve">
<path d="M412.047,48.258c-48.784,36.891,7.818,95.308,52.245,53.323c44.114,64.599,10.472,119.37-85.961,78.444
	c-2.942-3.147-5.945-6.115-8.999-8.916c2.165-7.827,3.35-16.172,3.35-24.846c0-44.413-30.679-80.413-68.526-80.413
	s-68.526,36.005-68.526,80.413c0,8.675,1.185,17.022,3.351,24.85c-3.052,2.8-6.054,5.767-8.995,8.913
	c-96.432,40.924-130.073-13.846-85.959-78.445c44.427,41.985,101.03-16.432,52.245-53.323
	C-5.115,90.8-67.832,249.022,175.944,272.329c-15.717,41.858-25.347,89.588-26.599,136.532
	c-42.654,39.451-71.185,79.292-71.185,79.292l57.026,57.038l-47.048,31.37h135.439c-87.7-87.715-25.466-124.922,78.411-124.922
	c105.302,0,160.39,42.931,78.413,124.922h136.865l-48.473-31.37l57.026-57.038c0,0-26.563-37.093-66.746-75.139
	c-0.777-48.275-10.518-97.593-26.698-140.686C676.151,249.022,613.434,90.8,412.047,48.258z"/>
</svg>
