<?xml version="1.0" encoding="utf-8"?>
<!-- Generator: Adobe Illustrator 17.0.0, SVG Export Plug-In . SVG Version: 6.00 Build 0)  -->
<!DOCTYPE svg PUBLIC "-//W3C//DTD SVG 1.1//EN" "http://www.w3.org/Graphics/SVG/1.1/DTD/svg11.dtd">
<svg version="1.1" id="Layer_1" xmlns="http://www.w3.org/2000/svg" xmlns:xlink="http://www.w3.org/1999/xlink" x="0px" y="0px"
	 width="613px" height="613px" viewBox="0 0 613 613" enable-background="new 0 0 613 613" xml:space="preserve">
<g>
	<path d="M395.084,103.831c-13.542-11.115-29.51-19.365-48.248-24.279c-3.574-4.422-7.866-8.236-12.7-11.272
		c-11.937-24.672-27.282-49.729-27.282-49.729s-15.331,25.038-27.266,49.701c-4.121,2.582-7.85,5.727-11.076,9.336
		c-22.251,4.447-40.838,13.315-56.297,25.88c-115.256-18.93-219.02,96.87-182.3,218.914c14.77,49.084,87.083,80.601,124.63,60.038
		c-70.773,0.117-91.798-76.765-69.913-130.092c13.989-34.087,38.526-53.336,72.465-53.531
		c-11.242,42.134-15.264,92.268-15.264,146.072h84.379c-2.017,14.365-2.901,29.938-3.013,46.229
		c-1.959,17.613,10.711,91.286,10.711,91.286s36.15-59.779,42.715-79.222c7.358,28.691,27.28,82.086,27.28,82.086
		s19.727-52.877,27.169-81.667c6.934,19.87,42.572,78.803,42.572,78.803s13.056-75.914,10.613-92.046
		c-0.134-16.015-1.02-31.328-3.006-45.47h83.75h0.002c0-53.794-4.02-103.921-15.257-146.051c35.271-0.781,60.691,18.57,75.03,53.51
		c21.885,53.327,0.86,130.209-69.913,130.092c37.547,20.563,109.86-10.954,124.63-60.038
		C616.44,199.593,511.18,83.127,395.084,103.831z M229.683,215.776c10.63,11.299,25.733,19.386,46.808,22.998
		c0,0.03,0.002,0.059,0.002,0.089c0,16.074-13.031,29.103-29.102,29.103c-16.071,0-29.102-13.029-29.102-29.103
		C218.289,229.454,222.758,221.095,229.683,215.776z M393.711,238.863c-0.001,16.074-13.031,29.103-29.102,29.103
		s-29.102-13.029-29.102-29.103c0-0.367,0.014-0.73,0.028-1.093c19.646-4.261,33.695-12.704,43.554-24.145
		c2.11,1.213,4.053,2.681,5.787,4.365l0.015,0.056c0.01-0.005,0.019-0.01,0.029-0.015
		C390.34,223.316,393.711,230.694,393.711,238.863z"/>
	<path d="M136.613,537.01c-14.117,52.676,58.733,68.737,71.984,19.288c5.325-19.879-4.818-125.993-4.818-125.993
		S141.938,517.128,136.613,537.01z"/>
	<path d="M401.395,430.305c0,0-10.143,106.114-4.818,125.993c13.251,49.449,86.1,33.388,71.984-19.288
		C463.235,517.128,401.395,430.305,401.395,430.305z"/>
	<path d="M334.6,458.663c0,0-19.637,76.283-18.041,91.41c3.97,37.622,58.995,34.295,54.766-5.781
		C369.732,529.167,334.6,458.663,334.6,458.663z"/>
	<path d="M235.973,544.292c-4.229,40.077,50.796,43.403,54.766,5.781c1.595-15.127-18.041-91.41-18.041-91.41
		S237.567,529.167,235.973,544.292z"/>
</g>
</svg>
