<?xml version="1.0" encoding="utf-8"?>
<!-- Generator: Adobe Illustrator 17.0.0, SVG Export Plug-In . SVG Version: 6.00 Build 0)  -->
<!DOCTYPE svg PUBLIC "-//W3C//DTD SVG 1.1//EN" "http://www.w3.org/Graphics/SVG/1.1/DTD/svg11.dtd">
<svg version="1.1" id="Layer_1" xmlns="http://www.w3.org/2000/svg" xmlns:xlink="http://www.w3.org/1999/xlink" x="0px" y="0px"
	 width="613px" height="613px" viewBox="0 0 613 613" enable-background="new 0 0 613 613" xml:space="preserve">
<g>
	<path d="M244.964,275.292L112.646,447.231c1.932,8.157,4.012,14.96,6.384,20.747c-39.447,15.493-67.434,75.415-41.54,109.47
		c20.647,14.267,31.52,5.859,41.896,0.881c-7.91-24.205-20.454-52.232,33.485-77.848c4.553,1.888,9.604,3.7,15.261,5.595
		L351.113,355.4l-8.978,6.983C286.393,359.829,252.596,326.922,244.964,275.292z"/>
	<path d="M377.076,65.256c-18.048,20.419-29.084,47.175-29.343,76.506l-0.005-0.005L253.407,264.32l0.01-0.008
		c6.453,53.92,40.552,88.451,97.716,91.071l115.83-95.38c33.992-0.591,64.451-15.653,85.484-39.293l-1.228,1.186
		C458.17,219.425,390.741,181.656,377.076,65.256z M335.499,293.128l-17.403-15.756l37.584-41.514l17.403,15.756L335.499,293.128z"
		/>
	<path d="M464.864,25.649c-30.507,0.006-58.285,11.674-79.129,30.784c13.481,116.09,80.31,154.156,172.686,156.999
		c14.837-19.635,23.639-44.085,23.634-70.592c0-0.016,0-0.032,0-0.047C582.042,78.083,529.574,25.636,464.864,25.649z"/>
</g>
</svg>
