<?xml version="1.0" encoding="utf-8"?>
<!-- Generator: Adobe Illustrator 17.0.0, SVG Export Plug-In . SVG Version: 6.00 Build 0)  -->
<!DOCTYPE svg PUBLIC "-//W3C//DTD SVG 1.1//EN" "http://www.w3.org/Graphics/SVG/1.1/DTD/svg11.dtd">
<svg version="1.1" id="Layer_1" xmlns="http://www.w3.org/2000/svg" xmlns:xlink="http://www.w3.org/1999/xlink" x="0px" y="0px"
	 width="613px" height="613px" viewBox="0 0 613 613" enable-background="new 0 0 613 613" xml:space="preserve">
<path d="M434.505,231.391c-38.206,88.384-107.813,162.146-200.016,202.27C350.038,420.686,433.962,329.951,434.505,231.391z"/>
<path d="M504.351,231.391c-51.549,119.252-145.463,218.773-269.865,272.907C390.386,486.791,503.616,364.37,504.351,231.391z"/>
<path d="M591.059,231.391c-68.111,157.565-192.2,289.061-356.57,360.593C440.478,568.849,590.089,407.095,591.059,231.391z"/>
<g>
	<path d="M227.848,325.775c-31.367-24.749-66.931-53.389-78.177-64.634c-45.651-45.654-50.919-90.795-16.057-125.655
		c34.862-34.861,79.463-29.434,125.655,16.754c11.128,11.129,39.292,45.836,63.862,76.763l42.785-43.454
		c-25.473-40.657-58.447-91.219-74.534-107.306c-71.135-61.388-157.946-64.06-218.499-4.189h0.002
		c-68.95,68.173-57.376,158.335,3.488,219.199c16.316,16.316,68.099,50.007,109.04,75.62L227.848,325.775z"/>
	<path d="M193.239,373.753c26.347,16.381,46.486,28.401,46.486,28.401l37.697-37.697c-7.357-5.667-23.708-18.334-42.46-33.079
		L193.239,373.753z"/>
	<path d="M328.765,236.108c15.059,19.023,28.057,35.705,33.82,43.183l37.697-37.697c0,0-12.542-21.014-29.465-48.196
		L328.765,236.108z"/>
</g>
</svg>
