<?xml version="1.0" encoding="utf-8"?>
<!-- Generator: Adobe Illustrator 17.0.0, SVG Export Plug-In . SVG Version: 6.00 Build 0)  -->
<!DOCTYPE svg PUBLIC "-//W3C//DTD SVG 1.1//EN" "http://www.w3.org/Graphics/SVG/1.1/DTD/svg11.dtd">
<svg version="1.1" id="Layer_1" xmlns="http://www.w3.org/2000/svg" xmlns:xlink="http://www.w3.org/1999/xlink" x="0px" y="0px"
	 width="613px" height="613px" viewBox="0 0 613 613" enable-background="new 0 0 613 613" xml:space="preserve">
<g>
	<polygon points="402.709,145.018 381.931,157.9 369.707,237.585 369.697,237.62 415.516,166.893 	"/>
	<polygon points="329.025,249.883 234.958,218.783 208.862,234.888 226.05,255.574 	"/>
	<path d="M247.417,93.566c3.817-2.129,7.025-5.155,9.261-9.028c7.748-13.423,0.925-31.871-15.24-41.206
		c-16.165-9.335-35.551-6.021-43.299,7.402c-2.236,3.874-3.252,8.167-3.186,12.538C139.549,38.435,79.357,32.664,31.042,56.186
		c125.754,36.17,229.978,101.632,320.793,185.317C339.104,183.147,298.524,130.298,247.417,93.566z"/>
	<path d="M165.443,122.913L30.901,356.079c9.979,16.422,24.662,29.74,49.659,28.69l134.542-233.166
		C199.807,140.613,183.18,131.135,165.443,122.913z"/>
	<polygon points="484.475,231.661 268.011,298.491 217.423,397.542 476.242,585.503 582.098,284.952 	"/>
</g>
</svg>
