<?xml version="1.0" encoding="utf-8"?>
<!-- Generator: Adobe Illustrator 17.0.0, SVG Export Plug-In . SVG Version: 6.00 Build 0)  -->
<!DOCTYPE svg PUBLIC "-//W3C//DTD SVG 1.1//EN" "http://www.w3.org/Graphics/SVG/1.1/DTD/svg11.dtd">
<svg version="1.1" id="Layer_1" xmlns="http://www.w3.org/2000/svg" xmlns:xlink="http://www.w3.org/1999/xlink" x="0px" y="0px"
	 width="613px" height="613px" viewBox="0 0 613 613" enable-background="new 0 0 613 613" xml:space="preserve">
<path d="M401.849,335.519c4.299-20.783-1.385-42.951-17.178-58.744c-19.163-19.164-47.701-23.435-71.768-13.058l-17.964-17.834
	c5.451-13.116,5.148-27.081-5.199-37.428l-43.958-43.963c-11.703-11.704-25.863-13.283-38.837-8.836l-32.787-32.789
	c4.776-12.645,4.096-25.905-5.832-35.833l-43.958-43.96C112.56,31.266,98.25,29.76,85.181,34.356L61.938,11.113H11.676V34.15
	l37.795,37.409c-4.213,13.168-2.681,27.242,8.245,38.169l43.958,43.958c10.24,10.241,23.523,10.947,36.081,6.085l33.148,33.149
	c-4.236,13.184-2.715,27.283,8.228,38.225l43.958,43.961c10.83,10.831,25.063,11,38.242,5.192l16.867,16.745
	c-11.806,24.571-7.915,54.456,11.917,74.289c13.599,13.6,31.925,19.694,50.024,18.382l0.079,0.239
	c0.405-0.122,0.839-0.236,1.255-0.355c5.393-0.5,10.752-1.656,15.951-3.472c36.972-5.977,93.32-3.184,130.055,15.823
	c44.814,23.187,64.005,70.226,42.846,105.018c-20.475,33.668-70.698,43.683-115.079,14.978l31.914-14.537l-82.419-37.241
	l10.913,26.3l27.613,83l133.32-6.345l9.523-33.86l33.329-9.525l6.878-133.32L401.849,335.519z M313.179,348.269
	c-7.016-7.016-10.129-16.489-9.397-25.825l13.541,13.443c18.722,18.586,52.287-15.872,34.137-33.891l-11.724-11.64
	c8.007,0.305,15.846,3.454,21.873,9.482c6.936,6.937,10.062,16.276,9.424,25.509c-0.132,1.913-0.431,3.821-0.886,5.703
	c-0.025,0.104-0.047,0.209-0.073,0.313c-0.089,0.352-0.188,0.702-0.289,1.052c-0.045,0.159-0.088,0.318-0.135,0.476
	c-0.097,0.321-0.203,0.64-0.309,0.959c-0.062,0.186-0.122,0.372-0.187,0.557c-0.106,0.3-0.219,0.599-0.334,0.897
	c-0.077,0.201-0.154,0.402-0.235,0.602c-0.115,0.284-0.236,0.566-0.359,0.848c-0.093,0.212-0.186,0.423-0.283,0.633
	c-0.124,0.269-0.252,0.537-0.384,0.804c-0.108,0.219-0.219,0.438-0.332,0.656c-0.133,0.256-0.268,0.51-0.407,0.763
	c-0.124,0.226-0.253,0.45-0.383,0.674c-0.141,0.242-0.282,0.484-0.429,0.723c-0.142,0.231-0.289,0.46-0.437,0.688
	c-0.147,0.228-0.294,0.457-0.448,0.683c-0.161,0.237-0.329,0.471-0.497,0.705c-0.152,0.212-0.302,0.426-0.459,0.636
	c-0.185,0.247-0.379,0.489-0.571,0.732c-0.152,0.192-0.3,0.386-0.457,0.576c-0.226,0.273-0.462,0.54-0.697,0.808
	c-0.135,0.153-0.264,0.31-0.402,0.461c-0.379,0.417-0.769,0.828-1.173,1.232c-0.491,0.491-0.997,0.96-1.509,1.416
	c-0.154,0.137-0.312,0.269-0.468,0.404c-0.375,0.323-0.755,0.637-1.14,0.941c-0.168,0.132-0.335,0.265-0.504,0.394
	c-0.444,0.338-0.894,0.663-1.35,0.977c-0.097,0.067-0.192,0.138-0.29,0.204c-0.56,0.377-1.128,0.735-1.704,1.076
	c-0.126,0.075-0.255,0.144-0.382,0.217c-0.459,0.264-0.922,0.518-1.39,0.76c-0.164,0.085-0.329,0.168-0.495,0.25
	c-0.479,0.238-0.963,0.464-1.45,0.679c-0.118,0.052-0.235,0.107-0.353,0.158c-0.627,0.268-1.258,0.519-1.896,0.748
	c-0.001,0-0.003,0.001-0.004,0.001c-0.622,0.223-1.249,0.423-1.879,0.609c-0.123,0.036-0.246,0.07-0.369,0.105
	c-0.546,0.155-1.094,0.296-1.645,0.423c-0.101,0.023-0.202,0.048-0.303,0.071c-1.328,0.294-2.668,0.51-4.013,0.643
	c-0.045,0.004-0.09,0.007-0.134,0.012c-0.629,0.06-1.258,0.102-1.888,0.127c-0.071,0.003-0.143,0.006-0.214,0.008
	c-2.044,0.068-4.088-0.047-6.105-0.348c-0.046-0.007-0.092-0.014-0.138-0.021c-0.665-0.102-1.327-0.222-1.985-0.364v0
	C323.337,355.736,317.739,352.828,313.179,348.269z"/>
</svg>
