<?xml version="1.0" encoding="utf-8"?>
<!-- Generator: Adobe Illustrator 17.0.0, SVG Export Plug-In . SVG Version: 6.00 Build 0)  -->
<!DOCTYPE svg PUBLIC "-//W3C//DTD SVG 1.1//EN" "http://www.w3.org/Graphics/SVG/1.1/DTD/svg11.dtd">
<svg version="1.1" id="Layer_1" xmlns="http://www.w3.org/2000/svg" xmlns:xlink="http://www.w3.org/1999/xlink" x="0px" y="0px"
	 width="612px" height="612px" viewBox="0 0 612 612" enable-background="new 0 0 612 612" xml:space="preserve">
<path d="M361.153,252.135c9.259-0.701,16.557-8.418,16.557-17.856V126.7c0-9.9-8.025-17.925-17.925-17.925H341.86v-71.73
	c0-9.9-8.025-17.925-17.925-17.925H288.07c-9.9,0-17.925,8.04-17.925,17.925v71.73h-17.94c-9.9,0-17.925,8.025-17.925,17.925v107.58
	c0,9.44,7.301,17.157,16.562,17.856C189.31,359.864,126.7,390.464,126.7,431.5c0,107.58,87.06,161.37,179.295,161.37
	S485.29,539.079,485.29,431.5C485.29,390.475,422.688,359.869,361.153,252.135z M305.995,539.094
	c-53.835,0-107.58-53.79-107.58-107.58c0-17.94,89.655-107.58,107.58-161.37c17.925,53.79,107.58,143.445,107.58,161.37
	C413.575,485.304,359.74,539.094,305.995,539.094z"/>
</svg>
