<?xml version="1.0" encoding="utf-8"?>
<!-- Generator: Adobe Illustrator 17.0.0, SVG Export Plug-In . SVG Version: 6.00 Build 0)  -->
<!DOCTYPE svg PUBLIC "-//W3C//DTD SVG 1.1//EN" "http://www.w3.org/Graphics/SVG/1.1/DTD/svg11.dtd">
<svg version="1.1" id="Layer_1" xmlns="http://www.w3.org/2000/svg" xmlns:xlink="http://www.w3.org/1999/xlink" x="0px" y="0px"
	 width="612px" height="612px" viewBox="0 0 612 612" enable-background="new 0 0 612 612" xml:space="preserve">
<path d="M410.921,107.77c-9.12-50.925-53.176-88.17-104.925-88.65c-59.415,0.555-107.13,49.155-106.575,108.57
	c0.48,51.735,37.725,95.805,88.65,104.91v58.275c-38.22,10.41-60.765,49.83-50.355,88.05c6.675,24.525,25.83,43.665,50.355,50.355
	v59.385c-27.855,10.335-42.06,41.28-31.725,69.135c7.725,20.82,27.45,34.755,49.665,35.085c29.7-0.42,53.43-24.855,53.01-54.555
	c-0.315-22.215-14.25-41.94-35.085-49.665V428.71c38.22-10.41,60.765-49.83,50.355-88.05c-6.675-24.525-25.83-43.665-50.355-50.355
	V232.6C382.42,222.145,421.36,166.27,410.921,107.77z M305.995,198.415c-39.615,0.885-72.45-30.495-73.335-70.11
	c-0.885-39.54,30.42-72.36,69.975-73.32c1.125-0.03,2.235-0.03,3.36,0c39.615,0,71.715,32.115,71.715,71.715
	C377.71,166.3,345.595,198.415,305.995,198.415z"/>
</svg>
