<?xml version="1.0" encoding="utf-8"?>
<!-- Generator: Adobe Illustrator 17.0.0, SVG Export Plug-In . SVG Version: 6.00 Build 0)  -->
<!DOCTYPE svg PUBLIC "-//W3C//DTD SVG 1.1//EN" "http://www.w3.org/Graphics/SVG/1.1/DTD/svg11.dtd">
<svg version="1.1" id="Layer_1" xmlns="http://www.w3.org/2000/svg" xmlns:xlink="http://www.w3.org/1999/xlink" x="0px" y="0px"
	 width="613px" height="613px" viewBox="0 0 613 613" enable-background="new 0 0 613 613" xml:space="preserve">
<polygon points="569.381,204.795 584.136,190.034 453.432,59.329 438.675,74.087 474.091,131.434 443.571,161.954 468.299,186.683 
	429.119,176.405 415.966,189.558 441.112,214.707 401.27,204.255 388.36,217.164 413.924,242.729 373.421,232.103 305.397,300.127 
	136.369,131.1 172.136,74.099 157.38,59.348 26.674,190.051 41.431,204.812 98.777,169.39 127.04,197.653 152.13,172.563 
	141.7,212.313 154.645,225.258 180.154,199.75 169.55,240.162 182.249,252.862 208.178,226.935 197.399,268.012 267.455,338.068 
	105.147,500.376 79.382,564.207 143.089,538.316 305.397,376.01 467.722,538.335 531.553,564.101 505.66,500.39 343.338,338.069 
	512.38,169.028 "/>
</svg>
