<?xml version="1.0" encoding="utf-8"?>
<!-- Generator: Adobe Illustrator 17.0.0, SVG Export Plug-In . SVG Version: 6.00 Build 0)  -->
<!DOCTYPE svg PUBLIC "-//W3C//DTD SVG 1.1//EN" "http://www.w3.org/Graphics/SVG/1.1/DTD/svg11.dtd">
<svg version="1.1" id="Layer_1" xmlns="http://www.w3.org/2000/svg" xmlns:xlink="http://www.w3.org/1999/xlink" x="0px" y="0px"
	 width="612px" height="607.5px" viewBox="0 0 612 607.5" enable-background="new 0 0 612 607.5" xml:space="preserve">
<g transform="matrix(15.39601 0 0 15.39601 -3315.8735 -1283.6006)">
</g>
<g transform="matrix(6.79949 0 0 6.90873 -179.16745 -5200.44029)">
	<path d="M71.353,789.035c5.413,0,13.533-2.664,13.533-7.991s-2.707-13.319-13.533-23.974
		c-10.826,10.655-13.533,18.646-13.533,23.974S65.941,789.035,71.353,789.035L71.353,789.035z"/>
	<path d="M85.417,813.008c-2.707,4.614-4.422,12.866,0.265,15.53c4.688,2.664,13.073,4.353,27.862,0.453
		c-3.963-14.555-9.641-20.857-14.329-23.521C94.527,802.806,88.124,808.394,85.417,813.008L85.417,813.008z"/>
	<path d="M57.29,813.008c-2.707-4.614-9.11-10.202-13.798-7.539c-4.688,2.664-10.366,8.966-14.329,23.521
		c14.789,3.9,23.174,2.211,27.862-0.453S59.996,817.622,57.29,813.008L57.29,813.008z"/>
	<path d="M71.353,820.999c-2.707,0-5.413,2.664-5.413,5.328s0,5.327,5.413,10.655c5.413-5.327,5.413-7.991,5.413-10.655
		C76.767,823.663,74.06,820.999,71.353,820.999z"/>
	<path d="M85.417,797.026c1.353,2.307,5.05,3.282,7.394,1.95c2.344-1.332,4.688-2.664,6.669-9.941
		c-7.394-1.95-9.738-0.618-12.082,0.714C85.054,791.08,84.064,794.719,85.417,797.026L85.417,797.026z"/>
	<path d="M57.29,797.026c1.353-2.307,0.363-5.946-1.981-7.277c-2.344-1.332-4.688-2.664-12.082-0.714
		c1.981,7.277,4.325,8.609,6.669,9.941C52.239,800.308,55.937,799.333,57.29,797.026L57.29,797.026z"/>
</g>
<g transform="matrix(15.39601 0 0 15.39601 -3315.8735 -1283.6006)">
	<path d="M240.029,106.833c0,2.641-2.141,4.781-4.781,4.781c-2.641,0-4.781-2.141-4.781-4.781c0-2.641,2.141-4.781,4.781-4.781
		S240.029,104.193,240.029,106.833z"/>
</g>
</svg>
