<?xml version="1.0" encoding="utf-8"?>
<!-- Generator: Adobe Illustrator 17.0.0, SVG Export Plug-In . SVG Version: 6.00 Build 0)  -->
<!DOCTYPE svg PUBLIC "-//W3C//DTD SVG 1.1//EN" "http://www.w3.org/Graphics/SVG/1.1/DTD/svg11.dtd">
<svg version="1.1" id="Layer_1" xmlns="http://www.w3.org/2000/svg" xmlns:xlink="http://www.w3.org/1999/xlink" x="0px" y="0px"
	 width="613px" height="613px" viewBox="0 0 613 613" enable-background="new 0 0 613 613" xml:space="preserve">
<path d="M309.644,87.376c-123.738,0-224.537,107.621-224.537,240.909c0.001,51.008,14.668,98.998,39.761,137.997
	c-29.215-15.818-57.911-34.973-86.54-58.474v113.685h208.945c-57.375-39.752-97.455-98.292-97.455-165.141
	c0-89.132,71.575-161.386,159.827-161.386s159.827,72.254,159.827,161.386c0,66.848-40.08,125.389-97.455,165.141h208.945V407.809
	c-28.712,23.746-57.728,43.27-87.32,59.253c25.455-39.171,40.542-87.367,40.542-138.777
	C534.183,194.997,433.385,87.376,309.647,87.376L309.644,87.376L309.644,87.376z"/>
</svg>
