<?xml version="1.0" encoding="utf-8"?>
<!-- Generator: Adobe Illustrator 17.0.0, SVG Export Plug-In . SVG Version: 6.00 Build 0)  -->
<!DOCTYPE svg PUBLIC "-//W3C//DTD SVG 1.1//EN" "http://www.w3.org/Graphics/SVG/1.1/DTD/svg11.dtd">
<svg version="1.1" id="Layer_1" xmlns="http://www.w3.org/2000/svg" xmlns:xlink="http://www.w3.org/1999/xlink" x="0px" y="0px"
	 width="613px" height="613px" viewBox="0 0 613 613" enable-background="new 0 0 613 613" xml:space="preserve">
<g>
	<path d="M573.955,325.17l-0.002,0c-31.552-30.286-104.784-5.48-168.14,55C319.78,255.601,232.622,132.158,128.586,25.594
		c146.383,224.247,128.748,258.372-89.618,66.698c99.622,123.994,218.793,221.927,344.095,311.685
		c-56.998,65.459-78.294,138.888-46.943,168.978c33.41,32.067,113.914,2.739,179.576-65.669S607.363,357.237,573.955,325.17z
		 M443.268,446.268c-11.636,13.144-16.734,27.066-11.401,32.398c5.862,5.862,22.105-0.878,36.282-15.055
		c14.177-14.178,20.917-30.42,15.055-36.282c-5.713-5.713-21.282,0.545-35.193,13.988c-5.034-7.281-10.063-14.566-15.089-21.854
		c27.934-26.945,60.372-38.017,74.318-24.632c14.663,14.073,3.373,49.891-25.444,79.914c-28.817,30.023-64.42,43.06-79.084,28.987
		c-13.44-12.898-4.655-44.13,19.091-72.37C428.944,436.348,436.098,441.319,443.268,446.268z M501.554,493.711
		c-50.244,52.346-112.317,75.074-137.881,50.537c-23.846-22.888-7.576-78.885,35.497-128.796c4.436,3.141,8.879,6.273,13.329,9.397
		c-31.675,37.144-43.322,78.329-25.591,95.349c19.162,18.393,65.336,1.57,102.997-37.665
		c37.661-39.236,52.577-86.062,33.414-104.454l0.003-0.002c-18.172-17.442-60.444-3.016-96.884,31.986
		c-3.105-4.503-6.21-9.005-9.315-13.507c48.524-46.431,104.609-65.39,128.793-42.176
		C571.48,378.919,551.798,441.365,501.554,493.711z"/>
	<polygon points="128.577,25.584 128.586,25.594 128.58,25.584 	"/>
</g>
</svg>
