<?xml version="1.0" encoding="utf-8"?>
<!-- Generator: Adobe Illustrator 17.0.0, SVG Export Plug-In . SVG Version: 6.00 Build 0)  -->
<!DOCTYPE svg PUBLIC "-//W3C//DTD SVG 1.1//EN" "http://www.w3.org/Graphics/SVG/1.1/DTD/svg11.dtd">
<svg version="1.1" id="Layer_1" xmlns="http://www.w3.org/2000/svg" xmlns:xlink="http://www.w3.org/1999/xlink" x="0px" y="0px"
	 width="612px" height="612px" viewBox="0 0 612 612" enable-background="new 0 0 612 612" xml:space="preserve">
<path d="M306.034,22.025c-156.035,0-282.527,126.492-282.527,282.527s126.492,282.527,282.527,282.527
	s282.527-126.492,282.527-282.527S462.069,22.025,306.034,22.025z M407.316,413.865c-50.063,89.355-131.264,80.824-191.666,1.872
	c-21.082,33.905-75.782,59.859-116.929,53.443c-26.336-32.887-45.022-72.155-53.374-115.121
	c27.935,27.088,77.012,36.161,101.799-3.467c38.69,58.158,120.003,61.619,167.634-6.034c28.48,40.697,102.771,77.18,157.311-13.099
	c24.429,48.619,71.07,32.577,98.9,0.834c-5.574,50.88-25.481,97.447-55.614,135.568
	C474.536,490.853,444.309,477.529,407.316,413.865z M306.517,36.907c146.955,0,266.087,119.131,266.087,266.086
	c0,5.528-0.189,11.011-0.521,16.455c-37.153,10.369-82.049-16.505-102.925-52.176c-56.85,78.952-107.259,87.483-154.378-1.872
	c-44.156,80.741-124.526,87.442-163.917,23.981c-40.589,55.346-68.076,62.35-109.688,33.578c-0.489-6.592-0.744-13.249-0.744-19.966
	C40.431,156.038,159.562,36.907,306.517,36.907z M134.16,505.695c29.163,10.25,61.207,6.384,78.374-25.774
	c57.949,90.279,164.524,53.796,194.782,13.099c20.887,23.845,45.664,24.89,70.114,13.897
	c-46.234,38.79-105.839,62.162-170.912,62.162C240.765,569.079,180.594,545.216,134.16,505.695z"/>
</svg>
