<?xml version="1.0" encoding="utf-8"?>
<!-- Generator: Adobe Illustrator 17.0.0, SVG Export Plug-In . SVG Version: 6.00 Build 0)  -->
<!DOCTYPE svg PUBLIC "-//W3C//DTD SVG 1.1//EN" "http://www.w3.org/Graphics/SVG/1.1/DTD/svg11.dtd">
<svg version="1.1" id="Layer_1" xmlns="http://www.w3.org/2000/svg" xmlns:xlink="http://www.w3.org/1999/xlink" x="0px" y="0px"
	 width="613px" height="613px" viewBox="0 0 613 613" enable-background="new 0 0 613 613" xml:space="preserve">
<path d="M540.688,60.934C379.918,42.968-51.626,312.977,73.38,464.399c64.521,78.161,141.746,78.761,214.828,38.615l63.822,67.485
	c0,0.002,0,0.004,0,0.006l0.005-0.004c28.816,2.542,47.5-7.649,50.57-40.195l-42.535-80.386
	C476.558,341.837,564.534,151.503,540.688,60.934z M468.381,152.576c15.955,0,28.888,11.47,28.888,25.618
	c0,14.148-12.933,25.618-28.888,25.618c-15.955,0-28.888-11.47-28.888-25.618C439.493,164.046,452.427,152.576,468.381,152.576z
	 M423.961,240.015c15.955,0,28.888,11.47,28.888,25.618s-12.933,25.618-28.888,25.618c-15.955,0-28.889-11.47-28.889-25.618
	S408.006,240.015,423.961,240.015z M366.184,311.034c15.955,0,28.888,11.47,28.888,25.618s-12.933,25.618-28.888,25.618
	s-28.889-11.47-28.889-25.618S350.229,311.034,366.184,311.034z M194.855,486.925c-15.955,0-28.889-11.47-28.889-25.618
	s12.934-25.618,28.889-25.618c15.955,0,28.888,11.47,28.888,25.618S210.809,486.925,194.855,486.925z M200.326,331.925
	c-18.977,0-34.36-13.642-34.36-30.47s15.384-30.47,34.36-30.47c18.977,0,34.36,13.642,34.36,30.47S219.303,331.925,200.326,331.925z
	"/>
</svg>
