<?xml version="1.0" encoding="utf-8"?>
<!-- Generator: Adobe Illustrator 17.0.0, SVG Export Plug-In . SVG Version: 6.00 Build 0)  -->
<!DOCTYPE svg PUBLIC "-//W3C//DTD SVG 1.1//EN" "http://www.w3.org/Graphics/SVG/1.1/DTD/svg11.dtd">
<svg version="1.1" id="Layer_1" xmlns="http://www.w3.org/2000/svg" xmlns:xlink="http://www.w3.org/1999/xlink" x="0px" y="0px"
	 width="613px" height="613px" viewBox="0 0 613 613" enable-background="new 0 0 613 613" xml:space="preserve">
<path d="M105.374,32.565c0,0-4.795,79.87,0.262,177.952c-42.387,30.487-70.626,85.432-70.449,151.17l86.772-0.224
	c7.579,42.025,18.391,82.72,34.589,118.896c12.493,27.902,28.311,53.641,51.286,74.109c22.976,20.468,54.785,34.44,88.528,34.44
	s65.515-13.972,88.49-34.44c22.976-20.468,38.793-46.208,51.286-74.109c9.117-20.362,16.509-42.154,22.599-64.808
	c33.881-6.63,66.454-27.736,86.996-59.355c21.426-32.978,31.179-74.893,31.078-124.985l-90.993,0.149
	c6.965-107.365,1.494-198.795,1.494-198.795l-101.415,5.939c0,0,6.9,122.727-6.35,242.761c-0.501,4.541-1.04,9.075-1.606,13.597
	c-11.154-7.821-22.323-17.894-32.46-30.406c-37.6-46.407-87.995-74.908-139.217-79.75c-3.086-81.438,0.523-146.202,0.523-146.202
	L105.374,32.565L105.374,32.565z M214.148,290.006c17.065,5.778,35.688,17.811,52.37,38.399
	c25.666,31.677,56.567,57.348,90.358,73.026c-4.08,13.815-8.555,26.465-13.447,37.391c-8.604,19.215-18.309,32.765-26.185,39.781
	s-12.234,8.703-20.881,8.703c-8.646,0-13.042-1.687-20.918-8.703s-17.581-20.567-26.185-39.781
	C232.889,402.259,220.973,346.979,214.148,290.006L214.148,290.006z"/>
</svg>
