<?xml version="1.0" encoding="utf-8"?>
<!-- Generator: Adobe Illustrator 17.0.0, SVG Export Plug-In . SVG Version: 6.00 Build 0)  -->
<!DOCTYPE svg PUBLIC "-//W3C//DTD SVG 1.1//EN" "http://www.w3.org/Graphics/SVG/1.1/DTD/svg11.dtd">
<svg version="1.1" id="Layer_1" xmlns="http://www.w3.org/2000/svg" xmlns:xlink="http://www.w3.org/1999/xlink" x="0px" y="0px"
	 width="613px" height="613px" viewBox="0 0 613 613" enable-background="new 0 0 613 613" xml:space="preserve">
<path d="M575.314,326.152c-27.046-28.978-65.242-35.88-80.692,15.688c36.083-24.014,72.643,32.063,40.522,56.879
	c-26.237,20.272-73.548,22.857-103.352,6.558c-36.804-20.125-64.256-45.176-83.857-79.51c68.208,16.352,142.934-1.299,170.92-54.217
	c76.032-143.768-75.842-240.275-136.277-145.66c-21.338,33.405-11.735,73.528,42.021,70.648
	c-34.793-25.852-2.274-76.027,31.933-54.178c27.944,17.849,26.903,62.015,11.67,92.378c-18.122,36.123-72.398,60.645-113.622,29.51
	C313.795,186.889,343.322,69.93,225.351,31.671C51.431-24.735-7.574,241.589,204.21,277.406c0.002,0.003,0.004,0.005,0.006,0.008
	c-35.274,0.629-66.213,9.693-109.702,31.047C-22.941,366.135,0.798,553.4,120.58,533.119c41.213-6.979,61.217-60.181,1.05-78.17
	c19.741,35.393-33.439,56.303-50.099,2.319c-13.461-43.617,25.274-89.543,62.716-101.599c36.458-11.74,66.04-12.97,98.585-6.972
	c-43.732,40.938-67.586,96.159-50.647,147.75c53.218,162.078,229.671,98.662,194.646-8.006
	c-12.367-37.661-49.511-55.615-81.297-12.166c42.033-10.582,60.308,46.349,21.745,59.01c-31.502,10.345-71.96-16.169-78.916-49.418
	c-9.347-44.685,23.601-92.282,65.439-113.87c26.508,42.284,46.421,58.18,99.506,86.277
	C505.917,512.581,657.851,414.596,575.314,326.152z"/>
</svg>
