<?xml version="1.0" encoding="utf-8"?>
<!-- Generator: Adobe Illustrator 17.0.0, SVG Export Plug-In . SVG Version: 6.00 Build 0)  -->
<!DOCTYPE svg PUBLIC "-//W3C//DTD SVG 1.1//EN" "http://www.w3.org/Graphics/SVG/1.1/DTD/svg11.dtd">
<svg version="1.1" id="Layer_1" xmlns="http://www.w3.org/2000/svg" xmlns:xlink="http://www.w3.org/1999/xlink" x="0px" y="0px"
	 width="613px" height="613px" viewBox="0 0 613 613" enable-background="new 0 0 613 613" xml:space="preserve">
<path d="M589.9,394.82l-71.913,20.228l68.711-110.963l-81.909,34.446l64.796-122.334l-86.823,51.484l22.153-147.525l-61.834,138.591
	l-85.016-172.16l27.488,197.291l-79.195-62.751l50.772,102.53l-143.951-92.019l87.976-65.342L147.23,26.003H24.164l0.002,78.261
	l109.984,84.43l-71.87,69.438l281.655,188.296l-100.222-7.024l111.463,91.514l-92.699,6.506l135.646,48.603l-5.5-82.502h-26.052
	c0-45.182-0.886-109.94,38.887-119.52c-6.096-9.143-9.801-21.122-9.801-34.246c0-28.68,17.652-51.932,39.424-51.932
	c21.772,0,39.424,23.252,39.424,51.932c0,13.435-3.874,25.678-10.229,34.898c36.446,10.348,39.275,73.875,39.275,118.868H476.1
	l-6.287,83.434l109.869-71.219l-58.657,5.241L589.9,394.82z"/>
</svg>
