<?xml version="1.0" encoding="utf-8"?>
<!-- Generator: Adobe Illustrator 17.0.0, SVG Export Plug-In . SVG Version: 6.00 Build 0)  -->
<!DOCTYPE svg PUBLIC "-//W3C//DTD SVG 1.1//EN" "http://www.w3.org/Graphics/SVG/1.1/DTD/svg11.dtd">
<svg version="1.1" id="Layer_1" xmlns="http://www.w3.org/2000/svg" xmlns:xlink="http://www.w3.org/1999/xlink" x="0px" y="0px"
	 width="613px" height="613px" viewBox="0 0 613 613" enable-background="new 0 0 613 613" xml:space="preserve">
<path d="M541.517,222.563c22.243,45.606,1.459,147.616-70.641,161.275c30.485-25.543,51.604-89.588,39.986-115.958
	c-39.698,54.301-90.289,2.918-39.32-49.316c33.863-34.706,45.571-78.519,11.996-126.621c10.388,45.856-43.097,96.908-79.737,64.643
	c-24.74-21.784-11.691-69.504,27.09-81.971c-30.758-10.652-54.453,3.21-59.978,24.658c-20.155-19.503-46.597-32.27-39.32-64.642
	l-0.004-0.001c-36.52,16.214-26.103,63.055-9.33,83.303c31.952,38.564-35.765,59.512-55.98-5.998
	c-6.137,20.11-27.994,24.533-40.651,8.664c-8.006-10.038-22.245-36.076-13.994-61.311c-23.831,16.814-36.147,51.416-21.991,71.974
	c33.415,48.527-13.39,85.904-67.308,46.65c41.6,54.486,24.153,136.789-18.66,164.608c16.756-36.562,9.432-100.638-25.324-113.293
	c18.129,53.686-26.853,93.695-48.648,70.641v288.209h55.564c15.232-64.61,50.433-104.442,132.704-119.923
	c-24.838-29.932-40.576-72.367-40.576-119.405c0-90.587,57.325-164.079,128.223-164.079s128.223,73.494,128.223,164.079
	c0,45.872-14.369,87.989-38.143,117.781c90.001,14.163,123.874,55.137,136.379,121.548H589.5V325.859
	C582.155,290.426,569.371,231.109,541.517,222.563z"/>
<path d="M96.891,143.411c-27.783-55.569,77.173-68.764,5.75-118.346C99.974,62.832-11.164,79.108,96.891,143.411z"/>
</svg>
