<?xml version="1.0" encoding="utf-8"?>
<!-- Generator: Adobe Illustrator 17.0.0, SVG Export Plug-In . SVG Version: 6.00 Build 0)  -->
<!DOCTYPE svg PUBLIC "-//W3C//DTD SVG 1.1//EN" "http://www.w3.org/Graphics/SVG/1.1/DTD/svg11.dtd">
<svg version="1.1" id="Layer_1" xmlns="http://www.w3.org/2000/svg" xmlns:xlink="http://www.w3.org/1999/xlink" x="0px" y="0px"
	 width="613px" height="613px" viewBox="0 0 613 613" enable-background="new 0 0 613 613" xml:space="preserve">
<path d="M517.72,171.808c14.235-17.168,23.476-41.26,23.476-68.24c0-48.721-28.962-89.085-66.06-93.906
	c-2.475-0.379-5.109,0-7.645,0c-15.15,0-29.249,5.835-40.975,15.845L20.063,54.937l373.946,27.078v14.249
	c-0.078,1.298-0.131,2.606-0.167,3.919l-373.78,27.063l373.828,27.07v18.177L20.062,199.56l332.466,24.075v5.016
	c-2.424,6.214-4.538,12.771-6.377,19.604L20.062,271.866l310.932,22.515v23.344L20.062,340.237l311.481,22.555v27.198
	L20.062,412.543l361.723,26.194v19.93L20.062,484.858l370.824,26.852v18.607L20.062,557.164l376.093,27.233l0.909,13.799h135.942
	L547.2,407.657h53.504C600.704,316.371,594.869,186.323,517.72,171.808z M406.149,155.203c0.023,0.044,0.046,0.089,0.069,0.133
	l-1.23-0.217L406.149,155.203z"/>
</svg>
