<?xml version="1.0" encoding="utf-8"?>
<!-- Generator: Adobe Illustrator 17.0.0, SVG Export Plug-In . SVG Version: 6.00 Build 0)  -->
<!DOCTYPE svg PUBLIC "-//W3C//DTD SVG 1.1//EN" "http://www.w3.org/Graphics/SVG/1.1/DTD/svg11.dtd">
<svg version="1.1" id="Layer_1" xmlns="http://www.w3.org/2000/svg" xmlns:xlink="http://www.w3.org/1999/xlink" x="0px" y="0px"
	 width="613px" height="613px" viewBox="0 0 613 613" enable-background="new 0 0 613 613" xml:space="preserve">
<path d="M436.407,403.52l34.761,0.357l-52.346-58.994l33.993-24.373c-55.368-43.532-70.316-65.216-83.732-108.751l45.048,20.43
	l-55.809-75.093l30.682-10.349c-51.899-41.01-77.254-82.35-91.03-123.834l-0.002,0.298c-21.653,46.18-53.868,86.494-92.86,123.043
	l45.082-4.715l-61.367,77.76l29.641-9.47l-40.163,65.617l19.745,11.767l-77.989,110.145l43.15,0.224l-61.785,99.9l75.951-9.691
	l14.375,38.356l67.447-25.65l-14.537,100.299h88.508l-8.409-87.678l33.939,14.567l12.193-29.63l52.909,25.052l67.42-24.798
	L436.407,403.52z"/>
</svg>
