<?xml version="1.0" encoding="utf-8"?>
<!-- Generator: Adobe Illustrator 17.0.0, SVG Export Plug-In . SVG Version: 6.00 Build 0)  -->
<!DOCTYPE svg PUBLIC "-//W3C//DTD SVG 1.1//EN" "http://www.w3.org/Graphics/SVG/1.1/DTD/svg11.dtd">
<svg version="1.1" id="Layer_1" xmlns="http://www.w3.org/2000/svg" xmlns:xlink="http://www.w3.org/1999/xlink" x="0px" y="0px"
	 width="613px" height="613px" viewBox="0 0 613 613" enable-background="new 0 0 613 613" xml:space="preserve">
<path d="M573.516,440.212c-9.199-34.337-44.539-54.759-78.867-45.536c-113.905,30.609-77.645,21.371-193.813,51.934
	c-34.377,9.045-54.734,44.53-45.535,78.867c9.199,34.337,44.532,54.734,78.867,45.536c116.025-31.092,79.731-21.99,193.813-51.934
	C562.362,510.053,582.715,474.549,573.516,440.212z M528.509,507.165l-77.313,20.653c-38.487,10.312-65.182-93.566-27.757-103.593
	l77.313-20.653C562.702,386.973,589.497,490.823,528.509,507.165z"/>
<path d="M252.024,188.064c-20.871-20.872-54.75-20.874-75.621,0l0,0c-70.528,70.531-48.209,48.915-117.814,117.815
	c-20.979,20.765-20.871,54.751,0,75.622c20.871,20.872,54.766,20.885,75.621,0c69.203-69.301,46.963-47.606,117.814-117.815
	C272.989,242.907,272.895,208.936,252.024,188.064z M123.62,378.902c-37.774,37.775-100.348-25.978-63.163-63.164l55.267-55.266
	c-18.183,17.935,41.539,84.787,63.163,63.164L123.62,378.902z"/>
<path d="M493.619,273.71c-29.925-109.452-20.051-74.834-49.96-186.454h0.002c-8.85-33.034-42.841-52.656-75.873-43.807
	s-52.807,42.883-43.806,75.873c30.414,111.489,20.67,76.833,49.96,186.457c8.826,33.036,42.841,52.654,75.873,43.805
	S502.639,306.695,493.619,273.71z M384.566,304.646l-23.201-86.588c9.077,33.878,106.731,1.731,98.956-26.514l23.201,86.585
	C499.133,336.386,400.422,363.823,384.566,304.646z"/>
</svg>
