<?xml version="1.0" encoding="utf-8"?>
<!-- Generator: Adobe Illustrator 17.0.0, SVG Export Plug-In . SVG Version: 6.00 Build 0)  -->
<!DOCTYPE svg PUBLIC "-//W3C//DTD SVG 1.1//EN" "http://www.w3.org/Graphics/SVG/1.1/DTD/svg11.dtd">
<svg version="1.1" id="Layer_1" xmlns="http://www.w3.org/2000/svg" xmlns:xlink="http://www.w3.org/1999/xlink" x="0px" y="0px"
	 width="613px" height="613px" viewBox="0 0 613 613" enable-background="new 0 0 613 613" xml:space="preserve">
<path d="M108.201,466.238h46.015v19.821H78.225v-19.821l38.171-33.688c3.408-3.082,5.93-6.093,7.564-9.035
	c1.634-2.942,2.451-6,2.451-9.175c0-4.903-1.658-8.848-4.973-11.836c-3.268-2.988-7.634-4.482-13.097-4.482
	c-4.202,0-8.801,0.911-13.797,2.731c-4.996,1.774-10.342,4.436-16.039,7.984v-22.972c6.07-2.008,12.07-3.525,18-4.552
	c5.93-1.074,11.743-1.611,17.439-1.611c12.513,0,22.225,2.755,29.136,8.264c6.957,5.51,10.436,13.191,10.436,23.042
	c0,5.697-1.471,11.019-4.412,15.969c-2.942,4.903-9.128,11.486-18.56,19.751L108.201,466.238 M525.816,505.581
	c7.05,1.821,12.397,4.996,16.039,9.525c3.689,4.482,5.533,10.202,5.533,17.159c0,10.366-3.969,18.256-11.906,23.673
	c-7.938,5.37-19.517,8.054-34.739,8.054c-5.37,0-10.762-0.444-16.179-1.331c-5.37-0.84-10.692-2.124-15.969-3.852v-20.801
	c5.043,2.521,10.039,4.436,14.988,5.743c4.996,1.261,9.899,1.891,14.708,1.891c7.144,0,12.607-1.237,16.389-3.712
	c3.829-2.475,5.743-6.023,5.743-10.646c0-4.763-1.961-8.358-5.883-10.786c-3.875-2.475-9.619-3.712-17.229-3.712h-10.786v-17.369
	h11.346c6.77,0,11.813-1.05,15.128-3.152c3.315-2.148,4.973-5.393,4.973-9.735c0-4.015-1.611-7.12-4.833-9.315
	c-3.222-2.194-7.774-3.292-13.657-3.292c-4.342,0-8.731,0.49-13.167,1.471s-8.848,2.428-13.237,4.342v-19.751
	c5.323-1.494,10.599-2.615,15.829-3.362c5.229-0.747,10.366-1.12,15.408-1.121c13.587,0,23.743,2.241,30.466,6.724
	c6.77,4.436,10.155,11.136,10.156,20.101c0,6.117-1.611,11.136-4.833,15.058C536.882,501.262,532.12,503.993,525.816,505.581
	 M282.169,275.799h23.813v-67.587l-24.443,5.043v-18.35l24.303-5.043h25.634v85.936h23.813v18.63h-73.12V275.799 M592.875,592.869
	V420.744H420.75v-267.75H210.375v191.25H19.125v248.625"/>
</svg>
