<?xml version="1.0" encoding="utf-8"?>
<!-- Generator: Adobe Illustrator 17.0.0, SVG Export Plug-In . SVG Version: 6.00 Build 0)  -->
<!DOCTYPE svg PUBLIC "-//W3C//DTD SVG 1.1//EN" "http://www.w3.org/Graphics/SVG/1.1/DTD/svg11.dtd">
<svg version="1.1" id="Layer_1" xmlns="http://www.w3.org/2000/svg" xmlns:xlink="http://www.w3.org/1999/xlink" x="0px" y="0px"
	 width="613px" height="613px" viewBox="0 0 613 613" enable-background="new 0 0 613 613" xml:space="preserve">
<path d="M168.041,301.795C291.33,418.532,444.423,520.001,592.113,590.16c-69.775-146.888-171.937-301.225-288.999-424.746
	c5.879-3.517,11.89-6.887,18.062-10.078l48.868,4.189l33.072-77.749l-82.434,6.921c-39.668,23.904-76.416,50.313-109.603,79.773
	c-29.013-48.237-67.834-85.76-116.475-108.469c0.41-2.391,0.636-4.844,0.636-7.352c0-23.859-19.345-43.204-43.205-43.204
	C28.175,9.445,8.83,28.79,8.83,52.649s19.345,43.198,43.205,43.198c3.116,0,6.152-0.337,9.081-0.964
	c21.094,53.129,59.286,89.165,107.067,115.614c-30.115,32.655-56.312,68.668-77.917,108.616l-6.921,82.434l77.258-32.581
	L156.41,320.1C160.212,313.915,164.088,307.813,168.041,301.795z M202.367,260.283l61.079-61.077
	c57.006,57.003,107,131.158,140.412,201.49C333.009,367.035,259.376,317.291,202.367,260.283z"/>
</svg>
