<?xml version="1.0" encoding="utf-8"?>
<!-- Generator: Adobe Illustrator 17.0.0, SVG Export Plug-In . SVG Version: 6.00 Build 0)  -->
<!DOCTYPE svg PUBLIC "-//W3C//DTD SVG 1.1//EN" "http://www.w3.org/Graphics/SVG/1.1/DTD/svg11.dtd">
<svg version="1.1" id="Layer_1" xmlns="http://www.w3.org/2000/svg" xmlns:xlink="http://www.w3.org/1999/xlink" x="0px" y="0px"
	 width="613px" height="613px" viewBox="0 0 613 613" enable-background="new 0 0 613 613" xml:space="preserve">
<path d="M447.635,425.125c87.192,32.67,43.091,128.825-33.122,128.51c-59.691-0.25-62.964-31.29-103.743-31.462
	c-35.914-0.156-51.551,34.446-95.42,34.263c-79.93-0.333-136.489-95.931-43.109-127.666
	c122.392-41.592,66.145-113.615,139.356-112.893c71.495,0.704,25.021,67.653,136.036,109.247L447.635,425.125L447.635,425.125z"/>
<path d="M378.702,271.368c62.177-2.497,62.296-142.011-3.1-139.36C309.13,134.711,315.452,273.917,378.702,271.368z"/>
<path d="M255.122,273.427c61.97-5.319,54.636-144.668-10.541-139.049C178.334,140.096,192.084,278.846,255.122,273.427z"/>
<path d="M159.657,372.772c61.662-7.785,47.796-146.712-17.055-138.5C76.685,242.626,96.933,380.697,159.657,372.772z"/>
<path d="M474.966,374.811c62.222,1.179,72.036-138.04,6.587-139.257C415.031,234.328,411.666,373.618,474.966,374.811z"/>
<path d="M123.409,204.664c35.715-2.985,21.371-48.466-7.906-82.669C95.512,161.334,94.422,207.086,123.409,204.664z"/>
<path d="M494.709,201.398c-35.73-0.458-25.261-46.985,0.985-83.281C518.824,156.066,523.709,201.771,494.709,201.398z"/>
<path d="M383.275,106.416c-35.452,3.974-29.545-43.717-7.026-83.165C402.814,58.223,412.044,103.193,383.275,106.416z"/>
<path d="M241.527,110.797c-35.201,5.542-31.795-42.354-11.362-82.758C258.526,61.79,270.096,106.298,241.527,110.797z"/>
</svg>
