<?xml version="1.0" encoding="utf-8"?>
<!-- Generator: Adobe Illustrator 17.0.0, SVG Export Plug-In . SVG Version: 6.00 Build 0)  -->
<!DOCTYPE svg PUBLIC "-//W3C//DTD SVG 1.1//EN" "http://www.w3.org/Graphics/SVG/1.1/DTD/svg11.dtd">
<svg version="1.1" id="Layer_1" xmlns="http://www.w3.org/2000/svg" xmlns:xlink="http://www.w3.org/1999/xlink" x="0px" y="0px"
	 width="613px" height="613px" viewBox="0 0 613 613" enable-background="new 0 0 613 613" xml:space="preserve">
<g>
	<path d="M583.875,256.294c-27.673-26.057-79.124-16.242-114.92,21.923c-6.507,6.937-12.035,14.337-16.581,21.953
		c-117.315-54.527-380.676,99.504-204.926,231.604l-0.002,0.002H104.825l-31.617,57.065H380.6L274.84,465.425
		c29.012-31.924,80.629-52.243,115.942-53.867c16.487,53.906,43.329,135.666,85.745,177.281h72.754
		c-47.42-51.247-85.119-118.713-95.818-195.132c0.265,0.261,0.512,0.536,0.784,0.792c27.673,26.057,79.123,16.242,114.92-21.923
		S611.548,282.351,583.875,256.294z"/>
	<path d="M267.88,311.2V14.162h-60.017v344.48C223.569,339.687,244.39,323.709,267.88,311.2z"/>
	<path d="M386.373,14.159h-58.478v273.998c19.429-4.944,39.253-7.761,58.478-8.252V14.159z"/>
	<polygon points="143.232,520.297 143.232,14.159 83.215,14.159 83.215,547.067 83.215,548.873 102.752,520.297 	"/>
	<path d="M511.021,240.823V14.162h-60.015v270.977c3.008-4.087,6.302-8.077,9.909-11.922
		C475.847,257.297,493.503,246.331,511.021,240.823z"/>
</g>
</svg>
