<?xml version="1.0" encoding="utf-8"?>
<!-- Generator: Adobe Illustrator 17.0.0, SVG Export Plug-In . SVG Version: 6.00 Build 0)  -->
<!DOCTYPE svg PUBLIC "-//W3C//DTD SVG 1.1//EN" "http://www.w3.org/Graphics/SVG/1.1/DTD/svg11.dtd">
<svg version="1.1" id="Layer_1" xmlns="http://www.w3.org/2000/svg" xmlns:xlink="http://www.w3.org/1999/xlink" x="0px" y="0px"
	 width="613px" height="613px" viewBox="0 0 613 613" enable-background="new 0 0 613 613" xml:space="preserve">
<path d="M519.339,157.975L336.752,52.355c-17.143-9.917-44.937-9.917-62.081,0L92.084,157.975
	c-11.694,6.764-15.404,16.394-11.144,24.981l216.294,123.501c5.173,0.585,10.491,0.634,15.687,0.136l218.091-124.802
	C534.392,173.508,530.506,164.434,519.339,157.975z M333.269,191.222c-14.916,8.85-39.099,8.85-54.014,0
	c-14.916-8.85-14.916-23.199,0-32.049c14.916-8.85,39.099-8.85,54.014,0C348.185,168.023,348.185,182.372,333.269,191.222z"/>
<path d="M525.35,194.247L326.767,307.886c-6.986,6.887-12.81,15.917-16.486,25.328v224.528c5.382,7.554,15.383,8.949,26.84,2.333
	l175.63-101.419c17.15-9.904,31.054-33.987,31.054-53.792v-188.5C543.805,201.741,536.22,193.55,525.35,194.247z M384.89,329.464
	c0.029,16.487-11.989,36.83-26.842,45.438c-14.853,8.608-26.918,2.22-26.947-14.267c0-0.039,0-0.078,0-0.117
	c-0.029-16.487,11.989-36.831,26.842-45.438c14.853-8.608,26.918-2.22,26.947,14.267C384.89,329.387,384.89,329.426,384.89,329.464z
	 M518.765,398.849c0.029,16.487-11.989,36.83-26.842,45.438c-14.853,8.608-26.918,2.22-26.947-14.267c0-0.039,0-0.078,0-0.117
	c-0.029-16.487,11.989-36.831,26.842-45.438c14.853-8.608,26.918-2.22,26.947,14.267
	C518.765,398.771,518.765,398.81,518.765,398.849z"/>
<path d="M299.698,328.224c-3.162-6.602-7.336-12.847-12.158-18.089L84.533,194.22c-9.652,0.508-16.201,8.551-16.201,22.142v188.499
	c0,19.805,13.903,43.888,31.054,53.792l175.63,101.419c10.066,5.813,19.009,5.442,24.684,0.145V328.224H299.698z M147.162,283.343
	c-0.029,16.487-12.094,22.875-26.947,14.267s-26.871-28.951-26.842-45.438c0-0.039,0-0.078,0-0.117
	c0.029-16.487,12.094-22.875,26.947-14.267s26.871,28.951,26.842,45.438C147.162,283.266,147.162,283.305,147.162,283.343z
	 M214.095,394.901c-0.029,16.487-12.094,22.875-26.947,14.267c-14.853-8.608-26.871-28.951-26.842-45.438c0-0.039,0-0.078,0-0.117
	c0.029-16.487,12.094-22.875,26.947-14.267c14.853,8.608,26.871,28.951,26.842,45.438
	C214.096,394.824,214.096,394.863,214.095,394.901z M281.037,507.313c-0.029,16.487-12.094,22.875-26.947,14.267
	c-14.853-8.608-26.871-28.951-26.842-45.438c0-0.039,0-0.078,0-0.117c0.029-16.487,12.094-22.875,26.947-14.267
	s26.871,28.951,26.842,45.438C281.037,507.235,281.037,507.274,281.037,507.313z"/>
</svg>
