<?xml version="1.0" encoding="utf-8"?>
<!-- Generator: Adobe Illustrator 17.0.0, SVG Export Plug-In . SVG Version: 6.00 Build 0)  -->
<!DOCTYPE svg PUBLIC "-//W3C//DTD SVG 1.1//EN" "http://www.w3.org/Graphics/SVG/1.1/DTD/svg11.dtd">
<svg version="1.1" id="Layer_1" xmlns="http://www.w3.org/2000/svg" xmlns:xlink="http://www.w3.org/1999/xlink" x="0px" y="0px"
	 width="613px" height="613px" viewBox="0 0 613 613" enable-background="new 0 0 613 613" xml:space="preserve">
<path d="M519.339,157.975L336.752,52.355c-17.143-9.917-44.937-9.917-62.081,0L92.084,157.975
	c-12.192,7.052-15.704,17.22-10.555,26.072L295.533,306.24c7.16,0.982,14.661,0.92,21.774-0.202l212.279-121.476
	C535.178,175.591,531.768,165.164,519.339,157.975z M190.824,190.911c-14.916,8.85-39.099,8.85-54.014,0
	c-14.916-8.85-14.915-23.199,0-32.049c14.916-8.85,39.099-8.85,54.014,0C205.74,167.711,205.74,182.06,190.824,190.911z
	 M333.271,275.431c-14.916,8.85-39.099,8.85-54.014,0c-14.916-8.85-14.915-23.199,0-32.049c14.916-8.85,39.099-8.85,54.014,0
	C348.187,252.232,348.187,266.581,333.271,275.431z M333.271,107.014c-14.916,8.85-39.099,8.85-54.014,0
	c-14.916-8.85-14.915-23.199,0-32.049c14.916-8.85,39.099-8.85,54.014,0C348.187,83.815,348.187,98.164,333.271,107.014z
	 M475.192,191.223c-14.916,8.85-39.099,8.85-54.014,0s-14.915-23.199,0-32.049c14.916-8.85,39.099-8.85,54.014,0
	C490.108,168.024,490.107,182.372,475.192,191.223z"/>
<path d="M528.652,194.313L322.9,312.054c-4.678,5.491-8.651,11.916-11.568,18.619v228.413c5.575,6.359,15.044,7.194,25.789,0.989
	l175.63-101.419c17.15-9.904,31.054-33.987,31.054-53.792v-188.5C543.805,203.272,537.726,195.333,528.652,194.313z M384.89,476.141
	c0.029,16.487-11.989,36.831-26.842,45.438c-14.853,8.608-26.918,2.22-26.947-14.267c0-0.039,0-0.078,0-0.117
	c-0.029-16.487,11.989-36.83,26.842-45.438s26.918-2.22,26.947,14.267C384.89,476.063,384.89,476.102,384.89,476.141z
	 M384.89,329.464c0.029,16.487-11.989,36.83-26.842,45.438c-14.853,8.608-26.918,2.22-26.947-14.267c0-0.039,0-0.078,0-0.117
	c-0.029-16.487,11.989-36.831,26.842-45.438c14.853-8.608,26.918-2.22,26.947,14.267C384.89,329.387,384.89,329.426,384.89,329.464z
	 M451.831,363.73c0.029,16.487-11.989,36.831-26.842,45.438c-14.853,8.608-26.918,2.22-26.947-14.267c0-0.039,0-0.078,0-0.117
	c-0.029-16.487,11.989-36.831,26.842-45.438c14.853-8.608,26.918-2.22,26.947,14.267
	C451.831,363.652,451.831,363.691,451.831,363.73z M518.765,398.849c0.029,16.487-11.989,36.83-26.842,45.438
	c-14.853,8.608-26.918,2.22-26.947-14.267c0-0.039,0-0.078,0-0.117c-0.029-16.487,11.989-36.831,26.842-45.438
	c14.853-8.608,26.918-2.22,26.947,14.267C518.765,398.771,518.765,398.81,518.765,398.849z M518.765,252.172
	c0.029,16.487-11.989,36.831-26.842,45.438c-14.853,8.608-26.918,2.22-26.947-14.267c0-0.039,0-0.078,0-0.117
	c-0.029-16.487,11.989-36.831,26.842-45.438c14.853-8.608,26.918-2.22,26.947,14.267
	C518.765,252.094,518.765,252.133,518.765,252.172z"/>
<path d="M300.749,330.543c-2.98-6.812-7.049-13.333-11.838-18.872L83.385,194.319c-9.02,1.066-15.054,8.997-15.054,22.043v188.499
	c0,19.805,13.903,43.888,31.054,53.792l175.63,101.419c10.709,6.184,20.152,5.376,25.734-0.924L300.749,330.543L300.749,330.543z
	 M147.162,430.02c-0.029,16.487-12.094,22.875-26.947,14.267s-26.871-28.951-26.842-45.438c0-0.039,0-0.078,0-0.117
	c0.029-16.487,12.094-22.875,26.947-14.267s26.871,28.951,26.842,45.438C147.162,429.943,147.162,429.981,147.162,430.02z
	 M147.162,356.258c-0.029,16.487-12.094,22.875-26.947,14.267s-26.871-28.951-26.842-45.438c0-0.039,0-0.078,0-0.117
	c0.029-16.487,12.094-22.875,26.947-14.267s26.871,28.951,26.842,45.438C147.162,356.18,147.162,356.219,147.162,356.258z
	 M147.162,283.343c-0.029,16.487-12.094,22.875-26.947,14.267s-26.871-28.951-26.842-45.438c0-0.039,0-0.078,0-0.117
	c0.029-16.487,12.094-22.875,26.947-14.267s26.871,28.951,26.842,45.438C147.162,283.266,147.162,283.305,147.162,283.343z
	 M281.037,507.313c-0.029,16.487-12.094,22.875-26.947,14.267c-14.853-8.608-26.871-28.951-26.842-45.438c0-0.039,0-0.078,0-0.117
	c0.029-16.487,12.094-22.875,26.947-14.267s26.871,28.951,26.842,45.438C281.037,507.235,281.037,507.274,281.037,507.313z
	 M281.037,433.55c-0.029,16.487-12.094,22.875-26.947,14.267c-14.853-8.608-26.871-28.951-26.842-45.438c0-0.039,0-0.078,0-0.117
	c0.029-16.487,12.094-22.875,26.947-14.267s26.871,28.951,26.842,45.438C281.037,433.472,281.037,433.511,281.037,433.55z
	 M281.037,360.636c-0.029,16.487-12.094,22.875-26.947,14.267s-26.871-28.951-26.842-45.438c0-0.039,0-0.078,0-0.117
	c0.029-16.487,12.094-22.875,26.947-14.267s26.871,28.951,26.842,45.438C281.037,360.558,281.037,360.597,281.037,360.636z"/>
</svg>
