<?xml version="1.0" encoding="utf-8"?>
<!-- Generator: Adobe Illustrator 17.0.0, SVG Export Plug-In . SVG Version: 6.00 Build 0)  -->
<!DOCTYPE svg PUBLIC "-//W3C//DTD SVG 1.1//EN" "http://www.w3.org/Graphics/SVG/1.1/DTD/svg11.dtd">
<svg version="1.1" id="Layer_1" xmlns="http://www.w3.org/2000/svg" xmlns:xlink="http://www.w3.org/1999/xlink" x="0px" y="0px"
	 width="613px" height="613px" viewBox="0 0 613 613" enable-background="new 0 0 613 613" xml:space="preserve">
<path d="M146.056,334.569c28.69,94.372-65.678,131.354-131.354,197.034c15.088,50.589,14.645,51.031,65.678,65.68
	c65.678-65.68,98.516-164.192,197.032-131.354L146.056,334.569z"/>
<path d="M542.226,464.671c0.009,45.391-37.243,82.195-83.206,82.204c-45.962,0.009-83.229-36.781-83.238-82.172
	c0-0.011,0-0.021,0-0.032c-0.009-45.391,37.243-82.195,83.206-82.204s83.229,36.781,83.238,82.172
	C542.226,464.649,542.226,464.66,542.226,464.671z"/>
<path d="M368.033,460.133c0-0.011,0-0.022,0-0.033c-0.009-47.505,38.978-86.022,87.08-86.031
	c19.582-0.004,37.655,6.376,52.204,17.146c87.35-75.075,139.206-189.95,21.303-307.851
	C298.748-146.509,80.378,268.895,146.056,334.569l131.356,131.354c15.399,15.399,50.031,15.173,91.059,2.852
	C368.183,465.933,368.033,463.05,368.033,460.133z"/>
</svg>
