<?xml version="1.0" encoding="utf-8"?>
<!-- Generator: Adobe Illustrator 17.0.0, SVG Export Plug-In . SVG Version: 6.00 Build 0)  -->
<!DOCTYPE svg PUBLIC "-//W3C//DTD SVG 1.1//EN" "http://www.w3.org/Graphics/SVG/1.1/DTD/svg11.dtd">
<svg version="1.1" id="Layer_1" xmlns="http://www.w3.org/2000/svg" xmlns:xlink="http://www.w3.org/1999/xlink" x="0px" y="0px"
	 width="613px" height="613px" viewBox="0 0 613 613" enable-background="new 0 0 613 613" xml:space="preserve">
<path d="M553.838,316.477c-6.098-30.585-32.63-41.401-57.376-36.573V162.389l13.719-11.179l-7.584-5.332l36.974-38.221
	c-0.001-40.096-67.845-87.042-110.26-77.52l-23.454,47.725l-8.989-6.32l-20.069,56.997c0.209,0.477,0.43,0.942,0.644,1.415
	c-63.247,103.378-182.109,123.824-271.851,155.693c-94.129,33.432-36.653,196.794,46.317,255.122
	c82.97,58.328,256.2,57.15,255.811-42.741c-0.371-95.329-21.39-214.218,54.826-308.746c0.266,0.031,0.524,0.069,0.791,0.099
	l23.163-18.874v112.238c-23.75,8.981-42.727,32.92-34.975,67.753l29.154,152.733l102.311-34.015L553.838,316.477z M347.763,539.35
	l-91.089,14.143l-95.712-30.933l-64.114-78.792L76.765,341.034H387.29l1.545,150.628L347.763,539.35z M501.617,359.106
	c-16.142,0-29.228-13.084-29.228-29.227c0-16.143,13.086-29.227,29.228-29.227c16.142,0,29.228,13.084,29.228,29.227
	C530.845,346.022,517.758,359.106,501.617,359.106z"/>
</svg>
