<?xml version="1.0" encoding="utf-8"?>
<!-- Generator: Adobe Illustrator 17.0.0, SVG Export Plug-In . SVG Version: 6.00 Build 0)  -->
<!DOCTYPE svg PUBLIC "-//W3C//DTD SVG 1.1//EN" "http://www.w3.org/Graphics/SVG/1.1/DTD/svg11.dtd">
<svg version="1.1" id="Layer_1" xmlns="http://www.w3.org/2000/svg" xmlns:xlink="http://www.w3.org/1999/xlink" x="0px" y="0px"
	 width="613px" height="613px" viewBox="0 0 613 613" enable-background="new 0 0 613 613" xml:space="preserve">
<path d="M214.11,24.646c-33.531,0.142-64.602,6.948-79.75,11.692c0,0,137.421,23.32,148.854,118.187
	C178.787,3.96,64.883,186.051,64.883,186.051c23.747-6.23,91.749-24.722,137.162-16.921c31.067,5.337,61.354,33.504,60.047,33.15
	C188.05,220.496,70.423,550.021,90.395,576.78c17.812,20.464,35.641,13.48,53.453,3.1c8.817-69.835,77.622-376.242,161.815-351.508
	c0.012,0.004,0.026-0.004,0.037,0c7.088,2.427,13.793,6.683,14.157,13.186c0.694,12.386-7.303,32.63-5.416,46.692
	c4.379,32.627,10.768,43.976,20.059,55.358c22.189-12.472,43.421-57.442,47.813-80.758c19.883,8.707,51.845,28.873,77.919,103.768
	c13.63-70.182-6.028-125.541-70.561-150.124c27.945-12.079,149.584,49.042,164.43,83.112
	c14.446-61.431-87.73-136.599-172.797-132.605c16.309-4.254,34.231,0.718,51.286-11.841c22.885-16.851,49.574-31.365,74.445-46.953
	c-83.641-36.381-160.826-18.418-166.261,19.237C336.505,43.871,271.653,24.402,214.11,24.646L214.11,24.646z"/>
</svg>
