<?xml version="1.0" encoding="utf-8"?>
<!-- Generator: Adobe Illustrator 17.0.0, SVG Export Plug-In . SVG Version: 6.00 Build 0)  -->
<!DOCTYPE svg PUBLIC "-//W3C//DTD SVG 1.1//EN" "http://www.w3.org/Graphics/SVG/1.1/DTD/svg11.dtd">
<svg version="1.1" id="Layer_1" xmlns="http://www.w3.org/2000/svg" xmlns:xlink="http://www.w3.org/1999/xlink" x="0px" y="0px"
	 width="613px" height="613px" viewBox="0 0 613 613" enable-background="new 0 0 613 613" xml:space="preserve">
<path d="M306.291,57.442l-18.653,50.13l-25.065-46.633l-9.327,47.799l-35.557-44.884l5.247,64.595
	c22.031,22.031,144.357,22.354,166.712,0l4.664-64.595l-35.557,44.884l-9.327-47.799l-25.065,46.05l-18.07-49.547L306.291,57.442
	L306.291,57.442z"/>
<path d="M308.253,169.236c-52.487,0-95.085,54.446-95.085,121.534c0,35.693,12.506,67.621,31.694,89.862
	c-101.708,23.173-108.351,104.486-108.351,223.181h344.956c0-118.254,1.447-204.059-107.615-225.391
	c17.994-22.117,29.482-53.249,29.482-87.652c0-67.087-42.597-121.534-95.085-121.534H308.253z"/>
</svg>
