<?xml version="1.0" encoding="utf-8"?>
<!-- Generator: Adobe Illustrator 17.0.0, SVG Export Plug-In . SVG Version: 6.00 Build 0)  -->
<!DOCTYPE svg PUBLIC "-//W3C//DTD SVG 1.1//EN" "http://www.w3.org/Graphics/SVG/1.1/DTD/svg11.dtd">
<svg version="1.1" id="Layer_1" xmlns="http://www.w3.org/2000/svg" xmlns:xlink="http://www.w3.org/1999/xlink" x="0px" y="0px"
	 width="613px" height="613px" viewBox="0 0 613 613" enable-background="new 0 0 613 613" xml:space="preserve">
<path d="M555.287,151.29c-31.002-53.697-99.899-72.387-153.433-41.112c-177.637,103.77-121.65,70.235-303.096,174.99v0.003
	c-53.696,30.999-72.114,99.737-41.112,153.434c31.002,53.697,99.881,72.355,153.433,41.112
	c180.975-105.581,124.858-72.254,303.096-174.993C567.893,273.763,586.289,204.987,555.287,151.29z M508.477,290.039l-148.489,85.73
	c8.123-4.69,13.003-11.94,15.257-20.865c20.452-11.926,47.175-27.364,101.496-58.496c15.984-9.161,27.953-22.274,35.463-37.71
	l-0.003-0.001c12.519-25.727,12.331-57.276-2.935-83.837c-2.204-3.84-5.01-7.048-7.673-10.421
	c12.999,39.277-2.88,83.78-40.174,105.153c-42.841,24.553-68.549,39.402-87.568,50.49c-7.981-32.585-31.38-70.648-56.416-94.364
	c-36.159,21.35-50.105,29.859-140.764,81.818c-36.799,21.089-52.727,64.695-40.656,103.582c-0.444-0.23-0.891-0.455-1.331-0.693
	c-2.084-2.587-4.152-5.182-5.86-8.157c-15.266-26.561-15.454-58.11-2.935-83.837l-0.002-0.001
	c7.51-15.436,19.479-28.549,35.463-37.71c79.987-45.842,100.141-57.657,128.536-74.336c-10.239-4.413-19.872-5.011-27.875-0.317
	l148.489-85.73C510.409,62.654,609.965,231.444,508.477,290.039z"/>
</svg>
