<?xml version="1.0" encoding="utf-8"?>
<!-- Generator: Adobe Illustrator 17.0.0, SVG Export Plug-In . SVG Version: 6.00 Build 0)  -->
<!DOCTYPE svg PUBLIC "-//W3C//DTD SVG 1.1//EN" "http://www.w3.org/Graphics/SVG/1.1/DTD/svg11.dtd">
<svg version="1.1" id="Layer_1" xmlns="http://www.w3.org/2000/svg" xmlns:xlink="http://www.w3.org/1999/xlink" x="0px" y="0px"
	 width="613px" height="613px" viewBox="0 0 613 613" enable-background="new 0 0 613 613" xml:space="preserve">
<path d="M335.907,264.467c8.249-95.019,47.875-177.689,105.103-230.137h104.884c-57.228,52.448-90.193,135.117-96.917,230.137
	h84.487v94.968h-82.537c10.02,87.478,43.158,162.877,97.406,211.367H443.448c-54.254-48.49-93.121-123.895-105.183-211.367h-69.198
	c-12.062,87.478-50.929,162.877-105.183,211.367H59.005c54.248-48.49,87.375-123.895,97.406-211.367H67.018v-94.968h91.344
	c-6.736-95.019-39.69-177.689-96.917-230.137h104.89c57.216,52.448,96.848,135.117,105.091,230.137H335.907L335.907,264.467z"/>
</svg>
