<?xml version="1.0" encoding="utf-8"?>
<!-- Generator: Adobe Illustrator 17.0.0, SVG Export Plug-In . SVG Version: 6.00 Build 0)  -->
<!DOCTYPE svg PUBLIC "-//W3C//DTD SVG 1.1//EN" "http://www.w3.org/Graphics/SVG/1.1/DTD/svg11.dtd">
<svg version="1.1" id="Layer_1" xmlns="http://www.w3.org/2000/svg" xmlns:xlink="http://www.w3.org/1999/xlink" x="0px" y="0px"
	 width="613px" height="613px" viewBox="0 0 613 613" enable-background="new 0 0 613 613" xml:space="preserve">
<path d="M298.819,329.75h1.58c-2.372-5.254-5.385-10.318-8.876-14.87L81.133,194.75c-7.756,2.041-12.802,9.686-12.802,21.612
	v188.499c0,19.805,13.903,43.888,31.054,53.792l175.63,101.419c9.56,5.521,18.108,5.464,23.805,0.907L298.819,329.75L298.819,329.75
	z M147.162,430.02c-0.029,16.487-12.094,22.875-26.947,14.267s-26.871-28.951-26.842-45.438c0-0.039,0-0.078,0-0.117
	c0.029-16.487,12.094-22.875,26.947-14.267s26.871,28.951,26.842,45.438C147.162,429.943,147.162,429.981,147.162,430.02z
	 M147.162,283.343c-0.029,16.487-12.094,22.875-26.947,14.267s-26.871-28.951-26.842-45.438c0-0.039,0-0.078,0-0.117
	c0.029-16.487,12.094-22.875,26.947-14.267s26.871,28.951,26.842,45.438C147.162,283.266,147.162,283.305,147.162,283.343z
	 M214.095,394.901c-0.029,16.487-12.094,22.875-26.947,14.267c-14.853-8.608-26.871-28.951-26.842-45.438c0-0.039,0-0.078,0-0.117
	c0.029-16.487,12.094-22.875,26.947-14.267c14.853,8.608,26.871,28.951,26.842,45.438
	C214.096,394.824,214.096,394.863,214.095,394.901z M281.037,507.313c-0.029,16.487-12.094,22.875-26.947,14.267
	c-14.853-8.608-26.871-28.951-26.842-45.438c0-0.039,0-0.078,0-0.117c0.029-16.487,12.094-22.875,26.947-14.267
	s26.871,28.951,26.842,45.438C281.037,507.235,281.037,507.274,281.037,507.313z M281.037,360.636
	c-0.029,16.487-12.094,22.875-26.947,14.267s-26.871-28.951-26.842-45.438c0-0.039,0-0.078,0-0.117
	c0.029-16.487,12.094-22.875,26.947-14.267s26.871,28.951,26.842,45.438C281.037,360.558,281.037,360.597,281.037,360.636z"/>
<path d="M519.339,157.975L336.752,52.355c-17.143-9.917-44.937-9.917-62.081,0L92.084,157.975
	c-13.533,7.828-16.373,19.494-8.54,28.939l207.746,118.62c8.006,1.607,16.655,1.839,24.843,0.686l213.885-122.395
	C534.981,175.025,531.429,164.968,519.339,157.975z M279.257,74.965c14.916-8.85,39.099-8.85,54.014,0
	c14.916,8.85,14.915,23.199,0,32.049c-14.916,8.85-39.099,8.85-54.014,0C264.341,98.164,264.341,83.815,279.257,74.965z
	 M190.824,190.911c-14.916,8.85-39.099,8.85-54.014,0c-14.916-8.85-14.915-23.199,0-32.049c14.916-8.85,39.099-8.85,54.014,0
	C205.74,167.711,205.74,182.06,190.824,190.911z M208.294,233.326c-14.916-8.85-14.916-23.199,0-32.049s39.099-8.85,54.014,0
	c14.916,8.85,14.916,23.199,0,32.049C247.393,242.177,223.21,242.177,208.294,233.326z M333.271,275.431
	c-14.916,8.85-39.099,8.85-54.014,0c-14.916-8.85-14.915-23.199,0-32.049c14.916-8.85,39.099-8.85,54.014,0
	C348.187,252.232,348.187,266.581,333.271,275.431z M350.215,149.118c-14.916-8.85-14.916-23.199,0-32.049
	c14.916-8.85,39.099-8.85,54.014,0c14.916,8.85,14.916,23.199,0,32.049C389.314,157.968,365.131,157.968,350.215,149.118z
	 M475.192,191.223c-14.916,8.85-39.099,8.85-54.014,0s-14.915-23.199,0-32.049c14.916-8.85,39.099-8.85,54.014,0
	C490.108,168.024,490.107,182.372,475.192,191.223z"/>
<path d="M527.909,194.248L323.727,311.091c-6.193,7-11.234,15.647-14.325,24.498v220.792c5.119,8.728,15.605,10.688,27.719,3.692
	l175.63-101.419c17.15-9.904,31.054-33.987,31.054-53.792V216.364C543.805,202.918,537.392,194.911,527.909,194.248z
	 M384.89,476.141c0.029,16.487-11.989,36.831-26.842,45.438c-14.853,8.608-26.918,2.22-26.947-14.267c0-0.039,0-0.078,0-0.117
	c-0.029-16.487,11.989-36.83,26.842-45.438s26.918-2.22,26.947,14.267C384.89,476.063,384.89,476.102,384.89,476.141z
	 M384.89,329.464c0.029,16.487-11.989,36.83-26.842,45.438c-14.853,8.608-26.918,2.22-26.947-14.267c0-0.039,0-0.078,0-0.117
	c-0.029-16.487,11.989-36.831,26.842-45.438c14.853-8.608,26.918-2.22,26.947,14.267C384.89,329.387,384.89,329.426,384.89,329.464z
	 M518.765,398.849c0.029,16.487-11.989,36.83-26.842,45.438c-14.853,8.608-26.918,2.22-26.947-14.267c0-0.039,0-0.078,0-0.117
	c-0.029-16.487,11.989-36.831,26.842-45.438c14.853-8.608,26.918-2.22,26.947,14.267
	C518.765,398.771,518.765,398.81,518.765,398.849z M518.765,252.172c0.029,16.487-11.989,36.831-26.842,45.438
	c-14.853,8.608-26.918,2.22-26.947-14.267c0-0.039,0-0.078,0-0.117c-0.029-16.487,11.989-36.831,26.842-45.438
	c14.853-8.608,26.918-2.22,26.947,14.267C518.765,252.094,518.765,252.133,518.765,252.172z"/>
</svg>
