<?xml version="1.0" encoding="utf-8"?>
<!-- Generator: Adobe Illustrator 17.0.0, SVG Export Plug-In . SVG Version: 6.00 Build 0)  -->
<!DOCTYPE svg PUBLIC "-//W3C//DTD SVG 1.1//EN" "http://www.w3.org/Graphics/SVG/1.1/DTD/svg11.dtd">
<svg version="1.1" id="Layer_1" xmlns="http://www.w3.org/2000/svg" xmlns:xlink="http://www.w3.org/1999/xlink" x="0px" y="0px"
	 width="613px" height="613px" viewBox="0 0 613 613" enable-background="new 0 0 613 613" xml:space="preserve">
<path d="M527.18,194.212L324.588,310.145c-5.886,6.402-10.799,14.302-14.088,22.518v225.391c5.433,7.283,15.321,8.545,26.621,2.02
	l175.63-101.419c17.15-9.904,31.054-33.987,31.054-53.792V216.364C543.805,202.576,537.062,194.506,527.18,194.212z M451.831,363.73
	c0.029,16.487-11.989,36.831-26.842,45.438c-14.853,8.608-26.918,2.22-26.947-14.267c0-0.039,0-0.078,0-0.117
	c-0.029-16.487,11.989-36.831,26.842-45.438c14.853-8.608,26.918-2.22,26.947,14.267
	C451.831,363.652,451.831,363.691,451.831,363.73z"/>
<path d="M519.339,157.975L336.752,52.355c-17.143-9.917-44.937-9.917-62.081,0L92.084,157.975
	c-12.197,7.056-15.707,17.229-10.548,26.084l213.977,122.178c6.435,0.884,13.145,0.928,19.603,0.112l215.274-123.19
	C534.808,174.521,531.124,164.792,519.339,157.975z M190.824,190.911c-14.916,8.85-39.099,8.85-54.014,0
	c-14.916-8.85-14.915-23.199,0-32.049c14.916-8.85,39.099-8.85,54.014,0C205.74,167.711,205.74,182.06,190.824,190.911z
	 M333.269,191.222c-14.916,8.85-39.099,8.85-54.014,0c-14.916-8.85-14.916-23.199,0-32.049c14.916-8.85,39.099-8.85,54.014,0
	C348.185,168.023,348.185,182.372,333.269,191.222z M475.192,191.223c-14.916,8.85-39.099,8.85-54.014,0s-14.915-23.199,0-32.049
	c14.916-8.85,39.099-8.85,54.014,0C490.108,168.024,490.107,182.372,475.192,191.223z"/>
<path d="M299.917,328.693c-2.886-6.133-6.644-11.974-10.993-17.007L83.373,194.32c-9.013,1.072-15.042,9.002-15.042,22.042v188.499
	c0,19.805,13.903,43.888,31.054,53.792l175.63,101.419c10.194,5.887,19.241,5.438,24.902-0.053L299.917,328.693L299.917,328.693z
	 M147.162,430.02c-0.029,16.487-12.094,22.875-26.947,14.267s-26.871-28.951-26.842-45.438c0-0.039,0-0.078,0-0.117
	c0.029-16.487,12.094-22.875,26.947-14.267s26.871,28.951,26.842,45.438C147.162,429.943,147.162,429.981,147.162,430.02z
	 M281.037,360.636c-0.029,16.487-12.094,22.875-26.947,14.267s-26.871-28.951-26.842-45.438c0-0.039,0-0.078,0-0.117
	c0.029-16.487,12.094-22.875,26.947-14.267s26.871,28.951,26.842,45.438C281.037,360.558,281.037,360.597,281.037,360.636z"/>
</svg>
