<?xml version="1.0" encoding="utf-8"?>
<!-- Generator: Adobe Illustrator 17.0.0, SVG Export Plug-In . SVG Version: 6.00 Build 0)  -->
<!DOCTYPE svg PUBLIC "-//W3C//DTD SVG 1.1//EN" "http://www.w3.org/Graphics/SVG/1.1/DTD/svg11.dtd">
<svg version="1.1" id="Layer_1" xmlns="http://www.w3.org/2000/svg" xmlns:xlink="http://www.w3.org/1999/xlink" x="0px" y="0px"
	 width="613px" height="613px" viewBox="0 0 613 613" enable-background="new 0 0 613 613" xml:space="preserve">
<path d="M519.339,157.975L336.752,52.355c-17.143-9.917-44.937-9.917-62.081,0L92.084,157.975
	c-13.485,7.801-16.355,19.412-8.625,28.84l207.946,118.734c10.751,2.138,22.646,1.803,33.026-1.027l200.916-114.974
	C536.157,179.727,534.162,166.549,519.339,157.975z M190.824,190.911c-14.916,8.85-39.099,8.85-54.014,0
	c-14.916-8.85-14.915-23.199,0-32.049c14.916-8.85,39.099-8.85,54.014,0C205.74,167.711,205.74,182.06,190.824,190.911z
	 M333.271,275.431c-14.916,8.85-39.099,8.85-54.014,0c-14.916-8.85-14.915-23.199,0-32.049c14.916-8.85,39.099-8.85,54.014,0
	C348.187,252.232,348.187,266.581,333.271,275.431z M279.255,159.173c14.916-8.85,39.099-8.85,54.014,0
	c14.916,8.85,14.916,23.199,0,32.049s-39.099,8.85-54.014,0C264.339,182.372,264.339,168.023,279.255,159.173z M333.271,107.014
	c-14.916,8.85-39.099,8.85-54.014,0c-14.916-8.85-14.915-23.199,0-32.049c14.916-8.85,39.099-8.85,54.014,0
	C348.187,83.815,348.187,98.164,333.271,107.014z M475.192,191.223c-14.916,8.85-39.099,8.85-54.014,0s-14.915-23.199,0-32.049
	c14.916-8.85,39.099-8.85,54.014,0C490.108,168.024,490.107,182.372,475.192,191.223z"/>
<path d="M531.895,195.018L319.268,316.694c-3.244,4.511-6.02,9.459-8.187,14.554h1.034v228.664
	c5.654,5.59,14.748,6.086,25.006,0.162l175.63-101.419c17.15-9.904,31.054-33.987,31.054-53.792V216.364
	C543.805,204.903,539.142,197.398,531.895,195.018z M384.89,476.141c0.029,16.487-11.989,36.831-26.842,45.438
	c-14.853,8.608-26.918,2.22-26.947-14.267c0-0.039,0-0.078,0-0.117c-0.029-16.487,11.989-36.83,26.842-45.438
	s26.918-2.22,26.947,14.267C384.89,476.063,384.89,476.102,384.89,476.141z M384.89,329.464
	c0.029,16.487-11.989,36.83-26.842,45.438c-14.853,8.608-26.918,2.22-26.947-14.267c0-0.039,0-0.078,0-0.117
	c-0.029-16.487,11.989-36.831,26.842-45.438c14.853-8.608,26.918-2.22,26.947,14.267C384.89,329.387,384.89,329.426,384.89,329.464z
	 M451.827,437.495c0.029,16.487-11.989,36.831-26.842,45.438c-14.853,8.608-26.918,2.22-26.947-14.267c0-0.039,0-0.078,0-0.117
	c-0.029-16.487,11.989-36.831,26.842-45.438c14.853-8.608,26.918-2.22,26.947,14.267
	C451.827,437.417,451.827,437.456,451.827,437.495z M451.827,290.818c0.029,16.487-11.989,36.831-26.842,45.438
	c-14.853,8.608-26.918,2.22-26.947-14.267c0-0.039,0-0.078,0-0.117c-0.029-16.487,11.989-36.83,26.842-45.438
	s26.918-2.22,26.947,14.267C451.827,290.74,451.827,290.779,451.827,290.818z M518.765,398.849
	c0.029,16.487-11.989,36.83-26.842,45.438c-14.853,8.608-26.918,2.22-26.947-14.267c0-0.039,0-0.078,0-0.117
	c-0.029-16.487,11.989-36.831,26.842-45.438c14.853-8.608,26.918-2.22,26.947,14.267
	C518.765,398.771,518.765,398.81,518.765,398.849z M518.765,252.172c0.029,16.487-11.989,36.831-26.842,45.438
	c-14.853,8.608-26.918,2.22-26.947-14.267c0-0.039,0-0.078,0-0.117c-0.029-16.487,11.989-36.831,26.842-45.438
	c14.853-8.608,26.918-2.22,26.947,14.267C518.765,252.094,518.765,252.133,518.765,252.172z"/>
<path d="M301.532,332.397c-2.523-6.231-5.973-12.273-10.077-17.608L81.196,194.735c-7.791,2.016-12.865,9.67-12.865,21.628v188.499
	c0,19.805,13.903,43.888,31.054,53.792l175.63,101.419c11.228,6.484,21.063,5.281,26.517-1.88V332.397z M147.162,430.02
	c-0.029,16.487-12.094,22.875-26.947,14.267s-26.871-28.951-26.842-45.438c0-0.039,0-0.078,0-0.117
	c0.029-16.487,12.094-22.875,26.947-14.267s26.871,28.951,26.842,45.438C147.162,429.943,147.162,429.981,147.162,430.02z
	 M147.162,283.343c-0.029,16.487-12.094,22.875-26.947,14.267s-26.871-28.951-26.842-45.438c0-0.039,0-0.078,0-0.117
	c0.029-16.487,12.094-22.875,26.947-14.267s26.871,28.951,26.842,45.438C147.162,283.266,147.162,283.305,147.162,283.343z
	 M281.037,507.313c-0.029,16.487-12.094,22.875-26.947,14.267c-14.853-8.608-26.871-28.951-26.842-45.438c0-0.039,0-0.078,0-0.117
	c0.029-16.487,12.094-22.875,26.947-14.267s26.871,28.951,26.842,45.438C281.037,507.235,281.037,507.274,281.037,507.313z
	 M281.037,360.636c-0.029,16.487-12.094,22.875-26.947,14.267s-26.871-28.951-26.842-45.438c0-0.039,0-0.078,0-0.117
	c0.029-16.487,12.094-22.875,26.947-14.267s26.871,28.951,26.842,45.438C281.037,360.558,281.037,360.597,281.037,360.636z"/>
</svg>
