<?xml version="1.0" encoding="utf-8"?>
<!-- Generator: Adobe Illustrator 17.0.0, SVG Export Plug-In . SVG Version: 6.00 Build 0)  -->
<!DOCTYPE svg PUBLIC "-//W3C//DTD SVG 1.1//EN" "http://www.w3.org/Graphics/SVG/1.1/DTD/svg11.dtd">
<svg version="1.1" id="Layer_1" xmlns="http://www.w3.org/2000/svg" xmlns:xlink="http://www.w3.org/1999/xlink" x="0px" y="0px"
	 width="613px" height="613px" viewBox="0 0 613 613" enable-background="new 0 0 613 613" xml:space="preserve">
<path d="M436.315,447.951c-2.809-18.835-17.424-35.566-39.427-48.023c-58.591-37.357-68.858-100.906-41.832-142.723
	c34.458-9.917,58.01-29.921,58.01-52.986c0-20.981-19.489-39.428-48.946-50.055c15.099-15.054,24.454-35.914,24.454-58.973
	c0-45.889-37.03-83.09-82.709-83.09s-82.709,37.201-82.709,83.09c0,23.055,9.351,43.912,24.446,58.965
	c-29.468,10.626-48.966,29.077-48.966,50.063c0,23.339,24.117,43.543,59.245,53.334c27.473,41.658,15.781,104.423-44.666,142.962
	c-21.2,12.38-35.125,28.987-37.838,47.456c-38.099,16.124-61.968,39.211-61.968,64.856c0,48.734,86.167,88.245,192.46,88.245
	s192.46-39.507,192.46-88.245C498.329,487.171,474.44,464.076,436.315,447.951z"/>
</svg>
