<?xml version="1.0" encoding="utf-8"?>
<!-- Generator: Adobe Illustrator 17.0.0, SVG Export Plug-In . SVG Version: 6.00 Build 0)  -->
<!DOCTYPE svg PUBLIC "-//W3C//DTD SVG 1.1//EN" "http://www.w3.org/Graphics/SVG/1.1/DTD/svg11.dtd">
<svg version="1.1" id="Layer_1" xmlns="http://www.w3.org/2000/svg" xmlns:xlink="http://www.w3.org/1999/xlink" x="0px" y="0px"
	 width="613px" height="613px" viewBox="0 0 613 613" enable-background="new 0 0 613 613" xml:space="preserve">
<path d="M301.669,332.735c-2.551-6.394-6.084-12.6-10.3-18.058L92.272,195.284c-13.721-4.209-23.941,4.101-23.941,21.078v188.499
	c0,19.805,13.903,43.888,31.054,53.792l175.63,101.419c11.325,6.539,21.23,5.257,26.655-2.068V332.735H301.669z M214.095,394.901
	c-0.029,16.487-12.094,22.875-26.947,14.267c-14.853-8.608-26.871-28.951-26.842-45.438c0-0.039,0-0.078,0-0.117
	c0.029-16.487,12.094-22.875,26.947-14.267c14.853,8.608,26.871,28.951,26.842,45.438
	C214.096,394.824,214.096,394.863,214.095,394.901z"/>
<path d="M519.339,157.975L336.752,52.355c-17.143-9.917-44.937-9.917-62.081,0L92.084,157.975
	c-8.809,5.096-13.079,11.818-12.835,18.496L295.68,306.258c7.061,0.953,14.448,0.895,21.462-0.195L525.91,189.027
	C536.086,179.265,533.901,166.398,519.339,157.975z M333.271,275.431c-14.916,8.85-39.099,8.85-54.014,0
	c-14.916-8.85-14.915-23.199,0-32.049c14.916-8.85,39.099-8.85,54.014,0C348.187,252.232,348.187,266.581,333.271,275.431z
	 M333.271,107.014c-14.916,8.85-39.099,8.85-54.014,0c-14.916-8.85-14.915-23.199,0-32.049c14.916-8.85,39.099-8.85,54.014,0
	C348.187,83.815,348.187,98.164,333.271,107.014z"/>
<path d="M533.449,195.619L320.54,314.977c-5.769,7.547-10.24,16.484-12.605,25.372v212.992c4.34,11.254,15.769,14.481,29.186,6.733
	l175.63-101.419c17.15-9.904,31.054-33.987,31.054-53.792V216.364C543.805,205.743,539.803,198.516,533.449,195.619z
	 M384.89,476.141c0.029,16.487-11.989,36.831-26.842,45.438c-14.853,8.608-26.918,2.22-26.947-14.267c0-0.039,0-0.078,0-0.117
	c-0.029-16.487,11.989-36.83,26.842-45.438s26.918-2.22,26.947,14.267C384.89,476.063,384.89,476.102,384.89,476.141z
	 M451.831,363.73c0.029,16.487-11.989,36.831-26.842,45.438c-14.853,8.608-26.918,2.22-26.947-14.267c0-0.039,0-0.078,0-0.117
	c-0.029-16.487,11.989-36.831,26.842-45.438c14.853-8.608,26.918-2.22,26.947,14.267
	C451.831,363.652,451.831,363.691,451.831,363.73z M518.765,252.172c0.029,16.487-11.989,36.831-26.842,45.438
	c-14.853,8.608-26.918,2.22-26.947-14.267c0-0.039,0-0.078,0-0.117c-0.029-16.487,11.989-36.831,26.842-45.438
	c14.853-8.608,26.918-2.22,26.947,14.267C518.765,252.094,518.765,252.133,518.765,252.172z"/>
</svg>
