<?xml version="1.0" encoding="utf-8"?>
<!-- Generator: Adobe Illustrator 17.0.0, SVG Export Plug-In . SVG Version: 6.00 Build 0)  -->
<!DOCTYPE svg PUBLIC "-//W3C//DTD SVG 1.1//EN" "http://www.w3.org/Graphics/SVG/1.1/DTD/svg11.dtd">
<svg version="1.1" id="Layer_1" xmlns="http://www.w3.org/2000/svg" xmlns:xlink="http://www.w3.org/1999/xlink" x="0px" y="0px"
	 width="613px" height="613px" viewBox="0 0 613 613" enable-background="new 0 0 613 613" xml:space="preserve">
<g>
	<path d="M558.848,365.167c32.675-32.675,41.078-77.246,18.769-99.555c-22.308-22.309-66.88-13.906-99.555,18.769
		c-6.351,6.35-11.771,13.153-16.241,20.151C349.766,237.045,67.482,395.751,247.89,531.353l-0.002,0.002H105.267L73.65,588.42
		h307.392l-105.76-123.416c29.012-31.924,80.629-52.243,115.942-53.867c16.487,53.906,43.329,135.666,85.745,177.281h72.754
		c-51.496-55.652-91.528-130.432-97.966-215.033c1.934,3.884,4.426,7.44,7.536,10.551
		C481.601,406.245,526.173,397.842,558.848,365.167z"/>
	<path d="M179.738,418.318c18.082-106.025,179.616-163.145,275.263-129.069l61.519-153.083l-98.147,98.693l22.962-193.354
		l-50.041,114.686l-16.584-46.183l-39.1,99.811L239.194,25.207l16.553,171.782L100.073,69.739l86.813,167.223l-92.888-35.229
		l40.974,74.272l-98.109-2.487l125.559,81.499l-124.476,35.87L179.738,418.318z"/>
</g>
</svg>
