<?xml version="1.0" encoding="utf-8"?>
<!-- Generator: Adobe Illustrator 17.0.0, SVG Export Plug-In . SVG Version: 6.00 Build 0)  -->
<!DOCTYPE svg PUBLIC "-//W3C//DTD SVG 1.1//EN" "http://www.w3.org/Graphics/SVG/1.1/DTD/svg11.dtd">
<svg version="1.1" id="Layer_1" xmlns="http://www.w3.org/2000/svg" xmlns:xlink="http://www.w3.org/1999/xlink" x="0px" y="0px"
	 width="613px" height="613px" viewBox="0 0 613 613" enable-background="new 0 0 613 613" xml:space="preserve">
<path d="M300.293,331.629h0.924c-2.19-5.235-5.029-10.322-8.357-14.949L79.95,195.112c-7.082,2.483-11.619,9.942-11.619,21.25
	v188.499c0,19.805,13.903,43.888,31.054,53.792l175.63,101.419c10.427,6.021,19.647,5.405,25.279-0.447V331.629H300.293z
	 M192.494,464.23l-35.054-20.239v-36.737l35.054,20.239V464.23z M222.304,382.993c-2.525,3.84-6.83,7.064-12.914,9.674l-6.214,2.294
	c-4.402,1.724-7.283,3.501-8.642,5.33c-1.359,1.761-2.039,4.189-2.039,7.285v4.644l0,0l0,0l0,0l-35.054-20.238v-5.057
	c0-5.641,1.068-10.012,3.204-13.113c2.136-3.17,6.635-6.145,13.497-8.925l6.214-2.397c3.69-1.447,6.376-3.267,8.059-5.46
	c1.748-2.155,2.622-4.816,2.622-7.98c0-4.816-1.554-9.462-4.661-13.939c-3.107-4.546-7.445-8.426-13.012-11.64
	c-5.244-3.027-10.908-5.128-16.993-6.302c-6.085-1.243-12.429-1.5-19.032-0.772v-32.403c7.833,1.633,14.986,3.63,21.459,5.992
	c6.473,2.362,12.72,5.28,18.741,8.756c15.795,9.12,27.836,19.511,36.122,31.175c8.286,11.595,12.429,23.962,12.429,37.103
	C226.091,373.759,224.829,379.084,222.304,382.993z"/>
<path d="M519.339,157.975L336.752,52.355c-17.143-9.917-44.937-9.917-62.081,0L92.084,157.975
	c-14.626,8.46-16.763,21.403-6.432,31.18l202.631,115.7c11.177,2.793,23.949,2.774,35.103-0.062l202.851-116.081
	C536.04,178.989,533.744,166.307,519.339,157.975z M312.346,199.55l-4.412-2.472c-4.922-2.757-8.063-5.874-9.424-9.349
	c-1.421-3.509-1.184-9.089,0.711-16.741l1.821-6.871c1.06-4.091,1.164-7.445,0.31-10.061c-0.78-2.657-2.551-4.758-5.312-6.305
	c-4.202-2.354-9.234-3.2-15.096-2.539c-5.922,0.628-12.038,2.709-18.348,6.244c-5.942,3.329-11.341,7.497-16.197,12.504
	c-4.915,4.973-9.134,10.666-12.656,17.078l-28.271-15.839c6.356-6.386,12.602-11.97,18.738-16.753s12.616-9.085,19.438-12.908
	c17.901-10.029,34.548-15.993,49.941-17.891c15.333-1.932,28.732,0.314,40.197,6.736c5.882,3.296,9.734,7.056,11.555,11.282
	c1.761,4.192,1.864,9.717,0.31,16.573l-1.911,6.821c-1.267,4.88-1.531,8.39-0.791,10.531c0.68,2.107,2.371,3.918,5.072,5.431
	l4.052,2.27l0,0l0,0l0,0L312.346,199.55z M357.724,224.972l-32.053-17.957l39.727-22.257l32.053,17.957L357.724,224.972z"/>
<path d="M531.532,194.898L319.664,316.139c-3.515,4.795-6.508,10.103-8.788,15.573v226.815c5.505,6.855,15.198,7.925,26.245,1.546
	l175.63-101.419c17.15-9.904,31.054-33.987,31.054-53.792V216.364C543.805,204.712,538.988,197.143,531.532,194.898z
	 M443.414,453.627l-35.054,20.238v-36.737l35.054-20.239V453.627z M473.224,337.967c-2.525,6.755-6.83,14.951-12.914,24.587
	l-6.215,9.47c-4.402,6.807-7.283,11.91-8.642,15.309c-1.359,3.33-2.039,6.544-2.039,9.639v4.644l0,0l0,0l0,0l-35.054,20.238v-5.057
	c0-5.641,1.068-11.246,3.204-16.813c2.136-5.636,6.635-13.806,13.497-24.51l6.214-9.573c3.69-5.708,6.376-10.63,8.059-14.766
	c1.748-4.174,2.622-7.843,2.622-11.008c0-4.816-1.554-7.668-4.661-8.557c-3.107-0.958-7.445,0.171-13.012,3.385
	c-5.244,3.028-10.908,7.467-16.993,13.32c-6.085,5.784-12.429,12.852-19.032,21.205v-32.403
	c7.833-7.412,14.986-13.674,21.459-18.788c6.473-5.113,12.72-9.408,18.741-12.884c15.795-9.119,27.836-12.631,36.122-10.536
	c8.286,2.027,12.429,9.611,12.429,22.751C477.011,324.361,475.749,331.144,473.224,337.967z"/>
</svg>
