<?xml version="1.0" encoding="utf-8"?>
<!-- Generator: Adobe Illustrator 17.0.0, SVG Export Plug-In . SVG Version: 6.00 Build 0)  -->
<!DOCTYPE svg PUBLIC "-//W3C//DTD SVG 1.1//EN" "http://www.w3.org/Graphics/SVG/1.1/DTD/svg11.dtd">
<svg version="1.1" id="Layer_1" xmlns="http://www.w3.org/2000/svg" xmlns:xlink="http://www.w3.org/1999/xlink" x="0px" y="0px"
	 width="612px" height="612px" viewBox="0 0 612 612" enable-background="new 0 0 612 612" xml:space="preserve">
<path d="M558.792,364.483c32.671-32.672,41.074-77.257,18.763-99.549c-22.309-22.31-66.877-13.908-99.548,18.764
	c-6.347,6.347-11.766,13.146-16.234,20.142c-15.531-9.353-34.326-14.367-54.712-15.695l-20.813-167.787L409.145,95.9l-6.618-41.847
	l-21.636,23.112l-0.724-5.836l-8.526,1.058l0.68,5.483l-26.796-14.8l6.618,41.847l25.264,13.954l20.955,168.933
	c-11.623-0.17-23.664,0.78-35.835,2.735l-102.17-176.958l11.663-28.721l-21.183-36.691l-11.663,28.723l-3.551-6.151l-7.44,4.296
	l3.628,6.283l-30.953-4.296l21.183,36.691l30.954,4.296l100.544,174.143c-11.604,2.319-23.255,5.525-34.706,9.507L185.409,188.234
	l2.471-30.49l-31.219-28.641l-2.63,32.456l-7.599-6.46l-5.564,6.545l5.96,5.067l-29.18,4.918l31.219,28.641l31.243-5.265
	l129.464,110.059c-100.321,38.972-179.357,137.197-61.749,225.605H105.208l-31.615,57.06h307.389L275.23,464.321
	c29.007-31.922,80.631-52.237,115.944-53.873c16.481,53.907,43.323,135.663,85.744,177.282h72.757
	c-51.496-55.644-91.523-130.434-97.971-215.039c1.934,3.886,4.427,7.444,7.539,10.556
	C481.553,405.557,526.12,397.155,558.792,364.483z"/>
</svg>
