<?xml version="1.0" encoding="utf-8"?>
<!-- Generator: Adobe Illustrator 17.0.0, SVG Export Plug-In . SVG Version: 6.00 Build 0)  -->
<!DOCTYPE svg PUBLIC "-//W3C//DTD SVG 1.1//EN" "http://www.w3.org/Graphics/SVG/1.1/DTD/svg11.dtd">
<svg version="1.1" id="Layer_1" xmlns="http://www.w3.org/2000/svg" xmlns:xlink="http://www.w3.org/1999/xlink" x="0px" y="0px"
	 width="613px" height="613px" viewBox="0 0 613 613" enable-background="new 0 0 613 613" xml:space="preserve">
<path d="M577.28,326.407c0-28.622-68.829-53.199-166.846-63.689c-0.174-2.165-0.366-4.322-0.572-6.472
	c-0.029-0.301-0.057-0.603-0.086-0.904c-0.215-2.195-0.449-4.38-0.7-6.553c-0.037-0.318-0.073-0.635-0.11-0.953
	c-0.255-2.157-0.529-4.301-0.822-6.432c-0.044-0.322-0.088-0.643-0.133-0.964c-0.299-2.122-0.618-4.227-0.958-6.316
	c-0.027-0.165-0.049-0.335-0.076-0.5l0.007,0.08c-0.715-4.35-1.518-8.629-2.431-12.805
	c101.133-10.123,172.727-35.107,172.727-64.298c0-33.033-91.689-60.675-214.111-67.495c-1.339-34.185-20.166-62.409-45.243-70.62
	c-4.82-1.578-9.871-2.418-15.073-2.418c-2.08,0-4.236-0.263-6.262,0l0.003,0.001c-29.441,3.828-52.629,34.975-54.057,73.2
	c-120.945,7.096-211.16,34.563-211.162,67.331c-0.002,29.206,71.669,54.202,172.888,64.315c-1.58,6.38-2.93,12.99-4.078,19.759
	l0.006-0.061c-0.032,0.188-0.058,0.38-0.09,0.568c-0.369,2.197-0.72,4.407-1.049,6.633c-0.046,0.311-0.089,0.623-0.134,0.934
	c-0.319,2.199-0.621,4.409-0.903,6.631c-0.043,0.34-0.083,0.682-0.125,1.023c-0.265,2.137-0.518,4.281-0.751,6.433
	c-97.438,10.555-165.763,35.054-165.765,63.57c-0.002,32.663,89.645,60.057,210.007,67.259l2.304,30.933
	C121.958,431.551,31.039,459.09,31.039,492.01c0,38.168,122.213,69.107,272.969,69.107s272.969-30.939,272.969-69.107
	c0.001-32.822-90.376-60.298-211.562-67.351l2.043-31.004C487.726,386.435,577.28,359.054,577.28,326.407z M499.095,317.33
	c0,21.468-54.097,39.872-129.685,46.715l1.441-21.871h41.601c0-15.18,0.061-31.729-0.413-48.559l0.002,0.02
	c-0.002-0.054-0.004-0.108-0.005-0.161c-0.066-2.315-0.143-4.636-0.231-6.959c-0.008-0.221-0.016-0.441-0.024-0.661
	c-0.089-2.31-0.192-4.622-0.306-6.934c-0.012-0.24-0.022-0.48-0.035-0.72c-0.03-0.591-0.063-1.181-0.094-1.771
	C464.216,285.111,499.095,300.092,499.095,317.33z M499.095,147.525c0,18.922-42.025,35.462-103.745,43.806
	c-9.935-22.99-25.636-39.45-50.443-43.297c9.786-12.275,16.507-28.744,18.016-47.147
	C441.885,107.067,499.095,125.446,499.095,147.525z M108.864,147.525c0.001-21.813,56.286-40.013,133.948-46.409
	c1.598,18.808,8.675,35.488,18.892,47.811c-22.353,4.207-37.392,20.257-47.504,42.545
	C151.703,183.174,108.864,166.554,108.864,147.525z M108.864,317.33c0-17.103,34.609-31.986,86.99-40.699
	c-0.05,0.626-0.101,1.252-0.148,1.878c-0.029,0.377-0.055,0.753-0.082,1.13c-0.163,2.205-0.314,4.41-0.452,6.614
	c-0.025,0.405-0.048,0.809-0.072,1.214c-0.13,2.166-0.252,4.329-0.36,6.489c-0.023,0.466-0.044,0.93-0.066,1.396
	c-0.099,2.073-0.192,4.143-0.272,6.205c-0.007,0.185-0.017,0.373-0.024,0.558l0.006-0.068c-0.535,13.877-0.673,27.458-0.673,40.127
	h43.837l1.629,21.872C163.399,357.204,108.864,338.8,108.864,317.33z M498.984,483.152c0,27.262-87.295,49.362-194.978,49.362
	s-194.978-22.1-194.978-49.362c0-22.012,56.916-40.656,135.518-47.021l4.631,62.162c29.449,10.356,86.125,9.241,111.385,0
	l4.09-62.065C442.64,442.685,498.984,461.251,498.984,483.152z"/>
</svg>
