<?xml version="1.0" encoding="utf-8"?>
<!-- Generator: Adobe Illustrator 17.0.0, SVG Export Plug-In . SVG Version: 6.00 Build 0)  -->
<!DOCTYPE svg PUBLIC "-//W3C//DTD SVG 1.1//EN" "http://www.w3.org/Graphics/SVG/1.1/DTD/svg11.dtd">
<svg version="1.1" id="Layer_1" xmlns="http://www.w3.org/2000/svg" xmlns:xlink="http://www.w3.org/1999/xlink" x="0px" y="0px"
	 width="613px" height="613px" viewBox="0 0 613 613" enable-background="new 0 0 613 613" xml:space="preserve">
<polygon points="351.433,474.098 350.365,488.436 263.733,488.436 262.788,474.098 103.463,474.098 308.518,594.288 
	513.587,474.098 "/>
<path d="M308.61,113.382c1.62,0,3.295-0.267,4.87,0l0.004,0.003c17.423,2.263,32.02,16.837,38.498,36.772h161.61L308.528,29.972
	L103.467,150.157h161.796C272.359,128.535,289.119,113.382,308.61,113.382z"/>
<g>
	<path d="M255.731,367.013h-37.77c-12.766-67.9,4.242-142.665,57.949-150.993c-8.681-10.891-14.266-26.023-14.266-42.793
		c0-13.689,3.609-26.278,9.662-36.347h-91.993v347.259h84.137L255.731,367.013z"/>
	<path d="M346.031,136.879c5.992,10.113,9.552,22.717,9.552,36.349c0,17.193-5.889,32.548-14.96,43.486
		c49.166,9.25,72.771,80.566,58.295,150.298H359.41l-8.725,117.125h87.046V136.879H346.031z"/>
</g>
</svg>
