<?xml version="1.0" encoding="utf-8"?>
<!-- Generator: Adobe Illustrator 17.0.0, SVG Export Plug-In . SVG Version: 6.00 Build 0)  -->
<!DOCTYPE svg PUBLIC "-//W3C//DTD SVG 1.1//EN" "http://www.w3.org/Graphics/SVG/1.1/DTD/svg11.dtd">
<svg version="1.1" id="Layer_1" xmlns="http://www.w3.org/2000/svg" xmlns:xlink="http://www.w3.org/1999/xlink" x="0px" y="0px"
	 width="613px" height="613px" viewBox="0 0 613 613" enable-background="new 0 0 613 613" xml:space="preserve">
<path d="M594.007,16.818c-113.728,4.18-205.976,28.775-276.482,66.71l-35.212,58.876l-5.94-33.558
	c-12.586,8.843-24.25,18.186-35.004,27.964l-17.575,53.881l-6.028-30.112c-52.177,58.401-75.519,129.031-69.625,201.222H59.984
	v58.684h48.254l-51.777,45.459L29.847,567.522l17.382,18.968h211.827l17.382-18.968l-26.615-101.579l-49.002-45.458h42.251v-58.684
	h-77.674c30.576-15.841,60.263-37.758,89.659-63.089l-35.673,1.859l0.329-0.366l64.045-27.265
	c55.984-52.142,111.637-113.491,171.174-165.219l-29.284-6.2l67.716-25.221C525.409,51.866,558.753,31.136,594.007,16.818z"/>
</svg>
