<?xml version="1.0" encoding="utf-8"?>
<!-- Generator: Adobe Illustrator 17.0.0, SVG Export Plug-In . SVG Version: 6.00 Build 0)  -->
<!DOCTYPE svg PUBLIC "-//W3C//DTD SVG 1.1//EN" "http://www.w3.org/Graphics/SVG/1.1/DTD/svg11.dtd">
<svg version="1.1" id="Layer_1" xmlns="http://www.w3.org/2000/svg" xmlns:xlink="http://www.w3.org/1999/xlink" x="0px" y="0px"
	 width="613px" height="613px" viewBox="0 0 613 613" enable-background="new 0 0 613 613" xml:space="preserve">
<path d="M546.965,89.92c-21.141,0-38.279,17.149-38.279,38.295c0,12.809,6.295,24.142,15.952,31.094l-60.537,95.049
	c12.895,6.829,21.685,20.383,21.685,35.992c0,22.477-18.217,40.703-40.689,40.703s-40.689-18.222-40.689-40.703
	c0-20.443,15.065-37.362,34.695-40.262l-41.537-97.468c18.275-4.264,31.893-20.652,31.893-40.232
	c0-22.824-18.495-41.327-41.31-41.327c-22.815,0-41.31,18.507-41.31,41.327c0,17.687,11.114,32.774,26.735,38.67l-53.198,90.746
	c17.466,5.408,30.155,21.694,30.155,40.94c0,23.661-19.176,42.847-42.832,42.847s-42.832-19.182-42.832-42.847
	c0-18.116,11.245-33.596,27.128-39.864l-52.768-91.667c15.831-5.786,27.132-20.985,27.132-38.825
	c0-22.824-18.495-41.327-41.31-41.327s-41.31,18.507-41.31,41.327c0,19.223,13.125,35.382,30.9,39.998l-42.226,97.934
	c18.962,3.463,33.339,20.065,33.339,40.03c0,22.477-18.217,40.703-40.689,40.703s-40.689-18.222-40.689-40.703
	c0-15.983,9.213-29.807,22.612-36.468L86.263,159.2c9.57-6.961,15.798-18.242,15.798-30.985c0-21.149-17.138-38.295-38.279-38.295
	c-21.141,0-38.279,17.149-38.279,38.295s17.138,38.292,38.279,38.292c0.887,0,1.763-0.041,2.635-0.1l54.139,293.328
	c-32.803,0.864-32.885,48.02,0.912,48.02h7.951l0.07,0.379h351.785l0.07-0.379h9.108c32.912,0,33.501-48.04,0-48.04h-0.241
	l54.135-293.306c0.867,0.059,1.738,0.099,2.619,0.099c21.141,0,38.279-17.143,38.279-38.292
	C585.244,107.066,568.106,89.92,546.965,89.92z"/>
</svg>
