<?xml version="1.0" encoding="utf-8"?>
<!-- Generator: Adobe Illustrator 17.0.0, SVG Export Plug-In . SVG Version: 6.00 Build 0)  -->
<!DOCTYPE svg PUBLIC "-//W3C//DTD SVG 1.1//EN" "http://www.w3.org/Graphics/SVG/1.1/DTD/svg11.dtd">
<svg version="1.1" id="Layer_1" xmlns="http://www.w3.org/2000/svg" xmlns:xlink="http://www.w3.org/1999/xlink" x="0px" y="0px"
	 width="613px" height="613px" viewBox="0 0 613 613" enable-background="new 0 0 613 613" xml:space="preserve">
<path d="M483.647,71.22c-10.571-26.014-38.997-44.677-73.298-44.677c-68.526,0-73.204,43.243-108.901,65.62
	c-116.429-41.327-142.331,172.573-98.429,302.269c-18.403,38.159-36.727,90.726-52.358,161.259
	c67.925,36.647,142.382,46.23,217.802,11.866c-7.412-45.079-16.962-82.319-26.271-114.013
	c29.911-15.096,71.25-17.431,103.409,17.207c0.306-36.698-26.221-50.985-54.092-50.628l-24.723-52.22
	c52.922-54.611,93.428-122.184,73.221-191.949c-12.315-45.96,69.59-74.372,146.258-64.243
	C556.955,86.413,519.333,75.277,483.647,71.22z M327.127,404.905c10.476-8.917,20.921-18.379,31.026-28.31l21.12,44.61
	c-16.061,2.593-31.31,9.717-40.811,19.869C334.519,428.115,330.678,416.114,327.127,404.905z M443.262,82.222
	c-4.365,0-7.903-3.539-7.903-7.903c0-4.365,3.539-7.903,7.903-7.903s7.903,3.539,7.903,7.903
	C451.165,78.683,447.627,82.222,443.262,82.222z"/>
</svg>
