<?xml version="1.0" encoding="utf-8"?>
<!-- Generator: Adobe Illustrator 17.0.0, SVG Export Plug-In . SVG Version: 6.00 Build 0)  -->
<!DOCTYPE svg PUBLIC "-//W3C//DTD SVG 1.1//EN" "http://www.w3.org/Graphics/SVG/1.1/DTD/svg11.dtd">
<svg version="1.1" id="Layer_1" xmlns="http://www.w3.org/2000/svg" xmlns:xlink="http://www.w3.org/1999/xlink" x="0px" y="0px"
	 width="613px" height="613px" viewBox="0 0 613 613" enable-background="new 0 0 613 613" xml:space="preserve">
<path d="M183.237,504.166c0-41.393-33.556-74.949-74.949-74.949s-74.949,33.556-74.949,74.949c0,41.393,33.556,74.949,74.949,74.949
	S183.237,545.559,183.237,504.166"/>
<path d="M395.593,579.116H289.415c0-141.427-114.649-256.077-256.077-256.077V216.861
	C233.406,216.861,395.593,379.048,395.593,579.116L395.593,579.116z"/>
<path d="M470.542,579.115c0-241.461-195.743-437.204-437.204-437.204V32.61c301.826,0,546.505,244.679,546.505,546.505H470.542z"/>
</svg>
