<?xml version="1.0" encoding="utf-8"?>
<!-- Generator: Adobe Illustrator 17.0.0, SVG Export Plug-In . SVG Version: 6.00 Build 0)  -->
<!DOCTYPE svg PUBLIC "-//W3C//DTD SVG 1.1//EN" "http://www.w3.org/Graphics/SVG/1.1/DTD/svg11.dtd">
<svg version="1.1" id="Layer_1" xmlns="http://www.w3.org/2000/svg" xmlns:xlink="http://www.w3.org/1999/xlink" x="0px" y="0px"
	 width="613px" height="613px" viewBox="0 0 613 613" enable-background="new 0 0 613 613" xml:space="preserve">
<path d="M373.734,227.006c-30.64-37.31,12.818-124.422,28.303-160.099h-23.624l15.588-42.152H217.778l17.975,42.152h-24.08
	c18.794,51.497,63.918,111.531,29.48,160.099c-35.744,50.414-120.075,93.948-120.075,173.442
	c0,102.738,83.212,186.783,185.949,186.783S493.81,503.183,493.81,400.448C493.81,321.125,413.035,274.862,373.734,227.006z
	 M307.079,556.642c-83.399,0-151.229-68.564-151.229-151.961c0-30.613,15.945-54.428,35.237-75.614h0.001h234.183
	c18.595,21.286,33.769,45.43,33.769,75.614C459.041,488.078,390.478,556.642,307.079,556.642z"/>
</svg>
