<?xml version="1.0" encoding="utf-8"?>
<!-- Generator: Adobe Illustrator 17.0.0, SVG Export Plug-In . SVG Version: 6.00 Build 0)  -->
<!DOCTYPE svg PUBLIC "-//W3C//DTD SVG 1.1//EN" "http://www.w3.org/Graphics/SVG/1.1/DTD/svg11.dtd">
<svg version="1.1" id="Layer_1" xmlns="http://www.w3.org/2000/svg" xmlns:xlink="http://www.w3.org/1999/xlink" x="0px" y="0px"
	 width="612px" height="612px" viewBox="0 0 612 612" enable-background="new 0 0 612 612" xml:space="preserve">
<g transform="matrix(15 0 0 15 15.99995 -6109.4326)">
</g>
<g transform="matrix(6.31579 0 0 6.31579 -3179.78995 -2739.9721)">
	<path d="M551.917,436.856c0,0-22.711,11.355-22.711,39.744v22.711c0,5.678,0,5.678,5.678,5.678h34.066c5.678,0,5.678,0,5.678-5.678
		V476.6C574.628,448.211,551.917,436.856,551.917,436.856z M551.917,451.05c0,0,11.355,5.678,11.355,25.55v11.355h-22.711V476.6
		C540.561,456.728,551.917,451.05,551.917,451.05z"/>
	<path d="M531.596,513.505h40.641c1.32,0,2.391,1.07,2.391,2.391v9.413c0,1.32-1.07,2.391-2.391,2.391h-40.641
		c-1.32,0-2.391-1.07-2.391-2.391v-9.413C529.206,514.575,530.276,513.505,531.596,513.505"/>
</g>
</svg>
