<?xml version="1.0" encoding="utf-8"?>
<!-- Generator: Adobe Illustrator 17.0.0, SVG Export Plug-In . SVG Version: 6.00 Build 0)  -->
<!DOCTYPE svg PUBLIC "-//W3C//DTD SVG 1.1//EN" "http://www.w3.org/Graphics/SVG/1.1/DTD/svg11.dtd">
<svg version="1.1" id="Layer_1" xmlns="http://www.w3.org/2000/svg" xmlns:xlink="http://www.w3.org/1999/xlink" x="0px" y="0px"
	 width="612px" height="612px" viewBox="0 0 612 612" enable-background="new 0 0 612 612" xml:space="preserve">
<path d="M525.393,490.944l67.139,50.945c14.602-37.932,3.824-82.454-30.193-108.268c-26.162-19.852-59.439-23.87-88.161-13.636
	l-10.165-7.712l-1.329-2.522c7.078-10.055,13.21-20.575,18.386-31.443l46.224-1.275l9.467-30.225l-37.342-27.507
	c1.81-11.308,2.711-22.735,2.732-34.166l41.451-21.03l-4.371-31.373l-45.739-8.943c-3.823-13.165-8.907-26.048-15.266-38.459
	l27.274-37.742l-18.239-25.901l-44.883,13.037c-0.562-0.594-1.113-1.195-1.683-1.785c-7.171-7.416-14.747-14.202-22.646-20.386
	l8.619-44.389l-27.44-15.823L365.17,82.006c-11.028-4.439-22.348-7.936-33.835-10.503l-11.172-43.816l-31.578-2.586l-18.196,41.533
	c-9.409,0.57-18.789,1.748-28.077,3.538L214.5,34.276l-29.992,10.196l-0.154,45.711c-12.706,6.534-24.912,14.409-36.415,23.63
	l-42.357-19.084l-21.694,23.079l21.682,41.141c-6.993,9.971-13.06,20.403-18.192,31.181l-46.535,1.284l-9.467,30.225l37.595,27.693
	c-1.798,11.216-2.707,22.549-2.756,33.889l-41.684,21.148l4.371,31.373l45.793,8.953c2.729,9.528,6.108,18.911,10.156,28.072
	l-30.216,37.473l16.855,26.814l46.919-10.968c2.955,3.464,6.021,6.866,9.228,10.183c6.744,6.975,13.821,13.399,21.179,19.28
	l-9.13,47.025l27.44,15.823l35.829-31.205c10.281,4.135,20.825,7.446,31.545,9.934l11.707,45.912l31.578,2.586l18.961-43.289
	c13.114-0.79,26.186-2.748,39.037-5.9l30.133,34.912l29.407-11.78l-1.596-32.226l18.63,14.135
	c-2.204,30.547,10.377,61.84,36.517,81.676c33.995,25.793,79.796,24.204,112.399-0.069l-67.137-50.926
	c-11.846-8.971-14.568-25.976-5.961-37.341C496.782,483.451,513.567,481.97,525.393,490.944z M264.795,453.947
	c-37.966-4.276-74.43-21.427-103.051-51.041c-65.434-67.674-63.55-175.31,4.123-240.721s175.37-64.263,240.785,3.409
	c57.604,59.576,62.978,150.668,17.271,216.26l-111.339-84.474c2.107-30.396-10.724-61.382-36.864-81.218
	c-33.995-25.793-79.796-24.204-112.399,0.069l67.137,50.926c11.826,8.974,14.916,25.517,6.309,36.883
	c-8.607,11.365-25.74,13.304-37.566,4.331l-67.137-50.926c-14.602,37.932-3.824,82.454,30.193,108.268
	c26.138,19.817,59.681,23.502,88.505,13.159l88.305,66.997C315.092,454.055,289.685,456.753,264.795,453.947z"/>
</svg>
