<?xml version="1.0" encoding="utf-8"?>
<!-- Generator: Adobe Illustrator 17.0.0, SVG Export Plug-In . SVG Version: 6.00 Build 0)  -->
<!DOCTYPE svg PUBLIC "-//W3C//DTD SVG 1.1//EN" "http://www.w3.org/Graphics/SVG/1.1/DTD/svg11.dtd">
<svg version="1.1" id="Layer_1" xmlns="http://www.w3.org/2000/svg" xmlns:xlink="http://www.w3.org/1999/xlink" x="0px" y="0px"
	 width="613px" height="613px" viewBox="0 0 613 613" enable-background="new 0 0 613 613" xml:space="preserve">
<path d="M459,114.739c-6.378-0.133-13.04,0.25-19.736,1.245c-84.557-38.231-111.897-94.129-149.652-94.129
	c-32.663,0-31.041,60.32,93.551,124.917c-0.22,0.292-0.447,0.575-0.663,0.872c-9.503,13.034-133.827-59.335-172.125-59.259
	c-51.566,0.106,24.086,121.982,147.298,102.857c11.69-1.816-5.79,17.416-4.351,28.342v-0.004c0.446,3.38,1.243,6.606,2.347,9.689
	c-120.211-3.141-195.172,18.809-238.751,53.145c-30.954-17.298-32.023-78.337-63.93-62.543
	C19.076,236.65,39.985,326.81,68.911,356.688c-19.582,84.896,43.038,186.235,92.839,217.055H382.5l0,0v0h172.125
	c21.304-15.117,9.327-27.007,0-38.25c-11.523-13.891-47.151-22.974-76.5-19.125c-42.709-17.391,104.291-114.424,0.518-228.923
	c19.556,1.114,41.873-0.438,61.307-6.551c0.442,0.314,0.893,0.624,1.359,0.93l0.858-1.647c17.839-6.005,33.002-16.009,40.942-31.563
	C592.875,229.489,519.838,116.01,459,114.739z M478.091,210.199c-10.562,0-19.125-8.563-19.125-19.125
	c0-10.562,8.563-19.125,19.125-19.125c10.563,0,19.125,8.563,19.125,19.125C497.216,201.636,488.653,210.199,478.091,210.199z"/>
</svg>
