<?xml version="1.0" encoding="utf-8"?>
<!-- Generator: Adobe Illustrator 17.0.0, SVG Export Plug-In . SVG Version: 6.00 Build 0)  -->
<!DOCTYPE svg PUBLIC "-//W3C//DTD SVG 1.1//EN" "http://www.w3.org/Graphics/SVG/1.1/DTD/svg11.dtd">
<svg version="1.1" id="Layer_1" xmlns="http://www.w3.org/2000/svg" xmlns:xlink="http://www.w3.org/1999/xlink" x="0px" y="0px"
	 width="613px" height="613px" viewBox="0 0 613 613" enable-background="new 0 0 613 613" xml:space="preserve">
<g>
	<path d="M99.596,266.561l80.293,21.514c0.004-0.033,0.01-0.065,0.014-0.098c-0.684,5.344-1.032,10.673-1.044,15.96l45.766-21.967
		l-28.748-41.675c-3.261,5.693-6.108,11.697-8.507,17.977c0.056-0.146,0.107-0.294,0.163-0.439l-79.867-21.4l9.175-34.236
		l-95.513,25.046l70.012,70.132L99.596,266.561z M180.459,284.126c0.02-0.125,0.036-0.25,0.056-0.375
		C180.495,283.876,180.479,284.001,180.459,284.126z M181.2,279.914c0.028-0.148,0.052-0.295,0.081-0.443
		C181.252,279.618,181.228,279.766,181.2,279.914z M182.059,275.825c0.048-0.212,0.088-0.424,0.137-0.635
		C182.147,275.402,182.107,275.613,182.059,275.825z M186.054,261.888c0.217-0.622,0.439-1.241,0.664-1.859
		C186.493,260.647,186.271,261.266,186.054,261.888z M183.283,270.85c0.326-1.214,0.672-2.417,1.031-3.612
		C183.956,268.433,183.61,269.636,183.283,270.85z M184.763,265.8c0.229-0.73,0.46-1.459,0.701-2.183
		C185.224,264.341,184.992,265.069,184.763,265.8z"/>
	<path d="M593.089,380.443l-70.195-69.449l-9.175,34.239l-79.702-21.356c-0.024,0.154-0.054,0.308-0.078,0.461
		c1.046-6.529,1.584-13.045,1.622-19.5l-42.885,21.26l26.923,40.045c2.271-4.126,4.321-8.413,6.153-12.84
		c-0.08,0.194-0.153,0.393-0.234,0.587l80.132,21.471l-8.256,30.814L593.089,380.443z M433.599,326.334
		c-0.105,0.597-0.215,1.194-0.328,1.792C433.385,327.529,433.494,326.931,433.599,326.334z M432.904,329.987
		c-0.15,0.728-0.31,1.456-0.473,2.183C432.594,331.442,432.754,330.714,432.904,329.987z M432.098,333.652
		c-0.293,1.239-0.6,2.479-0.932,3.717C431.497,336.131,431.804,334.892,432.098,333.652z M427.273,349.454
		c-0.149,0.395-0.303,0.786-0.455,1.179C426.971,350.24,427.125,349.848,427.273,349.454z M429.999,341.44
		c-0.11,0.362-0.23,0.718-0.343,1.079C429.77,342.159,429.89,341.802,429.999,341.44z M428.699,345.478
		c-0.131,0.387-0.271,0.769-0.406,1.154C428.428,346.247,428.567,345.865,428.699,345.478z"/>
	<path d="M228.329,202.94c0.336-0.261,0.68-0.51,1.018-0.767c-4.1,3.127-8.026,6.494-11.738,10.106l48.079,15.803l8.686-47.997
		c-6.619,1.758-13.068,4.042-19.288,6.813l-41.266-71.475L244.515,97.7l-85.246-49.827l-0.089,99.097l27.626-15.95L228.329,202.94z
		 M247.944,190.35c0.262-0.137,0.528-0.265,0.791-0.4C248.473,190.085,248.206,190.214,247.944,190.35z M230.759,201.108
		c0.59-0.437,1.185-0.866,1.782-1.293C231.944,200.242,231.348,200.671,230.759,201.108z M234.066,198.737
		c0.567-0.393,1.139-0.777,1.712-1.161C235.205,197.96,234.633,198.344,234.066,198.737z M237.443,196.473
		c0.532-0.344,1.069-0.679,1.606-1.016C238.512,195.793,237.975,196.128,237.443,196.473z M240.885,194.318
		c0.479-0.289,0.964-0.569,1.447-0.852C241.849,193.75,241.364,194.029,240.885,194.318z M244.387,192.277
		c0.399-0.224,0.803-0.438,1.205-0.658C245.19,191.839,244.786,192.053,244.387,192.277z"/>
	<polygon points="244.518,97.703 244.516,97.7 244.515,97.701 	"/>
	<path d="M424.009,479.482l-41.308-71.548c5.432-3.946,10.566-8.321,15.342-13.096l-46.619-16.247l-8.857,48.946
		c4.777-1.374,9.454-3.034,14.021-4.942c-0.387,0.162-0.769,0.333-1.158,0.491l41.565,71.993l-27.626,15.95l85.864,49.473
		l-0.527-98.741L424.009,479.482z M360.193,421.023c-0.556,0.252-1.11,0.506-1.67,0.75
		C359.082,421.529,359.637,421.275,360.193,421.023z M376.658,412.056c-0.158,0.102-0.313,0.208-0.472,0.309
		C376.345,412.264,376.5,412.157,376.658,412.056z M373.675,413.914c-0.3,0.182-0.596,0.369-0.897,0.548
		C373.079,414.282,373.375,414.095,373.675,413.914z M370.479,415.785c-0.392,0.222-0.781,0.45-1.175,0.668
		C369.698,416.235,370.087,416.007,370.479,415.785z M367.153,417.606c-0.462,0.245-0.923,0.493-1.388,0.732
		C366.231,418.099,366.691,417.851,367.153,417.606z M363.718,419.357c-0.515,0.253-1.029,0.509-1.547,0.755
		C362.689,419.866,363.203,419.61,363.718,419.357z"/>
	<path d="M203.434,379.643c4.037,5.559,8.521,10.807,13.424,15.676l16.63-47.72l-50.114-9.727c1.421,5.2,3.173,10.289,5.223,15.246
		c-0.097-0.234-0.202-0.465-0.297-0.7l-71.981,41.559l-15.95-27.626l-49.474,85.862l98.741-0.527l-17.721-30.696l71.547-41.307
		C203.453,379.67,203.444,379.656,203.434,379.643z M190.207,356.84c-0.301-0.668-0.594-1.34-0.884-2.013
		C189.612,355.5,189.906,356.172,190.207,356.84z M201.87,377.422c-0.257-0.369-0.519-0.734-0.771-1.106
		C201.351,376.687,201.613,377.052,201.87,377.422z M199.758,374.284c-0.299-0.459-0.602-0.915-0.896-1.378
		C199.156,373.369,199.459,373.825,199.758,374.284z M197.677,370.985c-0.317-0.519-0.635-1.038-0.944-1.561
		C197.042,369.947,197.36,370.466,197.677,370.985z M195.667,367.574c-0.322-0.566-0.643-1.133-0.957-1.705
		C195.024,366.441,195.345,367.008,195.667,367.574z M193.747,364.075c-0.32-0.607-0.637-1.215-0.948-1.826
		C193.109,362.86,193.427,363.468,193.747,364.075z M191.925,360.494c-0.313-0.64-0.62-1.282-0.922-1.927
		C191.305,359.211,191.612,359.854,191.925,360.494z"/>
	<polygon points="513.696,241.497 513.695,241.495 513.694,241.497 	"/>
	<path d="M408.455,225.311c0.199,0.255,0.387,0.518,0.584,0.775c-3.058-3.994-6.347-7.82-9.868-11.444l-15.359,45.825l46.809,8.471
		c-1.733-6.049-3.914-11.944-6.498-17.648c0.119,0.262,0.246,0.521,0.363,0.784l71.488-41.273l17.722,30.694l49.828-85.247
		l-99.097-0.087l15.95,27.626L408.455,225.311z M422.443,247.726c0.27,0.552,0.536,1.105,0.799,1.661
		C422.979,248.832,422.713,248.278,422.443,247.726z M410.067,227.451c0.441,0.593,0.879,1.188,1.31,1.788
		C410.946,228.639,410.509,228.043,410.067,227.451z M412.383,230.662c0.414,0.593,0.824,1.188,1.227,1.788
		C413.207,231.85,412.797,231.254,412.383,230.662z M414.604,233.95c0.383,0.586,0.762,1.175,1.135,1.768
		C415.366,235.125,414.988,234.536,414.604,233.95z M416.726,237.308c0.351,0.576,0.699,1.154,1.041,1.735
		C417.424,238.462,417.077,237.884,416.726,237.308z M418.741,240.728c0.321,0.565,0.638,1.131,0.951,1.701
		C419.379,241.859,419.062,241.293,418.741,240.728z M420.648,244.203c0.294,0.556,0.583,1.113,0.869,1.673
		C421.231,245.317,420.942,244.759,420.648,244.203z"/>
	<path d="M353.034,184.299c0.178,0.068,0.359,0.13,0.536,0.199l21.396-79.851l34.238,9.174l-0.005-0.002l-25.046-95.514
		l-70.132,70.012l30.814,8.256l-21.509,80.272c0.122,0.016,0.245,0.037,0.367,0.053c-4.916-0.642-9.819-1.003-14.689-1.075
		l20.918,43.581l40.276-27.079C364.748,189.261,359.015,186.578,353.034,184.299z M351.039,183.559
		c-0.525-0.19-1.053-0.377-1.581-0.56C349.986,183.182,350.514,183.368,351.039,183.559z M347.588,182.36
		c-0.672-0.222-1.35-0.435-2.028-0.647C346.238,181.925,346.916,182.137,347.588,182.36z M344.064,181.246
		c-1.206-0.361-2.419-0.71-3.642-1.038c-0.046-0.012-0.092-0.022-0.138-0.035c0.046,0.012,0.093,0.022,0.139,0.035
		C341.647,180.536,342.859,180.884,344.064,181.246z M327.851,177.508c-0.302-0.05-0.604-0.092-0.907-0.14
		C327.246,177.416,327.548,177.459,327.851,177.508z M336.271,179.172c-0.307-0.072-0.614-0.132-0.92-0.201
		C335.657,179.039,335.964,179.1,336.271,179.172z M332.064,178.268c-0.305-0.06-0.609-0.112-0.914-0.17
		C331.455,178.156,331.76,178.208,332.064,178.268z"/>
	<path d="M287.191,387.268l-42.537,28.969c4.256,2.371,8.686,4.508,13.267,6.409c-0.137-0.057-0.277-0.108-0.413-0.165
		l-21.475,80.148l-30.814-8.256l25.732,95.697l69.449-70.195l-34.236-9.174l21.362-79.726c-0.017-0.003-0.034-0.006-0.051-0.009
		c7.182,1.126,14.347,1.63,21.431,1.541L287.191,387.268z M260.761,423.78c0.355,0.137,0.708,0.279,1.065,0.413
		C261.469,424.059,261.116,423.918,260.761,423.78z M264.725,425.241c0.374,0.131,0.744,0.268,1.119,0.395
		C265.468,425.509,265.098,425.372,264.725,425.241z M273.393,427.944c0.202,0.055,0.4,0.117,0.603,0.172
		c1.32,0.354,2.642,0.679,3.963,0.989c-1.321-0.309-2.643-0.634-3.963-0.988C273.793,428.063,273.596,428,273.393,427.944z
		 M268.726,426.569c0.401,0.126,0.796,0.26,1.199,0.382C269.522,426.829,269.126,426.695,268.726,426.569z M283.489,430.272
		c0.793,0.15,1.586,0.287,2.378,0.422C285.074,430.559,284.282,430.421,283.489,430.272z M279.249,429.395
		c0.87,0.195,1.74,0.38,2.611,0.556C280.989,429.775,280.119,429.589,279.249,429.395z"/>
</g>
</svg>
