<?xml version="1.0" encoding="utf-8"?>
<!-- Generator: Adobe Illustrator 17.0.0, SVG Export Plug-In . SVG Version: 6.00 Build 0)  -->
<!DOCTYPE svg PUBLIC "-//W3C//DTD SVG 1.1//EN" "http://www.w3.org/Graphics/SVG/1.1/DTD/svg11.dtd">
<svg version="1.1" id="Layer_1" xmlns="http://www.w3.org/2000/svg" xmlns:xlink="http://www.w3.org/1999/xlink" x="0px" y="0px"
	 width="613px" height="613px" viewBox="0 0 613 613" enable-background="new 0 0 613 613" xml:space="preserve">
<path d="M587.383,276.291l-68.828-12.709c-4.235-8.165-11.428-14.823-20.758-18.198c-1.176-0.425-2.359-0.785-3.546-1.088
	L417.172,91.756c7.317-14.685,8.248-32.269,1.025-48.199C405.325,15.17,371.438,2.79,342.511,15.906L54.872,133.234
	c-35.045,15.892-50.81,56.665-35.212,91.056c6.645,14.652,17.918,25.767,31.371,32.489l104.744,258.263l4.437,11.288
	c-20.279,18.78-32.978,45.629-32.978,75.449h48.993h107.637h48.995h0.003c0-56.785-46.031-102.815-102.814-102.815
	c-0.186,0-0.371,0.006-0.557,0.007l-7.331-20.142l1.147,0.279l-2.006-2.641l-83.96-230.676l-0.08-0.976l231.138-115.73
	l81.176,138.163c-0.118,0.302-0.243,0.599-0.354,0.905c-0.639,1.767-1.133,3.55-1.499,5.338l-64.708,39.411l21.757,19.819
	l31.538,67.289l32.175,5.988l-13.088-93.052l4.936-2.976c3.358,2.853,7.27,5.169,11.657,6.756
	c16.674,6.031,34.813-0.346,44.313-14.391l23.573,90.493l28.12-16.749l5.637-65.929l2.654,0.477L587.383,276.291z M74.075,150.855
	c24.784-4.1,48.198,12.665,52.298,37.453c4.1,24.782-12.666,48.2-37.45,52.3c-24.784,4.1-48.199-12.671-52.298-37.453
	C32.525,178.373,49.291,154.955,74.075,150.855z M332.694,72.512c-3.064-18.519,9.465-36.018,27.985-39.082
	c14.934-2.471,29.196,5.2,35.768,17.974c0.38,0.738,0.731,1.494,1.058,2.264c0.031,0.073,0.06,0.146,0.09,0.219
	c0.31,0.745,0.598,1.502,0.857,2.276c0.008,0.022,0.016,0.044,0.024,0.067c0.251,0.755,0.47,1.527,0.669,2.307
	c0.043,0.168,0.084,0.338,0.124,0.507c0.186,0.779,0.356,1.566,0.488,2.369c0,0.001,0.001,0.003,0.001,0.004
	c0.575,3.472,0.601,6.909,0.142,10.221c-1.987,14.352-13.08,26.372-28.127,28.861c-0.546,0.09-1.091,0.165-1.636,0.228
	c-0.174,0.02-0.348,0.033-0.522,0.051c-0.37,0.037-0.739,0.073-1.107,0.098c-0.207,0.014-0.413,0.023-0.619,0.033
	c-0.336,0.017-0.672,0.031-1.006,0.038c-0.215,0.004-0.429,0.006-0.643,0.006c-0.327,0-0.654-0.004-0.979-0.013
	c-0.213-0.006-0.427-0.012-0.639-0.022c-0.33-0.015-0.658-0.037-0.986-0.062c-0.203-0.015-0.406-0.029-0.608-0.048
	c-0.355-0.033-0.707-0.076-1.059-0.12c-0.171-0.022-0.343-0.039-0.513-0.063c-0.511-0.072-1.019-0.154-1.524-0.25
	c-0.014-0.003-0.028-0.005-0.042-0.008c-0.507-0.096-1.009-0.206-1.509-0.324c-0.172-0.041-0.341-0.088-0.512-0.132
	c-0.333-0.085-0.665-0.171-0.995-0.265c-0.199-0.057-0.395-0.119-0.593-0.18c-0.299-0.092-0.598-0.186-0.894-0.286
	c-0.203-0.069-0.405-0.14-0.607-0.213c-0.289-0.104-0.576-0.211-0.861-0.322c-0.2-0.078-0.399-0.156-0.597-0.238
	c-0.287-0.118-0.572-0.242-0.856-0.368c-0.188-0.083-0.376-0.165-0.563-0.252c-0.308-0.143-0.612-0.294-0.915-0.447
	c-0.155-0.078-0.312-0.153-0.466-0.233c-0.448-0.234-0.891-0.476-1.328-0.729c-0.006-0.004-0.013-0.007-0.019-0.011l0,0
	C340.706,91.451,334.417,82.929,332.694,72.512z"/>
</svg>
