<?xml version="1.0" encoding="utf-8"?>
<!-- Generator: Adobe Illustrator 17.0.0, SVG Export Plug-In . SVG Version: 6.00 Build 0)  -->
<!DOCTYPE svg PUBLIC "-//W3C//DTD SVG 1.1//EN" "http://www.w3.org/Graphics/SVG/1.1/DTD/svg11.dtd">
<svg version="1.1" id="Layer_1" xmlns="http://www.w3.org/2000/svg" xmlns:xlink="http://www.w3.org/1999/xlink" x="0px" y="0px"
	 width="613px" height="613px" viewBox="0 0 613 613" enable-background="new 0 0 613 613" xml:space="preserve">
<path d="M392.321,88.49l-1.356,43.39l-30.513,8.137l-1.356,33.901L195.693,336.642c1.041,29.903-20.455,50.464-39.325,48.817
	c-28.265-2.471-39.452-20.435-39.325-44.748c-18.876,20.523-28.998,46.543-29.154,72.552c19.323,0.003,38.709,5.246,55.842,15.593
	l-3.23,11.551c-29.403,20.76-62.177,55.158-78.092,82.98c-1.958,3.422-3.561,6.592-4.861,9.529l-38.12,10.665l-1.78,49.766
	l49.766-1.789l10.754-38.46c2.851-1.277,5.92-2.838,9.222-4.727c27.713-15.853,61.946-48.434,82.731-77.748l11.599-3.245
	c10,16.978,15.261,36.15,15.329,55.046c26.713,0.005,53.868-10.155,74.582-29.832c-28.873-4.243-45.848-21.112-44.072-40.003
	c2.906-30.885,20.873-38.76,46.784-37.969L440.46,248.504l27.121-0.671l7.452-27.122l47.461-2.034l50.852-181.033l0.007-0.011
	L392.321,88.49z M505.342,196.42l-46.771,1.385l-7.689,27.923l-70.508,2.792l2.095-70.512l30.713-8.377l1.396-43.979l125.655-34.904
	l0.011,0.016L505.342,196.42z"/>
</svg>
