<?xml version="1.0" encoding="utf-8"?>
<!-- Generator: Adobe Illustrator 17.0.0, SVG Export Plug-In . SVG Version: 6.00 Build 0)  -->
<!DOCTYPE svg PUBLIC "-//W3C//DTD SVG 1.1//EN" "http://www.w3.org/Graphics/SVG/1.1/DTD/svg11.dtd">
<svg version="1.1" id="Layer_1" xmlns="http://www.w3.org/2000/svg" xmlns:xlink="http://www.w3.org/1999/xlink" x="0px" y="0px"
	 width="613px" height="613px" viewBox="0 0 613 613" enable-background="new 0 0 613 613" xml:space="preserve">
<path d="M441.799,261.899h155.316l-0.594-61.847h-11.846v-59.551c-32.713,7.465-62.744,21.847-81.107,59.551H358.479
	c0-0.001,0-0.003,0-0.004l-244.147,0.016c-5.374,19.637-9.364,34.455-12.933,46.298c-24.313-14.905-84.748-55.53-84.748-55.53
	c8.497,44.476,28.611,80.198,57.751,109.111c-5.652,6.804-12.658,14.41-21.737,24.182c-49.873,94.466-40.928,144.37-37.53,196.234
	c32.809,41.585,98.41,39.732,137.843,25.959c-1.253-57.638,7.683-112.634,47.107-168.874
	c48.279,44.727,122.017,23.421,157.554-15.599c15.934-17.497,18.176-38.135,15.619-61.341h68.541V261.899z"/>
</svg>
