<?xml version="1.0" encoding="utf-8"?>
<!-- Generator: Adobe Illustrator 17.0.0, SVG Export Plug-In . SVG Version: 6.00 Build 0)  -->
<!DOCTYPE svg PUBLIC "-//W3C//DTD SVG 1.1//EN" "http://www.w3.org/Graphics/SVG/1.1/DTD/svg11.dtd">
<svg version="1.1" id="Layer_1" xmlns="http://www.w3.org/2000/svg" xmlns:xlink="http://www.w3.org/1999/xlink" x="0px" y="0px"
	 width="613px" height="613px" viewBox="0 0 613 613" enable-background="new 0 0 613 613" xml:space="preserve">
<path d="M400.063,51.851c-24.041-31.447-57.738-38.097-101.083,5.248c-43.415-43.415-77.128-36.744-101.161-5.25
	c-67.282-1.341-116.654,78.457-116.126,192.752l75.469-71.61c-2.758,20.987-4.138,42.398-4.138,62.87
	c0,5.69,0.143,11.33,0.425,16.912c-26.765,1.597-45.606,26.851-46.06,67.869c-0.623,56.261,33.575,120.86,76.385,144.288
	c9.675,5.295,18.959,8.025,27.546,8.443c2.417,29.998,6.27,68.46-4.854,92.339c-13.422,28.816,32.653,32.228,37.582,4.986
	c15.273,25.71,54.297,1.918,32.852-18.721l0.002,0.001c-18.419-17.727-29.555-56.735-39.18-86.023
	c6.749-4.744,12.38-11.652,16.552-20.473c14.092,6.841,29.113,10.55,44.706,10.55c15.594,0,30.615-3.71,44.707-10.551
	c4.172,8.821,9.802,15.729,16.551,20.473c-9.625,29.289-20.761,68.297-39.18,86.025h0.003
	c-21.445,20.639,17.579,44.431,32.852,18.721c4.929,27.242,51.004,23.83,37.582-4.986c-11.123-23.879-7.271-62.341-4.854-92.34
	c8.587-0.418,17.872-3.148,27.547-8.443c42.809-23.428,77.008-88.027,76.385-144.288c-0.454-41.02-19.296-66.273-46.062-67.869
	c0.281-5.582,0.425-11.222,0.425-16.912c0-20.478-1.385-41.892-4.149-62.881l75.48,71.62
	C516.797,130.26,467.385,50.445,400.063,51.851z"/>
</svg>
