<?xml version="1.0" encoding="utf-8"?>
<!-- Generator: Adobe Illustrator 17.0.0, SVG Export Plug-In . SVG Version: 6.00 Build 0)  -->
<!DOCTYPE svg PUBLIC "-//W3C//DTD SVG 1.1//EN" "http://www.w3.org/Graphics/SVG/1.1/DTD/svg11.dtd">
<svg version="1.1" id="Layer_1" xmlns="http://www.w3.org/2000/svg" xmlns:xlink="http://www.w3.org/1999/xlink" x="0px" y="0px"
	 width="613px" height="613px" viewBox="0 0 613 613" enable-background="new 0 0 613 613" xml:space="preserve">
<path d="M345.975,339.729c14.899-25.805,6.058-58.804-19.747-73.702s-58.802-6.058-73.701,19.749s-6.057,58.802,19.747,73.701
	C298.079,374.375,331.076,365.534,345.975,339.729z"/>
<g>
	<path d="M235.894,309.399c0.505-9.684,3.226-19.397,8.408-28.372c6.095-10.556,14.768-18.691,24.761-24.085l-89.948-155.764
		c-32.391,19.991-60.576,48.01-80.942,83.282c-22.723,39.357-32.194,82.606-31.087,124.935v0.003h168.808V309.399z"/>
	<path d="M268.885,368.442l-82.148,141.547c35.208,20.064,72.958,30.105,110.856,31.087c41.32,1.074,82.137-9.32,118.48-28.739
		l-83.812-145.388C313.506,378.35,289.397,379.637,268.885,368.442z"/>
	<path d="M424.285,98.242l-92.152,160.266c18.58,11.254,29.377,30.604,30.471,50.888h178.989
		C543.558,225.711,501.544,143.41,424.285,98.242z"/>
</g>
</svg>
