<?xml version="1.0" encoding="utf-8"?>
<!-- Generator: Adobe Illustrator 17.0.0, SVG Export Plug-In . SVG Version: 6.00 Build 0)  -->
<!DOCTYPE svg PUBLIC "-//W3C//DTD SVG 1.1//EN" "http://www.w3.org/Graphics/SVG/1.1/DTD/svg11.dtd">
<svg version="1.1" id="Layer_1" xmlns="http://www.w3.org/2000/svg" xmlns:xlink="http://www.w3.org/1999/xlink" x="0px" y="0px"
	 width="613px" height="613px" viewBox="0 0 613 613" enable-background="new 0 0 613 613" xml:space="preserve">
<path d="M305.852,23.609c-18.574,0.404-36.409,5.007-53.772,12.544l26.887,50.191c8.868-3.169,17.95-5.312,26.887-5.377
	c30.639,0,63.069,16.34,87.829,59.146l102.168,177.455l34.057-55.574l-86.037-150.563C411.028,54.646,358.926,23.156,305.852,23.609
	C305.853,23.609,305.852,23.609,305.852,23.609z M137.364,168.788L58.497,306.807c-30.065,52.007-32.19,110.952-7.169,157.734
	c10.369,19.388,26.092,35.291,44.811,48.397l28.679-48.397c-9.612-7.603-17.804-16.618-23.301-26.882
	c-14.953-27.972-15.925-65.32,5.377-102.171l96.791-166.7h-66.319L137.364,168.788L137.364,168.788z M520.944,412.556
	c-1.869,9.19-4.581,17.169-8.962,25.104c-15.337,27.738-45.433,48.391-93.207,48.391H223.402l34.055,57.357h161.319
	c65.171,0,117.74-30.672,143.395-77.073c9.042-16.372,14.024-34.942,16.131-53.78h-57.358V412.556z"/>
<path d="M215.937,241.371L87.046,167.059l128.892-74.314L215.937,241.371z"/>
<path d="M425.631,287.442l128.892,74.312l0.001-148.626L425.631,287.442z"/>
<path d="M156.954,513.572l128.892-74.312l0.001,148.626L156.954,513.572z"/>
</svg>
