<?xml version="1.0" encoding="utf-8"?>
<!-- Generator: Adobe Illustrator 17.0.0, SVG Export Plug-In . SVG Version: 6.00 Build 0)  -->
<!DOCTYPE svg PUBLIC "-//W3C//DTD SVG 1.1//EN" "http://www.w3.org/Graphics/SVG/1.1/DTD/svg11.dtd">
<svg version="1.1" id="Layer_1" xmlns="http://www.w3.org/2000/svg" xmlns:xlink="http://www.w3.org/1999/xlink" x="0px" y="0px"
	 width="612px" height="612px" viewBox="0 0 612 612" enable-background="new 0 0 612 612" xml:space="preserve">
<g transform="matrix(15 0 0 15 -523.99999 -4904)">
	<g>
		<path d="M53.23,328.208c-5.863,0.391-10.279,5.322-10.279,11.344c0,1.479,0.28,2.893,0.79,4.189
			c0.52,1.321,1.194,2.851,6.513,7.894l1.55-0.904c-0.097-0.275-0.148-0.572-0.148-0.881c0-1.249,0.867-2.293,2.026-2.553v-1.811
			c-4.488-0.278-8.05-4.039-8.05-8.642C45.632,332.315,48.845,328.592,53.23,328.208L53.23,328.208z"/>
		<path d="M73.328,359.78c2.596-5.326,0.577-11.654-4.585-14.665c-1.268-0.74-2.62-1.202-3.986-1.403
			c-1.392-0.205-3.041-0.381-10.023,1.751v1.808c0.285,0.052,0.564,0.157,0.829,0.311c1.07,0.624,1.532,1.905,1.176,3.049
			l1.553,0.906c2.482-3.788,7.487-5.023,11.433-2.722C73.606,351.079,75.192,355.751,73.328,359.78L73.328,359.78z"/>
		<path d="M36.208,361.558c3.267,4.934,9.702,6.332,14.864,3.321c1.268-0.74,2.34-1.691,3.196-2.785
			c0.872-1.115,1.847-2.47,3.511-9.645l-1.55-0.904c-0.187,0.223-0.417,0.415-0.681,0.569c-1.07,0.624-2.399,0.388-3.201-0.496
			l-1.553,0.906c2.006,4.065,0.563,9.062-3.384,11.364C43.528,366.152,38.729,365.203,36.208,361.558L36.208,361.558z"/>
		<g>
			<path d="M54.246,339.151c-2.363,0-4.548,0.777-6.314,2.093c0.543,0.77,1.219,1.447,1.986,1.988
				c1.243-0.824,2.731-1.305,4.329-1.305c1.685,0,3.247,0.534,4.529,1.442c1.126-0.275,2.263-0.496,3.416-0.618
				C60.242,340.543,57.406,339.151,54.246,339.151L54.246,339.151z"/>
			<path d="M63.469,355.297c1.182-2.068,1.608-4.367,1.363-6.571c-0.932,0.09-1.85,0.343-2.697,0.743
				c0.085,1.5-0.247,3.042-1.046,4.44c-0.842,1.474-2.081,2.574-3.501,3.242c-0.327,1.122-0.707,2.228-1.178,3.298
				C59.278,359.846,61.889,358.062,63.469,355.297z"/>
			<path d="M45.027,355.282c1.182,2.067,2.94,3.591,4.951,4.478c0.389-0.86,0.631-1.79,0.711-2.731
				c-1.328-0.675-2.484-1.737-3.283-3.135c-0.842-1.474-1.166-3.108-1.028-4.684c-0.799-0.847-1.556-1.732-2.238-2.68
				C43.221,349.34,43.447,352.517,45.027,355.282L45.027,355.282z"/>
		</g>
	</g>
</g>
</svg>
