<?xml version="1.0" encoding="utf-8"?>
<!-- Generator: Adobe Illustrator 17.0.0, SVG Export Plug-In . SVG Version: 6.00 Build 0)  -->
<!DOCTYPE svg PUBLIC "-//W3C//DTD SVG 1.1//EN" "http://www.w3.org/Graphics/SVG/1.1/DTD/svg11.dtd">
<svg version="1.1" id="Layer_1" xmlns="http://www.w3.org/2000/svg" xmlns:xlink="http://www.w3.org/1999/xlink" x="0px" y="0px"
	 width="613px" height="613px" viewBox="0 0 613 613" enable-background="new 0 0 613 613" xml:space="preserve">
<g>
	<polygon points="235.456,452.869 234.136,453.547 112.607,216.932 113.656,216.393 169.648,20.723 31.358,161.275 127.035,537.739 
		388.208,599.8 459.067,534.473 	"/>
	<path d="M123.884,217L240.51,444.068l226.829,82.779l0.384-0.354l133.369-250.765L513.82,113.437L182.436,12.382L123.884,217z
		 M277.365,303.199c5.809-10.062,22.192-11.48,36.592-3.166s21.363,23.211,15.554,33.273c-5.809,10.062-22.194,11.479-36.592,3.166
		S271.556,313.261,277.365,303.199z M486.397,300.478c7.986-38.703,7.546-77.089-10.584-114.794
		C522.081,206.315,539.747,265.603,486.397,300.478z M467.251,283.636v0.003c-33.646-81.278-110.836-158.934-197.943-138.281
		c-75.322,17.858-6.201,96.101,78.672,116.771c93.738,22.827,201.714,99.537,130.266,175.096
		c-65.942,69.737-190.23,2.43-180.153-80.956c21.342,39.014,97.741,102.31,144.268,51.92
		c65.215-70.624-92.916-111.813-146.153-134.932c-54.799-23.792-166.032-102.804-96.919-159.095
		C301.857,30.627,488.247,149.975,467.251,283.636z M305.726,228.714c-69.029-50.693-36.387-77.975,30.504-65.664
		C305.927,176.649,300.017,200.292,305.726,228.714z"/>
</g>
</svg>
