<?xml version="1.0" encoding="utf-8"?>
<!-- Generator: Adobe Illustrator 17.0.0, SVG Export Plug-In . SVG Version: 6.00 Build 0)  -->
<!DOCTYPE svg PUBLIC "-//W3C//DTD SVG 1.1//EN" "http://www.w3.org/Graphics/SVG/1.1/DTD/svg11.dtd">
<svg version="1.1" id="Layer_1" xmlns="http://www.w3.org/2000/svg" xmlns:xlink="http://www.w3.org/1999/xlink" x="0px" y="0px"
	 width="613px" height="613px" viewBox="0 0 613 613" enable-background="new 0 0 613 613" xml:space="preserve">
<g>
	<polygon points="274.18,19.217 274.182,19.221 274.183,19.22 	"/>
	<path d="M583.628,154.513c-10.336-17.918-33.244-24.048-51.16-13.695c-13.498,7.8-20.313,22.734-18.435,37.288l-126.099,38.315
		L274.182,19.221c-66.454,62.901-98.128,154.146-85.841,243.147l-42.823,7.534l12.763,72.387l-50.272,47.046l22.339,38.395
		l70.133-21.27l8.978,11.814L73.26,588.396h303.236l-20.031-108.07c59.065,24.606,126.115,28.855,189.443,9.959l-113.75-197.198
		l96.172-90.115c11.659,8.964,28.033,10.554,41.568,2.733C587.818,195.35,593.964,172.431,583.628,154.513z"/>
</g>
</svg>
