<?xml version="1.0" encoding="utf-8"?>
<!-- Generator: Adobe Illustrator 17.0.0, SVG Export Plug-In . SVG Version: 6.00 Build 0)  -->
<!DOCTYPE svg PUBLIC "-//W3C//DTD SVG 1.1//EN" "http://www.w3.org/Graphics/SVG/1.1/DTD/svg11.dtd">
<svg version="1.1" id="Layer_1" xmlns="http://www.w3.org/2000/svg" xmlns:xlink="http://www.w3.org/1999/xlink" x="0px" y="0px"
	 width="613px" height="613px" viewBox="0 0 613 613" enable-background="new 0 0 613 613" xml:space="preserve">
<g>
	<path d="M481.755,365.881c-0.009-58.255-37.52-49.751-61.256-138.275C395.944,136.029,375.78,90.264,328.183,79.9
		c1.454-3.292,2.267-6.931,2.266-10.761c-0.002-14.733-11.95-26.678-26.684-26.681c-14.734-0.002-26.678,11.941-26.676,26.672
		c0.001,4.012,0.893,7.814,2.48,11.228c-46.135,11.207-66.058,56.961-90.232,147.213c-23.71,88.518-61.225,80.004-61.217,138.26
		c0.003,16.372,18.714,29.636,48.099,39.101c-0.781,2.675-1.208,5.501-1.207,8.428c0.003,16.577,13.445,30.018,30.026,30.02
		c15.277,0.002,27.877-11.407,29.764-26.167c21.911,2.79,45.771,4.251,70.143,4.256C397.052,421.487,481.76,400.746,481.755,365.881
		z M446.911,393.148c0.163-0.172,0.328-0.342,0.487-0.516c-0.031,0.135-0.057,0.265-0.089,0.4L446.911,393.148z M384.267,226.684
		c19.927,85.816,62.998,103.435,65.216,144.883l-52.977,19.085c3.724-53.189-40.297-69.551-39.637-138.595
		c0.753-78.88-22.576-128.025-50.982-148.52C353.665,108.373,373.327,179.569,384.267,226.684z"/>
	<path d="M544.961,214.385c19.07,53.837,21.168,125.751,1.237,200.135c-20.906,78.024-61.152,141.133-107.281,177.493v0h0.002
		c63.053-25.148,117.274-86.143,139.038-167.374C599.097,345.753,584.313,267.663,544.961,214.385z"/>
	<path d="M521.202,409.846c15.646-58.397,0.458-117.338-35.054-158.49c18.103,40.92,22.198,94.842,7.443,149.903
		c-15.475,57.757-48.039,103.724-86.512,129.486C460.452,513.918,505.092,469.974,521.202,409.846z"/>
	<polygon points="407.071,530.748 407.071,530.751 407.079,530.745 	"/>
	<path d="M66.267,414.52c-19.931-74.384-17.833-146.298,1.237-200.135c-39.351,53.278-54.135,131.368-32.996,210.254
		c21.765,81.231,75.985,142.226,139.038,167.374h0.003v0C127.42,555.653,87.174,492.544,66.267,414.52z"/>
	<path d="M118.875,401.259c-14.755-55.061-10.66-108.983,7.443-149.903c-35.512,41.152-50.7,100.093-35.054,158.49
		c16.11,60.128,60.75,104.072,114.123,120.899C166.914,504.983,134.35,459.016,118.875,401.259z"/>
	<polygon points="205.395,530.751 205.395,530.748 205.387,530.745 	"/>
</g>
</svg>
