<?xml version="1.0" encoding="utf-8"?>
<!-- Generator: Adobe Illustrator 17.0.0, SVG Export Plug-In . SVG Version: 6.00 Build 0)  -->
<!DOCTYPE svg PUBLIC "-//W3C//DTD SVG 1.1//EN" "http://www.w3.org/Graphics/SVG/1.1/DTD/svg11.dtd">
<svg version="1.1" id="Layer_1" xmlns="http://www.w3.org/2000/svg" xmlns:xlink="http://www.w3.org/1999/xlink" x="0px" y="0px"
	 width="612px" height="612px" viewBox="0 0 612 612" enable-background="new 0 0 612 612" xml:space="preserve">
<g transform="matrix(15.14038 0 0 -15.14038 -3256.5686 2857.9893)">
	<g>
		<path d="M230.222,170.22l-3.287,3.287l2.391,7.172c1.195,3.586,1.195,4.781,5.977,4.781s4.781-1.195,5.977-4.781l2.391-7.172
			l-3.287-3.287c-1.298,1.298-3.1,2.092-5.08,2.092S231.52,171.518,230.222,170.22z"/>
		<path d="M240.084,165.14c0-2.641-2.141-4.781-4.781-4.781c-2.641,0-4.781,2.141-4.781,4.781c0,2.641,2.141,4.781,4.781,4.781
			C237.943,169.921,240.084,167.781,240.084,165.14z"/>
		<g>
			<path d="M242.242,167l4.49,1.203l5.016-5.656c2.508-2.828,3.543-3.426,1.152-7.566c-2.391-4.141-3.426-3.543-7.129-2.785
				l-7.406,1.516l-1.203,4.49c1.773,0.475,3.361,1.638,4.352,3.354C242.504,163.27,242.717,165.227,242.242,167L242.242,167z"/>
			<path d="M233.443,158.201l-1.203-4.49l-7.406-1.516c-3.703-0.758-4.738-1.355-7.129,2.785c-2.391,4.141-1.355,4.738,1.152,7.566
				l5.016,5.656l4.49-1.203c-0.475-1.773-0.262-3.73,0.729-5.445C230.082,159.839,231.67,158.675,233.443,158.201L233.443,158.201z"
				/>
		</g>
	</g>
</g>
</svg>
