<?xml version="1.0" encoding="utf-8"?>
<!-- Generator: Adobe Illustrator 17.0.0, SVG Export Plug-In . SVG Version: 6.00 Build 0)  -->
<!DOCTYPE svg PUBLIC "-//W3C//DTD SVG 1.1//EN" "http://www.w3.org/Graphics/SVG/1.1/DTD/svg11.dtd">
<svg version="1.1" id="Layer_1" xmlns="http://www.w3.org/2000/svg" xmlns:xlink="http://www.w3.org/1999/xlink" x="0px" y="0px"
	 width="613px" height="613px" viewBox="0 0 613 613" enable-background="new 0 0 613 613" xml:space="preserve">
<path d="M484.113,39.306L105.17,171.363l22.628,399.923L506.74,439.229L484.113,39.306z M461.846,53.693
	c-77.106,68.593-269.121,170.556-351.658,118.013L461.846,53.693z M109.766,179.127c79.068,38.896,60.368,221.412,23.038,370.034
	L109.766,179.127z M148.392,557.54l55.465-89.715l141.728-47.95C301.734,467.378,214.653,524.863,148.392,557.54z M200.872,462.143
	L187.97,226.594l223.029-78.174l12.902,235.549L200.872,462.143z M425.434,298.905l-9.865-149.22l61.733-85.528
	C472.428,137.843,452.585,240.246,425.434,298.905z"/>
<path d="M341.389,337.469c-25.462-1.805-43.487-26.576-40.258-55.325c3.229-28.749,26.489-50.593,51.951-48.788
	c4.289,0.304,8.359,1.273,12.16,2.79c-1.957-19.102-6.785-37.968-14.554-55.408h-0.002l-155.1,52.594l10.555,163.539
	c68.719,15.492,116.074-13.755,140.59-59.38C344.965,337.594,343.183,337.597,341.389,337.469z"/>
</svg>
