<?xml version="1.0" encoding="utf-8"?>
<!-- Generator: Adobe Illustrator 17.0.0, SVG Export Plug-In . SVG Version: 6.00 Build 0)  -->
<!DOCTYPE svg PUBLIC "-//W3C//DTD SVG 1.1//EN" "http://www.w3.org/Graphics/SVG/1.1/DTD/svg11.dtd">
<svg version="1.1" id="Layer_1" xmlns="http://www.w3.org/2000/svg" xmlns:xlink="http://www.w3.org/1999/xlink" x="0px" y="0px"
	 width="613px" height="613px" viewBox="0 0 613 613" enable-background="new 0 0 613 613" xml:space="preserve">
<path d="M564.53,418.13c64.579-111.85,10.643-263.892-119.596-339.085C314.695,3.853,156.76,33.569,92.183,145.422
	c-6.243,10.812-10.554,22.016-14.63,33.469c68.466-94.035,184.67-130.368,271.565-80.199
	c94.217,54.394,117.926,189.162,53.077,301.485c-30.904,53.528-76.329,92.069-125.688,112.027
	C390.517,547.178,510.428,511.837,564.53,418.13L564.53,418.13z"/>
<path d="M390.797,162.767c-56.584-84.928-179.279-87.596-273.413-6.499c-94.134,81.1-124.58,215.696-67.993,300.626
	c5.47,8.21,11.834,15,18.448,21.678C24.85,395.889,37.23,292.518,100.038,238.409c68.099-58.668,169.069-37.127,225.89,48.162
	c27.08,40.644,39.092,88.35,36.965,133.615c61.044-80.244,75.312-186.267,27.907-257.42L390.797,162.767z"/>
<path d="M100.463,261.4c-58.389,58.032-57.202,169.961,1.367,246.162s153.385,90.931,211.773,32.9
	c-56.309,35.434-101.46,31.433-153.933-25.003c-47.154-50.717-29.206-146.786,29.428-205.062
	c27.942-27.772,61.115-42.805,92.848-45.057C232.153,214.265,149.379,212.784,100.463,261.4z"/>
</svg>
