<?xml version="1.0" encoding="utf-8"?>
<!-- Generator: Adobe Illustrator 17.0.0, SVG Export Plug-In . SVG Version: 6.00 Build 0)  -->
<!DOCTYPE svg PUBLIC "-//W3C//DTD SVG 1.1//EN" "http://www.w3.org/Graphics/SVG/1.1/DTD/svg11.dtd">
<svg version="1.1" id="Layer_1" xmlns="http://www.w3.org/2000/svg" xmlns:xlink="http://www.w3.org/1999/xlink" x="0px" y="0px"
	 width="613px" height="613px" viewBox="0 0 613 613" enable-background="new 0 0 613 613" xml:space="preserve">
<path d="M448.16,270.219c56.661-26.502,54.179-116.243,110.296-112.717c-79.02-52.493-76.99,59.493-174.12,23.661
	c21.21-58.774-43.899-120.424-1.75-157.59c-93.004,18.76-12.355,96.524-106.42,139.867
	c-26.503-56.66-116.242-54.178-112.717-110.294c-52.492,79.02,59.491,76.989,23.661,174.118
	c-58.774-21.21-120.424,43.899-157.59,1.75c18.76,93.004,96.525,12.354,139.867,106.421
	c-56.661,26.503-54.178,116.243-110.295,112.717c79.02,52.492,76.99-59.491,174.118-23.662
	c-21.209,58.774,43.899,120.423,1.751,157.589c93.004-18.76,12.355-96.525,106.42-139.867
	c26.503,56.661,116.243,54.178,112.717,110.295c52.492-79.02-59.492-76.99-23.661-174.119
	c58.774,21.208,120.423-43.899,157.589-1.751C569.266,283.635,491.502,364.284,448.16,270.219z"/>
</svg>
