<?xml version="1.0" encoding="utf-8"?>
<!-- Generator: Adobe Illustrator 17.0.0, SVG Export Plug-In . SVG Version: 6.00 Build 0)  -->
<!DOCTYPE svg PUBLIC "-//W3C//DTD SVG 1.1//EN" "http://www.w3.org/Graphics/SVG/1.1/DTD/svg11.dtd">
<svg version="1.1" id="Layer_1" xmlns="http://www.w3.org/2000/svg" xmlns:xlink="http://www.w3.org/1999/xlink" x="0px" y="0px"
	 width="613px" height="613px" viewBox="0 0 613 613" enable-background="new 0 0 613 613" xml:space="preserve">
<path d="M547.202,149.832L325.227,21.675c-28.905-16.688-65.868-6.784-82.557,22.121L46.191,384.109
	c-16.689,28.905-6.784,65.868,22.121,82.557l221.975,128.157c28.905,16.689,65.868,6.784,82.557-22.121l196.479-340.313
	C586.012,203.484,576.107,166.521,547.202,149.832z M282.956,72.221c7.311-12.662,23.503-17.002,36.167-9.691
	c12.664,7.311,17.002,23.504,9.691,36.166c-7.311,12.663-23.503,17.002-36.167,9.691C279.983,101.076,275.645,84.883,282.956,72.221
	z M331.238,546.578c-7.311,12.663-23.503,17.002-36.167,9.691c-12.664-7.311-17.002-23.503-9.691-36.166
	c7.311-12.663,23.503-17.002,36.167-9.691C334.211,517.723,338.549,533.915,331.238,546.578z M400.54,360.526v-0.006
	c-30.637,49.416-94.758,33.053-103.197-20.28l-3.871,94.767l-88.937-51.352l77.681-49.178
	c-48.812,15.277-96.572-31.366-66.114-80.436c34.8-56.059,135.753-42.163,163.504-69.912
	C370.309,218.82,433.858,306.79,400.54,360.526z"/>
</svg>
