<?xml version="1.0" encoding="utf-8"?>
<!-- Generator: Adobe Illustrator 17.0.0, SVG Export Plug-In . SVG Version: 6.00 Build 0)  -->
<!DOCTYPE svg PUBLIC "-//W3C//DTD SVG 1.1//EN" "http://www.w3.org/Graphics/SVG/1.1/DTD/svg11.dtd">
<svg version="1.1" id="Layer_1" xmlns="http://www.w3.org/2000/svg" xmlns:xlink="http://www.w3.org/1999/xlink" x="0px" y="0px"
	 width="612px" height="612px" viewBox="0 0 612 612" enable-background="new 0 0 612 612" xml:space="preserve">
<path d="M545.065,246.232c-24.482,0-39.568,12.531-62.893,26.366c-4.649-24.678-14.349-47.571-27.995-67.561
	c26.281-6.713,45.81-8.514,63.119-25.823c16.907-16.907,16.907-50.721-8.443-76.07c-25.36-25.36-59.164-25.35-76.07-8.443
	c-17.312,17.312-19.113,36.841-25.821,63.117c-19.992-13.649-42.887-23.352-67.57-28.002c13.834-23.323,26.364-38.404,26.364-62.878
	c0.015-23.91-23.895-47.82-59.76-47.82s-59.76,23.91-59.76,47.82c0,24.479,12.532,39.56,26.366,62.878
	c-24.681,4.65-47.575,14.351-67.566,27.998c-6.714-26.283-8.515-45.813-25.824-63.123c-16.907-16.907-50.721-16.907-76.07,8.443
	s-25.35,59.164-8.443,76.07c17.312,17.312,36.841,19.118,63.119,25.829c-13.647,19.991-23.348,42.884-27.998,67.564
	c-23.323-13.834-38.405-26.364-62.878-26.364c-23.91,0-47.82,23.91-47.82,59.76s23.91,59.76,47.82,59.76
	c24.474,0.008,39.556-12.523,62.879-26.359c4.65,24.679,14.352,47.572,27.998,67.561c-26.276,6.711-45.803,8.514-63.109,25.821
	c-16.907,16.907-16.907,50.721,8.443,76.071c25.35,25.35,59.164,25.35,76.071,8.443c17.307-17.307,19.108-36.836,25.817-63.115
	c19.992,13.647,42.887,23.348,67.568,27.997c-13.837,23.33-26.372,38.413-26.372,62.891c0,23.91,23.91,47.82,59.76,47.82
	s59.76-23.91,59.76-47.82c0.008-24.483-12.524-39.568-26.361-62.893c24.681-4.65,47.575-14.352,67.565-28
	c6.713,26.282,8.514,45.811,25.824,63.12c16.907,16.907,50.721,16.907,76.07-8.443c25.35-25.35,25.35-59.164,8.443-76.071
	c-17.304-17.315-36.834-19.116-63.119-25.828c13.646-19.992,23.347-42.886,27.996-67.567c23.33,13.837,38.413,26.372,62.891,26.372
	c23.91,0,47.82-23.91,47.82-59.76S568.975,246.232,545.065,246.232z M305.995,377.708c-19.804,0-37.729-8.026-50.705-21
	c0.001-0.001,0.001-0.002,0.002-0.003c-0.001,0.001-0.002,0.001-0.003,0.002c-12.981-12.979-21.009-30.911-21.009-50.714
	c0-39.6,32.115-71.715,71.715-71.715c39.615,0,71.715,32.115,71.715,71.715S345.595,377.708,305.995,377.708z"/>
</svg>
