<?xml version="1.0" encoding="utf-8"?>
<!-- Generator: Adobe Illustrator 17.0.0, SVG Export Plug-In . SVG Version: 6.00 Build 0)  -->
<!DOCTYPE svg PUBLIC "-//W3C//DTD SVG 1.1//EN" "http://www.w3.org/Graphics/SVG/1.1/DTD/svg11.dtd">
<svg version="1.1" id="Layer_1" xmlns="http://www.w3.org/2000/svg" xmlns:xlink="http://www.w3.org/1999/xlink" x="0px" y="0px"
	 width="613px" height="613px" viewBox="0 0 613 613" enable-background="new 0 0 613 613" xml:space="preserve">
<g>
	<polygon points="11.457,530.258 11.457,602.722 81.813,602.722 213.873,470.847 142.37,399.344 	"/>
	<path d="M487.622,413.03l-55.435-108.411l47.343-44.267l114.076,58.109l-56.855-111.612l43.27-40.459l-30.608-30.608l31.92-31.876
		l-71.761-71.763l-0.003,0.003l-31.896,31.896l-30.978-30.978L274.008,215.435l33.275-35.142l-107.228-54.83L255.861,234.6
		l-85.442,90.234l37.546-39.653l-101.671-52.248l53.172,103.468l-38.928,41.111l112.923,112.923l40.743-38.096l105.938,54.442
		l-53.28-103.679l49.97-46.724L487.622,413.03z M444.008,116.147c29.67,0,53.723,24.053,53.723,53.723s-24.053,53.723-53.723,53.723
		c-29.67,0-53.723-24.053-53.723-53.723C390.285,140.2,414.338,116.147,444.008,116.147z M190.218,371.177
		c0-28.792,23.34-52.132,52.132-52.132c28.792,0,52.132,23.34,52.132,52.132s-23.341,52.132-52.132,52.132
		C213.558,423.309,190.218,399.969,190.218,371.177z M288.839,270.21c0-29.67,24.053-53.723,53.723-53.723
		s53.723,24.053,53.723,53.723s-24.053,53.723-53.723,53.723S288.839,299.88,288.839,270.21z"/>
	<polygon points="405.895,76.151 294.609,19.464 352.312,132.739 	"/>
	<circle cx="443.214" cy="169.87" r="49.249"/>
	<ellipse transform="matrix(0.7071 -0.7071 0.7071 0.7071 -90.4983 321.6519)" cx="343.019" cy="270.067" rx="47.116" ry="47.366"/>
	<ellipse transform="matrix(0.7071 -0.7071 0.7071 0.7071 -191.0916 279.9844)" cx="242.425" cy="370.66" rx="44.558" ry="45.106"/>
</g>
</svg>
