<?xml version="1.0" encoding="utf-8"?>
<!-- Generator: Adobe Illustrator 17.0.0, SVG Export Plug-In . SVG Version: 6.00 Build 0)  -->
<!DOCTYPE svg PUBLIC "-//W3C//DTD SVG 1.1//EN" "http://www.w3.org/Graphics/SVG/1.1/DTD/svg11.dtd">
<svg version="1.1" id="Layer_1" xmlns="http://www.w3.org/2000/svg" xmlns:xlink="http://www.w3.org/1999/xlink" x="0px" y="0px"
	 width="612px" height="612px" viewBox="0 0 612 612" enable-background="new 0 0 612 612" xml:space="preserve">
<g transform="matrix(15.00001 0 0 15.00001 -7004.006 -8267.9299)">
</g>
<g transform="matrix(0 15.00001 -15.00001 0 15801.44524 -4844.00406)">
	<path d="M336.161,1052.153c0-3.961,3.211-7.172,7.172-7.172s7.172,3.211,7.172,7.172h-7.172H336.161z"/>
	<path d="M339.747,1017.49c0,0,0-3.586,3.586-3.586s3.586,3.586,3.586,3.586l-2.391,25.102h-2.391L339.747,1017.49z"/>
	<path d="M325.724,1026.435c0,0-1.195-2.07,0.875-3.266c2.07-1.195,3.266,0.875,3.266,0.875l9.723,19.231l-2.07,1.195
		L325.724,1026.435z"/>
	<path d="M356.802,1024.044c0,0,1.195-2.07,3.266-0.875c2.07,1.195,0.875,3.266,0.875,3.266l-11.793,18.036l-2.07-1.195
		L356.802,1024.044z"/>
	<path d="M358.701,1040.521c0,0,2.07-1.195,3.266,0.875s-0.875,3.266-0.875,3.266l-8.879,3.746l-1.195-2.07L358.701,1040.521z"/>
	<path d="M325.575,1044.662c0,0-2.07-1.195-0.875-3.266s3.266-0.875,3.266-0.875l7.684,5.816l-1.195,2.07L325.575,1044.662z"/>
</g>
</svg>
