<?xml version="1.0" encoding="utf-8"?>
<!-- Generator: Adobe Illustrator 17.0.0, SVG Export Plug-In . SVG Version: 6.00 Build 0)  -->
<!DOCTYPE svg PUBLIC "-//W3C//DTD SVG 1.1//EN" "http://www.w3.org/Graphics/SVG/1.1/DTD/svg11.dtd">
<svg version="1.1" id="Layer_1" xmlns="http://www.w3.org/2000/svg" xmlns:xlink="http://www.w3.org/1999/xlink" x="0px" y="0px"
	 width="613px" height="613px" viewBox="0 0 613 613" enable-background="new 0 0 613 613" xml:space="preserve">
<path d="M574.948,208.515L574.948,208.515L574.948,208.515c-0.41-0.372-1.473-0.948-3.023-1.672
	c-7.17-3.837-14.431-6.731-21.778-8.714c-15.042-5.648-31.303-11.386-31.303-11.386l0,0L177.906,54.436
	c-29.975-8.65-62.761-9.802-100.062,1.083l-0.001-0.001L51.084,189.343l103.62,43.683l40.909,209.859
	c-0.442,0.359-0.876,0.732-1.301,1.117L45.624,476.295l-1.297,91.411l175.74-56.168l30.775-5.974
	c0.512,0.028,1.026,0.044,1.543,0.043c17.403-0.036,31.486-16.69,31.455-37.198c0-0.044,0-0.088,0-0.132
	c-0.031-20.507-14.164-37.102-31.567-37.066c-5.11,0.011-9.929,1.463-14.193,4.016l-39.149-183.556l215.927,91.028l45.261-112.249h0
	l-45.261,112.249l99.702-6.327L574.948,208.515L574.948,208.515C574.948,208.515,574.948,208.515,574.948,208.515z M523.363,292.626
	c-11.329,21.436-29.977,31.841-41.651,23.24c-11.674-8.601-11.953-32.951-0.624-54.387c11.329-21.436,29.977-31.841,41.651-23.24
	C534.413,246.84,534.692,271.19,523.363,292.626z"/>
</svg>
