<?xml version="1.0" encoding="utf-8"?>
<!-- Generator: Adobe Illustrator 17.0.0, SVG Export Plug-In . SVG Version: 6.00 Build 0)  -->
<!DOCTYPE svg PUBLIC "-//W3C//DTD SVG 1.1//EN" "http://www.w3.org/Graphics/SVG/1.1/DTD/svg11.dtd">
<svg version="1.1" id="Layer_1" xmlns="http://www.w3.org/2000/svg" xmlns:xlink="http://www.w3.org/1999/xlink" x="0px" y="0px"
	 width="613px" height="613px" viewBox="0 0 613 613" enable-background="new 0 0 613 613" xml:space="preserve">
<path d="M305.634,34.388c-151.156,0-273.691,122.536-273.691,273.687s122.539,273.687,273.691,273.687
	s273.687-122.531,273.687-273.687C579.321,156.923,456.789,34.388,305.634,34.388z M306.301,562.809
	c-139.662,0-252.881-113.22-252.881-252.881S166.639,57.047,306.301,57.047s252.881,113.22,252.881,252.881
	S445.962,562.809,306.301,562.809z"/>
<path d="M361.832,289.496c0.431-4.195,0.067-8.373,0-12.565c-0.842-61.103-57.243-119.371-57.243-119.374
	c0,0-55.293,63.853-54.451,124.958c0.022,1.999,0.554,4.291,0.697,6.281c-37.511-46.77-87.61-71.205-147.994-71.205
	c0,0,0.315,91.643,52.357,140.314c30.51,28.536,83.283,29.018,110.297,48.866c29.183,21.443,26.313,71.439,7.68,123.56
	c-4.51,7.331-12.454,12.465-21.642,12.565c-1.421,0.015-4.189-0.697-4.189-0.697l60.734,20.243l57.243-19.546
	c-1.36,0.224-2.768,0.697-4.188,0.697c-10.754,0-19.83-6.711-23.735-16.057c-0.089-0.2,0.067-0.505,0-0.697
	c-17.598-51.046-19.716-99.804,9.074-120.767c27.233-19.83,80.031-19.859,110.297-48.166
	c52.042-48.674,52.355-140.314,52.357-140.314C441.972,217.592,395.945,245.509,361.832,289.496z M306.036,395.605
	c-18.431-8.397-30.903-27.262-30.903-48.826s12.472-39.81,30.903-48.207l0,0l0,0l0,0c18.206,8.488,30.903,26.808,30.903,48.207
	S324.24,387.119,306.036,395.605z"/>
</svg>
