<?xml version="1.0" encoding="utf-8"?>
<!-- Generator: Adobe Illustrator 17.0.0, SVG Export Plug-In . SVG Version: 6.00 Build 0)  -->
<!DOCTYPE svg PUBLIC "-//W3C//DTD SVG 1.1//EN" "http://www.w3.org/Graphics/SVG/1.1/DTD/svg11.dtd">
<svg version="1.1" id="Layer_1" xmlns="http://www.w3.org/2000/svg" xmlns:xlink="http://www.w3.org/1999/xlink" x="0px" y="0px"
	 width="613px" height="613px" viewBox="0 0 613 613" enable-background="new 0 0 613 613" xml:space="preserve">
<g>
	<path d="M303.488,29.856c-150.837,0-273.113,122.277-273.113,273.113s122.276,273.113,273.113,273.113
		s273.113-122.277,273.113-273.113S454.325,29.856,303.488,29.856z M303.481,537.055c-130.292,0-235.912-105.622-235.912-235.912
		S173.19,65.231,303.481,65.231s235.912,105.621,235.912,235.912S433.772,537.055,303.481,537.055z"/>
	<path d="M330.599,94.746h-54.247l-34.316,215.943l-98.656,30.308v60.911h95.132l22.015,21.794h-23.335v49.818h132.564v-49.818
		h-23.331l22.015-21.794h95.132v-60.911l-98.657-30.307L330.599,94.746z M334.294,287.682h-61.639
		C272.655,168.593,334.294,168.749,334.294,287.682z"/>
</g>
</svg>
