<?xml version="1.0" encoding="utf-8"?>
<!-- Generator: Adobe Illustrator 17.0.0, SVG Export Plug-In . SVG Version: 6.00 Build 0)  -->
<!DOCTYPE svg PUBLIC "-//W3C//DTD SVG 1.1//EN" "http://www.w3.org/Graphics/SVG/1.1/DTD/svg11.dtd">
<svg version="1.1" id="Layer_1" xmlns="http://www.w3.org/2000/svg" xmlns:xlink="http://www.w3.org/1999/xlink" x="0px" y="0px"
	 width="612px" height="612px" viewBox="0 0 612 612" enable-background="new 0 0 612 612" xml:space="preserve">
<g transform="matrix(15 0 0 15 -4304 -1124)">
	<path d="M307.333,76.208c-0.589,0-1.201,2.005-1.793,4.54c-2.642,0.33-5.144,1.371-7.241,3.011
		c-2.213-1.376-4.077-2.371-4.494-1.954c-0.416,0.416,0.581,2.273,1.954,4.482c-1.646,2.099-2.691,4.606-3.023,7.252
		c-2.53,0.591-4.528,1.205-4.528,1.793c0,0.589,2.005,1.201,4.54,1.793c0.33,2.642,1.371,5.144,3.011,7.241
		c-1.376,2.213-2.371,4.077-1.954,4.494c0.417,0.416,2.273-0.581,4.482-1.954c2.099,1.646,4.606,2.691,7.252,3.023
		c0.591,2.53,1.204,4.528,1.793,4.528s1.201-2.005,1.793-4.54c2.642-0.33,5.144-1.371,7.241-3.011
		c2.213,1.376,4.077,2.371,4.494,1.954c0.416-0.416-0.581-2.273-1.954-4.482c1.646-2.099,2.691-4.606,3.023-7.252
		c2.53-0.591,4.528-1.205,4.528-1.793c0-0.589-2.005-1.201-4.54-1.793c-0.33-2.642-1.371-5.144-3.011-7.241
		c1.376-2.213,2.371-4.077,1.954-4.494c-0.417-0.416-2.273,0.581-4.482,1.954c-2.099-1.646-4.606-2.691-7.252-3.023
		C308.535,78.207,307.922,76.208,307.333,76.208L307.333,76.208z M307.586,86.506c4.776,0.137,8.576,4.049,8.574,8.827
		c-0.004,4.875-3.959,8.824-8.834,8.82c-4.87-0.004-8.816-3.95-8.82-8.82c-0.002-4.875,3.948-8.829,8.823-8.831
		C307.415,86.503,307.501,86.504,307.586,86.506L307.586,86.506z"/>
</g>
</svg>
