<?xml version="1.0" encoding="utf-8"?>
<!-- Generator: Adobe Illustrator 17.0.0, SVG Export Plug-In . SVG Version: 6.00 Build 0)  -->
<!DOCTYPE svg PUBLIC "-//W3C//DTD SVG 1.1//EN" "http://www.w3.org/Graphics/SVG/1.1/DTD/svg11.dtd">
<svg version="1.1" id="Layer_1" xmlns="http://www.w3.org/2000/svg" xmlns:xlink="http://www.w3.org/1999/xlink" x="0px" y="0px"
	 width="613px" height="613px" viewBox="0 0 613 613" enable-background="new 0 0 613 613" xml:space="preserve">
<path d="M561.361,254.533l24.993-72.508c-34.598-14.963-62.419-31.783-84.995-52.425c1.519-33.761-12.738-67.525-40.526-101.29
	c0.903,16.482,0.719,32.966-1.904,49.45C419.618,28.046,355.896,9.48,300.05,39.927c41.816-3.035,78.564,9.775,88.837,40.536
	C234.871,60.347,77.882,215.982,351.029,373.567c74.116,42.763,23.157,152.755-124.692,89.764
	C29.288,379.379,43.601,223.333,114.573,141.695c8.758,14.74,16.037,31.307,22.637,48.713C160,132.32,204.604,108.383,249.078,84.25
	c-62.392-29.38-121.945-17.654-180.39,10.062c12.395,6.871,22.837,16.153,31.867,27.179
	c-135.725,81.191-92.97,335.135,85.339,438.083c226.932,131.021,495.817-158.067,248.831-252.287
	c-177.627-67.759-135.223-163.577-50.363-151.613l-6.828,47.637L561.361,254.533z"/>
</svg>
