<?xml version="1.0" encoding="utf-8"?>
<!-- Generator: Adobe Illustrator 17.0.0, SVG Export Plug-In . SVG Version: 6.00 Build 0)  -->
<!DOCTYPE svg PUBLIC "-//W3C//DTD SVG 1.1//EN" "http://www.w3.org/Graphics/SVG/1.1/DTD/svg11.dtd">
<svg version="1.1" id="Layer_1" xmlns="http://www.w3.org/2000/svg" xmlns:xlink="http://www.w3.org/1999/xlink" x="0px" y="0px"
	 width="612px" height="612px" viewBox="0 0 612 612" enable-background="new 0 0 612 612" xml:space="preserve">
<path d="M305.989,35.198c-55.232,0-106.953,16.448-149.793,44.856l79.54,79.54c44.199-21.136,96.259-21.136,140.481,0l79.54-79.54
	C412.941,51.668,361.244,35.198,305.989,35.198L305.989,35.198z M80.054,156.196c-28.409,42.84-44.856,94.537-44.856,149.77
	c0,55.232,16.448,106.953,44.856,149.793l79.54-79.54c-21.137-44.199-21.137-96.26,0-140.481L80.054,156.196L80.054,156.196z
	 M531.946,156.196l-79.54,79.54c21.137,44.199,21.137,96.282,0,140.481l79.54,79.54c28.409-42.84,44.857-94.537,44.857-149.793
	C576.78,250.757,560.332,199.036,531.946,156.196L531.946,156.196z M235.759,452.406l-79.54,79.54
	c42.84,28.386,94.538,44.856,149.793,44.856c55.232,0,106.953-16.448,149.77-44.856l-79.54-79.54
	C332.019,473.543,279.958,473.543,235.759,452.406L235.759,452.406z"/>
<path d="M387.228,306.035c0,44.856-36.361,81.24-81.24,81.24c-44.856,0-81.24-36.36-81.24-81.24c0-44.856,36.361-81.24,81.24-81.24
	S387.228,261.155,387.228,306.035z"/>
</svg>
