<?xml version="1.0" encoding="utf-8"?>
<!-- Generator: Adobe Illustrator 17.0.0, SVG Export Plug-In . SVG Version: 6.00 Build 0)  -->
<!DOCTYPE svg PUBLIC "-//W3C//DTD SVG 1.1//EN" "http://www.w3.org/Graphics/SVG/1.1/DTD/svg11.dtd">
<svg version="1.1" id="Layer_1" xmlns="http://www.w3.org/2000/svg" xmlns:xlink="http://www.w3.org/1999/xlink" x="0px" y="0px"
	 width="612px" height="612px" viewBox="0 0 612 612" enable-background="new 0 0 612 612" xml:space="preserve">
<g transform="matrix(14.99999 0 0 14.99999 16 -4489.4306)">
</g>
<g transform="matrix(6.66666 0 0 6.66666 -2310.66602 -2916.41378)">
	<path d="M370.984,445.709v53.789c0,5.379,0,5.379,5.379,5.379h32.273c5.379,0,5.379,0,5.379-5.379v-53.789
		c0-5.379,0-5.379-5.379-5.379h-32.273C370.984,440.33,370.984,440.33,370.984,445.709z M381.742,451.088h21.516v37.652h-21.516
		V451.088z"/>
	<path d="M373.375,512.945h38.25c1.32,0,2.391,1.07,2.391,2.391v8.666c0,1.32-1.07,2.391-2.391,2.391h-38.25
		c-1.32,0-2.391-1.07-2.391-2.391v-8.666C370.984,514.015,372.055,512.945,373.375,512.945"/>
</g>
</svg>
