<?xml version="1.0" encoding="utf-8"?>
<!-- Generator: Adobe Illustrator 17.0.0, SVG Export Plug-In . SVG Version: 6.00 Build 0)  -->
<!DOCTYPE svg PUBLIC "-//W3C//DTD SVG 1.1//EN" "http://www.w3.org/Graphics/SVG/1.1/DTD/svg11.dtd">
<svg version="1.1" id="Layer_1" xmlns="http://www.w3.org/2000/svg" xmlns:xlink="http://www.w3.org/1999/xlink" x="0px" y="0px"
	 width="613px" height="613px" viewBox="0 0 613 613" enable-background="new 0 0 613 613" xml:space="preserve">
<path d="M583.471,233.605c-5.648-21.076-27.31-33.583-48.386-27.935c-13.444,3.603-23.391,13.725-27.374,26.052L407.41,204.416
	l-27.197-99.906c12.478-3.909,22.752-13.914,26.388-27.48c5.648-21.077-6.858-42.738-27.935-48.386s-42.738,6.858-48.386,27.935
	c-3.659,13.653,0.307,27.546,9.279,37.178l-73.396,72.813l-100.639-26.537c2.769-12.704-0.774-26.506-10.651-36.383
	c-15.429-15.429-40.442-15.429-55.871,0c-15.429,15.429-15.429,40.442,0,55.871c10.137,10.137,24.412,13.613,37.387,10.429
	l26.373,100.018l-73.888,74.478c-9.631-8.958-23.513-12.916-37.155-9.26c-21.076,5.648-33.583,27.309-27.935,48.386
	c5.648,21.076,27.31,33.583,48.386,27.935c14.029-3.76,24.253-14.618,27.861-27.673l100.575,27.381l27.482,100.954
	c-12.903,3.691-23.603,13.862-27.33,27.77c-5.648,21.077,6.858,42.738,27.935,48.386c21.076,5.647,42.738-6.859,48.386-27.935
	c3.704-13.822-0.4-27.895-9.608-37.538l74.38-73.791l100.668,26.545c-3.345,13.075,0.092,27.527,10.328,37.762
	c15.43,15.429,40.442,15.429,55.871,0c15.429-15.429,15.43-40.441,0-55.87c-9.976-9.976-23.956-13.492-36.764-10.568
	l-26.702-101.267l72.722-73.302c9.644,9.223,23.729,13.337,37.561,9.63C576.612,276.343,589.119,254.682,583.471,233.605z
	 M271.772,424.938c-66.35-17.778-105.724-85.977-87.947-152.324c12.765-47.64,51.527-81.373,96.935-90.026
	c-29.364,13.57-52.713,39.591-61.74,73.279c-16.136,60.221,19.602,122.122,79.825,138.258c46.26,12.395,93.506-5.822,120.243-42.228
	C395.775,409.092,332.988,441.34,271.772,424.938z"/>
</svg>
