<?xml version="1.0" encoding="utf-8"?>
<!-- Generator: Adobe Illustrator 17.0.0, SVG Export Plug-In . SVG Version: 6.00 Build 0)  -->
<!DOCTYPE svg PUBLIC "-//W3C//DTD SVG 1.1//EN" "http://www.w3.org/Graphics/SVG/1.1/DTD/svg11.dtd">
<svg version="1.1" id="Layer_1" xmlns="http://www.w3.org/2000/svg" xmlns:xlink="http://www.w3.org/1999/xlink" x="0px" y="0px"
	 width="613px" height="613px" viewBox="0 0 613 613" enable-background="new 0 0 613 613" xml:space="preserve">
<path d="M462.768,419.737l-39.237-36.621C563.943,235.498,635.216,79.448,583.316,27.549
	c-36.492-36.491-124.474-12.091-224.81,54.42l0.191-0.199c-36.963,24.469-75.31,54.475-113.537,89.358
	c-1.315,1.198-2.629,2.405-3.943,3.614c-0.105,0.097-0.21,0.194-0.315,0.29c-6.697,6.165-13.383,12.468-20.048,18.918
	l-36.118-33.711c7.251-65.686-26.806-94.896-83.763-141.021L97.298,78.63L60.665,44.439L46.703,58.401l35.91,38.475l-63.203,3.907
	c49.999,61.518,78.098,81.719,142.506,81.06l34.276,36.724C50.322,368.693-25.24,530.3,27.666,583.202
	c52.098,52.094,209.598-20.382,357.749-161.895l37.854,40.558l-88.298,28.318l252.351,97.475l-97.479-252.351L462.768,419.737z
	 M541.935,107.109c23.221,23.22-17.222,103.31-93.908,194.783c6.073-16.999,6.123-30.609-1.229-37.96
	c-15.853-15.851-60.81,2.712-106.09,41.882l-53.933-50.337C401.392,144.751,513.7,78.874,541.935,107.109z M107.725,541.322
	c-28.372-28.372,38.287-141.64,149.99-256.836l50.073,53.65c-42.241,46.983-62.972,94.891-46.526,111.334
	c7.193,7.192,20.408,7.266,36.928,1.547C208.527,525.363,130.58,564.177,107.725,541.322z"/>
</svg>
