<?xml version="1.0" encoding="utf-8"?>
<!-- Generator: Adobe Illustrator 17.0.0, SVG Export Plug-In . SVG Version: 6.00 Build 0)  -->
<!DOCTYPE svg PUBLIC "-//W3C//DTD SVG 1.1//EN" "http://www.w3.org/Graphics/SVG/1.1/DTD/svg11.dtd">
<svg version="1.1" id="Layer_1" xmlns="http://www.w3.org/2000/svg" xmlns:xlink="http://www.w3.org/1999/xlink" x="0px" y="0px"
	 width="613px" height="613px" viewBox="0 0 613 613" enable-background="new 0 0 613 613" xml:space="preserve">
<path d="M543.967,477.374c83.312-114.653,73.286-276.034-30.103-379.424C408.379-7.535,242.524-15.844,127.523,73.016
	C110.871,53.521,94.764,34.07,80.35,15.648L18.53,77.472c18.425,14.264,37.984,30.08,57.628,46.407
	c-90.853,115.082-83.186,282.517,23.037,388.74c103.042,103.042,263.683,113.34,378.263,30.934l24.412,24.411l92.442,23.022
	l-26.098-89.366L543.967,477.374z M395.206,328.613l-139.612-139.61l52.269-52.273L269.75,98.614
	C377.921,93.218,467.537,222.73,395.206,328.613z M267.215,98.757l-62.092,62.097c-7.541-8.344-15.37-17.036-23.357-25.964
	C209.751,111.829,239.069,100.706,267.215,98.757z M140.119,178.433c8.678,7.575,17.123,15.012,25.223,22.203l-64.507,64.511
	l39.31,39.312l49.107-49.11L475.68,541.774C246.725,695.889-45.051,412.032,140.119,178.433z"/>
</svg>
