<?xml version="1.0" encoding="utf-8"?>
<!-- Generator: Adobe Illustrator 17.0.0, SVG Export Plug-In . SVG Version: 6.00 Build 0)  -->
<!DOCTYPE svg PUBLIC "-//W3C//DTD SVG 1.1//EN" "http://www.w3.org/Graphics/SVG/1.1/DTD/svg11.dtd">
<svg version="1.1" id="Layer_1" xmlns="http://www.w3.org/2000/svg" xmlns:xlink="http://www.w3.org/1999/xlink" x="0px" y="0px"
	 width="613px" height="613px" viewBox="0 0 613 613" enable-background="new 0 0 613 613" xml:space="preserve">
<path d="M446.324,441.259c96.917-43.272,163.996-147.365,126.947-285.63C541.965,38.793,475.809,29.511,411.749,91.773
	c-28.429,27.632-85.102,26.127-93.858,67.138c135.658-54.439,165.001,38.828,60.423,55.921
	C237.091,237.913,170.6,412.658,25.33,416.234h-0.003c19.802,24.536,90.327,49.188,175.481,57.434l55.745,96.451
	c-10.058,5.191-19.29,12.115-27.096,20.962h114.189h46.035h114.189c-20.31-26.517-66.49-39.562-107.664-30.175l-52.32-90.525
	C379.473,464.906,414.35,455.535,446.324,441.259z M440.402,116.92c0-8.83,7.159-15.988,15.988-15.988
	c8.83,0,15.988,7.158,15.988,15.988c0.001,8.83-7.158,15.988-15.988,15.988C447.56,132.908,440.402,125.75,440.402,116.92z
	 M377.699,566.852c-3.633,1.54-7.18,3.287-10.617,5.249c-25.332-14.244-61.151-18.726-92.736-9.167l-50.554-87.47
	c32.287,1.921,66.129,1.408,99.717-2.373L377.699,566.852z"/>
</svg>
