<?xml version="1.0" encoding="utf-8"?>
<!-- Generator: Adobe Illustrator 17.0.0, SVG Export Plug-In . SVG Version: 6.00 Build 0)  -->
<!DOCTYPE svg PUBLIC "-//W3C//DTD SVG 1.1//EN" "http://www.w3.org/Graphics/SVG/1.1/DTD/svg11.dtd">
<svg version="1.1" id="Layer_1" xmlns="http://www.w3.org/2000/svg" xmlns:xlink="http://www.w3.org/1999/xlink" x="0px" y="0px"
	 width="613px" height="613px" viewBox="0 0 613 613" enable-background="new 0 0 613 613" xml:space="preserve">
<path d="M308.336,24.162c-130.458,82.876-224.88,311.297-224.88,578.249h448.606C532.062,335.459,438.793,107.038,308.336,24.162z
	 M180.655,315.151l21.947,18.35l-7.519-42.104c8.811-13.124,18.194-24.746,28.059-34.687l23.002,32.724l4.72-55.34
	c11.247-7.135,22.94-12.2,34.972-14.999l21.92,43.334l21.921-43.337c11.953,2.78,23.571,7.799,34.749,14.859l4.95,58.033
	l24.049-34.214c9.483,9.703,18.514,20.967,27.013,33.626l-7.519,42.105l21.948-18.351c29.179,52.983,50.331,123.911,59.264,204.291
	c-11.991-38.49-31.772-72.301-56.992-98.574l4.798-42.806L411.29,398.03c-7.292-5.417-14.892-10.279-22.76-14.538l-3.981-48.961
	l-31.427,34.495c-8.739-2.481-17.698-4.259-26.836-5.286l-18.537-39.736l-18.538,39.738c-9.736,1.096-19.269,3.043-28.548,5.784
	l-29.692-32.591l-3.776,46.446c-7.941,4.285-15.608,9.183-22.963,14.647l-30.646-19.969l4.798,42.804
	c-25.217,26.269-44.996,60.072-56.989,98.555C130.327,439.05,151.479,368.13,180.655,315.151z"/>
</svg>
