<?xml version="1.0" encoding="utf-8"?>
<!-- Generator: Adobe Illustrator 17.0.0, SVG Export Plug-In . SVG Version: 6.00 Build 0)  -->
<!DOCTYPE svg PUBLIC "-//W3C//DTD SVG 1.1//EN" "http://www.w3.org/Graphics/SVG/1.1/DTD/svg11.dtd">
<svg version="1.1" id="Layer_1" xmlns="http://www.w3.org/2000/svg" xmlns:xlink="http://www.w3.org/1999/xlink" x="0px" y="0px"
	 width="613px" height="613px" viewBox="0 0 613 613" enable-background="new 0 0 613 613" xml:space="preserve">
<g>
	<polygon points="23.387,536.859 23.389,536.855 23.386,536.855 	"/>
	<path d="M574.245,117.66c-12.35,0-22.363,10.013-22.363,22.363c0,2.502,0.417,4.904,1.175,7.15
		c-31.957,12.493-25.556,73.068-21,130.002c-17.917,16.084-38.402,14.027-56.534-9.768c-2.258-59.536-17.406-137.252,11.1-160.395
		c-0.256,1.353-0.395,2.747-0.395,4.174c0,12.35,10.012,22.363,22.363,22.363c12.351,0,22.363-10.013,22.363-22.363
		c0-12.35-10.012-22.363-22.363-22.363c-8.569,0-16.009,4.822-19.764,11.899c-44.252,7.001-30.524,86.808-26.363,152.511
		c-2.112,34.635-10.315,65.975-22.695,92.64c-9.596-71.038-51.293-135.384-89.901-167.772
		c-74.752-62.718-179.618-56.708-252.476,8.222S21.225,370.576,85.753,442.82c10.174,10.133,21.851,18.033,34.477,23.746
		c-46.42,19.133-82.014,44.694-96.841,70.289h384.498c117.102,0,160.53-116.419,137.348-248.648
		c-3.955-53.634-11.951-113.623,10.854-135.135c4.06,5.639,10.677,9.314,18.156,9.314c12.351,0,22.363-10.013,22.363-22.363
		C596.608,127.673,586.595,117.66,574.245,117.66z"/>
</g>
</svg>
