<?xml version="1.0" encoding="utf-8"?>
<!-- Generator: Adobe Illustrator 17.0.0, SVG Export Plug-In . SVG Version: 6.00 Build 0)  -->
<!DOCTYPE svg PUBLIC "-//W3C//DTD SVG 1.1//EN" "http://www.w3.org/Graphics/SVG/1.1/DTD/svg11.dtd">
<svg version="1.1" id="Layer_1" xmlns="http://www.w3.org/2000/svg" xmlns:xlink="http://www.w3.org/1999/xlink" x="0px" y="0px"
	 width="612px" height="612px" viewBox="0 0 612 612" enable-background="new 0 0 612 612" xml:space="preserve">
<path d="M292.913,18.543c40.985,58.35-28.133,383.148-107.941,163.422C127.654,388.61,46.565,397.465,46.469,301.879
	c-85.584,94.802,52.383,263.885,104.441,291.578h62.309c-54.888-47.831-91.78-93.234-98.225-162.523
	c56.552,11.265,85.89,25.054,97.135-74.166c72.598,103.504,120.659-59.019,163.977-128.041
	c-1.97,48.195-3.997,111.708,27.31,155.256c10.442,14.516,39.722,19.259,65.426,18.895c-11.857,19.22-53.607,82.926-20.33,106.621
	c33.277,23.696,39.531-0.459,30.906,19.335c-15.854,24.958-27.482,47.066-70.609,64.623h67.014
	C546.872,571.08,609.467,483.89,588.908,431.45c-26.316,22.3-52.326,36.93-73.267,35.305c58.713-86.158,45.23-174.4,17.633-264.574
	c-24.174,86.521-40.028,98.608-65.235,118.957C502.827,239.073,365.912,64.807,292.913,18.543L292.913,18.543z"/>
</svg>
