<?xml version="1.0" encoding="utf-8"?>
<!-- Generator: Adobe Illustrator 17.0.0, SVG Export Plug-In . SVG Version: 6.00 Build 0)  -->
<!DOCTYPE svg PUBLIC "-//W3C//DTD SVG 1.1//EN" "http://www.w3.org/Graphics/SVG/1.1/DTD/svg11.dtd">
<svg version="1.1" id="Layer_1" xmlns="http://www.w3.org/2000/svg" xmlns:xlink="http://www.w3.org/1999/xlink" x="0px" y="0px"
	 width="613px" height="613px" viewBox="0 0 613 613" enable-background="new 0 0 613 613" xml:space="preserve">
<path d="M181.35,59.493h58.05c5.095,0,9.225,5.325,9.225,11.895v83.789c0,6.569-4.13,11.895-9.225,11.895h-58.05
	c-5.095,0-9.225-5.325-9.225-11.895V71.388C172.125,64.818,176.255,59.493,181.35,59.493z"/>
<path d="M420.75,278.235l153,153h-76.5v153h-153v-153h-76.5L420.75,278.235z"/>
<g>
	<path d="M333.75,474.462H136.266c-5.281,0-9.563-4.281-9.563-9.563V244.962c0-5.281,4.281-9.563,9.563-9.563h339.469
		c5.281,0,9.563,4.281,9.563,9.563v84.32l59.766,59.766V134.993c0-5.295-80.765-86.063-86.063-86.063h-90.823
		c3.232,1.316,5.489,4.281,5.489,7.734v118.408c0,4.674-4.13,8.463-9.225,8.463H161.496c-5.095,0-9.225-3.789-9.225-8.463V56.664
		c0-3.453,2.257-6.418,5.489-7.734H76.5c-5.298,0-9.563,4.265-9.563,9.563v459c0,5.298,4.265,9.563,9.563,9.563h257.25V474.462z"/>
	<path d="M507.75,438.735v88.32h27.75c5.298,0,9.563-4.265,9.563-9.563v-78.758L507.75,438.735L507.75,438.735z"/>
</g>
</svg>
