<?xml version="1.0" encoding="utf-8"?>
<!-- Generator: Adobe Illustrator 17.0.0, SVG Export Plug-In . SVG Version: 6.00 Build 0)  -->
<!DOCTYPE svg PUBLIC "-//W3C//DTD SVG 1.1//EN" "http://www.w3.org/Graphics/SVG/1.1/DTD/svg11.dtd">
<svg version="1.1" id="Layer_1" xmlns="http://www.w3.org/2000/svg" xmlns:xlink="http://www.w3.org/1999/xlink" x="0px" y="0px"
	 width="613px" height="613px" viewBox="0 0 613 613" enable-background="new 0 0 613 613" xml:space="preserve">
<g>
	<path d="M527.031,350.724c2.205,10.986-6.045,35.646-12.105,44.86c19.063,6.593,48.544,5.087,70.074,4.982
		C574.074,384.661,548.204,359.007,527.031,350.724z"/>
	<path d="M375.506,309.866c-49.786-92.39,33.559-90.483,55.511-52.462c24.159,41.847,28.057,100.464-33.55,136.036
		c-48.701,28.118-103.528-31.971-94.553-116.514C320.618,110.136,243.687,4.175,29.622,76.838v246.447
		c52.451-105.796,153.116-126.135,153.116,41.483c0,112.795,183.501,179.581,290.372,63.442
		c46.768-50.825,57.558-169.79,1.22-238.519C419.922,123.318,244.541,205.417,375.506,309.866z"/>
	<path d="M582.529,239.417c-15.717-7.211-47.414-15.052-67.512-11.69c4.532,10.528,8.918,29.308,11.312,40.076
		C544.026,264.108,566.012,249.398,582.529,239.417z"/>
	<polygon points="492.993,119.929 492.993,119.93 492.996,119.929 	"/>
	<path d="M492.993,119.93c-14.344,5.447-39.029,20.599-49.417,35.395c9.476,3.691,24.077,12.61,32.373,17.799
		C484.632,159.638,489.019,136.583,492.993,119.93z"/>
	<path d="M349.318,171.438c8.656-5.339,24.573-11.614,33.713-15.108c-5.529-15.055-21.282-32.452-32.177-45.657
		C346.557,125.402,343.769,154.234,349.318,171.438z"/>
	<polygon points="350.852,110.67 350.854,110.673 350.855,110.67 	"/>
	<path d="M284.253,499.427c-0.354,25.426,10.422,58.974,17.3,84.157c14.587-17.074,35.019-52.018,41.149-80.027
		C320.59,504.795,301.218,503.171,284.253,499.427z"/>
	<path d="M427.419,480.376c8.843,25.74,53.919,48.345,83.863,65.441c-2.034-25.897-15.446-74.232-35.14-95.803
		C460.354,462.387,442.716,472.619,427.419,480.376z"/>
	<path d="M104.044,503.844c24.126-1.895,76.815-20.324,107.513-43.277c-15.638-15.624-26.035-33.331-32.919-49.307
		C148.948,431.488,119.153,477.379,104.044,503.844z"/>
	<path d="M166.868,354.398c3.048-25.833-2.097-45.802-7.569-58.803c-35.273,4.361-80.938,27.719-106.099,42.409
		C74.836,348.328,128.856,358.61,166.868,354.398z"/>
</g>
</svg>
