<?xml version="1.0" encoding="utf-8"?>
<!-- Generator: Adobe Illustrator 17.0.0, SVG Export Plug-In . SVG Version: 6.00 Build 0)  -->
<!DOCTYPE svg PUBLIC "-//W3C//DTD SVG 1.1//EN" "http://www.w3.org/Graphics/SVG/1.1/DTD/svg11.dtd">
<svg version="1.1" id="Layer_1" xmlns="http://www.w3.org/2000/svg" xmlns:xlink="http://www.w3.org/1999/xlink" x="0px" y="0px"
	 width="613px" height="613px" viewBox="0 0 613 613" enable-background="new 0 0 613 613" xml:space="preserve">
<path d="M571.241,261.228h0.003c-34.232-255.905-476.601-327.161-531.989,0C26.9,334.194,106.617,364.194,204.364,374.214
	c-27.608,118.99-57.857,200.1,94.805,200.1c163.443,0,128.502-88.052,96.445-202.536
	C494.701,358.035,579.453,322.616,571.241,261.228z M337.013,65.318c40.737-7.722,79.513,47.812,24.46,58.249
	C320.738,131.285,281.962,75.755,337.013,65.318z M249.363,69.821c26.086,16.882-0.7,47.136-20.002,34.646
	C203.273,87.584,230.061,57.329,249.363,69.821z M230.928,126.173c26.058-16.863,62.219,23.981,27.002,46.772
	C231.872,189.806,195.712,148.964,230.928,126.173z M110.661,287.593c-29.407-19.03,0.788-53.137,22.548-39.056
	C162.615,267.565,132.421,301.672,110.661,287.593z M155.275,206.602c-42.641,7.333-49.099-73.793,8.531-83.71
	C206.449,115.559,212.907,196.69,155.275,206.602z M225.946,264.094c35.472,22.954-0.951,64.094-27.198,47.11
	C163.276,288.25,199.699,247.11,225.946,264.094z M371.564,293.414c-53.706,34.756-128.235-49.423-55.652-96.392
	C369.617,162.266,444.148,246.446,371.564,293.414z M445.759,175.519c-24.789-7.553-26.352-50.869,7.149-40.663
	C477.698,142.41,479.261,185.725,445.759,175.519z M485.036,293.67c-50.568-32.725,1.356-91.373,38.773-67.157
	C574.376,259.237,522.452,317.886,485.036,293.67z"/>
</svg>
