<?xml version="1.0" encoding="utf-8"?>
<!-- Generator: Adobe Illustrator 17.0.0, SVG Export Plug-In . SVG Version: 6.00 Build 0)  -->
<!DOCTYPE svg PUBLIC "-//W3C//DTD SVG 1.1//EN" "http://www.w3.org/Graphics/SVG/1.1/DTD/svg11.dtd">
<svg version="1.1" id="Layer_1" xmlns="http://www.w3.org/2000/svg" xmlns:xlink="http://www.w3.org/1999/xlink" x="0px" y="0px"
	 width="613px" height="613px" viewBox="0 0 613 613" enable-background="new 0 0 613 613" xml:space="preserve">
<g>
	<path d="M436.956,446.685l-2.412-3.609l21.206-13.48l-56.568-88.995l-23.252,14.78l-9.979-14.93
		c15.653-13.927,26.278-33.378,28.819-55.297l77.619,113.043l119.617-36.102L379.569,52.708L259.952,88.81l69.493,101.208
		c-6.949-1.773-14.229-2.717-21.73-2.717c-36.687,0-68.103,22.542-81.169,54.53l-78.439-114.238L28.489,163.695l212.437,309.388
		l119.617-36.102l-51.086-74.4c17.012-0.332,32.834-5.511,46.147-14.213l9.351,13.99L345.3,374.852l56.568,88.995l21.702-13.795
		l2.301,3.442c-19.394,14.095-32.956,36.427-37.165,61.811l115.504-72.268C479.314,434.457,456.063,436.912,436.956,446.685z"/>
	<circle cx="471.922" cy="509.914" r="22.125"/>
</g>
</svg>
