<?xml version="1.0" encoding="utf-8"?>
<!-- Generator: Adobe Illustrator 17.0.0, SVG Export Plug-In . SVG Version: 6.00 Build 0)  -->
<!DOCTYPE svg PUBLIC "-//W3C//DTD SVG 1.1//EN" "http://www.w3.org/Graphics/SVG/1.1/DTD/svg11.dtd">
<svg version="1.1" id="Layer_1" xmlns="http://www.w3.org/2000/svg" xmlns:xlink="http://www.w3.org/1999/xlink" x="0px" y="0px"
	 width="613px" height="613px" viewBox="0 0 613 613" enable-background="new 0 0 613 613" xml:space="preserve">
<g>
	<path d="M537.081,498.131c29.817-20.221,48.307-48.328,48.307-79.411c0-61.58-72.553-111.503-162.059-111.503
		S261.267,357.139,261.267,418.72s72.559,111.503,162.062,111.503c21.794,0,42.578-2.967,61.56-8.335l81.908,61.142L537.081,498.131
		z"/>
	<path d="M470.274,164.588c0-70.812-97.458-128.219-217.677-128.219S34.92,93.772,34.92,164.588
		c0,33.315,21.573,63.659,56.934,86.458L57.549,390.989l117.97-106.46c23.962,5.346,49.936,8.281,77.078,8.281
		C372.816,292.81,470.274,235.404,470.274,164.588z"/>
</g>
</svg>
