<?xml version="1.0" encoding="utf-8"?>
<!-- Generator: Adobe Illustrator 17.0.0, SVG Export Plug-In . SVG Version: 6.00 Build 0)  -->
<!DOCTYPE svg PUBLIC "-//W3C//DTD SVG 1.1//EN" "http://www.w3.org/Graphics/SVG/1.1/DTD/svg11.dtd">
<svg version="1.1" id="Layer_1" xmlns="http://www.w3.org/2000/svg" xmlns:xlink="http://www.w3.org/1999/xlink" x="0px" y="0px"
	 width="613px" height="613px" viewBox="0 0 613 613" enable-background="new 0 0 613 613" xml:space="preserve">
<path d="M494.711,238.509h-0.002c-16.69,19.715-64.545,40.731-120.77,58.343c-2.064-21.385-4.909-39.548-7.642-49.619
	c-7.188-5.298-19.691-6.444-34.052-4.911L271.319,18.611h-63.527l0.003,0.003l65.401,240.615c-14.137,6.507-25.15,13.856-28.8,20.25
	c2.681,9.878,9.215,26.555,17.998,45.627c-59.138,11.671-111.833,16.612-133.48,9.739
	c32.978,121.505,85.618,210.053,143.805,258.291h191.974C521.167,530.279,539.03,401.805,494.711,238.509z"/>
</svg>
