<?xml version="1.0" encoding="utf-8"?>
<!-- Generator: Adobe Illustrator 17.0.0, SVG Export Plug-In . SVG Version: 6.00 Build 0)  -->
<!DOCTYPE svg PUBLIC "-//W3C//DTD SVG 1.1//EN" "http://www.w3.org/Graphics/SVG/1.1/DTD/svg11.dtd">
<svg version="1.1" id="Layer_1" xmlns="http://www.w3.org/2000/svg" xmlns:xlink="http://www.w3.org/1999/xlink" x="0px" y="0px"
	 width="613px" height="613px" viewBox="0 0 613 613" enable-background="new 0 0 613 613" xml:space="preserve">
<g>
	<path d="M306.023,98.017c-135.062,0-244.76,109.636-244.76,244.623s109.699,244.623,244.76,244.623s244.76-109.639,244.76-244.623
		S441.085,98.017,306.023,98.017z M306.023,545.328c-111.664,0-202.168-91.086-202.168-202.688s90.501-202.052,202.168-202.052
		c111.664,0,202.165,90.45,202.165,202.052S417.687,545.328,306.023,545.328z"/>
	<path d="M349.161,336.398c-0.069-0.378-0.128-0.756-0.208-1.135c-1.412-6.745-4.291-12.808-8.233-17.925l56.403-152.521
		l-91.196,135.234c-3.101-0.021-6.249,0.276-9.408,0.937c-23.949,5.007-39.302,28.469-34.293,52.405
		c5.01,23.936,28.485,39.282,52.434,34.275c10.085-2.109,18.637-7.498,24.795-14.809l156.093,24.06L349.161,336.398z"/>
	<rect x="203.517" y="13.558" width="193.549" height="71.813"/>
</g>
</svg>
