<?xml version="1.0" encoding="utf-8"?>
<!-- Generator: Adobe Illustrator 17.0.0, SVG Export Plug-In . SVG Version: 6.00 Build 0)  -->
<!DOCTYPE svg PUBLIC "-//W3C//DTD SVG 1.1//EN" "http://www.w3.org/Graphics/SVG/1.1/DTD/svg11.dtd">
<svg version="1.1" id="Layer_1" xmlns="http://www.w3.org/2000/svg" xmlns:xlink="http://www.w3.org/1999/xlink" x="0px" y="0px"
	 width="613px" height="613px" viewBox="0 0 613 613" enable-background="new 0 0 613 613" xml:space="preserve">
<g transform="matrix(-23.05722,-6.17826,-5.65872,21.11828,26535.00497,-39190.38293)">
	<path d="M623.358,2057.097h5.159c0.303-1.925,0.986-4.016,2.411-5.744c1.426-5.202,1.037-10.547-3.09-10.547
		C623.295,2040.807,621.18,2051.467,623.358,2057.097L623.358,2057.097z"/>
	<path d="M623.131,2059.406c-2.221,10.211,8.349,8.336,5.249,0H623.131z"/>
</g>
<g transform="matrix(23.05722,-6.17826,5.65872,21.11828,-26017.59969,-39190.38293)">
	<path d="M627.447,2058.294h5.159c0.303-1.925,0.986-4.016,2.411-5.744c1.426-5.202,1.037-10.547-3.09-10.547
		C627.384,2042.003,625.269,2052.663,627.447,2058.294L627.447,2058.294z"/>
	<path d="M627.221,2060.603c-2.221,10.212,8.349,8.336,5.249,0H627.221z"/>
</g>
</svg>
