<?xml version="1.0" encoding="utf-8"?>
<!-- Generator: Adobe Illustrator 17.0.0, SVG Export Plug-In . SVG Version: 6.00 Build 0)  -->
<!DOCTYPE svg PUBLIC "-//W3C//DTD SVG 1.1//EN" "http://www.w3.org/Graphics/SVG/1.1/DTD/svg11.dtd">
<svg version="1.1" id="Layer_1" xmlns="http://www.w3.org/2000/svg" xmlns:xlink="http://www.w3.org/1999/xlink" x="0px" y="0px"
	 width="613px" height="613px" viewBox="0 0 613 613" enable-background="new 0 0 613 613" xml:space="preserve">
<path d="M454.505,72.8C324.075-10.138,151.44,27.836,68.913,157.618c-0.023,0.036-0.046,0.072-0.069,0.108
	c-82.526,129.782-43.693,302.226,86.737,385.164s303.065,44.964,385.592-84.818c0.023-0.036,0.046-0.072,0.069-0.108
	C623.768,328.182,584.935,155.738,454.505,72.8z M192.457,434.589l-92.188,14.608L52.827,328.392l57.249-70.225l84.312,55.268l0,0
	L192.457,434.589z M274.752,42.564L274.752,42.564l-36.954,58.145l-108.756,54.263L97.138,130.28
	c23.654-40.726,111.984-84.955,128.732-83.232C248.739,35.629,275.684,41.098,274.752,42.564z M470.891,478.234l-66.067,74.506
	l-109.305,13.167l-9.867-70.828l108.925-57.568L470.891,478.234L470.891,478.234z M397.986,329.907l-102.895-60.77l23.371-120.145
	l114.13,0.411l54.956,108.736L397.986,329.907z M492.026,113.609l-40.032-10.635l-44.642-43.18
	C407.352,59.793,485.375,95.999,492.026,113.609L492.026,113.609z M543.486,411.658L543.486,411.658l6.065-107.804l19.578-36.765
	c7.943,5.049,6.722,118.98-16.367,154.456C537.454,430.742,543.486,411.658,543.486,411.658z"/>
</svg>
