<?xml version="1.0" encoding="utf-8"?>
<!-- Generator: Adobe Illustrator 17.0.0, SVG Export Plug-In . SVG Version: 6.00 Build 0)  -->
<!DOCTYPE svg PUBLIC "-//W3C//DTD SVG 1.1//EN" "http://www.w3.org/Graphics/SVG/1.1/DTD/svg11.dtd">
<svg version="1.1" id="Layer_1" xmlns="http://www.w3.org/2000/svg" xmlns:xlink="http://www.w3.org/1999/xlink" x="0px" y="0px"
	 width="613px" height="613px" viewBox="0 0 613 613" enable-background="new 0 0 613 613" xml:space="preserve">
<path d="M387.686,157.418c-4.74,20.112-22.792,35.087-44.351,35.087c-25.171,0-45.578-20.407-45.578-45.577
	c0-4.488,0.659-8.82,1.868-12.916L149.228,42.479l4.065,175.694c19.468,5.188,33.814,22.934,33.814,44.036
	c0,25.171-20.407,45.577-45.578,45.577c-4.098,0-8.066-0.549-11.844-1.564l-91.34,150.08l170.902-3.953
	c4.796-20.034,22.811-34.932,44.315-34.932c25.171,0,45.578,20.407,45.578,45.577c0,3.556-0.421,7.011-1.191,10.333l154.22,93.859
	l-3.83-165.578c-21.655-3.533-38.188-22.319-38.188-44.972c0-25.171,20.407-45.577,45.578-45.577c3.646,0,7.188,0.441,10.587,1.249
	l96.737-158.946L387.686,157.418z M347.031,385.088c-44.319,25.588-100.988,10.402-126.575-33.917
	c-25.589-44.321-10.404-100.988,33.915-126.575c44.319-25.588,100.986-10.404,126.575,33.917
	C406.534,302.833,391.35,359.5,347.031,385.088z"/>
</svg>
