<?xml version="1.0" encoding="utf-8"?>
<!-- Generator: Adobe Illustrator 17.0.0, SVG Export Plug-In . SVG Version: 6.00 Build 0)  -->
<!DOCTYPE svg PUBLIC "-//W3C//DTD SVG 1.1//EN" "http://www.w3.org/Graphics/SVG/1.1/DTD/svg11.dtd">
<svg version="1.1" id="Layer_1" xmlns="http://www.w3.org/2000/svg" xmlns:xlink="http://www.w3.org/1999/xlink" x="0px" y="0px"
	 width="613px" height="613px" viewBox="0 0 613 613" enable-background="new 0 0 613 613" xml:space="preserve">
<path d="M314.095,179.812c90.206,156.851,201.142,46.534,192.671-53.054c-5.107-60.026-62.635-114.557-166.144-110.297v-0.002
	c-6.9,0.284-14.337,1.278-21.642,2.093C116.641,41.183,42.059,200.806,212.871,327.804c104.63,77.79,100.654,155.149-104.713,251.31
	h150.089c33.459-31.719,116.811-20.118,141.013-2.093c98.746-70.289,80.227-236.808-46.773-293.195
	c-161.285-71.609-141.759-189.294-28.62-210.821c64.157-12.208,116.995,20.449,127.051,60.734
	C465.745,193.124,407.258,263.312,314.095,179.812z M379.528,542.147c-33.531,4.042-62.501-7.541-64.71-25.87
	c-2.21-18.329,23.178-36.465,56.708-40.507c33.531-4.042,62.5,7.541,64.71,25.87C438.446,519.969,413.059,538.105,379.528,542.147z
	 M445.566,420.202c2.158,15.66-19.312,31.555-47.96,35.503c-28.647,3.948-53.617-5.547-55.775-21.207
	c-2.158-15.66,19.312-31.555,47.96-35.503C418.438,395.047,443.408,404.542,445.566,420.202z M413.49,350.831
	c3.273,12.215-12.186,26.972-34.532,32.959c-22.346,5.988-43.112,0.938-46.385-11.277s12.186-26.972,34.532-32.959
	C389.45,333.566,410.217,338.615,413.49,350.831z M356.887,304.263c2.395,8.938-8.917,19.735-25.268,24.116
	c-16.351,4.381-31.546,0.686-33.941-8.252c-2.395-8.938,8.917-19.735,25.268-24.116C339.297,291.63,354.492,295.325,356.887,304.263
	z M280.905,267.828c10.438-2.797,20.138-0.438,21.667,5.268s-5.692,12.599-16.131,15.396s-20.139,0.438-21.667-5.268
	C263.245,277.518,270.466,270.625,280.905,267.828z M254.129,241.818c7.201-1.93,13.894-0.302,14.949,3.634
	c1.055,3.937-3.927,8.692-11.129,10.622c-7.201,1.93-13.894,0.302-14.949-3.634C241.945,248.503,246.927,243.748,254.129,241.818z"
	/>
</svg>
