<?xml version="1.0" encoding="utf-8"?>
<!-- Generator: Adobe Illustrator 17.0.0, SVG Export Plug-In . SVG Version: 6.00 Build 0)  -->
<!DOCTYPE svg PUBLIC "-//W3C//DTD SVG 1.1//EN" "http://www.w3.org/Graphics/SVG/1.1/DTD/svg11.dtd">
<svg version="1.1" id="Layer_1" xmlns="http://www.w3.org/2000/svg" xmlns:xlink="http://www.w3.org/1999/xlink" x="0px" y="0px"
	 width="613px" height="613px" viewBox="0 0 613 613" enable-background="new 0 0 613 613" xml:space="preserve">
<g>
	<path d="M581.785,152.98C518.312-7.326,307.25,18.162,108.288,69.617v0.002c-4.148,40.735,2.656,82.376,16.765,124.623
		C216.555,90.771,470.541,53.56,581.785,152.98z"/>
	<path d="M78.472,73.43v0.007L33.366,84.879c6.744,93.274,34.103,158.255,72.233,208.552
		c-19.769,12.363-48.645,23.497-82.202,32.062c6.771,7.885,17.007,19.323,36.466,22.133c29.692-5.176,47.7-17.905,64.239-31.78
		C215.231,417.643,351.5,458.04,426.698,583.875l59.066-0.156C347.812,329.085,96.825,436.05,78.472,73.43z"/>
</g>
</svg>
