<?xml version="1.0" encoding="utf-8"?>
<!-- Generator: Adobe Illustrator 17.0.0, SVG Export Plug-In . SVG Version: 6.00 Build 0)  -->
<!DOCTYPE svg PUBLIC "-//W3C//DTD SVG 1.1//EN" "http://www.w3.org/Graphics/SVG/1.1/DTD/svg11.dtd">
<svg version="1.1" id="Layer_1" xmlns="http://www.w3.org/2000/svg" xmlns:xlink="http://www.w3.org/1999/xlink" x="0px" y="0px"
	 width="612px" height="612px" viewBox="0 0 612 612" enable-background="new 0 0 612 612" xml:space="preserve">
<path d="M476.35,126.698V54.997c0-17.925,0-35.865-17.925-35.865H440.5h-17.955v0.001c-17.925,0-17.925,17.925-17.925,35.865v71.699
	h0c-9.915,0-17.94,8.026-17.925,17.925v35.865c0,9.9,8.025,17.925,17.925,17.925h0v251.041c0,39.615-32.115,71.715-71.715,71.715
	c-39.6,0-71.715-32.115-71.715-71.715c0,0,17.925-17.925,17.925-35.865s53.79-35.865,53.79-53.79
	c0-17.925-17.925-17.925-17.925-17.925s-53.79,53.79-89.655,53.79s-89.655-53.79-89.655-53.79s-17.925,0-17.925,17.925
	s53.79,35.865,53.79,53.79c0,17.925,17.925,35.865,17.925,35.865c0,79.215,64.215,143.445,143.445,143.445
	c79.215,0,143.445-64.215,143.445-143.445V198.411c9.893-0.008,17.91-8.029,17.91-17.924v-35.865
	C494.26,134.727,486.243,126.706,476.35,126.698z"/>
</svg>
