<?xml version="1.0" encoding="utf-8"?>
<!-- Generator: Adobe Illustrator 17.0.0, SVG Export Plug-In . SVG Version: 6.00 Build 0)  -->
<!DOCTYPE svg PUBLIC "-//W3C//DTD SVG 1.1//EN" "http://www.w3.org/Graphics/SVG/1.1/DTD/svg11.dtd">
<svg version="1.1" id="Layer_1" xmlns="http://www.w3.org/2000/svg" xmlns:xlink="http://www.w3.org/1999/xlink" x="0px" y="0px"
	 width="613px" height="613px" viewBox="0 0 613 613" enable-background="new 0 0 613 613" xml:space="preserve">
<g>
	<path d="M569.502,293.457l16.932-80.527l-61.272-54.927l-78.204,25.6l-12.99,61.777c-15.546-33.184-44-59.895-80.357-72.454
		l59.336-19.423l16.932-80.527l-61.272-54.927l-78.204,25.6l-16.932,80.526l46.388,41.584c-38.51-3.328-75.512,9.636-103.238,33.825
		l12.812-60.933l-61.272-54.927l-78.204,25.599L73.025,189.85l61.272,54.927l59.307-19.414c-10.16,14.73-17.63,31.676-21.542,50.284
		c-3.995,18.998-3.897,37.903-0.315,55.805l-46.845-41.994l-78.204,25.599l-16.932,80.527l61.272,54.927l78.204-25.6l12.973-61.698
		c15.566,33.157,44.024,59.838,80.377,72.373l-59.338,19.424l-16.932,80.527l61.272,54.927l78.204-25.6l16.932-80.526l-46.41-41.604
		c38.534,3.317,75.556-9.677,103.282-33.905l-12.833,61.034l61.272,54.927l78.204-25.599l16.932-80.527l-61.272-54.927
		l-59.414,19.449c10.181-14.744,17.665-31.711,21.583-50.343c3.998-19.013,3.896-37.932,0.306-55.847l46.92,42.061L569.502,293.457z
		 M289.092,394.846c-50.038-10.521-82.071-59.612-71.55-109.649c10.521-50.038,59.612-82.071,109.649-71.55
		c50.038,10.521,82.071,59.612,71.55,109.649C388.22,373.332,339.129,405.367,289.092,394.846z"/>
	<polygon points="292.108,244.385 248.44,288.053 264.423,347.704 324.074,363.688 367.742,320.021 351.759,260.369 	"/>
</g>
</svg>
