<?xml version="1.0" encoding="utf-8"?>
<!-- Generator: Adobe Illustrator 17.0.0, SVG Export Plug-In . SVG Version: 6.00 Build 0)  -->
<!DOCTYPE svg PUBLIC "-//W3C//DTD SVG 1.1//EN" "http://www.w3.org/Graphics/SVG/1.1/DTD/svg11.dtd">
<svg version="1.1" id="Layer_1" xmlns="http://www.w3.org/2000/svg" xmlns:xlink="http://www.w3.org/1999/xlink" x="0px" y="0px"
	 width="613px" height="613px" viewBox="0 0 613 613" enable-background="new 0 0 613 613" xml:space="preserve">
<path d="M445.094,557.861c-15.912,0-29.906-1.676-42.224-4.771c-16.914-6-31.834-13.1-50.054-38.132
	c-1.727-2.355-3.362-4.822-4.884-7.336l-1.028-1.717c-16.899-29.073-20.775-67.405-22.729-103.249l-0.257-9.506V117.484
	c0-8.879-1.131-18.025-4.987-26.271c-2.982-5.023-6.925-5.398-9.989-3.871c-3.943,1.964-8.848,8.154-9.634,20.559
	c1.131,86.9-1.902,210.4-3.152,294.755h-93.121V117.489c0-8.879-1.121-18.025-4.982-26.271c-3.09-5.198-7.223-5.491-10.524-3.583
	c-4.226,2.447-9.208,9.701-9.208,23.675c0.73,94.792-1.794,197.002-3.208,291.347H81.998V117.489
	c0-25.546-10.58-47.488-43.478-47.617l-10.066-0.041c20.822-23.716,41.535-33.906,75.019-33.906
	c21.572,0,41.736,8.545,55.673,23.089l2.262-2.046l2.648-2.278c20.045-15.454,43.026-18.76,60.444-18.76
	c21.541,0,41.669,8.519,55.606,23.017l2.18-1.974l2.648-2.278c20.061-15.454,43.026-18.76,60.459-18.76
	c39.489,0,74.017,28.579,74.772,69.821c0.195,10.57,0.298,22.755,0.319,36.065c0,74.891-3.331,284.108-0.853,299.074l1.198,6.627
	c0.622,3.079,1.28,6.01,2,8.822c11.691,45.067,28.585,55.411,59.256,54.743c13.696-1.234,25.896-6.313,35.386-11.717l-19.726-35.515
	l87.07,2.833l-34.687,92.725c-0.262-1.039-7.429-14.272-16.395-30.584C525.634,539.446,503.214,557.861,445.094,557.861
	L445.094,557.861z"/>
</svg>
