<?xml version="1.0" encoding="utf-8"?>
<!-- Generator: Adobe Illustrator 17.0.0, SVG Export Plug-In . SVG Version: 6.00 Build 0)  -->
<!DOCTYPE svg PUBLIC "-//W3C//DTD SVG 1.1//EN" "http://www.w3.org/Graphics/SVG/1.1/DTD/svg11.dtd">
<svg version="1.1" id="Layer_1" xmlns="http://www.w3.org/2000/svg" xmlns:xlink="http://www.w3.org/1999/xlink" x="0px" y="0px"
	 width="612px" height="612px" viewBox="0 0 612 612" enable-background="new 0 0 612 612" xml:space="preserve">
<g transform="matrix(15 0 0 15 -1063.9999 -4903.9996)">
	<path d="M93.965,345.892v-3.177c0-0.261-0.121-0.647-0.978-0.647c-0.856,0-0.978,0.386-0.978,0.647v3.177
		c0,0.261,0.17,0.559,0.978,0.559S93.965,346.153,93.965,345.892z M90.825,366.283l-0.241-9.306
		c-1.132-0.042-1.784-0.058-2.388-0.211c-0.419-0.106-0.625-0.408-0.625-0.874v-13.348c0-0.307-0.027-0.49-0.518-0.487
		c-0.832,0.006-4.086,0.047-4.086,0.047l0.603-1.04c0.112-0.193,0.215-0.337,0.507-0.337c0.209,0,1.859,0.204,2.987,0.094
		c0.574-0.056,0.83-0.122,1.088-0.512c0.456-0.692,0.365-2.36-0.461-3.518c-0.2-0.28,0.016-0.529,0.366-0.414
		c0.767,0.25,2.052,0.212,2.052,0.212v-6.534c0-0.222-0.132-0.352-0.4-0.352h-4.653c0,0,0.636-1.242,1.556-1.371
		c1.005-0.142,3.147-0.122,4.721-0.122s3.716-0.02,4.721,0.122c0.92,0.13,1.556,1.371,1.556,1.371h-4.653
		c-0.268,0-0.4,0.13-0.4,0.352v6.534c0,0,1.285,0.038,2.052-0.212c0.35-0.114,0.566,0.134,0.366,0.414
		c-0.826,1.158-0.917,2.826-0.461,3.518c0.258,0.391,0.513,0.456,1.088,0.512c1.128,0.11,2.778-0.094,2.987-0.094
		c0.292,0,0.395,0.144,0.507,0.337l0.603,1.04c0,0-3.254-0.041-4.086-0.047c-0.491-0.004-0.518,0.179-0.518,0.487v13.348
		c0,0.467-0.206,0.769-0.625,0.874c-0.604,0.152-1.256,0.169-2.388,0.211l-0.241,9.306c-0.004,0.153-0.239,0.176-0.509,0.176
		C91.064,366.458,90.829,366.435,90.825,366.283L90.825,366.283z M89.68,346.451c0.808,0,0.978-0.298,0.978-0.559v-3.177
		c0-0.261-0.121-0.647-0.978-0.647s-0.978,0.386-0.978,0.647v3.177C88.702,346.153,88.872,346.451,89.68,346.451z"/>
</g>
</svg>
