<?xml version="1.0" encoding="utf-8"?>
<!-- Generator: Adobe Illustrator 17.0.0, SVG Export Plug-In . SVG Version: 6.00 Build 0)  -->
<!DOCTYPE svg PUBLIC "-//W3C//DTD SVG 1.1//EN" "http://www.w3.org/Graphics/SVG/1.1/DTD/svg11.dtd">
<svg version="1.1" id="Layer_1" xmlns="http://www.w3.org/2000/svg" xmlns:xlink="http://www.w3.org/1999/xlink" x="0px" y="0px"
	 width="613px" height="613px" viewBox="0 0 613 613" enable-background="new 0 0 613 613" xml:space="preserve">
<path d="M589.845,21.371H455.709l-50.544,38.881c-5.558-9.733-12.215-18.047-20.087-25.92l9.72-12.961H200.4l9.072,11.663
	c-8.297,8.046-14.916,17.143-20.735,27.215l-49.896-38.881H20.907l-0.003,0.001v11.015L173.83,95.889
	c-1.847,8.542-2.591,18.124-2.591,27.215c0,1.421-0.047,2.479,0,3.889L20.904,106.907v75.815l157.463-21.385
	c3,9.07,6.778,17.902,11.663,25.92L20.904,257.239v102.383L209.47,212.529c6.706,6.498,13.361,11.971,21.385,16.848L20.904,500.886
	v89.424h94.607L258.07,241.042c7.81,2.475,16.234,4.934,24.624,5.833l-46.007,343.438h121.822l-46.007-343.437
	c8.335-1.128,16.893-4.439,24.624-7.128l142.559,350.565h110.159V520.33L363.046,227.435c6.827-4.365,12.954-9.336,18.791-14.905
	l208.007,160.054V264.37l-187.27-77.111c4.66-7.644,9.362-16.017,12.311-24.624l174.959,23.329v-81.648l-168.478,22.68
	c0.047-1.407,0-2.469,0-3.889c0-8.625-0.927-17.786-2.591-25.92l171.07-70.631V21.371z"/>
</svg>
