<?xml version="1.0" encoding="utf-8"?>
<!-- Generator: Adobe Illustrator 17.0.0, SVG Export Plug-In . SVG Version: 6.00 Build 0)  -->
<!DOCTYPE svg PUBLIC "-//W3C//DTD SVG 1.1//EN" "http://www.w3.org/Graphics/SVG/1.1/DTD/svg11.dtd">
<svg version="1.1" id="Layer_1" xmlns="http://www.w3.org/2000/svg" xmlns:xlink="http://www.w3.org/1999/xlink" x="0px" y="0px"
	 width="613px" height="613px" viewBox="0 0 613 613" enable-background="new 0 0 613 613" xml:space="preserve">
<path d="M371.355,235.331c0.251-3.385,0.368-6.772,0.322-10.152c-0.917-66.645-62.699-130.3-62.699-130.3v0h-0.001v0.002
	c0,0-59.947,69.638-59.028,136.284c0.011,0.781,0.038,1.561,0.065,2.341C194.01,160.102,115.065,121.67,16.919,121.67
	c0,0,0.601,114.979,75.958,175.917c44.179,35.724,119.896,35.882,159.016,60.735c61.633,39.151,26.114,154.371-38.333,242.933
	h193.799c-64.93-89.22-99.789-204.495-37.625-243.63c39.435-24.825,115.187-24.592,159.016-60.035
	c75.357-60.938,75.958-175.917,75.958-175.917C494.04,121.673,422.22,166.554,371.355,235.331z"/>
</svg>
