<?xml version="1.0" encoding="utf-8"?>
<!-- Generator: Adobe Illustrator 17.0.0, SVG Export Plug-In . SVG Version: 6.00 Build 0)  -->
<!DOCTYPE svg PUBLIC "-//W3C//DTD SVG 1.1//EN" "http://www.w3.org/Graphics/SVG/1.1/DTD/svg11.dtd">
<svg version="1.1" id="Layer_1" xmlns="http://www.w3.org/2000/svg" xmlns:xlink="http://www.w3.org/1999/xlink" x="0px" y="0px"
	 width="613px" height="613px" viewBox="0 0 613 613" enable-background="new 0 0 613 613" xml:space="preserve">
<path d="M518.72,387.604c-12.613,35.801-29.318,73.572-102.47,4.676c58.07-53.805,104.232-104.575,105.287-178.518
	c2.1-147.203-167.252-172.345-229.363-51.768c-40.506-79.256-116.047-90.49-168.819-55.507L30.854,16.213H10.589v47.802
	L89.177,140.7c-14.48,21.597-23.551,49.145-23.995,81.43l-0.002,0.003c-2.022,146.908,179.802,180.014,194.751,334.109
	c35.907-52.63,79.347-93.762,120.428-131.207c54.649,56.023,46.362,77.436-3.497,100.83c57.404,38.266,147.08,73.566,221.417,77.955
	C601.518,528.965,560.339,445.072,518.72,387.604z"/>
</svg>
