<?xml version="1.0" encoding="utf-8"?>
<!-- Generator: Adobe Illustrator 17.0.0, SVG Export Plug-In . SVG Version: 6.00 Build 0)  -->
<!DOCTYPE svg PUBLIC "-//W3C//DTD SVG 1.1//EN" "http://www.w3.org/Graphics/SVG/1.1/DTD/svg11.dtd">
<svg version="1.1" id="Layer_1" xmlns="http://www.w3.org/2000/svg" xmlns:xlink="http://www.w3.org/1999/xlink" x="0px" y="0px"
	 width="613px" height="613px" viewBox="0 0 613 613" enable-background="new 0 0 613 613" xml:space="preserve">
<path d="M579.841,46.667c-8.533,0.448-59.44,6.894-62.286,27.536c-11.678-3.164-23.522-2.152-32.097,3.723
	c-6.445,4.416-10.008,10.879-10.767,18.133c-13.607-3.197-26.593-1.817-35.703,4.902c-7.651,5.643-11.328,14.153-11.298,23.824
	c-17.28-4.103-33.786-2.381-45.351,6.149c-8.135,6.001-12.714,14.567-13.949,24.409c-27.028-7.958-53.366-6.216-71.347,7.047
	c-14.653,10.808-21.27,27.423-20.369,46.196c-55.351-14.337-104.891-0.858-108.056,66.039
	C163.451,383.832,43.403,425.44,39.731,579.012c85.068-127.267,304.885-334.381,286.395-163.995
	c-9.632,88.756-110.936,29.516-253.317,138.012c129.651-89.458,268.101-18.24,277.912-145.203
	c23.876,13.095,34.944,7.499,55.264-7.49c29.158-21.508,32.484-49.623,20.3-77.848c8.337-1.872,15.954-5.142,22.463-9.943
	c20.253-14.938,25.157-40.97,16.063-68.465c8.959-0.646,17.093-3.287,23.64-8.116c13.556-9.999,17.28-27.104,12.003-45.411
	c8.562,0.042,16.369-2.054,22.445-6.537c11.702-8.632,14.13-23.96,8.154-39.911c5.341-0.633,10.305-2.334,14.488-5.2
	c10.312-7.066,13.263-19.367,9.101-31.781C575.876,103.123,578.634,55.022,579.841,46.667z"/>
</svg>
