<?xml version="1.0" encoding="utf-8"?>
<!-- Generator: Adobe Illustrator 17.0.0, SVG Export Plug-In . SVG Version: 6.00 Build 0)  -->
<!DOCTYPE svg PUBLIC "-//W3C//DTD SVG 1.1//EN" "http://www.w3.org/Graphics/SVG/1.1/DTD/svg11.dtd">
<svg version="1.1" id="Layer_1" xmlns="http://www.w3.org/2000/svg" xmlns:xlink="http://www.w3.org/1999/xlink" x="0px" y="0px"
	 width="613px" height="613px" viewBox="0 0 613 613" enable-background="new 0 0 613 613" xml:space="preserve">
<path d="M585.117,134.135c-6.324-10.473-24.903-15.142-30.764-20.02c-18.322-15.249-59.036-27.695-93.724,7.961l-0.004-0.005
	c-4.476,3.921-8.328,6.786-11.757,9.245c-12.449-13.717-29.209-15.34-45.03-15.396c-18.037-0.059-42.063,10.327-48.315,27.147
	c-3.667-18.238-29.966-26.733-48.436-26.94c-18.813-0.21-42.876,13.548-49.927,26.321c-6.333-20.581-31.963-30.22-49.968-29.209
	c-18.846,1.059-43.916,14.708-50.43,36.348c-35.727-19.474-70.127-9.129-93.366,11.953C16.72,203.888,5.639,273.661,21.31,345.87
	c9.108,41.956,25.245,69.4,55.68,82.823l0.024-0.013c7.143,3.149,13.258,6.46,19.428,8.625l-20.599,98.176
	c7.208,17.524,23.529,16.818,45.384,5.043l40.189-112.288c5.941,8.264,11.856,14.629,17.796,19.496l2.583,80.267
	c22.264,22.95,33.898,9.289,45.411-4.781l-5.861-61.362c3.565-0.07,7.176-0.342,10.845-0.76c23.57-2.682,48.936-18.839,60.892-51.53
	c13.526,31.708,32.778,37.067,54.052,37.877c11.729,0.45,23.778,0.531,33.406-8.827l16.08,96.746
	c20.87,16.434,33.966,7.545,44.865-8.5l-10.423-86.725c1.772-0.339,3.552-0.707,5.34-1.062c5.195-1.031,10.14-2.057,14.778-3.716
	l23.933,89.509c18.558,4.296,35.455,4.9,43.139-14.971l-37.187-110.624c19.957,13.866,43.734-1.002,56.508-17.374
	c20.871-26.759,20.588-66.731,17.101-104.429c1.294-0.887,2.44-1.885,3.384-3.013c9.425-10.911,14.962-49.643,15.563-71.073
	c0.304,12.428,6.644,28.331,20.416,26.724C618.599,224.048,601.726,161.639,585.117,134.135z M550.999,243.114
	c-1.053,2.68-2.626,5.21-4.549,7.499c-0.086,0.102-0.172,0.203-0.259,0.304c-0.232,0.269-0.466,0.536-0.707,0.798
	c-0.088,0.096-0.18,0.188-0.27,0.283c-0.398,0.421-0.807,0.832-1.227,1.233c-0.184,0.176-0.368,0.352-0.557,0.523
	c-0.195,0.178-0.392,0.352-0.59,0.525c-0.236,0.206-0.476,0.407-0.718,0.606c-0.162,0.134-0.322,0.27-0.486,0.401
	c-0.393,0.312-0.793,0.616-1.199,0.91c-0.145,0.106-0.293,0.207-0.44,0.31c-0.308,0.216-0.618,0.428-0.931,0.634
	c-0.151,0.099-0.302,0.198-0.454,0.295c-0.413,0.262-0.829,0.516-1.25,0.759c-0.033,0.019-0.066,0.04-0.1,0.06l-1.136-27.575
	c0.447-0.25,0.896-0.476,1.344-0.69c0.089-0.042,0.178-0.085,0.266-0.126c0.44-0.203,0.879-0.391,1.317-0.559
	c0.057-0.022,0.113-0.04,0.17-0.061c0.382-0.142,0.761-0.269,1.139-0.384c0.112-0.034,0.224-0.07,0.335-0.101
	c0.397-0.113,0.79-0.211,1.179-0.294c0.137-0.029,0.271-0.051,0.407-0.076c0.271-0.05,0.539-0.091,0.804-0.126
	c0.157-0.02,0.316-0.044,0.471-0.059c0.327-0.032,0.647-0.049,0.964-0.057c0.197-0.004,0.39-0.001,0.583,0.004
	c0.157,0.004,0.31,0.013,0.464,0.023c0.372,0.025,0.734,0.068,1.085,0.131c0.09,0.016,0.182,0.029,0.271,0.047
	c0.221,0.046,0.437,0.1,0.648,0.161c0.061,0.018,0.119,0.039,0.178,0.057c0.398,0.126,0.777,0.279,1.134,0.462
	c0.046,0.023,0.093,0.045,0.138,0.069c0.198,0.107,0.39,0.221,0.574,0.346c0,0,0,0,0,0c1.755,1.194,2.857,3.213,2.874,6.158
	C552.487,238.184,551.945,240.707,550.999,243.114z M507.599,239.755c-0.797-9.016,7.827-11.124,15.267-7.642v-0.002l4.496,26.912
	C520.189,254.632,508.917,254.665,507.599,239.755z M504.876,183.239c0.001,5.012-4.208,9.076-9.4,9.076
	c-5.192,0-9.4-4.064-9.4-9.076c0-5.013,4.209-9.076,9.4-9.076S504.876,178.227,504.876,183.239z M559.246,188.265
	c-5.192,0-9.4-4.064-9.4-9.076c0-5.012,4.209-9.076,9.4-9.076s9.4,4.064,9.4,9.076C568.646,184.201,564.438,188.265,559.246,188.265
	z"/>
</svg>
