<?xml version="1.0" encoding="utf-8"?>
<!-- Generator: Adobe Illustrator 17.0.0, SVG Export Plug-In . SVG Version: 6.00 Build 0)  -->
<!DOCTYPE svg PUBLIC "-//W3C//DTD SVG 1.1//EN" "http://www.w3.org/Graphics/SVG/1.1/DTD/svg11.dtd">
<svg version="1.1" id="Layer_1" xmlns="http://www.w3.org/2000/svg" xmlns:xlink="http://www.w3.org/1999/xlink" x="0px" y="0px"
	 width="613px" height="613px" viewBox="0 0 613 613" enable-background="new 0 0 613 613" xml:space="preserve">
<g>
	<path d="M304.337,237.998c9.863-36.813,114.902-83.912,112.795-150.955c-2.074-66.062-79.553-83.138-112.795-25.562
		C271.887,5.28,189.064,19.858,191.209,87.043C193.445,157.004,293.56,197.782,304.337,237.998z"/>
	<polygon points="202.083,464.525 304.259,590.204 406.436,464.526 304.259,338.847 	"/>
	<path d="M591.59,296.782c-2.012-63.038-101.929-136.012-101.929-136.012s-103.526,75.607-101.629,136.012
		c1.621,51.649,54.39,70.053,87.893,40.13l-29.37,70.338l86.516-0.005l-29.394-70.393
		C537.645,366.033,593.264,349.152,591.59,296.782z"/>
	<path d="M228.404,301.325c0-29.317-23.397-53.379-52.713-53.379c-2.509,0-4.923,0.318-7.341,0.662
		c7.038-9.003,11.342-20.377,11.342-32.694c0-29.315-23.395-52.71-52.709-52.712c-29.314,0.002-53.375,23.397-53.375,52.712
		c0,12.213,4.406,23.723,11.342,32.694c-2.208-0.276-4.39-0.662-6.672-0.662c-29.316,0-53.379,24.063-53.379,53.379
		s24.063,53.379,53.379,53.379c11.961,0,23.004-4.015,31.891-10.737l-26.782,64.141l86.516-0.005l-27.178-65.086
		c9.087,7.268,20.555,11.687,32.967,11.687C205.009,354.704,228.404,330.642,228.404,301.325z"/>
	<polygon points="126.979,163.202 126.983,163.202 126.987,163.202 	"/>
</g>
</svg>
