<?xml version="1.0" encoding="utf-8"?>
<!-- Generator: Adobe Illustrator 17.0.0, SVG Export Plug-In . SVG Version: 6.00 Build 0)  -->
<!DOCTYPE svg PUBLIC "-//W3C//DTD SVG 1.1//EN" "http://www.w3.org/Graphics/SVG/1.1/DTD/svg11.dtd">
<svg version="1.1" id="Layer_1" xmlns="http://www.w3.org/2000/svg" xmlns:xlink="http://www.w3.org/1999/xlink" x="0px" y="0px"
	 width="613px" height="613px" viewBox="0 0 613 613" enable-background="new 0 0 613 613" xml:space="preserve">
<g>
	<path d="M237.158,334.158c0-23.676-21.041-43.219-51.325-52.012v-18.902c-2.636,3.044-6.499,4.977-10.815,4.977
		c-7.942,0-14.382-6.512-14.382-14.538s6.44-14.533,14.382-14.533c4.316,0,8.179,1.931,10.815,4.974V224.51
		c0-7.974-16.357-14.06-36.533-14.06c-20.176,0-36.531,6.081-36.53,14.06v57.35c-30.287,8.372-51.33,27.309-51.33,52.298
		c0,1.988,0.536,3.931,1.547,5.814h-1.328v263.527h175.278V339.972h-1.324c1.011-1.883,1.547-3.826,1.547-5.814H237.158z"/>
	<path d="M589.437,86.212c-20.498-48.419-83.625-55.759-117.975-12.522c-45.542-94.432-168.374-28.082-136.824,50.218l-0.001,0.007
		c-31.355,2.807-49.572,32.834-45.891,60.247c12.381,37.748,40.503,53.809,73.749,53.999c-32.689,8.554-65.996,6.614-86.577-21.062
		l-97.22,36.659l129.116,61.443c20.736-23.218,52.035-24.455,82.791-16.416c-23.952,0.136-45.239,8.523-59.902,27.308l0.352,0.168
		c-1.631,1.779-3.052,3.578-4.291,5.385c-0.863,1.339-1.7,2.717-2.504,4.145c-14.789,28.127,14.029,56.743,43.792,50.505
		c-27.367,43.469,22.085,77.278,56.998,68.2c-12.008-30.808,2.817-59.766,25.994-83.219c-16.853,29.576-16.59,62.808,11.839,92.972
		c31.437,22.072,88.709,18.393,99.33-34.208c7.973,8.906,25.323,15.652,34.205,16.819V83.42L589.437,86.212z M393.888,196.063
		c1.609-29.118-4.05-46.93-26.219-64.322c28.699,10.362,57.205,9.899,89.163-9.031C425.013,149.755,407.278,159.354,393.888,196.063
		z M492.419,252.73c-29.401,8.346-52.601,41.563-41.638,74.895c-36.397-32.974-6.184-84.59,29.461-89.625
		c-11.127-18.816-11.969-43.592,8.725-62.34c-13.825,42.032,26.672,83.89,65.428,75.911
		C534.871,272.398,509.68,267.946,492.419,252.73z"/>
</g>
</svg>
