<?xml version="1.0" encoding="utf-8"?>
<!-- Generator: Adobe Illustrator 17.0.0, SVG Export Plug-In . SVG Version: 6.00 Build 0)  -->
<!DOCTYPE svg PUBLIC "-//W3C//DTD SVG 1.1//EN" "http://www.w3.org/Graphics/SVG/1.1/DTD/svg11.dtd">
<svg version="1.1" id="Layer_1" xmlns="http://www.w3.org/2000/svg" xmlns:xlink="http://www.w3.org/1999/xlink" x="0px" y="0px"
	 width="612px" height="612px" viewBox="0 0 612 612" enable-background="new 0 0 612 612" xml:space="preserve">
<circle cx="383.227" cy="254.011" r="35.879"/>
<circle cx="427.348" cy="308.25" r="17.939"/>
<path d="M118.326,387.599c-14.191,0-30.447,5.986-47.64,20.636c-11.915,21.057-18.551,44.447-18.551,69.099
	c0,44.16,21.324,84.322,56.094,114.138c-0.134-3.557-0.191-7.153-0.191-10.748c0-55.941,24.327-105.646,61.869-136.361
	C169.926,415.388,148.907,387.599,118.326,387.599z"/>
<path d="M560.86,477.315c0-24.652-6.636-48.042-18.551-69.099c-17.174-14.65-33.431-20.636-47.64-20.636
	c-30.581,0-51.599,27.789-51.599,56.744c37.542,30.734,61.869,80.421,61.869,136.361c0,3.595-0.077,7.172-0.191,10.748
	C539.535,561.637,560.86,521.494,560.86,477.315L560.86,477.315z"/>
<path d="M19.125,20.533v282.878c0,24.48,23.103,48.252,57.566,68.697c13.751-7.248,27.808-11.418,41.616-11.418
	c34.693,0,63.877,24.27,74.205,57.605c2.257,0.593,4.494,1.014,6.732,1.587c16.524-11.858,31.384-14.592,41.463-14.592
	c20.98,0,39.493,11.552,50.356,29.032c5.125,0.249,10.404,0.65,15.262,0.65c4.992,0,10.174-0.21,15.472-0.516
	c10.863-17.557,29.395-29.166,50.433-29.166c9.658,0,23.715,2.601,39.397,13.234c3.175-0.88,6.35-1.855,9.543-2.773
	c11.016-32.015,39.646-55.042,73.459-55.042c12.278,0,24.748,3.27,37.045,9.027c36.471-21.171,61.2-44.695,61.2-66.153V20.533
	H19.125L19.125,20.533z M99.832,261.183c-24.767,0-44.848-20.081-44.848-44.848s20.081-44.848,44.848-44.848
	s44.848,20.062,44.848,44.848C144.681,241.102,124.599,261.183,99.832,261.183z M216.419,343.382
	c-39.608,0-71.738-32.13-71.738-71.738s32.13-71.738,71.738-71.738s71.738,32.111,71.738,71.738
	C288.176,311.252,256.046,343.382,216.419,343.382z M395.792,343.382c-39.608,0-71.738-32.13-71.738-71.738
	s32.13-71.738,71.738-71.738s71.738,32.111,71.738,71.738C467.549,311.252,435.419,343.382,395.792,343.382z M512.378,261.183
	c-24.767,0-44.848-20.081-44.848-44.848s20.081-44.848,44.848-44.848c24.767,0,44.848,20.062,44.848,44.848
	C557.226,241.102,537.145,261.183,512.378,261.183z"/>
<circle cx="91.991" cy="205.319" r="19.718"/>
<circle cx="119.55" cy="239.228" r="7.86"/>
<circle cx="504.537" cy="205.319" r="19.718"/>
<circle cx="532.096" cy="239.228" r="7.86"/>
<path d="M240.745,430.439c-9.735,0-20.904,4.208-32.685,14.516c-8.166,14.822-12.737,31.288-12.737,48.635
	c0,31.097,14.631,59.364,38.499,80.344c-0.096-2.505-0.134-5.03-0.134-7.554c0-39.378,16.696-74.377,42.458-96.008
	C276.146,450.023,261.726,430.439,240.745,430.439z"/>
<path d="M417.671,493.609c0-17.346-4.552-33.813-12.737-48.635c-11.781-10.308-22.931-14.535-32.685-14.516
	c-20.98,0-35.4,19.565-35.4,39.952c25.761,21.63,42.457,56.61,42.457,96.008c0,2.525-0.038,5.049-0.134,7.554
	C403.04,552.973,417.671,524.707,417.671,493.609L417.671,493.609z"/>
<circle cx="203.872" cy="254.011" r="35.879"/>
<circle cx="247.994" cy="308.25" r="17.939"/>
</svg>
