<?xml version="1.0" encoding="utf-8"?>
<!-- Generator: Adobe Illustrator 17.0.0, SVG Export Plug-In . SVG Version: 6.00 Build 0)  -->
<!DOCTYPE svg PUBLIC "-//W3C//DTD SVG 1.1//EN" "http://www.w3.org/Graphics/SVG/1.1/DTD/svg11.dtd">
<svg version="1.1" id="Layer_1" xmlns="http://www.w3.org/2000/svg" xmlns:xlink="http://www.w3.org/1999/xlink" x="0px" y="0px"
	 width="612px" height="612px" viewBox="0 0 612 612" enable-background="new 0 0 612 612" xml:space="preserve">
<g transform="matrix(14.99979 0 0 14.99979 15.99999 -3949.3737)">
	<path d="M19.333,264.57c-9.563,0-19.125,4.781-19.125,11.953c0,4.781,3.586,7.172,3.586,11.953c0,3.586-1.195,3.586-1.195,5.977
		c0,1.195,3.826,2.55,7.172,3.586v4.781h9.563h9.563v-4.781c0,0,7.217-2.228,7.172-3.586c-0.074-2.227-1.195-2.391-1.195-5.977
		c0-2.391,3.637-7.285,3.586-11.953C38.458,269.351,28.896,264.57,19.333,264.57z M12.161,278.913c2.641,0,4.781,2.141,4.781,4.781
		c0,2.641-2.141,4.781-4.781,4.781s-4.781-2.141-4.781-4.781C7.38,281.054,9.521,278.913,12.161,278.913z M26.505,278.913
		c2.641,0,4.781,2.141,4.781,4.781c0,2.641-2.141,4.781-4.781,4.781s-4.781-2.141-4.781-4.781
		C21.724,281.054,23.865,278.913,26.505,278.913z M19.333,287.281c1.195,0,3.586,4.781,3.586,5.977c0,2.391,0,2.391-1.195,2.391
		h-4.781c-1.195,0-1.195,0-1.195-2.391C15.747,292.062,18.138,287.281,19.333,287.281z"/>
</g>
</svg>
