<?xml version="1.0" encoding="utf-8"?>
<!-- Generator: Adobe Illustrator 17.0.0, SVG Export Plug-In . SVG Version: 6.00 Build 0)  -->
<!DOCTYPE svg PUBLIC "-//W3C//DTD SVG 1.1//EN" "http://www.w3.org/Graphics/SVG/1.1/DTD/svg11.dtd">
<svg version="1.1" id="Layer_1" xmlns="http://www.w3.org/2000/svg" xmlns:xlink="http://www.w3.org/1999/xlink" x="0px" y="0px"
	 width="613px" height="613px" viewBox="0 0 613 613" enable-background="new 0 0 613 613" xml:space="preserve">
<g>
	<path d="M235.02,327.512h139.617v32.813h43.093v40.485h28.63v-65.127h29.617v65.127h34.788v-73.297h36.997v-53.751l-314.138-0.001
		c-11.049-39.164-43.362-67.713-81.674-67.713l-0.003-0.005c-47.411,0-85.866,43.46-85.866,97.035s38.453,97.032,85.866,97.035
		C191.845,400.113,225.388,369.197,235.02,327.512z M125.757,327.853c-14.231,0-25.767-11.536-25.767-25.767
		c0-14.231,11.537-25.767,25.767-25.767s25.767,11.536,25.767,25.767C151.524,316.317,139.988,327.853,125.757,327.853z"/>
	<path d="M182.139,133.156h139.617v73.297h31.128V163.75H382.5v42.703h75.383v-30.894h-38.738v-34.554h38.738v-7.849h36.997V79.405
		H180.743c-11.049-39.164-43.362-67.713-81.674-67.713l-0.003-0.005c-47.411,0-85.866,43.46-85.866,97.035
		s38.453,97.032,85.866,97.035C138.964,205.757,172.507,174.841,182.139,133.156z M50.531,108.746
		c0-31.561,21.728-57.145,48.53-57.145c26.802,0,48.527,25.584,48.527,57.145c0,31.561-21.728,57.145-48.527,57.145
		C72.262,165.891,50.531,140.307,50.531,108.746z"/>
	<path d="M600.961,513.678V472.83H292.408l-73.297-65.62v0.003l-74.696,41.188v110.297l74.696,39.789l73.297-71.904h143.805v9.801
		h50.613v29.617h-50.613v33.88h164.748v-56.587h-52.813v-29.617L600.961,513.678z M194.577,520.285
		c-9.87,0-17.872-8.002-17.872-17.872s8.002-17.872,17.872-17.872s17.872,8.002,17.872,17.872S204.448,520.285,194.577,520.285z"/>
</g>
</svg>
