<?xml version="1.0" encoding="utf-8"?>
<!-- Generator: Adobe Illustrator 17.0.0, SVG Export Plug-In . SVG Version: 6.00 Build 0)  -->
<!DOCTYPE svg PUBLIC "-//W3C//DTD SVG 1.1//EN" "http://www.w3.org/Graphics/SVG/1.1/DTD/svg11.dtd">
<svg version="1.1" id="Layer_1" xmlns="http://www.w3.org/2000/svg" xmlns:xlink="http://www.w3.org/1999/xlink" x="0px" y="0px"
	 width="612px" height="612px" viewBox="0 0 612 612" enable-background="new 0 0 612 612" xml:space="preserve">
<g transform="matrix(15 0 0 15 -523.99992 -7729.4306)">
	<g>
		<path d="M39.794,516.57l14.344,15.539l13.148,15.539L51.747,534.5l-15.539-14.344L39.794,516.57z"/>
		<path d="M69.745,537.003c-2.989-1.758-6.716-1.736-9.703,0.02l3.618,3.618c0.799-0.21,1.642-0.195,2.439,0.012l3.646-3.646
			L69.745,537.003L69.745,537.003z M73.151,540.408l-3.646,3.646c0.204,0.797,0.218,1.64,0.008,2.439l3.618,3.618
			C74.887,547.125,74.909,543.398,73.151,540.408L73.151,540.408z M56.661,540.408c-1.755,2.987-1.777,6.714-0.019,9.703
			l3.646-3.646c-0.204-0.797-0.219-1.64-0.008-2.439L56.661,540.408L56.661,540.408z M66.131,549.879
			c-0.799,0.21-1.642,0.196-2.439-0.012l-3.646,3.646c2.989,1.758,6.716,1.736,9.703-0.02l-3.618-3.618V549.879z"/>
	</g>
</g>
</svg>
