<?xml version="1.0" encoding="utf-8"?>
<!-- Generator: Adobe Illustrator 17.0.0, SVG Export Plug-In . SVG Version: 6.00 Build 0)  -->
<!DOCTYPE svg PUBLIC "-//W3C//DTD SVG 1.1//EN" "http://www.w3.org/Graphics/SVG/1.1/DTD/svg11.dtd">
<svg version="1.1" id="Layer_1" xmlns="http://www.w3.org/2000/svg" xmlns:xlink="http://www.w3.org/1999/xlink" x="0px" y="0px"
	 width="613px" height="613px" viewBox="0 0 613 613" enable-background="new 0 0 613 613" xml:space="preserve">
<g>
	<path d="M469.356,417.205h-1.907c15.433-11.845,24.803-27.465,24.803-44.613c0.001-35.481-40.1-64.677-91.085-67.157
		C435.346,190.959,239.63,224.884,271.79,143.81c-69.82,25.286-78.201,91.858-61.361,140.626c5.915,7.599,22.324,15.13,37.48,20.825
		h-29.685c-54.285,0-98.514,30.228-98.514,67.332c0,8.503,2.329,16.629,6.563,24.108c5.75,6.698,24.403,14.153,43.919,20.504
		h-30.153c-64.152,0-116.418,38.182-116.418,85.044s52.268,84.711,116.418,84.711h329.317c64.152,0,115.962-37.849,115.962-84.711
		S533.508,417.205,469.356,417.205z"/>
	<path d="M66.826,400.343c70.61-134.13-37.37-133.091,5.54-222.386C-32.262,270.714,102.215,255.365,66.826,400.343z"/>
	<path d="M535.322,402.197c68.955-135.603-2.062-183.962-12.699-314.964C480.085,266.853,564.338,236.345,535.322,402.197z"/>
	<path d="M165.566,272.928c-34.252-101.145,61.319-154.873-24.716-252.087C191.503,148.8,66.591,157.865,165.566,272.928z"/>
</g>
</svg>
