<?xml version="1.0" encoding="utf-8"?>
<!-- Generator: Adobe Illustrator 17.0.0, SVG Export Plug-In . SVG Version: 6.00 Build 0)  -->
<!DOCTYPE svg PUBLIC "-//W3C//DTD SVG 1.1//EN" "http://www.w3.org/Graphics/SVG/1.1/DTD/svg11.dtd">
<svg version="1.1" id="Layer_1" xmlns="http://www.w3.org/2000/svg" xmlns:xlink="http://www.w3.org/1999/xlink" x="0px" y="0px"
	 width="612px" height="612px" viewBox="0 0 612 612" enable-background="new 0 0 612 612" xml:space="preserve">
<g transform="matrix(15 0 0 15 16 -10969.433)">
	<g>
		<path d="M19.333,732.57c-10.758,0-19.125,4.781-19.125,9.563c0,2.391,1.195,3.586,2.391,4.781
			c-1.195,1.195-2.391,4.336-2.391,5.977v13.148c0,2.391,2.391,4.781,4.781,4.781h28.687c2.391,0,4.781-1.195,4.781-4.781v-14.344
			c0-1.511-1.195-3.586-2.391-4.781c1.195-1.195,2.391-2.391,2.391-4.781C38.458,737.352,30.091,732.57,19.333,732.57z
			 M19.333,737.352c8.367,0,14.344,1.195,14.344,4.781c0,1.195-1.195,3.586-2.391,4.781c1.195,1.195,2.391,4.781,2.391,5.977v13.148
			H4.99v-13.148c0-1.195,1.195-4.781,2.391-5.977c-1.195-1.195-2.391-3.586-2.391-4.781C4.99,738.547,10.966,737.352,19.333,737.352
			z"/>
		<path d="M19.334,739.862l0.845,0.845c0.467,0.467,0.467,1.224,0,1.69L10.036,752.54c-0.467,0.467-1.224,0.467-1.69,0l-0.845-0.845
			c-0.467-0.467-0.467-1.224,0-1.69l10.143-10.143C18.11,739.396,18.867,739.396,19.334,739.862"/>
		<path d="M27.363,742.82l0.845,0.845c0.467,0.467,0.467,1.224,0,1.69L12.995,760.57c-0.467,0.467-1.224,0.467-1.69,0l-0.845-0.845
			c-0.467-0.467-0.467-1.224,0-1.69l15.214-15.214C26.14,742.354,26.897,742.354,27.363,742.82"/>
		<path d="M30.322,750.849l0.845,0.845c0.467,0.467,0.467,1.224,0,1.69l-10.143,10.143c-0.467,0.467-1.224,0.467-1.69,0
			l-0.845-0.845c-0.467-0.467-0.467-1.224,0-1.69l10.143-10.143C29.098,750.383,29.855,750.383,30.322,750.849"/>
	</g>
</g>
</svg>
