<?xml version="1.0" encoding="utf-8"?>
<!-- Generator: Adobe Illustrator 17.0.0, SVG Export Plug-In . SVG Version: 6.00 Build 0)  -->
<!DOCTYPE svg PUBLIC "-//W3C//DTD SVG 1.1//EN" "http://www.w3.org/Graphics/SVG/1.1/DTD/svg11.dtd">
<svg version="1.1" id="Layer_1" xmlns="http://www.w3.org/2000/svg" xmlns:xlink="http://www.w3.org/1999/xlink" x="0px" y="0px"
	 width="613px" height="613px" viewBox="0 0 613 613" enable-background="new 0 0 613 613" xml:space="preserve">
<path d="M518.584,482.274c13.203-42.83,15.95-90.041,12.589-136.923c50.061-24.427,71.691-92.295,39.334-161.25
	c-5.619,41.913-33.556,64.125-56.694,58.047c-10.482-32.302-27.708-61.26-49.728-85.712c11.338-46.216-18.735-100.902-81.436-126.57
	c21.722,29.722,21.507,58.189,6.83,69.794c-30.834-15.495-64.875-24.799-99.865-26.581c-20.135-38.532-70.271-60.201-122.795-43.559
	c32.243,9.221,48.913,31.047,44.338,47.552c-31.573,5.078-61.164,14.646-86.927,29.537c-34.929-19.811-84.155-7.565-107.411,39.452
	c23.226-14.109,48.443-10.395,57.622,2.265c-8.133,9.84-15.335,20.746-21.451,32.797l0.005,0.003
	C-4.724,294.85,18.05,405.288,126.54,448.522c81.775,32.586,189.307-28.02,154.974-123.56
	c-15.447,102.51-164.051,61.023-147.485-32.141c17.141-96.394,154.079-125.677,209.517-29.659
	c42.124,72.963,3.21,146.075-64.126,197.925c-56.725,43.679-149.656,53.734-263.177,17.451v123.56h413.963
	c13.415-8.775,25.237-18.55,35.638-29.155c57.019,6.051,114.484-38.571,127.734-114.29
	C566.668,487.39,535.813,493.857,518.584,482.274z"/>
</svg>
