<?xml version="1.0" encoding="utf-8"?>
<!-- Generator: Adobe Illustrator 17.0.0, SVG Export Plug-In . SVG Version: 6.00 Build 0)  -->
<!DOCTYPE svg PUBLIC "-//W3C//DTD SVG 1.1//EN" "http://www.w3.org/Graphics/SVG/1.1/DTD/svg11.dtd">
<svg version="1.1" id="Layer_1" xmlns="http://www.w3.org/2000/svg" xmlns:xlink="http://www.w3.org/1999/xlink" x="0px" y="0px"
	 width="613px" height="613px" viewBox="0 0 613 613" enable-background="new 0 0 613 613" xml:space="preserve">
<path d="M538.332,370.167c-14.278,13.927-28.091,26.824-43.557,34.84c-1.087-17.261-3.513-33.336-7.884-47.688
	c10.88-14.821,18.529-30.694,20.704-50.181h-0.002c-11.259,10.752-23.446,16.155-36.753,17.244
	c-17.008-22.807-44.693-36.159-88.547-35.19c-2.546-15.119-6.259-29.158-11.639-41.657c6.88-13.53,9.958-30.888,9.501-48.999v0.001
	c-7.498,9.32-17.365,15.845-28.544,19.242c-19.931-21.1-50.755-32.132-98.311-27.697c13.845-7.71,25.756-18.8,33.98-36.336
	c-12.092,5.219-23.739,6.133-35.071,3.11c-2.095-40.811-20.077-68.809-46.351-85.11c-5.426-16.905-16.28-33.662-37.606-50.133
	c2.37,11.982,0.853,23.587-3.235,34.942c-7.677-1.371-15.621-2.115-23.736-2.238c-4.597-17.32-20.129-43.495-20.129-43.495
	L45.109,12.06c22.485,4.658,33.618,23.343,33.687,54.891c-45.356,18.158-59.911,1.498-66.218-26.75l-3.081,75.072
	c17.094,5.536,38.025,7.673,63.348,5.941c-3.841,33.074-1.737,58.995,5.68,78.524c-8.344,7.004-20.165,10.997-33.626,13.573
	c15.72,11.125,34.501,16.918,53.38,15.522c20.713,17.865,52.599,22.287,93.584,15.762c0.581,41.535,11.102,66.517,27.313,82.023
	c-2.125,14.052-10.886,25.038-23.046,33.573h0.002c20.749,0.592,38.579-5.128,54.308-15.397
	c19.849,6.738,42.642,8.574,64.905,11.294c-1.048,8.744-1.645,16.859-1.839,24.408c-13.352,4.162-26.705,1.909-40.057-1.383
	l0.001,0.002c12.339,19.43,26.202,35.597,44.24,42.822c12.177,45.056,48.936,55.726,89.513,61.051l-1.78,1.736
	c0.837,0.476,1.682,0.928,2.521,1.397c-5.52,14.734-16.711,27.487-33.33,43.692h0.002c66.339,32.277,138.862,49.534,215.363,57.127
	C586.776,511.96,565.775,440.434,538.332,370.167z M202.278,189.585c-65.361,36.682-84.212-11.375-84.8-77.96
	C170.773,89.675,208.18,114.42,202.278,189.585z M241.701,245.335c46.929-11.464,80.236,7.314,80.337,52.775
	C265.005,321.632,249.729,288.407,241.701,245.335z M355.512,344.269c54.692-20.803,98.431,0.492,84.8,77.958
	C380.111,456.977,355.345,409.13,355.512,344.269z"/>
</svg>
