<?xml version="1.0" encoding="utf-8"?>
<!-- Generator: Adobe Illustrator 17.0.0, SVG Export Plug-In . SVG Version: 6.00 Build 0)  -->
<!DOCTYPE svg PUBLIC "-//W3C//DTD SVG 1.1//EN" "http://www.w3.org/Graphics/SVG/1.1/DTD/svg11.dtd">
<svg version="1.1" id="Layer_1" xmlns="http://www.w3.org/2000/svg" xmlns:xlink="http://www.w3.org/1999/xlink" x="0px" y="0px"
	 width="613px" height="613px" viewBox="0 0 613 613" enable-background="new 0 0 613 613" xml:space="preserve">
<path d="M36.913,36.019c0,0,40.074-12.918,110.074,23.479c72.91,37.913,102.353,139.574,158.865,140.877
	c56.518-1.302,85.967-102.964,158.871-140.877c69.995-36.397,110.074-23.479,110.074-23.479v102.18c0,0-45.495-2.933-70.444,16.145
	c-18.127,13.857-54.063,64.901-85.315,95.721c46.458,33.269,76.459,85.915,76.459,145.169c0,100.601-86.473,182.154-193.148,182.154
	s-193.154-81.553-193.154-182.154c0-60.995,31.794-114.994,80.602-148.056c-30.549-31.027-64.861-79.404-82.434-92.84
	c-24.954-19.077-70.45-16.145-70.45-16.145L36.913,36.019L36.913,36.019z M214.499,395.032c0,47.823,39.422,86.589,88.052,86.589
	s88.058-38.771,88.058-86.589s-39.422-86.589-88.058-86.589S214.499,347.215,214.499,395.032z"/>
</svg>
