<?xml version="1.0" encoding="utf-8"?>
<!-- Generator: Adobe Illustrator 17.0.0, SVG Export Plug-In . SVG Version: 6.00 Build 0)  -->
<!DOCTYPE svg PUBLIC "-//W3C//DTD SVG 1.1//EN" "http://www.w3.org/Graphics/SVG/1.1/DTD/svg11.dtd">
<svg version="1.1" id="Layer_1" xmlns="http://www.w3.org/2000/svg" xmlns:xlink="http://www.w3.org/1999/xlink" x="0px" y="0px"
	 width="613px" height="613px" viewBox="0 0 613 613" enable-background="new 0 0 613 613" xml:space="preserve">
<path d="M25.871,558.951l194.683-228.835l76.888,84.401L51.501,587.085L25.871,558.951z"/>
<path d="M227.21,306.204l94.66,103.909l89.759-59.788L295.084,222.391L227.21,306.204z"/>
<path d="M569.829,61.42c-6.308,36.081-149.402,128.957-98.575,20.154c-95.883,54.242-128.565,28.004-93.87-6.752
	c-65.532,3.348-75.002,105.37-66.148,134.336l20.854,22.891c-2.556-37.315,0.484-57.937,23.309-85.457
	c16.453,24.639,22.101,40.299,62.225,8.345c-11.227,63.974,65.271,22.39,106.079,13.055c-18.226,16.792-42.029,39.127-46.478,66.315
	c-1.484,9.067,7.433,21.425,16.897,30.63c-11.287,2.672-49.598,10.654-46.117,31.345c3.48,20.691,14.526,14.197,4.2,18.255
	c-14.826,3.306-25.303,6.682-47.341-2.602l22.564,24.769c33.935,17.678,88.349,8.746,99.931-17.768
	c-17.663-1.46-32.42-5.593-39.443-13.789c52.621-9.969,79.783-46.921,102.515-89.701c-40.208,22.65-50.362,21.276-66.907,19.517
	C565.973,217.794,579.541,104.745,569.829,61.42L569.829,61.42z"/>
</svg>
