<?xml version="1.0" encoding="utf-8"?>
<!-- Generator: Adobe Illustrator 19.1.1, SVG Export Plug-In . SVG Version: 6.00 Build 0)  -->
<svg version="1.1" id="Layer_1" xmlns="http://www.w3.org/2000/svg" xmlns:xlink="http://www.w3.org/1999/xlink" x="0px" y="0px"
	 viewBox="0 91 612 612" style="enable-background:new 0 91 612 612;" xml:space="preserve">
<style type="text/css">
	.st0{stroke:#000000;stroke-miterlimit:10;}
</style>
<g transform="matrix(15 0 0 15 -8264 -13489.4333)">
	<path class="st0" d="M576.1,925.8c0,2.6-2.1,4.8-4.8,4.8c-2.6,0-4.8-2.1-4.8-4.8s2.1-4.8,4.8-4.8S576.1,923.1,576.1,925.8z"/>
	<path class="st0" d="M570.1,913.8h2.4c0.7,0,1.2,0.5,1.2,1.2v2.4c0,0.7-0.5,1.2-1.2,1.2h-2.4c-0.7,0-1.2-0.5-1.2-1.2V915
		C568.9,914.3,569.5,913.8,570.1,913.8"/>
	<path class="st0" d="M579.7,923.4h2.4c0.7,0,1.2,0.5,1.2,1.2v2.4c0,0.7-0.5,1.2-1.2,1.2h-2.4c-0.7,0-1.2-0.5-1.2-1.2v-2.4
		C578.5,923.9,579,923.4,579.7,923.4"/>
	<path class="st0" d="M570.1,932.9h2.4c0.7,0,1.2,0.5,1.2,1.2v2.4c0,0.7-0.5,1.2-1.2,1.2h-2.4c-0.7,0-1.2-0.5-1.2-1.2v-2.4
		C568.9,933.5,569.5,932.9,570.1,932.9"/>
	<path class="st0" d="M560.6,923.4h2.4c0.7,0,1.2,0.5,1.2,1.2v2.4c0,0.7-0.5,1.2-1.2,1.2h-2.4c-0.7,0-1.2-0.5-1.2-1.2v-2.4
		C559.4,923.9,559.9,923.4,560.6,923.4"/>
</g>
<g transform="matrix(15 0 0 15 -4844 -2204)">
	<path class="st0" d="M343.3,154.3c-10.6,0-19.1,8.6-19.1,19.1c0,10.6,8.6,19.1,19.1,19.1s19.1-8.6,19.1-19.1
		S353.9,154.3,343.3,154.3z M343.3,159.1c7.9,0,14.3,6.4,14.3,14.3s-6.4,14.3-14.3,14.3s-14.3-6.4-14.3-14.3
		S335.4,159.1,343.3,159.1z"/>
</g>
</svg>
