<?xml version="1.0" encoding="utf-8"?>
<!-- Generator: Adobe Illustrator 17.0.0, SVG Export Plug-In . SVG Version: 6.00 Build 0)  -->
<!DOCTYPE svg PUBLIC "-//W3C//DTD SVG 1.1//EN" "http://www.w3.org/Graphics/SVG/1.1/DTD/svg11.dtd">
<svg version="1.1" id="Layer_1" xmlns="http://www.w3.org/2000/svg" xmlns:xlink="http://www.w3.org/1999/xlink" x="0px" y="0px"
	 width="613px" height="613px" viewBox="0 0 613 613" enable-background="new 0 0 613 613" xml:space="preserve">
<path d="M391.382,241.169c-0.96-1.381-2.539-2.634-4.734-3.613c-34.679-23.576-87.577-1.144-69.063,56.836
	c45.75,143.285,289.689,21.919,238.743-133.334C525.032,65.679,461.465,24.563,375.524,23.535v0.011
	C265.03,22.221,139.596,87.418,90.708,182.709C21.353,317.884,56.472,447.787,132.59,584.803l227.763-0.002
	c0.878,0.035,1.769,0.051,2.686,0.026c0.177-0.005,0.347-0.02,0.523-0.026l64.321-0.001c-12.533-4.186-24.961-9.429-37.159-15.585
	c12.048-20.3,2.825-53.078-27.687-52.255c-13.486,0.364-22.808,7.069-27.979,16.132c-0.983-16.11-11.888-31.231-32.731-30.669
	c-0.533,0.014-1.054,0.047-1.575,0.081c22.275-17.362,15.626-62.082-19.942-61.122c-9.824,0.265-17.433,3.9-22.845,9.354
	c4.838-15.265-2.044-34.483-20.653-36.976c35.029-9.1,32.202-67.793-8.496-66.693c-5.531,0.15-10.36,1.368-14.492,3.375
	c10.18-11.833,8.729-32.518-4.354-41.122c2.123,0.323,4.368,0.475,6.751,0.41c42.381-1.104,43.705-64.875,3.966-67.777
	c0.343-0.827,0.683-1.655,1.041-2.478c8.359-4.139,12.247-13.31,11.664-22.007c0.948-1.501,1.935-2.991,2.941-4.476
	c4.883,3.812,11.34,6.099,19.386,5.881c29.291-0.767,37.613-33.518,24.976-51.676c5.027-3.779,10.333-7.457,15.945-11.018
	c1.929-1.224,3.895-2.382,5.894-3.481c2.548,13.202,12.556,24.516,30.036,24.045c23.577-0.618,33.567-21.968,29.975-39.743
	c12.316-0.457,24.556,0.536,36.106,2.766c-4.638,15.82,3.666,35.673,24.912,35.1c11.87-0.312,19.695-6.789,23.486-15.16
	c3.017,2.256,5.773,4.649,8.221,7.171c0.974,6.348,4.398,12.18,10.27,15.274c0.262,0.647,0.507,1.298,0.732,1.954
	c0.913,2.66,1.635,5.421,2.186,8.256c-27.4,1.091-28.861,41.375-4.383,45.323c-0.826,2.328-1.739,4.643-2.737,6.937
	c-5.041,3.786-7.872,9.691-8.492,15.81c-2.518,3.884-5.3,7.63-8.333,11.188c-2.267-5.964-7.575-10.57-15.953-10.343
	c-18.503,0.501-22.095,23.707-10.792,32.4c-3.891,2.153-7.968,4.041-12.229,5.613c-4.859,1.791-9.782,3.285-14.656,4.193
	c1.997-7.694-2.117-17.078-12.355-16.802c-8.823,0.237-13.091,7.399-12.828,14.23c-4.99-2.521-9.634-6.546-13.756-12.529
	c13.19-3.892,12.051-26.113-3.436-25.985c2.163-4.655,5.778-8.822,10.382-12.205c2.897,2.35,8.018,4.001,15.39,3.903
	c15.015-0.194,20.737-7.379,17.196-12.766c0.035,0.003,0.07,0.004,0.104,0.007C391.517,241.278,391.449,241.226,391.382,241.169z"/>
</svg>
