<?xml version="1.0" encoding="utf-8"?>
<!-- Generator: Adobe Illustrator 17.0.0, SVG Export Plug-In . SVG Version: 6.00 Build 0)  -->
<!DOCTYPE svg PUBLIC "-//W3C//DTD SVG 1.1//EN" "http://www.w3.org/Graphics/SVG/1.1/DTD/svg11.dtd">
<svg version="1.1" id="Layer_1" xmlns="http://www.w3.org/2000/svg" xmlns:xlink="http://www.w3.org/1999/xlink" x="0px" y="0px"
	 width="613px" height="613px" viewBox="0 0 613 613" enable-background="new 0 0 613 613" xml:space="preserve">
<path d="M564.35,377.974c-8.234-8.234-18.845-13.285-30.935-15.376l-140.205-113.1c-11.589-11.588-29.264-14.952-48.862-11.131
	c-1.627-4.642-4.121-8.777-7.548-12.204l-64.193-51.781l0.505-0.505c-2.334-2.334-5.039-4.17-8.021-5.558l-28.911-23.321
	c-8.613-8.613-22.525-10.06-37.49-5.413c-0.706-4.344-2.477-8.156-5.408-11.087l-55.609-44.86
	c6.911-17.493,6.124-34.255-3.813-44.192c-16.167-16.166-50.394-8.149-76.45,17.907c-26.056,26.056-34.074,60.284-17.907,76.45
	c9.911,9.91,26.609,10.718,44.051,3.868l44.895,55.656c2.932,2.933,6.746,4.704,11.091,5.41c-4.647,14.965-3.2,28.877,5.412,37.489
	l26,32.231c0.931,1.393,1.979,2.706,3.162,3.92l52.004,64.467c3.426,3.427,7.56,5.921,12.202,7.548
	c-3.821,19.599-0.457,37.275,11.131,48.864l113.106,140.215c2.092,12.085,7.142,22.691,15.374,30.922
	c31.94,31.94,99.562,16.101,151.041-35.378S596.289,409.914,564.35,377.974z M443.585,479.374
	c22.47-22.47,51.447-30.535,67.598-19.693c0.778,1.857,1.364,3.829,1.761,5.897c-5.291,2.152-10.702,5.727-15.541,10.566
	c-12.841,12.841-16.792,29.709-8.825,37.677c1.596,1.596,3.553,2.705,5.759,3.369c-1.65,1.925-3.388,3.82-5.235,5.668
	c-22.47,22.47-51.447,30.536-67.598,19.693C414.53,525.902,423.043,499.916,443.585,479.374z"/>
</svg>
