<?xml version="1.0" encoding="utf-8"?>
<!-- Generator: Adobe Illustrator 17.0.0, SVG Export Plug-In . SVG Version: 6.00 Build 0)  -->
<!DOCTYPE svg PUBLIC "-//W3C//DTD SVG 1.1//EN" "http://www.w3.org/Graphics/SVG/1.1/DTD/svg11.dtd">
<svg version="1.1" id="Layer_1" xmlns="http://www.w3.org/2000/svg" xmlns:xlink="http://www.w3.org/1999/xlink" x="0px" y="0px"
	 width="613px" height="613px" viewBox="0 0 613 613" enable-background="new 0 0 613 613" xml:space="preserve">
<g>
	<polygon points="200.534,37.778 200.54,37.776 200.534,37.776 	"/>
	<polygon points="275.779,241.85 275.774,241.846 275.773,241.848 	"/>
	<path d="M590.113,440.096c-167.681-66.225-134.687-147.38-314.334-198.247c48.073,33.331,76.5,65.827,90.308,95.699
		c-97.754-37.933-196.604-40.699-273.775,10.538c50.522-122.129,207.258-168.664,270.249-140.709
		c-1.961,5.628-4.328,11.089-7.065,16.32l183.572,36.821c2.491-6.457,4.783-12.936,6.912-19.432l0.378,0.144
		c12.1-20.683,10.146-38.4,0.089-57.218c-1.399,14.028-7.201,26.228-17.64,40.18c-31.082,3.48-59.464-18.404-63.806-49.571
		c-4.416-31.695,17.698-60.968,49.392-65.383c9.913-1.381,19.585-0.163,28.335,3.13c8.653,19.449,12.192,34.498,9.593,50.358
		c12.138-12.958,18.648-26.635,16.848-44.175c1.289-15.601,2.137-31.249,2.716-46.926C393.557,98.114,381.552-7.996,200.54,37.776
		c68.568,5.68,113.013,27.323,138.98,55.496c-28.734-6.13-59.151-8.4-90.137-6.968l-0.003,0.005
		c-78.234,3.61-159.123,30.953-222.69,79.582v421.697h82.776c29.387-148.46,179.421-181.326,244.567-147.384
		c-7.636,8.919-16.915,16.775-27.356,23.394l140.566,123.675c5.433-4.384,10.7-8.888,15.834-13.49l0.193,0.237
		c20.817-11.864,27.984-28.185,28.683-49.509c-8.271,11.509-19.473,19.195-35.629,26.087c-28.522-12.594-42.07-45.652-30.274-74.748
		c12.023-29.656,45.811-43.95,75.467-31.927c9.293,3.768,17.074,9.674,23.009,16.92c-2.239,21.043-6.704,35.779-16.845,48.171
		c16.884-5.122,29.311-13.637,36.544-29.533C573.168,466.582,581.751,453.42,590.113,440.096z M391.074,84.129
		c10.31-1.436,19.833,5.758,21.27,16.068c1.437,10.31-5.758,19.834-16.068,21.27c-0.506,0.07-1.008,0.104-1.509,0.133
		c-0.573,0.034-1.142,0.037-1.707,0.02c-0.042-0.001-0.085,0-0.128-0.002c-0.538-0.021-1.07-0.069-1.598-0.134
		c-0.069-0.009-0.139-0.014-0.208-0.024c-0.504-0.068-1.001-0.161-1.493-0.269c-0.091-0.02-0.182-0.037-0.273-0.059
		c-0.469-0.11-0.931-0.242-1.387-0.387c-0.111-0.035-0.222-0.069-0.331-0.106c-0.433-0.146-0.858-0.311-1.277-0.487
		c-0.128-0.054-0.255-0.108-0.382-0.165c-0.396-0.177-0.784-0.369-1.166-0.572c-0.142-0.076-0.283-0.154-0.423-0.233
		c-0.358-0.203-0.709-0.416-1.052-0.641c-0.154-0.101-0.305-0.206-0.456-0.312c-0.319-0.223-0.633-0.453-0.938-0.695
		c-0.163-0.129-0.321-0.264-0.479-0.399c-0.281-0.238-0.557-0.481-0.824-0.736c-0.167-0.16-0.326-0.326-0.487-0.492
		c-0.243-0.25-0.485-0.502-0.714-0.765c-0.166-0.191-0.322-0.391-0.481-0.589c-0.207-0.258-0.414-0.516-0.608-0.785
		c-0.16-0.224-0.308-0.458-0.459-0.689c-0.172-0.263-0.347-0.523-0.505-0.795c-0.15-0.257-0.283-0.525-0.421-0.791
		c-0.138-0.265-0.282-0.525-0.408-0.798c-0.135-0.292-0.249-0.597-0.369-0.898c-0.105-0.261-0.219-0.518-0.312-0.785
		c-0.119-0.341-0.212-0.695-0.312-1.045c-0.069-0.243-0.151-0.479-0.211-0.726c-0.116-0.479-0.201-0.971-0.28-1.466
		c-0.02-0.127-0.053-0.248-0.071-0.375c-0.003-0.025-0.004-0.049-0.007-0.074c-0.063-0.466-0.094-0.929-0.123-1.391
		c-0.015-0.287-0.029-0.574-0.034-0.86c0,0-0.001,0-0.001,0C374.694,93.695,381.545,85.456,391.074,84.129z M437.661,385.07
		c-3.911,9.647-14.904,14.298-24.55,10.386c-9.646-3.912-14.297-14.903-10.386-24.551c3.911-9.647,14.904-14.298,24.55-10.386
		C436.921,364.431,441.572,375.423,437.661,385.07z"/>
</g>
</svg>
