<?xml version="1.0" encoding="utf-8"?>
<!-- Generator: Adobe Illustrator 17.0.0, SVG Export Plug-In . SVG Version: 6.00 Build 0)  -->
<!DOCTYPE svg PUBLIC "-//W3C//DTD SVG 1.1//EN" "http://www.w3.org/Graphics/SVG/1.1/DTD/svg11.dtd">
<svg version="1.1" id="Layer_1" xmlns="http://www.w3.org/2000/svg" xmlns:xlink="http://www.w3.org/1999/xlink" x="0px" y="0px"
	 width="613px" height="613px" viewBox="0 0 613 613" enable-background="new 0 0 613 613" xml:space="preserve">
<path d="M202.605,54.343v503.263"/>
<path d="M54.387,409.168h503.126"/>
<path d="M405.809,54.343v503.263"/>
<path d="M54.387,205.964h500.909"/>
<path d="M271.213,271.206l69.574,69.574"/>
<path d="M272.122,339.871l67.756-67.756"/>
<path d="M472.098,65.475l69.574,69.574"/>
<path d="M473.008,134.141l67.756-67.756"/>
<path d="M68.01,476.899l69.574,69.574"/>
<path d="M68.919,545.565l67.756-67.756"/>
<rect x="197.5" y="54.343" width="10" height="503.263"/>
<rect x="401.5" y="54.343" width="9" height="503.264"/>
<rect x="54.387" y="402.493" width="503.126" height="6.675"/>
<rect x="54.387" y="202.627" width="503.126" height="6.675"/>
<rect x="503.375" y="51.724" transform="matrix(-0.7052 0.709 -0.709 -0.7052 935.3795 -188.4546)" width="6.987" height="97.017"/>
<rect x="503.396" y="51.761" transform="matrix(-0.7019 -0.7123 0.7123 -0.7019 791.2469 531.7015)" width="6.987" height="97.02"/>
<rect x="302.393" y="256.722" transform="matrix(-0.7052 0.709 -0.709 -0.7052 738.0093 303.6057)" width="6.987" height="97.017"/>
<rect x="302.391" y="256.762" transform="matrix(-0.7019 -0.7123 0.7123 -0.7019 303.1399 737.4153)" width="6.987" height="97.02"/>
<rect x="99.323" y="463.144" transform="matrix(-0.7052 0.709 -0.709 -0.7052 538.0873 799.5754)" width="6.987" height="97.017"/>
<rect x="99.297" y="463.185" transform="matrix(-0.7019 -0.7123 0.7123 -0.7019 -189.5367 944.064)" width="6.987" height="97.02"/>
<path d="M306,54.343c-26.736,0-48.41,20.559-48.41,45.92s21.674,45.92,48.41,45.92s48.41-20.559,48.41-45.92
	S332.736,54.343,306,54.343z M306,139.217c-22.68,0-41.066-17.44-41.066-38.954S283.32,61.309,306,61.309
	s41.066,17.44,41.066,38.954S328.68,139.217,306,139.217z"/>
<path d="M102.797,54.343c-26.736,0-48.41,20.559-48.41,45.92s21.674,45.92,48.41,45.92s48.41-20.559,48.41-45.92
	S129.533,54.343,102.797,54.343z M102.797,139.217c-22.68,0-41.066-17.44-41.066-38.954s18.386-38.954,41.066-38.954
	s41.066,17.44,41.066,38.954S125.477,139.217,102.797,139.217z"/>
<path d="M506.886,259.343c-26.736,0-48.41,20.559-48.41,45.92c0,25.361,21.674,45.92,48.41,45.92c26.736,0,48.41-20.559,48.41-45.92
	C555.296,279.902,533.622,259.343,506.886,259.343z M506.886,344.217c-22.68,0-41.066-17.44-41.066-38.954
	s18.386-38.954,41.066-38.954c22.68,0,41.066,17.44,41.066,38.954C547.952,326.776,529.566,344.217,506.886,344.217z"/>
<path d="M305,465.767c-26.736,0-48.41,20.559-48.41,45.92c0,25.361,21.674,45.92,48.41,45.92s48.41-20.559,48.41-45.92
	S331.736,465.767,305,465.767z M305,550.64c-22.68,0-41.066-17.44-41.066-38.954S282.32,472.732,305,472.732
	s41.066,17.44,41.066,38.954S327.68,550.64,305,550.64z"/>
</svg>
