<?xml version="1.0" encoding="utf-8"?>
<!-- Generator: Adobe Illustrator 17.0.0, SVG Export Plug-In . SVG Version: 6.00 Build 0)  -->
<!DOCTYPE svg PUBLIC "-//W3C//DTD SVG 1.1//EN" "http://www.w3.org/Graphics/SVG/1.1/DTD/svg11.dtd">
<svg version="1.1" id="Layer_1" xmlns="http://www.w3.org/2000/svg" xmlns:xlink="http://www.w3.org/1999/xlink" x="0px" y="0px"
	 width="613px" height="613px" viewBox="0 0 613 613" enable-background="new 0 0 613 613" xml:space="preserve">
<g>
	<path d="M107.03,478.492v106.217h41.573C142.621,547.628,126.897,512.522,107.03,478.492z"/>
	<path d="M107.031,222.796L107.031,222.796L107.03,465.13c35.628,25.84,66.172,53.888,73.497,90.995
		c-4.193-53.148-4.975-106.015,17.451-159.163c6.292,46.042,9.655,92.178,32.112,138.221c30.26-63.712,71.676-90.289,122.166-86.562
		c-35.507,31.006-67.253,66.026-89.355,113.789c37.626-36.097,79.935-46.261,124.259-48.866
		c-29.691,20.987-56.885,41.824-70.914,71.167H418.84c8.283-33.878-5.255-66.092-21.003-100.259
		c32.98,21.715,61.07,48.31,73.997,92.844c4.216-46.617-4.587-88.076-18.148-127.745c-0.001,0-0.001-0.001-0.002-0.001v-0.004
		c0.001,0.002,0.001,0.004,0.002,0.005c21.33,10.303,36.599,26.348,45.919,48.131V222.796
		C499.604-59.185,107.031-58.895,107.031,222.796z"/>
</g>
</svg>
