<?xml version="1.0" encoding="utf-8"?>
<!-- Generator: Adobe Illustrator 17.0.0, SVG Export Plug-In . SVG Version: 6.00 Build 0)  -->
<!DOCTYPE svg PUBLIC "-//W3C//DTD SVG 1.1//EN" "http://www.w3.org/Graphics/SVG/1.1/DTD/svg11.dtd">
<svg version="1.1" id="Layer_1" xmlns="http://www.w3.org/2000/svg" xmlns:xlink="http://www.w3.org/1999/xlink" x="0px" y="0px"
	 width="612px" height="612px" viewBox="0 0 612 612" enable-background="new 0 0 612 612" xml:space="preserve">
<g transform="matrix(15 0 0 15 -7004 -4489.433)">
	<g>
		<path d="M486.138,324.477h-4.781v-4.781l-3.586-2.391V300.57h8.367v2.391l-3.586,2.391v4.781l3.586,2.391V324.477z
			 M488.529,324.477v-11.953l3.586-2.391v-4.781l-3.586-2.391v-2.391h8.367v16.734l-3.586,2.391v4.781L488.529,324.477
			L488.529,324.477z M493.31,326.867c2.391,0,3.586,1.195,3.586,2.391h-4.781h-9.563h-4.781c0-1.195,1.195-2.391,3.586-2.391H493.31
			z M499.286,331.648c1.195,0,2.391,1.195,2.391,2.391v4.781H472.99v-4.781c0-1.195,1.195-2.391,2.391-2.391H499.286z"/>
		<path d="M490.919,307.742c0,1.98-1.605,3.586-3.586,3.586s-3.586-1.605-3.586-3.586c0-1.98,1.605-3.586,3.586-3.586
			S490.919,305.762,490.919,307.742z"/>
	</g>
</g>
</svg>
