<?xml version="1.0" encoding="utf-8"?>
<!-- Generator: Adobe Illustrator 17.0.0, SVG Export Plug-In . SVG Version: 6.00 Build 0)  -->
<!DOCTYPE svg PUBLIC "-//W3C//DTD SVG 1.1//EN" "http://www.w3.org/Graphics/SVG/1.1/DTD/svg11.dtd">
<svg version="1.1" id="Layer_1" xmlns="http://www.w3.org/2000/svg" xmlns:xlink="http://www.w3.org/1999/xlink" x="0px" y="0px"
	 width="613px" height="613px" viewBox="0 0 613 613" enable-background="new 0 0 613 613" xml:space="preserve">
<g>
	<path d="M518.354,197.029c-12.517-5.972-26.165-8.31-40.271-7.349c18.113-5.74,36.013-10.677,53.274-14.388
		c20.545-19.948,49.373-53.318,59.072-79.591c-29.959-5.171-72.597,6.34-98.464,11.363c-11.654,13.309-24.622,26.407-38.358,39.181
		c7.694-11.608,12.376-24.43,13.448-38.066c3.747-47.697-55.461-83.999-98.811-60.705c27.822,4.558,44.286,25.51,44.49,54.682
		c0.329,47.355-31.929,73.644-104.526,104.837l-0.001,0.002c38.929,0.319,73.786-7.98,100.885-22.292
		c-30.846,25-62.671,48.039-90.634,68.021c31.513-13.735,67.453-29.417,104.275-43.528c-25.808,16.326-50.283,42.279-69.38,75.992
		l0.003,0.001c63.313-47.274,102.209-62.066,143.054-38.104c25.162,14.762,35.074,39.496,25.111,65.87
		C563.368,287.059,561.533,217.633,518.354,197.029z"/>
	<path d="M262.98,285.188l0.003-0.001c-19.096-33.71-43.568-59.662-69.375-75.989c36.82,14.111,72.759,29.792,104.271,43.527
		c-27.965-19.983-59.79-43.023-90.637-68.023c27.098,14.312,61.957,22.611,100.886,22.293l-0.001-0.002
		c-72.597-31.194-104.855-57.482-104.526-104.837c0.203-29.172,16.669-50.124,44.49-54.682
		c-43.35-23.294-102.558,13.009-98.811,60.705c1.072,13.636,5.754,26.459,13.448,38.067c-13.735-12.774-26.703-25.872-38.357-39.181
		c-25.866-5.023-68.505-16.534-98.464-11.363c9.698,26.272,38.526,59.644,59.072,79.591c17.259,3.71,35.156,8.647,53.267,14.386
		c-14.104-0.961-27.75,1.378-40.265,7.349c-43.179,20.603-45.015,90.03-3.167,115.926c-9.963-26.373-0.051-51.108,25.111-65.87
		C160.771,223.122,199.667,237.914,262.98,285.188z"/>
	<path d="M391.775,428.691c-41.175-23.392-47.813-64.473-38.528-142.941l-0.002-0.002c-19.647,33.395-29.886,67.567-31.121,98.08
		c-6.19-38.945-10.58-77.911-14.441-112.069c-3.324,34.209-7.364,73.289-13.591,112.502c-1.155-30.623-11.397-64.96-31.137-98.514
		l-0.002,0.002c9.285,78.468,2.647,119.549-38.528,142.941c-25.365,14.41-51.742,10.626-69.601-11.189
		c1.503,49.19,62.545,82.314,101.978,55.221c11.273-7.746,20.036-18.212,26.242-30.679c-4.195,18.282-9.054,36.061-14.753,52.808
		c8.583,24.912,19.934,67.594,39.392,90.954c17.904-21.535,32.39-63.187,39.392-90.954c-5.417-16.804-10.091-34.774-14.177-53.33
		c6.22,12.697,15.07,23.347,26.5,31.201c39.433,27.093,100.476-6.031,101.978-55.221C443.517,439.317,417.141,443.1,391.775,428.691
		z"/>
</g>
</svg>
