<?xml version="1.0" encoding="utf-8"?>
<!-- Generator: Adobe Illustrator 17.0.0, SVG Export Plug-In . SVG Version: 6.00 Build 0)  -->
<!DOCTYPE svg PUBLIC "-//W3C//DTD SVG 1.1//EN" "http://www.w3.org/Graphics/SVG/1.1/DTD/svg11.dtd">
<svg version="1.1" id="Layer_1" xmlns="http://www.w3.org/2000/svg" xmlns:xlink="http://www.w3.org/1999/xlink" x="0px" y="0px"
	 width="613px" height="613px" viewBox="0 0 613 613" enable-background="new 0 0 613 613" xml:space="preserve">
<path d="M594.491,489.265l-81.31-81.31h-83.353l-20.381-20.53c18.267-22.79,29.2-51.711,29.2-83.19
	c0-30.006-9.931-57.691-26.681-79.955l85.411-85.585c12.265,14.625,22.686,31.651,31.509,52.195l0.002,0.002
	c27.655-58.63,51.864-117.26,64.572-175.893c-58.63,14.985-117.26,37.285-175.892,64.572c21.099,10.53,39.467,21.699,55.438,34.951
	l-85.084,85.151c-22.666-17.887-51.286-28.564-82.402-28.564c-31.13,0-59.763,10.688-82.435,28.591l-84.779-85.399
	c15.908-13.154,34.184-24.26,55.165-34.73C134.84,52.284,76.21,29.984,17.58,14.999c12.708,58.633,36.917,117.263,64.572,175.893
	l0.002-0.002c8.704-20.268,18.969-37.108,31.02-51.601l85.203,85.933c-16.325,22.101-25.982,49.427-25.982,79.012
	c0,31.153,10.704,59.803,28.63,82.483l-21.221,21.237H97.86l-81.31,81.31h82.008l-12.977,12.987L110.4,526.46l11.756-11.78
	l0.001,80.193l81.313-81.31l-0.002-80.361l22.312-22.357c22.227,16.652,49.831,26.516,79.741,26.516
	c29.177,0,56.156-9.394,78.094-25.312l23.957,24.162l-0.001,77.351l81.313,81.31l0.001-76.651l24.031,24.237l25.544-25.077
	l-27.913-28.117H594.491z M384.765,304.235c0,16.512-5.055,31.84-13.695,44.532l-41.56-41.864l43.738-43.827
	C380.555,275.073,384.765,289.162,384.765,304.235z M305.523,224.993c16.223,0,31.301,4.884,43.861,13.249l-44.162,44.196
	l-43.753-44.073C274.068,229.923,289.219,224.993,305.523,224.993z M226.281,304.235c0-14.576,3.953-28.222,10.82-39.956
	l42.966,43.334l-40.503,40.535C231.177,335.578,226.281,320.48,226.281,304.235z M305.523,383.477
	c-15.016,0-29.055-4.178-41.021-11.433l39.853-39.934l40.537,40.884C333.291,379.651,319.858,383.477,305.523,383.477z"/>
</svg>
