<?xml version="1.0" encoding="utf-8"?>
<!-- Generator: Adobe Illustrator 17.0.0, SVG Export Plug-In . SVG Version: 6.00 Build 0)  -->
<!DOCTYPE svg PUBLIC "-//W3C//DTD SVG 1.1//EN" "http://www.w3.org/Graphics/SVG/1.1/DTD/svg11.dtd">
<svg version="1.1" id="Layer_1" xmlns="http://www.w3.org/2000/svg" xmlns:xlink="http://www.w3.org/1999/xlink" x="0px" y="0px"
	 width="613px" height="613px" viewBox="0 0 613 613" enable-background="new 0 0 613 613" xml:space="preserve">
<path d="M294.945,27.584c-13.96-0.245-27.53,5.094-36.997,18.15c-34.98,48.231-47.186,94.018-53.054,133.334
	c-5.394,36.139-16.144,71.385-36.997,104.015c-38.003,59.463-78.719,149.109-87.959,200.35c-7.01,38.714,21.405,50.268,39.093,8.377
	c24.197-57.303,78.282-150.333,145.898-124.259c61.26,23.618,10.667,146.025-26.527,182.2c-30.016,29.194-8.609,61.519,28.62,26.527
	c39.502-37.129,93.952-110.276,113.09-175.917c7.45-25.554,18.874-52.326,41.188-64.922
	c47.588-26.868,97.807-70.512,117.278-159.163c13.03-59.324-60.384-84.179-101.92-44.677c-6.337-60.24-55.565-74.518-91.45-42.583
	C357.246,55.987,325.654,28.124,294.945,27.584z"/>
</svg>
