<?xml version="1.0" encoding="utf-8"?>
<!-- Generator: Adobe Illustrator 17.0.0, SVG Export Plug-In . SVG Version: 6.00 Build 0)  -->
<!DOCTYPE svg PUBLIC "-//W3C//DTD SVG 1.1//EN" "http://www.w3.org/Graphics/SVG/1.1/DTD/svg11.dtd">
<svg version="1.1" id="Layer_1" xmlns="http://www.w3.org/2000/svg" xmlns:xlink="http://www.w3.org/1999/xlink" x="0px" y="0px"
	 width="612px" height="612px" viewBox="0 0 612 612" enable-background="new 0 0 612 612" xml:space="preserve">
<g transform="matrix(15 0 0 15 -4844 -3824)">
	<path d="M338.552,266.038c-4.875,0-8.898,3.652-9.488,8.367h-4.856v2.391h4.856c0.59,4.715,4.613,8.367,9.488,8.367h1.195
		c0.662,0,1.195-0.533,1.195-1.195v-2.391h3.586v-2.391h-3.586v-7.172h3.586v-2.391h-3.586v-2.391c0-0.662-0.533-1.195-1.195-1.195
		L338.552,266.038L338.552,266.038z M355.286,266.038c-0.662,0-1.195,0.533-1.195,1.195v2.391h2.391v2.391h-2.391v7.172h2.391v2.391
		h-2.391v2.391c0,0.662,0.533,1.195,1.195,1.195h7.172v-19.125L355.286,266.038L355.286,266.038z"/>
</g>
</svg>
