<?xml version="1.0" encoding="utf-8"?>
<!-- Generator: Adobe Illustrator 17.0.0, SVG Export Plug-In . SVG Version: 6.00 Build 0)  -->
<!DOCTYPE svg PUBLIC "-//W3C//DTD SVG 1.1//EN" "http://www.w3.org/Graphics/SVG/1.1/DTD/svg11.dtd">
<svg version="1.1" id="Layer_1" xmlns="http://www.w3.org/2000/svg" xmlns:xlink="http://www.w3.org/1999/xlink" x="0px" y="0px"
	 width="613px" height="613px" viewBox="0 0 613 613" enable-background="new 0 0 613 613" xml:space="preserve">
<path d="M308.15,23.224c-152.924,0-277.049,124.125-277.049,277.049c0,66.618,23.576,127.625,62.81,175.37l-24.876,43.221h158.269
	L148.015,381.74l-26.742,46.641c-24.979-36.433-39.49-80.638-39.49-128.108c0-124.935,101.429-226.365,226.365-226.365
	s226.365,101.429,226.365,226.365c0,46.748-13.957,90.443-38.246,126.554l-26.118-45.086l-79.292,137.124h158.27l-25.808-44.776
	c38.519-47.553,61.878-107.891,61.878-173.815c0-152.924-124.125-277.049-277.049-277.049L308.15,23.224z"/>
<path d="M313.035,113.565c-60.133-2.37-137.036,31.895-159.163,125.306l72.601,17.103c32.233-91.133,108.604-84.645,135.428-34.205
	c32.002,60.178-107.174,128.216-100.524,227.575h92.844c7.758-117.314,142.219-147.594,71.205-274.346
	c-21.448-38.28-65.622-59.588-112.39-61.431v-0.002H313.035z"/>
<path d="M378.236,531.37c0,38.249-31.006,69.255-69.254,69.255s-69.254-31.006-69.254-69.255s31.006-69.255,69.254-69.255
	S378.236,493.121,378.236,531.37z"/>
</svg>
