<?xml version="1.0" encoding="utf-8"?>
<!-- Generator: Adobe Illustrator 17.0.0, SVG Export Plug-In . SVG Version: 6.00 Build 0)  -->
<!DOCTYPE svg PUBLIC "-//W3C//DTD SVG 1.1//EN" "http://www.w3.org/Graphics/SVG/1.1/DTD/svg11.dtd">
<svg version="1.1" id="Layer_1" xmlns="http://www.w3.org/2000/svg" xmlns:xlink="http://www.w3.org/1999/xlink" x="0px" y="0px"
	 width="612px" height="612px" viewBox="0 0 612 612" enable-background="new 0 0 612 612" xml:space="preserve">
<g transform="matrix(14.99976 0 0 14.99976 16.00381 -4903.9143)">
	<g>
		<path d="M23.963,336.893c0,2.616,0,5.989,0,8.606h-9.26c0-2.616,0-5.989,0-8.606 M13.768,334.322h-1.606l1.206,1.961v24.504
			c0,3.142,2.661,5.671,5.966,5.671s5.966-2.529,5.966-5.671v-24.504l1.206-1.961H24.9 M17.345,347.719
			c0.61,0,1.103,0.469,1.103,1.049c0,0.58-0.493,1.052-1.103,1.052s-1.106-0.471-1.106-1.052S16.734,347.719,17.345,347.719z
			 M20.927,349.438c0.961,0,1.74,0.741,1.74,1.654s-0.779,1.654-1.74,1.654s-1.74-0.741-1.74-1.654S19.966,349.438,20.927,349.438z"
			/>
		<path d="M22.608,343.641c0.006,0.58-0.483,1.055-1.093,1.061s-1.11-0.459-1.116-1.039c0-0.007,0-0.015,0-0.022
			c-0.006-0.58,0.483-1.055,1.093-1.061s1.11,0.459,1.116,1.039C22.608,343.627,22.608,343.634,22.608,343.641z"/>
		<path d="M22.809,332.184c0.006,0.58-0.483,1.055-1.093,1.061s-1.11-0.459-1.116-1.039c0-0.007,0-0.015,0-0.022
			c-0.006-0.58,0.483-1.055,1.093-1.061s1.11,0.459,1.116,1.039C22.809,332.169,22.809,332.177,22.809,332.184z"/>
		<path d="M19.861,329.862c0,0.914-0.779,1.654-1.74,1.654s-1.74-0.741-1.74-1.654s0.779-1.654,1.74-1.654
			S19.861,328.948,19.861,329.862z"/>
	</g>
</g>
</svg>
