<?xml version="1.0" encoding="utf-8"?>
<!-- Generator: Adobe Illustrator 17.0.0, SVG Export Plug-In . SVG Version: 6.00 Build 0)  -->
<!DOCTYPE svg PUBLIC "-//W3C//DTD SVG 1.1//EN" "http://www.w3.org/Graphics/SVG/1.1/DTD/svg11.dtd">
<svg version="1.1" id="Layer_1" xmlns="http://www.w3.org/2000/svg" xmlns:xlink="http://www.w3.org/1999/xlink" x="0px" y="0px"
	 width="612px" height="612px" viewBox="0 0 612 612" enable-background="new 0 0 612 612" xml:space="preserve">
<g transform="matrix(15 0 0 15 -4844 -2744)">
</g>
<g transform="matrix(7.5 0 0 7.05882 -1664 -8795.9693)">
	<path d="M291.354,1320.523v-23.906c-4.781-4.781-9.563-9.563-9.563-14.344c0-9.563,4.781-23.906,19.125-28.688
		c0,0-4.781-4.781-9.563-4.781H277.01c0,9.563-9.563,14.344-14.344,14.344s-14.344-4.781-14.344-14.344h-14.344
		c-4.781,0-9.563,4.781-9.563,4.781c14.344,4.781,19.125,19.125,19.125,28.688c0,4.781-4.781,9.563-9.563,14.344v23.906
		c9.563,4.781,19.125,9.563,28.687,9.563C272.229,1330.085,281.792,1325.304,291.354,1320.523z"/>
</g>
</svg>
