<?xml version="1.0" encoding="utf-8"?>
<!-- Generator: Adobe Illustrator 17.0.0, SVG Export Plug-In . SVG Version: 6.00 Build 0)  -->
<!DOCTYPE svg PUBLIC "-//W3C//DTD SVG 1.1//EN" "http://www.w3.org/Graphics/SVG/1.1/DTD/svg11.dtd">
<svg version="1.1" id="Layer_1" xmlns="http://www.w3.org/2000/svg" xmlns:xlink="http://www.w3.org/1999/xlink" x="0px" y="0px"
	 width="613px" height="613px" viewBox="0 0 613 613" enable-background="new 0 0 613 613" xml:space="preserve">
<path d="M210.505,114.026c0-9.239-1.166-18.756-5.184-27.342c-3.215-5.409-7.516-5.713-10.945-3.729
	c-4.403,2.546-9.581,10.095-9.581,24.635c0.754,98.637-1.872,204.994-3.338,303.166h-96.9V114.021
	c0-26.582-11.01-49.415-45.242-49.549l-10.469-0.048c21.661-24.673,43.225-35.281,78.057-35.281
	c22.447,0,43.429,8.896,57.937,24.031l2.348-2.129l2.766-2.37c20.858-16.086,44.766-19.526,62.896-19.526
	c22.41,0,43.354,8.864,57.857,23.956l2.268-2.054l2.755-2.37c20.869-16.086,44.766-19.526,62.901-19.526
	c41.096,0,77.019,29.744,77.811,72.659c0.444,23.822,0.401,55.497,0.112,90.003c9.474-26.813,27.989-60.815,61.013-60.815
	c27.262,0,81.78,1.364,81.78,167.653c0,120.608-62.671,189.491-106.041,223.215c5.585,2.156,11.47,3.044,17.445,3.044
	c29.99,0,54.524-24.534,54.524-24.534v34.083c0,0-10.223,33.393-85.188,33.393c-22.34,0-40.55-3.6-55.428-9.961
	c-46.189,14.722-101.997,22.907-101.997,22.907v-36.806c0,0,28.674-1.444,63.709-16.37c-22.832-31.055-27.556-75.559-29.803-116.858
	l-0.273-9.892V114.027c0-9.239-1.172-18.756-5.184-27.342c-3.103-5.227-7.201-5.612-10.394-4.023
	c-4.098,2.038-9.201,8.485-10.02,21.393c1.172,90.42-1.979,218.935-3.285,306.713h-96.899V114.027L210.505,114.026z
	 M435.319,286.703l-0.037,2.456l-0.171,10.116c-0.733,43.841-1.519,84.247-1.921,111.487c0,26.855,2.365,47.773,6.468,63.929
	c29.723-34.575,52.464-86.333,52.464-163.775C492.122,90.814,437.015,232.896,435.319,286.703z"/>
</svg>
