<?xml version="1.0" encoding="utf-8"?>
<!-- Generator: Adobe Illustrator 17.0.0, SVG Export Plug-In . SVG Version: 6.00 Build 0)  -->
<!DOCTYPE svg PUBLIC "-//W3C//DTD SVG 1.1//EN" "http://www.w3.org/Graphics/SVG/1.1/DTD/svg11.dtd">
<svg version="1.1" id="Layer_1" xmlns="http://www.w3.org/2000/svg" xmlns:xlink="http://www.w3.org/1999/xlink" x="0px" y="0px"
	 width="613px" height="613px" viewBox="0 0 613 613" enable-background="new 0 0 613 613" xml:space="preserve">
<path d="M566.59,518.994c50.228-42.144,17.03-149.072-48.75-216.871c63.082-60.249-10.727-106.975-86.319-125.333
	c32.888,25.944,25.9,58.141,38.49,87.239c-20.755-12.135-43.033-19.831-65.864-21.122c-85.834-6.791-81.058,56.197-1.676,83.586
	c-37.923-13.566-40.264-80.863,19.64-62.203l-0.036-0.195c103.36,48.31,155.811,202.943,101.376,212.586
	c-27.598,4.889-66.169-13.213-112.441-59.007c23.039-5.277,37.259-28.567,64.284-48.696c-40.207-2.195-75.165-19.293-83.23,28.855
	c-23.356-25.779-48.412-58.185-74.801-97.767C233.874,174.995,160.4,108.023,107.677,86.127
	c17.268-6.711,34.809-19.077,65.056-7.017c-42.891-44.964-79.902-65.997-96.196-0.987c-2.936-0.206-5.772-0.229-8.491-0.049h-0.002
	c-66.14,4.368-67.628,121.532,42.582,293.195c-85.998-210.053-42.559-270.85,52.964-187.648
	c-46.048,21.05-25.858,54.04-6.419,87.853c-1.539-36.678,23.616-46.023,29.07-66.391c28.373,28.944,60.252,68.782,94.022,119.414
	c9.232,13.842,18.366,26.856,27.391,39.124c-17.388,12.609-9.467,39.805-42.599,54.052c37.163,0.876,64.715-4.068,63.718-26.465
	c96.153,120.473,177.38,152.652,221.01,137.418c-1.823,16.735,10.68,34.376-7.571,58.83
	C582.583,565.405,605.366,542.983,566.59,518.994z"/>
</svg>
