<?xml version="1.0" encoding="utf-8"?>
<!-- Generator: Adobe Illustrator 17.0.0, SVG Export Plug-In . SVG Version: 6.00 Build 0)  -->
<!DOCTYPE svg PUBLIC "-//W3C//DTD SVG 1.1//EN" "http://www.w3.org/Graphics/SVG/1.1/DTD/svg11.dtd">
<svg version="1.1" id="Layer_1" xmlns="http://www.w3.org/2000/svg" xmlns:xlink="http://www.w3.org/1999/xlink" x="0px" y="0px"
	 width="613px" height="613px" viewBox="0 0 613 613" enable-background="new 0 0 613 613" xml:space="preserve">
<path d="M471.32,105.189c-21.321-18.558-50.316-0.999-80.413,22.692c-0.925-11.037-8.406-15.519-8.406-27.482
	c0,0,30.759-6.999,38.25-19.125c6.703-10.845,7.751-28.127,0-38.25c-24.088-31.458-95.628-30.996-114.745-30.996
	c-19.125,0-90.663-0.461-114.745,30.996c-7.751,10.123-6.703,27.408,0,38.25c7.494,12.125,38.25,19.125,38.25,19.125
	c0,8.763-8.529,14.369-8.486,28.533c-31.399-24.018-61.707-42.419-83.215-22.964c-38.503,34.82,2.237,112.259,24.943,156.478
	c-14.495,38.421-19.366,76.885-9.761,105.703c19.125,57.377,76.503,95.628,76.503,133.871c0,19.125-19.125,19.125-19.125,38.25
	s38.25,57.377,95.628,57.377c57.377,0,95.628-38.25,95.628-57.377c0-19.125-19.125-19.125-19.125-38.25
	c0-38.25,57.377-76.503,76.503-133.871c9.609-28.828,4.731-67.309-9.776-105.743C471.057,217.81,510.565,139.339,471.32,105.189z
	 M229.495,157.776c-19.868,19.868-37.44,44.324-51.134,70.187c-18.89-32.036-52.728-80.542-26.304-104.893
	c17.765-16.376,65.367,19.544,73.495,25.901c1.089,2.737,2.383,5.652,3.959,8.805H229.495z M386.983,147.809
	c12.621-9.914,53.763-40.026,70.42-25.25c26.754,23.727-5.703,72.51-24.029,104.905c-13.655-25.68-31.131-49.947-50.873-69.688
	C384.33,154.119,385.803,150.817,386.983,147.809z"/>
</svg>
