<?xml version="1.0" encoding="utf-8"?>
<!-- Generator: Adobe Illustrator 17.0.0, SVG Export Plug-In . SVG Version: 6.00 Build 0)  -->
<!DOCTYPE svg PUBLIC "-//W3C//DTD SVG 1.1//EN" "http://www.w3.org/Graphics/SVG/1.1/DTD/svg11.dtd">
<svg version="1.1" id="Layer_1" xmlns="http://www.w3.org/2000/svg" xmlns:xlink="http://www.w3.org/1999/xlink" x="0px" y="0px"
	 width="613px" height="613px" viewBox="0 0 613 613" enable-background="new 0 0 613 613" xml:space="preserve">
<path d="M408.855,175.129c-44.033-24.673-100.637-31.432-145.604-22.136L214.386,46.519c-10.653,16.791-18.703,34.425-23.8,53.109
	l-0.262-35.978c-15.045,38.085-23.341,84.56-13.034,127.445c-45.116-9.545-90.896-12.002-137.567-4.94
	c40.733,12.158,63.072,28.443,91.664,55.855c-32.068,11.665-72.048,36.161-111.113,83.949c42.398-10.584,77.52-13.71,106.931-7.543
	C83.043,345.267,50.59,385.533,21.572,454.842c42.914-20.607,77.574-22.503,123.054-22.57
	c-27.571,39.145-42.164,92.383-43.41,134.889c29.323-31.089,68.871-71.891,104.212-94.367
	c3.588,35.739,17.961,69.682,42.963,101.855c-0.29-57.216,14.731-115.329,45.198-174.342l2.735-1.36l0.918-0.798
	c35.743-14.757,72.582-22.787,109.395-24.913l-17.409-12.354c41.061-8.482,86.272-14.614,141.479-17
	c9.122-15.384,16.468-28.981,22.537-41.573l-7.529-29.181l-29.185,36.819l-9.419-32.841l-26.853,34.885l-8.995-31.195
	l-28.516,37.597l-9.171-33.715l-28.515,37.596l1.462-49.174l26.953-50.955l9.171,33.711l28.515-37.59l9.173,33.708l28.02-35.852
	l7.827,32.161l29.185-36.815l9.419,32.838l29.43-38.229c2.719-12.876,5.491-26.854,8.807-42.722
	C526.658,158.957,465.915,169.094,408.855,175.129z"/>
</svg>
