<?xml version="1.0" encoding="utf-8"?>
<!-- Generator: Adobe Illustrator 17.0.0, SVG Export Plug-In . SVG Version: 6.00 Build 0)  -->
<!DOCTYPE svg PUBLIC "-//W3C//DTD SVG 1.1//EN" "http://www.w3.org/Graphics/SVG/1.1/DTD/svg11.dtd">
<svg version="1.1" id="Layer_1" xmlns="http://www.w3.org/2000/svg" xmlns:xlink="http://www.w3.org/1999/xlink" x="0px" y="0px"
	 width="613px" height="613px" viewBox="0 0 613 613" enable-background="new 0 0 613 613" xml:space="preserve">
<path d="M346.552,404.583c-22.12-22.12-57.984-22.12-80.104,0s-22.12,57.984,0,80.104c22.12,22.12,57.984,22.12,80.104,0
	C368.672,462.566,368.672,426.703,346.552,404.583"/>
<path d="M500.085,331.155l-56.74,56.74c-75.577-75.577-198.112-75.577-273.689,0l-56.74-56.74
	C219.83,224.24,393.171,224.24,500.085,331.155L500.085,331.155z"/>
<path d="M540.137,291.102c-129.034-129.034-338.24-129.034-467.274,0l-58.409-58.409c161.292-161.292,422.8-161.292,584.092,0
	L540.137,291.102z"/>
</svg>
