<?xml version="1.0" encoding="utf-8"?>
<!-- Generator: Adobe Illustrator 17.0.0, SVG Export Plug-In . SVG Version: 6.00 Build 0)  -->
<!DOCTYPE svg PUBLIC "-//W3C//DTD SVG 1.1//EN" "http://www.w3.org/Graphics/SVG/1.1/DTD/svg11.dtd">
<svg version="1.1" id="Layer_1" xmlns="http://www.w3.org/2000/svg" xmlns:xlink="http://www.w3.org/1999/xlink" x="0px" y="0px"
	 width="613px" height="613px" viewBox="0 0 613 613" enable-background="new 0 0 613 613" xml:space="preserve">
<g>
	<path d="M165.182,46.44C80.672,94.975,23.467,185.615,23.467,290.065c0,105.011,57.841,195.988,143.099,244.316
		c-56.72-55.803-93.536-144.088-93.536-244.316C73.029,190.547,109.135,102.337,165.182,46.44z"/>
	<path d="M449.305,49.244c54.477,56.009,89.35,142.929,89.35,240.839c0,98.172-35.321,184.849-90.06,240.839
		c82.099-49.151,137.529-138.202,137.529-240.839S531.105,98.45,449.305,49.244z"/>
	<path d="M152.605,290.083c0-79.333,33.209-148.742,82.379-184.999c-73.427,29.415-125.662,101.049-125.662,184.999
		c0,84.156,52.608,155.714,126.354,184.999C186.244,438.919,152.605,369.66,152.605,290.083z"/>
	<path d="M508.622,290.083c0.018-75.165-41.881-140.538-103.31-174.532c42.049,38.198,69.11,102.283,69.11,174.532
		c0,73.073-27.622,137.174-70.512,175.224C466.069,431.536,508.622,365.809,508.622,290.083z"/>
	<path d="M213.959,290.101c0-53.28,22.052-99.292,53.636-121.85c-50.982,17.137-87.407,65.093-87.407,121.85
		c0,57.261,37.041,105.778,88.733,122.505C236.591,390.422,213.959,344.15,213.959,290.101z"/>
	<path d="M360.964,172.232c28.5,23.81,47.021,67.821,47.021,117.869c0,50.814-19.118,94.976-48.347,118.542
		c45.918-19.679,78.137-65.41,78.137-118.542C437.774,237.512,406.153,192.23,360.964,172.232z"/>
	<path d="M313.177,252.612c-24.276,0-43.937,19.679-43.937,43.936c0,18.512,11.449,34.329,27.641,40.801v254.778h32.574v-254.77
		c16.208-6.47,27.659-22.301,27.659-40.809C357.114,272.291,337.435,252.631,313.177,252.612z"/>
</g>
</svg>
