<?xml version="1.0" encoding="utf-8"?>
<!-- Generator: Adobe Illustrator 17.0.0, SVG Export Plug-In . SVG Version: 6.00 Build 0)  -->
<!DOCTYPE svg PUBLIC "-//W3C//DTD SVG 1.1//EN" "http://www.w3.org/Graphics/SVG/1.1/DTD/svg11.dtd">
<svg version="1.1" id="Layer_1" xmlns="http://www.w3.org/2000/svg" xmlns:xlink="http://www.w3.org/1999/xlink" x="0px" y="0px"
	 width="613px" height="613px" viewBox="0 0 613 613" enable-background="new 0 0 613 613" xml:space="preserve">
<g>
	<polygon points="383.526,213.622 383.513,213.63 383.522,213.628 	"/>
	<path d="M388.442,20.958c0.035,0.042,0.068,0.085,0.102,0.127l-41.746,38.763l44.112-4.486l-18.403,36.003l45.479-19.215
		c31.257,83.634,0.742,184.419-62.83,198.737c-8.888-34.383-50.075-49.109-42.231-78.426c2.633,1.91,5.649,3.385,8.979,4.277
		c2.6,0.697,5.212,0.987,7.773,0.923l-0.472,0.533l27.427,31.871l26.881-16.435c-9.246,2.323-34.27-5.99-37.556-21.861
		c4.461-3.523,7.866-8.461,9.451-14.375c0.147-0.55,0.271-1.1,0.383-1.65l12.345,24.401l6.24-20.258
		c9.114,6.667,14.908,16.27,13.731,25.272l19.931-35.144l-86.229-35.33l-69.398-57.412l20.442,37.353L215.23,91.017l42.001,37.335
		c-48.531,33.661-26.397,101.653-2.141,142.592c-68.732-11.576-123.273-92.561-114.468-173.361l58.819-25.538l-37.149-6.144
		l34.911-39.946l-38.268,13.796c0.044-0.08,0.084-0.161,0.129-0.241C-42.181,118.795,19.912,478.191,82.887,539.14
		c-5.127-35.552-6.423-58.383-2.287-68.312c3.817,25.077,8.864,48.983,15.194,70.824l3.194-71.836
		c6.515,4.553,14.703,12.409,24.779,23.616c-5.76-15.957-8.111-31.68-7.755-45.759c24.246,49.804,80.498,82.761,125.076,74.482
		c26.827-4.983,49.966-15.216,69.1-29.255l8.734,18.426c-23.987,6.019-27.26,39.009-17.614,65.877
		c2.089-23.766,13.58-35.613,25.974-38.612c-7.884,18.966-5.613,36.604-3.723,52.783c12.132-14.518,25.661-28.442,28.242-47.04
		c10.443,8.763,14.721,25.688,1.426,46.684c31.461-18.496,37.73-50.198,9.532-68.953l-38.33-40.992
		c7.075-6.638,13.437-13.87,19.063-21.599l46.953,18.857c-4.715,16.364,6.97,37.668,23.629,51.77
		c-9.626-20.664-5.768-35.954,3.063-44.349c1.948,20.785,12.718,34.896,22.392,47.891c3.261-18.726,8.117-37.647-0.256-54.972
		c13.169,1.865,25.345,13.827,24.312,38.104c17.182-30.282,7.294-59.464-24.868-61.593l-84.951-11.817
		c15.248-27.472,22.322-59.556,20.334-92.611c16.961-41.479,59.835-14.116,65.172,58.767c32.782-96.036,80.187-46.156,70.318,29.303
		c11.097-21.972,20.879-35.271,29.217-40.669l22.794,91.427c0.493-27.794-1.021-57.475-4.27-87.895
		c8.502,11.733,13.55,39.496,14.713,80.759C624.131,344.776,571.03,54.114,388.442,20.958z M225.841,474.57
		c-33.019,8.705-83.345-13.626-100.549-64.15c14.677-25.193,44.66-26.274,75.112,27.01c-22.85-75.535,63.412-110.38,75.806-55.443
		C276.209,424.896,264.8,464.299,225.841,474.57z"/>
	<path d="M353.179,591.099c0.017-0.027,0.032-0.054,0.049-0.081c-0.01,0.006-0.02,0.012-0.03,0.018L353.179,591.099z"/>
</g>
</svg>
