<?xml version="1.0" encoding="utf-8"?>
<!-- Generator: Adobe Illustrator 17.0.0, SVG Export Plug-In . SVG Version: 6.00 Build 0)  -->
<!DOCTYPE svg PUBLIC "-//W3C//DTD SVG 1.1//EN" "http://www.w3.org/Graphics/SVG/1.1/DTD/svg11.dtd">
<svg version="1.1" id="Layer_1" xmlns="http://www.w3.org/2000/svg" xmlns:xlink="http://www.w3.org/1999/xlink" x="0px" y="0px"
	 width="612px" height="612px" viewBox="0 0 612 612" enable-background="new 0 0 612 612" xml:space="preserve">
<g transform="matrix(15 0 0 15 -4304 -2744)">
</g>
<path d="M500.219,378.245c-6.001-2.568-18.992,4.262-34.364,15.883l-88.132-88.132l88.139-88.139
	c15.369,11.618,28.357,18.446,34.357,15.878c21.341-9.146,103.635-201.195,91.44-213.391
	c-12.195-12.206-204.244,70.099-213.39,91.44c-2.571,5.999,4.254,18.985,15.87,34.351L306,234.273l-88.138-88.138
	c11.616-15.367,18.441-28.352,15.87-34.351C224.586,90.443,32.538,8.138,20.343,20.344c-12.195,12.196,70.099,204.244,91.44,213.391
	c6,2.568,18.988-4.26,34.357-15.878l88.139,88.139l-88.132,88.132c-15.372-11.621-28.363-18.451-34.364-15.883
	C90.441,387.391,8.148,579.44,20.343,591.635c12.195,12.207,204.244-70.098,213.39-91.44c2.571-5.998-4.252-18.981-15.865-34.344
	L306,377.718l88.133,88.133c-11.612,15.363-18.435,28.346-15.865,34.344c9.146,21.342,201.195,103.647,213.39,91.44
	C603.854,579.44,521.56,387.391,500.219,378.245z"/>
</svg>
