<?xml version="1.0" encoding="utf-8"?>
<!-- Generator: Adobe Illustrator 17.0.0, SVG Export Plug-In . SVG Version: 6.00 Build 0)  -->
<!DOCTYPE svg PUBLIC "-//W3C//DTD SVG 1.1//EN" "http://www.w3.org/Graphics/SVG/1.1/DTD/svg11.dtd">
<svg version="1.1" id="Layer_1" xmlns="http://www.w3.org/2000/svg" xmlns:xlink="http://www.w3.org/1999/xlink" x="0px" y="0px"
	 width="613px" height="613px" viewBox="0 0 613 613" enable-background="new 0 0 613 613" xml:space="preserve">
<path d="M552.398,25.857c-108.534,74.662-341.599-4.292-433.852,71.434c-90.076,73.945-94.265,245.586,17.623,287.641l2.076-2.27
	c44.276-32.437,104.797-40.684,158.879-25.668c12.012-63.529-30.236-139.357-127.573-144.648
	c49.234-15.156,93.335-7.323,128.039,13.742c33.667-22.113,78.378-26.621,117.708-14.158c16.3-29.509,6.566-74.136-41.684-89.719
	c13.804-0.56,26.04,1.856,36.605,6.437c28.977-27.532,87.363-24.643,104.126,24.38c-24.909-30.157-60.43-24.915-77.875-5.236
	c19.669,22.325,25.726,55.235,15.714,82.222c28.985,20.242,50.041,52.694,52.879,96.971
	c-34.318-75.457-110.48-83.577-156.973-52.143c24.398,36.51,34.43,82.086,24.44,123.807c29.219,27.353,49.411,66.051,52.598,115.781
	C378.107,411.045,272.94,401.222,210.41,445.818l-1.157-0.158C339.886,677.996,690.823,557.965,552.398,25.857z"/>
<path d="M95.396,585.999c29.065-85.466,72.107-150.879,137.812-198.741c-93.83,18.777-153.407,83.732-208.081,156.785
	C34.94,571.759,56.524,587.597,95.396,585.999z"/>
<path d="M298.057,251.475c13.993,26.434,40.71,86.197,7.079,133.689c-75.977-27.367-168.124,13.302-213.39,82.93l74.346-16.52
	c53.324-68.789,134.388-54.723,170.972-45.185c14.54-45.823,14.424-100.573-15.502-135.87c29.025-30.083,80.597-40.02,117.39-23.451
	c-46.875-29.472-97.385-26.113-140.894,4.418v-0.011H298.057z"/>
</svg>
