<?xml version="1.0" encoding="utf-8"?>
<!-- Generator: Adobe Illustrator 17.0.0, SVG Export Plug-In . SVG Version: 6.00 Build 0)  -->
<!DOCTYPE svg PUBLIC "-//W3C//DTD SVG 1.1//EN" "http://www.w3.org/Graphics/SVG/1.1/DTD/svg11.dtd">
<svg version="1.1" id="Layer_1" xmlns="http://www.w3.org/2000/svg" xmlns:xlink="http://www.w3.org/1999/xlink" x="0px" y="0px"
	 width="613px" height="613px" viewBox="0 0 613 613" enable-background="new 0 0 613 613" xml:space="preserve">
<path d="M132.142,503.492l93.238,53.254c50.074-24.819,97.439-60.154,140.434-101.638c-23.551-62.693-80.27-124.761-156.24-189.324
	c77.692,28.652,160.178,86.542,203.705,139.105c11.215-12.971,22.025-26.305,32.389-39.901
	c-9.893-38.075-84.194-110.873-152.229-150.977c79.932,15.144,160.092,56.606,188.952,98.933
	c15.325-23.497,29.283-47.371,41.692-71.157c-37.713-59.881-93.777-111.618-193.875-158.612
	c94.966,18.314,170.436,56.128,220.898,101.207c5.452-13.005,10.383-25.865,14.754-38.499l0.01-0.005
	C438.258,63.008,298.382,21.259,131.483,25.437c-14.239,32.381-26.764,67.7-36.881,104.615c72.64-2.511,150.2,6.617,222.03,28.736
	c-40.784-34.608-102.309-61.223-176.381-82.089c-0.089,0.004-0.178,0.005-0.267,0.009l0.014-0.082
	c0.085,0.024,0.169,0.048,0.254,0.072c127.369-5.72,253.303,76.29,303.057,144.289c-66.09-22.566-206.054-49.215-314.282-51.335
	c77.308,22.404,160.659,72.869,201.873,116.252c-72.451-37.461-176.404-76.995-251.641-88.513
	c-3.116,17.09-5.676,34.336-7.602,51.629c117.673,20.223,200.711,106.829,249.826,191.646
	C223.169,344.83,142.194,310.521,68.104,294.125c-0.67,14.628-0.855,29.211-0.511,43.681
	c90.252,16.46,185.839,75.83,234.198,138.424c-45.055-4.172-68.768-4.592-100.249,0c17.783,18.368,26.135,36.737,32.312,55.901
	c-32.938-27.552-87.708-53.813-124.038-69.847c27.513-15.025,70.459-12.522,100.182-15.025
	c-33.204-31.949-90.501-55.781-139.052-59.959c8.549,75.059,33.194,144.548,79.7,197.683c8.919-2.313,17.782-4.993,26.582-8.019
	L132.142,503.492z"/>
</svg>
